<svg width="24" height="24" viewBox="0 0 24 24" fill="none" xmlns="http://www.w3.org/2000/svg">
<path fill-rule="evenodd" clip-rule="evenodd" d="M12 4C7.58172 4 4 7.58172 4 12C4 16.4183 7.58172 20 12 20C16.4183 20 20 16.4183 20 12C20 7.58172 16.4183 4 12 4ZM2 12C2 6.47715 6.47715 2 12 2C17.5228 2 22 6.47715 22 12C22 17.5228 17.5228 22 12 22C6.47715 22 2 17.5228 2 12Z" fill="#1F2937"/>
<path fill-rule="evenodd" clip-rule="evenodd" d="M8.0511 10.1838C8.22575 9.65983 8.79207 9.37667 9.31601 9.55131L11.9998 10.4459L14.6836 9.55131C15.2075 9.37667 15.7738 9.65983 15.9485 10.1838C16.1231 10.7077 15.84 11.274 15.316 11.4487L12.9998 12.2208V13.1972L14.8318 15.9453C15.1382 16.4048 15.014 17.0257 14.5545 17.332C14.095 17.6384 13.4741 17.5142 13.1677 17.0547L11.9998 15.3028L10.8318 17.0547C10.5255 17.5142 9.90461 17.6384 9.44508 17.332C8.98555 17.0257 8.86138 16.4048 9.16773 15.9453L10.9998 13.1972V12.2208L8.68356 11.4487C8.15961 11.274 7.87645 10.7077 8.0511 10.1838Z" fill="#1F2937"/>
<path fill-rule="evenodd" clip-rule="evenodd" d="M10.5 7.49625C10.5 6.66782 11.1716 5.99625 12 5.99625C12.8284 5.99625 13.5 6.66782 13.5 7.49625C13.5 8.32467 12.8284 8.99625 12 8.99625C11.1716 8.99625 10.5 8.32467 10.5 7.49625Z" fill="#1F2937"/>
</svg>
