<svg width="24" height="24" viewBox="0 0 24 24" fill="none" xmlns="http://www.w3.org/2000/svg">
<path fill-rule="evenodd" clip-rule="evenodd" d="M10.0569 2.99785C10.4939 3.02274 10.864 3.329 10.9701 3.75369L14.1913 16.6382L16.0637 11.6451C16.21 11.2548 16.5832 10.9962 17 10.9962H21C21.5523 10.9962 22 11.4439 22 11.9962C22 12.5485 21.5523 12.9962 21 12.9962H17.693L14.9363 20.3473C14.7826 20.7572 14.3802 21.0195 13.9431 20.9946C13.5061 20.9697 13.136 20.6635 13.0299 20.2388L9.80873 7.35427L7.93633 12.3474C7.78997 12.7377 7.41684 12.9962 7 12.9962H3C2.44772 12.9962 2 12.5485 2 11.9962C2 11.4439 2.44772 10.9962 3 10.9962H6.307L9.06367 3.6451C9.21738 3.23522 9.61982 2.97295 10.0569 2.99785Z" fill="#1F2937"/>
</svg>
