<svg width="24" height="24" viewBox="0 0 24 24" fill="none" xmlns="http://www.w3.org/2000/svg">
<path fill-rule="evenodd" clip-rule="evenodd" d="M5 6.00375C4.44772 6.00375 4 6.45147 4 7.00375V17.0038C4 17.556 4.44772 18.0038 5 18.0038H19C19.5523 18.0038 20 17.556 20 17.0038V7.00375C20 6.45147 19.5523 6.00375 19 6.00375H5ZM2 7.00375C2 5.3469 3.34315 4.00375 5 4.00375H19C20.6569 4.00375 22 5.3469 22 7.00375V17.0038C22 18.6606 20.6569 20.0038 19 20.0038H5C3.34315 20.0038 2 18.6606 2 17.0038V7.00375Z" fill="#1F2937"/>
<path fill-rule="evenodd" clip-rule="evenodd" d="M9 10C8.73478 10 8.48043 10.1054 8.29289 10.2929C8.10536 10.4804 8 10.7348 8 11V15C8 15.5523 7.55228 16 7 16C6.44772 16 6 15.5523 6 15V11C6 10.2044 6.31607 9.44129 6.87868 8.87868C7.44129 8.31607 8.20435 8 9 8C9.79565 8 10.5587 8.31607 11.1213 8.87868C11.6839 9.44129 12 10.2043 12 11V15C12 15.5523 11.5523 16 11 16C10.4477 16 10 15.5523 10 15V11C10 10.7348 9.89464 10.4804 9.70711 10.2929C9.51957 10.1054 9.26522 10 9 10Z" fill="#1F2937"/>
<path fill-rule="evenodd" clip-rule="evenodd" d="M8.00015 13.0002C8.00015 12.4479 8.00015 12.0002 8 11.9962H9.99993C10 12.0002 10 12.4479 10 13.0002C10 13.5524 9.99993 14.0002 9.99993 14.0002L8 13.9962C8 14.0002 8.00015 13.5524 8.00015 13.0002Z" fill="#1F2937"/>
<path fill-rule="evenodd" clip-rule="evenodd" d="M17 8C17.5523 8 18 8.44772 18 9V15C18 15.5523 17.5523 16 17 16H15.5C15.0055 16 14.5222 15.8534 14.1111 15.5787C13.7 15.304 13.3795 14.9135 13.1903 14.4567C13.0011 13.9999 12.9516 13.4972 13.048 13.0123C13.1445 12.5273 13.3826 12.0819 13.7322 11.7322C14.0819 11.3826 14.5273 11.1445 15.0123 11.048C15.34 10.9829 15.6757 10.9843 16 11.0505V9C16 8.44772 16.4477 8 17 8ZM16 13.5C16 13.4011 15.9707 13.3044 15.9157 13.2222C15.8608 13.14 15.7827 13.0759 15.6913 13.0381C15.6 13.0002 15.4994 12.9903 15.4025 13.0096C15.3055 13.0289 15.2164 13.0765 15.1464 13.1464C15.0765 13.2164 15.0289 13.3055 15.0096 13.4025C14.9903 13.4994 15.0002 13.6 15.0381 13.6913C15.0759 13.7827 15.14 13.8608 15.2222 13.9157C15.3044 13.9707 15.4011 14 15.5 14H16V13.5Z" fill="#1F2937"/>
</svg>
