<svg width="16" height="16" viewBox="0 0 16 16" fill="none" xmlns="http://www.w3.org/2000/svg">
<path d="M12.6667 4.66797C13.0348 4.66797 13.3333 4.96645 13.3333 5.33464C13.3333 5.70283 13.0348 6.0013 12.6667 6.0013H3.33332C2.96513 6.0013 2.66666 5.70283 2.66666 5.33464C2.66666 4.96645 2.96513 4.66797 3.33332 4.66797H12.6667Z" fill="#1F2937"/>
<path d="M9.33332 7.33203C9.70151 7.33203 9.99999 7.63051 9.99999 7.9987C9.99999 8.36689 9.70151 8.66536 9.33332 8.66536H3.33332C2.96513 8.66536 2.66666 8.36689 2.66666 7.9987C2.66666 7.63051 2.96513 7.33203 3.33332 7.33203H9.33332Z" fill="#1F2937"/>
<path d="M7.33332 10C7.70151 10 7.99999 10.2985 7.99999 10.6667C7.99999 11.0349 7.70151 11.3333 7.33332 11.3333H3.33332C2.96513 11.3333 2.66666 11.0349 2.66666 10.6667C2.66666 10.2985 2.96513 10 3.33332 10H7.33332Z" fill="#1F2937"/>
<path d="M14 10C14.3682 10 14.6667 10.2985 14.6667 10.6667C14.6667 11.0349 14.3682 11.3333 14 11.3333H10C9.63182 11.3333 9.33334 11.0349 9.33334 10.6667C9.33334 10.2985 9.63182 10 10 10H14Z" fill="#1F2937"/>
<path d="M11.3333 12.6667V8.66667C11.3333 8.29848 11.6318 8 12 8C12.3682 8 12.6667 8.29848 12.6667 8.66667V12.6667C12.6667 13.0349 12.3682 13.3333 12 13.3333C11.6318 13.3333 11.3333 13.0349 11.3333 12.6667Z" fill="#1F2937"/>
</svg>
