<svg width="24" height="24" viewBox="0 0 24 24" fill="none" xmlns="http://www.w3.org/2000/svg">
<path fill-rule="evenodd" clip-rule="evenodd" d="M6 9.00378C5.44771 9.00378 5 9.4515 5 10.0038C5 10.5561 5.44771 11.0038 6 11.0038C6.55228 11.0038 7 10.5561 7 10.0038C7 9.4515 6.55228 9.00378 6 9.00378ZM3 10.0038C3 8.34693 4.34315 7.00378 6 7.00378C7.65685 7.00378 9 8.34693 9 10.0038C9 11.6606 7.65685 13.0038 6 13.0038C4.34315 13.0038 3 11.6606 3 10.0038Z" fill="#1F2937"/>
<path fill-rule="evenodd" clip-rule="evenodd" d="M6 2.99622C6.55228 2.99622 7 3.44393 7 3.99622V7.99622C7 8.5485 6.55228 8.99622 6 8.99622C5.44772 8.99622 5 8.5485 5 7.99622V3.99622C5 3.44393 5.44772 2.99622 6 2.99622Z" fill="#1F2937"/>
<path fill-rule="evenodd" clip-rule="evenodd" d="M6 11C6.55228 11 7 11.4477 7 12V20C7 20.5523 6.55228 21 6 21C5.44772 21 5 20.5523 5 20V12C5 11.4477 5.44772 11 6 11Z" fill="#1F2937"/>
<path fill-rule="evenodd" clip-rule="evenodd" d="M12 15.0038C11.4477 15.0038 11 15.4515 11 16.0038C11 16.5561 11.4477 17.0038 12 17.0038C12.5523 17.0038 13 16.5561 13 16.0038C13 15.4515 12.5523 15.0038 12 15.0038ZM9 16.0038C9 14.3469 10.3431 13.0038 12 13.0038C13.6569 13.0038 15 14.3469 15 16.0038C15 17.6606 13.6569 19.0038 12 19.0038C10.3431 19.0038 9 17.6606 9 16.0038Z" fill="#1F2937"/>
<path fill-rule="evenodd" clip-rule="evenodd" d="M12 2.99622C12.5523 2.99622 13 3.44393 13 3.99622V13.9962C13 14.5485 12.5523 14.9962 12 14.9962C11.4477 14.9962 11 14.5485 11 13.9962V3.99622C11 3.44393 11.4477 2.99622 12 2.99622Z" fill="#1F2937"/>
<path fill-rule="evenodd" clip-rule="evenodd" d="M12 17C12.5523 17 13 17.4477 13 18V20C13 20.5523 12.5523 21 12 21C11.4477 21 11 20.5523 11 20V18C11 17.4477 11.4477 17 12 17Z" fill="#1F2937"/>
<path fill-rule="evenodd" clip-rule="evenodd" d="M18 6.00378C17.4477 6.00378 17 6.4515 17 7.00378C17 7.55607 17.4477 8.00378 18 8.00378C18.5523 8.00378 19 7.55607 19 7.00378C19 6.4515 18.5523 6.00378 18 6.00378ZM15 7.00378C15 5.34693 16.3431 4.00378 18 4.00378C19.6569 4.00378 21 5.34693 21 7.00378C21 8.66064 19.6569 10.0038 18 10.0038C16.3431 10.0038 15 8.66064 15 7.00378Z" fill="#1F2937"/>
<path fill-rule="evenodd" clip-rule="evenodd" d="M18 2.99622C18.5523 2.99622 19 3.44393 19 3.99622V4.99622C19 5.5485 18.5523 5.99622 18 5.99622C17.4477 5.99622 17 5.5485 17 4.99622V3.99622C17 3.44393 17.4477 2.99622 18 2.99622Z" fill="#1F2937"/>
<path fill-rule="evenodd" clip-rule="evenodd" d="M18 8C18.5523 8 19 8.44772 19 9V20C19 20.5523 18.5523 21 18 21C17.4477 21 17 20.5523 17 20V9C17 8.44772 17.4477 8 18 8Z" fill="#1F2937"/>
</svg>
