<svg width="24" height="24" viewBox="0 0 24 24" fill="none" xmlns="http://www.w3.org/2000/svg">
<path fill-rule="evenodd" clip-rule="evenodd" d="M7.11155 12.0034C7.11155 11.4508 7.50951 11.0029 8.00043 11.0029L16.1113 11.0029C16.6022 11.0029 17.0002 11.4508 17.0002 12.0034C17.0002 12.556 16.6022 13.004 16.1113 13.004L8.00043 13.004C7.50951 13.004 7.11155 12.556 7.11155 12.0034Z" fill="#1F2937"/>
<path fill-rule="evenodd" clip-rule="evenodd" d="M14.4034 16.9994C14.4034 17.552 14.0054 18 13.5145 18H10.4862C9.99525 18 9.59728 17.552 9.59728 16.9994C9.59728 16.4468 9.99525 15.9989 10.4862 15.9989L13.5145 15.9989C14.0054 15.9989 14.4034 16.4468 14.4034 16.9994Z" fill="#1F2937"/>
<path fill-rule="evenodd" clip-rule="evenodd" d="M4 7.00057C4 6.44797 4.39797 6 4.88889 6H19.1111C19.602 6 20 6.44797 20 7.00057C20 7.55317 19.602 8.00115 19.1111 8.00115H4.88889C4.39797 8.00115 4 7.55317 4 7.00057Z" fill="#1F2937"/>
</svg>
