<svg width="24" height="24" viewBox="0 0 24 24" fill="none" xmlns="http://www.w3.org/2000/svg">
<circle cx="12" cy="13" r="8" stroke="#1F2937" stroke-width="2"/>
<path fill-rule="evenodd" clip-rule="evenodd" d="M7.55881 2.4119C7.88364 2.85855 7.78489 3.48397 7.33824 3.80881L4.58824 5.80881C4.14159 6.13364 3.51617 6.03489 3.19133 5.58824C2.8665 5.14159 2.96525 4.51617 3.4119 4.19133L6.1619 2.19133C6.60855 1.8665 7.23397 1.96525 7.55881 2.4119Z" fill="#1F2937"/>
<path fill-rule="evenodd" clip-rule="evenodd" d="M16.1913 2.4119C16.5162 1.96525 17.1416 1.8665 17.5882 2.19133L20.3382 4.19133C20.7849 4.51617 20.8836 5.14159 20.5588 5.58824C20.234 6.03489 19.6086 6.13364 19.1619 5.80881L16.4119 3.80881C15.9652 3.48397 15.8665 2.85855 16.1913 2.4119Z" fill="#1F2937"/>
<path fill-rule="evenodd" clip-rule="evenodd" d="M12 9C12.5523 9 13 9.44772 13 10V13.5858L14.7071 15.2929C15.0976 15.6834 15.0976 16.3166 14.7071 16.7071C14.3166 17.0976 13.6834 17.0976 13.2929 16.7071L11.2929 14.7071C11.1054 14.5196 11 14.2652 11 14V10C11 9.44772 11.4477 9 12 9Z" fill="#1F2937"/>
</svg>
