<svg width="24" height="24" viewBox="0 0 24 24" fill="none" xmlns="http://www.w3.org/2000/svg">
<path fill-rule="evenodd" clip-rule="evenodd" d="M12 4C7.58172 4 4 7.58172 4 12C4 16.4183 7.58172 20 12 20C16.4183 20 20 16.4183 20 12C20 7.58172 16.4183 4 12 4ZM2 12C2 6.47715 6.47715 2 12 2C17.5228 2 22 6.47715 22 12C22 17.5228 17.5228 22 12 22C6.47715 22 2 17.5228 2 12Z" fill="#1F2937"/>
<path fill-rule="evenodd" clip-rule="evenodd" d="M12 7.00372C12.5523 7.00372 13 7.45144 13 8.00372V12.0037C13 12.556 12.5523 13.0037 12 13.0037C11.4477 13.0037 11 12.556 11 12.0037V8.00372C11 7.45144 11.4477 7.00372 12 7.00372Z" fill="#1F2937"/>
<path fill-rule="evenodd" clip-rule="evenodd" d="M11 15.9963C11 15.444 11.4477 14.9963 12 14.9963H12.01C12.5623 14.9963 13.01 15.444 13.01 15.9963C13.01 16.5486 12.5623 16.9963 12.01 16.9963H12C11.4477 16.9963 11 16.5486 11 15.9963Z" fill="#1F2937"/>
</svg>
