<svg width="24" height="24" viewBox="0 0 24 24" fill="none" xmlns="http://www.w3.org/2000/svg">
<path fill-rule="evenodd" clip-rule="evenodd" d="M12 8C12.5523 8 13 8.44772 13 9V11C13 11.5523 12.5523 12 12 12C11.4477 12 11 11.5523 11 11V9C11 8.44772 11.4477 8 12 8ZM12 14C12.5523 14 13 14.4477 13 15V15.01C13 15.5623 12.5523 16.01 12 16.01C11.4477 16.01 11 15.5623 11 15.01V15C11 14.4477 11.4477 14 12 14Z" fill="#1F2937"/>
<path fill-rule="evenodd" clip-rule="evenodd" d="M10.4759 2.38068C10.9376 2.10851 11.4637 1.96497 11.9996 1.96497C12.5355 1.96497 13.0616 2.10851 13.5232 2.38068C13.9826 2.65156 14.3615 3.04 14.6209 3.50596L21.6178 15.7506C21.6399 15.7892 21.6593 15.8292 21.6761 15.8704C21.8561 16.3138 21.9276 16.7938 21.8843 17.2704C21.8411 17.7469 21.6845 18.2063 21.4276 18.61C21.1707 19.0137 20.8209 19.3501 20.4075 19.5911C19.994 19.8321 19.529 19.9708 19.0511 19.9954C19.0339 19.9963 19.0167 19.9967 18.9996 19.9967H5.06957C5.05809 19.9967 5.04665 19.9965 5.03526 19.9961C5.00647 19.9971 4.97739 19.9969 4.94808 19.9954C4.47017 19.9708 4.00509 19.8321 3.59167 19.5911C3.17824 19.3501 2.82847 19.0137 2.57156 18.61C2.31464 18.2063 2.15803 17.7469 2.1148 17.2704C2.07158 16.7938 2.14299 16.3138 2.32308 15.8704C2.33981 15.8292 2.35927 15.7892 2.38132 15.7506L9.37825 3.50596C9.6376 3.04 10.0165 2.65156 10.4759 2.38068ZM5.03718 17.9972C5.04793 17.9969 5.05873 17.9967 5.06957 17.9967H18.9694C19.1212 17.9856 19.2686 17.94 19.4002 17.8633C19.538 17.783 19.6546 17.6708 19.7403 17.5362C19.8259 17.4017 19.8781 17.2486 19.8925 17.0897C19.9052 16.9492 19.8881 16.8079 19.8425 16.6749L12.8745 4.48089C12.788 4.32459 12.6613 4.19426 12.5074 4.10354C12.3536 4.01281 12.1782 3.96497 11.9996 3.96497C11.8209 3.96497 11.6456 4.01281 11.4917 4.10354C11.3378 4.19426 11.211 4.32454 11.1246 4.48084L11.1179 4.49291L4.15665 16.6749C4.11102 16.8079 4.09389 16.9492 4.10663 17.0897C4.12104 17.2486 4.17324 17.4017 4.25888 17.5362C4.34452 17.6708 4.46111 17.783 4.59892 17.8633C4.73272 17.9413 4.88275 17.9871 5.03718 17.9972Z" fill="#1F2937"/>
</svg>
