<svg width="24" height="24" viewBox="0 0 24 24" fill="none" xmlns="http://www.w3.org/2000/svg">
<path fill-rule="evenodd" clip-rule="evenodd" d="M10.0832 16.6037C10.3042 16.0976 10.8936 15.8663 11.3998 16.0872C11.589 16.1698 11.7933 16.2124 11.9998 16.2124C12.2063 16.2124 12.4105 16.1698 12.5998 16.0872C13.1059 15.8663 13.6954 16.0976 13.9163 16.6037C14.1372 17.1099 13.9059 17.6993 13.3998 17.9202C12.9582 18.113 12.4816 18.2124 11.9998 18.2124C11.518 18.2124 11.0413 18.113 10.5998 17.9202C10.0936 17.6993 9.86234 17.1099 10.0832 16.6037Z" fill="#1F2937"/>
<path fill-rule="evenodd" clip-rule="evenodd" d="M5.89573 3.77279C7.43116 2.62404 9.50531 2 12 2C14.4947 2 16.5688 2.62374 18.1043 3.77238C19.649 4.92791 20.5815 6.56673 20.8513 8.44886C21.3487 11.7137 20.5739 15.0449 18.6869 17.7552C17.7664 19.0998 16.5769 20.2387 15.1936 21.0999L15.1793 21.1086C13.1967 22.2975 10.7891 22.2887 8.80651 21.0999C7.42352 20.2389 6.23423 19.1003 5.3138 17.7562C3.41897 15.0485 2.64337 11.7135 3.14895 8.44752C3.41903 6.56641 4.35148 4.92814 5.89573 3.77279ZM9.8563 19.3976C11.2019 20.2011 12.7981 20.2011 14.1438 19.3976C15.2901 18.6825 16.2758 17.7376 17.0387 16.6224L17.0435 16.6153C18.64 14.3239 19.2951 11.5067 18.8735 8.74597L18.872 8.7363C18.6749 7.35547 18.0088 6.1986 16.9063 5.37387C15.7933 4.54126 14.1694 4 12 4C9.83075 4 8.2069 4.54146 7.09384 5.37421C5.99127 6.1991 5.32506 7.35602 5.12799 8.73634L5.12626 8.74846C4.69776 11.5079 5.35304 14.3261 6.9551 16.6133L6.96144 16.6224C7.72431 17.7375 8.70997 18.6825 9.8563 19.3976Z" fill="#1F2937"/>
<path fill-rule="evenodd" clip-rule="evenodd" d="M7.29289 10.2966C7.68342 9.90612 8.31658 9.90612 8.70711 10.2966L10.7071 12.2966C11.0976 12.6872 11.0976 13.3203 10.7071 13.7109C10.3166 14.1014 9.68342 14.1014 9.29289 13.7109L7.29289 11.7109C6.90237 11.3203 6.90237 10.6872 7.29289 10.2966Z" fill="#1F2937"/>
<path fill-rule="evenodd" clip-rule="evenodd" d="M16.7071 10.2966C17.0976 10.6872 17.0976 11.3203 16.7071 11.7109L14.7071 13.7109C14.3166 14.1014 13.6834 14.1014 13.2929 13.7109C12.9024 13.3203 12.9024 12.6872 13.2929 12.2966L15.2929 10.2966C15.6834 9.90612 16.3166 9.90612 16.7071 10.2966Z" fill="#1F2937"/>
</svg>
