<svg width="24" height="24" viewBox="0 0 24 24" fill="none" xmlns="http://www.w3.org/2000/svg">
<path fill-rule="evenodd" clip-rule="evenodd" d="M7 15.75C6.30964 15.75 5.75 16.3096 5.75 17C5.75 17.6904 6.30964 18.25 7 18.25C7.69036 18.25 8.25 17.6904 8.25 17C8.25 16.3096 7.69036 15.75 7 15.75ZM4.25 17C4.25 15.4812 5.48122 14.25 7 14.25C8.51878 14.25 9.75 15.4812 9.75 17C9.75 18.5188 8.51878 19.75 7 19.75C5.48122 19.75 4.25 18.5188 4.25 17Z" fill="#1F2937"/>
<path fill-rule="evenodd" clip-rule="evenodd" d="M17 15.75C16.3096 15.75 15.75 16.3096 15.75 17C15.75 17.6904 16.3096 18.25 17 18.25C17.6904 18.25 18.25 17.6904 18.25 17C18.25 16.3096 17.6904 15.75 17 15.75ZM14.25 17C14.25 15.4812 15.4812 14.25 17 14.25C18.5188 14.25 19.75 15.4812 19.75 17C19.75 18.5188 18.5188 19.75 17 19.75C15.4812 19.75 14.25 18.5188 14.25 17Z" fill="#1F2937"/>
<path fill-rule="evenodd" clip-rule="evenodd" d="M2.58579 4.58579C2.96086 4.21071 3.46957 4 4 4H13C13.5523 4 14 4.44772 14 5H18C18.3513 5 18.6768 5.1843 18.8575 5.4855L21.8575 10.4855C21.9507 10.6409 22 10.8188 22 11V17C22 17.5523 21.5523 18 21 18H19C18.7348 18 18.4804 17.8946 18.2929 17.7071L14 13.4142V16H15C15.5523 16 16 16.4477 16 17C16 17.5523 15.5523 18 15 18H3C2.44772 18 2 17.5523 2 17V6C2 5.46957 2.21071 4.96086 2.58579 4.58579ZM12 16V11.0075C12 11.0023 12 10.9972 12 10.9921V6L4 6V16H5.5H12ZM14 7V10H19.2338L17.4338 7H14ZM20 12H15.4142L19.4142 16H20V12Z" fill="#1F2937"/>
<path fill-rule="evenodd" clip-rule="evenodd" d="M8 7.25C8.41421 7.25 8.75 7.58579 8.75 8V9.25H10C10.4142 9.25 10.75 9.58579 10.75 10C10.75 10.4142 10.4142 10.75 10 10.75H8.75V12C8.75 12.4142 8.41421 12.75 8 12.75C7.58579 12.75 7.25 12.4142 7.25 12V10.75H6C5.58579 10.75 5.25 10.4142 5.25 10C5.25 9.58579 5.58579 9.25 6 9.25H7.25V8C7.25 7.58579 7.58579 7.25 8 7.25Z" fill="#1F2937"/>
</svg>
