<svg width="24" height="24" viewBox="0 0 24 24" fill="none" xmlns="http://www.w3.org/2000/svg">
<path fill-rule="evenodd" clip-rule="evenodd" d="M12 8C12.5523 8 13 8.44772 13 9V12H21C21.5523 12 22 12.4477 22 13C22 13.5523 21.5523 14 21 14H20.9443C20.7186 16.019 19.8144 17.9135 18.364 19.364C16.6761 21.0518 14.3869 22 12 22C9.61305 22 7.32387 21.0518 5.63604 19.364C4.18561 17.9135 3.28137 16.019 3.0557 14H3C2.44772 14 2 13.5523 2 13C2 12.4477 2.44772 12 3 12H11V9C11 8.44772 11.4477 8 12 8ZM11 14H5.07177C5.28635 15.4868 5.97552 16.875 7.05025 17.9497C8.12499 19.0245 9.51321 19.7137 11 19.9282V14ZM13 19.9282V14H18.9282C18.7137 15.4868 18.0245 16.875 16.9497 17.9497C15.875 19.0245 14.4868 19.7137 13 19.9282Z" fill="#1F2937"/>
<path fill-rule="evenodd" clip-rule="evenodd" d="M12 4C10.8954 4 10 4.89543 10 6C10 7.10457 10.8954 8 12 8C13.1046 8 14 7.10457 14 6C14 4.89543 13.1046 4 12 4ZM8 6C8 3.79086 9.79086 2 12 2C14.2091 2 16 3.79086 16 6C16 8.20914 14.2091 10 12 10C9.79086 10 8 8.20914 8 6Z" fill="#1F2937"/>
</svg>
