<svg width="24" height="24" viewBox="0 0 24 24" fill="none" xmlns="http://www.w3.org/2000/svg">
<path fill-rule="evenodd" clip-rule="evenodd" d="M3 8.99628C3.55228 8.99628 4 9.44399 4 9.99628V15.9963C4 16.5486 3.55228 16.9963 3 16.9963C2.44772 16.9963 2 16.5486 2 15.9963V9.99628C2 9.44399 2.44772 8.99628 3 8.99628Z" fill="#1F2937"/>
<path fill-rule="evenodd" clip-rule="evenodd" d="M21 8.99628C21.5523 8.99628 22 9.44399 22 9.99628V15.9963C22 16.5486 21.5523 16.9963 21 16.9963C20.4477 16.9963 20 16.5486 20 15.9963V9.99628C20 9.44399 20.4477 8.99628 21 8.99628Z" fill="#1F2937"/>
<path fill-rule="evenodd" clip-rule="evenodd" d="M12 4.99628C10.9391 4.99628 9.92172 5.4177 9.17157 6.16785C8.66203 6.67739 8.30416 7.31025 8.12701 7.99628H15.873C15.6958 7.31025 15.338 6.67739 14.8284 6.16785C14.0783 5.4177 13.0609 4.99628 12 4.99628ZM18 8.99628C18 7.40498 17.3679 5.87885 16.2426 4.75364C15.1174 3.62842 13.5913 2.99628 12 2.99628C10.4087 2.99628 8.88258 3.62842 7.75736 4.75364C6.63214 5.87885 6 7.40498 6 8.99628V16.9963C6 17.5267 6.21071 18.0354 6.58579 18.4105C6.96086 18.7856 7.46957 18.9963 8 18.9963H16C16.5304 18.9963 17.0391 18.7856 17.4142 18.4105C17.7893 18.0354 18 17.5267 18 16.9963V8.99628ZM16 9.99628H8V16.9963H16V9.99628Z" fill="#1F2937"/>
<path fill-rule="evenodd" clip-rule="evenodd" d="M7.55301 2.10555C8.04698 1.85856 8.64766 2.05878 8.89465 2.55276L9.89465 4.55276C10.1416 5.04674 9.94141 5.64741 9.44743 5.8944C8.95345 6.14139 8.35278 5.94117 8.10579 5.44719L7.10579 3.44719C6.8588 2.95321 7.05903 2.35254 7.55301 2.10555Z" fill="#1F2937"/>
<path fill-rule="evenodd" clip-rule="evenodd" d="M16.4474 2.10555C16.9414 2.35254 17.1416 2.95321 16.8946 3.44719L15.8946 5.44719C15.6477 5.94117 15.047 6.14139 14.553 5.8944C14.059 5.64741 13.8588 5.04674 14.1058 4.55276L15.1058 2.55276C15.3528 2.05878 15.9535 1.85856 16.4474 2.10555Z" fill="#1F2937"/>
<path fill-rule="evenodd" clip-rule="evenodd" d="M9 17C9.55228 17 10 17.4477 10 18V21C10 21.5523 9.55228 22 9 22C8.44772 22 8 21.5523 8 21V18C8 17.4477 8.44772 17 9 17Z" fill="#1F2937"/>
<path fill-rule="evenodd" clip-rule="evenodd" d="M15 17C15.5523 17 16 17.4477 16 18V21C16 21.5523 15.5523 22 15 22C14.4477 22 14 21.5523 14 21V18C14 17.4477 14.4477 17 15 17Z" fill="#1F2937"/>
</svg>
