<svg width="16" height="16" viewBox="0 0 12 12" fill="none" xmlns="http://www.w3.org/2000/svg">
<path d="M9.256 5.79828H10.6176C10.9149 5.79601 10.9149 5.34667 10.6176 5.3444H9.256C8.9587 5.34667 8.9587 5.79601 9.256 5.79828ZM9.02905 3.98276C9.08806 3.98276 9.14479 3.96006 9.19018 3.91694L9.87101 3.23612C9.89202 3.21511 9.90868 3.19017 9.92005 3.16271C9.93143 3.13526 9.93728 3.10584 9.93728 3.07613C9.93728 3.04641 9.93143 3.01699 9.92005 2.98954C9.90868 2.96209 9.89202 2.93714 9.87101 2.91613C9.84999 2.89512 9.82505 2.87846 9.7976 2.86708C9.77015 2.85571 9.74073 2.84986 9.71101 2.84986C9.6813 2.84986 9.65188 2.85571 9.62442 2.86708C9.59697 2.87846 9.57203 2.89512 9.55102 2.91613L8.8702 3.59696C8.72495 3.73085 8.83389 3.98956 9.02905 3.98276ZM9.54875 8.22882C9.7598 8.43761 10.0798 8.11762 9.86874 7.90883L9.18791 7.22801C9.1669 7.207 9.14196 7.19033 9.11451 7.17896C9.08706 7.16759 9.05763 7.16174 9.02792 7.16174C8.99821 7.16174 8.96878 7.16759 8.94133 7.17896C8.91388 7.19033 8.88894 7.207 8.86793 7.22801C8.84692 7.24902 8.83025 7.27396 8.81888 7.30142C8.80751 7.32887 8.80166 7.35829 8.80166 7.388C8.80166 7.41772 8.80751 7.44714 8.81888 7.47459C8.83025 7.50204 8.84692 7.52699 8.86793 7.548L9.54875 8.22882ZM6.14237 8.60327C6.2218 8.67816 6.71199 9.26821 6.80957 9.30906C7.24984 9.62451 7.91024 9.27502 7.89435 8.73036V2.41232C7.91024 1.86313 7.23849 1.51364 6.79823 1.84043C6.44647 2.1468 6.0584 2.70281 5.67941 2.97514C4.96908 3.57653 4.05451 3.91694 3.12859 3.97595V7.16674C3.46219 7.19397 3.7958 7.23936 4.11578 7.33694C4.89192 7.55934 5.59998 8.00642 6.14237 8.60327ZM0.879606 6.22947C0.972651 6.75597 1.45604 7.16447 1.99389 7.15993H2.67471V3.98276H1.99389C1.36753 3.98276 0.859181 4.4911 0.859181 5.11746C0.865989 5.27632 0.841026 6.09104 0.879606 6.22947ZM1.99389 7.61381C1.83503 7.61381 1.68298 7.58885 1.54 7.548V8.74851C1.5627 9.64493 2.87896 9.6472 2.90165 8.74851V7.61381H1.99389Z" fill="currentColor"/>
</svg>
