<svg width="24" height="24" viewBox="0 0 24 24" fill="none" xmlns="http://www.w3.org/2000/svg">
<path fill-rule="evenodd" clip-rule="evenodd" d="M12 4C7.58172 4 4 7.58172 4 12C4 16.4183 7.58172 20 12 20C16.4183 20 20 16.4183 20 12C20 7.58172 16.4183 4 12 4ZM2 12C2 6.47715 6.47715 2 12 2C17.5228 2 22 6.47715 22 12C22 17.5228 17.5228 22 12 22C6.47715 22 2 17.5228 2 12Z" fill="#1F2937"/>
<path fill-rule="evenodd" clip-rule="evenodd" d="M2.6001 15C2.6001 14.4477 3.04781 14 3.6001 14H14.1501C14.7024 14 15.1501 14.4477 15.1501 15C15.1501 15.5523 14.7024 16 14.1501 16H3.6001C3.04781 16 2.6001 15.5523 2.6001 15Z" fill="#1F2937"/>
<path fill-rule="evenodd" clip-rule="evenodd" d="M6.2423 3.99414C6.76756 3.82347 7.33171 4.11092 7.50238 4.63618L10.7625 14.6698C10.9332 15.1951 10.6457 15.7592 10.1205 15.9299C9.59521 16.1006 9.03106 15.8131 8.86039 15.2879L5.60026 5.25421C5.4296 4.72896 5.71705 4.1648 6.2423 3.99414Z" fill="#1F2937"/>
<path fill-rule="evenodd" clip-rule="evenodd" d="M17.8414 4.0412C18.166 4.48801 18.067 5.11338 17.6202 5.43801L9.08505 11.6391C8.63825 11.9638 8.01288 11.8647 7.68825 11.4179C7.36363 10.9711 7.46268 10.3457 7.90948 10.0211L16.4446 3.81997C16.8914 3.49535 17.5168 3.59439 17.8414 4.0412Z" fill="#1F2937"/>
<path fill-rule="evenodd" clip-rule="evenodd" d="M21.3681 15.0958C21.0434 15.5426 20.4181 15.6417 19.9713 15.317L11.4361 9.11589C10.9893 8.79127 10.8903 8.1659 11.2149 7.71909C11.5395 7.27228 12.1649 7.17323 12.6117 7.49786L21.1468 13.699C21.5936 14.0236 21.6927 14.649 21.3681 15.0958Z" fill="#1F2937"/>
<path fill-rule="evenodd" clip-rule="evenodd" d="M11.9486 21.8689C11.4234 21.6982 11.1359 21.134 11.3066 20.6088L14.5667 10.5751C14.7374 10.0499 15.3015 9.76243 15.8268 9.9331C16.352 10.1038 16.6395 10.6679 16.4688 11.1932L13.2087 21.2268C13.038 21.7521 12.4739 22.0395 11.9486 21.8689Z" fill="#1F2937"/>
</svg>
