<svg width="24" height="24" viewBox="0 0 24 24" fill="none" xmlns="http://www.w3.org/2000/svg">
<path fill-rule="evenodd" clip-rule="evenodd" d="M15.5725 6.00638C15.9839 6.03507 16.7173 6.1978 17.4866 6.548C18.2678 6.90366 19.1773 7.49394 19.8248 8.43825C19.9846 8.67132 20.0383 8.96112 19.9727 9.23599C19.907 9.51085 19.7282 9.74512 19.4803 9.88085C19.3889 9.93089 19.2957 9.96838 19.1937 10.0094C18.97 10.0994 18.7036 10.2066 18.3199 10.5008C17.8434 10.8662 17.4945 11.3395 17.5 11.9941C17.5175 13.567 18.7354 13.8967 19.2036 14.0234C19.2598 14.0386 19.3051 14.0508 19.3363 14.062C19.7343 14.2041 20 14.5811 20 15.0037C20 16.343 19.2071 17.8154 18.3386 18.8843C17.8874 19.4397 17.3686 19.9459 16.8322 20.3223C16.3207 20.6812 15.6774 21.0037 15 21.0037C14.1077 21.0037 13.5769 20.848 13.1302 20.7079C13.1184 20.7042 13.1068 20.7005 13.0953 20.6969C12.7329 20.5831 12.4802 20.5037 12 20.5037C11.4682 20.5037 11.0882 20.5917 10.6694 20.703C10.6293 20.7136 10.5883 20.7247 10.5462 20.736C10.1466 20.8438 9.65263 20.977 9.04224 21.0028C9.02817 21.0034 9.01409 21.0037 9 21.0037C8.11938 21.0037 7.37897 20.5157 6.82414 19.9608C6.25494 19.3916 5.76025 18.6353 5.35557 17.826C4.55015 16.2151 4 14.1875 4 12.5037C4 11.1463 4.26748 9.57673 5.01307 8.30923C5.78855 6.99092 7.09161 6.00376 9 6.00376C9.80582 6.00376 10.5789 6.3599 11.0858 6.6001C11.1616 6.63604 11.2317 6.66967 11.2975 6.70118C11.4845 6.79087 11.6357 6.86337 11.7805 6.92312C11.8987 6.97188 11.9658 6.99129 11.9948 6.99894C12.0243 6.99039 12.1013 6.96761 12.2457 6.90785C12.3834 6.85092 12.4971 6.79918 12.6288 6.73927C12.7494 6.6844 12.8851 6.62267 13.068 6.54382C13.6978 6.27233 14.5974 5.93215 15.5725 6.00638ZM13.0103 8.75594C12.7679 8.8562 12.3881 9.00375 12 9.00375C11.6211 9.00375 11.2628 8.87307 11.0176 8.77189C10.8162 8.68877 10.5934 8.58188 10.3934 8.48588C10.3365 8.45857 10.2814 8.43215 10.2292 8.40741C9.68106 8.14761 9.29418 8.00376 9 8.00376C7.90839 8.00376 7.21145 8.51659 6.73693 9.32327C6.23252 10.1808 6 11.3612 6 12.5037C6 13.82 6.44985 15.5424 7.14443 16.9315C7.48975 17.6222 7.87006 18.1783 8.23836 18.5466C8.60573 18.914 8.85966 18.9973 8.98501 19.0034C9.35163 18.9848 9.63772 18.9084 10.0431 18.8001C10.0796 18.7903 10.1172 18.7803 10.1559 18.77C10.6348 18.6428 11.2108 18.5037 12 18.5037C12.788 18.5037 13.2782 18.6579 13.685 18.7858C13.6997 18.7904 13.7143 18.795 13.7288 18.7996C14.0791 18.9095 14.3923 19.0037 15 19.0037C15.0726 19.0037 15.3043 18.9512 15.6834 18.6852C16.0377 18.4366 16.4251 18.0678 16.7864 17.6231C17.3139 16.9739 17.6958 16.2778 17.8787 15.6918C16.946 15.2671 15.524 14.2394 15.5001 12.0145L15.5 12.0125C15.4868 10.4976 16.3459 9.49415 17.1029 8.91368C17.1774 8.85658 17.2552 8.80111 17.3344 8.74776C17.1183 8.59931 16.8889 8.47339 16.6579 8.36826C16.0735 8.10222 15.5715 8.01084 15.4328 8.00149L15.4228 8.00082L15.4228 8.00077C14.9668 7.96545 14.4532 8.12462 13.8597 8.38044C13.7638 8.4218 13.6401 8.47745 13.5117 8.53522C13.3329 8.61566 13.145 8.7002 13.0103 8.75594Z" fill="#1F2937"/>
<path fill-rule="evenodd" clip-rule="evenodd" d="M11.8787 1.8824C12.4413 1.31979 13.2044 1.00372 14 1.00372C14.2652 1.00372 14.5196 1.10908 14.7071 1.29662C14.8946 1.48415 15 1.73851 15 2.00372C15 2.79937 14.6839 3.56243 14.1213 4.12504C13.5587 4.68765 12.7956 5.00372 12 5.00372C11.4477 5.00372 11 4.55601 11 4.00372C11 3.20807 11.3161 2.44501 11.8787 1.8824Z" fill="#1F2937"/>
</svg>
