<svg width="24" height="24" viewBox="0 0 24 24" fill="none" xmlns="http://www.w3.org/2000/svg">
<path fill-rule="evenodd" clip-rule="evenodd" d="M3 4.99625C3 3.89168 3.89543 2.99625 5 2.99625H9C10.1046 2.99625 11 3.89168 11 4.99625V8.99625C11 10.1008 10.1046 10.9962 9 10.9962H5C3.89543 10.9962 3 10.1008 3 8.99625V4.99625ZM9 4.99625H5V8.99625H9V4.99625Z" fill="#1F2937"/>
<path fill-rule="evenodd" clip-rule="evenodd" d="M3 15.0038C3 13.8992 3.89543 13.0038 5 13.0038H9C10.1046 13.0038 11 13.8992 11 15.0038V19.0038C11 20.1083 10.1046 21.0038 9 21.0038H5C3.89543 21.0038 3 20.1083 3 19.0038V15.0038ZM9 15.0038H5V19.0038H9V15.0038Z" fill="#1F2937"/>
<path fill-rule="evenodd" clip-rule="evenodd" d="M13 15.0038C13 13.8992 13.8954 13.0038 15 13.0038H19C20.1046 13.0038 21 13.8992 21 15.0038V19.0038C21 20.1083 20.1046 21.0038 19 21.0038H15C13.8954 21.0038 13 20.1083 13 19.0038V15.0038ZM19 15.0038H15V19.0038H19V15.0038Z" fill="#1F2937"/>
<path fill-rule="evenodd" clip-rule="evenodd" d="M13 6.99625C13 6.44396 13.4477 5.99625 14 5.99625H20C20.5523 5.99625 21 6.44396 21 6.99625C21 7.54853 20.5523 7.99625 20 7.99625H14C13.4477 7.99625 13 7.54853 13 6.99625Z" fill="#1F2937"/>
<path fill-rule="evenodd" clip-rule="evenodd" d="M17 2.99625C17.5523 2.99625 18 3.44396 18 3.99625V9.99625C18 10.5485 17.5523 10.9962 17 10.9962C16.4477 10.9962 16 10.5485 16 9.99625V3.99625C16 3.44396 16.4477 2.99625 17 2.99625Z" fill="#1F2937"/>
</svg>
