<svg width="24" height="24" viewBox="0 0 24 24" fill="none" xmlns="http://www.w3.org/2000/svg">
<path fill-rule="evenodd" clip-rule="evenodd" d="M5 4.99628C4.44772 4.99628 4 5.44399 4 5.99628C4 6.54856 4.44772 6.99628 5 6.99628H19C19.5523 6.99628 20 6.54856 20 5.99628C20 5.44399 19.5523 4.99628 19 4.99628H5ZM2 5.99628C2 4.33942 3.34315 2.99628 5 2.99628H19C20.6569 2.99628 22 4.33942 22 5.99628C22 7.65313 20.6569 8.99628 19 8.99628H5C3.34315 8.99628 2 7.65313 2 5.99628Z" fill="#1F2937"/>
<path fill-rule="evenodd" clip-rule="evenodd" d="M5 7.00372C5.55228 7.00372 6 7.45144 6 8.00372V18.0037C6 18.2689 6.10536 18.5233 6.29289 18.7108C6.48043 18.8984 6.73478 19.0037 7 19.0037H17C17.2652 19.0037 17.5196 18.8984 17.7071 18.7108C17.8946 18.5233 18 18.2689 18 18.0037V8.00372C18 7.45144 18.4477 7.00372 19 7.00372C19.5523 7.00372 20 7.45144 20 8.00372V18.0037C20 18.7994 19.6839 19.5624 19.1213 20.125C18.5587 20.6877 17.7957 21.0037 17 21.0037H7C6.20435 21.0037 5.44129 20.6877 4.87868 20.125C4.31607 19.5624 4 18.7994 4 18.0037V8.00372C4 7.45144 4.44772 7.00372 5 7.00372Z" fill="#1F2937"/>
<path fill-rule="evenodd" clip-rule="evenodd" d="M9 12C9 11.4477 9.44772 11 10 11H14C14.5523 11 15 11.4477 15 12C15 12.5523 14.5523 13 14 13H10C9.44772 13 9 12.5523 9 12Z" fill="#1F2937"/>
</svg>
