<svg width="24" height="24" viewBox="0 0 24 24" fill="none" xmlns="http://www.w3.org/2000/svg">
<path fill-rule="evenodd" clip-rule="evenodd" d="M9.70711 4.29662C10.0976 4.68714 10.0976 5.32031 9.70711 5.71083L7.41421 8.00372H16C17.3261 8.00372 18.5979 8.53051 19.5355 9.46819C20.4732 10.4059 21 11.6776 21 13.0037C21 14.3298 20.4732 15.6016 19.5355 16.5393C18.5979 17.4769 17.3261 18.0037 16 18.0037H15C14.4477 18.0037 14 17.556 14 17.0037C14 16.4514 14.4477 16.0037 15 16.0037H16C16.7956 16.0037 17.5587 15.6877 18.1213 15.125C18.6839 14.5624 19 13.7994 19 13.0037C19 12.2081 18.6839 11.445 18.1213 10.8824C17.5587 10.3198 16.7956 10.0037 16 10.0037H7.41421L9.70711 12.2966C10.0976 12.6871 10.0976 13.3203 9.70711 13.7108C9.31658 14.1014 8.68342 14.1014 8.29289 13.7108L4.29289 9.71083C3.90237 9.32031 3.90237 8.68714 4.29289 8.29662L8.29289 4.29662C8.68342 3.90609 9.31658 3.90609 9.70711 4.29662Z" fill="#1F2937"/>
</svg>
