<svg width="24" height="24" viewBox="0 0 24 24" fill="none" xmlns="http://www.w3.org/2000/svg">
<path fill-rule="evenodd" clip-rule="evenodd" d="M14.2929 4.29662C14.6834 3.90609 15.3166 3.90609 15.7071 4.29662L19.7071 8.29662C20.0976 8.68714 20.0976 9.32031 19.7071 9.71083L15.7071 13.7108C15.3166 14.1014 14.6834 14.1014 14.2929 13.7108C13.9024 13.3203 13.9024 12.6871 14.2929 12.2966L16.5858 10.0037H8C7.20435 10.0037 6.44129 10.3198 5.87868 10.8824C5.31607 11.445 5 12.2081 5 13.0037C5 13.7994 5.31607 14.5624 5.87868 15.125C6.44129 15.6877 7.20435 16.0037 8 16.0037H9C9.55228 16.0037 10 16.4514 10 17.0037C10 17.556 9.55228 18.0037 9 18.0037H8C6.67392 18.0037 5.40215 17.4769 4.46447 16.5393C3.52678 15.6016 3 14.3298 3 13.0037C3 11.6776 3.52678 10.4059 4.46447 9.46819C5.40215 8.53051 6.67392 8.00372 8 8.00372H16.5858L14.2929 5.71083C13.9024 5.32031 13.9024 4.68714 14.2929 4.29662Z" fill="#1F2937"/>
</svg>
