<svg width="24" height="24" viewBox="0 0 24 24" fill="none" xmlns="http://www.w3.org/2000/svg">
<path fill-rule="evenodd" clip-rule="evenodd" d="M14 6.99628C14 6.44399 14.4477 5.99628 15 5.99628H16C17.3261 5.99628 18.5979 6.52306 19.5355 7.46074C20.4732 8.39842 21 9.67019 21 10.9963C21 12.3224 20.4732 13.5941 19.5355 14.5318C18.5979 15.4695 17.3261 15.9963 16 15.9963H7.41421L9.70711 18.2892C10.0976 18.6797 10.0976 19.3129 9.70711 19.7034C9.31658 20.0939 8.68342 20.0939 8.29289 19.7034L4.29289 15.7034C3.90237 15.3129 3.90237 14.6797 4.29289 14.2892L8.29289 10.2892C8.68342 9.89865 9.31658 9.89865 9.70711 10.2892C10.0976 10.6797 10.0976 11.3129 9.70711 11.7034L7.41421 13.9963H16C16.7956 13.9963 17.5587 13.6802 18.1213 13.1176C18.6839 12.555 19 11.7919 19 10.9963C19 10.2006 18.6839 9.43757 18.1213 8.87496C17.5587 8.31235 16.7956 7.99628 16 7.99628H15C14.4477 7.99628 14 7.54856 14 6.99628Z" fill="#1F2937"/>
</svg>
