<svg width="24" height="24" viewBox="0 0 24 24" fill="none" xmlns="http://www.w3.org/2000/svg">
<path fill-rule="evenodd" clip-rule="evenodd" d="M6.29289 6.28917C6.68342 5.89865 7.31658 5.89865 7.70711 6.28917L17.7071 16.2892C18.0976 16.6797 18.0976 17.3129 17.7071 17.7034C17.3166 18.0939 16.6834 18.0939 16.2929 17.7034L6.29289 7.70338C5.90237 7.31286 5.90237 6.67969 6.29289 6.28917Z" fill="#1F2937"/>
<path fill-rule="evenodd" clip-rule="evenodd" d="M6 6.99628C6 6.44399 6.44772 5.99628 7 5.99628H16C16.5523 5.99628 17 6.44399 17 6.99628C17 7.54856 16.5523 7.99628 16 7.99628H8V15.9963C8 16.5486 7.55228 16.9963 7 16.9963C6.44772 16.9963 6 16.5486 6 15.9963V6.99628Z" fill="#1F2937"/>
</svg>
