<svg width="24" height="24" viewBox="0 0 24 24" fill="none" xmlns="http://www.w3.org/2000/svg">
<path fill-rule="evenodd" clip-rule="evenodd" d="M12 4C7.58172 4 4 7.58172 4 12C4 16.4183 7.58172 20 12 20C16.4183 20 20 16.4183 20 12C20 7.58172 16.4183 4 12 4ZM2 12C2 6.47715 6.47715 2 12 2C17.5228 2 22 6.47715 22 12C22 17.5228 17.5228 22 12 22C6.47715 22 2 17.5228 2 12Z" fill="#1F2937"/>
<path fill-rule="evenodd" clip-rule="evenodd" d="M12.7071 7.29662C13.0976 7.68714 13.0976 8.32031 12.7071 8.71083L8.70711 12.7108C8.31658 13.1014 7.68342 13.1014 7.29289 12.7108C6.90237 12.3203 6.90237 11.6871 7.29289 11.2966L11.2929 7.29662C11.6834 6.90609 12.3166 6.90609 12.7071 7.29662Z" fill="#1F2937"/>
<path fill-rule="evenodd" clip-rule="evenodd" d="M12 7.00372C12.5523 7.00372 13 7.45144 13 8.00372V16.0037C13 16.556 12.5523 17.0037 12 17.0037C11.4477 17.0037 11 16.556 11 16.0037V8.00372C11 7.45144 11.4477 7.00372 12 7.00372Z" fill="#1F2937"/>
<path fill-rule="evenodd" clip-rule="evenodd" d="M11.2929 7.29662C11.6834 6.90609 12.3166 6.90609 12.7071 7.29662L16.7071 11.2966C17.0976 11.6871 17.0976 12.3203 16.7071 12.7108C16.3166 13.1014 15.6834 13.1014 15.2929 12.7108L11.2929 8.71083C10.9024 8.32031 10.9024 7.68714 11.2929 7.29662Z" fill="#1F2937"/>
</svg>
