<svg width="24" height="24" viewBox="0 0 24 24" fill="none" xmlns="http://www.w3.org/2000/svg">
<path fill-rule="evenodd" clip-rule="evenodd" d="M11.2929 2.29289C11.6834 1.90237 12.3166 1.90237 12.7071 2.29289L16.7071 6.29289C17.0976 6.68342 17.0976 7.31658 16.7071 7.70711C16.3166 8.09763 15.6834 8.09763 15.2929 7.70711L12 4.41421L8.70711 7.70711C8.31658 8.09763 7.68342 8.09763 7.29289 7.70711C6.90237 7.31658 6.90237 6.68342 7.29289 6.29289L11.2929 2.29289Z" fill="#1F2937"/>
<path fill-rule="evenodd" clip-rule="evenodd" d="M7.29289 16.2966C7.68342 15.9061 8.31658 15.9061 8.70711 16.2966L12 19.5895L15.2929 16.2966C15.6834 15.9061 16.3166 15.9061 16.7071 16.2966C17.0976 16.6871 17.0976 17.3203 16.7071 17.7108L12.7071 21.7108C12.3166 22.1014 11.6834 22.1014 11.2929 21.7108L7.29289 17.7108C6.90237 17.3203 6.90237 16.6871 7.29289 16.2966Z" fill="#1F2937"/>
<path fill-rule="evenodd" clip-rule="evenodd" d="M12 2C12.5523 2 13 2.44772 13 3V21C13 21.5523 12.5523 22 12 22C11.4477 22 11 21.5523 11 21V3C11 2.44772 11.4477 2 12 2Z" fill="#1F2937"/>
</svg>
