<svg width="24" height="24" viewBox="0 0 24 24" fill="none" xmlns="http://www.w3.org/2000/svg">
<path fill-rule="evenodd" clip-rule="evenodd" d="M12 2.99628C12.5523 2.99628 13 3.44399 13 3.99628V13.9963C13 14.5486 12.5523 14.9963 12 14.9963C11.4477 14.9963 11 14.5486 11 13.9963V3.99628C11 3.44399 11.4477 2.99628 12 2.99628Z" fill="#1F2937"/>
<path fill-rule="evenodd" clip-rule="evenodd" d="M11.2929 3.28917C11.6834 2.89865 12.3166 2.89865 12.7071 3.28917L16.7071 7.28917C17.0976 7.67969 17.0976 8.31286 16.7071 8.70338C16.3166 9.09391 15.6834 9.09391 15.2929 8.70338L11.2929 4.70338C10.9024 4.31286 10.9024 3.67969 11.2929 3.28917Z" fill="#1F2937"/>
<path fill-rule="evenodd" clip-rule="evenodd" d="M12.7071 3.28917C13.0976 3.67969 13.0976 4.31286 12.7071 4.70338L8.70711 8.70338C8.31658 9.09391 7.68342 9.09391 7.29289 8.70338C6.90237 8.31286 6.90237 7.67969 7.29289 7.28917L11.2929 3.28917C11.6834 2.89865 12.3166 2.89865 12.7071 3.28917Z" fill="#1F2937"/>
<path fill-rule="evenodd" clip-rule="evenodd" d="M3 20.0037C3 19.4514 3.44772 19.0037 4 19.0037H20C20.5523 19.0037 21 19.4514 21 20.0037C21 20.556 20.5523 21.0037 20 21.0037H4C3.44772 21.0037 3 20.556 3 20.0037Z" fill="#1F2937"/>
</svg>
