<svg width="24" height="24" viewBox="0 0 24 24" fill="none" xmlns="http://www.w3.org/2000/svg">
<path fill-rule="evenodd" clip-rule="evenodd" d="M6.29289 6.28917C6.68342 5.89865 7.31658 5.89865 7.70711 6.28917L17.7071 16.2892C18.0976 16.6797 18.0976 17.3129 17.7071 17.7034C17.3166 18.0939 16.6834 18.0939 16.2929 17.7034L6.29289 7.70338C5.90237 7.31286 5.90237 6.67969 6.29289 6.28917Z" fill="#1F2937"/>
<path fill-rule="evenodd" clip-rule="evenodd" d="M17 7.00372C17.5523 7.00372 18 7.45144 18 8.00372V17.0037C18 17.556 17.5523 18.0037 17 18.0037H8C7.44772 18.0037 7 17.556 7 17.0037C7 16.4514 7.44772 16.0037 8 16.0037H16V8.00372C16 7.45144 16.4477 7.00372 17 7.00372Z" fill="#1F2937"/>
</svg>
