<svg width="24" height="24" viewBox="0 0 24 24" fill="none" xmlns="http://www.w3.org/2000/svg">
<path fill-rule="evenodd" clip-rule="evenodd" d="M12 4.00372C12.5523 4.00372 13 4.45144 13 5.00372V19.0037C13 19.556 12.5523 20.0037 12 20.0037C11.4477 20.0037 11 19.556 11 19.0037V5.00372C11 4.45144 11.4477 4.00372 12 4.00372Z" fill="#1F2937"/>
<path fill-rule="evenodd" clip-rule="evenodd" d="M18.7071 12.2892C19.0976 12.6797 19.0976 13.3129 18.7071 13.7034L12.7071 19.7034C12.3166 20.0939 11.6834 20.0939 11.2929 19.7034C10.9024 19.3129 10.9024 18.6797 11.2929 18.2892L17.2929 12.2892C17.6834 11.8986 18.3166 11.8986 18.7071 12.2892Z" fill="#1F2937"/>
<path fill-rule="evenodd" clip-rule="evenodd" d="M5.29289 12.2892C5.68342 11.8986 6.31658 11.8986 6.70711 12.2892L12.7071 18.2892C13.0976 18.6797 13.0976 19.3129 12.7071 19.7034C12.3166 20.0939 11.6834 20.0939 11.2929 19.7034L5.29289 13.7034C4.90237 13.3129 4.90237 12.6797 5.29289 12.2892Z" fill="#1F2937"/>
</svg>
