<svg width="24" height="24" viewBox="0 0 24 24" fill="none" xmlns="http://www.w3.org/2000/svg">
<path fill-rule="evenodd" clip-rule="evenodd" d="M12 4.00372C12.5523 4.00372 13 4.45144 13 5.00372V19.0037C13 19.556 12.5523 20.0037 12 20.0037C11.4477 20.0037 11 19.556 11 19.0037V5.00372C11 4.45144 11.4477 4.00372 12 4.00372Z" fill="#1F2937"/>
<path fill-rule="evenodd" clip-rule="evenodd" d="M11.2929 4.29662C11.6834 3.90609 12.3166 3.90609 12.7071 4.29662L16.7071 8.29662C17.0976 8.68714 17.0976 9.3203 16.7071 9.71083C16.3166 10.1014 15.6834 10.1014 15.2929 9.71083L11.2929 5.71083C10.9024 5.32031 10.9024 4.68714 11.2929 4.29662Z" fill="#1F2937"/>
<path fill-rule="evenodd" clip-rule="evenodd" d="M12.7071 4.29662C13.0976 4.68714 13.0976 5.32031 12.7071 5.71083L8.70711 9.71083C8.31658 10.1014 7.68342 10.1014 7.29289 9.71083C6.90237 9.3203 6.90237 8.68714 7.29289 8.29662L11.2929 4.29662C11.6834 3.90609 12.3166 3.90609 12.7071 4.29662Z" fill="#1F2937"/>
</svg>
