<svg width="24" height="24" viewBox="0 0 24 24" fill="none" xmlns="http://www.w3.org/2000/svg">
<path fill-rule="evenodd" clip-rule="evenodd" d="M7.70711 7.29662C8.09763 7.68714 8.09763 8.32031 7.70711 8.71083L4.41421 12.0037L7.70711 15.2966C8.09763 15.6871 8.09763 16.3203 7.70711 16.7108C7.31658 17.1014 6.68342 17.1014 6.29289 16.7108L2.29289 12.7108C1.90237 12.3203 1.90237 11.6871 2.29289 11.2966L6.29289 7.29662C6.68342 6.90609 7.31658 6.90609 7.70711 7.29662Z" fill="#1F2937"/>
<path fill-rule="evenodd" clip-rule="evenodd" d="M16.2929 7.29662C16.6834 6.90609 17.3166 6.90609 17.7071 7.29662L21.7071 11.2966C22.0976 11.6871 22.0976 12.3203 21.7071 12.7108L17.7071 16.7108C17.3166 17.1014 16.6834 17.1014 16.2929 16.7108C15.9024 16.3203 15.9024 15.6871 16.2929 15.2966L19.5858 12.0037L16.2929 8.71083C15.9024 8.32031 15.9024 7.68714 16.2929 7.29662Z" fill="#1F2937"/>
<path fill-rule="evenodd" clip-rule="evenodd" d="M2 12C2 11.4477 2.44772 11 3 11H21C21.5523 11 22 11.4477 22 12C22 12.5523 21.5523 13 21 13H3C2.44772 13 2 12.5523 2 12Z" fill="#1F2937"/>
</svg>
