<svg width="24" height="24" viewBox="0 0 24 24" fill="none" xmlns="http://www.w3.org/2000/svg">
<path fill-rule="evenodd" clip-rule="evenodd" d="M8 7.99628C7.20435 7.99628 6.44129 8.31235 5.87868 8.87496C5.31607 9.43757 5 10.2006 5 10.9963C5 11.7919 5.31607 12.555 5.87868 13.1176C6.44129 13.6802 7.20435 13.9963 8 13.9963H16.5858L14.2929 11.7034C13.9024 11.3129 13.9024 10.6797 14.2929 10.2892C14.6834 9.89865 15.3166 9.89865 15.7071 10.2892L19.7071 14.2892C20.0976 14.6797 20.0976 15.3129 19.7071 15.7034L15.7071 19.7034C15.3166 20.0939 14.6834 20.0939 14.2929 19.7034C13.9024 19.3129 13.9024 18.6797 14.2929 18.2892L16.5858 15.9963H8C6.67392 15.9963 5.40215 15.4695 4.46447 14.5318C3.52678 13.5941 3 12.3224 3 10.9963C3 9.67019 3.52678 8.39842 4.46447 7.46074C5.40215 6.52306 6.67392 5.99628 8 5.99628H9C9.55228 5.99628 10 6.44399 10 6.99628C10 7.54856 9.55228 7.99628 9 7.99628H8Z" fill="#1F2937"/>
</svg>
