<svg width="24" height="24" viewBox="0 0 24 24" fill="none" xmlns="http://www.w3.org/2000/svg">
<path fill-rule="evenodd" clip-rule="evenodd" d="M9 4.00372C9.55228 4.00372 10 4.45144 10 5.00372V9.00372C10 9.55601 9.55228 10.0037 9 10.0037H5C4.44772 10.0037 4 9.55601 4 9.00372C4 8.45144 4.44772 8.00372 5 8.00372H8V5.00372C8 4.45144 8.44772 4.00372 9 4.00372Z" fill="#1F2937"/>
<path fill-rule="evenodd" clip-rule="evenodd" d="M2.29289 2.29289C2.68342 1.90237 3.31658 1.90237 3.70711 2.29289L9.70711 8.29289C10.0976 8.68342 10.0976 9.31658 9.70711 9.70711C9.31658 10.0976 8.68342 10.0976 8.29289 9.70711L2.29289 3.70711C1.90237 3.31658 1.90237 2.68342 2.29289 2.29289Z" fill="#1F2937"/>
<path fill-rule="evenodd" clip-rule="evenodd" d="M4 15C4 14.4477 4.44772 14 5 14H9C9.55228 14 10 14.4477 10 15V19C10 19.5523 9.55228 20 9 20C8.44772 20 8 19.5523 8 19V16H5C4.44772 16 4 15.5523 4 15Z" fill="#1F2937"/>
<path fill-rule="evenodd" clip-rule="evenodd" d="M9.70711 14.2929C10.0976 14.6834 10.0976 15.3166 9.70711 15.7071L3.70711 21.7071C3.31658 22.0976 2.68342 22.0976 2.29289 21.7071C1.90237 21.3166 1.90237 20.6834 2.29289 20.2929L8.29289 14.2929C8.68342 13.9024 9.31658 13.9024 9.70711 14.2929Z" fill="#1F2937"/>
<path fill-rule="evenodd" clip-rule="evenodd" d="M15 4.00372C15.5523 4.00372 16 4.45144 16 5.00372V8.00372H19C19.5523 8.00372 20 8.45144 20 9.00372C20 9.55601 19.5523 10.0037 19 10.0037H15C14.4477 10.0037 14 9.55601 14 9.00372V5.00372C14 4.45144 14.4477 4.00372 15 4.00372Z" fill="#1F2937"/>
<path fill-rule="evenodd" clip-rule="evenodd" d="M21.7071 2.29289C22.0976 2.68342 22.0976 3.31658 21.7071 3.70711L15.7071 9.70711C15.3166 10.0976 14.6834 10.0976 14.2929 9.70711C13.9024 9.31658 13.9024 8.68342 14.2929 8.29289L20.2929 2.29289C20.6834 1.90237 21.3166 1.90237 21.7071 2.29289Z" fill="#1F2937"/>
<path fill-rule="evenodd" clip-rule="evenodd" d="M14 15C14 14.4477 14.4477 14 15 14H19C19.5523 14 20 14.4477 20 15C20 15.5523 19.5523 16 19 16H16V19C16 19.5523 15.5523 20 15 20C14.4477 20 14 19.5523 14 19V15Z" fill="#1F2937"/>
<path fill-rule="evenodd" clip-rule="evenodd" d="M14.2929 14.2929C14.6834 13.9024 15.3166 13.9024 15.7071 14.2929L21.7071 20.2929C22.0976 20.6834 22.0976 21.3166 21.7071 21.7071C21.3166 22.0976 20.6834 22.0976 20.2929 21.7071L14.2929 15.7071C13.9024 15.3166 13.9024 14.6834 14.2929 14.2929Z" fill="#1F2937"/>
</svg>
