<svg width="24" height="24" viewBox="0 0 24 24" fill="none" xmlns="http://www.w3.org/2000/svg">
<path fill-rule="evenodd" clip-rule="evenodd" d="M3 12C3 11.4477 3.44772 11 4 11H14C14.5523 11 15 11.4477 15 12C15 12.5523 14.5523 13 14 13H4C3.44772 13 3 12.5523 3 12Z" fill="#1F2937"/>
<path fill-rule="evenodd" clip-rule="evenodd" d="M3.29289 11.2929C3.68342 10.9024 4.31658 10.9024 4.70711 11.2929L8.70711 15.2929C9.09763 15.6834 9.09763 16.3166 8.70711 16.7071C8.31658 17.0976 7.68342 17.0976 7.29289 16.7071L3.29289 12.7071C2.90237 12.3166 2.90237 11.6834 3.29289 11.2929Z" fill="#1F2937"/>
<path fill-rule="evenodd" clip-rule="evenodd" d="M8.70711 7.29662C9.09763 7.68714 9.09763 8.32031 8.70711 8.71083L4.70711 12.7108C4.31658 13.1014 3.68342 13.1014 3.29289 12.7108C2.90237 12.3203 2.90237 11.6871 3.29289 11.2966L7.29289 7.29662C7.68342 6.90609 8.31658 6.90609 8.70711 7.29662Z" fill="#1F2937"/>
<path fill-rule="evenodd" clip-rule="evenodd" d="M20 2.99628C20.5523 2.99628 21 3.44399 21 3.99628V19.9963C21 20.5486 20.5523 20.9963 20 20.9963C19.4477 20.9963 19 20.5486 19 19.9963V3.99628C19 3.44399 19.4477 2.99628 20 2.99628Z" fill="#1F2937"/>
</svg>
