<svg width="24" height="24" viewBox="0 0 24 24" fill="none" xmlns="http://www.w3.org/2000/svg">
<path fill-rule="evenodd" clip-rule="evenodd" d="M15 3.99628C15 3.44399 15.4477 2.99628 16 2.99628H20C20.5523 2.99628 21 3.44399 21 3.99628V7.99628C21 8.54856 20.5523 8.99628 20 8.99628C19.4477 8.99628 19 8.54856 19 7.99628V4.99628H16C15.4477 4.99628 15 4.54856 15 3.99628Z" fill="#1F2937"/>
<path fill-rule="evenodd" clip-rule="evenodd" d="M20.7071 3.28917C21.0976 3.67969 21.0976 4.31286 20.7071 4.70338L14.7071 10.7034C14.3166 11.0939 13.6834 11.0939 13.2929 10.7034C12.9024 10.3129 12.9024 9.67969 13.2929 9.28917L19.2929 3.28917C19.6834 2.89865 20.3166 2.89865 20.7071 3.28917Z" fill="#1F2937"/>
<path fill-rule="evenodd" clip-rule="evenodd" d="M4 14.9963C4.55228 14.9963 5 15.444 5 15.9963V18.9963H8C8.55228 18.9963 9 19.444 9 19.9963C9 20.5486 8.55228 20.9963 8 20.9963H4C3.44772 20.9963 3 20.5486 3 19.9963V15.9963C3 15.444 3.44772 14.9963 4 14.9963Z" fill="#1F2937"/>
<path fill-rule="evenodd" clip-rule="evenodd" d="M10.7071 13.2966C11.0976 13.6871 11.0976 14.3203 10.7071 14.7108L4.70711 20.7108C4.31658 21.1014 3.68342 21.1014 3.29289 20.7108C2.90237 20.3203 2.90237 19.6871 3.29289 19.2966L9.29289 13.2966C9.68342 12.9061 10.3166 12.9061 10.7071 13.2966Z" fill="#1F2937"/>
</svg>
