<svg width="24" height="24" viewBox="0 0 24 24" fill="none" xmlns="http://www.w3.org/2000/svg">
<path fill-rule="evenodd" clip-rule="evenodd" d="M20 14.9963C20.5523 14.9963 21 15.444 21 15.9963V19.9963C21 20.5486 20.5523 20.9963 20 20.9963H16C15.4477 20.9963 15 20.5486 15 19.9963C15 19.444 15.4477 18.9963 16 18.9963H19V15.9963C19 15.444 19.4477 14.9963 20 14.9963Z" fill="#1F2937"/>
<path fill-rule="evenodd" clip-rule="evenodd" d="M13.2929 13.2966C13.6834 12.9061 14.3166 12.9061 14.7071 13.2966L20.7071 19.2966C21.0976 19.6871 21.0976 20.3203 20.7071 20.7108C20.3166 21.1014 19.6834 21.1014 19.2929 20.7108L13.2929 14.7108C12.9024 14.3203 12.9024 13.6871 13.2929 13.2966Z" fill="#1F2937"/>
<path fill-rule="evenodd" clip-rule="evenodd" d="M3 3.99628C3 3.44399 3.44772 2.99628 4 2.99628H8C8.55228 2.99628 9 3.44399 9 3.99628C9 4.54856 8.55228 4.99628 8 4.99628H5V7.99628C5 8.54856 4.55228 8.99628 4 8.99628C3.44772 8.99628 3 8.54856 3 7.99628V3.99628Z" fill="#1F2937"/>
<path fill-rule="evenodd" clip-rule="evenodd" d="M3.29289 3.28917C3.68342 2.89865 4.31658 2.89865 4.70711 3.28917L10.7071 9.28917C11.0976 9.67969 11.0976 10.3129 10.7071 10.7034C10.3166 11.0939 9.68342 11.0939 9.29289 10.7034L3.29289 4.70338C2.90237 4.31286 2.90237 3.67969 3.29289 3.28917Z" fill="#1F2937"/>
</svg>
