<svg width="24" height="24" viewBox="0 0 24 24" fill="none" xmlns="http://www.w3.org/2000/svg">
<path fill-rule="evenodd" clip-rule="evenodd" d="M9 12C9 11.4477 9.44772 11 10 11H20C20.5523 11 21 11.4477 21 12C21 12.5523 20.5523 13 20 13H10C9.44772 13 9 12.5523 9 12Z" fill="#1F2937"/>
<path fill-rule="evenodd" clip-rule="evenodd" d="M20.7071 11.2929C21.0976 11.6834 21.0976 12.3166 20.7071 12.7071L16.7071 16.7071C16.3166 17.0976 15.6834 17.0976 15.2929 16.7071C14.9024 16.3166 14.9024 15.6834 15.2929 15.2929L19.2929 11.2929C19.6834 10.9024 20.3166 10.9024 20.7071 11.2929Z" fill="#1F2937"/>
<path fill-rule="evenodd" clip-rule="evenodd" d="M15.2929 7.29662C15.6834 6.90609 16.3166 6.90609 16.7071 7.29662L20.7071 11.2966C21.0976 11.6871 21.0976 12.3203 20.7071 12.7108C20.3166 13.1014 19.6834 13.1014 19.2929 12.7108L15.2929 8.71083C14.9024 8.32031 14.9024 7.68714 15.2929 7.29662Z" fill="#1F2937"/>
<path fill-rule="evenodd" clip-rule="evenodd" d="M4 2.99628C4.55228 2.99628 5 3.44399 5 3.99628V19.9963C5 20.5486 4.55228 20.9963 4 20.9963C3.44772 20.9963 3 20.5486 3 19.9963V3.99628C3 3.44399 3.44772 2.99628 4 2.99628Z" fill="#1F2937"/>
</svg>
