<svg width="24" height="24" viewBox="0 0 24 24" fill="none" xmlns="http://www.w3.org/2000/svg">
<path fill-rule="evenodd" clip-rule="evenodd" d="M4 12C4 11.4477 4.44772 11 5 11H19C19.5523 11 20 11.4477 20 12C20 12.5523 19.5523 13 19 13H5C4.44772 13 4 12.5523 4 12Z" fill="#1F2937"/>
<path fill-rule="evenodd" clip-rule="evenodd" d="M19.7071 11.2929C20.0976 11.6834 20.0976 12.3166 19.7071 12.7071L15.7071 16.7071C15.3166 17.0976 14.6834 17.0976 14.2929 16.7071C13.9024 16.3166 13.9024 15.6834 14.2929 15.2929L18.2929 11.2929C18.6834 10.9024 19.3166 10.9024 19.7071 11.2929Z" fill="#1F2937"/>
<path fill-rule="evenodd" clip-rule="evenodd" d="M14.2929 7.29662C14.6834 6.90609 15.3166 6.90609 15.7071 7.29662L19.7071 11.2966C20.0976 11.6871 20.0976 12.3203 19.7071 12.7108C19.3166 13.1014 18.6834 13.1014 18.2929 12.7108L14.2929 8.71083C13.9024 8.32031 13.9024 7.68714 14.2929 7.29662Z" fill="#1F2937"/>
</svg>
