<svg width="24" height="24" viewBox="0 0 24 24" fill="none" xmlns="http://www.w3.org/2000/svg">
<path fill-rule="evenodd" clip-rule="evenodd" d="M4 12C4 11.4477 4.44772 11 5 11H19C19.5523 11 20 11.4477 20 12C20 12.5523 19.5523 13 19 13H5C4.44772 13 4 12.5523 4 12Z" fill="#1F2937"/>
<path fill-rule="evenodd" clip-rule="evenodd" d="M4.29289 11.2929C4.68342 10.9024 5.31658 10.9024 5.70711 11.2929L9.70711 15.2929C10.0976 15.6834 10.0976 16.3166 9.70711 16.7071C9.31658 17.0976 8.68342 17.0976 8.29289 16.7071L4.29289 12.7071C3.90237 12.3166 3.90237 11.6834 4.29289 11.2929Z" fill="#1F2937"/>
<path fill-rule="evenodd" clip-rule="evenodd" d="M9.70711 7.29662C10.0976 7.68714 10.0976 8.32031 9.70711 8.71083L5.70711 12.7108C5.31658 13.1014 4.68342 13.1014 4.29289 12.7108C3.90237 12.3203 3.90237 11.6871 4.29289 11.2966L8.29289 7.29662C8.68342 6.90609 9.31658 6.90609 9.70711 7.29662Z" fill="#1F2937"/>
</svg>
