<svg width="24" height="24" viewBox="0 0 24 24" fill="none" xmlns="http://www.w3.org/2000/svg">
<path fill-rule="evenodd" clip-rule="evenodd" d="M17.7071 6.28917C18.0976 6.67969 18.0976 7.31286 17.7071 7.70338L7.70711 17.7034C7.31658 18.0939 6.68342 18.0939 6.29289 17.7034C5.90237 17.3129 5.90237 16.6797 6.29289 16.2892L16.2929 6.28917C16.6834 5.89865 17.3166 5.89865 17.7071 6.28917Z" fill="#1F2937"/>
<path fill-rule="evenodd" clip-rule="evenodd" d="M7 7.00372C7.55228 7.00372 8 7.45144 8 8.00372V16.0037H16C16.5523 16.0037 17 16.4514 17 17.0037C17 17.556 16.5523 18.0037 16 18.0037H7C6.44772 18.0037 6 17.556 6 17.0037V8.00372C6 7.45144 6.44772 7.00372 7 7.00372Z" fill="#1F2937"/>
</svg>
