<svg width="24" height="24" viewBox="0 0 24 24" fill="none" xmlns="http://www.w3.org/2000/svg">
<path fill-rule="evenodd" clip-rule="evenodd" d="M6.29289 4.29662C6.68342 3.90609 7.31658 3.90609 7.70711 4.29662L11.7071 8.29662C12.0976 8.68714 12.0976 9.32031 11.7071 9.71083C11.3166 10.1014 10.6834 10.1014 10.2929 9.71083L8 7.41794V19.0037C8 19.556 7.55228 20.0037 7 20.0037C6.44772 20.0037 6 19.556 6 19.0037V7.41794L3.70711 9.71083C3.31658 10.1014 2.68342 10.1014 2.29289 9.71083C1.90237 9.32031 1.90237 8.68714 2.29289 8.29662L6.29289 4.29662Z" fill="#1F2937"/>
<path fill-rule="evenodd" clip-rule="evenodd" d="M17 4.00372C17.5523 4.00372 18 4.45144 18 5.00372V16.5895L20.2929 14.2966C20.6834 13.9061 21.3166 13.9061 21.7071 14.2966C22.0976 14.6871 22.0976 15.3203 21.7071 15.7108L17.7071 19.7108C17.3166 20.1014 16.6834 20.1014 16.2929 19.7108L12.2929 15.7108C11.9024 15.3203 11.9024 14.6871 12.2929 14.2966C12.6834 13.9061 13.3166 13.9061 13.7071 14.2966L16 16.5895V5.00372C16 4.45144 16.4477 4.00372 17 4.00372Z" fill="#1F2937"/>
</svg>
