<svg width="24" height="24" viewBox="0 0 24 24" fill="none" xmlns="http://www.w3.org/2000/svg">
<path fill-rule="evenodd" clip-rule="evenodd" d="M12 8.99628C12.5523 8.99628 13 9.44399 13 9.99628V19.9963C13 20.5486 12.5523 20.9963 12 20.9963C11.4477 20.9963 11 20.5486 11 19.9963V9.99628C11 9.44399 11.4477 8.99628 12 8.99628Z" fill="#1F2937"/>
<path fill-rule="evenodd" clip-rule="evenodd" d="M16.7071 15.2892C17.0976 15.6797 17.0976 16.3129 16.7071 16.7034L12.7071 20.7034C12.3166 21.0939 11.6834 21.0939 11.2929 20.7034C10.9024 20.3129 10.9024 19.6797 11.2929 19.2892L15.2929 15.2892C15.6834 14.8986 16.3166 14.8986 16.7071 15.2892Z" fill="#1F2937"/>
<path fill-rule="evenodd" clip-rule="evenodd" d="M7.29289 15.2892C7.68342 14.8986 8.31658 14.8986 8.70711 15.2892L12.7071 19.2892C13.0976 19.6797 13.0976 20.3129 12.7071 20.7034C12.3166 21.0939 11.6834 21.0939 11.2929 20.7034L7.29289 16.7034C6.90237 16.3129 6.90237 15.6797 7.29289 15.2892Z" fill="#1F2937"/>
<path fill-rule="evenodd" clip-rule="evenodd" d="M3 3.99628C3 3.44399 3.44772 2.99628 4 2.99628H20C20.5523 2.99628 21 3.44399 21 3.99628C21 4.54856 20.5523 4.99628 20 4.99628H4C3.44772 4.99628 3 4.54856 3 3.99628Z" fill="#1F2937"/>
</svg>
