<svg width="24" height="24" viewBox="0 0 24 24" fill="none" xmlns="http://www.w3.org/2000/svg">
<path fill-rule="evenodd" clip-rule="evenodd" d="M12 4.00372C12.5523 4.00372 13 4.45144 13 5.00372V19.0037C13 19.556 12.5523 20.0037 12 20.0037C11.4477 20.0037 11 19.556 11 19.0037V5.00372C11 4.45144 11.4477 4.00372 12 4.00372Z" fill="#1F2937"/>
<path fill-rule="evenodd" clip-rule="evenodd" d="M11.2929 4.29662C11.6834 3.90609 12.3166 3.90609 12.7071 4.29662L18.7071 10.2966C19.0976 10.6871 19.0976 11.3203 18.7071 11.7108C18.3166 12.1014 17.6834 12.1014 17.2929 11.7108L11.2929 5.71083C10.9024 5.32031 10.9024 4.68714 11.2929 4.29662Z" fill="#1F2937"/>
<path fill-rule="evenodd" clip-rule="evenodd" d="M12.7071 4.29662C13.0976 4.68714 13.0976 5.32031 12.7071 5.71083L6.70711 11.7108C6.31658 12.1014 5.68342 12.1014 5.29289 11.7108C4.90237 11.3203 4.90237 10.6871 5.29289 10.2966L11.2929 4.29662C11.6834 3.90609 12.3166 3.90609 12.7071 4.29662Z" fill="#1F2937"/>
</svg>
