<svg width="24" height="24" viewBox="0 0 24 24" fill="none" xmlns="http://www.w3.org/2000/svg">
<path fill-rule="evenodd" clip-rule="evenodd" d="M17.7071 6.28917C18.0976 6.67969 18.0976 7.31286 17.7071 7.70338L7.70711 17.7034C7.31658 18.0939 6.68342 18.0939 6.29289 17.7034C5.90237 17.3129 5.90237 16.6797 6.29289 16.2892L16.2929 6.28917C16.6834 5.89865 17.3166 5.89865 17.7071 6.28917Z" fill="#1F2937"/>
<path fill-rule="evenodd" clip-rule="evenodd" d="M7 6.99628C7 6.44399 7.44772 5.99628 8 5.99628H17C17.5523 5.99628 18 6.44399 18 6.99628V15.9963C18 16.5486 17.5523 16.9963 17 16.9963C16.4477 16.9963 16 16.5486 16 15.9963V7.99628H8C7.44772 7.99628 7 7.54856 7 6.99628Z" fill="#1F2937"/>
</svg>
