<svg width="24" height="24" viewBox="0 0 24 24" fill="none" xmlns="http://www.w3.org/2000/svg">
<path fill-rule="evenodd" clip-rule="evenodd" d="M7 9.00378C7 7.89921 7.89543 7.00378 9 7.00378H15C16.1046 7.00378 17 7.89921 17 9.00378V15.0038C17 16.1084 16.1046 17.0038 15 17.0038H9C7.89543 17.0038 7 16.1084 7 15.0038V9.00378ZM15 9.00378H9V15.0038H15V9.00378Z" fill="#1F2937"/>
<path fill-rule="evenodd" clip-rule="evenodd" d="M2 8.00378C2 7.4515 2.44772 7.00378 3 7.00378H4C4.55228 7.00378 5 7.4515 5 8.00378C5 8.55607 4.55228 9.00378 4 9.00378H3C2.44772 9.00378 2 8.55607 2 8.00378Z" fill="#1F2937"/>
<path fill-rule="evenodd" clip-rule="evenodd" d="M2 15.9962C2 15.4439 2.44772 14.9962 3 14.9962H4C4.55228 14.9962 5 15.4439 5 15.9962C5 16.5485 4.55228 16.9962 4 16.9962H3C2.44772 16.9962 2 16.5485 2 15.9962Z" fill="#1F2937"/>
<path fill-rule="evenodd" clip-rule="evenodd" d="M8 2C8.55228 2 9 2.44772 9 3V4C9 4.55228 8.55228 5 8 5C7.44772 5 7 4.55228 7 4V3C7 2.44772 7.44772 2 8 2Z" fill="#1F2937"/>
<path fill-rule="evenodd" clip-rule="evenodd" d="M16 2C16.5523 2 17 2.44772 17 3V4C17 4.55228 16.5523 5 16 5C15.4477 5 15 4.55228 15 4V3C15 2.44772 15.4477 2 16 2Z" fill="#1F2937"/>
<path fill-rule="evenodd" clip-rule="evenodd" d="M19 8.00378C19 7.4515 19.4477 7.00378 20 7.00378H21C21.5523 7.00378 22 7.4515 22 8.00378C22 8.55607 21.5523 9.00378 21 9.00378H20C19.4477 9.00378 19 8.55607 19 8.00378Z" fill="#1F2937"/>
<path fill-rule="evenodd" clip-rule="evenodd" d="M19 15.9962C19 15.4439 19.4477 14.9962 20 14.9962H21C21.5523 14.9962 22 15.4439 22 15.9962C22 16.5485 21.5523 16.9962 21 16.9962H20C19.4477 16.9962 19 16.5485 19 15.9962Z" fill="#1F2937"/>
<path fill-rule="evenodd" clip-rule="evenodd" d="M8 19.0038C8.55228 19.0038 9 19.4515 9 20.0038V21.0038C9 21.5561 8.55228 22.0038 8 22.0038C7.44772 22.0038 7 21.5561 7 21.0038V20.0038C7 19.4515 7.44772 19.0038 8 19.0038Z" fill="#1F2937"/>
<path fill-rule="evenodd" clip-rule="evenodd" d="M16 19.0038C16.5523 19.0038 17 19.4515 17 20.0038V21.0038C17 21.5561 16.5523 22.0038 16 22.0038C15.4477 22.0038 15 21.5561 15 21.0038V20.0038C15 19.4515 15.4477 19.0038 16 19.0038Z" fill="#1F2937"/>
</svg>
