<svg width="24" height="24" viewBox="0 0 24 24" fill="none" xmlns="http://www.w3.org/2000/svg">
<path fill-rule="evenodd" clip-rule="evenodd" d="M12 11C12.5523 11 13 11.4477 13 12V12.01C13 12.5623 12.5523 13.01 12 13.01C11.4477 13.01 11 12.5623 11 12.01V12C11 11.4477 11.4477 11 12 11Z" fill="#1F2937"/>
<path fill-rule="evenodd" clip-rule="evenodd" d="M17.433 3.38212C18.2999 3.36699 19.1525 3.59328 19.7782 4.219C20.3986 4.83937 20.6304 5.68752 20.6151 6.56421C20.5999 7.43533 20.3439 8.40008 19.9192 9.39109C19.4912 10.3898 18.8809 11.4404 18.1323 12.4863C17.3826 13.5338 16.5003 14.568 15.5356 15.5327C13.597 17.4713 11.3977 19.0576 9.39396 19.9163C8.39261 20.3455 7.4306 20.5971 6.56707 20.6122C5.7002 20.6274 4.84758 20.4011 4.22186 19.7753C3.59614 19.1496 3.36985 18.297 3.38498 17.4301C3.40005 16.5666 3.65174 15.6046 4.08089 14.6032C4.93965 12.5995 6.52589 10.4003 8.4645 8.46164C10.4031 6.52303 12.6023 4.93679 14.6061 4.07803C15.6075 3.64889 16.5695 3.3972 17.433 3.38212ZM18.364 5.63322C18.2396 5.50879 17.9849 5.37279 17.4679 5.38182C16.9476 5.3909 16.2491 5.54982 15.394 5.91632C13.6847 6.64886 11.6908 8.06374 9.87871 9.87585C8.0666 11.688 6.65172 13.6818 5.91918 15.3911C5.55268 16.2463 5.39376 16.9447 5.38467 17.465C5.37565 17.982 5.51165 18.2367 5.63607 18.3611C5.7605 18.4856 6.01516 18.6215 6.53216 18.6125C7.05249 18.6034 7.75094 18.4445 8.60612 18.078C10.3154 17.3455 12.3092 15.9306 14.1214 14.1185C15.0138 13.226 15.8241 12.2749 16.506 11.3223C17.1889 10.3681 17.721 9.44309 18.0809 8.60325C18.4441 7.75577 18.6062 7.0552 18.6154 6.5293C18.6245 6.00896 18.4865 5.75572 18.364 5.63322Z" fill="#1F2937"/>
<path fill-rule="evenodd" clip-rule="evenodd" d="M3.38518 6.56749C3.37004 5.70062 3.59634 4.848 4.22206 4.22228C4.84242 3.60192 5.69057 3.3701 6.56726 3.3854C7.43839 3.40061 8.40313 3.65659 9.39415 4.08131C10.3928 4.50931 11.4435 5.11958 12.4894 5.86817C13.5369 6.61787 14.5711 7.50021 15.5358 8.46492C17.4744 10.4035 19.0606 12.6028 19.9194 14.6065C20.3485 15.6079 20.6002 16.5699 20.6153 17.4334C20.6304 18.3003 20.4041 19.1529 19.7784 19.7786C19.1527 20.4043 18.3001 20.6306 17.4332 20.6155C16.5697 20.6004 15.6077 20.3487 14.6063 19.9196C12.6025 19.0608 10.4033 17.4746 8.4647 15.536C6.52609 13.5974 4.93984 11.3981 4.08109 9.39437C3.65194 8.39303 3.40025 7.43102 3.38518 6.56749ZM5.63627 5.63649C5.51184 5.76092 5.37585 6.01557 5.38487 6.53258C5.39396 7.05291 5.55287 7.75136 5.91938 8.60653C6.65192 10.3158 8.06679 12.3097 9.87891 14.1218C11.691 15.9339 13.6849 17.3488 15.3942 18.0813C16.2493 18.4478 16.9478 18.6067 17.4681 18.6158C17.9851 18.6248 18.2398 18.4888 18.3642 18.3644C18.4886 18.24 18.6246 17.9853 18.6156 17.4683C18.6065 16.948 18.4476 16.2495 18.0811 15.3944C17.3485 13.6851 15.9337 11.6912 14.1216 9.87913C13.2291 8.98667 12.278 8.17634 11.3254 7.49452C10.3712 6.81159 9.44615 6.27953 8.60631 5.9196C7.75882 5.55639 7.05826 5.39427 6.53236 5.38509C6.01201 5.37601 5.75877 5.51399 5.63627 5.63649Z" fill="#1F2937"/>
</svg>
