<svg width="24" height="24" viewBox="0 0 24 24" fill="none" xmlns="http://www.w3.org/2000/svg">
<path fill-rule="evenodd" clip-rule="evenodd" d="M12 10C10.8954 10 10 10.8954 10 12C10 13.1046 10.8954 14 12 14C13.1046 14 14 13.1046 14 12C14 10.8954 13.1046 10 12 10ZM8 12C8 9.79086 9.79086 8 12 8C14.2091 8 16 9.79086 16 12C16 14.2091 14.2091 16 12 16C9.79086 16 8 14.2091 8 12Z" fill="#1F2937"/>
<path fill-rule="evenodd" clip-rule="evenodd" d="M12 20C12.5523 20 13 20.4477 13 21V21.01C13 21.5623 12.5523 22.01 12 22.01C11.4477 22.01 11 21.5623 11 21.01V21C11 20.4477 11.4477 20 12 20Z" fill="#1F2937"/>
<path fill-rule="evenodd" clip-rule="evenodd" d="M3 8C3.55228 8 4 8.44772 4 9V9.01C4 9.56228 3.55228 10.01 3 10.01C2.44772 10.01 2 9.56228 2 9.01V9C2 8.44772 2.44772 8 3 8Z" fill="#1F2937"/>
<path fill-rule="evenodd" clip-rule="evenodd" d="M21 8C21.5523 8 22 8.44772 22 9V9.01C22 9.56228 21.5523 10.01 21 10.01C20.4477 10.01 20 9.56228 20 9.01V9C20 8.44772 20.4477 8 21 8Z" fill="#1F2937"/>
<path fill-rule="evenodd" clip-rule="evenodd" d="M2.89019 12.0023C3.43913 11.9416 3.93334 12.3374 3.99403 12.8863C4.14235 14.2278 4.62764 15.5099 5.40473 16.6134C6.18182 17.7169 7.22545 18.6058 8.43848 19.1975C8.93486 19.4396 9.14099 20.0382 8.89887 20.5346C8.65676 21.031 8.05809 21.2371 7.5617 20.995C6.04541 20.2555 4.74088 19.1443 3.76952 17.765C2.79816 16.3856 2.19155 14.783 2.00614 13.1061C1.94545 12.5572 2.34125 12.063 2.89019 12.0023Z" fill="#1F2937"/>
<path fill-rule="evenodd" clip-rule="evenodd" d="M21.1101 12.0023C21.6591 12.063 22.0549 12.5572 21.9942 13.1061C21.8088 14.783 21.2022 16.3856 20.2308 17.765C19.2594 19.1443 17.9549 20.2555 16.4386 20.995C15.9422 21.2371 15.3436 21.031 15.1014 20.5346C14.8593 20.0382 15.0655 19.4396 15.5618 19.1975C16.7749 18.6058 17.8185 17.7169 18.5956 16.6134C19.3727 15.5099 19.858 14.2278 20.0063 12.8863C20.067 12.3374 20.5612 11.9416 21.1101 12.0023Z" fill="#1F2937"/>
<path fill-rule="evenodd" clip-rule="evenodd" d="M11.9002 3.9649C10.0531 3.9649 8.26297 4.60406 6.83356 5.77388C6.40616 6.12366 5.77613 6.06073 5.42635 5.63333C5.07657 5.20593 5.13949 4.5759 5.56689 4.22612C7.35366 2.76385 9.59138 1.9649 11.9002 1.9649C14.2091 1.9649 16.4468 2.76385 18.2336 4.22612C18.661 4.5759 18.7239 5.20593 18.3741 5.63333C18.0243 6.06073 17.3943 6.12366 16.9669 5.77388C15.5375 4.60406 13.7473 3.9649 11.9002 3.9649Z" fill="#1F2937"/>
</svg>
