<svg width="24" height="24" viewBox="0 0 24 24" fill="none" xmlns="http://www.w3.org/2000/svg">
<path fill-rule="evenodd" clip-rule="evenodd" d="M12 4C9.23858 4 7 6.23858 7 9C7 11.7614 9.23858 14 12 14C14.7614 14 17 11.7614 17 9C17 6.23858 14.7614 4 12 4ZM5 9C5 5.13401 8.13401 2 12 2C15.866 2 19 5.13401 19 9C19 12.866 15.866 16 12 16C8.13401 16 5 12.866 5 9Z" fill="#1F2937"/>
<path fill-rule="evenodd" clip-rule="evenodd" d="M11.5018 14.134C11.9801 13.8579 12.5917 14.0218 12.8678 14.5001L15.3335 18.7708L16.1034 17.2138C16.2824 16.8519 16.6613 16.6331 17.0642 16.6591L18.7976 16.7708L16.3319 12.5001C16.0558 12.0218 16.2196 11.4102 16.6979 11.134C17.1762 10.8579 17.7878 11.0218 18.0639 11.5001L21.4639 17.389C21.6483 17.7084 21.642 18.1034 21.4474 18.4167C21.2528 18.7299 20.9016 18.9107 20.5336 18.887L17.6008 18.6978L16.2982 21.3323C16.1347 21.6628 15.8026 21.8766 15.434 21.8885C15.0654 21.9004 14.7201 21.7084 14.5357 21.389L11.1357 15.5001C10.8596 15.0218 11.0235 14.4102 11.5018 14.134Z" fill="#1F2937"/>
<path fill-rule="evenodd" clip-rule="evenodd" d="M7.30206 11.134C7.78035 11.4102 7.94423 12.0218 7.66809 12.5001L5.20234 16.7708L6.93578 16.659C7.33864 16.6331 7.71762 16.8519 7.89655 17.2137L8.66645 18.7708L11.1322 14.5001C11.4083 14.0218 12.0199 13.8579 12.4982 14.134C12.9765 14.4102 13.1404 15.0218 12.8642 15.5001L9.46424 21.389C9.27984 21.7084 8.93462 21.9004 8.56602 21.8885C8.19741 21.8766 7.86526 21.6628 7.7018 21.3322L6.39921 18.6978L3.46642 18.887C3.09839 18.9107 2.74717 18.7299 2.55258 18.4166C2.358 18.1034 2.35164 17.7084 2.53603 17.389L5.93603 11.5001C6.21218 11.0218 6.82377 10.8579 7.30206 11.134Z" fill="#1F2937"/>
</svg>
