<svg width="24" height="24" viewBox="0 0 24 24" fill="none" xmlns="http://www.w3.org/2000/svg">
<path fill-rule="evenodd" clip-rule="evenodd" d="M8.29302 5.29289C8.48056 5.10536 8.73491 5 9.00013 5H20.0001C20.5306 5 21.0393 5.21071 21.4143 5.58579C21.7894 5.96086 22.0001 6.46957 22.0001 7V17C22.0001 17.5304 21.7894 18.0391 21.4143 18.4142C21.0393 18.7893 20.5306 19 20.0001 19H9.00013C8.73491 19 8.48056 18.8946 8.29302 18.7071L3.29302 13.7071C3.2799 13.694 3.26715 13.6805 3.25477 13.6667C2.84481 13.2083 2.61816 12.6149 2.61816 12C2.61816 11.3851 2.84481 10.7917 3.25477 10.3333C3.26715 10.3195 3.2799 10.306 3.29302 10.2929L8.29302 5.29289ZM9.41434 7L4.7322 11.6821C4.65861 11.7715 4.61816 11.8838 4.61816 12C4.61816 12.1162 4.65861 12.2285 4.7322 12.3179L9.41434 17H20.0001V7H9.41434Z" fill="#1F2937"/>
<path fill-rule="evenodd" clip-rule="evenodd" d="M11.2929 9.28914C11.6834 8.89862 12.3166 8.89862 12.7071 9.28914L14 10.582L15.2929 9.28914C15.6834 8.89862 16.3166 8.89862 16.7071 9.28914C17.0976 9.67966 17.0976 10.3128 16.7071 10.7034L15.4142 11.9962L16.7071 13.2891C17.0976 13.6797 17.0976 14.3128 16.7071 14.7034C16.3166 15.0939 15.6834 15.0939 15.2929 14.7034L14 13.4105L12.7071 14.7034C12.3166 15.0939 11.6834 15.0939 11.2929 14.7034C10.9024 14.3128 10.9024 13.6797 11.2929 13.2891L12.5858 11.9962L11.2929 10.7034C10.9024 10.3128 10.9024 9.67966 11.2929 9.28914Z" fill="#1F2937"/>
</svg>
