<svg width="24" height="24" viewBox="0 0 24 24" fill="none" xmlns="http://www.w3.org/2000/svg">
<path fill-rule="evenodd" clip-rule="evenodd" d="M12 4C7.58172 4 4 7.58172 4 12C4 16.4183 7.58172 20 12 20C16.4183 20 20 16.4183 20 12C20 7.58172 16.4183 4 12 4ZM2 12C2 6.47715 6.47715 2 12 2C17.5228 2 22 6.47715 22 12C22 17.5228 17.5228 22 12 22C6.47715 22 2 17.5228 2 12Z" fill="#1F2937"/>
<path fill-rule="evenodd" clip-rule="evenodd" d="M4.99309 4.98821C5.38361 4.59768 6.01678 4.59768 6.4073 4.98821L19.0073 17.5882C19.3978 17.9788 19.3978 18.6119 19.0073 19.0024C18.6168 19.393 17.9836 19.393 17.5931 19.0024L4.99309 6.40242C4.60256 6.01189 4.60256 5.37873 4.99309 4.98821Z" fill="#1F2937"/>
</svg>
