<svg width="24" height="24" viewBox="0 0 24 24" fill="none" xmlns="http://www.w3.org/2000/svg">
<path fill-rule="evenodd" clip-rule="evenodd" d="M14 11C14.5523 11 15 11.4477 15 12V12.01C15 12.5623 14.5523 13.01 14 13.01C13.4477 13.01 13 12.5623 13 12.01V12C13 11.4477 13.4477 11 14 11Z" fill="#1F2937"/>
<path fill-rule="evenodd" clip-rule="evenodd" d="M10 11C10.5523 11 11 11.4477 11 12V12.01C11 12.5623 10.5523 13.01 10 13.01C9.44772 13.01 9 12.5623 9 12.01V12C9 11.4477 9.44772 11 10 11Z" fill="#1F2937"/>
<path fill-rule="evenodd" clip-rule="evenodd" d="M12 8.99625C12.5523 8.99625 13 9.44396 13 9.99625V10.0062C13 10.5585 12.5523 11.0062 12 11.0062C11.4477 11.0062 11 10.5585 11 10.0062V9.99625C11 9.44396 11.4477 8.99625 12 8.99625Z" fill="#1F2937"/>
<path fill-rule="evenodd" clip-rule="evenodd" d="M12 13.0038C12.5523 13.0038 13 13.4515 13 14.0038V14.0138C13 14.566 12.5523 15.0138 12 15.0138C11.4477 15.0138 11 14.566 11 14.0138V14.0038C11 13.4515 11.4477 13.0038 12 13.0038Z" fill="#1F2937"/>
<path fill-rule="evenodd" clip-rule="evenodd" d="M16 4.04697C14.9525 4.04697 13.9479 4.4631 13.2071 5.20382L5.20715 13.2038C4.46643 13.9445 4.05029 14.9492 4.05029 15.9967C4.05029 17.0443 4.46643 18.0489 5.20715 18.7896C5.94787 19.5303 6.9525 19.9465 8.00004 19.9465C9.04758 19.9465 10.0522 19.5303 10.7929 18.7896L18.7929 10.7896C19.5337 10.0489 19.9498 9.04425 19.9498 7.99671C19.9498 6.94918 19.5337 5.94454 18.7929 5.20382C18.0522 4.4631 17.0476 4.04697 16 4.04697ZM3.79293 11.7896C2.67714 12.9054 2.05029 14.4187 2.05029 15.9967C2.05029 17.5747 2.67714 19.088 3.79293 20.2038C4.90873 21.3196 6.42207 21.9465 8.00004 21.9465C9.57801 21.9465 11.0914 21.3196 12.2071 20.2038L20.2071 12.2038C21.3229 11.088 21.9498 9.57469 21.9498 7.99671C21.9498 6.41874 21.3229 4.9054 20.2071 3.78961C19.0914 2.67381 17.578 2.04697 16 2.04697C14.4221 2.04697 12.9087 2.67381 11.7929 3.78961L3.79293 11.7896Z" fill="#1F2937"/>
</svg>
