<svg width="24" height="24" viewBox="0 0 24 24" fill="none" xmlns="http://www.w3.org/2000/svg">
<path fill-rule="evenodd" clip-rule="evenodd" d="M6 4.99628C5.73478 4.99628 5.48043 5.10163 5.29289 5.28917C5.10536 5.47671 5 5.73106 5 5.99628V6.99628C5 7.54856 4.55228 7.99628 4 7.99628C3.44772 7.99628 3 7.54856 3 6.99628V5.99628C3 5.20063 3.31607 4.43757 3.87868 3.87496C4.44129 3.31235 5.20435 2.99628 6 2.99628H8C8.55228 2.99628 9 3.44399 9 3.99628C9 4.54856 8.55228 4.99628 8 4.99628H6Z" fill="#1F2937"/>
<path fill-rule="evenodd" clip-rule="evenodd" d="M4 16.0037C4.55228 16.0037 5 16.4514 5 17.0037V18.0037C5 18.2689 5.10536 18.5233 5.29289 18.7108C5.48043 18.8984 5.73478 19.0037 6 19.0037H8C8.55228 19.0037 9 19.4514 9 20.0037C9 20.556 8.55228 21.0037 8 21.0037H6C5.20435 21.0037 4.44129 20.6877 3.87868 20.125C3.31607 19.5624 3 18.7994 3 18.0037V17.0037C3 16.4514 3.44772 16.0037 4 16.0037Z" fill="#1F2937"/>
<path fill-rule="evenodd" clip-rule="evenodd" d="M15 3.99628C15 3.44399 15.4477 2.99628 16 2.99628H18C18.7956 2.99628 19.5587 3.31235 20.1213 3.87496C20.6839 4.43757 21 5.20063 21 5.99628V6.99628C21 7.54856 20.5523 7.99628 20 7.99628C19.4477 7.99628 19 7.54856 19 6.99628V5.99628C19 5.73106 18.8946 5.47671 18.7071 5.28917C18.5196 5.10163 18.2652 4.99628 18 4.99628H16C15.4477 4.99628 15 4.54856 15 3.99628Z" fill="#1F2937"/>
<path fill-rule="evenodd" clip-rule="evenodd" d="M20 16.0037C20.5523 16.0037 21 16.4514 21 17.0037V18.0037C21 18.7994 20.6839 19.5624 20.1213 20.125C19.5587 20.6877 18.7957 21.0037 18 21.0037H16C15.4477 21.0037 15 20.556 15 20.0037C15 19.4514 15.4477 19.0037 16 19.0037H18C18.2652 19.0037 18.5196 18.8984 18.7071 18.7108C18.8946 18.5233 19 18.2689 19 18.0037V17.0037C19 16.4514 19.4477 16.0037 20 16.0037Z" fill="#1F2937"/>
<path fill-rule="evenodd" clip-rule="evenodd" d="M4 11.0037C4 10.4514 4.44772 10.0037 5 10.0037H6C6.55228 10.0037 7 10.4514 7 11.0037V13.0037C7 13.556 6.55228 14.0037 6 14.0037H5C4.44772 14.0037 4 13.556 4 13.0037V11.0037Z" fill="#1F2937"/>
<path fill-rule="evenodd" clip-rule="evenodd" d="M10 10.0037C10.5523 10.0037 11 10.4514 11 11.0037V13.0037C11 13.556 10.5523 14.0037 10 14.0037C9.44772 14.0037 9 13.556 9 13.0037V11.0037C9 10.4514 9.44772 10.0037 10 10.0037Z" fill="#1F2937"/>
<path fill-rule="evenodd" clip-rule="evenodd" d="M13 11.0037C13 10.4514 13.4477 10.0037 14 10.0037H15C15.5523 10.0037 16 10.4514 16 11.0037V13.0037C16 13.556 15.5523 14.0037 15 14.0037H14C13.4477 14.0037 13 13.556 13 13.0037V11.0037Z" fill="#1F2937"/>
<path fill-rule="evenodd" clip-rule="evenodd" d="M19 10.0037C19.5523 10.0037 20 10.4514 20 11.0037V13.0037C20 13.556 19.5523 14.0037 19 14.0037C18.4477 14.0037 18 13.556 18 13.0037V11.0037C18 10.4514 18.4477 10.0037 19 10.0037Z" fill="#1F2937"/>
</svg>
