<svg width="24" height="24" viewBox="0 0 24 24" fill="none" xmlns="http://www.w3.org/2000/svg">
<path fill-rule="evenodd" clip-rule="evenodd" d="M12 4C7.58172 4 4 7.58172 4 12C4 16.4183 7.58172 20 12 20C16.4183 20 20 16.4183 20 12C20 7.58172 16.4183 4 12 4ZM2 12C2 6.47715 6.47715 2 12 2C17.5228 2 22 6.47715 22 12C22 17.5228 17.5228 22 12 22C6.47715 22 2 17.5228 2 12Z" fill="#1F2937"/>
<path fill-rule="evenodd" clip-rule="evenodd" d="M4.9428 4.94148C5.33332 4.55096 5.96648 4.55096 6.35701 4.94148L19.057 17.6415C19.4475 18.032 19.4475 18.6652 19.057 19.0557C18.6665 19.4462 18.0333 19.4462 17.6428 19.0557L4.9428 6.3557C4.55227 5.96517 4.55227 5.33201 4.9428 4.94148Z" fill="#1F2937"/>
<path fill-rule="evenodd" clip-rule="evenodd" d="M19.057 4.94148C19.4475 5.33201 19.4475 5.96517 19.057 6.3557L6.35701 19.0557C5.96648 19.4462 5.33332 19.4462 4.9428 19.0557C4.55227 18.6652 4.55227 18.032 4.9428 17.6415L17.6428 4.94148C18.0333 4.55096 18.6665 4.55096 19.057 4.94148Z" fill="#1F2937"/>
<path fill-rule="evenodd" clip-rule="evenodd" d="M12 2C12.5523 2 13 2.44772 13 3C13 5.12173 13.8429 7.15656 15.3431 8.65685C16.8434 10.1571 18.8783 11 21 11C21.5523 11 22 11.4477 22 12C22 12.5523 21.5523 13 21 13C18.3478 13 15.8043 11.9464 13.9289 10.0711C12.0536 8.1957 11 5.65216 11 3C11 2.44772 11.4477 2 12 2Z" fill="#1F2937"/>
<path fill-rule="evenodd" clip-rule="evenodd" d="M2 12C2 11.4477 2.44772 11 3 11C5.65216 11 8.1957 12.0536 10.0711 13.9289C11.9464 15.8043 13 18.3478 13 21C13 21.5523 12.5523 22 12 22C11.4477 22 11 21.5523 11 21C11 18.8783 10.1571 16.8434 8.65685 15.3431C7.15656 13.8429 5.12173 13 3 13C2.44772 13 2 12.5523 2 12Z" fill="#1F2937"/>
</svg>
