<svg width="24" height="24" viewBox="0 0 24 24" fill="none" xmlns="http://www.w3.org/2000/svg">
<path fill-rule="evenodd" clip-rule="evenodd" d="M12 2.99625C12.2968 2.99625 12.5783 3.12807 12.7682 3.35606L17.7682 9.35606C18.1218 9.78034 18.0645 10.4109 17.6402 10.7645C17.2159 11.118 16.5854 11.0607 16.2318 10.6364L12 5.5583L7.76825 10.6364C7.41468 11.0607 6.78412 11.118 6.35984 10.7645C5.93556 10.4109 5.87824 9.78034 6.2318 9.35606L11.2318 3.35606C11.4218 3.12807 11.7032 2.99625 12 2.99625Z" fill="#1F2937"/>
<path fill-rule="evenodd" clip-rule="evenodd" d="M2.2118 9.38083C2.40131 9.13812 2.69207 8.99625 3.00001 8.99625H21C21.3079 8.99625 21.5987 9.13812 21.7882 9.38083C21.9777 9.62355 22.0448 9.94004 21.9702 10.2388L19.9795 18.2012C19.8509 18.9383 19.5182 19.6347 18.9968 20.156C18.4633 20.6896 17.7553 21.0114 16.9889 20.9962H7.01111C6.24471 21.0114 5.53674 20.6896 5.00319 20.156C4.48184 19.6347 4.14909 18.9383 4.02048 18.2012L2.02987 10.2388C1.95518 9.94004 2.0223 9.62355 2.2118 9.38083ZM4.28079 10.9962L5.97015 17.7537C5.97688 17.7806 5.98249 17.8078 5.98696 17.8352C6.05108 18.2283 6.21824 18.5426 6.4174 18.7418C6.61145 18.9358 6.81083 19.0007 6.97481 18.9965C6.98321 18.9963 6.99161 18.9962 7.00001 18.9962H17C17.0084 18.9962 17.0168 18.9963 17.0252 18.9965C17.1892 19.0007 17.3886 18.9358 17.5826 18.7418C17.7818 18.5426 17.9489 18.2283 18.0131 17.8352C18.0175 17.8078 18.0231 17.7806 18.0299 17.7537L19.7192 10.9962H4.28079Z" fill="#1F2937"/>
<path fill-rule="evenodd" clip-rule="evenodd" d="M12 13.9962C11.4477 13.9962 11 14.444 11 14.9962C11 15.5485 11.4477 15.9962 12 15.9962C12.5523 15.9962 13 15.5485 13 14.9962C13 14.444 12.5523 13.9962 12 13.9962ZM9 14.9962C9 13.3394 10.3431 11.9962 12 11.9962C13.6569 11.9962 15 13.3394 15 14.9962C15 16.6531 13.6569 17.9962 12 17.9962C10.3431 17.9962 9 16.6531 9 14.9962Z" fill="#1F2937"/>
</svg>
