<svg width="24" height="24" viewBox="0 0 24 24" fill="none" xmlns="http://www.w3.org/2000/svg">
<path fill-rule="evenodd" clip-rule="evenodd" d="M6 7.99628C5.73478 7.99628 5.48043 8.10163 5.29289 8.28917C5.10536 8.47671 5 8.73106 5 8.99628V14.9963C5 15.2615 5.10536 15.5158 5.29289 15.7034C5.48043 15.8909 5.73478 15.9963 6 15.9963H17C17.2652 15.9963 17.5196 15.8909 17.7071 15.7034C17.8946 15.5158 18 15.2615 18 14.9963V14.4963C18 14.0985 18.158 13.7169 18.4393 13.4356C18.599 13.2759 18.791 13.1559 19 13.0821V10.9105C18.791 10.8366 18.599 10.7166 18.4393 10.5569C18.158 10.2756 18 9.8941 18 9.49628V8.99628C18 8.73106 17.8946 8.47671 17.7071 8.28917C17.5196 8.10163 17.2652 7.99628 17 7.99628H6ZM3.87868 6.87496C4.44129 6.31235 5.20435 5.99628 6 5.99628H17C17.7956 5.99628 18.5587 6.31235 19.1213 6.87496C19.6839 7.43757 20 8.20063 20 8.99628V9.08206C20.209 9.15594 20.401 9.27591 20.5607 9.43562C20.842 9.71692 21 10.0985 21 10.4963V13.4963C21 13.8941 20.842 14.2756 20.5607 14.5569C20.401 14.7166 20.209 14.8366 20 14.9105V14.9963C20 15.7919 19.6839 16.555 19.1213 17.1176C18.5587 17.6802 17.7957 17.9963 17 17.9963H6C5.20435 17.9963 4.44129 17.6802 3.87868 17.1176C3.31607 16.555 3 15.7919 3 14.9963V8.99628C3 8.20063 3.31607 7.43757 3.87868 6.87496Z" fill="#1F2937"/>
<path fill-rule="evenodd" clip-rule="evenodd" d="M7 8.99628C7.55228 8.99628 8 9.44399 8 9.99628V13.9963C8 14.5486 7.55228 14.9963 7 14.9963C6.44772 14.9963 6 14.5486 6 13.9963V9.99628C6 9.44399 6.44772 8.99628 7 8.99628Z" fill="#1F2937"/>
<path fill-rule="evenodd" clip-rule="evenodd" d="M10 8.99628C10.5523 8.99628 11 9.44399 11 9.99628V13.9963C11 14.5486 10.5523 14.9963 10 14.9963C9.44772 14.9963 9 14.5486 9 13.9963V9.99628C9 9.44399 9.44772 8.99628 10 8.99628Z" fill="#1F2937"/>
</svg>
