<svg width="24" height="24" viewBox="0 0 24 24" fill="none" xmlns="http://www.w3.org/2000/svg">
<path fill-rule="evenodd" clip-rule="evenodd" d="M15 6.99628C15 6.44399 15.4477 5.99628 16 5.99628H17C17.7956 5.99628 18.5587 6.31235 19.1213 6.87496C19.6839 7.43757 20 8.20063 20 8.99628V9.08206C20.209 9.15594 20.401 9.27591 20.5607 9.43562C20.842 9.71692 21 10.0985 21 10.4963V13.4963C21 13.8941 20.842 14.2756 20.5607 14.5569C20.401 14.7166 20.209 14.8366 20 14.9105V14.9963C20 15.7919 19.6839 16.555 19.1213 17.1176C18.5587 17.6802 17.7957 17.9963 17 17.9963H15C14.4477 17.9963 14 17.5486 14 16.9963C14 16.444 14.4477 15.9963 15 15.9963H17C17.2652 15.9963 17.5196 15.8909 17.7071 15.7034C17.8946 15.5158 18 15.2615 18 14.9963V14.4963C18 14.0985 18.158 13.7169 18.4393 13.4356C18.599 13.2759 18.791 13.1559 19 13.0821V10.9105C18.791 10.8366 18.599 10.7166 18.4393 10.5569C18.158 10.2756 18 9.8941 18 9.49628V8.99628C18 8.73106 17.8946 8.47671 17.7071 8.28917C17.5196 8.10163 17.2652 7.99628 17 7.99628H16C15.4477 7.99628 15 7.54856 15 6.99628Z" fill="#1F2937"/>
<path fill-rule="evenodd" clip-rule="evenodd" d="M3.87868 6.87496C4.44129 6.31235 5.20435 5.99628 6 5.99628H8C8.55228 5.99628 9 6.44399 9 6.99628C9 7.54856 8.55228 7.99628 8 7.99628H6C5.73478 7.99628 5.48043 8.10163 5.29289 8.28917C5.10536 8.47671 5 8.73106 5 8.99628V14.9963C5 15.2615 5.10536 15.5158 5.29289 15.7034C5.48043 15.8909 5.73478 15.9963 6 15.9963H7C7.55228 15.9963 8 16.444 8 16.9963C8 17.5486 7.55228 17.9963 7 17.9963H6C5.20435 17.9963 4.44129 17.6802 3.87868 17.1176C3.31607 16.555 3 15.7919 3 14.9963V8.99628C3 8.20063 3.31607 7.43757 3.87868 6.87496Z" fill="#1F2937"/>
<path fill-rule="evenodd" clip-rule="evenodd" d="M12.4472 7.10933C12.9412 7.35632 13.1414 7.95699 12.8944 8.45097L11.618 11.0038H13C13.3466 11.0038 13.6684 11.1832 13.8507 11.478C14.0329 11.7728 14.0494 12.141 13.8944 12.451L11.8944 16.451C11.6474 16.945 11.0468 17.1452 10.5528 16.8982C10.0588 16.6512 9.85858 16.0505 10.1056 15.5565L11.382 13.0038H10C9.65342 13.0038 9.33156 12.8243 9.14935 12.5295C8.96714 12.2347 8.95058 11.8665 9.10557 11.5565L11.1056 7.55655C11.3526 7.06257 11.9532 6.86234 12.4472 7.10933Z" fill="#1F2937"/>
</svg>
