<svg width="24" height="24" viewBox="0 0 24 24" fill="none" xmlns="http://www.w3.org/2000/svg">
<path fill-rule="evenodd" clip-rule="evenodd" d="M3 5.99625C3.55228 5.99625 4 6.44396 4 6.99625V12.9962H10V7.99625C10 7.44396 10.4477 6.99625 11 6.99625H19C19.7957 6.99625 20.5587 7.31232 21.1213 7.87493C21.6839 8.43754 22 9.2006 22 9.99625V17.9962C22 18.5485 21.5523 18.9962 21 18.9962C20.4477 18.9962 20 18.5485 20 17.9962V14.9962H4V17.9962C4 18.5485 3.55228 18.9962 3 18.9962C2.44772 18.9962 2 18.5485 2 17.9962V6.99625C2 6.44396 2.44772 5.99625 3 5.99625ZM12 12.9962H20V9.99625C20 9.73103 19.8946 9.47668 19.7071 9.28914C19.5196 9.1016 19.2652 8.99625 19 8.99625H12V12.9962Z" fill="#1F2937"/>
<path fill-rule="evenodd" clip-rule="evenodd" d="M5 10C5 8.89543 5.89543 8 7 8C8.10457 8 9 8.89543 9 10C9 11.1046 8.10457 12 7 12C5.89543 12 5 11.1046 5 10Z" fill="#1F2937"/>
</svg>
