<svg width="24" height="24" viewBox="0 0 24 24" fill="none" xmlns="http://www.w3.org/2000/svg">
<path fill-rule="evenodd" clip-rule="evenodd" d="M5 16C3.89543 16 3 16.8954 3 18C3 19.1046 3.89543 20 5 20C6.10457 20 7 19.1046 7 18C7 16.8954 6.10457 16 5 16ZM1 18C1 15.7909 2.79086 14 5 14C7.20914 14 9 15.7909 9 18C9 20.2091 7.20914 22 5 22C2.79086 22 1 20.2091 1 18Z" fill="#1F2937"/>
<path fill-rule="evenodd" clip-rule="evenodd" d="M19 16C17.8954 16 17 16.8954 17 18C17 19.1046 17.8954 20 19 20C20.1046 20 21 19.1046 21 18C21 16.8954 20.1046 16 19 16ZM15 18C15 15.7909 16.7909 14 19 14C21.2091 14 23 15.7909 23 18C23 20.2091 21.2091 22 19 22C16.7909 22 15 20.2091 15 18Z" fill="#1F2937"/>
<path fill-rule="evenodd" clip-rule="evenodd" d="M14.1534 7.01557C14.4304 7.05857 14.6766 7.21582 14.8321 7.44903L16.5352 10.0037H19C19.5523 10.0037 20 10.4514 20 11.0037C20 11.556 19.5523 12.0037 19 12.0037H16C15.6656 12.0037 15.3534 11.8366 15.168 11.5584L13.773 9.46597L10.4971 12.0866L12.7071 14.2966C12.8946 14.4842 13 14.7385 13 15.0037V19.0037C13 19.556 12.5523 20.0037 12 20.0037C11.4477 20.0037 11 19.556 11 19.0037V15.4179L8.2929 12.7108C8.09176 12.5097 7.9858 12.2324 8.00153 11.9484C8.01726 11.6644 8.15319 11.4006 8.37531 11.2229L13.3753 7.22286C13.5942 7.04777 13.8765 6.97257 14.1534 7.01557Z" fill="#1F2937"/>
<path fill-rule="evenodd" clip-rule="evenodd" d="M15 4.99628C15 3.89171 15.8954 2.99628 17 2.99628C18.1046 2.99628 19 3.89171 19 4.99628C19 6.10085 18.1046 6.99628 17 6.99628C15.8954 6.99628 15 6.10085 15 4.99628Z" fill="#1F2937"/>
</svg>
