<svg width="16" height="16" viewBox="0 0 16 16" fill="none" xmlns="http://www.w3.org/2000/svg">
<path d="M9.99154 4.46842C9.94603 4.01067 9.7435 3.58041 9.41537 3.25228C9.08723 2.92415 8.65698 2.72161 8.19922 2.67611L8.0013 2.66634C7.47087 2.66634 6.96231 2.87721 6.58724 3.25228C6.21217 3.62735 6.0013 4.13591 6.0013 4.66634L6.01107 4.86426C6.05657 5.32202 6.25911 5.75227 6.58724 6.0804C6.96231 6.45548 7.47087 6.66634 8.0013 6.66634L8.19922 6.65658C8.65698 6.61107 9.08723 6.40854 9.41537 6.0804C9.79044 5.70533 10.0013 5.19677 10.0013 4.66634L9.99154 4.46842ZM11.3307 4.83171C11.2898 5.65556 10.9441 6.43708 10.3581 7.02311C9.77204 7.60915 8.99052 7.95488 8.16667 7.99577L8.0013 7.99967C7.11725 7.99967 6.26965 7.64823 5.64453 7.02311C5.0585 6.43708 4.71276 5.65556 4.67188 4.83171L4.66797 4.66634C4.66797 3.78229 5.01941 2.93469 5.64453 2.30957C6.26965 1.68445 7.11725 1.33301 8.0013 1.33301C8.88536 1.33301 9.73295 1.68445 10.3581 2.30957C10.9832 2.93469 11.3346 3.78229 11.3346 4.66634L11.3307 4.83171Z" fill="#1D4ED8"/>
<path d="M3.33398 13.9997V12.6663C3.33398 11.7823 3.68543 10.9347 4.31055 10.3096C4.93567 9.68445 5.78326 9.33301 6.66732 9.33301H9.33398C9.70217 9.33301 10.0007 9.63148 10.0007 9.99967C10.0007 10.3679 9.70217 10.6663 9.33398 10.6663H6.66732C6.13688 10.6663 5.62833 10.8772 5.25326 11.2523C4.87818 11.6274 4.66732 12.1359 4.66732 12.6663V13.9997C4.66732 14.3679 4.36884 14.6663 4.00065 14.6663C3.63246 14.6663 3.33398 14.3679 3.33398 13.9997Z" fill="#1D4ED8"/>
<path d="M13.5292 10.8623C13.7896 10.6019 14.2116 10.6019 14.472 10.8623C14.7323 11.1226 14.7323 11.5446 14.472 11.805L11.8053 14.4716C11.5449 14.732 11.1229 14.732 10.8626 14.4716L9.52925 13.1383C9.2689 12.8779 9.2689 12.4559 9.52925 12.1956C9.7896 11.9352 10.2116 11.9352 10.472 12.1956L11.3339 13.0576L13.5292 10.8623Z" fill="#1D4ED8"/>
</svg>
