<svg width="24" height="24" viewBox="0 0 24 24" fill="none" xmlns="http://www.w3.org/2000/svg">
<path fill-rule="evenodd" clip-rule="evenodd" d="M11.5282 3.1146C11.8534 2.94058 12.248 2.95966 12.5548 3.16423L18.5548 7.16423C18.833 7.34969 19.0001 7.66193 19.0001 7.99628C19.0001 8.33063 18.833 8.64286 18.5548 8.82833L13.8029 11.9963L18.5548 15.1642C18.833 15.3497 19.0001 15.6619 19.0001 15.9963C19.0001 16.3306 18.833 16.6429 18.5548 16.8283L12.5548 20.8283C12.248 21.0329 11.8534 21.052 11.5282 20.878C11.2031 20.7039 11.0001 20.3651 11.0001 19.9963V13.8648L6.55481 16.8283C6.09528 17.1347 5.47441 17.0105 5.16806 16.551C4.8617 16.0914 4.98588 15.4706 5.44541 15.1642L10.1973 11.9963L5.44541 8.82833C4.98588 8.52198 4.8617 7.90111 5.16806 7.44158C5.47441 6.98205 6.09528 6.85788 6.55481 7.16423L11.0001 10.1278V3.99628C11.0001 3.62748 11.2031 3.28862 11.5282 3.1146ZM13.0001 13.8648L16.1973 15.9963L13.0001 18.1278V13.8648ZM13.0001 10.1278V5.8648L16.1973 7.99628L13.0001 10.1278Z" fill="#1F2937"/>
</svg>
