<svg width="24" height="24" viewBox="0 0 24 24" fill="none" xmlns="http://www.w3.org/2000/svg">
<path fill-rule="evenodd" clip-rule="evenodd" d="M6 5.00378C6 4.4515 6.44772 4.00378 7 4.00378H13C14.1935 4.00378 15.3381 4.47789 16.182 5.3218C17.0259 6.16572 17.5 7.31031 17.5 8.50378C17.5 9.69726 17.0259 10.8419 16.182 11.6858C15.3381 12.5297 14.1935 13.0038 13 13.0038H7C6.44772 13.0038 6 12.5561 6 12.0038V5.00378ZM8 6.00378V11.0038H13C13.663 11.0038 14.2989 10.7404 14.7678 10.2716C15.2366 9.80271 15.5 9.16683 15.5 8.50378C15.5 7.84074 15.2366 7.20486 14.7678 6.73602C14.2989 6.26718 13.663 6.00378 13 6.00378H8Z" fill="#1F2937"/>
<path fill-rule="evenodd" clip-rule="evenodd" d="M7 11C7.55228 11 8 11.4477 8 12V18H14C14.663 18 15.2989 17.7366 15.7678 17.2678C16.2366 16.7989 16.5 16.163 16.5 15.5C16.5 14.837 16.2366 14.2011 15.7678 13.7322C15.2989 13.2634 14.663 13 14 13H13C12.4477 13 12 12.5523 12 12C12 11.4477 12.4477 11 13 11H14C15.1935 11 16.3381 11.4741 17.182 12.318C18.0259 13.1619 18.5 14.3065 18.5 15.5C18.5 16.6935 18.0259 17.8381 17.182 18.682C16.3381 19.5259 15.1935 20 14 20H7C6.44772 20 6 19.5523 6 19V12C6 11.4477 6.44772 11 7 11Z" fill="#1F2937"/>
</svg>
