<svg width="24" height="24" viewBox="0 0 24 24" fill="none" xmlns="http://www.w3.org/2000/svg">
<path fill-rule="evenodd" clip-rule="evenodd" d="M13.3092 2.04902C13.7212 2.18297 14 2.56687 14 3.00001V9.00001H19C19.3761 9.00001 19.7204 9.21106 19.8911 9.54623C20.0618 9.8814 20.03 10.284 19.8087 10.5882L11.8087 21.5882C11.554 21.9385 11.1027 22.0849 10.6908 21.951C10.2789 21.817 10 21.4331 10 21V15H5C4.62388 15 4.27957 14.789 4.10889 14.4538C3.93821 14.1186 3.97004 13.716 4.19127 13.4118L12.1913 2.41184C12.446 2.06154 12.8973 1.91508 13.3092 2.04902ZM6.96377 13H11C11.5523 13 12 13.4477 12 14V17.9248L17.0362 11H13C12.4477 11 12 10.5523 12 10V6.07519L6.96377 13Z" fill="#1F2937"/>
</svg>
