<svg width="24" height="24" viewBox="0 0 24 24" fill="none" xmlns="http://www.w3.org/2000/svg">
<path fill-rule="evenodd" clip-rule="evenodd" d="M9 4.99628C8.73478 4.99628 8.48043 5.10163 8.29289 5.28917C8.10536 5.47671 8 5.73106 8 5.99628V18.2301L11.4855 16.1388C11.8022 15.9488 12.1978 15.9488 12.5145 16.1388L16 18.2301V5.99628C16 5.73106 15.8946 5.47671 15.7071 5.28917C15.5196 5.10163 15.2652 4.99628 15 4.99628H9ZM6.87868 3.87496C7.44129 3.31235 8.20435 2.99628 9 2.99628H15C15.7956 2.99628 16.5587 3.31235 17.1213 3.87496C17.6839 4.43757 18 5.20063 18 5.99628V19.9963C18 20.3565 17.8062 20.689 17.4927 20.8665C17.1792 21.044 16.7944 21.0391 16.4855 20.8538L12 18.1625L7.5145 20.8538C7.20556 21.0391 6.82081 21.044 6.5073 20.8665C6.19379 20.689 6 20.3565 6 19.9963V5.99628C6 5.20063 6.31607 4.43757 6.87868 3.87496Z" fill="#1F2937"/>
</svg>
