<svg width="24" height="24" viewBox="0 0 24 24" fill="none" xmlns="http://www.w3.org/2000/svg">
<path fill-rule="evenodd" clip-rule="evenodd" d="M7.50017 18.7891C6.09587 18.7891 4.71632 19.1587 3.50017 19.8609C3.02187 20.137 2.41028 19.9731 2.13414 19.4948C1.858 19.0165 2.02187 18.4049 2.50017 18.1288C4.02036 17.2511 5.7448 16.7891 7.50017 16.7891C9.06576 16.7891 10.6067 17.1566 12.0002 17.8588C13.3936 17.1566 14.9346 16.7891 16.5002 16.7891C18.2555 16.7891 19.98 17.2511 21.5002 18.1288C21.9785 18.4049 22.1423 19.0165 21.8662 19.4948C21.5901 19.9731 20.9785 20.137 20.5002 19.8609C19.284 19.1587 17.9045 18.7891 16.5002 18.7891C15.0959 18.7891 13.7163 19.1587 12.5002 19.8609C12.1908 20.0395 11.8096 20.0395 11.5002 19.8609C10.284 19.1587 8.90446 18.7891 7.50017 18.7891Z" fill="#1F2937"/>
<path fill-rule="evenodd" clip-rule="evenodd" d="M7.50017 5.79285C6.09587 5.79285 4.71632 6.1625 3.50017 6.86464C3.02187 7.14079 2.41028 6.97691 2.13414 6.49862C1.858 6.02033 2.02187 5.40874 2.50017 5.13259C4.02036 4.25491 5.7448 3.79285 7.50017 3.79285C9.06576 3.79285 10.6067 4.1604 12.0002 4.86256C13.3936 4.1604 14.9346 3.79285 16.5002 3.79285C18.2555 3.79285 19.98 4.25491 21.5002 5.13259C21.9785 5.40874 22.1423 6.02033 21.8662 6.49862C21.5901 6.97691 20.9785 7.14079 20.5002 6.86464C19.284 6.1625 17.9045 5.79285 16.5002 5.79285C15.0959 5.79285 13.7163 6.1625 12.5002 6.86464C12.1908 7.04328 11.8096 7.04328 11.5002 6.86464C10.284 6.1625 8.90446 5.79285 7.50017 5.79285Z" fill="#1F2937"/>
<path fill-rule="evenodd" clip-rule="evenodd" d="M3 5C3.55228 5 4 5.44772 4 6V19C4 19.5523 3.55228 20 3 20C2.44772 20 2 19.5523 2 19V6C2 5.44772 2.44772 5 3 5Z" fill="#1F2937"/>
<path fill-rule="evenodd" clip-rule="evenodd" d="M12 5C12.5523 5 13 5.44772 13 6V19C13 19.5523 12.5523 20 12 20C11.4477 20 11 19.5523 11 19V6C11 5.44772 11.4477 5 12 5Z" fill="#1F2937"/>
<path fill-rule="evenodd" clip-rule="evenodd" d="M21 5C21.5523 5 22 5.44772 22 6V19C22 19.5523 21.5523 20 21 20C20.4477 20 20 19.5523 20 19V6C20 5.44772 20.4477 5 21 5Z" fill="#1F2937"/>
</svg>
