<svg width="24" height="24" viewBox="0 0 24 24" fill="none" xmlns="http://www.w3.org/2000/svg">
<path fill-rule="evenodd" clip-rule="evenodd" d="M15.0098 3.99622C15.0098 3.44393 15.4575 2.99622 16.0098 2.99622H16.0103C16.5626 2.99622 17.0103 3.44393 17.0103 3.99622C17.0103 4.5485 16.5626 4.99622 16.0103 4.99622H16.0098C15.4575 4.99622 15.0098 4.5485 15.0098 3.99622ZM19.0093 3.99622C19.0093 3.44393 19.457 2.99622 20.0093 2.99622H20.0098C20.562 2.99622 21.0098 3.44393 21.0098 3.99622V3.99671C21.0098 4.549 20.562 4.99671 20.0098 4.99671C19.7346 4.99671 19.4853 4.88556 19.3045 4.70569C19.1222 4.52454 19.0093 4.27356 19.0093 3.99622ZM20.0098 6.99571C20.562 6.99571 21.0098 7.44343 21.0098 7.99572V7.99671C21.0098 8.549 20.562 8.99671 20.0098 8.99671C19.4575 8.99671 19.0098 8.549 19.0098 7.99671V7.99572C19.0098 7.44343 19.4575 6.99571 20.0098 6.99571ZM20.0098 10.9957C20.562 10.9957 21.0098 11.4434 21.0098 11.9957V11.9967C21.0098 12.549 20.562 12.9967 20.0098 12.9967C19.4575 12.9967 19.0098 12.549 19.0098 11.9967V11.9957C19.0098 11.4434 19.4575 10.9957 20.0098 10.9957ZM4.00977 14.9862C4.56205 14.9862 5.00977 15.4339 5.00977 15.9862V15.9867C5.00977 16.539 4.56205 16.9867 4.00977 16.9867C3.45748 16.9867 3.00977 16.539 3.00977 15.9867V15.9862C3.00977 15.4339 3.45748 14.9862 4.00977 14.9862ZM20.0098 14.9957C20.562 14.9957 21.0098 15.4434 21.0098 15.9957V15.9967C21.0098 16.549 20.562 16.9967 20.0098 16.9967C19.4575 16.9967 19.0098 16.549 19.0098 15.9967V15.9957C19.0098 15.4434 19.4575 14.9957 20.0098 14.9957ZM4.71924 19.291C4.53809 19.1086 4.28711 18.9957 4.00977 18.9957C3.45748 18.9957 3.00977 19.4434 3.00977 19.9957V19.9962C3.00977 20.5485 3.45748 20.9962 4.00977 20.9962H4.01027C4.56255 20.9962 5.01027 20.5485 5.01027 19.9962C5.01027 19.721 4.89911 19.4718 4.71924 19.291ZM20.0098 18.9957C20.562 18.9957 21.0098 19.4434 21.0098 19.9957V19.9962C21.0098 20.5485 20.562 20.9962 20.0098 20.9962H20.0093C19.457 20.9962 19.0093 20.5485 19.0093 19.9962C19.0093 19.7199 19.1213 19.4698 19.3024 19.2889C19.4834 19.1077 19.7335 18.9957 20.0098 18.9957ZM7.00927 19.9962C7.00927 19.4439 7.45698 18.9962 8.00927 18.9962H8.01027C8.56255 18.9962 9.01027 19.4439 9.01027 19.9962C9.01027 20.5485 8.56255 20.9962 8.01027 20.9962H8.00927C7.45698 20.9962 7.00927 20.5485 7.00927 19.9962ZM11.0093 19.9962C11.0093 19.4439 11.457 18.9962 12.0093 18.9962H12.0103C12.5626 18.9962 13.0103 19.4439 13.0103 19.9962C13.0103 20.5485 12.5626 20.9962 12.0103 20.9962H12.0093C11.457 20.9962 11.0093 20.5485 11.0093 19.9962ZM15.0093 19.9962C15.0093 19.4439 15.457 18.9962 16.0093 18.9962H16.0103C16.5626 18.9962 17.0103 19.4439 17.0103 19.9962C17.0103 20.5485 16.5626 20.9962 16.0103 20.9962H16.0093C15.457 20.9962 15.0093 20.5485 15.0093 19.9962Z" fill="#1F2937"/>
<path fill-rule="evenodd" clip-rule="evenodd" d="M8 4.99622C7.20435 4.99622 6.44129 5.31229 5.87868 5.8749C5.31607 6.4375 5 7.20057 5 7.99622V11.9962C5 12.5485 4.55228 12.9962 4 12.9962C3.44772 12.9962 3 12.5485 3 11.9962V7.99622C3 6.67013 3.52678 5.39836 4.46447 4.46068C5.40215 3.523 6.67392 2.99622 8 2.99622H12C12.5523 2.99622 13 3.44393 13 3.99622C13 4.5485 12.5523 4.99622 12 4.99622H8Z" fill="#1F2937"/>
</svg>
