<svg width="24" height="24" viewBox="0 0 24 24" fill="none" xmlns="http://www.w3.org/2000/svg">
<path fill-rule="evenodd" clip-rule="evenodd" d="M6 4.99622C5.44772 4.99622 5 5.44393 5 5.99622V17.9962C5 18.5485 5.44772 18.9962 6 18.9962H18C18.5523 18.9962 19 18.5485 19 17.9962V5.99622C19 5.44393 18.5523 4.99622 18 4.99622H6ZM3 5.99622C3 4.33936 4.34315 2.99622 6 2.99622H18C19.6569 2.99622 21 4.33936 21 5.99622V17.9962C21 19.6531 19.6569 20.9962 18 20.9962H6C4.34315 20.9962 3 19.6531 3 17.9962V5.99622Z" fill="#1F2937"/>
<path fill-rule="evenodd" clip-rule="evenodd" d="M3 12C3 11.4477 3.44772 11 4 11H20C20.5523 11 21 11.4477 21 12C21 12.5523 20.5523 13 20 13H4C3.44772 13 3 12.5523 3 12Z" fill="#1F2937"/>
<path fill-rule="evenodd" clip-rule="evenodd" d="M12 2.99622C12.5523 2.99622 13 3.44393 13 3.99622V19.9962C13 20.5485 12.5523 20.9962 12 20.9962C11.4477 20.9962 11 20.5485 11 19.9962V3.99622C11 3.44393 11.4477 2.99622 12 2.99622Z" fill="#1F2937"/>
</svg>
