<svg width="24" height="24" viewBox="0 0 24 24" fill="none" xmlns="http://www.w3.org/2000/svg">
<path fill-rule="evenodd" clip-rule="evenodd" d="M6 4.99622C5.44772 4.99622 5 5.44393 5 5.99622V17.9962C5 18.5485 5.44772 18.9962 6 18.9962H18C18.5523 18.9962 19 18.5485 19 17.9962V5.99622C19 5.44393 18.5523 4.99622 18 4.99622H6ZM3 5.99622C3 4.33936 4.34315 2.99622 6 2.99622H18C19.6569 2.99622 21 4.33936 21 5.99622V17.9962C21 19.6531 19.6569 20.9962 18 20.9962H6C4.34315 20.9962 3 19.6531 3 17.9962V5.99622Z" fill="#1F2937"/>
<path fill-rule="evenodd" clip-rule="evenodd" d="M3 12C3 11.4477 3.44772 11 4 11H4.0005C4.55278 11 5.0005 11.4477 5.0005 12C5.0005 12.5523 4.55278 13 4.0005 13H4C3.44772 13 3 12.5523 3 12ZM6.9995 12C6.9995 11.4477 7.44722 11 7.9995 11H8.0005C8.55278 11 9.0005 11.4477 9.0005 12C9.0005 12.5523 8.55278 13 8.0005 13H7.9995C7.44722 13 6.9995 12.5523 6.9995 12ZM10.9995 12C10.9995 11.4477 11.4472 11 11.9995 11H12.0005C12.5528 11 13.0005 11.4477 13.0005 12C13.0005 12.5523 12.5528 13 12.0005 13H11.9995C11.4472 13 10.9995 12.5523 10.9995 12ZM14.9995 12C14.9995 11.4477 15.4472 11 15.9995 11H16.0005C16.5528 11 17.0005 11.4477 17.0005 12C17.0005 12.5523 16.5528 13 16.0005 13H15.9995C15.4472 13 14.9995 12.5523 14.9995 12ZM18.9995 12C18.9995 11.4477 19.4472 11 19.9995 11H20C20.5523 11 21 11.4477 21 12C21 12.5523 20.5523 13 20 13H19.9995C19.4472 13 18.9995 12.5523 18.9995 12Z" fill="#1F2937"/>
<path fill-rule="evenodd" clip-rule="evenodd" d="M12 2.99622C12.5523 2.99622 13 3.44393 13 3.99622V3.99672C13 4.549 12.5523 4.99672 12 4.99672C11.4477 4.99672 11 4.549 11 3.99672V3.99622C11 3.44393 11.4477 2.99622 12 2.99622ZM12 6.99572C12.5523 6.99572 13 7.44343 13 7.99572V7.99672C13 8.549 12.5523 8.99672 12 8.99672C11.4477 8.99672 11 8.549 11 7.99672V7.99572C11 7.44343 11.4477 6.99572 12 6.99572ZM12 10.9957C12.5523 10.9957 13 11.4434 13 11.9957V11.9967C13 12.549 12.5523 12.9967 12 12.9967C11.4477 12.9967 11 12.549 11 11.9967V11.9957C11 11.4434 11.4477 10.9957 12 10.9957ZM12 14.9957C12.5523 14.9957 13 15.4434 13 15.9957V15.9967C13 16.549 12.5523 16.9967 12 16.9967C11.4477 16.9967 11 16.549 11 15.9967V15.9957C11 15.4434 11.4477 14.9957 12 14.9957ZM12 18.9957C12.5523 18.9957 13 19.4434 13 19.9957V19.9962C13 20.5485 12.5523 20.9962 12 20.9962C11.4477 20.9962 11 20.5485 11 19.9962V19.9957C11 19.4434 11.4477 18.9957 12 18.9957Z" fill="#1F2937"/>
</svg>
