<svg width="24" height="24" viewBox="0 0 24 24" fill="none" xmlns="http://www.w3.org/2000/svg">
<path fill-rule="evenodd" clip-rule="evenodd" d="M3 3.99622C3 3.44393 3.44772 2.99622 4 2.99622H20C20.5523 2.99622 21 3.44393 21 3.99622C21 4.5485 20.5523 4.99622 20 4.99622H4C3.44772 4.99622 3 4.5485 3 3.99622Z" fill="#1F2937"/>
<path fill-rule="evenodd" clip-rule="evenodd" d="M20 2.99622C20.5523 2.99622 21 3.44393 21 3.99622V3.99672C21 4.549 20.5523 4.99672 20 4.99672C19.4477 4.99672 19 4.549 19 3.99672V3.99622C19 3.44393 19.4477 2.99622 20 2.99622ZM20 6.99572C20.5523 6.99572 21 7.44343 21 7.99572V7.99672C21 8.549 20.5523 8.99672 20 8.99672C19.4477 8.99672 19 8.549 19 7.99672V7.99572C19 7.44343 19.4477 6.99572 20 6.99572ZM20 10.9957C20.5523 10.9957 21 11.4434 21 11.9957V11.9967C21 12.549 20.5523 12.9967 20 12.9967C19.4477 12.9967 19 12.549 19 11.9967V11.9957C19 11.4434 19.4477 10.9957 20 10.9957ZM20 14.9957C20.5523 14.9957 21 15.4434 21 15.9957V15.9967C21 16.549 20.5523 16.9967 20 16.9967C19.4477 16.9967 19 16.549 19 15.9967V15.9957C19 15.4434 19.4477 14.9957 20 14.9957ZM20 18.9957C20.5523 18.9957 21 19.4434 21 19.9957V19.9962C21 20.5485 20.5523 20.9962 20 20.9962C19.4477 20.9962 19 20.5485 19 19.9962V19.9957C19 19.4434 19.4477 18.9957 20 18.9957Z" fill="#1F2937"/>
<path fill-rule="evenodd" clip-rule="evenodd" d="M3 19.9924C3 19.4401 3.44772 18.9924 4 18.9924H4.0005C4.55278 18.9924 5.0005 19.4401 5.0005 19.9924C5.0005 20.5447 4.55278 20.9924 4.0005 20.9924H4C3.44772 20.9924 3 20.5447 3 19.9924ZM6.9995 19.9924C6.9995 19.4401 7.44722 18.9924 7.9995 18.9924H8.0005C8.55278 18.9924 9.0005 19.4401 9.0005 19.9924C9.0005 20.5447 8.55278 20.9924 8.0005 20.9924H7.9995C7.44722 20.9924 6.9995 20.5447 6.9995 19.9924ZM10.9995 19.9924C10.9995 19.4401 11.4472 18.9924 11.9995 18.9924H12.0005C12.5528 18.9924 13.0005 19.4401 13.0005 19.9924C13.0005 20.5447 12.5528 20.9924 12.0005 20.9924H11.9995C11.4472 20.9924 10.9995 20.5447 10.9995 19.9924ZM14.9995 19.9924C14.9995 19.4401 15.4472 18.9924 15.9995 18.9924H16.0005C16.5528 18.9924 17.0005 19.4401 17.0005 19.9924C17.0005 20.5447 16.5528 20.9924 16.0005 20.9924H15.9995C15.4472 20.9924 14.9995 20.5447 14.9995 19.9924ZM18.9995 19.9924C18.9995 19.4401 19.4472 18.9924 19.9995 18.9924H20C20.5523 18.9924 21 19.4401 21 19.9924C21 20.5447 20.5523 20.9924 20 20.9924H19.9995C19.4472 20.9924 18.9995 20.5447 18.9995 19.9924Z" fill="#1F2937"/>
<path fill-rule="evenodd" clip-rule="evenodd" d="M4 2.99622C4.55228 2.99622 5 3.44393 5 3.99622V3.99672C5 4.549 4.55228 4.99672 4 4.99672C3.44772 4.99672 3 4.549 3 3.99672V3.99622C3 3.44393 3.44772 2.99622 4 2.99622ZM4 6.99572C4.55228 6.99572 5 7.44343 5 7.99572V7.99672C5 8.549 4.55228 8.99672 4 8.99672C3.44772 8.99672 3 8.549 3 7.99672V7.99572C3 7.44343 3.44772 6.99572 4 6.99572ZM4 10.9957C4.55228 10.9957 5 11.4434 5 11.9957V11.9967C5 12.549 4.55228 12.9967 4 12.9967C3.44772 12.9967 3 12.549 3 11.9967V11.9957C3 11.4434 3.44772 10.9957 4 10.9957ZM4 14.9957C4.55228 14.9957 5 15.4434 5 15.9957V15.9967C5 16.549 4.55228 16.9967 4 16.9967C3.44772 16.9967 3 16.549 3 15.9967V15.9957C3 15.4434 3.44772 14.9957 4 14.9957ZM4 18.9957C4.55228 18.9957 5 19.4434 5 19.9957V19.9962C5 20.5485 4.55228 20.9962 4 20.9962C3.44772 20.9962 3 20.5485 3 19.9962V19.9957C3 19.4434 3.44772 18.9957 4 18.9957Z" fill="#1F2937"/>
<path fill-rule="evenodd" clip-rule="evenodd" d="M3 12C3 11.4477 3.44772 11 4 11H4.0005C4.55278 11 5.0005 11.4477 5.0005 12C5.0005 12.5523 4.55278 13 4.0005 13H4C3.44772 13 3 12.5523 3 12ZM6.9995 12C6.9995 11.4477 7.44722 11 7.9995 11H8.0005C8.55278 11 9.0005 11.4477 9.0005 12C9.0005 12.5523 8.55278 13 8.0005 13H7.9995C7.44722 13 6.9995 12.5523 6.9995 12ZM10.9995 12C10.9995 11.4477 11.4472 11 11.9995 11H12.0005C12.5528 11 13.0005 11.4477 13.0005 12C13.0005 12.5523 12.5528 13 12.0005 13H11.9995C11.4472 13 10.9995 12.5523 10.9995 12ZM14.9995 12C14.9995 11.4477 15.4472 11 15.9995 11H16.0005C16.5528 11 17.0005 11.4477 17.0005 12C17.0005 12.5523 16.5528 13 16.0005 13H15.9995C15.4472 13 14.9995 12.5523 14.9995 12ZM18.9995 12C18.9995 11.4477 19.4472 11 19.9995 11H20C20.5523 11 21 11.4477 21 12C21 12.5523 20.5523 13 20 13H19.9995C19.4472 13 18.9995 12.5523 18.9995 12Z" fill="#1F2937"/>
<path fill-rule="evenodd" clip-rule="evenodd" d="M12 2.99622C12.5523 2.99622 13 3.44393 13 3.99622V3.99672C13 4.549 12.5523 4.99672 12 4.99672C11.4477 4.99672 11 4.549 11 3.99672V3.99622C11 3.44393 11.4477 2.99622 12 2.99622ZM12 6.99572C12.5523 6.99572 13 7.44343 13 7.99572V7.99672C13 8.549 12.5523 8.99672 12 8.99672C11.4477 8.99672 11 8.549 11 7.99672V7.99572C11 7.44343 11.4477 6.99572 12 6.99572ZM12 10.9957C12.5523 10.9957 13 11.4434 13 11.9957V11.9967C13 12.549 12.5523 12.9967 12 12.9967C11.4477 12.9967 11 12.549 11 11.9967V11.9957C11 11.4434 11.4477 10.9957 12 10.9957ZM12 14.9957C12.5523 14.9957 13 15.4434 13 15.9957V15.9967C13 16.549 12.5523 16.9967 12 16.9967C11.4477 16.9967 11 16.549 11 15.9967V15.9957C11 15.4434 11.4477 14.9957 12 14.9957ZM12 18.9957C12.5523 18.9957 13 19.4434 13 19.9957V19.9962C13 20.5485 12.5523 20.9962 12 20.9962C11.4477 20.9962 11 20.5485 11 19.9962V19.9957C11 19.4434 11.4477 18.9957 12 18.9957Z" fill="#1F2937"/>
</svg>
