<svg width="24" height="24" viewBox="0 0 24 24" fill="none" xmlns="http://www.w3.org/2000/svg">
<path fill-rule="evenodd" clip-rule="evenodd" d="M11.5097 2.12842C11.8142 1.95719 12.1858 1.95719 12.4903 2.12842L20.4903 6.62842C20.8051 6.80554 21 7.13873 21 7.5V16.5C21 16.8613 20.8051 17.1945 20.4903 17.3716L12.4903 21.8716C12.1858 22.0428 11.8142 22.0428 11.5097 21.8716L3.50974 17.3716C3.19486 17.1945 3 16.8613 3 16.5V7.5C3 7.13873 3.19486 6.80554 3.50974 6.62842L11.5097 2.12842ZM5 8.08485V15.9152L12 19.8527L19 15.9152V8.08485L12 4.14735L5 8.08485Z" fill="#1F2937"/>
<path fill-rule="evenodd" clip-rule="evenodd" d="M20.8718 7.00973C21.1425 7.49109 20.9718 8.10081 20.4904 8.37157L12.4904 12.8716C12.0091 13.1423 11.3994 12.9716 11.1286 12.4903C10.8578 12.0089 11.0286 11.3992 11.5099 11.1284L19.5099 6.62842C19.9913 6.35765 20.601 6.52838 20.8718 7.00973Z" fill="#1F2937"/>
<path fill-rule="evenodd" clip-rule="evenodd" d="M12 11C12.5523 11 13 11.4477 13 12V21C13 21.5523 12.5523 22 12 22C11.4477 22 11 21.5523 11 21V12C11 11.4477 11.4477 11 12 11Z" fill="#1F2937"/>
<path fill-rule="evenodd" clip-rule="evenodd" d="M3.1286 7.00973C3.39937 6.52838 4.00908 6.35765 4.49044 6.62842L12.4904 11.1284C12.9718 11.3992 13.1425 12.0089 12.8718 12.4903C12.601 12.9716 11.9913 13.1423 11.5099 12.8716L3.50992 8.37157C3.02856 8.10081 2.85784 7.49109 3.1286 7.00973Z" fill="#1F2937"/>
</svg>
