<svg xmlns="http://www.w3.org/2000/svg" width="18" height="18" viewBox="0 0 18 18" fill="none">
  <path fill-rule="evenodd" clip-rule="evenodd" d="M6.01643 2.90706C6.43839 2.4851 7.01069 2.24805 7.60742 2.24805C8.02164 2.24805 8.35742 2.58383 8.35742 2.99805C8.35742 3.41226 8.02164 3.74805 7.60742 3.74805C7.40851 3.74805 7.21774 3.82706 7.07709 3.96772C6.93644 4.10837 6.85742 4.29913 6.85742 4.49805V6.74805C6.85742 7.46614 6.66922 8.18941 6.29212 8.75506C6.23585 8.83947 6.17485 8.92078 6.10941 8.99805C6.17485 9.07531 6.23585 9.15662 6.29212 9.24103C6.66922 9.80668 6.85742 10.53 6.85742 11.248V13.498C6.85742 13.697 6.93644 13.8877 7.07709 14.0284C7.21774 14.169 7.40851 14.248 7.60742 14.248C8.02164 14.248 8.35742 14.5838 8.35742 14.998C8.35742 15.4123 8.02164 15.748 7.60742 15.748C7.01068 15.748 6.43839 15.511 6.01643 15.089C5.59448 14.6671 5.35742 14.0948 5.35742 13.498V11.248C5.35742 10.7727 5.22955 10.3513 5.04404 10.0731C4.85881 9.79522 4.68573 9.74805 4.60742 9.74805C4.19321 9.74805 3.85742 9.41226 3.85742 8.99805C3.85742 8.58383 4.19321 8.24805 4.60742 8.24805C4.68573 8.24805 4.85881 8.20087 5.04404 7.92301C5.22955 7.64475 5.35742 7.22343 5.35742 6.74805V4.49805C5.35742 3.90131 5.59447 3.32901 6.01643 2.90706Z" fill="#6B7280"/>
  <path fill-rule="evenodd" clip-rule="evenodd" d="M2.37288 2.90706C2.79483 2.4851 3.36713 2.24805 3.96387 2.24805C4.37808 2.24805 4.71387 2.58383 4.71387 2.99805C4.71387 3.41226 4.37808 3.74805 3.96387 3.74805C3.76496 3.74805 3.57419 3.82706 3.43354 3.96772C3.29289 4.10837 3.21387 4.29913 3.21387 4.49805V6.74805C3.21387 7.46614 3.02567 8.18941 2.64857 8.75506C2.59229 8.83947 2.5313 8.92078 2.46585 8.99805C2.5313 9.07531 2.59229 9.15662 2.64857 9.24103C3.02567 9.80668 3.21387 10.53 3.21387 11.248V13.498C3.21387 13.697 3.29289 13.8877 3.43354 14.0284C3.57419 14.169 3.76496 14.248 3.96387 14.248C4.37808 14.248 4.71387 14.5838 4.71387 14.998C4.71387 15.4123 4.37808 15.748 3.96387 15.748C3.36713 15.748 2.79483 15.511 2.37288 15.089C1.95092 14.6671 1.71387 14.0948 1.71387 13.498V11.248C1.71387 10.7727 1.586 10.3513 1.40049 10.0731C1.21525 9.79522 1.04218 9.74805 0.963867 9.74805C0.549654 9.74805 0.213867 9.41226 0.213867 8.99805C0.213867 8.58383 0.549654 8.24805 0.963867 8.24805C1.04218 8.24805 1.21525 8.20087 1.40049 7.92301C1.586 7.64475 1.71387 7.22343 1.71387 6.74805V4.49805C1.71387 3.90131 1.95092 3.32901 2.37288 2.90706Z" fill="#6B7280"/>
  <path fill-rule="evenodd" clip-rule="evenodd" d="M9.84863 2.99805C9.84863 2.58383 10.1844 2.24805 10.5986 2.24805C11.1954 2.24805 11.7677 2.4851 12.1896 2.90706C12.6116 3.32901 12.8486 3.90131 12.8486 4.49805V6.74805C12.8486 7.22343 12.9765 7.64475 13.162 7.92301C13.3472 8.20087 13.5203 8.24805 13.5986 8.24805C14.0128 8.24805 14.3486 8.58383 14.3486 8.99805C14.3486 9.41226 14.0128 9.74805 13.5986 9.74805C13.5203 9.74805 13.3472 9.79522 13.162 10.0731C12.9765 10.3513 12.8486 10.7727 12.8486 11.248V13.498C12.8486 14.0948 12.6116 14.6671 12.1896 15.089C11.7677 15.511 11.1954 15.748 10.5986 15.748C10.1844 15.748 9.84863 15.4123 9.84863 14.998C9.84863 14.5838 10.1844 14.248 10.5986 14.248C10.7975 14.248 10.9883 14.169 11.129 14.0284C11.2696 13.8877 11.3486 13.697 11.3486 13.498V11.248C11.3486 10.53 11.5368 9.80668 11.9139 9.24103C11.9702 9.15662 12.0312 9.07531 12.0966 8.99805C12.0312 8.92078 11.9702 8.83947 11.9139 8.75506C11.5368 8.18941 11.3486 7.46614 11.3486 6.74805V4.49805C11.3486 4.29913 11.2696 4.10837 11.129 3.96772C10.9883 3.82706 10.7975 3.74805 10.5986 3.74805C10.1844 3.74805 9.84863 3.41226 9.84863 2.99805Z" fill="#6B7280"/>
  <path fill-rule="evenodd" clip-rule="evenodd" d="M13.2861 2.99805C13.2861 2.58383 13.6219 2.24805 14.0361 2.24805C14.6329 2.24805 15.2052 2.4851 15.6271 2.90706C16.0491 3.32901 16.2861 3.90131 16.2861 4.49805V6.74805C16.2861 7.22343 16.414 7.64475 16.5995 7.92301C16.7847 8.20087 16.9578 8.24805 17.0361 8.24805C17.4503 8.24805 17.7861 8.58383 17.7861 8.99805C17.7861 9.41226 17.4503 9.74805 17.0361 9.74805C16.9578 9.74805 16.7847 9.79522 16.5995 10.0731C16.414 10.3513 16.2861 10.7727 16.2861 11.248V13.498C16.2861 14.0948 16.0491 14.6671 15.6271 15.089C15.2052 15.511 14.6329 15.748 14.0361 15.748C13.6219 15.748 13.2861 15.4123 13.2861 14.998C13.2861 14.5838 13.6219 14.248 14.0361 14.248C14.235 14.248 14.4258 14.169 14.5665 14.0284C14.7071 13.8877 14.7861 13.697 14.7861 13.498V11.248C14.7861 10.53 14.9743 9.80668 15.3514 9.24103C15.4077 9.15662 15.4687 9.07531 15.5341 8.99805C15.4687 8.92078 15.4077 8.83947 15.3514 8.75506C14.9743 8.18941 14.7861 7.46614 14.7861 6.74805V4.49805C14.7861 4.29913 14.7071 4.10837 14.5665 3.96772C14.4258 3.82706 14.235 3.74805 14.0361 3.74805C13.6219 3.74805 13.2861 3.41226 13.2861 2.99805Z" fill="#6B7280"/>
</svg>