<svg width="24" height="24" viewBox="0 0 24 24" fill="none" xmlns="http://www.w3.org/2000/svg">
<path fill-rule="evenodd" clip-rule="evenodd" d="M4.87868 3.8749C5.44129 3.31229 6.20435 2.99622 7 2.99622C7.55228 2.99622 8 3.44393 8 3.99622C8 4.5485 7.55228 4.99622 7 4.99622C6.73478 4.99622 6.48043 5.10157 6.29289 5.28911C6.10536 5.47664 6 5.731 6 5.99622V8.99622C6 9.95367 5.74907 10.918 5.24626 11.6722C5.17124 11.7848 5.0899 11.8932 5.00265 11.9962C5.0899 12.0992 5.17124 12.2077 5.24626 12.3202C5.74907 13.0744 6 14.0388 6 14.9962V17.9962C6 18.2614 6.10536 18.5158 6.29289 18.7033C6.48043 18.8909 6.73478 18.9962 7 18.9962C7.55228 18.9962 8 19.4439 8 19.9962C8 20.5485 7.55228 20.9962 7 20.9962C6.20435 20.9962 5.44129 20.6801 4.87868 20.1175C4.31607 19.5549 4 18.7919 4 17.9962V14.9962C4 14.3624 3.82951 13.8006 3.58216 13.4296C3.33518 13.0591 3.10441 12.9962 3 12.9962C2.44772 12.9962 2 12.5485 2 11.9962C2 11.4439 2.44772 10.9962 3 10.9962C3.10441 10.9962 3.33518 10.9333 3.58216 10.5628C3.82951 10.1918 4 9.63006 4 8.99622V5.99622C4 5.20057 4.31607 4.4375 4.87868 3.8749Z" fill="#1F2937"/>
<path fill-rule="evenodd" clip-rule="evenodd" d="M16 3.99622C16 3.44393 16.4477 2.99622 17 2.99622C17.7956 2.99622 18.5587 3.31229 19.1213 3.8749C19.6839 4.4375 20 5.20057 20 5.99622V8.99622C20 9.63006 20.1705 10.1918 20.4178 10.5628C20.6648 10.9333 20.8956 10.9962 21 10.9962C21.5523 10.9962 22 11.4439 22 11.9962C22 12.5485 21.5523 12.9962 21 12.9962C20.8956 12.9962 20.6648 13.0591 20.4178 13.4296C20.1705 13.8006 20 14.3624 20 14.9962V17.9962C20 18.7919 19.6839 19.5549 19.1213 20.1175C18.5587 20.6801 17.7957 20.9962 17 20.9962C16.4477 20.9962 16 20.5485 16 19.9962C16 19.4439 16.4477 18.9962 17 18.9962C17.2652 18.9962 17.5196 18.8909 17.7071 18.7033C17.8946 18.5158 18 18.2614 18 17.9962V14.9962C18 14.0388 18.2509 13.0744 18.7537 12.3202C18.8288 12.2077 18.9101 12.0992 18.9974 11.9962C18.9101 11.8932 18.8288 11.7848 18.7537 11.6722C18.2509 10.918 18 9.95367 18 8.99622V5.99622C18 5.731 17.8946 5.47665 17.7071 5.28911C17.5196 5.10157 17.2652 4.99622 17 4.99622C16.4477 4.99622 16 4.5485 16 3.99622Z" fill="#1F2937"/>
</svg>
