<svg width="24" height="24" viewBox="0 0 24 24" fill="none" xmlns="http://www.w3.org/2000/svg">
<path fill-rule="evenodd" clip-rule="evenodd" d="M4 3.99622C4 3.44393 4.44772 2.99622 5 2.99622H8C8.55228 2.99622 9 3.44393 9 3.99622C9 4.5485 8.55228 4.99622 8 4.99622H6V18.9962H8C8.55228 18.9962 9 19.4439 9 19.9962C9 20.5485 8.55228 20.9962 8 20.9962H5C4.44772 20.9962 4 20.5485 4 19.9962V3.99622Z" fill="#1F2937"/>
<path fill-rule="evenodd" clip-rule="evenodd" d="M15 3.99622C15 3.44393 15.4477 2.99622 16 2.99622H19C19.5523 2.99622 20 3.44393 20 3.99622V19.9962C20 20.5485 19.5523 20.9962 19 20.9962H16C15.4477 20.9962 15 20.5485 15 19.9962C15 19.4439 15.4477 18.9962 16 18.9962H18V4.99622H16C15.4477 4.99622 15 4.5485 15 3.99622Z" fill="#1F2937"/>
</svg>
