<svg width="24" height="24" viewBox="0 0 24 24" fill="none" xmlns="http://www.w3.org/2000/svg">
<path fill-rule="evenodd" clip-rule="evenodd" d="M5.60539 2.60539C5.93324 2.27755 6.42477 2 7 2H12.538C14.2968 2 15.811 2.57768 16.8856 3.67549C17.641 4.44723 18.1336 5.42933 18.3586 6.5412C20.2057 7.79657 21 9.89048 21 12C21 13.5883 20.1848 14.9723 19.0779 15.9329C17.9816 16.8843 16.5191 17.4949 15.037 17.5049C15.0316 17.505 15.0263 17.505 15.021 17.505H13.2466L12.804 20.3093C12.804 20.3096 12.8041 20.309 12.804 20.3093C12.7302 20.7804 12.4902 21.2105 12.1277 21.5202C11.7652 21.8298 11.304 21.9996 10.8273 21.999C10.8272 21.999 10.8273 21.999 10.8273 21.999C10.8269 21.999 10.8264 21.999 10.826 21.999L8.11624 21.997M18.3167 9.33681C18.7706 10.0758 19 10.9896 19 12C19 12.8787 18.5452 13.7472 17.7671 14.4223C16.9876 15.0988 15.9653 15.505 15 15.505H12.392C11.8999 15.505 11.4809 15.863 11.4042 16.3491L10.8282 19.999L8.70093 19.9974L8.82829 19.1906L9.97438 14.2249C9.97966 14.202 9.98412 14.179 9.98778 14.1559C9.99797 14.0913 10.0134 14.0436 10.0275 14.0118C10.0294 14.0075 10.0313 14.0035 10.0331 14L12.538 13.997C12.5379 13.997 12.5381 13.997 12.538 13.997M5.60539 2.60539C5.29388 2.91691 5.02778 3.3762 5.00204 3.91466L5.60539 2.60539ZM5.00204 3.91466L3.01005 17.8586C3.00336 17.9054 3 17.9527 3 18C3 18.5752 3.27755 19.0668 3.60539 19.3946C3.93324 19.7225 4.42477 20 5 20H6.67576L6.63424 20.263C6.63425 20.263 6.63424 20.263 6.63424 20.263M7.0003 4.0423C6.99986 4.04292 6.99943 4.04354 6.99903 4.04413C6.99759 4.07668 6.99456 4.10915 6.98995 4.14142L5.01382 17.9743C5.01566 17.9764 5.01759 17.9784 5.01961 17.9804C5.02741 17.9882 5.03524 17.9947 5.0423 17.9997C5.04244 17.9998 5.04215 17.9996 5.0423 17.9997L7.05051 18L8.01858 13.8056C8.09016 13.39 8.26284 12.955 8.58876 12.606C8.94263 12.227 9.43363 12.0001 9.99959 12M7.0003 4.0423C7.0053 4.03524 7.01181 4.02741 7.01961 4.01961L7.0003 4.0423ZM7.01961 4.01961C7.02741 4.01181 7.03524 4.0053 7.0423 4.0003L7.01961 4.01961ZM7.0423 4.0003C7.04215 4.0004 7.04244 4.0002 7.0423 4.0003V4.0003Z" fill="black"/>
</svg>
