<svg width="24" height="24" viewBox="0 0 24 24" fill="none" xmlns="http://www.w3.org/2000/svg">
<path fill-rule="evenodd" clip-rule="evenodd" d="M21.6612 3.24604C21.9416 3.4932 22.0608 3.87613 21.9701 4.23877L17.9701 20.2388C17.8828 20.5883 17.6141 20.8638 17.2669 20.9599C16.9197 21.0561 16.5476 20.9581 16.2929 20.7033L12.1082 16.5186L9.80001 19.5962C9.57684 19.8938 9.20697 20.0429 8.83982 19.9833C8.47268 19.9237 8.16894 19.6653 8.05132 19.3125L6.18231 13.7054L2.55279 11.8907C2.19901 11.7138 1.98274 11.345 2.00108 10.9499C2.01942 10.5548 2.26892 10.2076 2.63756 10.0642L20.6376 3.06423C20.9859 2.92875 21.3808 2.99888 21.6612 3.24604ZM12.7193 14.3013C12.7119 14.2937 12.7044 14.2861 12.6967 14.2787L12.4142 13.9962L15.7071 10.7033C16.0976 10.3128 16.0976 9.67965 15.7071 9.28913C15.3166 8.8986 14.6834 8.8986 14.2929 9.28913L10.2929 13.2891C10.1054 13.4767 10 13.731 10 13.9962C10 14.2614 10.1054 14.5158 10.2929 14.7033L10.6796 15.0901L9.34515 16.8694L7.94869 12.68C7.86482 12.4284 7.68444 12.2204 7.44722 12.1018L5.46487 11.1106L19.5611 5.62877L16.4582 18.0402L12.7193 14.3013Z" fill="black"/>
</svg>
