<svg width="24" height="24" viewBox="0 0 24 24" fill="none" xmlns="http://www.w3.org/2000/svg">
<path fill-rule="evenodd" clip-rule="evenodd" d="M19.2814 3.88321C19.367 3.85955 19.451 3.83654 19.5336 3.81391C20.2554 3.61619 20.8715 3.44742 21.5244 3.13222C21.7014 3.03637 21.9084 2.99319 22.1214 3.01923C22.6231 3.08054 23.0001 3.50648 23.0001 4.01184V4.01284C23.0001 4.10472 22.9875 4.19467 22.9636 4.28064C22.771 5.03175 22.2635 6.06382 21.8659 6.8443C21.7632 7.04586 21.6687 7.22862 21.5821 7.39618C21.4832 7.58766 21.3945 7.75929 21.3154 7.91648C21.2571 8.03247 21.213 8.1232 21.182 8.19065C21.1742 9.49249 20.9951 10.7879 20.6492 12.0435L20.6478 12.0483C19.4203 16.418 16.2065 19.3491 12.3131 20.4801L12.3129 20.4802C8.8769 21.4776 4.99812 20.7758 1.52153 18.8809C1.11374 18.6586 0.912642 18.1848 1.03606 17.7371C1.15947 17.2894 1.57491 16.9855 2.039 17.0036C3.44502 17.0583 4.6941 16.7053 5.94842 16.0614C4.65017 15.2592 3.71768 14.3242 3.07835 13.3141C2.19621 11.9203 1.91904 10.4577 1.9319 9.15534C1.94469 7.86066 2.24338 6.70787 2.53097 5.88872C2.67574 5.47636 2.82037 5.14101 2.93066 4.90534C2.98588 4.78733 3.03275 4.69377 3.06707 4.62747C3.08423 4.59431 3.09829 4.56792 3.1087 4.54865L3.12155 4.52512L3.12581 4.51743L3.12739 4.51461L3.12803 4.51347C3.12831 4.51297 3.12858 4.51249 4.0001 5.00284L3.12858 4.51249C3.29619 4.21457 3.60438 4.02291 3.9457 4.00432C4.28703 3.98572 4.61421 4.14277 4.8132 4.42071C6.29896 6.49599 8.49453 7.76608 10.9998 7.97541C10.9883 5.87015 12.3127 4.06204 14.2694 3.32934C15.8937 2.72114 17.8162 2.65067 19.2814 3.88321ZM4.3005 6.90909C4.10579 7.54517 3.94013 8.33185 3.93181 9.17509C3.92191 10.1768 4.13337 11.2413 4.7683 12.2445C5.40179 13.2453 6.50381 14.2596 8.39974 15.0862C8.73518 15.2324 8.96396 15.5502 8.99621 15.9147C9.02847 16.2792 8.85905 16.6322 8.5545 16.8351C7.60281 17.469 6.62154 18.0232 5.56931 18.4134C7.72357 19.0427 9.85922 19.1099 11.7551 18.5595M4.3005 6.90909C6.314 8.95082 9.03725 10.0789 12.0257 10.0025C12.5678 9.98864 13.0001 9.54516 13.0001 9.00284V8.00284H13.0002L13 7.98912C12.9831 6.75795 13.7462 5.66087 14.9708 5.20234C16.3614 4.68161 17.5144 4.83401 18.2517 5.66606C18.509 5.95643 18.911 6.07176 19.2831 5.96195C19.4914 5.9005 19.7106 5.84067 19.938 5.77863C20.0242 5.7551 20.1116 5.73125 20.2 5.70688C20.1617 5.78313 20.1229 5.85971 20.0838 5.93638C19.9951 6.11056 19.9026 6.28973 19.8145 6.46031C19.7078 6.66686 19.6077 6.86081 19.5286 7.01807C19.454 7.16647 19.384 7.30975 19.3312 7.43031C19.3052 7.48963 19.2762 7.55939 19.2521 7.63038C19.2516 7.63161 19.2512 7.63301 19.2506 7.63459C19.2363 7.6763 19.1811 7.83741 19.1821 8.03038C19.1886 9.20587 19.0337 10.3767 18.7216 11.51C17.6906 15.1768 15.0211 17.6107 11.7553 18.5595" fill="black"/>
</svg>
