<svg width="24" height="24" viewBox="0 0 24 24" fill="none" xmlns="http://www.w3.org/2000/svg">
<path fill-rule="evenodd" clip-rule="evenodd" d="M12 4C7.58172 4 4 7.58172 4 12C4 16.4183 7.58172 20 12 20C16.4183 20 20 16.4183 20 12C20 7.58172 16.4183 4 12 4ZM2 12C2 6.47715 6.47715 2 12 2C17.5228 2 22 6.47715 22 12C22 17.5228 17.5228 22 12 22C6.47715 22 2 17.5228 2 12Z" fill="black"/>
<path fill-rule="evenodd" clip-rule="evenodd" d="M10.7362 8.97518C10.3014 9.69987 10 10.7656 10 11.9962C10 13.2268 10.3014 14.2926 10.7362 15.0173C11.1829 15.7619 11.6608 15.9962 12 15.9962C12.3392 15.9962 12.8171 15.7619 13.2638 15.0173C13.6986 14.2926 14 13.2268 14 11.9962C14 10.7656 13.6986 9.69987 13.2638 8.97518C12.8171 8.23058 12.3392 7.99622 12 7.99622C11.6608 7.99622 11.1829 8.23058 10.7362 8.97518ZM9.02119 7.94619C9.66021 6.88114 10.6823 5.99622 12 5.99622C13.3177 5.99622 14.3398 6.88114 14.9788 7.94619C15.6298 9.03113 16 10.4654 16 11.9962C16 13.527 15.6298 14.9613 14.9788 16.0462C14.3398 17.1113 13.3177 17.9962 12 17.9962C10.6823 17.9962 9.66021 17.1113 9.02119 16.0462C8.37022 14.9613 8 13.527 8 11.9962C8 10.4654 8.37022 9.03113 9.02119 7.94619Z" fill="black"/>
</svg>
