<svg width="24" height="24" viewBox="0 0 24 24" fill="none" xmlns="http://www.w3.org/2000/svg">
<path fill-rule="evenodd" clip-rule="evenodd" d="M9.06262 3.21883C10.9966 2.78201 13.0038 2.782 14.9378 3.21881C16.0482 2.54552 16.9096 2.22779 17.5501 2.09095C17.9057 2.01496 18.1919 1.99509 18.412 2.00096C18.5218 2.0039 18.6141 2.01321 18.6893 2.02478C18.7269 2.03056 18.7601 2.03687 18.7889 2.04318C18.8033 2.04634 18.8166 2.04948 18.8287 2.05256L18.8462 2.0571L18.8543 2.05931L18.8582 2.0604L18.8601 2.06094C18.861 2.06121 18.862 2.06148 18.5872 3.023L18.862 2.06148C19.1461 2.14266 19.3798 2.34538 19.5003 2.61523C19.7802 3.24182 19.933 3.91768 19.95 4.60371C19.9618 5.07888 19.9082 5.55241 19.7916 6.01118C20.5667 6.98637 20.9962 8.19909 21.0002 9.45677L21.0002 9.46C21.0002 11.9997 20.2554 13.7475 18.9514 14.8763C18.0759 15.6342 17.024 16.0442 15.9749 16.2764C16.0133 16.575 16.0079 16.9178 16.0032 17.224C16.0017 17.3205 16.0002 17.4133 16.0002 17.5V21C16.0002 21.5523 15.5525 22 15.0002 22C14.448 22 14.0002 21.5523 14.0002 21V17.5C14.0002 17.3672 14.0019 17.2452 14.0034 17.1371L14.0037 17.119C14.0052 17.0164 14.0064 16.93 14.0064 16.8497C14.0063 16.6767 13.9997 16.5799 13.9885 16.5126C13.9793 16.4576 13.968 16.4288 13.9534 16.4021C13.9359 16.3701 13.8956 16.3089 13.7955 16.2095C13.5219 15.9377 13.429 15.5328 13.5567 15.1689C13.6844 14.805 14.0099 14.5469 14.3934 14.5057C15.7274 14.3623 16.8508 14.0494 17.6424 13.3642C18.3904 12.7167 19 11.5949 19.0002 9.46154C18.9968 8.52188 18.6227 7.62152 17.9591 6.95609C17.6796 6.67578 17.5918 6.25697 17.7351 5.88797C17.8878 5.49469 17.9611 5.07504 17.9506 4.65327C17.9457 4.45552 17.9225 4.25914 17.8814 4.06662C17.4462 4.17269 16.7154 4.44432 15.6538 5.13001C15.4185 5.28202 15.1301 5.32834 14.859 5.25767C12.9845 4.76906 11.016 4.76906 9.14147 5.25767C8.87042 5.32832 8.58215 5.28205 8.34683 5.13011C7.28503 4.44456 6.55431 4.17286 6.11907 4.06671C6.07803 4.2592 6.05477 4.45555 6.04987 4.65327C6.03942 5.07504 6.11267 5.49469 6.26541 5.88797C6.40873 6.257 6.32086 6.67585 6.0413 6.95616C5.7101 7.28825 5.44766 7.68242 5.26902 8.11609C5.09038 8.54976 4.99904 9.01442 5.00024 9.48344L5.00025 9.486C5.00024 11.6002 5.60793 12.707 6.35535 13.3493C7.14959 14.0318 8.27655 14.3464 9.61907 14.5071C9.99954 14.5526 10.3205 14.8116 10.4455 15.1738C10.5705 15.536 10.4776 15.9378 10.2062 16.2083C10.0557 16.3582 10.0125 16.4687 9.99017 16.5924C9.95801 16.7703 9.96576 16.9938 9.99756 17.4268C9.99935 17.4511 10.0002 17.4756 10.0002 17.5V18.9772C10.0006 18.9926 10.0006 19.008 10.0002 19.0233V21C10.0002 21.5523 9.55253 22 9.00025 22C8.44796 22 8.00025 21.5523 8.00025 21V20.2439C7.34435 20.3229 6.75353 20.2803 6.21673 20.1244C5.34166 19.8703 4.73272 19.3505 4.28114 18.8312C4.05862 18.5753 3.86728 18.3112 3.70309 18.0771C3.6527 18.0053 3.60615 17.9382 3.56204 17.8746C3.4534 17.718 3.35962 17.5828 3.26013 17.4511C2.9726 17.0704 2.82626 16.9882 2.74631 16.9672C2.21213 16.827 1.89278 16.2802 2.03302 15.7461C2.17327 15.2119 2.72 14.8925 3.25418 15.0328C4.03123 15.2368 4.52764 15.8108 4.8561 16.2458C4.98181 16.4122 5.11008 16.5971 5.22683 16.7654C5.26622 16.8222 5.3043 16.8771 5.34053 16.9287C5.4944 17.1481 5.63787 17.3435 5.79035 17.5188C6.08877 17.862 6.39058 18.0922 6.77451 18.2037C7.05659 18.2857 7.44729 18.3219 8.00025 18.2223V17.5367C7.97301 17.1662 7.94093 16.7105 8.01741 16.2631C6.97333 16.0251 5.92475 15.6162 5.05189 14.8662C3.74727 13.7451 3.00049 12.0124 3.00024 9.48724M5.41324 3.023C5.13828 2.06154 5.13922 2.06128 5.14017 2.06101L5.14208 2.06047L5.14597 2.05938L5.15408 2.05716L5.17154 2.05261C5.18373 2.04953 5.19703 2.04638 5.21143 2.04322C5.24024 2.0369 5.27341 2.03058 5.31099 2.0248C5.38624 2.01322 5.47857 2.0039 5.58837 2.00097C5.80843 1.99509 6.09455 2.01497 6.4501 2.09095C7.09047 2.2278 7.95183 2.54554 9.06262 3.21883" fill="black"/>
</svg>
