<svg width="24" height="24" viewBox="0 0 24 24" fill="none" xmlns="http://www.w3.org/2000/svg">
<path fill-rule="evenodd" clip-rule="evenodd" d="M5.91492 4.06453C7.72126 2.67939 9.94613 1.95196 12.2219 2.00246C14.4976 2.05296 16.688 2.87836 18.4311 4.34227C18.854 4.69745 18.909 5.32823 18.5538 5.75116C18.1986 6.17408 17.5678 6.229 17.1449 5.87382C15.7504 4.70269 13.9981 4.04237 12.1775 4.00197C10.3569 3.96157 8.57701 4.54351 7.13194 5.65163C5.68686 6.75974 4.66308 8.32772 4.22978 10.0964C3.79647 11.8652 3.97957 13.7288 4.74882 15.3794C5.51807 17.03 6.82743 18.3687 8.46054 19.1744C10.0936 19.9801 11.9528 20.2045 13.7307 19.8106C15.5086 19.4166 17.0989 18.4279 18.2388 17.0077C19.1685 15.8495 19.7532 14.4608 19.9373 13H13C12.4477 13 12 12.5523 12 12C12 11.4478 12.4477 11 13 11H21C21.2652 11 21.5196 11.1054 21.7071 11.2929C21.8947 11.4805 22 11.7348 22 12.0001C22 14.2763 21.2234 16.4845 19.7985 18.2597C18.3736 20.0348 16.3857 21.2708 14.1633 21.7632C11.9409 22.2556 9.61706 21.9751 7.57567 20.968C5.53429 19.9609 3.89759 18.2875 2.93603 16.2242C1.97447 14.161 1.74559 11.8315 2.28722 9.62056C2.82885 7.40965 4.10857 5.44968 5.91492 4.06453Z" fill="black"/>
</svg>
