<svg width="24" height="24" viewBox="0 0 24 24" fill="none" xmlns="http://www.w3.org/2000/svg">
<path fill-rule="evenodd" clip-rule="evenodd" d="M7.841 3.68746C8.94409 2.58437 10.4402 1.96466 12.0002 1.96466C13.5602 1.96466 15.0563 2.58437 16.1594 3.68746C17.2625 4.79055 17.8822 6.28666 17.8822 7.84666C17.8822 8.54977 17.8892 9.17094 17.9137 9.72557C18.2998 9.18989 18.7715 8.66212 19.2931 8.14055C19.6836 7.75003 20.3168 7.75003 20.7073 8.14055C21.0978 8.53108 21.0978 9.16424 20.7073 9.55477C19.2107 11.0513 18.7999 11.9964 18.8692 12.6284C18.934 13.219 19.487 14.0265 21.4317 15.0625C21.7492 15.2143 21.9622 15.5213 21.9956 15.8687C22.0142 16.0574 21.9793 16.2535 21.884 16.4336C21.7672 16.6542 21.5796 16.8131 21.364 16.8972C20.3263 17.3552 20.0415 17.4991 19.8323 17.7083C19.6102 17.9304 19.4382 18.2613 18.9045 19.3916C18.7393 19.7415 18.3871 19.9647 18.0002 19.9647C16.7587 19.9647 15.9412 20.3644 15.1213 20.8329C15.0386 20.8802 14.9532 20.9302 14.8651 20.9818C14.1225 21.4165 13.1862 21.9647 12.0002 21.9647C10.8142 21.9647 9.87796 21.4165 9.13534 20.9818C9.04722 20.9302 8.96183 20.8802 8.87907 20.8329C8.05925 20.3644 7.24168 19.9647 6.0002 19.9647C5.6133 19.9647 5.26112 19.7415 5.09593 19.3916C4.56225 18.2613 4.39023 17.9304 4.1681 17.7083C3.95891 17.4991 3.67413 17.3552 2.63641 16.8972C2.42082 16.8131 2.23323 16.6542 2.11645 16.4336C2.02108 16.2535 1.98625 16.0574 2.0048 15.8688C2.03817 15.5213 2.25123 15.2143 2.56875 15.0625C4.51342 14.0265 5.06639 13.219 5.13116 12.6284C5.20047 11.9964 4.78967 11.0513 3.2931 9.55477C2.90257 9.16424 2.90257 8.53108 3.2931 8.14055C3.68362 7.75003 4.31679 7.75003 4.70731 8.14055C5.22885 8.66209 5.70054 9.18983 6.08667 9.72548C6.11123 9.17087 6.1182 8.54972 6.1182 7.84666C6.1182 6.28666 6.73791 4.79055 7.841 3.68746ZM5.15705 15.9383C5.30952 16.0459 5.45104 16.1628 5.58231 16.2941C6.00795 16.7197 6.30362 17.2755 6.64666 17.9927C8.05674 18.1169 9.06 18.6328 9.87134 19.0964C9.95157 19.1423 10.0285 19.1865 10.1025 19.229C10.9228 19.7004 11.3826 19.9647 12.0002 19.9647C12.6178 19.9647 13.0776 19.7004 13.8979 19.229C13.9719 19.1865 14.0488 19.1423 14.1291 19.0964C14.9404 18.6328 15.9437 18.1169 17.3537 17.9927C17.6968 17.2755 17.9925 16.7197 18.4181 16.2941C18.5493 16.1628 18.6908 16.046 18.8432 15.9384C17.7538 15.2081 17.0149 14.3446 16.5552 13.2562C15.9216 11.7557 15.8822 9.94262 15.8822 7.84666C15.8822 6.81709 15.4732 5.82969 14.7452 5.10167C14.0172 4.37366 13.0298 3.96466 12.0002 3.96466C10.9706 3.96466 9.98323 4.37366 9.25522 5.10167C8.5272 5.82969 8.1182 6.81709 8.1182 7.84666C8.1182 9.94276 8.07855 11.7557 7.44478 13.2562C6.98509 14.3446 6.24615 15.2081 5.15705 15.9383Z" fill="black"/>
</svg>
