<svg width="24" height="24" viewBox="0 0 24 24" fill="none" xmlns="http://www.w3.org/2000/svg">
<path fill-rule="evenodd" clip-rule="evenodd" d="M5.93078 2.00242C6.35511 1.97295 6.75164 2.21514 6.91919 2.6061L9.65944 9.00001H14.3407L17.0809 2.6061C17.2485 2.21514 17.645 1.97295 18.0693 2.00242C18.4936 2.03188 18.8529 2.32654 18.9648 2.7369L21.9648 13.7369C22.071 14.1264 21.9326 14.5415 21.614 14.7894L12.614 21.7894C12.2529 22.0702 11.7472 22.0702 11.3861 21.7894L2.38611 14.7894C2.06744 14.5415 1.92906 14.1264 2.03528 13.7369L5.03528 2.7369C5.1472 2.32654 5.50646 2.03188 5.93078 2.00242ZM6.21038 6.02938L4.14022 13.62L12 19.7332L19.8599 13.62L17.7897 6.02938L15.9192 10.3939C15.7616 10.7616 15.4001 11 15 11H9.00005C8.60002 11 8.23848 10.7616 8.0809 10.3939L6.21038 6.02938Z" fill="black"/>
</svg>
