<svg width="24" height="24" viewBox="0 0 24 24" fill="none" xmlns="http://www.w3.org/2000/svg">
<path fill-rule="evenodd" clip-rule="evenodd" d="M9 4.00378C9.35126 4.00378 9.67677 4.18808 9.85749 4.48929L12.8575 9.48929C13.0475 9.80597 13.0475 10.2016 12.8575 10.5183L6.85749 20.5183C6.67677 20.8195 6.35126 21.0038 6 21.0038C5.64874 21.0038 5.32323 20.8195 5.14251 20.5183L2.14251 15.5183C1.9525 15.2016 1.9525 14.806 2.14251 14.4893L8.14251 4.48929C8.32323 4.18808 8.64874 4.00378 9 4.00378ZM4.16619 15.0038L6 18.0601L10.8338 10.0038L9 6.94743L4.16619 15.0038Z" fill="black"/>
<path fill-rule="evenodd" clip-rule="evenodd" d="M8 15C8 14.4477 8.44772 14 9 14H21C21.3603 14 21.6927 14.1938 21.8702 14.5073C22.0477 14.8208 22.0429 15.2056 21.8575 15.5145L18.8575 20.5145C18.6768 20.8157 18.3513 21 18 21H6C5.44772 21 5 20.5523 5 20C5 19.4477 5.44772 19 6 19H17.4338L19.2338 16H9C8.44772 16 8 15.5523 8 15Z" fill="black"/>
<path fill-rule="evenodd" clip-rule="evenodd" d="M8.1298 4.51109C8.30731 4.19758 8.63973 4.00378 9 4.00378H15C15.3513 4.00378 15.6768 4.18808 15.8575 4.48929L21.8575 14.4893C22.0429 14.7982 22.0477 15.183 21.8702 15.4965C21.6927 15.81 21.3603 16.0038 21 16.0038H15C14.6487 16.0038 14.3232 15.8195 14.1425 15.5183L8.14251 5.51828C7.95715 5.20935 7.95229 4.82459 8.1298 4.51109ZM10.7662 6.00378L15.5662 14.0038H19.2338L14.4338 6.00378H10.7662Z" fill="black"/>
</svg>
