<svg width="24" height="24" viewBox="0 0 24 24" fill="none" xmlns="http://www.w3.org/2000/svg">
<path fill-rule="evenodd" clip-rule="evenodd" d="M16.7071 7.29664C16.975 7.56448 17.0685 7.96064 16.9487 8.31998L14.9487 14.32C14.8492 14.6186 14.6149 14.8529 14.3163 14.9524L8.31625 16.9524C7.95692 17.0722 7.56075 16.9787 7.29292 16.7109C7.02509 16.443 6.93157 16.0469 7.05134 15.6875L9.05134 9.68752C9.15088 9.38892 9.38519 9.1546 9.6838 9.05507L15.6838 7.05507C16.0431 6.93529 16.4393 7.02881 16.7071 7.29664ZM10.7906 10.7943L9.58117 14.4226L13.2095 13.2132L14.4189 9.58489L10.7906 10.7943Z" fill="black"/>
<path fill-rule="evenodd" clip-rule="evenodd" d="M12 4C7.58172 4 4 7.58172 4 12C4 16.4183 7.58172 20 12 20C16.4183 20 20 16.4183 20 12C20 7.58172 16.4183 4 12 4ZM2 12C2 6.47715 6.47715 2 12 2C17.5228 2 22 6.47715 22 12C22 17.5228 17.5228 22 12 22C6.47715 22 2 17.5228 2 12Z" fill="black"/>
</svg>
