<svg width="24" height="24" viewBox="0 0 24 24" fill="none" xmlns="http://www.w3.org/2000/svg">
<path fill-rule="evenodd" clip-rule="evenodd" d="M7.53819 3.00775L16.4642 3.00775C16.7895 3.00797 17.1105 3.08769 17.3979 3.23997C17.6852 3.39214 17.9309 3.61215 18.1137 3.88089L21.6502 9.07415C22.1727 9.84061 22.1012 10.8674 21.477 11.5535M21.477 11.5535L13.4841 20.3434C13.4841 20.3435 13.4842 20.3434 13.4841 20.3434C12.6874 21.2198 11.31 21.2198 10.5133 20.3434L2.52264 11.5549C2.52253 11.5547 2.52276 11.555 2.52264 11.5549C1.89749 10.8676 1.82513 9.83997 2.34897 9.07241L5.88823 3.8815C5.88838 3.88128 5.88807 3.88173 5.88823 3.8815C6.07108 3.61279 6.31724 3.39213 6.60446 3.23997C6.89191 3.08769 7.21289 3.00797 7.53819 3.00775M3.26221 10.8817L4.00209 10.209L11.9931 18.998L11.995 18.9999C11.995 18.9999 11.995 18.9999 11.995 18.9999C11.9951 19 11.9966 19.0008 11.9987 19.0008C12.0004 19.0008 12.0016 19.0005 12.0019 19.0003L12.0043 18.9981L19.9973 10.208L19.9982 10.207C19.9983 10.2067 19.9987 10.2057 19.9988 10.2045C19.9988 10.2032 19.9987 10.2024 19.9986 10.2022M7.54097 5.00775L4.00142 10.1991C4.00064 10.2002 4.0001 10.2013 4.00007 10.2014C3.99996 10.2018 3.9998 10.2028 3.99989 10.2041C3.99999 10.2055 4.00029 10.2064 4.00048 10.2069C4.00056 10.2071 4.00111 10.208 4.00209 10.209L3.26221 10.8817" fill="black"/>
</svg>
