<svg width="24" height="24" viewBox="0 0 24 24" fill="none" xmlns="http://www.w3.org/2000/svg">
<path fill-rule="evenodd" clip-rule="evenodd" d="M5 7.99628C4.44772 7.99628 4 8.44399 4 8.99628V17.9963C4 18.5486 4.44772 18.9963 5 18.9963H19C19.5523 18.9963 20 18.5486 20 17.9963V8.99628C20 8.44399 19.5523 7.99628 19 7.99628H5ZM2 8.99628C2 7.33942 3.34315 5.99628 5 5.99628H19C20.6569 5.99628 22 7.33942 22 8.99628V17.9963C22 19.6531 20.6569 20.9963 19 20.9963H5C3.34315 20.9963 2 19.6531 2 17.9963V8.99628Z" fill="#1F2937"/>
<path fill-rule="evenodd" clip-rule="evenodd" d="M10 4C9.73478 4 9.48043 4.10536 9.29289 4.29289C9.10536 4.48043 9 4.73478 9 5V7C9 7.55228 8.55228 8 8 8C7.44772 8 7 7.55228 7 7V5C7 4.20435 7.31607 3.44129 7.87868 2.87868C8.44129 2.31607 9.20435 2 10 2H14C14.7956 2 15.5587 2.31607 16.1213 2.87868C16.6839 3.44129 17 4.20435 17 5V7C17 7.55228 16.5523 8 16 8C15.4477 8 15 7.55228 15 7V5C15 4.73478 14.8946 4.48043 14.7071 4.29289C14.5196 4.10536 14.2652 4 14 4H10Z" fill="#1F2937"/>
<path fill-rule="evenodd" clip-rule="evenodd" d="M12 11C12.5523 11 13 11.4477 13 12V12.01C13 12.5623 12.5523 13.01 12 13.01C11.4477 13.01 11 12.5623 11 12.01V12C11 11.4477 11.4477 11 12 11Z" fill="#1F2937"/>
<path fill-rule="evenodd" clip-rule="evenodd" d="M2.10719 12.5462C2.35572 12.053 2.95701 11.8547 3.45022 12.1032C6.10222 13.4396 9.03054 14.1357 12.0002 14.1357C14.9699 14.1357 17.8982 13.4396 20.5502 12.1032C21.0434 11.8547 21.6447 12.053 21.8932 12.5462C22.1418 13.0395 21.9434 13.6407 21.4502 13.8893C18.5191 15.3663 15.2825 16.1357 12.0002 16.1357C8.71795 16.1357 5.48138 15.3663 2.55022 13.8893C2.05701 13.6407 1.85866 13.0395 2.10719 12.5462Z" fill="#1F2937"/>
</svg>
