<svg width="16" height="16" viewBox="0 0 16 16" fill="none" xmlns="http://www.w3.org/2000/svg">
<path d="M13.3333 7.33333V6C13.3333 5.82319 13.263 5.65367 13.138 5.52865C13.0286 5.41922 12.8851 5.35172 12.7324 5.33659L12.6667 5.33333H3.33334C3.15652 5.33333 2.98701 5.40362 2.86198 5.52865C2.73696 5.65367 2.66667 5.82319 2.66667 6V12C2.66667 12.1768 2.73696 12.3463 2.86198 12.4714C2.98701 12.5964 3.15653 12.6667 3.33334 12.6667H7.33334C7.70153 12.6667 8 12.9651 8 13.3333C8 13.7015 7.70153 14 7.33334 14H3.33334C2.8029 14 2.29435 13.7891 1.91927 13.4141C1.5442 13.039 1.33334 12.5304 1.33334 12V6C1.33334 5.46957 1.5442 4.96101 1.91927 4.58594C2.29435 4.21086 2.8029 4 3.33334 4H12.6667C13.1971 4 13.7057 4.21086 14.0807 4.58594C14.4558 4.96101 14.6667 5.46957 14.6667 6V7.33333C14.6667 7.70152 14.3682 8 14 8C13.6318 8 13.3333 7.70152 13.3333 7.33333Z" fill="currentColor"/>
<path d="M10 4.66683V3.3335C10 3.15669 9.92971 2.98717 9.80468 2.86214C9.69526 2.75271 9.55175 2.68521 9.39909 2.67008L9.33333 2.66683H6.66666C6.48985 2.66683 6.32033 2.73712 6.19531 2.86214C6.07029 2.98717 6 3.15669 6 3.3335V4.66683C6 5.03502 5.70152 5.3335 5.33333 5.3335C4.96514 5.3335 4.66666 5.03502 4.66666 4.66683V3.3335C4.66666 2.80306 4.87753 2.29451 5.2526 1.91943C5.62767 1.54436 6.13623 1.3335 6.66666 1.3335H9.33333C9.86376 1.3335 10.3723 1.54436 10.7474 1.91943C11.1225 2.29451 11.3333 2.80306 11.3333 3.3335V4.66683C11.3333 5.03502 11.0349 5.3335 10.6667 5.3335C10.2985 5.3335 10 5.03502 10 4.66683Z" fill="currentColor"/>
<path d="M14 11.9998C14 11.4694 13.7891 10.9608 13.4141 10.5858C13.0859 10.2576 12.6557 10.0551 12.1979 10.0096L12 9.99984C11.4696 9.99984 10.961 10.2107 10.5859 10.5858C10.2109 10.9608 10 11.4694 10 11.9998L10.0098 12.1978C10.0553 12.6555 10.2578 13.0858 10.5859 13.4139C10.961 13.789 11.4696 13.9998 12 13.9998C12.5304 13.9998 13.039 13.789 13.4141 13.4139C13.7891 13.0388 14 12.5303 14 11.9998ZM15.3333 11.9998C15.3333 12.8839 14.9819 13.7315 14.3568 14.3566C13.7316 14.9817 12.8841 15.3332 12 15.3332C11.1159 15.3332 10.2683 14.9817 9.64323 14.3566C9.05719 13.7706 8.71146 12.9891 8.67057 12.1652L8.66666 11.9998C8.66666 11.1158 9.01811 10.2682 9.64323 9.64307C10.2683 9.01795 11.1159 8.6665 12 8.6665L12.1654 8.67041C12.9892 8.7113 13.7707 9.05703 14.3568 9.64307C14.9819 10.2682 15.3333 11.1158 15.3333 11.9998Z" fill="currentColor"/>
<path d="M11.3333 11.0002C11.3333 10.632 11.6318 10.3335 12 10.3335C12.3682 10.3335 12.6667 10.632 12.6667 11.0002V11.7241L12.8047 11.8621C13.065 12.1225 13.065 12.5445 12.8047 12.8049C12.5443 13.0652 12.1223 13.0652 11.862 12.8049L11.5286 12.4715C11.4036 12.3465 11.3333 12.177 11.3333 12.0002V11.0002Z" fill="currentColor"/>
</svg>
