<svg width="16" height="16" viewBox="0 0 16 16" fill="none" xmlns="http://www.w3.org/2000/svg">
<path d="M13.3333 6.3V6C13.3333 5.82319 13.263 5.65367 13.138 5.52865C13.0286 5.41922 12.8851 5.35172 12.7324 5.33659L12.6667 5.33333H3.33334C3.15653 5.33333 2.98701 5.40362 2.86198 5.52865C2.73696 5.65367 2.66667 5.82319 2.66667 6V12C2.66667 12.1768 2.73696 12.3463 2.86198 12.4714C2.98701 12.5964 3.15653 12.6667 3.33334 12.6667H5.53334C5.90153 12.6667 6.2 12.9651 6.2 13.3333C6.2 13.7015 5.90153 14 5.53334 14H3.33334C2.8029 14 2.29435 13.7891 1.91927 13.4141C1.5442 13.039 1.33334 12.5304 1.33334 12V6C1.33334 5.46957 1.5442 4.96101 1.91927 4.58594C2.29435 4.21086 2.8029 4 3.33334 4H12.6667C13.1971 4 13.7057 4.21086 14.0807 4.58594C14.4558 4.96101 14.6667 5.46957 14.6667 6V6.3C14.6667 6.66819 14.3682 6.96667 14 6.96667C13.6318 6.96667 13.3333 6.66819 13.3333 6.3Z" fill="currentColor"/>
<path d="M10 4.66683V3.3335C10 3.15669 9.92971 2.98717 9.80468 2.86214C9.69526 2.75271 9.55175 2.68521 9.39909 2.67008L9.33333 2.66683H6.66666C6.48985 2.66683 6.32033 2.73712 6.19531 2.86214C6.07029 2.98717 6 3.15669 6 3.3335V4.66683C6 5.03502 5.70152 5.3335 5.33333 5.3335C4.96514 5.3335 4.66666 5.03502 4.66666 4.66683V3.3335C4.66666 2.80306 4.87753 2.29451 5.2526 1.91943C5.62767 1.54436 6.13623 1.3335 6.66666 1.3335H9.33333C9.86376 1.3335 10.3723 1.54436 10.7474 1.91943C11.1225 2.29451 11.3333 2.80306 11.3333 3.3335V4.66683C11.3333 5.03502 11.0349 5.3335 10.6667 5.3335C10.2985 5.3335 10 5.03502 10 4.66683Z" fill="currentColor"/>
<path d="M8.63348 7.01355C9.40147 6.56639 10.2946 6.38583 11.1751 6.50033C12.0555 6.61484 12.8734 7.01784 13.5029 7.64617C14.1324 8.27443 14.5388 9.0931 14.6605 9.97573C14.7108 10.3405 14.4559 10.6769 14.0912 10.7272C13.7264 10.7775 13.39 10.5226 13.3397 10.1579C13.2576 9.5625 12.9836 9.01165 12.5611 8.58992C12.1386 8.16827 11.5911 7.899 11.0031 7.82254C10.4152 7.74608 9.8184 7.86648 9.30438 8.16576C9.11463 8.27625 8.94004 8.40896 8.78367 8.56023H9.00008C9.36826 8.56023 9.66674 8.85872 9.66675 9.2269C9.66675 9.59509 9.36827 9.89356 9.00008 9.89356H7.55262C7.54711 9.89366 7.5416 9.89361 7.53608 9.89356H7.33341C6.96522 9.89356 6.66675 9.59509 6.66675 9.2269V7.54714C6.66675 7.17895 6.96522 6.88048 7.33341 6.88048C7.67671 6.88048 7.95926 7.13998 7.99591 7.47351C8.19203 7.30079 8.40526 7.14643 8.63348 7.01355Z" fill="currentColor"/>
<path d="M7.24233 10.3398C7.60706 10.2895 7.94353 10.5444 7.99383 10.9092C8.07592 11.5045 8.34986 12.0554 8.77241 12.4771C9.19487 12.8988 9.74241 13.1681 10.3304 13.2445C10.9182 13.321 11.5151 13.2006 12.0291 12.9013C12.2189 12.7908 12.3935 12.6581 12.5498 12.5068H12.3334C11.9652 12.5068 11.6668 12.2083 11.6667 11.8402C11.6667 11.472 11.9652 11.1735 12.3334 11.1735H13.7809C13.7864 11.1734 13.7919 11.1734 13.7974 11.1735H14.0001C14.3683 11.1735 14.6667 11.472 14.6667 11.8402V13.5199C14.6667 13.8881 14.3683 14.1866 14.0001 14.1866C13.6568 14.1866 13.3741 13.927 13.3375 13.5935C13.1414 13.7662 12.9282 13.9206 12.7 14.0535C11.932 14.5007 11.0389 14.6812 10.1584 14.5667C9.27795 14.4522 8.4601 14.0492 7.83055 13.4209C7.20107 12.7926 6.7947 11.9739 6.67299 11.0913C6.6227 10.7266 6.8776 10.3901 7.24233 10.3398Z" fill="currentColor"/>
</svg>
