<svg width="24" height="24" viewBox="0 0 24 24" fill="none" xmlns="http://www.w3.org/2000/svg">
<path fill-rule="evenodd" clip-rule="evenodd" d="M12 10C10.8954 10 10 10.8954 10 12C10 13.1046 10.8954 14 12 14C13.1046 14 14 13.1046 14 12C14 10.8954 13.1046 10 12 10ZM8 12C8 9.79086 9.79086 8 12 8C14.2091 8 16 9.79086 16 12C16 14.2091 14.2091 16 12 16C9.79086 16 8 14.2091 8 12Z" fill="#1F2937"/>
<path fill-rule="evenodd" clip-rule="evenodd" d="M12 4.00378C12.5523 4.00378 13 4.4515 13 5.00378V5.01378C13 5.56607 12.5523 6.01378 12 6.01378C11.4477 6.01378 11 5.56607 11 5.01378V5.00378C11 4.4515 11.4477 4.00378 12 4.00378Z" fill="#1F2937"/>
<path fill-rule="evenodd" clip-rule="evenodd" d="M17 5.99622C17.5523 5.99622 18 6.44393 18 6.99622V7.00622C18 7.5585 17.5523 8.00622 17 8.00622C16.4477 8.00622 16 7.5585 16 7.00622V6.99622C16 6.44393 16.4477 5.99622 17 5.99622Z" fill="#1F2937"/>
<path fill-rule="evenodd" clip-rule="evenodd" d="M19 11C19.5523 11 20 11.4477 20 12V12.01C20 12.5623 19.5523 13.01 19 13.01C18.4477 13.01 18 12.5623 18 12.01V12C18 11.4477 18.4477 11 19 11Z" fill="#1F2937"/>
<path fill-rule="evenodd" clip-rule="evenodd" d="M17 16.0038C17.5523 16.0038 18 16.4515 18 17.0038V17.0138C18 17.5661 17.5523 18.0138 17 18.0138C16.4477 18.0138 16 17.5661 16 17.0138V17.0038C16 16.4515 16.4477 16.0038 17 16.0038Z" fill="#1F2937"/>
<path fill-rule="evenodd" clip-rule="evenodd" d="M12 17.9962C12.5523 17.9962 13 18.4439 13 18.9962V19.0062C13 19.5585 12.5523 20.0062 12 20.0062C11.4477 20.0062 11 19.5585 11 19.0062V18.9962C11 18.4439 11.4477 17.9962 12 17.9962Z" fill="#1F2937"/>
<path fill-rule="evenodd" clip-rule="evenodd" d="M7 16.0038C7.55228 16.0038 8 16.4515 8 17.0038V17.0138C8 17.5661 7.55228 18.0138 7 18.0138C6.44772 18.0138 6 17.5661 6 17.0138V17.0038C6 16.4515 6.44772 16.0038 7 16.0038Z" fill="#1F2937"/>
<path fill-rule="evenodd" clip-rule="evenodd" d="M5 11C5.55228 11 6 11.4477 6 12V12.01C6 12.5623 5.55228 13.01 5 13.01C4.44772 13.01 4 12.5623 4 12.01V12C4 11.4477 4.44772 11 5 11Z" fill="#1F2937"/>
<path fill-rule="evenodd" clip-rule="evenodd" d="M7 5.99622C7.55228 5.99622 8 6.44393 8 6.99622V7.00622C8 7.5585 7.55228 8.00622 7 8.00622C6.44772 8.00622 6 7.5585 6 7.00622V6.99622C6 6.44393 6.44772 5.99622 7 5.99622Z" fill="#1F2937"/>
</svg>
