<svg width="24" height="24" viewBox="0 0 24 24" fill="none" xmlns="http://www.w3.org/2000/svg">
<path fill-rule="evenodd" clip-rule="evenodd" d="M12 10C10.8954 10 10 10.8954 10 12C10 13.1046 10.8954 14 12 14C13.1046 14 14 13.1046 14 12C14 10.8954 13.1046 10 12 10ZM8 12C8 9.79086 9.79086 8 12 8C14.2091 8 16 9.79086 16 12C16 14.2091 14.2091 16 12 16C9.79086 16 8 14.2091 8 12Z" fill="#1F2937"/>
<path fill-rule="evenodd" clip-rule="evenodd" d="M12 2C12.5523 2 13 2.44772 13 3V5C13 5.55228 12.5523 6 12 6C11.4477 6 11 5.55228 11 5V3C11 2.44772 11.4477 2 12 2Z" fill="#1F2937"/>
<path fill-rule="evenodd" clip-rule="evenodd" d="M19.1071 4.89433C19.4976 5.28486 19.4976 5.91802 19.1071 6.30855L17.7071 7.70855C17.3166 8.09907 16.6834 8.09907 16.2929 7.70855C15.9024 7.31802 15.9024 6.68486 16.2929 6.29433L17.6929 4.89433C18.0834 4.50381 18.7166 4.50381 19.1071 4.89433Z" fill="#1F2937"/>
<path fill-rule="evenodd" clip-rule="evenodd" d="M18 12C18 11.4477 18.4477 11 19 11H21C21.5523 11 22 11.4477 22 12C22 12.5523 21.5523 13 21 13H19C18.4477 13 18 12.5523 18 12Z" fill="#1F2937"/>
<path fill-rule="evenodd" clip-rule="evenodd" d="M16.2929 16.2967C16.6834 15.9062 17.3166 15.9062 17.7071 16.2967L19.1071 17.6967C19.4976 18.0872 19.4976 18.7204 19.1071 19.1109C18.7166 19.5014 18.0834 19.5014 17.6929 19.1109L16.2929 17.7109C15.9024 17.3204 15.9024 16.6872 16.2929 16.2967Z" fill="#1F2937"/>
<path fill-rule="evenodd" clip-rule="evenodd" d="M12 17.9962C12.5523 17.9962 13 18.4439 13 18.9962V20.9962C13 21.5485 12.5523 21.9962 12 21.9962C11.4477 21.9962 11 21.5485 11 20.9962V18.9962C11 18.4439 11.4477 17.9962 12 17.9962Z" fill="#1F2937"/>
<path fill-rule="evenodd" clip-rule="evenodd" d="M7.7072 16.2967C8.09773 16.6872 8.09773 17.3204 7.7072 17.7109L6.3072 19.1109C5.91668 19.5014 5.28351 19.5014 4.89299 19.1109C4.50247 18.7204 4.50247 18.0872 4.89299 17.6967L6.29299 16.2967C6.68352 15.9062 7.31668 15.9062 7.7072 16.2967Z" fill="#1F2937"/>
<path fill-rule="evenodd" clip-rule="evenodd" d="M3 12C3 11.4477 3.44772 11 4 11H6C6.55228 11 7 11.4477 7 12C7 12.5523 6.55228 13 6 13H4C3.44772 13 3 12.5523 3 12Z" fill="#1F2937"/>
<path fill-rule="evenodd" clip-rule="evenodd" d="M4.89299 4.89433C5.28352 4.50381 5.91668 4.50381 6.3072 4.89433L7.7072 6.29433C8.09773 6.68486 8.09773 7.31802 7.7072 7.70855C7.31668 8.09907 6.68352 8.09907 6.29299 7.70855L4.89299 6.30855C4.50247 5.91802 4.50247 5.28486 4.89299 4.89433Z" fill="#1F2937"/>
</svg>
