<svg width="24" height="24" viewBox="0 0 24 24" fill="none" xmlns="http://www.w3.org/2000/svg">
<path fill-rule="evenodd" clip-rule="evenodd" d="M12 4C7.58172 4 4 7.58172 4 12C4 16.4183 7.58172 20 12 20C16.4183 20 20 16.4183 20 12C20 7.58172 16.4183 4 12 4ZM2 12C2 6.47715 6.47715 2 12 2C17.5228 2 22 6.47715 22 12C22 17.5228 17.5228 22 12 22C6.47715 22 2 17.5228 2 12Z" fill="#1F2937"/>
<path fill-rule="evenodd" clip-rule="evenodd" d="M12 2C12.5523 2 13 2.44772 13 3V21C13 21.5523 12.5523 22 12 22C11.4477 22 11 21.5523 11 21V3C11 2.44772 11.4477 2 12 2Z" fill="#1F2937"/>
<path fill-rule="evenodd" clip-rule="evenodd" d="M17.3571 3.64055C17.7476 4.03108 17.7476 4.66424 17.3571 5.05476L12.7071 9.70475C12.3166 10.0953 11.6834 10.0953 11.2929 9.70475C10.9024 9.31423 10.9024 8.68106 11.2929 8.29054L15.9429 3.64055C16.3334 3.25002 16.9666 3.25003 17.3571 3.64055Z" fill="#1F2937"/>
<path fill-rule="evenodd" clip-rule="evenodd" d="M20.0771 6.21868C20.4676 6.6092 20.4676 7.24236 20.0771 7.63289L12.7071 15.0029C12.3166 15.3934 11.6834 15.3934 11.2929 15.0029C10.9024 14.6124 10.9024 13.9792 11.2929 13.5887L18.6629 6.21867C19.0534 5.82815 19.6866 5.82815 20.0771 6.21868Z" fill="#1F2937"/>
<path fill-rule="evenodd" clip-rule="evenodd" d="M21.5571 10.0391C21.9476 10.4296 21.9476 11.0628 21.5571 11.4533L12.7071 20.3033C12.3166 20.6938 11.6834 20.6938 11.2929 20.3033C10.9024 19.9128 10.9024 19.2796 11.2929 18.8891L20.1429 10.0391C20.5334 9.64858 21.1666 9.64858 21.5571 10.0391Z" fill="#1F2937"/>
</svg>
