<svg width="24" height="24" viewBox="0 0 24 24" fill="none" xmlns="http://www.w3.org/2000/svg">
<path fill-rule="evenodd" clip-rule="evenodd" d="M3 4.99628C3 3.89171 3.89543 2.99628 5 2.99628H19C20.1046 2.99628 21 3.89171 21 4.99628V18.9963C21 20.1008 20.1046 20.9963 19 20.9963H5C3.89543 20.9963 3 20.1008 3 18.9963V4.99628ZM19 4.99628H5V18.9963H19V4.99628Z" fill="#1F2937"/>
<path fill-rule="evenodd" clip-rule="evenodd" d="M3 8.00372C3 7.45144 3.44772 7.00372 4 7.00372H20C20.5523 7.00372 21 7.45144 21 8.00372C21 8.55601 20.5523 9.00372 20 9.00372H4C3.44772 9.00372 3 8.55601 3 8.00372Z" fill="#1F2937"/>
<path fill-rule="evenodd" clip-rule="evenodd" d="M8 2.99628C8.55228 2.99628 9 3.44399 9 3.99628V7.99628C9 8.54856 8.55228 8.99628 8 8.99628C7.44772 8.99628 7 8.54856 7 7.99628V3.99628C7 3.44399 7.44772 2.99628 8 2.99628Z" fill="#1F2937"/>
</svg>
