<svg width="24" height="24" viewBox="0 0 24 24" fill="none" xmlns="http://www.w3.org/2000/svg">
<path fill-rule="evenodd" clip-rule="evenodd" d="M7.58527 14.0539C7.00333 13.9381 6.40013 13.9975 5.85195 14.2246C5.30377 14.4516 4.83524 14.8362 4.50559 15.3295C4.17595 15.8229 4 16.4029 4 16.9962V19.9962H7C7.59334 19.9962 8.17336 19.8203 8.66671 19.4906C9.16006 19.161 9.54458 18.6924 9.77164 18.1443C9.9987 17.5961 10.0581 16.9929 9.94236 16.4109C9.8266 15.829 9.54088 15.2945 9.12132 14.8749C8.70176 14.4553 8.16721 14.1696 7.58527 14.0539ZM5.08658 12.3768C6.00021 11.9984 7.00555 11.8994 7.97545 12.0923C8.94536 12.2852 9.83627 12.7614 10.5355 13.4607C11.2348 14.1599 11.711 15.0509 11.9039 16.0208C12.0969 16.9907 11.9978 17.996 11.6194 18.9096C11.241 19.8233 10.6001 20.6042 9.77785 21.1536C8.95561 21.703 7.98891 21.9962 7 21.9962H3C2.44772 21.9962 2 21.5485 2 20.9962V16.9962C2 16.0073 2.29325 15.0406 2.84265 14.2184C3.39206 13.3961 4.17295 12.7553 5.08658 12.3768Z" fill="#1F2937"/>
<path fill-rule="evenodd" clip-rule="evenodd" d="M21.9908 2.86448C22.0656 3.41167 21.6827 3.91593 21.1355 3.99077C18.4597 4.35677 15.9324 5.4384 13.8202 7.12149C11.7081 8.80458 10.0896 11.0267 9.1355 13.5533C8.94039 14.0699 8.36338 14.3306 7.8467 14.1355C7.33003 13.9404 7.06935 13.3634 7.26446 12.8467C8.34576 9.98326 10.1801 7.46487 12.5738 5.55737C14.9676 3.64987 17.8319 2.42402 20.8645 2.00922C21.4116 1.93438 21.9159 2.31729 21.9908 2.86448Z" fill="#1F2937"/>
<path fill-rule="evenodd" clip-rule="evenodd" d="M21.1356 2.00922C21.6828 2.08407 22.0657 2.58833 21.9908 3.13552C21.5761 6.16808 20.3502 9.03241 18.4427 11.4261C16.5352 13.8199 14.0168 15.6542 11.1533 16.7355C10.6367 16.9306 10.0597 16.6699 9.86456 16.1533C9.66945 15.6366 9.93013 15.0596 10.4468 14.8645C12.9734 13.9104 15.1955 12.2918 16.8786 10.1797C18.5617 8.06761 19.6433 5.54027 20.0093 2.86448C20.0841 2.31729 20.5884 1.93438 21.1356 2.00922Z" fill="#1F2937"/>
<path fill-rule="evenodd" clip-rule="evenodd" d="M9.6919 8.58093C9.92334 8.07948 10.5175 7.8606 11.0189 8.09204C13.178 9.08856 14.9113 10.8219 15.9078 12.9809C16.1392 13.4824 15.9204 14.0765 15.4189 14.308C14.9175 14.5394 14.3233 14.3205 14.0919 13.8191C13.2947 12.0918 11.908 10.7052 10.1808 9.90795C9.67933 9.67651 9.46045 9.08238 9.6919 8.58093Z" fill="#1F2937"/>
</svg>
