<svg width="24" height="24" viewBox="0 0 24 24" fill="none" xmlns="http://www.w3.org/2000/svg">
<path fill-rule="evenodd" clip-rule="evenodd" d="M4.21997 8.37427C4.40976 8.13767 4.69669 8 5.00001 8H19C19.3033 8 19.5903 8.13767 19.7801 8.37427C19.9698 8.61088 20.042 8.92083 19.9762 9.21693L17.9819 18.1911C17.8551 18.9333 17.5215 19.6351 16.9968 20.1598C16.4633 20.6933 15.7553 21.0152 14.9889 21H9.01111C8.24471 21.0152 7.53674 20.6933 7.00319 20.1598C6.47856 19.6351 6.14492 18.9333 6.01808 18.1911L4.02382 9.21693C3.95802 8.92083 4.03017 8.61088 4.21997 8.37427ZM6.24663 10L7.9762 17.7831C7.98032 17.8016 7.98391 17.8202 7.98696 17.839C8.05108 18.232 8.21824 18.5464 8.4174 18.7456C8.61145 18.9396 8.81083 19.0044 8.97481 19.0003C8.98321 19.0001 8.99161 19 9.00001 19H15C15.0084 19 15.0168 19.0001 15.0252 19.0003C15.1892 19.0044 15.3886 18.9396 15.5826 18.7456C15.7818 18.5464 15.9489 18.232 16.0131 17.839C16.0161 17.8202 16.0197 17.8016 16.0238 17.7831L17.7534 10H6.24663Z" fill="#1F2937"/>
<path fill-rule="evenodd" clip-rule="evenodd" d="M12 4.99625C10.9391 4.99625 9.92172 5.41767 9.17157 6.16782C8.42143 6.91796 8 7.93538 8 8.99625C8 9.54853 7.55228 9.99625 7 9.99625C6.44772 9.99625 6 9.54853 6 8.99625C6 7.40495 6.63214 5.87882 7.75736 4.75361C8.88258 3.62839 10.4087 2.99625 12 2.99625C13.5913 2.99625 15.1174 3.62839 16.2426 4.75361C17.3679 5.87882 18 7.40495 18 8.99625C18 9.54853 17.5523 9.99625 17 9.99625C16.4477 9.99625 16 9.54853 16 8.99625C16 7.93538 15.5786 6.91796 14.8284 6.16782C14.0783 5.41767 13.0609 4.99625 12 4.99625Z" fill="#1F2937"/>
</svg>
