<svg width="24" height="24" viewBox="0 0 24 24" fill="none" xmlns="http://www.w3.org/2000/svg">
<path fill-rule="evenodd" clip-rule="evenodd" d="M6 4.00378C6.55228 4.00378 7 4.4515 7 5.00378V19.0038C7 19.5561 6.55228 20.0038 6 20.0038C5.44772 20.0038 5 19.5561 5 19.0038V5.00378C5 4.4515 5.44772 4.00378 6 4.00378Z" fill="#1F2937"/>
<path fill-rule="evenodd" clip-rule="evenodd" d="M18 4.00378C18.5523 4.00378 19 4.4515 19 5.00378V19.0038C19 19.5561 18.5523 20.0038 18 20.0038C17.4477 20.0038 17 19.5561 17 19.0038V5.00378C17 4.4515 17.4477 4.00378 18 4.00378Z" fill="#1F2937"/>
<path fill-rule="evenodd" clip-rule="evenodd" d="M1 15C1 14.4477 1.44772 14 2 14H22C22.5523 14 23 14.4477 23 15C23 15.5523 22.5523 16 22 16H2C1.44772 16 1 15.5523 1 15Z" fill="#1F2937"/>
<path fill-rule="evenodd" clip-rule="evenodd" d="M6.17156 5.01488C6.50813 5.07357 6.79146 5.30003 6.92286 5.6154C7.34049 6.61771 8.04546 7.47398 8.94893 8.07629C9.8524 8.67861 10.9139 9.00002 11.9998 9.00002C13.0856 9.00002 14.1472 8.67861 15.0506 8.07629C15.9541 7.47398 16.6591 6.61771 17.0767 5.6154C17.2081 5.30003 17.4914 5.07357 17.828 5.01488C18.1646 4.95619 18.5078 5.0734 18.7382 5.32569C19.451 6.1063 20.3435 6.70127 21.3382 7.05903C21.8579 7.24594 22.1277 7.81876 21.9408 8.33845C21.7539 8.85815 21.181 9.12792 20.6613 8.94101C19.7953 8.62951 18.9885 8.18051 18.2708 7.6139C17.72 8.45355 17.0034 9.17812 16.16 9.74039C14.928 10.5617 13.4805 11 11.9998 11C10.5191 11 9.07154 10.5617 7.83953 9.74039C6.99612 9.17812 6.27957 8.45355 5.72874 7.6139C5.01109 8.18051 4.2043 8.62951 3.33822 8.94101C2.81853 9.12792 2.24571 8.85815 2.0588 8.33845C1.87188 7.81876 2.14165 7.24594 2.66135 7.05903C3.65607 6.70127 4.54852 6.1063 5.26135 5.32569C5.49173 5.0734 5.83498 4.95619 6.17156 5.01488Z" fill="#1F2937"/>
<path fill-rule="evenodd" clip-rule="evenodd" d="M12 8.99622C12.5523 8.99622 13 9.44393 13 9.99622V14.9962C13 15.5485 12.5523 15.9962 12 15.9962C11.4477 15.9962 11 15.5485 11 14.9962V9.99622C11 9.44393 11.4477 8.99622 12 8.99622Z" fill="#1F2937"/>
</svg>
