<svg width="24" height="24" viewBox="0 0 24 24" fill="none" xmlns="http://www.w3.org/2000/svg">
<path fill-rule="evenodd" clip-rule="evenodd" d="M6 7.99622C5.73478 7.99622 5.48043 8.10157 5.29289 8.28911C5.10536 8.47665 5 8.731 5 8.99622V17.9962H7V15.9962C7 14.6701 7.52678 13.3984 8.46447 12.4607C9.40215 11.523 10.6739 10.9962 12 10.9962C13.3261 10.9962 14.5979 11.523 15.5355 12.4607C16.4732 13.3984 17 14.6701 17 15.9962V17.9962H19V8.99622C19 8.731 18.8946 8.47665 18.7071 8.28911C18.5196 8.10157 18.2652 7.99622 18 7.99622H6ZM3.87868 6.8749C4.44129 6.31229 5.20435 5.99622 6 5.99622H18C18.7956 5.99622 19.5587 6.31229 20.1213 6.8749C20.6839 7.4375 21 8.20057 21 8.99622V17.9962C21 18.5266 20.7893 19.0354 20.4142 19.4104C20.0391 19.7855 19.5304 19.9962 19 19.9962H17C16.4696 19.9962 15.9609 19.7855 15.5858 19.4104C15.2107 19.0354 15 18.5266 15 17.9962V15.9962C15 15.2006 14.6839 14.4375 14.1213 13.8749C13.5587 13.3123 12.7956 12.9962 12 12.9962C11.2044 12.9962 10.4413 13.3123 9.87868 13.8749C9.31607 14.4375 9 15.2006 9 15.9962V17.9962C9 18.5266 8.78929 19.0354 8.41421 19.4104C8.03914 19.7855 7.53043 19.9962 7 19.9962H5C4.46957 19.9962 3.96086 19.7855 3.58579 19.4104C3.21071 19.0354 3 18.5266 3 17.9962V8.99622C3 8.20057 3.31607 7.4375 3.87868 6.8749Z" fill="#1F2937"/>
</svg>
