<svg width="24" height="24" viewBox="0 0 24 24" fill="none" xmlns="http://www.w3.org/2000/svg">
<path fill-rule="evenodd" clip-rule="evenodd" d="M2 21C2 20.4477 2.44772 20 3 20H21C21.5523 20 22 20.4477 22 21C22 21.5523 21.5523 22 21 22H3C2.44772 22 2 21.5523 2 21Z" fill="#1F2937"/>
<path fill-rule="evenodd" clip-rule="evenodd" d="M12 16C11.7348 16 11.4804 16.1054 11.2929 16.2929C11.1054 16.4804 11 16.7348 11 17V21C11 21.5523 10.5523 22 10 22C9.44772 22 9 21.5523 9 21V17C9 16.2043 9.31607 15.4413 9.87868 14.8787C10.4413 14.3161 11.2043 14 12 14C12.7957 14 13.5587 14.3161 14.1213 14.8787C14.6839 15.4413 15 16.2043 15 17V21C15 21.5523 14.5523 22 14 22C13.4477 22 13 21.5523 13 21V17C13 16.7348 12.8946 16.4804 12.7071 16.2929C12.5196 16.1054 12.2652 16 12 16Z" fill="#1F2937"/>
<path fill-rule="evenodd" clip-rule="evenodd" d="M9 5.00372C9 4.45144 9.44772 4.00372 10 4.00372H14C14.5523 4.00372 15 4.45144 15 5.00372C15 5.55601 14.5523 6.00372 14 6.00372H10C9.44772 6.00372 9 5.55601 9 5.00372Z" fill="#1F2937"/>
<path fill-rule="evenodd" clip-rule="evenodd" d="M12 2C12.5523 2 13 2.44772 13 3V8C13 8.55228 12.5523 9 12 9C11.4477 9 11 8.55228 11 8V3C11 2.44772 11.4477 2 12 2Z" fill="#1F2937"/>
<path fill-rule="evenodd" clip-rule="evenodd" d="M12 7.00372C12.2652 7.00372 12.5196 7.10908 12.7071 7.29662L20.7071 15.2966C21.0976 15.6871 21.0976 16.3203 20.7071 16.7108C20.3166 17.1014 19.6834 17.1014 19.2929 16.7108L19 16.4179V21.0037C19 21.556 18.5523 22.0037 18 22.0037C17.4477 22.0037 17 21.556 17 21.0037V14.4179L12 9.41794L7 14.4179V21.0037C7 21.556 6.55228 22.0037 6 22.0037C5.44772 22.0037 5 21.556 5 21.0037V16.4179L4.70711 16.7108C4.31658 17.1014 3.68342 17.1014 3.29289 16.7108C2.90237 16.3203 2.90237 15.6871 3.29289 15.2966L5.29263 13.2969C5.2928 13.2967 5.29298 13.2965 5.29316 13.2964L11.2929 7.29662C11.4804 7.10908 11.7348 7.00372 12 7.00372Z" fill="#1F2937"/>
</svg>
