<svg width="16" height="16" viewBox="0 0 16 16" fill="none" xmlns="http://www.w3.org/2000/svg">
<path d="M14.0002 13.332C14.3684 13.332 14.6668 13.6305 14.6668 13.9987C14.6668 14.3669 14.3684 14.6654 14.0002 14.6654H2.00016C1.63197 14.6654 1.3335 14.3669 1.3335 13.9987C1.3335 13.6305 1.63197 13.332 2.00016 13.332H14.0002Z" fill="#1F2937"/>
<path d="M2.6665 13.9988V5.99882C2.6665 5.74263 2.81325 5.50896 3.04411 5.39791C3.27509 5.2869 3.54972 5.3179 3.74984 5.47799L5.99984 7.27747V5.99882C5.99984 5.74263 6.14658 5.50896 6.37744 5.39791C6.60842 5.2869 6.88306 5.3179 7.08317 5.47799L10.2342 7.99882H12.6665C13.0347 7.99882 13.3332 8.2973 13.3332 8.66549C13.3332 9.03368 13.0347 9.33215 12.6665 9.33215H9.99984C9.84846 9.33215 9.70138 9.28089 9.58317 9.18632L7.33317 7.38619V8.66549C7.33317 8.92168 7.18643 9.15535 6.95557 9.2664C6.72459 9.37741 6.44995 9.34641 6.24984 9.18632L3.99984 7.38619V13.9988C3.99984 14.367 3.70136 14.6655 3.33317 14.6655C2.96498 14.6655 2.6665 14.367 2.6665 13.9988Z" fill="#1F2937"/>
<path d="M11.9999 13.9987V8.71615L11.0923 2.66536H10.8976L9.99074 8.10807C9.93024 8.47119 9.58693 8.71665 9.22382 8.65625C8.8607 8.59574 8.61524 8.25244 8.67564 7.88932L9.62877 2.16797C9.66765 1.93415 9.78831 1.72147 9.96926 1.56836L10.0396 1.51432C10.2076 1.39599 10.4088 1.3326 10.6157 1.33268L11.3794 1.33203V1.33268C11.6188 1.33265 11.8503 1.41803 12.0318 1.57422C12.2133 1.73051 12.3328 1.94668 12.3683 2.18359L13.326 8.56641C13.3309 8.59914 13.3332 8.63226 13.3332 8.66536V13.9987C13.3332 14.3669 13.0347 14.6654 12.6665 14.6654C12.2983 14.6654 11.9999 14.3669 11.9999 13.9987Z" fill="#1F2937"/>
<path d="M6.66683 10.668C7.03502 10.668 7.3335 10.9664 7.3335 11.3346C7.3335 11.7028 7.03502 12.0013 6.66683 12.0013H6.00016C5.63197 12.0013 5.3335 11.7028 5.3335 11.3346C5.3335 10.9664 5.63197 10.668 6.00016 10.668H6.66683Z" fill="#1F2937"/>
<path d="M9.99984 10.668C10.368 10.668 10.6665 10.9664 10.6665 11.3346C10.6665 11.7028 10.368 12.0013 9.99984 12.0013H9.33317C8.96498 12.0013 8.6665 11.7028 8.6665 11.3346C8.6665 10.9664 8.96498 10.668 9.33317 10.668H9.99984Z" fill="#1F2937"/>
</svg>
