<svg width="24" height="24" viewBox="0 0 24 24" fill="none" xmlns="http://www.w3.org/2000/svg">
<path fill-rule="evenodd" clip-rule="evenodd" d="M8.58579 2.58579C8.96086 2.21071 9.46957 2 10 2H20C20.5304 2 21.0391 2.21071 21.4142 2.58579C21.7893 2.96086 22 3.46957 22 4V21C22 21.5523 21.5523 22 21 22H3C2.44772 22 2 21.5523 2 21V14C2 13.7348 2.10536 13.4804 2.29289 13.2929L7.29289 8.29289C7.48816 8.09763 7.74408 8 8 8V4C8 3.46957 8.21071 2.96086 8.58579 2.58579ZM7 11.4142L4 14.4142V20H7V11.4142ZM9 20H12V14.4142L9 11.4142V20ZM14 20V14C14 13.7348 13.8946 13.4804 13.7071 13.2929L10 9.58579V4H20V20H14Z" fill="#1F2937"/>
<path fill-rule="evenodd" clip-rule="evenodd" d="M13 5.99622C13.5523 5.99622 14 6.44393 14 6.99622V7.00622C14 7.5585 13.5523 8.00622 13 8.00622C12.4477 8.00622 12 7.5585 12 7.00622V6.99622C12 6.44393 12.4477 5.99622 13 5.99622Z" fill="#1F2937"/>
<path fill-rule="evenodd" clip-rule="evenodd" d="M17 5.99622C17.5523 5.99622 18 6.44393 18 6.99622V7.00622C18 7.5585 17.5523 8.00622 17 8.00622C16.4477 8.00622 16 7.5585 16 7.00622V6.99622C16 6.44393 16.4477 5.99622 17 5.99622Z" fill="#1F2937"/>
<path fill-rule="evenodd" clip-rule="evenodd" d="M17 10.0038C17.5523 10.0038 18 10.4515 18 11.0038V11.0138C18 11.5661 17.5523 12.0138 17 12.0138C16.4477 12.0138 16 11.5661 16 11.0138V11.0038C16 10.4515 16.4477 10.0038 17 10.0038Z" fill="#1F2937"/>
<path fill-rule="evenodd" clip-rule="evenodd" d="M17 14C17.5523 14 18 14.4477 18 15V15.01C18 15.5623 17.5523 16.01 17 16.01C16.4477 16.01 16 15.5623 16 15.01V15C16 14.4477 16.4477 14 17 14Z" fill="#1F2937"/>
</svg>
