<svg width="24" height="24" viewBox="0 0 24 24" fill="none" xmlns="http://www.w3.org/2000/svg">
<path fill-rule="evenodd" clip-rule="evenodd" d="M11.5939 3.0824C11.8524 2.96749 12.1476 2.96749 12.4061 3.0824L21.4061 7.0824C21.7673 7.24291 22 7.60103 22 7.99622V20.9962C22 21.5485 21.5523 21.9962 21 21.9962C20.4477 21.9962 20 21.5485 20 20.9962V8.64609L12 5.09053L4 8.64609V20.9962C4 21.5485 3.55228 21.9962 3 21.9962C2.44772 21.9962 2 21.5485 2 20.9962V7.99622C2 7.60103 2.23273 7.24291 2.59386 7.0824L11.5939 3.0824Z" fill="#1F2937"/>
<path fill-rule="evenodd" clip-rule="evenodd" d="M12 12.9962C12 12.4439 12.4477 11.9962 13 11.9962H17C17.5523 11.9962 18 12.4439 18 12.9962V20.9962C18 21.5485 17.5523 21.9962 17 21.9962H7C6.44772 21.9962 6 21.5485 6 20.9962V14.9962C6 14.4439 6.44772 13.9962 7 13.9962H12.9993C12.4473 13.9958 12 13.5483 12 12.9962ZM16 13.9962H13.0007C13.5527 13.9966 14 14.4442 14 14.9962C14 15.5485 13.5523 15.9962 13 15.9962H8V19.9962H16V13.9962Z" fill="#1F2937"/>
<path fill-rule="evenodd" clip-rule="evenodd" d="M8.58579 10.5896C8.96086 10.2145 9.46957 10.0038 10 10.0038H12C12.5304 10.0038 13.0391 10.2145 13.4142 10.5896C13.7893 10.9646 14 11.4734 14 12.0038V21.0038C14 21.5561 13.5523 22.0038 13 22.0038C12.4477 22.0038 12 21.5561 12 21.0038V12.0038L10 12.0038L10 15.0038C10 15.5561 9.55228 16.0038 9 16.0038C8.44772 16.0038 8 15.5561 8 15.0038V12.0038C8 11.4734 8.21071 10.9646 8.58579 10.5896Z" fill="#1F2937"/>
</svg>
