<svg width="24" height="24" viewBox="0 0 24 24" fill="none" xmlns="http://www.w3.org/2000/svg">
<path fill-rule="evenodd" clip-rule="evenodd" d="M2 21C2 20.4477 2.44772 20 3 20H21C21.5523 20 22 20.4477 22 21C22 21.5523 21.5523 22 21 22H3C2.44772 22 2 21.5523 2 21Z" fill="#1F2937"/>
<path fill-rule="evenodd" clip-rule="evenodd" d="M7 4C6.73478 4 6.48043 4.10536 6.29289 4.29289C6.10536 4.48043 6 4.73478 6 5V21C6 21.5523 5.55228 22 5 22C4.44772 22 4 21.5523 4 21V5C4 4.20435 4.31607 3.44129 4.87868 2.87868C5.44129 2.31607 6.20435 2 7 2H17C17.7956 2 18.5587 2.31607 19.1213 2.87868C19.6839 3.44129 20 4.20435 20 5V21C20 21.5523 19.5523 22 19 22C18.4477 22 18 21.5523 18 21V5C18 4.73478 17.8946 4.48043 17.7071 4.29289C17.5196 4.10536 17.2652 4 17 4H7Z" fill="#1F2937"/>
<path fill-rule="evenodd" clip-rule="evenodd" d="M11 16C10.7348 16 10.4804 16.1054 10.2929 16.2929C10.1054 16.4804 10 16.7348 10 17V21C10 21.5523 9.55228 22 9 22C8.44772 22 8 21.5523 8 21V17C8 16.2043 8.31607 15.4413 8.87868 14.8787C9.44129 14.3161 10.2043 14 11 14H13C13.7957 14 14.5587 14.3161 15.1213 14.8787C15.6839 15.4413 16 16.2043 16 17V21C16 21.5523 15.5523 22 15 22C14.4477 22 14 21.5523 14 21V17C14 16.7348 13.8946 16.4804 13.7071 16.2929C13.5196 16.1054 13.2652 16 13 16H11Z" fill="#1F2937"/>
<path fill-rule="evenodd" clip-rule="evenodd" d="M9 9C9 8.44772 9.44772 8 10 8H14C14.5523 8 15 8.44772 15 9C15 9.55228 14.5523 10 14 10H10C9.44772 10 9 9.55228 9 9Z" fill="#1F2937"/>
<path fill-rule="evenodd" clip-rule="evenodd" d="M12 5.99622C12.5523 5.99622 13 6.44393 13 6.99622V10.9962C13 11.5485 12.5523 11.9962 12 11.9962C11.4477 11.9962 11 11.5485 11 10.9962V6.99622C11 6.44393 11.4477 5.99622 12 5.99622Z" fill="#1F2937"/>
</svg>
