<svg width="24" height="24" viewBox="0 0 24 24" fill="none" xmlns="http://www.w3.org/2000/svg">
<path fill-rule="evenodd" clip-rule="evenodd" d="M2 21C2 20.4477 2.44772 20 3 20H21C21.5523 20 22 20.4477 22 21C22 21.5523 21.5523 22 21 22H3C2.44772 22 2 21.5523 2 21Z" fill="#1F2937"/>
<path fill-rule="evenodd" clip-rule="evenodd" d="M4.10557 2.55279C4.27497 2.214 4.62123 2 5 2H19C19.3788 2 19.725 2.214 19.8944 2.55279L21.8854 6.53477C21.9242 6.60838 21.954 6.68741 21.9735 6.77043C21.9931 6.85324 22.0017 6.93711 22 7.02011V8C22 9.06087 21.5786 10.0783 20.8284 10.8284C20.0783 11.5786 19.0609 12 18 12C16.9391 12 15.9217 11.5786 15.1716 10.8284C15.1123 10.7692 15.0551 10.7082 15 10.6458C14.9449 10.7082 14.8877 10.7692 14.8284 10.8284C14.0783 11.5786 13.0609 12 12 12C10.9391 12 9.92172 11.5786 9.17157 10.8284C9.11232 10.7692 9.05511 10.7082 9 10.6458C8.94489 10.7082 8.88769 10.7692 8.82843 10.8284C8.07828 11.5786 7.06087 12 6 12C4.93914 12 3.92172 11.5786 3.17157 10.8284C2.42143 10.0783 2 9.06087 2 8V7.00141C1.99999 6.99579 2.00003 6.99017 2.00012 6.98455C2.00257 6.82234 2.04366 6.66949 2.11457 6.53479L4.10557 2.55279ZM10.1749 8.81797C10.2735 9.03799 10.412 9.24044 10.5858 9.41421C10.9609 9.78929 11.4696 10 12 10C12.5304 10 13.0391 9.78929 13.4142 9.41421C13.7462 9.08224 13.9494 8.64559 13.9917 8.18184L10.1749 8.81797ZM15.0039 6C15.0013 5.99999 14.9987 5.99999 14.9961 6H4.61804L5.61804 4H18.382L19.382 6H15.0039ZM16 8C16 8.53043 16.2107 9.03914 16.5858 9.41421C16.9609 9.78929 17.4696 10 18 10C18.5304 10 19.0391 9.78929 19.4142 9.41421C19.7893 9.03914 20 8.53043 20 8H16ZM4 8H8C8 8.53043 7.78929 9.03914 7.41422 9.41421C7.03914 9.78929 6.53043 10 6 10C5.46957 10 4.96086 9.78929 4.58579 9.41421C4.21072 9.03914 4 8.53043 4 8Z" fill="#1F2937"/>
<path fill-rule="evenodd" clip-rule="evenodd" d="M5 9.85144C5.55228 9.85144 6 10.2992 6 10.8514V21.0014C6 21.5537 5.55228 22.0014 5 22.0014C4.44772 22.0014 4 21.5537 4 21.0014V10.8514C4 10.2992 4.44772 9.85144 5 9.85144Z" fill="#1F2937"/>
<path fill-rule="evenodd" clip-rule="evenodd" d="M19 9.85144C19.5523 9.85144 20 10.2992 20 10.8514V21.0014C20 21.5537 19.5523 22.0014 19 22.0014C18.4477 22.0014 18 21.5537 18 21.0014V10.8514C18 10.2992 18.4477 9.85144 19 9.85144Z" fill="#1F2937"/>
<path fill-rule="evenodd" clip-rule="evenodd" d="M11 16C10.7348 16 10.4804 16.1054 10.2929 16.2929C10.1054 16.4804 10 16.7348 10 17V21C10 21.5523 9.55228 22 9 22C8.44772 22 8 21.5523 8 21V17C8 16.2043 8.31607 15.4413 8.87868 14.8787C9.44129 14.3161 10.2043 14 11 14H13C13.7957 14 14.5587 14.3161 15.1213 14.8787C15.6839 15.4413 16 16.2043 16 17V21C16 21.5523 15.5523 22 15 22C14.4477 22 14 21.5523 14 21V17C14 16.7348 13.8946 16.4804 13.7071 16.2929C13.5196 16.1054 13.2652 16 13 16H11Z" fill="#1F2937"/>
</svg>
