<svg width="24" height="24" viewBox="0 0 24 24" fill="none" xmlns="http://www.w3.org/2000/svg">
<path fill-rule="evenodd" clip-rule="evenodd" d="M2 21C2 20.4477 2.44772 20 3 20H21C21.5523 20 22 20.4477 22 21C22 21.5523 21.5523 22 21 22H3C2.44772 22 2 21.5523 2 21Z" fill="#1F2937"/>
<path fill-rule="evenodd" clip-rule="evenodd" d="M6 4.99622C5.73478 4.99622 5.48043 5.10157 5.29289 5.28911C5.10536 5.47665 5 5.731 5 5.99622V20.9962C5 21.5485 4.55228 21.9962 4 21.9962C3.44772 21.9962 3 21.5485 3 20.9962V5.99622C3 5.20057 3.31607 4.4375 3.87868 3.8749C4.44129 3.31229 5.20435 2.99622 6 2.99622H18C18.7956 2.99622 19.5587 3.31229 20.1213 3.8749C20.6839 4.4375 21 5.20057 21 5.99622V20.9962C21 21.5485 20.5523 21.9962 20 21.9962C19.4477 21.9962 19 21.5485 19 20.9962V5.99622C19 5.731 18.8946 5.47665 18.7071 5.28911C18.5196 5.10157 18.2652 4.99622 18 4.99622H6Z" fill="#1F2937"/>
<path fill-rule="evenodd" clip-rule="evenodd" d="M12 10.9962C11.4696 10.9962 10.9609 11.2069 10.5858 11.582C10.2107 11.9571 10 12.4658 10 12.9962V20.9962C10 21.5485 9.55228 21.9962 9 21.9962C8.44772 21.9962 8 21.5485 8 20.9962V12.9962C8 11.9354 8.42143 10.9179 9.17157 10.1678C9.92172 9.41764 10.9391 8.99622 12 8.99622C13.0609 8.99622 14.0783 9.41764 14.8284 10.1678C15.5786 10.9179 16 11.9354 16 12.9962V20.9962C16 21.5485 15.5523 21.9962 15 21.9962C14.4477 21.9962 14 21.5485 14 20.9962V12.9962C14 12.4658 13.7893 11.9571 13.4142 11.582C13.0391 11.2069 12.5304 10.9962 12 10.9962Z" fill="#1F2937"/>
</svg>
