<svg width="24" height="24" viewBox="0 0 24 24" fill="none" xmlns="http://www.w3.org/2000/svg">
<path fill-rule="evenodd" clip-rule="evenodd" d="M2 21C2 20.4477 2.44772 20 3 20H21C21.5523 20 22 20.4477 22 21C22 21.5523 21.5523 22 21 22H3C2.44772 22 2 21.5523 2 21Z" fill="#1F2937"/>
<path fill-rule="evenodd" clip-rule="evenodd" d="M2 9.99622C2 9.44393 2.44772 8.99622 3 8.99622H21C21.5523 8.99622 22 9.44393 22 9.99622C22 10.5485 21.5523 10.9962 21 10.9962H3C2.44772 10.9962 2 10.5485 2 9.99622Z" fill="#1F2937"/>
<path fill-rule="evenodd" clip-rule="evenodd" d="M11.6058 2.08085C11.8574 1.97305 12.1421 1.97305 12.3937 2.08085L19.3937 5.08085C19.9013 5.29841 20.1365 5.88629 19.9189 6.39392C19.7014 6.90155 19.1135 7.1367 18.6058 6.91915L11.9998 4.08797L5.39369 6.91915C4.88606 7.1367 4.29818 6.90155 4.08062 6.39392C3.86307 5.88629 4.09822 5.29841 4.60585 5.08085L11.6058 2.08085Z" fill="#1F2937"/>
<path fill-rule="evenodd" clip-rule="evenodd" d="M4 8.99622C4.55228 8.99622 5 9.44393 5 9.99622V20.9962C5 21.5485 4.55228 21.9962 4 21.9962C3.44772 21.9962 3 21.5485 3 20.9962V9.99622C3 9.44393 3.44772 8.99622 4 8.99622Z" fill="#1F2937"/>
<path fill-rule="evenodd" clip-rule="evenodd" d="M20 8.99622C20.5523 8.99622 21 9.44393 21 9.99622V20.9962C21 21.5485 20.5523 21.9962 20 21.9962C19.4477 21.9962 19 21.5485 19 20.9962V9.99622C19 9.44393 19.4477 8.99622 20 8.99622Z" fill="#1F2937"/>
<path fill-rule="evenodd" clip-rule="evenodd" d="M8 13.0038C8.55228 13.0038 9 13.4515 9 14.0038V17.0038C9 17.5561 8.55228 18.0038 8 18.0038C7.44772 18.0038 7 17.5561 7 17.0038V14.0038C7 13.4515 7.44772 13.0038 8 13.0038Z" fill="#1F2937"/>
<path fill-rule="evenodd" clip-rule="evenodd" d="M12 13.0038C12.5523 13.0038 13 13.4515 13 14.0038V17.0038C13 17.5561 12.5523 18.0038 12 18.0038C11.4477 18.0038 11 17.5561 11 17.0038V14.0038C11 13.4515 11.4477 13.0038 12 13.0038Z" fill="#1F2937"/>
<path fill-rule="evenodd" clip-rule="evenodd" d="M16 13.0038C16.5523 13.0038 17 13.4515 17 14.0038V17.0038C17 17.5561 16.5523 18.0038 16 18.0038C15.4477 18.0038 15 17.5561 15 17.0038V14.0038C15 13.4515 15.4477 13.0038 16 13.0038Z" fill="#1F2937"/>
</svg>
