<svg width="24" height="24" viewBox="0 0 24 24" fill="none" xmlns="http://www.w3.org/2000/svg">
<path fill-rule="evenodd" clip-rule="evenodd" d="M12 2C12.5523 2 13 2.44772 13 3V4C13 4.55228 12.5523 5 12 5C11.4477 5 11 4.55228 11 4V3C11 2.44772 11.4477 2 12 2ZM4.89289 4.89289C5.28342 4.50237 5.91658 4.50237 6.30711 4.89289L7.00711 5.59289C7.39763 5.98342 7.39763 6.61658 7.00711 7.00711C6.61658 7.39763 5.98342 7.39763 5.59289 7.00711L4.89289 6.30711C4.50237 5.91658 4.50237 5.28342 4.89289 4.89289ZM19.1071 4.89289C19.4976 5.28342 19.4976 5.91658 19.1071 6.30711L18.4071 7.00711C18.0166 7.39763 17.3834 7.39763 16.9929 7.00711C16.6024 6.61658 16.6024 5.98342 16.9929 5.59289L17.6929 4.89289C18.0834 4.50237 18.7166 4.50237 19.1071 4.89289ZM2 12C2 11.4477 2.44772 11 3 11H4C4.55228 11 5 11.4477 5 12C5 12.5523 4.55228 13 4 13H3C2.44772 13 2 12.5523 2 12ZM19 12C19 11.4477 19.4477 11 20 11H21C21.5523 11 22 11.4477 22 12C22 12.5523 21.5523 13 21 13H20C19.4477 13 19 12.5523 19 12Z" fill="#1F2937"/>
<path fill-rule="evenodd" clip-rule="evenodd" d="M12 7.99622C11.1605 7.99622 10.3422 8.26037 9.66116 8.75125C8.9801 9.24213 8.47075 9.93486 8.20527 10.7313C7.93978 11.5278 7.93163 12.3875 8.18195 13.1889C8.43079 13.9855 8.92252 14.6842 9.5881 15.1873C9.61035 15.2035 9.63208 15.2207 9.65322 15.239C9.67559 15.2583 9.69691 15.2783 9.71717 15.2991C10.2123 15.7935 10.5855 16.3966 10.8068 17.0606C11.0206 17.702 11.087 18.3829 11.0016 19.0528C11.0154 19.2974 11.1187 19.5292 11.2929 19.7033C11.4804 19.8909 11.7348 19.9962 12 19.9962C12.2652 19.9962 12.5196 19.8909 12.7071 19.7033C12.8813 19.5292 12.9846 19.2974 12.9984 19.0528C12.913 18.3829 12.9794 17.702 13.1932 17.0606C13.4165 16.3905 13.7945 15.7824 14.2965 15.2855C14.3289 15.2534 14.3635 15.2236 14.4 15.1962C15.0716 14.6925 15.5677 13.9902 15.8181 13.1889C16.0684 12.3875 16.0602 11.5278 15.7947 10.7313C15.5293 9.93486 15.0199 9.24213 14.3388 8.75125C13.6578 8.26037 12.8395 7.99622 12 7.99622ZM8.33839 16.7494C7.36222 15.9974 6.6407 14.9626 6.27292 13.7852C5.89744 12.5832 5.90968 11.2935 6.3079 10.0988C6.70612 8.90418 7.47014 7.86509 8.49174 7.12876C9.51333 6.39244 10.7407 5.99622 12 5.99622C13.2593 5.99622 14.4867 6.39244 15.5083 7.12876C16.5299 7.86509 17.2939 8.90418 17.6921 10.0988C18.0903 11.2935 18.1026 12.5832 17.7271 13.7852C17.3593 14.9626 16.6378 15.9974 15.6616 16.7494C15.4036 17.0173 15.2084 17.3397 15.0906 17.6931C14.9665 18.0653 14.9317 18.4616 14.9892 18.8498C14.9964 18.8983 15 18.9472 15 18.9962C15 19.7919 14.6839 20.5549 14.1213 21.1175C13.5587 21.6801 12.7957 21.9962 12 21.9962C11.2043 21.9962 10.4413 21.6801 9.87868 21.1175C9.31607 20.5549 9 19.7919 9 18.9962C9 18.9472 9.0036 18.8983 9.01078 18.8498C9.06825 18.4616 9.03354 18.0653 8.90945 17.6931C8.79165 17.3397 8.59645 17.0173 8.33839 16.7494Z" fill="#1F2937"/>
<path fill-rule="evenodd" clip-rule="evenodd" d="M8.7002 17.0038C8.7002 16.4515 9.14791 16.0038 9.7002 16.0038H14.3002C14.8525 16.0038 15.3002 16.4515 15.3002 17.0038C15.3002 17.5561 14.8525 18.0038 14.3002 18.0038H9.7002C9.14791 18.0038 8.7002 17.5561 8.7002 17.0038Z" fill="#1F2937"/>
</svg>
