<svg width="24" height="24" viewBox="0 0 24 24" fill="none" xmlns="http://www.w3.org/2000/svg">
<path fill-rule="evenodd" clip-rule="evenodd" d="M6 16C5.44772 16 5 16.4477 5 17C5 17.5523 5.44772 18 6 18C6.55228 18 7 17.5523 7 17C7 16.4477 6.55228 16 6 16ZM3 17C3 15.3431 4.34315 14 6 14C7.65685 14 9 15.3431 9 17C9 18.6569 7.65685 20 6 20C4.34315 20 3 18.6569 3 17Z" fill="#1F2937"/>
<path fill-rule="evenodd" clip-rule="evenodd" d="M18 16C17.4477 16 17 16.4477 17 17C17 17.5523 17.4477 18 18 18C18.5523 18 19 17.5523 19 17C19 16.4477 18.5523 16 18 16ZM15 17C15 15.3431 16.3431 14 18 14C19.6569 14 21 15.3431 21 17C21 18.6569 19.6569 20 18 20C16.3431 20 15 18.6569 15 17Z" fill="#1F2937"/>
<path fill-rule="evenodd" clip-rule="evenodd" d="M1.58579 4.58951C1.96086 4.21444 2.46957 4.00372 3 4.00372H17C18.7207 4.00372 20.2698 4.96145 21.3493 6.47274C22.4257 7.97979 23 9.97134 23 12.0037V17.0037C23 17.556 22.5523 18.0037 22 18.0037H2C1.44772 18.0037 1 17.556 1 17.0037V6.00372C1 5.47329 1.21071 4.96458 1.58579 4.58951ZM21 16.0037V12.0037C21 10.3231 20.5207 8.75367 19.7218 7.63521C18.9259 6.52099 17.9315 6.00372 17 6.00372L3 6.00372V16.0037H21Z" fill="#1F2937"/>
<path fill-rule="evenodd" clip-rule="evenodd" d="M15.7907 4.02594C16.3307 3.91022 16.8623 4.25419 16.978 4.79422L18.3086 11.0037H22.0002C22.5525 11.0037 23.0002 11.4515 23.0002 12.0037C23.0002 12.556 22.5525 13.0037 22.0002 13.0037H17.5002C17.0287 13.0037 16.6212 12.6743 16.5224 12.2133L15.0224 5.21328C14.9067 4.67325 15.2507 4.14166 15.7907 4.02594Z" fill="#1F2937"/>
<path fill-rule="evenodd" clip-rule="evenodd" d="M1 9.99628C1 9.44399 1.44772 8.99628 2 8.99628H17C17.5523 8.99628 18 9.44399 18 9.99628C18 10.5486 17.5523 10.9963 17 10.9963H2C1.44772 10.9963 1 10.5486 1 9.99628Z" fill="#1F2937"/>
<path fill-rule="evenodd" clip-rule="evenodd" d="M7 4.00372C7.55228 4.00372 8 4.45144 8 5.00372V10.0037C8 10.556 7.55228 11.0037 7 11.0037C6.44772 11.0037 6 10.556 6 10.0037V5.00372C6 4.45144 6.44772 4.00372 7 4.00372Z" fill="#1F2937"/>
<path fill-rule="evenodd" clip-rule="evenodd" d="M12 4.00372C12.5523 4.00372 13 4.45144 13 5.00372V10.0037C13 10.556 12.5523 11.0037 12 11.0037C11.4477 11.0037 11 10.556 11 10.0037V5.00372C11 4.45144 11.4477 4.00372 12 4.00372Z" fill="#1F2937"/>
</svg>
