<svg width="24" height="24" viewBox="0 0 24 24" fill="none" xmlns="http://www.w3.org/2000/svg">
<path fill-rule="evenodd" clip-rule="evenodd" d="M6 6.00374C5.44772 6.00374 5 6.45145 5 7.00374V19.0037C5 19.556 5.44772 20.0037 6 20.0037H18C18.5523 20.0037 19 19.556 19 19.0037V7.00374C19 6.45145 18.5523 6.00374 18 6.00374H6ZM3 7.00374C3 5.34688 4.34315 4.00374 6 4.00374H18C19.6569 4.00374 21 5.34688 21 7.00374V19.0037C21 20.6606 19.6569 22.0037 18 22.0037H6C4.34315 22.0037 3 20.6606 3 19.0037V7.00374Z" fill="#1F2937"/>
<path fill-rule="evenodd" clip-rule="evenodd" d="M16 2C16.5523 2 17 2.44772 17 3V7C17 7.55228 16.5523 8 16 8C15.4477 8 15 7.55228 15 7V3C15 2.44772 15.4477 2 16 2Z" fill="#1F2937"/>
<path fill-rule="evenodd" clip-rule="evenodd" d="M8 2C8.55228 2 9 2.44772 9 3V7C9 7.55228 8.55228 8 8 8C7.44772 8 7 7.55228 7 7V3C7 2.44772 7.44772 2 8 2Z" fill="#1F2937"/>
<path fill-rule="evenodd" clip-rule="evenodd" d="M3 11.0037C3 10.4515 3.44772 10.0037 4 10.0037H20C20.5523 10.0037 21 10.4515 21 11.0037C21 11.556 20.5523 12.0037 20 12.0037H4C3.44772 12.0037 3 11.556 3 11.0037Z" fill="#1F2937"/>
<path fill-rule="evenodd" clip-rule="evenodd" d="M9 15.9963C9 15.444 9.44772 14.9963 10 14.9963H14C14.5523 14.9963 15 15.444 15 15.9963C15 16.5485 14.5523 16.9963 14 16.9963H10C9.44772 16.9963 9 16.5485 9 15.9963Z" fill="#1F2937"/>
<path fill-rule="evenodd" clip-rule="evenodd" d="M12 13.0037C12.5523 13.0037 13 13.4515 13 14.0037V18.0037C13 18.556 12.5523 19.0037 12 19.0037C11.4477 19.0037 11 18.556 11 18.0037V14.0037C11 13.4515 11.4477 13.0037 12 13.0037Z" fill="#1F2937"/>
</svg>
