<svg width="24" height="24" viewBox="0 0 24 24" fill="none" xmlns="http://www.w3.org/2000/svg">
<path fill-rule="evenodd" clip-rule="evenodd" d="M6 6C5.73478 6 5.48043 6.10536 5.29289 6.29289C5.10536 6.48043 5 6.73478 5 7V19C5 19.2652 5.10536 19.5196 5.29289 19.7071C5.48043 19.8946 5.73478 20 6 20H10.5C11.0523 20 11.5 20.4477 11.5 21C11.5 21.5523 11.0523 22 10.5 22H6C5.20435 22 4.44129 21.6839 3.87868 21.1213C3.31607 20.5587 3 19.7956 3 19V7C3 6.20435 3.31607 5.44129 3.87868 4.87868C4.44129 4.31607 5.20435 4 6 4H18C18.7956 4 19.5587 4.31607 20.1213 4.87868C20.6839 5.44129 21 6.20435 21 7V10C21 10.5523 20.5523 11 20 11C19.4477 11 19 10.5523 19 10V7C19 6.73478 18.8946 6.48043 18.7071 6.29289C18.5196 6.10536 18.2652 6 18 6H6Z" fill="#1F2937"/>
<path fill-rule="evenodd" clip-rule="evenodd" d="M16 2C16.5523 2 17 2.44772 17 3V7C17 7.55228 16.5523 8 16 8C15.4477 8 15 7.55228 15 7V3C15 2.44772 15.4477 2 16 2Z" fill="#1F2937"/>
<path fill-rule="evenodd" clip-rule="evenodd" d="M8 2C8.55228 2 9 2.44772 9 3V7C9 7.55228 8.55228 8 8 8C7.44772 8 7 7.55228 7 7V3C7 2.44772 7.44772 2 8 2Z" fill="#1F2937"/>
<path fill-rule="evenodd" clip-rule="evenodd" d="M3 11C3 10.4477 3.44772 10 4 10H14C14.5523 10 15 10.4477 15 11C15 11.5523 14.5523 12 14 12H4C3.44772 12 3 11.5523 3 11Z" fill="#1F2937"/>
<path fill-rule="evenodd" clip-rule="evenodd" d="M14.4645 14.4645C15.4021 13.5268 16.6739 13 18 13C19.3261 13 20.5979 13.5268 21.5355 14.4645C22.4732 15.4021 23 16.6739 23 18C23 19.3261 22.4732 20.5979 21.5355 21.5355C20.5979 22.4732 19.3261 23 18 23C16.6739 23 15.4021 22.4732 14.4645 21.5355C13.5268 20.5979 13 19.3261 13 18C13 16.6739 13.5268 15.4021 14.4645 14.4645ZM18 15C17.2044 15 16.4413 15.3161 15.8787 15.8787C15.3161 16.4413 15 17.2044 15 18C15 18.7956 15.3161 19.5587 15.8787 20.1213C16.4413 20.6839 17.2044 21 18 21C18.7956 21 19.5587 20.6839 20.1213 20.1213C20.6839 19.5587 21 18.7956 21 18C21 17.2044 20.6839 16.4413 20.1213 15.8787C19.5587 15.3161 18.7956 15 18 15Z" fill="#1F2937"/>
<path fill-rule="evenodd" clip-rule="evenodd" d="M18 15.5C18.5523 15.5 19 15.9477 19 16.5V17.5858L19.2071 17.7929C19.5976 18.1834 19.5976 18.8166 19.2071 19.2071C18.8166 19.5976 18.1834 19.5976 17.7929 19.2071L17.2929 18.7071C17.1054 18.5196 17 18.2652 17 18V16.5C17 15.9477 17.4477 15.5 18 15.5Z" fill="#1F2937"/>
</svg>
