<svg width="18" height="18" viewBox="0 0 18 18" fill="none" xmlns="http://www.w3.org/2000/svg">
<g id="icons/phone/">
<path id="Vector (Stroke)" fill-rule="evenodd" clip-rule="evenodd" d="M3.75 3.75562C3.55109 3.75562 3.36032 3.83463 3.21967 3.97529C3.08356 4.1114 3.00516 4.29445 3.00025 4.48639C3.17274 7.21934 4.33619 9.79591 6.27295 11.7327C8.20971 13.6694 10.7863 14.8329 13.5192 15.0054C13.7112 15.0005 13.8942 14.9221 14.0303 14.7859C14.171 14.6453 14.25 14.4545 14.25 14.2556V11.7634L11.5645 10.6892L10.7681 12.0165C10.5673 12.3512 10.1433 12.4759 9.79326 12.3033C8.01656 11.427 6.57859 9.98906 5.70235 8.21235C5.52971 7.86228 5.65443 7.43832 5.98913 7.2375L7.31643 6.44112L6.24223 3.75562H3.75ZM2.15901 2.91462C2.58097 2.49267 3.15326 2.25562 3.75 2.25562H6.75C7.05668 2.25562 7.33246 2.44233 7.44636 2.72707L8.94636 6.47707C9.08307 6.81886 8.95153 7.20934 8.63587 7.39874L7.38037 8.15203C7.99827 9.15975 8.84586 10.0073 9.85358 10.6252L10.6069 9.36974C10.7963 9.05409 11.1868 8.92254 11.5285 9.05926L15.2785 10.5593C15.5633 10.6732 15.75 10.9489 15.75 11.2556V14.2556C15.75 14.8524 15.5129 15.4246 15.091 15.8466C14.669 16.2686 14.0967 16.5056 13.5 16.5056C13.4848 16.5056 13.4697 16.5052 13.4545 16.5042C10.3461 16.3153 7.41432 14.9953 5.21229 12.7933C3.01027 10.5913 1.69028 7.65951 1.50138 4.55111C1.50046 4.53596 1.5 4.52079 1.5 4.50562C1.5 3.90888 1.73705 3.33658 2.15901 2.91462Z" fill="white"/>
<path id="Vector (Stroke)_2" fill-rule="evenodd" clip-rule="evenodd" d="M10.5 5.25562C10.5 4.8414 10.8358 4.50562 11.25 4.50562C11.8467 4.50562 12.419 4.74267 12.841 5.16462C13.2629 5.58658 13.5 6.15888 13.5 6.75562C13.5 7.16983 13.1642 7.50562 12.75 7.50562C12.3358 7.50562 12 7.16983 12 6.75562C12 6.5567 11.921 6.36594 11.7803 6.22528C11.6397 6.08463 11.4489 6.00562 11.25 6.00562C10.8358 6.00562 10.5 5.66983 10.5 5.25562Z" fill="white"/>
<path id="Vector (Stroke)_3" fill-rule="evenodd" clip-rule="evenodd" d="M10.5 2.25C10.5 1.83579 10.8358 1.5 11.25 1.5C12.6424 1.5 13.9777 2.05312 14.9623 3.03769C15.9469 4.02226 16.5 5.35761 16.5 6.75C16.5 7.16421 16.1642 7.5 15.75 7.5C15.3358 7.5 15 7.16421 15 6.75C15 5.75544 14.6049 4.80161 13.9017 4.09835C13.1984 3.39509 12.2446 3 11.25 3C10.8358 3 10.5 2.66421 10.5 2.25Z" fill="white"/>
</g>
</svg>
