<svg width="24" height="24" viewBox="0 0 24 24" fill="none" xmlns="http://www.w3.org/2000/svg">
<path fill-rule="evenodd" clip-rule="evenodd" d="M7.58579 3.59329C7.96086 3.21822 8.46957 3.00751 9 3.00751H15C15.5304 3.00751 16.0391 3.21822 16.4142 3.59329C16.7893 3.96837 17 4.47707 17 5.00751C17 5.27272 17.1054 5.52708 17.2929 5.71461C17.4804 5.90215 17.7348 6.00751 18 6.00751H19C19.7957 6.00751 20.5587 6.32358 21.1213 6.88619C21.6839 7.4488 22 8.21186 22 9.00751V18.0075C22 18.8032 21.6839 19.5662 21.1213 20.1288C20.5587 20.6914 19.7957 21.0075 19 21.0075H5C4.20435 21.0075 3.44129 20.6914 2.87868 20.1288C2.31607 19.5662 2 18.8032 2 18.0075V9.00751C2 8.21186 2.31607 7.4488 2.87868 6.88619C3.44129 6.32358 4.20435 6.00751 5 6.00751H6C6.26522 6.00751 6.51957 5.90215 6.70711 5.71461C6.89464 5.52708 7 5.27272 7 5.00751C7 4.47707 7.21071 3.96837 7.58579 3.59329ZM5 8.00751C4.73478 8.00751 4.48043 8.11286 4.29289 8.3004C4.10536 8.48794 4 8.74229 4 9.00751V18.0075C4 18.2727 4.10536 18.5271 4.29289 18.7146C4.48043 18.9022 4.73478 19.0075 5 19.0075H19C19.2652 19.0075 19.5196 18.9022 19.7071 18.7146C19.8946 18.5271 20 18.2727 20 18.0075V9.00751C20 8.74229 19.8946 8.48794 19.7071 8.3004C19.5196 8.11286 19.2652 8.00751 19 8.00751H18C17.2044 8.00751 16.4413 7.69144 15.8787 7.12883C15.3161 6.56622 15 5.80316 15 5.00751L9 5.00751C9 5.80316 8.68393 6.56622 8.12132 7.12883C7.55871 7.69144 6.79565 8.00751 6 8.00751H5Z" fill="#1F2937"/>
<path fill-rule="evenodd" clip-rule="evenodd" d="M12 11.0075C10.8954 11.0075 10 11.9029 10 13.0075C10 14.1121 10.8954 15.0075 12 15.0075C13.1046 15.0075 14 14.1121 14 13.0075C14 11.9029 13.1046 11.0075 12 11.0075ZM8 13.0075C8 10.7984 9.79086 9.00751 12 9.00751C14.2091 9.00751 16 10.7984 16 13.0075C16 15.2166 14.2091 17.0075 12 17.0075C9.79086 17.0075 8 15.2166 8 13.0075Z" fill="#1F2937"/>
</svg>
