<svg width="24" height="24" viewBox="0 0 24 24" fill="none" xmlns="http://www.w3.org/2000/svg">
<path fill-rule="evenodd" clip-rule="evenodd" d="M7 16C6.44772 16 6 16.4477 6 17C6 17.5523 6.44772 18 7 18C7.55228 18 8 17.5523 8 17C8 16.4477 7.55228 16 7 16ZM4 17C4 15.3431 5.34315 14 7 14C8.65685 14 10 15.3431 10 17C10 18.6569 8.65685 20 7 20C5.34315 20 4 18.6569 4 17Z" fill="#1F2937"/>
<path fill-rule="evenodd" clip-rule="evenodd" d="M17 16C16.4477 16 16 16.4477 16 17C16 17.5523 16.4477 18 17 18C17.5523 18 18 17.5523 18 17C18 16.4477 17.5523 16 17 16ZM14 17C14 15.3431 15.3431 14 17 14C18.6569 14 20 15.3431 20 17C20 18.6569 18.6569 20 17 20C15.3431 20 14 18.6569 14 17Z" fill="#1F2937"/>
<path fill-rule="evenodd" clip-rule="evenodd" d="M4.07152 5.62861C4.22339 5.24895 4.5911 5 5 5H14C14.3038 5 14.5911 5.13809 14.7809 5.3753L18.4806 10H19C19.7957 10 20.5587 10.3161 21.1213 10.8787C21.6839 11.4413 22 12.2043 22 13V17C22 17.5523 21.5523 18 21 18H3C2.44772 18 2 17.5523 2 17V11C2 10.8607 2.02848 10.728 2.07994 10.6076L4.07152 5.62861ZM4 12H19C19.2652 12 19.5196 12.1054 19.7071 12.2929C19.8946 12.4804 20 12.7348 20 13V16H4V12ZM15.9194 10H13V7H13.5194L15.9194 10ZM11 7H5.67703L4.47703 10H11V7Z" fill="#1F2937"/>
</svg>
