<svg width="24" height="24" viewBox="0 0 24 24" fill="none" xmlns="http://www.w3.org/2000/svg">
<path fill-rule="evenodd" clip-rule="evenodd" d="M9 10C8.44772 10 8 10.4477 8 11V17C8 17.5523 8.44772 18 9 18H19C19.5523 18 20 17.5523 20 17V11C20 10.4477 19.5523 10 19 10H9ZM6 11C6 9.34315 7.34315 8 9 8H19C20.6569 8 22 9.34315 22 11V17C22 18.6569 20.6569 20 19 20H9C7.34315 20 6 18.6569 6 17V11Z" fill="#1F2937"/>
<path fill-rule="evenodd" clip-rule="evenodd" d="M14 13C13.4477 13 13 13.4477 13 14C13 14.5523 13.4477 15 14 15C14.5523 15 15 14.5523 15 14C15 13.4477 14.5523 13 14 13ZM11 14C11 12.3431 12.3431 11 14 11C15.6569 11 17 12.3431 17 14C17 15.6569 15.6569 17 14 17C12.3431 17 11 15.6569 11 14Z" fill="#1F2937"/>
<path fill-rule="evenodd" clip-rule="evenodd" d="M2.87868 4.87117C3.44129 4.30856 4.20435 3.99249 5 3.99249H15C15.7956 3.99249 16.5587 4.30856 17.1213 4.87117C17.6839 5.43378 18 6.19684 18 6.99249V8.99249C18 9.54478 17.5523 9.99249 17 9.99249C16.4477 9.99249 16 9.54478 16 8.99249V6.99249C16 6.72728 15.8946 6.47292 15.7071 6.28539C15.5196 6.09785 15.2652 5.99249 15 5.99249H5C4.73478 5.99249 4.48043 6.09785 4.29289 6.28539C4.10536 6.47292 4 6.72728 4 6.99249V12.9925C4 13.2577 4.10536 13.5121 4.29289 13.6996C4.48043 13.8871 4.73478 13.9925 5 13.9925H7C7.55228 13.9925 8 14.4402 8 14.9925C8 15.5448 7.55228 15.9925 7 15.9925H5C4.20435 15.9925 3.44129 15.6764 2.87868 15.1138C2.31607 14.5512 2 13.7881 2 12.9925V6.99249C2 6.19684 2.31607 5.43378 2.87868 4.87117Z" fill="#1F2937"/>
</svg>
