<svg width="24" height="24" viewBox="0 0 24 24" fill="none" xmlns="http://www.w3.org/2000/svg">
<path fill-rule="evenodd" clip-rule="evenodd" d="M2 19.0075C2 18.4552 2.44772 18.0075 3 18.0075H3.01C3.56228 18.0075 4.01 18.4552 4.01 19.0075C4.01 19.5598 3.56228 20.0075 3.01 20.0075H3C2.44772 20.0075 2 19.5598 2 19.0075Z" fill="#1F2937"/>
<path fill-rule="evenodd" clip-rule="evenodd" d="M2 15C2 14.4477 2.44772 14 3 14C4.32608 14 5.59785 14.5268 6.53553 15.4645C7.47322 16.4021 8 17.6739 8 19C8 19.5523 7.55228 20 7 20C6.44772 20 6 19.5523 6 19C6 18.2044 5.68393 17.4413 5.12132 16.8787C4.55871 16.3161 3.79565 16 3 16C2.44772 16 2 15.5523 2 15Z" fill="#1F2937"/>
<path fill-rule="evenodd" clip-rule="evenodd" d="M2 10.9925C2 10.4402 2.44772 9.99249 3 9.99249C5.38695 9.99249 7.67613 10.9407 9.36396 12.6285C11.0518 14.3164 12 16.6055 12 18.9925C12 19.5448 11.5523 19.9925 11 19.9925C10.4477 19.9925 10 19.5448 10 18.9925C10 17.136 9.2625 15.3555 7.94975 14.0427C6.63699 12.73 4.85652 11.9925 3 11.9925C2.44772 11.9925 2 11.5448 2 10.9925Z" fill="#1F2937"/>
<path fill-rule="evenodd" clip-rule="evenodd" d="M5.99998 3.99249V3.99254H18C19.0608 3.99254 20.0783 4.41397 20.8284 5.16411C21.5786 5.91426 22 6.93167 22 7.99254V15.9925C22 17.0534 21.5786 18.0708 20.8284 18.821C20.0783 19.5711 19.0608 19.9925 18 19.9925H15C14.4477 19.9925 14 19.5448 14 18.9925C14 18.4403 14.4477 17.9925 15 17.9925H18C18.5304 17.9925 19.0391 17.7818 19.4142 17.4068C19.7893 17.0317 20 16.523 20 15.9925V7.99254C20 7.4621 19.7893 6.9534 19.4142 6.57832C19.0391 6.20325 18.5304 5.99254 18 5.99254H6.0052C5.59636 5.99729 5.19875 6.12724 4.86598 6.36494C4.53205 6.60346 4.27957 6.93892 4.1428 7.32583C3.95873 7.84653 3.3874 8.11943 2.86669 7.93536C2.34598 7.75129 2.07308 7.17996 2.25715 6.65925C2.53069 5.88544 3.03564 5.21451 3.7035 4.73747C4.37136 4.26043 5.16979 4.00037 5.99049 3.99258L5.99998 3.99249Z" fill="#1F2937"/>
</svg>
