<svg width="24" height="24" viewBox="0 0 24 24" fill="none" xmlns="http://www.w3.org/2000/svg">
<path fill-rule="evenodd" clip-rule="evenodd" d="M15.9447 9.00904C16.2287 8.99331 16.506 9.09927 16.7071 9.3004L20.7071 13.3004C20.8946 13.4879 21 13.7423 21 14.0075V19.0075C21 19.5598 20.5523 20.0075 20 20.0075H4C3.63121 20.0075 3.29235 19.8045 3.11833 19.4794C2.94431 19.1542 2.96338 18.7597 3.16795 18.4528L7.16795 12.4528C7.4477 12.0332 7.99613 11.8875 8.44722 12.1131L11.7241 13.7515L15.2191 9.38281C15.3968 9.1607 15.6607 9.02477 15.9447 9.00904ZM16.0829 11.5046L12.7809 15.6322C12.4863 16.0004 11.9745 16.1128 11.5528 15.9019L8.34237 14.2967L5.86852 18.0075H19V14.4217L16.0829 11.5046Z" fill="#1F2937"/>
<path fill-rule="evenodd" clip-rule="evenodd" d="M15.9547 3.00854C16.2354 2.9958 16.5085 3.10173 16.7072 3.3004L20.7072 7.3004C21.0977 7.69093 21.0977 8.32409 20.7072 8.71462C20.3166 9.10514 19.6835 9.10514 19.293 8.71462L16.0673 5.48892L11.7683 10.6477C11.4712 11.0042 10.9679 11.1095 10.5528 10.9019L7.29931 9.27517L4.80006 12.6075C4.46869 13.0493 3.84189 13.1389 3.40006 12.8075C2.95823 12.4761 2.86869 11.8493 3.20006 11.4075L6.20006 7.40751C6.49003 7.02088 7.01501 6.89695 7.44727 7.11308L10.7389 8.75888L15.2318 3.36732C15.4117 3.15148 15.6741 3.02127 15.9547 3.00854Z" fill="#1F2937"/>
</svg>
