<svg width="24" height="24" viewBox="0 0 24 24" fill="none" xmlns="http://www.w3.org/2000/svg">
<path fill-rule="evenodd" clip-rule="evenodd" d="M3 19.0075C3 18.4552 3.44772 18.0075 4 18.0075H20C20.5523 18.0075 21 18.4552 21 19.0075C21 19.5598 20.5523 20.0075 20 20.0075H4C3.44772 20.0075 3 19.5598 3 19.0075Z" fill="#1F2937"/>
<path fill-rule="evenodd" clip-rule="evenodd" d="M15.9447 5.00153C16.2287 4.9858 16.506 5.09176 16.7071 5.2929L20.7071 9.2929C20.8946 9.48043 21 9.73479 21 10V15C21 15.5523 20.5523 16 20 16H4C3.63121 16 3.29235 15.797 3.11833 15.4719C2.94431 15.1467 2.96338 14.7522 3.16795 14.4453L7.16795 8.4453C7.4477 8.02568 7.99613 7.88003 8.44722 8.10557L11.7241 9.74404L15.2191 5.37531C15.3968 5.15319 15.6607 5.01726 15.9447 5.00153ZM16.0829 7.49713L12.7809 11.6247C12.4863 11.9929 11.9745 12.1053 11.5528 11.8944L8.34237 10.2892L5.86852 14H19V10.4142L16.0829 7.49713Z" fill="#1F2937"/>
</svg>
