<svg width="24" height="24" viewBox="0 0 24 24" fill="none" xmlns="http://www.w3.org/2000/svg">
<path fill-rule="evenodd" clip-rule="evenodd" d="M9.88315 2.20021C10.1329 2.17089 10.386 2.19146 10.6278 2.2607C10.8696 2.32995 11.0952 2.4465 11.2915 2.60361C11.4879 2.76071 11.6512 2.95523 11.7718 3.1759C11.8924 3.39656 11.968 3.63898 11.9943 3.8891C11.9979 3.92374 11.9997 3.95856 11.9997 3.99339V10.9934C11.9997 11.2586 12.1051 11.513 12.2926 11.7005C12.4801 11.888 12.7345 11.9934 12.9997 11.9934H19.7997C20.3301 11.9934 20.8389 12.2041 21.2139 12.5792C21.589 12.9543 21.7997 13.463 21.7997 13.9934C21.7997 14.0694 21.791 14.1452 21.7739 14.2192C21.3709 15.9573 20.5103 17.556 19.2813 18.8494C18.0522 20.1427 16.4995 21.0837 14.7842 21.5747C13.0689 22.0658 11.2535 22.0889 9.52623 21.6418C7.79897 21.1947 6.22278 20.2936 4.96116 19.032C3.69954 17.7703 2.79844 16.1941 2.35132 14.4669C1.9042 12.7396 1.92735 10.9242 2.41836 9.20887C2.90938 7.49356 3.85037 5.94086 5.14375 4.71182C6.43713 3.48278 8.03578 2.62216 9.77388 2.21923C9.80993 2.21087 9.84641 2.20452 9.88315 2.20021ZM9.99972 4.22338C8.69669 4.56566 7.49988 5.23187 6.52145 6.16163C5.48674 7.14487 4.73395 8.38703 4.34113 9.75927C3.94832 11.1315 3.9298 12.5839 4.2875 13.9657C4.6452 15.3475 5.36608 16.6084 6.37537 17.6177C7.38467 18.627 8.64562 19.3479 10.0274 19.7056C11.4092 20.0633 12.8616 20.0448 14.2338 19.652C15.6061 19.2592 16.8482 18.5064 17.8315 17.4717C18.7612 16.4932 19.4275 15.2964 19.7697 13.9934H12.9997C12.2041 13.9934 11.441 13.6773 10.8784 13.1147C10.3158 12.5521 9.99972 11.789 9.99972 10.9934V4.22338Z" fill="#1F2937"/>
<path fill-rule="evenodd" clip-rule="evenodd" d="M14.4221 2.67643C14.6869 2.48897 15.0261 2.44158 15.3321 2.54932C16.7429 3.04608 18.0243 3.85299 19.0819 4.91061C20.1396 5.96824 20.9465 7.24963 21.4432 8.66044C21.551 8.96643 21.5036 9.30568 21.3161 9.57043C21.1287 9.83519 20.8244 9.99256 20.5 9.99256H16C15.4696 9.99256 14.9609 9.78185 14.5858 9.40677C14.2107 9.0317 14 8.52299 14 7.99256V3.49256C14 3.16815 14.1574 2.8639 14.4221 2.67643ZM16 5.04721V7.99256H18.9454C18.5957 7.38474 18.1666 6.82367 17.6677 6.32483C17.1689 5.82599 16.6078 5.39686 16 5.04721Z" fill="#1F2937"/>
</svg>
