<svg width="24" height="24" viewBox="0 0 24 24" fill="none" xmlns="http://www.w3.org/2000/svg">
<path fill-rule="evenodd" clip-rule="evenodd" d="M3 19.0074C3 18.4552 3.44772 18.0074 4 18.0074H20C20.5523 18.0074 21 18.4552 21 19.0074C21 19.5597 20.5523 20.0074 20 20.0074H4C3.44772 20.0074 3 19.5597 3 19.0074Z" fill="#1F2937"/>
<path fill-rule="evenodd" clip-rule="evenodd" d="M15.9448 5.00153C16.2288 4.9858 16.5061 5.09176 16.7072 5.2929L20.7072 9.2929C21.0977 9.68342 21.0977 10.3166 20.7072 10.7071C20.3167 11.0976 19.6835 11.0976 19.293 10.7071L16.083 7.49713L12.781 11.6247C12.4864 11.9929 11.9746 12.1053 11.5529 11.8944L8.34248 10.2892L4.83216 15.5547C4.5258 16.0142 3.90493 16.1384 3.44541 15.8321C2.98588 15.5257 2.8617 14.9048 3.16806 14.4453L7.16806 8.4453C7.4478 8.02568 7.99624 7.88003 8.44732 8.10557L11.7243 9.74404L15.2192 5.37531C15.3969 5.15319 15.6608 5.01726 15.9448 5.00153Z" fill="#1F2937"/>
</svg>
