<svg width="24" height="24" viewBox="0 0 24 24" fill="none" xmlns="http://www.w3.org/2000/svg">
<path fill-rule="evenodd" clip-rule="evenodd" d="M2 13C2 11.8954 2.89543 11 4 11H8C9.10457 11 10 11.8954 10 13V19C10 20.1046 9.10457 21 8 21H4C2.89543 21 2 20.1046 2 19V13ZM8 13H4V19H8V13Z" fill="#1F2937"/>
<path fill-rule="evenodd" clip-rule="evenodd" d="M8 8.99255C8 7.88798 8.89543 6.99255 10 6.99255H14C15.1046 6.99255 16 7.88798 16 8.99255V18.9926C16 20.0971 15.1046 20.9926 14 20.9926H10C8.89543 20.9926 8 20.0971 8 18.9926V8.99255ZM14 8.99255H10V18.9926H14V8.99255Z" fill="#1F2937"/>
<path fill-rule="evenodd" clip-rule="evenodd" d="M14 5.00745C14 3.90288 14.8954 3.00745 16 3.00745H20C21.1046 3.00745 22 3.90288 22 5.00745V19.0074C22 20.112 21.1046 21.0074 20 21.0074H16C14.8954 21.0074 14 20.112 14 19.0074V5.00745ZM20 5.00745H16V19.0074H20V5.00745Z" fill="#1F2937"/>
<path fill-rule="evenodd" clip-rule="evenodd" d="M3 19.9926C3 19.4403 3.44772 18.9926 4 18.9926H18C18.5523 18.9926 19 19.4403 19 19.9926C19 20.5448 18.5523 20.9926 18 20.9926H4C3.44772 20.9926 3 20.5448 3 19.9926Z" fill="#1F2937"/>
</svg>
