<svg width="24" height="24" viewBox="0 0 24 24" fill="none" xmlns="http://www.w3.org/2000/svg">
<path fill-rule="evenodd" clip-rule="evenodd" d="M3 7C3 5.89543 3.89543 5 5 5H7C8.10457 5 9 5.89543 9 7V10C9 11.1046 8.10457 12 7 12H5C3.89543 12 3 11.1046 3 10V7ZM7 7H5V10H7V7Z" fill="#1F2937"/>
<path fill-rule="evenodd" clip-rule="evenodd" d="M6 3.00751C6.55228 3.00751 7 3.45522 7 4.00751V6.00751C7 6.55979 6.55228 7.00751 6 7.00751C5.44772 7.00751 5 6.55979 5 6.00751V4.00751C5 3.45522 5.44772 3.00751 6 3.00751Z" fill="#1F2937"/>
<path fill-rule="evenodd" clip-rule="evenodd" d="M6 9.99249C6.55228 9.99249 7 10.4402 7 10.9925V19.9925C7 20.5448 6.55228 20.9925 6 20.9925C5.44772 20.9925 5 20.5448 5 19.9925V10.9925C5 10.4402 5.44772 9.99249 6 9.99249Z" fill="#1F2937"/>
<path fill-rule="evenodd" clip-rule="evenodd" d="M9 14.9925C9 13.8879 9.89543 12.9925 11 12.9925H13C14.1046 12.9925 15 13.8879 15 14.9925V17.9925C15 19.0971 14.1046 19.9925 13 19.9925H11C9.89543 19.9925 9 19.0971 9 17.9925V14.9925ZM13 14.9925L11 14.9925V17.9925H13V14.9925Z" fill="#1F2937"/>
<path fill-rule="evenodd" clip-rule="evenodd" d="M12 3.00751C12.5523 3.00751 13 3.45522 13 4.00751V14.0075C13 14.5598 12.5523 15.0075 12 15.0075C11.4477 15.0075 11 14.5598 11 14.0075V4.00751C11 3.45522 11.4477 3.00751 12 3.00751Z" fill="#1F2937"/>
<path fill-rule="evenodd" clip-rule="evenodd" d="M12 18.0075C12.5523 18.0075 13 18.4552 13 19.0075V20.0075C13 20.5598 12.5523 21.0075 12 21.0075C11.4477 21.0075 11 20.5598 11 20.0075V19.0075C11 18.4552 11.4477 18.0075 12 18.0075Z" fill="#1F2937"/>
<path fill-rule="evenodd" clip-rule="evenodd" d="M15 5.99249C15 4.88792 15.8954 3.99249 17 3.99249H19C20.1046 3.99249 21 4.88792 21 5.99249V9.99249C21 11.0971 20.1046 11.9925 19 11.9925H17C15.8954 11.9925 15 11.0971 15 9.99249V5.99249ZM19 5.99249H17V9.99249H19V5.99249Z" fill="#1F2937"/>
<path fill-rule="evenodd" clip-rule="evenodd" d="M18 3.00751C18.5523 3.00751 19 3.45522 19 4.00751V5.00751C19 5.55979 18.5523 6.00751 18 6.00751C17.4477 6.00751 17 5.55979 17 5.00751V4.00751C17 3.45522 17.4477 3.00751 18 3.00751Z" fill="#1F2937"/>
<path fill-rule="evenodd" clip-rule="evenodd" d="M18 9.99249C18.5523 9.99249 19 10.4402 19 10.9925V19.9925C19 20.5448 18.5523 20.9925 18 20.9925C17.4477 20.9925 17 20.5448 17 19.9925V10.9925C17 10.4402 17.4477 9.99249 18 9.99249Z" fill="#1F2937"/>
</svg>
