<svg width="24" height="24" viewBox="0 0 24 24" fill="none" xmlns="http://www.w3.org/2000/svg">
<path fill-rule="evenodd" clip-rule="evenodd" d="M6.79289 3.79289C7.18342 3.40237 7.81658 3.40237 8.20711 3.79289C8.59763 4.18342 8.59763 4.81658 8.20711 5.20711L5.70711 7.70711C5.31658 8.09763 4.68342 8.09763 4.29289 7.70711L2.79289 6.20711C2.40237 5.81658 2.40237 5.18342 2.79289 4.79289C3.18342 4.40237 3.81658 4.40237 4.20711 4.79289L5 5.58579L6.79289 3.79289Z" fill="#1F2937"/>
<path fill-rule="evenodd" clip-rule="evenodd" d="M6.79289 9.79289C7.18342 9.40237 7.81658 9.40237 8.20711 9.79289C8.59763 10.1834 8.59763 10.8166 8.20711 11.2071L5.70711 13.7071C5.31658 14.0976 4.68342 14.0976 4.29289 13.7071L2.79289 12.2071C2.40237 11.8166 2.40237 11.1834 2.79289 10.7929C3.18342 10.4024 3.81658 10.4024 4.20711 10.7929L5 11.5858L6.79289 9.79289Z" fill="#1F2937"/>
<path fill-rule="evenodd" clip-rule="evenodd" d="M6.79289 15.7929C7.18342 15.4024 7.81658 15.4024 8.20711 15.7929C8.59763 16.1834 8.59763 16.8166 8.20711 17.2071L5.70711 19.7071C5.31658 20.0976 4.68342 20.0976 4.29289 19.7071L2.79289 18.2071C2.40237 17.8166 2.40237 17.1834 2.79289 16.7929C3.18342 16.4024 3.81658 16.4024 4.20711 16.7929L5 17.5858L6.79289 15.7929Z" fill="#1F2937"/>
<path fill-rule="evenodd" clip-rule="evenodd" d="M10 6C10 5.44772 10.4477 5 11 5H20C20.5523 5 21 5.44772 21 6C21 6.55228 20.5523 7 20 7H11C10.4477 7 10 6.55228 10 6Z" fill="#1F2937"/>
<path fill-rule="evenodd" clip-rule="evenodd" d="M10 12C10 11.4477 10.4477 11 11 11H20C20.5523 11 21 11.4477 21 12C21 12.5523 20.5523 13 20 13H11C10.4477 13 10 12.5523 10 12Z" fill="#1F2937"/>
<path fill-rule="evenodd" clip-rule="evenodd" d="M10 18C10 17.4477 10.4477 17 11 17H20C20.5523 17 21 17.4477 21 18C21 18.5523 20.5523 19 20 19H11C10.4477 19 10 18.5523 10 18Z" fill="#1F2937"/>
</svg>
