<svg width="24" height="24" viewBox="0 0 24 24" fill="none" xmlns="http://www.w3.org/2000/svg">
<path fill-rule="evenodd" clip-rule="evenodd" d="M22.7071 6.30034C23.0976 6.69086 23.0976 7.32403 22.7071 7.71455L12.7071 17.7146C12.3166 18.1051 11.6834 18.1051 11.2929 17.7146L6.29289 12.7146C5.90237 12.324 5.90237 11.6909 6.29289 11.3003C6.68342 10.9098 7.31658 10.9098 7.70711 11.3003L12 15.5932L21.2929 6.30034C21.6834 5.90982 22.3166 5.90982 22.7071 6.30034Z" fill="#1F2937"/>
<path fill-rule="evenodd" clip-rule="evenodd" d="M17.7071 6.30034C18.0976 6.69086 18.0976 7.32403 17.7071 7.71455L12.7071 12.7146C12.3166 13.1051 11.6834 13.1051 11.2929 12.7146C10.9024 12.324 10.9024 11.6909 11.2929 11.3003L16.2929 6.30034C16.6834 5.90982 17.3166 5.90982 17.7071 6.30034ZM1.29289 11.3003C1.68342 10.9098 2.31658 10.9098 2.70711 11.3003L7.70711 16.3003C8.09763 16.6909 8.09763 17.324 7.70711 17.7146C7.31658 18.1051 6.68342 18.1051 6.29289 17.7146L1.29289 12.7146C0.902369 12.324 0.902369 11.6909 1.29289 11.3003Z" fill="#1F2937"/>
</svg>
