<svg width="24" height="24" viewBox="0 0 24 24" fill="none" xmlns="http://www.w3.org/2000/svg">
<path fill-rule="evenodd" clip-rule="evenodd" d="M20.7071 5.29289C21.0976 5.68342 21.0976 6.31658 20.7071 6.70711L12.7071 14.7071C12.3166 15.0976 11.6834 15.0976 11.2929 14.7071L8.29289 11.7071C7.90237 11.3166 7.90237 10.6834 8.29289 10.2929C8.68342 9.90237 9.31658 9.90237 9.70711 10.2929L12 12.5858L19.2929 5.29289C19.6834 4.90237 20.3166 4.90237 20.7071 5.29289Z" fill="#1F2937"/>
<path fill-rule="evenodd" clip-rule="evenodd" d="M6 5.00745C5.73478 5.00745 5.48043 5.1128 5.29289 5.30034C5.10536 5.48788 5 5.74223 5 6.00745V18.0074C5 18.2727 5.10536 18.527 5.29289 18.7146C5.48043 18.9021 5.73478 19.0074 6 19.0074H18C18.2652 19.0074 18.5196 18.9021 18.7071 18.7146C18.8946 18.527 19 18.2727 19 18.0074V12.0074C19 11.4552 19.4477 11.0074 20 11.0074C20.5523 11.0074 21 11.4552 21 12.0074V18.0074C21 18.8031 20.6839 19.5662 20.1213 20.1288C19.5587 20.6914 18.7957 21.0074 18 21.0074H6C5.20435 21.0074 4.44129 20.6914 3.87868 20.1288C3.31607 19.5662 3 18.8031 3 18.0074V6.00745C3 5.2118 3.31607 4.44874 3.87868 3.88613C4.44129 3.32352 5.20435 3.00745 6 3.00745H15C15.5523 3.00745 16 3.45516 16 4.00745C16 4.55973 15.5523 5.00745 15 5.00745H6Z" fill="#1F2937"/>
</svg>
