<svg width="24" height="24" viewBox="0 0 24 24" fill="none" xmlns="http://www.w3.org/2000/svg">
<path fill-rule="evenodd" clip-rule="evenodd" d="M6.29289 6.3004C6.68342 5.90988 7.31658 5.90988 7.70711 6.3004L12 10.5933L16.2929 6.3004C16.6834 5.90988 17.3166 5.90988 17.7071 6.3004C18.0976 6.69092 18.0976 7.32409 17.7071 7.71461L12.7071 12.7146C12.5196 12.9022 12.2652 13.0075 12 13.0075C11.7348 13.0075 11.4804 12.9022 11.2929 12.7146L6.29289 7.71461C5.90237 7.32409 5.90237 6.69092 6.29289 6.3004Z" fill="#1F2937"/>
<path fill-rule="evenodd" clip-rule="evenodd" d="M6.29289 12.3004C6.68342 11.9099 7.31658 11.9099 7.70711 12.3004L12 16.5933L16.2929 12.3004C16.6834 11.9099 17.3166 11.9099 17.7071 12.3004C18.0976 12.6909 18.0976 13.3241 17.7071 13.7146L12.7071 18.7146C12.3166 19.1051 11.6834 19.1051 11.2929 18.7146L6.29289 13.7146C5.90237 13.3241 5.90237 12.6909 6.29289 12.3004Z" fill="#1F2937"/>
</svg>
