<svg width="24" height="24" viewBox="0 0 24 24" fill="none" xmlns="http://www.w3.org/2000/svg">
<path fill-rule="evenodd" clip-rule="evenodd" d="M6.29289 6.3004C6.68342 5.90988 7.31658 5.90988 7.70711 6.3004L12.7071 11.3004C13.0976 11.6909 13.0976 12.3241 12.7071 12.7146L7.70711 17.7146C7.31658 18.1051 6.68342 18.1051 6.29289 17.7146C5.90237 17.3241 5.90237 16.6909 6.29289 16.3004L10.5858 12.0075L6.29289 7.71461C5.90237 7.32409 5.90237 6.69092 6.29289 6.3004Z" fill="#1F2937"/>
<path fill-rule="evenodd" clip-rule="evenodd" d="M12.2929 6.3004C12.6834 5.90988 13.3166 5.90988 13.7071 6.3004L18.7071 11.3004C19.0976 11.6909 19.0976 12.3241 18.7071 12.7146L13.7071 17.7146C13.3166 18.1051 12.6834 18.1051 12.2929 17.7146C11.9024 17.3241 11.9024 16.6909 12.2929 16.3004L16.5858 12.0075L12.2929 7.71461C11.9024 7.32409 11.9024 6.69092 12.2929 6.3004Z" fill="#1F2937"/>
</svg>
