<svg width="24" height="24" viewBox="0 0 24 24" fill="none" xmlns="http://www.w3.org/2000/svg">
<path fill-rule="evenodd" clip-rule="evenodd" d="M12 4C7.58172 4 4 7.58172 4 12C4 16.4183 7.58172 20 12 20C16.4183 20 20 16.4183 20 12C20 7.58172 16.4183 4 12 4ZM2 12C2 6.47715 6.47715 2 12 2C17.5228 2 22 6.47715 22 12C22 17.5228 17.5228 22 12 22C6.47715 22 2 17.5228 2 12Z" fill="#1F2937"/>
<path fill-rule="evenodd" clip-rule="evenodd" d="M12 10C10.8954 10 10 10.8954 10 12C10 13.1046 10.8954 14 12 14C13.1046 14 14 13.1046 14 12C14 10.8954 13.1046 10 12 10ZM8 12C8 9.79086 9.79086 8 12 8C14.2091 8 16 9.79086 16 12C16 14.2091 14.2091 16 12 16C9.79086 16 8 14.2091 8 12Z" fill="#1F2937"/>
<path fill-rule="evenodd" clip-rule="evenodd" d="M11 9C11 8.44772 11.4477 8 12 8H20.4C20.9523 8 21.4 8.44772 21.4 9C21.4 9.55228 20.9523 10 20.4 10H12C11.4477 10 11 9.55228 11 9Z" fill="#1F2937"/>
<path fill-rule="evenodd" clip-rule="evenodd" d="M15.0978 12.634C15.5761 12.9101 15.74 13.5217 15.4639 14L11.2639 21.2746C10.9877 21.7529 10.3761 21.9168 9.89784 21.6406C9.41955 21.3645 9.25568 20.7529 9.53182 20.2746L13.7318 13C14.008 12.5217 14.6195 12.3578 15.0978 12.634Z" fill="#1F2937"/>
<path fill-rule="evenodd" clip-rule="evenodd" d="M9.90216 14.366C9.42387 14.6422 8.81228 14.4783 8.53613 14L4.33613 6.72539C4.05999 6.2471 4.22387 5.63551 4.70216 5.35936C5.18045 5.08322 5.79204 5.2471 6.06818 5.72539L10.2682 13C10.5443 13.4783 10.3805 14.0899 9.90216 14.366Z" fill="#1F2937"/>
</svg>
