<svg width="24" height="24" viewBox="0 0 24 24" fill="none" xmlns="http://www.w3.org/2000/svg">
<path fill-rule="evenodd" clip-rule="evenodd" d="M12 4C7.58172 4 4 7.58172 4 12C4 16.4183 7.58172 20 12 20C16.4183 20 20 16.4183 20 12C20 7.58172 16.4183 4 12 4ZM2 12C2 6.47715 6.47715 2 12 2C17.5228 2 22 6.47715 22 12C22 17.5228 17.5228 22 12 22C6.47715 22 2 17.5228 2 12Z" fill="#1F2937"/>
<path fill-rule="evenodd" clip-rule="evenodd" d="M15.7071 9.3004C16.0976 9.69092 16.0976 10.3241 15.7071 10.7146L11.7071 14.7146C11.3166 15.1051 10.6834 15.1051 10.2929 14.7146L8.29289 12.7146C7.90237 12.3241 7.90237 11.6909 8.29289 11.3004C8.68342 10.9099 9.31658 10.9099 9.70711 11.3004L11 12.5933L14.2929 9.3004C14.6834 8.90988 15.3166 8.90988 15.7071 9.3004Z" fill="#1F2937"/>
</svg>
