<svg xmlns="http://www.w3.org/2000/svg" width="24" height="24" viewBox="0 0 20 20" fill="none">
	<path fill-rule="evenodd" clip-rule="evenodd" d="M10.0001 3.33332C6.31818 3.33332 3.33341 6.31809 3.33341 9.99999C3.33341 13.6819 6.31818 16.6667 10.0001 16.6667C13.682 16.6667 16.6667 13.6819 16.6667 9.99999C16.6667 6.31809 13.682 3.33332 10.0001 3.33332ZM1.66675 9.99999C1.66675 5.39762 5.39771 1.66666 10.0001 1.66666C14.6025 1.66666 18.3334 5.39762 18.3334 9.99999C18.3334 14.6024 14.6025 18.3333 10.0001 18.3333C5.39771 18.3333 1.66675 14.6024 1.66675 9.99999Z" fill="#6B7280" />
	<path fill-rule="evenodd" clip-rule="evenodd" d="M7.74408 7.7503C8.06951 7.42487 8.59715 7.42487 8.92259 7.7503L10 8.82771L11.0774 7.7503C11.4028 7.42487 11.9305 7.42487 12.2559 7.7503C12.5814 8.07574 12.5814 8.60338 12.2559 8.92881L11.1785 10.0062L12.2559 11.0836C12.5814 11.4091 12.5814 11.9367 12.2559 12.2621C11.9305 12.5876 11.4028 12.5876 11.0774 12.2621L10 11.1847L8.92259 12.2621C8.59715 12.5876 8.06951 12.5876 7.74408 12.2621C7.41864 11.9367 7.41864 11.4091 7.74408 11.0836L8.82149 10.0062L7.74408 8.92881C7.41864 8.60338 7.41864 8.07574 7.74408 7.7503Z" fill="#6B7280" />
</svg>
