<svg width="24" height="24" viewBox="0 0 24 24" fill="none" xmlns="http://www.w3.org/2000/svg">
<path fill-rule="evenodd" clip-rule="evenodd" d="M16.2929 14.2929C16.6834 13.9024 17.3166 13.9024 17.7071 14.2929L19 15.5858L20.2929 14.2929C20.6834 13.9024 21.3166 13.9024 21.7071 14.2929C22.0976 14.6834 22.0976 15.3166 21.7071 15.7071L20.4142 17L21.7071 18.2929C22.0976 18.6834 22.0976 19.3166 21.7071 19.7071C21.3166 20.0976 20.6834 20.0976 20.2929 19.7071L19 18.4142L17.7071 19.7071C17.3166 20.0976 16.6834 20.0976 16.2929 19.7071C15.9024 19.3166 15.9024 18.6834 16.2929 18.2929L17.5858 17L16.2929 15.7071C15.9024 15.3166 15.9024 14.6834 16.2929 14.2929Z" fill="#1F2937"/>
<path fill-rule="evenodd" clip-rule="evenodd" d="M6 4.99255C6 4.44027 6.44772 3.99255 7 3.99255H18C18.5523 3.99255 19 4.44027 19 4.99255V5.99255C19 6.54484 18.5523 6.99255 18 6.99255C17.4477 6.99255 17 6.54484 17 5.99255H8C8 6.54484 7.55228 6.99255 7 6.99255C6.44772 6.99255 6 6.54484 6 5.99255V4.99255Z" fill="#1F2937"/>
<path fill-rule="evenodd" clip-rule="evenodd" d="M6 19.0074C6 18.4552 6.44772 18.0074 7 18.0074H11C11.5523 18.0074 12 18.4552 12 19.0074C12 19.5597 11.5523 20.0074 11 20.0074H7C6.44772 20.0074 6 19.5597 6 19.0074Z" fill="#1F2937"/>
<path fill-rule="evenodd" clip-rule="evenodd" d="M13.2745 4.03104C13.8055 4.18277 14.113 4.73625 13.9613 5.26729L9.96129 19.2673C9.80957 19.7983 9.25608 20.1058 8.72505 19.9541C8.19401 19.8024 7.88652 19.2489 8.03825 18.7178L12.0382 4.71785C12.19 4.18681 12.7435 3.87932 13.2745 4.03104Z" fill="#1F2937"/>
</svg>
