<svg width="24" height="24" viewBox="0 0 24 24" fill="none" xmlns="http://www.w3.org/2000/svg">
<path fill-rule="evenodd" clip-rule="evenodd" d="M2 12C2 11.4477 2.44772 11 3 11H6C6.55228 11 7 11.4477 7 12C7 12.5523 6.55228 13 6 13H3C2.44772 13 2 12.5523 2 12Z" fill="#1F2937"/>
<path fill-rule="evenodd" clip-rule="evenodd" d="M12 2C12.5523 2 13 2.44772 13 3V6C13 6.55228 12.5523 7 12 7C11.4477 7 11 6.55228 11 6V3C11 2.44772 11.4477 2 12 2Z" fill="#1F2937"/>
<path fill-rule="evenodd" clip-rule="evenodd" d="M4.89299 4.89476C5.28351 4.50424 5.91668 4.50424 6.3072 4.89476L8.5072 7.09475C8.89773 7.48527 8.89773 8.11844 8.50721 8.50896C8.11668 8.89949 7.48352 8.89949 7.09299 8.50897L4.89299 6.30898C4.50247 5.91845 4.50247 5.28529 4.89299 4.89476Z" fill="#1F2937"/>
<path fill-rule="evenodd" clip-rule="evenodd" d="M19.1073 4.89476C19.4978 5.28529 19.4978 5.91845 19.1073 6.30898L16.9073 8.50897C16.5168 8.89949 15.8836 8.89949 15.4931 8.50896C15.1026 8.11844 15.1026 7.48527 15.4931 7.09475L17.6931 4.89476C18.0836 4.50424 18.7168 4.50424 19.1073 4.89476Z" fill="#1F2937"/>
<path fill-rule="evenodd" clip-rule="evenodd" d="M8.50721 15.4882C8.89773 15.8787 8.89773 16.5119 8.5072 16.9024L6.3072 19.1024C5.91668 19.4929 5.28351 19.4929 4.89299 19.1024C4.50247 18.7119 4.50247 18.0787 4.89299 17.6882L7.09299 15.4882C7.48352 15.0977 8.11668 15.0977 8.50721 15.4882Z" fill="#1F2937"/>
<path fill-rule="evenodd" clip-rule="evenodd" d="M11.2929 11.2929C11.5608 11.0251 11.9569 10.9316 12.3163 11.0513L21.3163 14.0513C21.7 14.1792 21.9688 14.5257 21.9975 14.9291C22.0262 15.3326 21.809 15.7136 21.4472 15.8945L17.7454 17.7454L15.8945 21.4472C15.7136 21.809 15.3326 22.0262 14.9291 21.9975C14.5257 21.9688 14.1792 21.7 14.0513 21.3163L11.0513 12.3163C10.9316 11.9569 11.0251 11.5608 11.2929 11.2929ZM13.5812 13.5812L15.1853 18.3935L16.1056 16.5528C16.2024 16.3593 16.3593 16.2024 16.5528 16.1056L18.3935 15.1853L13.5812 13.5812Z" fill="#1F2937"/>
</svg>
