<svg width="24" height="24" viewBox="0 0 24 24" fill="none" xmlns="http://www.w3.org/2000/svg">
<path fill-rule="evenodd" clip-rule="evenodd" d="M4.87868 4.87119C5.44129 4.30858 6.20435 3.99251 7 3.99251H9C9.55228 3.99251 10 4.44022 10 4.99251C10 5.54479 9.55228 5.99251 9 5.99251H7C6.73478 5.99251 6.48043 6.09786 6.29289 6.2854C6.10536 6.47294 6 6.72729 6 6.99251V18.9925C6 19.2577 6.10536 19.5121 6.29289 19.6996C6.48043 19.8872 6.73478 19.9925 7 19.9925H17C17.2652 19.9925 17.5196 19.8872 17.7071 19.6996C17.8946 19.5121 18 19.2577 18 18.9925V6.99251C18 6.72729 17.8946 6.47294 17.7071 6.2854C17.5196 6.09786 17.2652 5.99251 17 5.99251H15C14.4477 5.99251 14 5.54479 14 4.99251C14 4.44022 14.4477 3.99251 15 3.99251H17C17.7956 3.99251 18.5587 4.30858 19.1213 4.87119C19.6839 5.4338 20 6.19686 20 6.99251V18.9925C20 19.7882 19.6839 20.5512 19.1213 21.1138C18.5587 21.6764 17.7957 21.9925 17 21.9925H7C6.20435 21.9925 5.44129 21.6764 4.87868 21.1138C4.31607 20.5512 4 19.7882 4 18.9925V6.99251C4 6.19686 4.31607 5.4338 4.87868 4.87119Z" fill="#1F2937"/>
<path fill-rule="evenodd" clip-rule="evenodd" d="M11 4C10.4477 4 10 4.44772 10 5C10 5.55228 10.4477 6 11 6H13C13.5523 6 14 5.55228 14 5C14 4.44772 13.5523 4 13 4H11ZM8 5C8 3.34315 9.34315 2 11 2H13C14.6569 2 16 3.34315 16 5C16 6.65685 14.6569 8 13 8H11C9.34315 8 8 6.65685 8 5Z" fill="#1F2937"/>
<path fill-rule="evenodd" clip-rule="evenodd" d="M8 12C8 11.4477 8.44772 11 9 11H9.01C9.56228 11 10.01 11.4477 10.01 12C10.01 12.5523 9.56228 13 9.01 13H9C8.44772 13 8 12.5523 8 12Z" fill="#1F2937"/>
<path fill-rule="evenodd" clip-rule="evenodd" d="M12 12C12 11.4477 12.4477 11 13 11H15C15.5523 11 16 11.4477 16 12C16 12.5523 15.5523 13 15 13H13C12.4477 13 12 12.5523 12 12Z" fill="#1F2937"/>
<path fill-rule="evenodd" clip-rule="evenodd" d="M8 16.0075C8 15.4552 8.44772 15.0075 9 15.0075H9.01C9.56228 15.0075 10.01 15.4552 10.01 16.0075C10.01 16.5598 9.56228 17.0075 9.01 17.0075H9C8.44772 17.0075 8 16.5598 8 16.0075Z" fill="#1F2937"/>
<path fill-rule="evenodd" clip-rule="evenodd" d="M12 16.0075C12 15.4552 12.4477 15.0075 13 15.0075H15C15.5523 15.0075 16 15.4552 16 16.0075C16 16.5598 15.5523 17.0075 15 17.0075H13C12.4477 17.0075 12 16.5598 12 16.0075Z" fill="#1F2937"/>
</svg>
