<svg width="24" height="24" viewBox="0 0 24 24" fill="none" xmlns="http://www.w3.org/2000/svg">
<path fill-rule="evenodd" clip-rule="evenodd" d="M13.4322 6.02918C12.8264 5.91905 12.2018 5.91736 11.5953 6.02425C10.9888 6.13114 10.416 6.34379 9.90945 6.64647C8.88577 7.2581 8.20555 8.19024 7.97568 9.21432L6.99996 8.99531V9.99531C6.00346 9.99531 5.05623 10.3744 4.36456 11.036C3.6744 11.6961 3.29541 12.5817 3.29541 13.4953C3.29541 14.4088 3.6744 15.2945 4.36456 15.9546C5.05623 16.6162 6.00346 16.9953 6.99996 16.9953C7.55224 16.9953 7.99996 17.443 7.99996 17.9953C7.99996 18.5476 7.55224 18.9953 6.99996 18.9953C5.50101 18.9953 4.05499 18.4261 2.98212 17.3999C1.90773 16.3722 1.29541 14.9687 1.29541 13.4953C1.29541 12.0219 1.90773 10.6184 2.98212 9.59068C3.87257 8.73895 5.02005 8.20207 6.2415 8.04412C6.71957 6.75783 7.65487 5.66374 8.88364 4.92958C9.60483 4.49868 10.4085 4.20258 11.2482 4.0546C12.0879 3.90662 12.9512 3.90894 13.79 4.06144C14.6288 4.21395 15.4305 4.51441 16.149 4.94929C16.8677 5.38424 17.4911 5.94659 17.9795 6.60863C18.468 7.27099 18.8111 8.01947 18.9836 8.81231C19.0687 9.20327 19.1112 9.59999 19.1111 9.99667C20.2643 10.0251 21.3642 10.4956 22.1819 11.3133C23.0259 12.1572 23.5 13.3018 23.5 14.4953C23.5 15.6888 23.0259 16.8334 22.1819 17.6773C21.338 18.5212 20.1934 18.9953 19 18.9953C18.4477 18.9953 18 18.5476 18 17.9953C18 17.443 18.4477 16.9953 19 16.9953C19.663 16.9953 20.2989 16.7319 20.7677 16.2631C21.2366 15.7942 21.5 15.1583 21.5 14.4953C21.5 13.8323 21.2366 13.1964 20.7677 12.7275C20.2989 12.2587 19.663 11.9953 19 11.9953H18C17.6963 11.9953 17.409 11.8573 17.2192 11.6202C17.0295 11.3831 16.9577 11.0726 17.0242 10.7763C17.1383 10.2683 17.14 9.74601 17.0294 9.23749C16.9187 8.7287 16.6965 8.2385 16.37 7.79585C16.0432 7.35287 15.6177 6.96551 15.1134 6.66029C14.609 6.355 14.0379 6.13932 13.4322 6.02918Z" fill="#1F2937"/>
<path fill-rule="evenodd" clip-rule="evenodd" d="M11 14C11.5523 14 12 14.4477 12 15V15.01C12 15.5623 11.5523 16.01 11 16.01C10.4477 16.01 10 15.5623 10 15.01V15C10 14.4477 10.4477 14 11 14ZM15 16.03C15.5523 16.03 16 16.4777 16 17.03V17.04C16 17.5923 15.5523 18.04 15 18.04C14.4477 18.04 14 17.5923 14 17.04V17.03C14 16.4777 14.4477 16.03 15 16.03ZM11 17.01C11.5523 17.01 12 17.4577 12 18.01V18.02C12 18.5723 11.5523 19.02 11 19.02C10.4477 19.02 10 18.5723 10 18.02V18.01C10 17.4577 10.4477 17.01 11 17.01ZM15 19.04C15.5523 19.04 16 19.4877 16 20.04V20.05C16 20.6023 15.5523 21.05 15 21.05C14.4477 21.05 14 20.6023 14 20.05V20.04C14 19.4877 14.4477 19.04 15 19.04ZM11 20.02C11.5523 20.02 12 20.4677 12 21.02V21.03C12 21.5823 11.5523 22.03 11 22.03C10.4477 22.03 10 21.5823 10 21.03V21.02C10 20.4677 10.4477 20.02 11 20.02Z" fill="#1F2937"/>
</svg>
