<svg width="24" height="24" viewBox="0 0 24 24" fill="none" xmlns="http://www.w3.org/2000/svg">
<path fill-rule="evenodd" clip-rule="evenodd" d="M11.2482 4.0546C12.0879 3.90662 12.9512 3.90894 13.79 4.06144C14.6288 4.21395 15.4306 4.51441 16.1491 4.94929C16.8677 5.38424 17.4912 5.94659 17.9795 6.60863C18.4681 7.27099 18.8112 8.01947 18.9837 8.81231C19.0687 9.20327 19.1112 9.59999 19.1111 9.99667C20.2643 10.0251 21.3643 10.4956 22.182 11.3133C23.0259 12.1572 23.5 13.3018 23.5 14.4953C23.5 15.6888 23.0259 16.8334 22.182 17.6773C21.3381 18.5212 20.1935 18.9953 19 18.9953C18.4477 18.9953 18 18.5476 18 17.9953C18 17.443 18.4477 16.9953 19 16.9953C19.663 16.9953 20.2989 16.7319 20.7678 16.2631C21.2366 15.7942 21.5 15.1583 21.5 14.4953C21.5 13.8323 21.2366 13.1964 20.7678 12.7275C20.2989 12.2587 19.663 11.9953 19 11.9953H18C17.6963 11.9953 17.4091 11.8573 17.2193 11.6202C17.0295 11.3831 16.9578 11.0726 17.0243 10.7763C17.1383 10.2683 17.14 9.74601 17.0294 9.23749C16.9187 8.7287 16.6965 8.2385 16.37 7.79585C16.0432 7.35287 15.6178 6.96551 15.1135 6.66029C14.6091 6.355 14.038 6.13932 13.4322 6.02918C12.8265 5.91905 12.2019 5.91736 11.5953 6.02425C10.9888 6.13114 10.4161 6.34379 9.90949 6.64647C8.88581 7.2581 8.20559 8.19024 7.97572 9.21432C7.86995 9.68554 7.44252 10.0138 6.95997 9.9945C6.11396 9.96062 5.28668 10.2096 4.62006 10.6915C3.9543 11.1727 3.49315 11.8533 3.30381 12.6107C3.11466 13.3672 3.20555 14.164 3.56465 14.8674C3.92433 15.572 4.5343 16.145 5.29958 16.4786C5.80586 16.6993 6.03738 17.2886 5.81669 17.7949C5.59601 18.3012 5.00669 18.5327 4.50041 18.312C3.32386 17.7991 2.36001 16.9064 1.78334 15.7767C1.2061 14.646 1.05637 13.3542 1.36353 12.1256C1.67049 10.8977 2.4117 9.81993 3.44847 9.07055C4.27154 8.47563 5.2421 8.11528 6.25126 8.01815C6.73223 6.7431 7.66319 5.6588 8.88368 4.92958C9.60487 4.49868 10.4085 4.20258 11.2482 4.0546Z" fill="#1F2937"/>
<path fill-rule="evenodd" clip-rule="evenodd" d="M12 12.0075C12.5523 12.0075 13 12.4552 13 13.0075V22.0075C13 22.5598 12.5523 23.0075 12 23.0075C11.4477 23.0075 11 22.5598 11 22.0075V13.0075C11 12.4552 11.4477 12.0075 12 12.0075Z" fill="#1F2937"/>
<path fill-rule="evenodd" clip-rule="evenodd" d="M8.29289 18.3004C8.68342 17.9099 9.31658 17.9099 9.70711 18.3004L12 20.5933L14.2929 18.3004C14.6834 17.9099 15.3166 17.9099 15.7071 18.3004C16.0976 18.6909 16.0976 19.3241 15.7071 19.7146L12.7071 22.7146C12.3166 23.1051 11.6834 23.1051 11.2929 22.7146L8.29289 19.7146C7.90237 19.3241 7.90237 18.6909 8.29289 18.3004Z" fill="#1F2937"/>
</svg>
