<svg width="24" height="24" viewBox="0 0 24 24" fill="none" xmlns="http://www.w3.org/2000/svg">
<path fill-rule="evenodd" clip-rule="evenodd" d="M13.4322 6.02918C12.8264 5.91905 12.2018 5.91736 11.5953 6.02425C10.9888 6.13114 10.416 6.34379 9.90945 6.64647C8.88577 7.2581 8.20555 8.19024 7.97568 9.21432C7.97568 9.64565 7.62602 9.99531 7.19469 9.99531H6.99996C6.00346 9.99531 5.05623 10.3744 4.36456 11.036C3.6744 11.6961 3.29541 12.5817 3.29541 13.4953C3.29541 14.4088 3.6744 15.2945 4.36456 15.9546C5.05623 16.6162 6.00346 16.9953 6.99996 16.9953C7.55224 16.9953 7.99996 17.443 7.99996 17.9953C7.99996 18.5476 7.55224 18.9953 6.99996 18.9953C5.50101 18.9953 4.05499 18.4261 2.98212 17.3999C1.90773 16.3722 1.29541 14.9687 1.29541 13.4953C1.29541 12.0219 1.90773 10.6184 2.98212 9.59068C3.87257 8.73895 5.02005 8.20207 6.2415 8.04412C6.71957 6.75783 7.65487 5.66374 8.88364 4.92958C9.60483 4.49868 10.4085 4.20258 11.2482 4.0546C12.0879 3.90662 12.9512 3.90894 13.79 4.06144C14.6288 4.21395 15.4305 4.51441 16.149 4.94929C16.8677 5.38424 17.4911 5.94659 17.9795 6.60863C18.468 7.27099 18.8111 8.01947 18.9836 8.81231C19.0687 9.20327 19.1112 9.59999 19.1111 9.99667C20.2643 10.0251 21.3642 10.4956 22.1819 11.3133C23.0259 12.1572 23.5 13.3018 23.5 14.4953C23.5 15.6888 23.0259 16.8334 22.1819 17.6773C21.338 18.5212 20.1934 18.9953 19 18.9953H18C17.4477 18.9953 17 18.5476 17 17.9953C17 17.443 17.4477 16.9953 18 16.9953H19C19.663 16.9953 20.2989 16.7319 20.7677 16.2631C21.2366 15.7942 21.5 15.1583 21.5 14.4953C21.5 13.8323 21.2366 13.1964 20.7677 12.7275C20.2989 12.2587 19.663 11.9953 19 11.9953H18C17.6963 11.9953 17.409 11.8573 17.2192 11.6202C17.0295 11.3831 16.9577 11.0726 17.0242 10.7763C17.1383 10.2683 17.14 9.74601 17.0294 9.23749C16.9187 8.7287 16.6965 8.2385 16.37 7.79585C16.0432 7.35287 15.6177 6.96551 15.1134 6.66029C14.609 6.355 14.0379 6.13932 13.4322 6.02918Z" fill="#1F2937"/>
<path fill-rule="evenodd" clip-rule="evenodd" d="M13.4472 13.0981C13.9412 13.3451 14.1414 13.9458 13.8944 14.4397L12.618 16.9925H14C14.3466 16.9925 14.6684 17.172 14.8507 17.4668C15.0329 17.7616 15.0494 18.1298 14.8944 18.4397L12.8944 22.4397C12.6474 22.9337 12.0468 23.1339 11.5528 22.887C11.0588 22.64 10.8586 22.0393 11.1056 21.5453L12.382 18.9925H11C10.6534 18.9925 10.3316 18.8131 10.1494 18.5183C9.96714 18.2234 9.95058 17.8553 10.1056 17.5453L12.1056 13.5453C12.3526 13.0513 12.9532 12.8511 13.4472 13.0981Z" fill="#1F2937"/>
</svg>
