<svg width="24" height="24" viewBox="0 0 24 24" fill="none" xmlns="http://www.w3.org/2000/svg">
<path fill-rule="evenodd" clip-rule="evenodd" d="M7.70711 7.28545C8.09763 7.67597 8.09763 8.30914 7.70711 8.69966L4.41421 11.9926L7.70711 15.2854C8.09763 15.676 8.09763 16.3091 7.70711 16.6997C7.31658 17.0902 6.68342 17.0902 6.29289 16.6997L2.29289 12.6997C1.90237 12.3091 1.90237 11.676 2.29289 11.2854L6.29289 7.28545C6.68342 6.89492 7.31658 6.89492 7.70711 7.28545Z" fill="#1F2937"/>
<path fill-rule="evenodd" clip-rule="evenodd" d="M16.2929 7.28545C16.6834 6.89492 17.3166 6.89492 17.7071 7.28545L21.7071 11.2854C22.0976 11.676 22.0976 12.3091 21.7071 12.6997L17.7071 16.6997C17.3166 17.0902 16.6834 17.0902 16.2929 16.6997C15.9024 16.3091 15.9024 15.676 16.2929 15.2854L19.5858 11.9926L16.2929 8.69966C15.9024 8.30914 15.9024 7.67597 16.2929 7.28545Z" fill="#1F2937"/>
<path fill-rule="evenodd" clip-rule="evenodd" d="M14.2428 3.0373C14.7786 3.17124 15.1043 3.71418 14.9704 4.24997L10.9704 20.25C10.8364 20.7858 10.2935 21.1115 9.7577 20.9776C9.22191 20.8436 8.89615 20.3007 9.03009 19.7649L13.0301 3.7649C13.164 3.22911 13.707 2.90335 14.2428 3.0373Z" fill="#1F2937"/>
</svg>
