<svg width="24" height="24" viewBox="0 0 24 24" fill="none" xmlns="http://www.w3.org/2000/svg">
<path fill-rule="evenodd" clip-rule="evenodd" d="M12 4C7.58172 4 4 7.58172 4 12C4 16.4183 7.58172 20 12 20C16.4183 20 20 16.4183 20 12C20 7.58172 16.4183 4 12 4ZM2 12C2 6.47715 6.47715 2 12 2C17.5228 2 22 6.47715 22 12C22 17.5228 17.5228 22 12 22C6.47715 22 2 17.5228 2 12Z" fill="#1F2937"/>
<path fill-rule="evenodd" clip-rule="evenodd" d="M12.9849 6.99344C13.5223 6.97867 14.054 7.10861 14.5242 7.36984C14.9998 7.63406 15.3946 8.02265 15.6664 8.49401C15.9422 8.97248 15.7779 9.58397 15.2994 9.85979C14.821 10.1356 14.2095 9.97135 13.9336 9.49288C13.8431 9.33576 13.7115 9.20623 13.5529 9.11815C13.3944 9.03008 13.2149 8.98677 13.0336 8.99288C13.0224 8.99325 13.0112 8.99344 13 8.99344H11C10.7348 8.99344 10.4804 9.0988 10.2929 9.28634C10.1054 9.47387 10 9.72823 10 9.99344C10 10.2587 10.1054 10.513 10.2929 10.7005C10.4804 10.8881 10.7348 10.9934 11 10.9934H13C13.7957 10.9934 14.5587 11.3095 15.1213 11.8721C15.6839 12.4347 16 13.1978 16 13.9934C16 14.7891 15.6839 15.5522 15.1213 16.1148C14.5587 16.6774 13.7957 16.9934 13 16.9934H11.0151C10.4777 17.0082 9.94598 16.8783 9.47578 16.617C9.00017 16.3528 8.60538 15.9642 8.33365 15.4929C8.05782 15.0144 8.22209 14.4029 8.70057 14.1271C9.17904 13.8513 9.79052 14.0155 10.0664 14.494C10.1569 14.6511 10.2885 14.7807 10.4471 14.8687C10.6056 14.9568 10.7851 15.0001 10.9664 14.994C10.9776 14.9936 10.9888 14.9934 11 14.9934H13C13.2652 14.9934 13.5196 14.8881 13.7071 14.7006C13.8946 14.513 14 14.2587 14 13.9934C14 13.7282 13.8946 13.4739 13.7071 13.2863C13.5196 13.0988 13.2652 12.9934 13 12.9934H11C10.2043 12.9934 9.44129 12.6774 8.87868 12.1148C8.31607 11.5522 8 10.7891 8 9.99344C8 9.19779 8.31607 8.43473 8.87868 7.87212C9.44129 7.30951 10.2043 6.99344 11 6.99344H12.9849Z" fill="#1F2937"/>
<path fill-rule="evenodd" clip-rule="evenodd" d="M12 5C12.5523 5 13 5.44772 13 6V8C13 8.55228 12.5523 9 12 9C11.4477 9 11 8.55228 11 8V6C11 5.44772 11.4477 5 12 5ZM12 15C12.5523 15 13 15.4477 13 16V18C13 18.5523 12.5523 19 12 19C11.4477 19 11 18.5523 11 18V16C11 15.4477 11.4477 15 12 15Z" fill="#1F2937"/>
</svg>
