<svg width="24" height="24" viewBox="0 0 24 24" fill="none" xmlns="http://www.w3.org/2000/svg">
<path fill-rule="evenodd" clip-rule="evenodd" d="M10.2929 6.30034C10.6834 5.90982 11.3166 5.90982 11.7071 6.30034L17.7071 12.3003C18.0976 12.6909 18.0976 13.324 17.7071 13.7146C17.3166 14.1051 16.6834 14.1051 16.2929 13.7146L10.2929 7.71455C9.90237 7.32403 9.90237 6.69086 10.2929 6.30034Z" fill="#1F2937"/>
<path fill-rule="evenodd" clip-rule="evenodd" d="M14 4.58771C14.3739 4.22125 14.8765 4.01599 15.4 4.01599C15.9235 4.01599 16.4261 4.22125 16.8 4.58771L16.8071 4.59471L19.4142 7.20181C19.7806 7.57567 19.9859 8.07835 19.9859 8.60185C19.9859 9.12535 19.7806 9.62799 19.4141 10.0018L19.4071 10.009L9.70711 19.709C9.51957 19.8965 9.26522 20.0018 9 20.0018H5C4.44772 20.0018 4 19.5541 4 19.0018V15.0018C4 14.7366 4.10536 14.4823 4.29289 14.2947L14 4.58771ZM15.4 6.01606L6 15.4161V18.0018H8.58579L17.9858 8.60185L15.4 6.01606Z" fill="#1F2937"/>
</svg>
