<svg width="16" height="16" viewBox="0 0 16 16" fill="none" xmlns="http://www.w3.org/2000/svg">
<g clip-path="url(#clip0_6867_31512)">
<path d="M7.96763 13.4263L8.28013 14.7603L7.96763 15.9996C5.76316 15.9906 3.76944 15.09 2.32812 13.6394L2.91181 12.4307L4.13062 11.8369C5.11253 12.8189 6.46919 13.4263 7.96763 13.4263Z" fill="#C331C8"/>
<path d="M13.6424 13.6736C12.1961 15.1113 10.2034 15.9999 8.00294 15.9999C7.99166 15.9999 7.98003 15.9999 7.96875 15.9996V13.4263C9.46719 13.4263 10.8235 12.8188 11.8057 11.8369L13.1316 12.5378L13.6424 13.6736Z" fill="#FF3377"/>
<path d="M16.0019 8C16.0019 10.2178 15.0993 12.2251 13.6414 13.6737L11.8047 11.837C12.7869 10.8554 13.3944 9.49875 13.3944 8L14.7206 7.6875L16.0019 8Z" fill="#E50048"/>
<path d="M16.0015 8.0001H13.3941C13.3941 6.50167 12.7866 5.14501 11.8047 4.1631L12.422 2.9206L13.641 2.32642C15.099 3.77504 16.0015 5.78235 16.0015 8.0001Z" fill="#FF9933"/>
<path d="M13.6424 2.32631L11.8061 4.163H11.8057C10.8235 3.18109 9.46716 2.57363 7.96875 2.57363L7.65625 1.40628L7.96875 0.00034375C7.98003 0 7.99166 0 8.00294 0C10.2034 0 12.1961 0.888625 13.6424 2.32631Z" fill="#FFDE46"/>
<path d="M7.96763 0.000244141V2.57353C6.46922 2.57353 5.11253 3.18099 4.13062 4.1629L2.93272 3.58999L2.32812 2.3604C3.76944 0.909775 5.76316 0.00918164 7.96763 0.000244141Z" fill="#00DA26"/>
<path d="M4.12881 4.1631C3.14687 5.145 2.53941 6.50166 2.53941 8.0001L1.17709 8.3126L0 8.0001C0 5.7996 0.888625 3.80691 2.32631 2.3606L4.12881 4.1631Z" fill="#33DDFF"/>
<path d="M4.12881 11.837L2.32631 13.6395C0.888625 12.1932 0 10.2005 0 8H2.53941C2.53941 9.49844 3.14687 10.8551 4.12881 11.837Z" fill="#194D80"/>
</g>
<defs>
<clipPath id="clip0_6867_31512">
<rect width="16" height="16" fill="white"/>
</clipPath>
</defs>
</svg>
