<svg width="24" height="24" viewBox="0 0 24 24" fill="none" xmlns="http://www.w3.org/2000/svg">
<path fill-rule="evenodd" clip-rule="evenodd" d="M3 6C3 5.44772 3.44772 5 4 5H9.5C10.0523 5 10.5 5.44772 10.5 6C10.5 6.55228 10.0523 7 9.5 7H4C3.44772 7 3 6.55228 3 6Z" fill="#1F2937"/>
<path fill-rule="evenodd" clip-rule="evenodd" d="M3 10.0074C3 9.45516 3.44772 9.00745 4 9.00745H9.5C10.0523 9.00745 10.5 9.45516 10.5 10.0074C10.5 10.5597 10.0523 11.0074 9.5 11.0074H4C3.44772 11.0074 3 10.5597 3 10.0074Z" fill="#1F2937"/>
<path fill-rule="evenodd" clip-rule="evenodd" d="M3 13.9926C3 13.4403 3.44772 12.9926 4 12.9926H9.5C10.0523 12.9926 10.5 13.4403 10.5 13.9926C10.5 14.5448 10.0523 14.9926 9.5 14.9926H4C3.44772 14.9926 3 14.5448 3 13.9926Z" fill="#1F2937"/>
<path fill-rule="evenodd" clip-rule="evenodd" d="M3 18C3 17.4477 3.44772 17 4 17H9.5C10.0523 17 10.5 17.4477 10.5 18C10.5 18.5523 10.0523 19 9.5 19H4C3.44772 19 3 18.5523 3 18Z" fill="#1F2937"/>
<path fill-rule="evenodd" clip-rule="evenodd" d="M13.5 6C13.5 5.44772 13.9477 5 14.5 5H20C20.5523 5 21 5.44772 21 6C21 6.55228 20.5523 7 20 7H14.5C13.9477 7 13.5 6.55228 13.5 6Z" fill="#1F2937"/>
<path fill-rule="evenodd" clip-rule="evenodd" d="M13.5 10.0074C13.5 9.45516 13.9477 9.00745 14.5 9.00745H20C20.5523 9.00745 21 9.45516 21 10.0074C21 10.5597 20.5523 11.0074 20 11.0074H14.5C13.9477 11.0074 13.5 10.5597 13.5 10.0074Z" fill="#1F2937"/>
<path fill-rule="evenodd" clip-rule="evenodd" d="M13.5 13.9926C13.5 13.4403 13.9477 12.9926 14.5 12.9926H20C20.5523 12.9926 21 13.4403 21 13.9926C21 14.5448 20.5523 14.9926 20 14.9926H14.5C13.9477 14.9926 13.5 14.5448 13.5 13.9926Z" fill="#1F2937"/>
<path fill-rule="evenodd" clip-rule="evenodd" d="M13.5 18C13.5 17.4477 13.9477 17 14.5 17H20C20.5523 17 21 17.4477 21 18C21 18.5523 20.5523 19 20 19H14.5C13.9477 19 13.5 18.5523 13.5 18Z" fill="#1F2937"/>
</svg>
