<svg width="24" height="24" viewBox="0 0 24 24" fill="none" xmlns="http://www.w3.org/2000/svg">
<path fill-rule="evenodd" clip-rule="evenodd" d="M7.38269 6.06861C7.19996 5.99293 6.99889 5.97312 6.80491 6.01171C6.61093 6.05029 6.43275 6.14553 6.29289 6.28539C6.15304 6.42524 6.0578 6.60342 6.01922 6.7974C5.98063 6.99138 6.00043 7.19245 6.07612 7.37518C6.15181 7.5579 6.27998 7.71408 6.44443 7.82396C6.60888 7.93385 6.80222 7.99249 7 7.99249H8V6.99249C8 6.79471 7.94135 6.60137 7.83147 6.43692C7.72159 6.27247 7.56541 6.1443 7.38269 6.06861ZM10 7.99249V6.99249C10 6.39915 9.82405 5.81913 9.49441 5.32578C9.16477 4.83244 8.69623 4.44792 8.14805 4.22086C7.59987 3.99379 6.99667 3.93438 6.41473 4.05014C5.83279 4.16589 5.29824 4.45162 4.87868 4.87117C4.45912 5.29073 4.1734 5.82528 4.05765 6.40722C3.94189 6.98917 4.0013 7.59237 4.22836 8.14054C4.45543 8.68872 4.83994 9.15726 5.33329 9.4869C5.82664 9.81655 6.40666 9.99249 7 9.99249H8V13.9925H7C6.40666 13.9925 5.82664 14.1684 5.33329 14.4981C4.83994 14.8277 4.45543 15.2963 4.22836 15.8444C4.0013 16.3926 3.94189 16.9958 4.05765 17.5778C4.1734 18.1597 4.45912 18.6943 4.87868 19.1138C5.29824 19.5334 5.83279 19.8191 6.41473 19.9348C6.99667 20.0506 7.59987 19.9912 8.14805 19.7641C8.69623 19.5371 9.16477 19.1526 9.49441 18.6592C9.82405 18.1659 10 17.5858 10 16.9925V15.9925H14V16.9925C14 17.5858 14.1759 18.1659 14.5056 18.6592C14.8352 19.1526 15.3038 19.5371 15.8519 19.7641C16.4001 19.9912 17.0033 20.0506 17.5853 19.9348C18.1672 19.8191 18.7018 19.5334 19.1213 19.1138C19.5409 18.6943 19.8266 18.1597 19.9424 17.5778C20.0581 16.9958 19.9987 16.3926 19.7716 15.8444C19.5446 15.2963 19.1601 14.8277 18.6667 14.4981C18.1734 14.1684 17.5933 13.9925 17 13.9925H16V9.99249H17C17.5933 9.99249 18.1734 9.81655 18.6667 9.4869C19.1601 9.15726 19.5446 8.68872 19.7716 8.14054C19.9987 7.59237 20.0581 6.98917 19.9424 6.40722C19.8266 5.82528 19.5409 5.29073 19.1213 4.87117C18.7018 4.45162 18.1672 4.16589 17.5853 4.05014C17.0033 3.93438 16.4001 3.99379 15.8519 4.22086C15.3038 4.44792 14.8352 4.83244 14.5056 5.32578C14.1759 5.81913 14 6.39915 14 6.99249V7.99249H10ZM10 9.99249V13.9925H14V9.99249H10ZM16 7.99249H17C17.1978 7.99249 17.3911 7.93385 17.5556 7.82396C17.72 7.71408 17.8482 7.5579 17.9239 7.37518C17.9996 7.19245 18.0194 6.99138 17.9808 6.7974C17.9422 6.60342 17.847 6.42524 17.7071 6.28539C17.5673 6.14553 17.3891 6.05029 17.1951 6.01171C17.0011 5.97312 16.8 5.99293 16.6173 6.06861C16.4346 6.1443 16.2784 6.27247 16.1685 6.43692C16.0586 6.60137 16 6.79471 16 6.99249V7.99249ZM16 15.9925V16.9925C16 17.1903 16.0587 17.3836 16.1685 17.5481C16.2784 17.7125 16.4346 17.8407 16.6173 17.9164C16.8 17.9921 17.0011 18.0119 17.1951 17.9733C17.3891 17.9347 17.5673 17.8395 17.7071 17.6996C17.847 17.5597 17.9422 17.3816 17.9808 17.1876C18.0194 16.9936 17.9996 16.7925 17.9239 16.6098C17.8482 16.4271 17.72 16.2709 17.5556 16.161C17.3911 16.0511 17.1978 15.9925 17 15.9925H16ZM8 15.9925H7C6.80222 15.9925 6.60888 16.0511 6.44443 16.161C6.27998 16.2709 6.15181 16.4271 6.07612 16.6098C6.00043 16.7925 5.98063 16.9936 6.01922 17.1876C6.0578 17.3816 6.15304 17.5597 6.29289 17.6996C6.43275 17.8395 6.61093 17.9347 6.80491 17.9733C6.99889 18.0119 7.19996 17.9921 7.38269 17.9164C7.56541 17.8407 7.72159 17.7125 7.83147 17.5481C7.94135 17.3836 8 17.1903 8 16.9925V15.9925Z" fill="#1F2937"/>
</svg>
