<svg xmlns="http://www.w3.org/2000/svg" width="16" height="16" viewBox="0 0 32 32"><path d="M6.51611 5.71744C6.51611 3.65306 8.56126 2.21159 10.5054 2.90591L20.4312 6.45084C21.619 6.87529 22.4126 8.00094 22.4126 9.26236V13.3278C22.1013 13.291 21.7846 13.2711 21.4634 13.2711C21.1071 13.2711 20.7566 13.2963 20.4126 13.3415V9.26236C20.4126 8.84616 20.1501 8.4748 19.7583 8.33463L9.83252 4.78873C9.19089 4.55958 8.51611 5.03612 8.51611 5.71744V24.7301H14.2485C14.6023 25.4666 15.0661 26.1398 15.6177 26.7301H4.5376C3.98548 26.7301 3.53685 26.2822 3.53662 25.7301C3.53666 25.1779 3.98535 24.7301 4.5376 24.7301H6.51611V5.71744Z" fill="#1f2937"/><path d="M12.106 17.0807C12.6578 17.0812 13.1059 17.5288 13.106 18.0807V20.4626C13.1059 21.0144 12.6577 21.462 12.106 21.4626C11.5537 21.4626 11.1061 21.0147 11.106 20.4626V18.0807C11.106 17.5285 11.5537 17.0807 12.106 17.0807Z" fill="#1f2937"/><path d="M12.106 10.7868C12.6578 10.7873 13.106 11.2348 13.106 11.7868V14.1686C13.1059 14.7205 12.6577 15.1681 12.106 15.1686C11.5537 15.1686 11.1061 14.7208 11.106 14.1686V11.7868C11.106 11.2345 11.5537 10.7868 12.106 10.7868Z" fill="#1f2937"/><path d="M16.8228 10.7868C17.3747 10.7872 17.8228 11.2348 17.8228 11.7868V14.1471C17.3159 14.4067 16.8398 14.7175 16.4028 15.0749C16.0604 14.9162 15.8228 14.5708 15.8228 14.1686V11.7868C15.8228 11.2345 16.2705 10.7868 16.8228 10.7868Z" fill="#1f2937"/><path fill-rule="evenodd" clip-rule="evenodd" d="M21.4634 15.7708C24.5009 15.7708 26.9634 18.2332 26.9634 21.2708C26.9634 22.6842 26.4294 23.9724 25.5532 24.9466L28.1704 27.5638C28.5609 27.9543 28.5609 28.5873 28.1704 28.9778C27.7799 29.3683 27.1469 29.3683 26.7563 28.9778L23.9526 26.1741C23.205 26.5544 22.3597 26.7708 21.4634 26.7708C18.4258 26.7708 15.9634 24.3084 15.9634 21.2708C15.9634 18.2332 18.4258 15.7708 21.4634 15.7708ZM21.4634 17.7708C19.5304 17.7708 17.9634 19.3378 17.9634 21.2708C17.9634 23.2038 19.5304 24.7708 21.4634 24.7708C23.3964 24.7708 24.9634 23.2038 24.9634 21.2708C24.9634 19.3378 23.3964 17.7708 21.4634 17.7708Z" fill="#1f2937"/></svg>
