<svg width="16" height="16" viewBox="0 0 16 16" fill="none" xmlns="http://www.w3.org/2000/svg">
<path d="M7.90322 11.0041C8.00906 10.6516 8.38074 10.4519 8.7333 10.5575L11.5673 11.4071C11.9199 11.5129 12.1202 11.8846 12.0146 12.2372C11.9088 12.5899 11.5371 12.7902 11.1845 12.6845L8.35049 11.8342C7.99786 11.7284 7.79745 11.3568 7.90322 11.0041ZM3.7626 3.98525C4.11519 3.87957 4.48688 4.07993 4.59268 4.43251L5.44228 7.26519C5.54802 7.61781 5.34827 7.98946 4.99567 8.09527C4.64301 8.20109 4.27141 8.00066 4.16559 7.64801L3.31533 4.81532C3.20966 4.46273 3.41002 4.09105 3.7626 3.98525Z" fill="currentColor"/>
<path d="M11.1565 3.90031C11.4168 3.63998 11.8389 3.64003 12.0992 3.90031C12.3596 4.16065 12.3596 4.58266 12.0992 4.84301L8.26002 8.68221C7.99967 8.94256 7.57766 8.94256 7.31731 8.68221C7.05703 8.42185 7.05699 7.99982 7.31731 7.7395L11.1565 3.90031Z" fill="currentColor"/>
<path d="M3.99349 3.60156C3.98924 3.58023 3.98297 3.55925 3.97461 3.53906C3.95786 3.49864 3.93329 3.46193 3.90234 3.43099C3.8714 3.40005 3.8347 3.37548 3.79427 3.35872C3.77408 3.35036 3.7531 3.34409 3.73177 3.33984L3.66667 3.33333C3.62289 3.33333 3.5795 3.34197 3.53906 3.35872C3.49864 3.37548 3.46193 3.40005 3.43099 3.43099C3.40005 3.46193 3.37548 3.49864 3.35872 3.53906C3.34197 3.5795 3.33333 3.62289 3.33333 3.66667L3.33984 3.73177C3.34409 3.7531 3.35036 3.77408 3.35872 3.79427C3.37548 3.8347 3.40005 3.8714 3.43099 3.90234C3.46193 3.93329 3.49864 3.95786 3.53906 3.97461C3.5795 3.99136 3.62289 4 3.66667 4C3.71044 4 3.75383 3.99136 3.79427 3.97461C3.8347 3.95786 3.8714 3.93329 3.90234 3.90234C3.93329 3.8714 3.95786 3.8347 3.97461 3.79427C3.99136 3.75383 4 3.71044 4 3.66667L3.99349 3.60156ZM5.32552 3.83008C5.30948 3.9929 5.26922 4.15298 5.20638 4.30469C5.12262 4.50681 4.99976 4.69034 4.84505 4.84505C4.69034 4.99976 4.50681 5.12262 4.30469 5.20638C4.10248 5.29014 3.88554 5.33333 3.66667 5.33333C3.4478 5.33333 3.23086 5.29014 3.02865 5.20638C2.82652 5.12262 2.64299 4.99976 2.48828 4.84505C2.33357 4.69034 2.21071 4.50681 2.12695 4.30469C2.06411 4.15298 2.02385 3.9929 2.00781 3.83008L2 3.66667C2 3.4478 2.0432 3.23086 2.12695 3.02865C2.21071 2.82652 2.33357 2.64299 2.48828 2.48828C2.64299 2.33357 2.82652 2.21071 3.02865 2.12695C3.23086 2.0432 3.4478 2 3.66667 2L3.83008 2.00781C3.9929 2.02385 4.15298 2.06411 4.30469 2.12695C4.50681 2.21071 4.69034 2.33357 4.84505 2.48828C4.99976 2.64299 5.12262 2.82652 5.20638 3.02865C5.29014 3.23086 5.33333 3.4478 5.33333 3.66667L5.32552 3.83008Z" fill="currentColor"/>
<path d="M12.6667 3.66667C12.6667 3.57826 12.6315 3.4935 12.569 3.43099C12.5065 3.36848 12.4217 3.33333 12.3333 3.33333C12.2449 3.33333 12.1602 3.36848 12.0977 3.43099C12.0351 3.4935 12 3.57826 12 3.66667C12 3.75507 12.0351 3.83983 12.0977 3.90234C12.1602 3.96486 12.2449 4 12.3333 4C12.4217 4 12.5065 3.96486 12.569 3.90234C12.6315 3.83983 12.6667 3.75507 12.6667 3.66667ZM14 3.66667C14 4.10869 13.8243 4.53249 13.5117 4.84505C13.1992 5.15761 12.7754 5.33333 12.3333 5.33333C11.8913 5.33333 11.4675 5.15761 11.1549 4.84505C10.8424 4.53249 10.6667 4.10869 10.6667 3.66667C10.6667 3.22464 10.8424 2.80084 11.1549 2.48828C11.4675 2.17572 11.8913 2 12.3333 2C12.7754 2 13.1992 2.17572 13.5117 2.48828C13.8243 2.80084 14 3.22464 14 3.66667Z" fill="currentColor"/>
<path d="M12.6667 12.3337C12.6667 12.2453 12.6315 12.1605 12.569 12.098C12.5065 12.0355 12.4217 12.0003 12.3333 12.0003C12.2449 12.0003 12.1602 12.0355 12.0977 12.098C12.0351 12.1605 12 12.2453 12 12.3337C12 12.4221 12.0351 12.5068 12.0977 12.5693C12.1602 12.6318 12.2449 12.667 12.3333 12.667C12.4217 12.667 12.5065 12.6318 12.569 12.5693C12.6315 12.5068 12.6667 12.4221 12.6667 12.3337ZM14 12.3337C14 12.7757 13.8243 13.1995 13.5117 13.512C13.1992 13.8246 12.7754 14.0003 12.3333 14.0003C11.8913 14.0003 11.4675 13.8246 11.1549 13.512C10.8424 13.1995 10.6667 12.7757 10.6667 12.3337C10.6667 11.8916 10.8424 11.4678 11.1549 11.1553C11.4675 10.8427 11.8913 10.667 12.3333 10.667C12.7754 10.667 13.1992 10.8427 13.5117 11.1553C13.8243 11.4678 14 11.8916 14 12.3337Z" fill="currentColor"/>
<path d="M8 10.3337C8 9.71482 7.75399 9.1215 7.31641 8.68392C6.90621 8.27372 6.3592 8.03158 5.78255 8.00293L5.66667 8.00033C5.04783 8.00033 4.45451 8.24633 4.01693 8.68392C3.57934 9.1215 3.33333 9.71482 3.33333 10.3337L3.33594 10.4495C3.36459 11.0262 3.60673 11.5732 4.01693 11.9834C4.45451 12.421 5.04783 12.667 5.66667 12.667C6.2855 12.667 6.87882 12.421 7.31641 11.9834C7.75399 11.5458 8 10.9525 8 10.3337ZM9.33333 10.3337C9.33333 11.3061 8.94675 12.2385 8.25911 12.9261C7.57148 13.6137 6.63913 14.0003 5.66667 14.0003C4.69421 14.0003 3.76185 13.6137 3.07422 12.9261C2.42952 12.2814 2.04948 11.4216 2.00456 10.5153L2 10.3337C2 9.3612 2.38659 8.42884 3.07422 7.74121C3.76185 7.05358 4.69421 6.66699 5.66667 6.66699L5.84831 6.67155C6.75463 6.71647 7.61442 7.09651 8.25911 7.74121C8.94675 8.42884 9.33333 9.3612 9.33333 10.3337Z" fill="currentColor"/>
</svg>
