<svg width="24" height="24" viewBox="0 0 24 24" fill="none" xmlns="http://www.w3.org/2000/svg">
<path fill-rule="evenodd" clip-rule="evenodd" d="M12 4C7.58172 4 4 7.58172 4 12C4 16.4183 7.58172 20 12 20C16.4183 20 20 16.4183 20 12C20 7.58172 16.4183 4 12 4ZM2 12C2 6.47715 6.47715 2 12 2C17.5228 2 22 6.47715 22 12C22 17.5228 17.5228 22 12 22C6.47715 22 2 17.5228 2 12Z" fill="#1F2937"/>
<path fill-rule="evenodd" clip-rule="evenodd" d="M10.2861 7.45806C11.0886 7.04403 11.9894 6.89924 12.8748 7.05151C13.7588 7.20352 14.5673 7.64095 15.2095 8.2882C15.5985 8.68026 15.596 9.31342 15.2039 9.7024C14.8119 10.0914 14.1787 10.0889 13.7897 9.69683C13.4215 9.32573 12.984 9.09964 12.5359 9.02257C12.0891 8.94575 11.6283 9.01605 11.203 9.23546C10.7753 9.45611 10.3921 9.82408 10.115 10.3145C9.83752 10.8055 9.68457 11.3886 9.68457 11.9925C9.68457 12.5965 9.83752 13.1795 10.115 13.6705C10.3921 14.161 10.7753 14.5289 11.203 14.7496C11.6283 14.969 12.0891 15.0393 12.5359 14.9625C12.984 14.8854 13.4215 14.6593 13.7897 14.2882C14.1787 13.8962 14.8119 13.8937 15.2039 14.2826C15.596 14.6716 15.5985 15.3048 15.2095 15.6968C14.5673 16.3441 13.7588 16.7815 12.8748 16.9335C11.9894 17.0858 11.0886 16.941 10.2861 16.527C9.48591 16.1142 8.82735 15.4573 8.37369 14.6544C7.92033 13.852 7.68457 12.9282 7.68457 11.9925C7.68457 11.0569 7.92033 10.133 8.37369 9.33067C8.82735 8.52777 9.48591 7.87086 10.2861 7.45806Z" fill="#1F2937"/>
</svg>
