<svg width="24" height="24" viewBox="0 0 24 24" fill="none" xmlns="http://www.w3.org/2000/svg">
<path fill-rule="evenodd" clip-rule="evenodd" d="M10 8.99249C9.44772 8.99249 9 9.44021 9 9.99249V17.9925C9 18.5448 9.44772 18.9925 10 18.9925H18C18.5523 18.9925 19 18.5448 19 17.9925V9.99249C19 9.44021 18.5523 8.99249 18 8.99249H10ZM7 9.99249C7 8.33564 8.34315 6.99249 10 6.99249H18C19.6569 6.99249 21 8.33564 21 9.99249V17.9925C21 19.6493 19.6569 20.9925 18 20.9925H10C8.34315 20.9925 7 19.6493 7 17.9925V9.99249Z" fill="#1F2937"/>
<path fill-rule="evenodd" clip-rule="evenodd" d="M3.87868 3.88619C4.44129 3.32358 5.20435 3.00751 6 3.00751H14C14.7956 3.00751 15.5587 3.32358 16.1213 3.88619C16.6839 4.4488 17 5.21186 17 6.00751V8.00751C17 8.55979 16.5523 9.00751 16 9.00751C15.4477 9.00751 15 8.55979 15 8.00751V6.00751C15 5.74229 14.8946 5.48794 14.7071 5.3004C14.5196 5.11286 14.2652 5.00751 14 5.00751H6C5.73478 5.00751 5.48043 5.11286 5.29289 5.3004C5.10536 5.48794 5 5.74229 5 6.00751V14.0075C5 14.2727 5.10536 14.5271 5.29289 14.7146C5.48043 14.9022 5.73478 15.0075 6 15.0075H8C8.55228 15.0075 9 15.4552 9 16.0075C9 16.5598 8.55228 17.0075 8 17.0075H6C5.20435 17.0075 4.44129 16.6914 3.87868 16.1288C3.31607 15.5662 3 14.8032 3 14.0075V6.00751C3 5.21186 3.31607 4.4488 3.87868 3.88619Z" fill="#1F2937"/>
</svg>
