<svg width="24" height="24" viewBox="0 0 24 24" fill="none" xmlns="http://www.w3.org/2000/svg">
<path fill-rule="evenodd" clip-rule="evenodd" d="M10.7071 3.3004C11.0976 3.69092 11.0976 4.32409 10.7071 4.71461L7.41421 8.00751H15C16.0609 8.00751 17.0783 8.42893 17.8284 9.17908C18.5786 9.92923 19 10.9466 19 12.0075V18.0075C19 18.5598 18.5523 19.0075 18 19.0075C17.4477 19.0075 17 18.5598 17 18.0075V12.0075C17 11.4771 16.7893 10.9684 16.4142 10.5933C16.0391 10.2182 15.5304 10.0075 15 10.0075H7.41421L10.7071 13.3004C11.0976 13.6909 11.0976 14.3241 10.7071 14.7146C10.3166 15.1051 9.68342 15.1051 9.29289 14.7146L4.29289 9.71461C3.90237 9.32409 3.90237 8.69092 4.29289 8.3004L9.29289 3.3004C9.68342 2.90988 10.3166 2.90988 10.7071 3.3004Z" fill="#1F2937"/>
</svg>
