<svg width="24" height="24" viewBox="0 0 24 24" fill="none" xmlns="http://www.w3.org/2000/svg">
<path fill-rule="evenodd" clip-rule="evenodd" d="M14.2929 4.28539C14.6834 3.89486 15.3166 3.89486 15.7071 4.28539L20.7071 9.28539C21.0976 9.67591 21.0976 10.3091 20.7071 10.6996C20.3166 11.0901 19.6834 11.0901 19.2929 10.6996L16 7.40671V14.9925C16 16.0534 15.5786 17.0708 14.8284 17.8209C14.0783 18.5711 13.0609 18.9925 12 18.9925H6C5.44772 18.9925 5 18.5448 5 17.9925C5 17.4402 5.44772 16.9925 6 16.9925H12C12.5304 16.9925 13.0391 16.7818 13.4142 16.4067C13.7893 16.0316 14 15.5229 14 14.9925V7.40671L10.7071 10.6996C10.3166 11.0901 9.68342 11.0901 9.29289 10.6996C8.90237 10.3091 8.90237 9.67591 9.29289 9.28539L14.2929 4.28539Z" fill="#1F2937"/>
</svg>
