<svg width="24" height="24" viewBox="0 0 24 24" fill="none" xmlns="http://www.w3.org/2000/svg">
<path fill-rule="evenodd" clip-rule="evenodd" d="M13.2929 3.3004C13.6834 2.90988 14.3166 2.90988 14.7071 3.3004L19.7071 8.3004C20.0976 8.69092 20.0976 9.32409 19.7071 9.71461L14.7071 14.7146C14.3166 15.1051 13.6834 15.1051 13.2929 14.7146C12.9024 14.3241 12.9024 13.6909 13.2929 13.3004L16.5858 10.0075H9C8.46957 10.0075 7.96086 10.2182 7.58579 10.5933C7.21071 10.9684 7 11.4771 7 12.0075V18.0075C7 18.5598 6.55228 19.0075 6 19.0075C5.44772 19.0075 5 18.5598 5 18.0075V12.0075C5 10.9466 5.42143 9.92923 6.17157 9.17908C6.92172 8.42893 7.93913 8.00751 9 8.00751H16.5858L13.2929 4.71461C12.9024 4.32409 12.9024 3.69092 13.2929 3.3004Z" fill="#1F2937"/>
</svg>
