<svg width="24" height="24" viewBox="0 0 24 24" fill="none" xmlns="http://www.w3.org/2000/svg">
<path fill-rule="evenodd" clip-rule="evenodd" d="M9.17157 6.17157C9.92172 5.42143 10.9391 5 12 5H18C18.5523 5 19 5.44772 19 6C19 6.55228 18.5523 7 18 7H12C11.4696 7 10.9609 7.21071 10.5858 7.58579C10.2107 7.96086 10 8.46957 10 9V16.5858L13.2929 13.2929C13.6834 12.9024 14.3166 12.9024 14.7071 13.2929C15.0976 13.6834 15.0976 14.3166 14.7071 14.7071L9.70711 19.7071C9.31658 20.0976 8.68342 20.0976 8.29289 19.7071L3.29289 14.7071C2.90237 14.3166 2.90237 13.6834 3.29289 13.2929C3.68342 12.9024 4.31658 12.9024 4.70711 13.2929L8 16.5858V9C8 7.93913 8.42143 6.92172 9.17157 6.17157Z" fill="#1F2937"/>
</svg>
