<svg width="24" height="24" viewBox="0 0 24 24" fill="none" xmlns="http://www.w3.org/2000/svg">
<path fill-rule="evenodd" clip-rule="evenodd" d="M8.29289 4.28539C8.68342 3.89486 9.31658 3.89486 9.70711 4.28539L14.7071 9.28539C15.0976 9.67591 15.0976 10.3091 14.7071 10.6996C14.3166 11.0901 13.6834 11.0901 13.2929 10.6996L10 7.40671V14.9925C10 15.5229 10.2107 16.0316 10.5858 16.4067C10.9609 16.7818 11.4696 16.9925 12 16.9925H18C18.5523 16.9925 19 17.4402 19 17.9925C19 18.5448 18.5523 18.9925 18 18.9925H12C10.9391 18.9925 9.92172 18.5711 9.17157 17.8209C8.42143 17.0708 8 16.0534 8 14.9925V7.40671L4.70711 10.6996C4.31658 11.0901 3.68342 11.0901 3.29289 10.6996C2.90237 10.3091 2.90237 9.67591 3.29289 9.28539L8.29289 4.28539Z" fill="#1F2937"/>
</svg>
