<svg width="24" height="24" viewBox="0 0 24 24" fill="none" xmlns="http://www.w3.org/2000/svg">
<path fill-rule="evenodd" clip-rule="evenodd" d="M18 5C18.5523 5 19 5.44772 19 6V12C19 13.0609 18.5786 14.0783 17.8284 14.8284C17.0783 15.5786 16.0609 16 15 16H7.41421L10.7071 19.2929C11.0976 19.6834 11.0976 20.3166 10.7071 20.7071C10.3166 21.0976 9.68342 21.0976 9.29289 20.7071L4.29289 15.7071C3.90237 15.3166 3.90237 14.6834 4.29289 14.2929L9.29289 9.29289C9.68342 8.90237 10.3166 8.90237 10.7071 9.29289C11.0976 9.68342 11.0976 10.3166 10.7071 10.7071L7.41421 14H15C15.5304 14 16.0391 13.7893 16.4142 13.4142C16.7893 13.0391 17 12.5304 17 12V6C17 5.44772 17.4477 5 18 5Z" fill="#1F2937"/>
</svg>
