<svg width="24" height="24" viewBox="0 0 24 24" fill="none" xmlns="http://www.w3.org/2000/svg">
<path fill-rule="evenodd" clip-rule="evenodd" d="M6 5C5.44771 5 5 5.44772 5 6V12C5 13.0609 5.42143 14.0783 6.17157 14.8284C6.92172 15.5786 7.93913 16 9 16H16.5858L13.2929 19.2929C12.9024 19.6834 12.9024 20.3166 13.2929 20.7071C13.6834 21.0976 14.3166 21.0976 14.7071 20.7071L19.7071 15.7071C20.0976 15.3166 20.0976 14.6834 19.7071 14.2929L14.7071 9.29289C14.3166 8.90237 13.6834 8.90237 13.2929 9.29289C12.9024 9.68342 12.9024 10.3166 13.2929 10.7071L16.5858 14H9C8.46957 14 7.96086 13.7893 7.58579 13.4142C7.21071 13.0391 7 12.5304 7 12V6C7 5.44772 6.55229 5 6 5Z" fill="#1F2937"/>
</svg>
