<svg width="16" height="16" viewBox="0 0 16 16" fill="none" xmlns="http://www.w3.org/2000/svg">
<path d="M8.66663 4.66536V1.9987C8.66663 1.63051 8.9651 1.33203 9.33329 1.33203C9.70148 1.33203 9.99996 1.63051 9.99996 1.9987V4.66536H12.6666C13.0348 4.66536 13.3333 4.96384 13.3333 5.33203C13.3333 5.70022 13.0348 5.9987 12.6666 5.9987H9.99996C9.64634 5.9987 9.3073 5.85812 9.05725 5.60807C8.8072 5.35802 8.66663 5.01899 8.66663 4.66536Z" fill="#1F2937"/>
<path d="M2.66663 12.6654V3.33203C2.66663 2.8016 2.87749 2.29304 3.25256 1.91797C3.62764 1.5429 4.13619 1.33203 4.66663 1.33203H9.33329L9.39905 1.33529C9.55171 1.35041 9.69522 1.41792 9.80465 1.52734L13.138 4.86068C13.263 4.9857 13.3333 5.15522 13.3333 5.33203V12.6654C13.3333 13.1958 13.1224 13.7044 12.7474 14.0794C12.3723 14.4545 11.8637 14.6654 11.3333 14.6654H4.66663C4.13619 14.6654 3.62764 14.4545 3.25256 14.0794C2.87749 13.7044 2.66663 13.1958 2.66663 12.6654ZM3.99996 12.6654L4.00321 12.7311C4.01834 12.8838 4.08584 13.0273 4.19527 13.1367C4.3203 13.2617 4.48982 13.332 4.66663 13.332H11.3333C11.5101 13.332 11.6796 13.2617 11.8046 13.1367C11.9297 13.0117 12 12.8422 12 12.6654V5.60807L9.05725 2.66536H4.66663C4.48981 2.66536 4.3203 2.73565 4.19527 2.86068C4.07025 2.9857 3.99996 3.15522 3.99996 3.33203V12.6654Z" fill="#1F2937"/>
<path d="M7.33337 11.3346V7.33464C7.33337 6.96645 7.63185 6.66797 8.00004 6.66797C8.36823 6.66797 8.66671 6.96645 8.66671 7.33464V11.3346C8.66671 11.7028 8.36823 12.0013 8.00004 12.0013C7.63185 12.0013 7.33337 11.7028 7.33337 11.3346Z" fill="#1F2937"/>
<path d="M10 8.66797C10.3682 8.66797 10.6667 8.96645 10.6667 9.33464C10.6667 9.70283 10.3682 10.0013 10 10.0013H6.00004C5.63185 10.0013 5.33337 9.70283 5.33337 9.33464C5.33337 8.96645 5.63185 8.66797 6.00004 8.66797H10Z" fill="#1F2937"/>
</svg>
