<svg width="24" height="24" viewBox="0 0 24 24" fill="none" xmlns="http://www.w3.org/2000/svg">
<path fill-rule="evenodd" clip-rule="evenodd" d="M6 5.99249C4.89543 5.99249 4 6.88792 4 7.99249V15.9925C4 17.0971 4.89543 17.9925 6 17.9925H18C19.1046 17.9925 20 17.0971 20 15.9925V7.99249C20 6.88792 19.1046 5.99249 18 5.99249H6ZM2 7.99249C2 5.78335 3.79086 3.99249 6 3.99249H18C20.2091 3.99249 22 5.78335 22 7.99249V15.9925C22 18.2016 20.2091 19.9925 18 19.9925H6C3.79086 19.9925 2 18.2016 2 15.9925V7.99249Z" fill="#1F2937"/>
<path fill-rule="evenodd" clip-rule="evenodd" d="M2 10.0075C2 9.45522 2.44772 9.00751 3 9.00751H21C21.5523 9.00751 22 9.45522 22 10.0075C22 10.5598 21.5523 11.0075 21 11.0075H3C2.44772 11.0075 2 10.5598 2 10.0075Z" fill="#1F2937"/>
<path fill-rule="evenodd" clip-rule="evenodd" d="M6 15C6 14.4477 6.44772 14 7 14H7.01C7.56228 14 8.01 14.4477 8.01 15C8.01 15.5523 7.56228 16 7.01 16H7C6.44772 16 6 15.5523 6 15Z" fill="#1F2937"/>
<path fill-rule="evenodd" clip-rule="evenodd" d="M10 15C10 14.4477 10.4477 14 11 14H13C13.5523 14 14 14.4477 14 15C14 15.5523 13.5523 16 13 16H11C10.4477 16 10 15.5523 10 15Z" fill="#1F2937"/>
</svg>
