<svg width="24" height="24" viewBox="0 0 24 24" fill="none" xmlns="http://www.w3.org/2000/svg">
<path fill-rule="evenodd" clip-rule="evenodd" d="M8 3.99255C8.55228 3.99255 9 4.44027 9 4.99255V14.9926H19C19.5523 14.9926 20 15.4403 20 15.9926C20 16.5448 19.5523 16.9926 19 16.9926H9C8.46957 16.9926 7.96086 16.7818 7.58579 16.4068C7.21071 16.0317 7 15.523 7 14.9926V4.99255C7 4.44027 7.44772 3.99255 8 3.99255Z" fill="#1F2937"/>
<path fill-rule="evenodd" clip-rule="evenodd" d="M4 7.99255C4 7.44027 4.44772 6.99255 5 6.99255H15C15.5304 6.99255 16.0391 7.20327 16.4142 7.57834C16.7893 7.95341 17 8.46212 17 8.99255V18.9926C17 19.5448 16.5523 19.9926 16 19.9926C15.4477 19.9926 15 19.5448 15 18.9926V8.99255H5C4.44772 8.99255 4 8.54484 4 7.99255Z" fill="#1F2937"/>
</svg>
