<svg width="16" height="16" viewBox="0 0 16 16" fill="none" xmlns="http://www.w3.org/2000/svg">
<path d="M8.00011 3.33203C8.22301 3.33203 8.43116 3.44344 8.5548 3.62891L10.8178 7.02344L13.5834 4.8112C13.8022 4.63622 14.1071 4.61686 14.3465 4.76237C14.5858 4.90804 14.7087 5.18813 14.6538 5.46289L13.3204 12.1296C13.2581 12.4411 12.9845 12.6654 12.6668 12.6654H3.33345C3.0157 12.6654 2.74217 12.4411 2.6798 12.1296L1.34647 5.46289C1.29152 5.18813 1.4144 4.90804 1.65376 4.76237C1.89308 4.61686 2.19806 4.63622 2.41678 4.8112L5.18175 7.02344L7.44543 3.62891L7.49556 3.56315C7.62128 3.41748 7.805 3.33203 8.00011 3.33203ZM5.88813 8.36849C5.78449 8.52396 5.6203 8.62889 5.43566 8.65755C5.25104 8.68619 5.06267 8.63624 4.91678 8.51953L3.01248 6.99609L3.87967 11.332H12.1206L12.9871 6.99609L11.0834 8.51953C10.9376 8.63624 10.7492 8.68619 10.5646 8.65755C10.3799 8.62889 10.2157 8.52396 10.1121 8.36849L8.00011 5.20052L5.88813 8.36849Z" fill="#1F2937"/>
</svg>
