<svg width="18" height="18" viewBox="0 0 18 18" fill="none" xmlns="http://www.w3.org/2000/svg">
<g clip-path="url(#clip0_3929_950787)">
<path d="M15.7511 0H1.74891C0.786406 0.00273437 0.00273437 0.786406 0 1.74891V15.7511C0.00273437 16.7136 0.786406 17.4973 1.74891 17.5H15.7511C16.7136 17.4973 17.4973 16.7136 17.5 15.7511V1.74891C17.4973 0.786406 16.7136 0.00273437 15.7511 0Z" fill="white"/>
<path d="M15.7511 0H1.74891C0.786406 0.00273437 0.00273437 0.786406 0 1.74891V15.7511C0.00273437 16.7136 0.786406 17.4973 1.74891 17.5H15.7511C16.7136 17.4973 17.4973 16.7136 17.5 15.7511V1.74891C17.4973 0.786406 16.7136 0.00273437 15.7511 0ZM5.13844 10.547C5.91008 10.9003 6.82172 10.5585 7.175 9.78633H8.38578C7.63109 12.8767 3.08219 12.3298 3.08219 9.14813C3.08219 5.96367 7.63109 5.4168 8.38578 8.50992H7.175C6.73039 7.5332 5.44633 7.29914 4.68836 8.05984C3.92766 8.81727 4.16117 10.1024 5.13844 10.547ZM13.4099 11.1623C13.1791 11.3619 12.9199 11.5155 12.635 11.6238C11.8174 11.9399 10.8948 11.8377 10.1653 11.3449V11.6238H9.06281V3.91617H10.1566V6.9125C10.547 6.64781 10.9998 6.49086 11.4696 6.45367H11.6659C14.1553 6.4482 15.301 9.54734 13.4099 11.1623ZM13.2475 9.14594C13.2645 10.0062 12.5727 10.7155 11.7124 10.7155C10.8522 10.7155 10.1598 10.0062 10.1801 9.14594C10.2227 7.14656 13.2021 7.14656 13.2475 9.14594Z" fill="#0287D1"/>
</g>
<defs>
<clipPath id="clip0_3929_950787">
<rect width="17.5" height="17.5" fill="white"/>
</clipPath>
</defs>
</svg>
