<svg width="24" height="24" viewBox="0 0 24 24" fill="none" xmlns="http://www.w3.org/2000/svg">
<path fill-rule="evenodd" clip-rule="evenodd" d="M6.41884 4.17878C6.86825 3.85777 7.4928 3.96186 7.81381 4.41127L12.0001 10.272L16.1863 4.41127C16.5074 3.96186 17.1319 3.85777 17.5813 4.17878C18.0307 4.49978 18.1348 5.12433 17.8138 5.57375L13.0001 12.313V18.9925C13.0001 19.5448 12.5524 19.9925 12.0001 19.9925C11.4478 19.9925 11.0001 19.5448 11.0001 18.9925V12.313L6.18634 5.57375C5.86534 5.12433 5.96943 4.49978 6.41884 4.17878Z" fill="#1F2937"/>
<path fill-rule="evenodd" clip-rule="evenodd" d="M7 16.9925C7 16.4402 7.44772 15.9925 8 15.9925H16C16.5523 15.9925 17 16.4402 17 16.9925C17 17.5448 16.5523 17.9925 16 17.9925H8C7.44772 17.9925 7 17.5448 7 16.9925Z" fill="#1F2937"/>
<path fill-rule="evenodd" clip-rule="evenodd" d="M7 13.0075C7 12.4552 7.44772 12.0075 8 12.0075H16C16.5523 12.0075 17 12.4552 17 13.0075C17 13.5598 16.5523 14.0075 16 14.0075H8C7.44772 14.0075 7 13.5598 7 13.0075Z" fill="#1F2937"/>
</svg>
