<svg width="24" height="24" viewBox="0 0 24 24" fill="none" xmlns="http://www.w3.org/2000/svg">
<path fill-rule="evenodd" clip-rule="evenodd" d="M14.1376 6.23979C13.5296 5.99061 12.8566 5.94792 12.222 6.11828C11.5874 6.28864 11.0263 6.66263 10.6248 7.1828C10.224 7.70224 10.0045 8.33875 9.9999 8.99482V11.9916H13.8999C14.4522 11.9916 14.8999 12.4393 14.8999 12.9916C14.8999 13.5439 14.4522 13.9916 13.8999 13.9916H9.9999V16.4916C9.9999 16.5289 9.99781 16.5662 9.99365 16.6032C9.97228 16.7934 9.93738 16.981 9.88951 17.1648C10.7165 17.1468 11.5416 17.2755 12.3262 17.5463C12.3569 17.5569 12.3871 17.569 12.4166 17.5825C13.0702 17.8821 13.7808 18.0372 14.4999 18.0372C15.219 18.0372 15.9296 17.8821 16.5832 17.5825C17.0853 17.3524 17.6788 17.5729 17.909 18.0749C18.1391 18.577 17.9186 19.1705 17.4166 19.4006C16.5014 19.8201 15.5066 20.0372 14.4999 20.0372C13.5108 20.0372 12.5332 19.8276 11.6313 19.4225C10.9603 19.1975 10.2491 19.1175 9.54454 19.188C9.07431 19.235 8.61439 19.3483 8.17819 19.5236C7.91306 19.6936 7.62752 19.8326 7.32698 19.9366C6.84134 20.1047 6.30736 19.8773 6.09197 19.4107C5.87658 18.9441 6.04992 18.3902 6.49288 18.1297C6.72665 17.9921 6.96768 17.8686 7.21466 17.7596C7.35047 17.6583 7.47351 17.5396 7.5804 17.406C7.80587 17.1242 7.95067 16.7868 7.9999 16.4299V13.9916H6.8999C6.34762 13.9916 5.8999 13.5439 5.8999 12.9916C5.8999 12.4393 6.34762 11.9916 6.8999 11.9916H7.9999V8.98556C8.0065 7.89047 8.37246 6.82783 9.04153 5.96088C9.7106 5.09392 10.6458 4.47061 11.7034 4.18667C12.7611 3.90274 13.8827 3.97389 14.896 4.3892C15.9093 4.80451 16.7583 5.54101 17.3124 6.48556C17.5919 6.96191 17.4323 7.57463 16.9559 7.8541C16.4796 8.13357 15.8669 7.97396 15.5874 7.49761C15.2549 6.93088 14.7455 6.48898 14.1376 6.23979Z" fill="#1F2937"/>
</svg>
