<svg width="24" height="24" viewBox="0 0 24 24" fill="none" xmlns="http://www.w3.org/2000/svg">
<path fill-rule="evenodd" clip-rule="evenodd" d="M10.2364 4.6412C11.5251 4.00943 12.9568 3.83166 14.3439 4.1407C15.7286 4.44919 16.9803 5.22253 17.9527 6.33409C18.3164 6.74976 18.2742 7.38152 17.8585 7.74516C17.4429 8.1088 16.8111 8.06662 16.4475 7.65094C15.732 6.83316 14.8453 6.30145 13.909 6.09283C12.975 5.88475 12.0065 6.00083 11.1168 6.43701C10.2238 6.87481 9.43649 7.62329 8.87261 8.6133C8.30841 9.60388 8.00098 10.7799 8.00098 11.9925C8.00098 13.2052 8.30841 14.3812 8.87261 15.3717C9.43649 16.3618 10.2238 17.1102 11.1168 17.548C12.0065 17.9842 12.975 18.1003 13.909 17.8922C14.8453 17.6836 15.732 17.1519 16.4475 16.3341C16.8111 15.9184 17.4429 15.8762 17.8585 16.2399C18.2742 16.6035 18.3164 17.2353 17.9527 17.651C16.9803 18.7625 15.7286 19.5359 14.3439 19.8443C12.9568 20.1534 11.5251 19.9756 10.2364 19.3438C8.95102 18.7137 7.87862 17.6676 7.13473 16.3616C6.39117 15.0561 6.00098 13.5366 6.00098 11.9925C6.00098 10.4484 6.39117 8.92896 7.13473 7.62347C7.87862 6.3174 8.95102 5.27136 10.2364 4.6412Z" fill="#1F2937"/>
<path fill-rule="evenodd" clip-rule="evenodd" d="M4 10.0075C4 9.45519 4.44772 9.00748 5 9.00748H13C13.5523 9.00748 14 9.45519 14 10.0075C14 10.5598 13.5523 11.0075 13 11.0075H5C4.44772 11.0075 4 10.5598 4 10.0075ZM4 14.0075C4 13.4552 4.44772 13.0075 5 13.0075H13C13.5523 13.0075 14 13.4552 14 14.0075C14 14.5598 13.5523 15.0075 13 15.0075H5C4.44772 15.0075 4 14.5598 4 14.0075Z" fill="#1F2937"/>
</svg>
