<svg width="24" height="24" viewBox="0 0 24 24" fill="none" xmlns="http://www.w3.org/2000/svg">
<path fill-rule="evenodd" clip-rule="evenodd" d="M5 6C5 5.44772 5.44772 5 6 5H14C15.0609 5 16.0783 5.42143 16.8284 6.17157C17.5786 6.92172 18 7.93913 18 9C18 10.0609 17.5786 11.0783 16.8284 11.8284C16.7692 11.8877 16.7082 11.9449 16.6458 12C16.7082 12.0551 16.7692 12.1123 16.8284 12.1716C17.5786 12.9217 18 13.9391 18 15C18 16.0609 17.5786 17.0783 16.8284 17.8284C16.0783 18.5786 15.0609 19 14 19H6C5.44772 19 5 18.5523 5 18C5 17.4477 5.44772 17 6 17H14C14.5304 17 15.0391 16.7893 15.4142 16.4142C15.7893 16.0391 16 15.5304 16 15C16 14.4696 15.7893 13.9609 15.4142 13.5858C15.0391 13.2107 14.5304 13 14 13C13.4477 13 13 12.5523 13 12C13 11.4477 13.4477 11 14 11C14.5304 11 15.0391 10.7893 15.4142 10.4142C15.7893 10.0391 16 9.53043 16 9C16 8.46957 15.7893 7.96086 15.4142 7.58579C15.0391 7.21071 14.5304 7 14 7H6C5.44772 7 5 6.55228 5 6Z" fill="#1F2937"/>
<path fill-rule="evenodd" clip-rule="evenodd" d="M8 5C8.55228 5 9 5.44772 9 6V18C9 18.5523 8.55228 19 8 19C7.44772 19 7 18.5523 7 18V6C7 5.44772 7.44772 5 8 5Z" fill="#1F2937"/>
<path fill-rule="evenodd" clip-rule="evenodd" d="M7 12C7 11.4477 7.44772 11 8 11H14C14.5523 11 15 11.4477 15 12C15 12.5523 14.5523 13 14 13H8C7.44772 13 7 12.5523 7 12Z" fill="#1F2937"/>
<path fill-rule="evenodd" clip-rule="evenodd" d="M9 2C9.55228 2 10 2.44772 10 3V6C10 6.55228 9.55228 7 9 7C8.44772 7 8 6.55228 8 6V3C8 2.44772 8.44772 2 9 2Z" fill="#1F2937"/>
<path fill-rule="evenodd" clip-rule="evenodd" d="M13 2C13.5523 2 14 2.44772 14 3V6C14 6.55228 13.5523 7 13 7C12.4477 7 12 6.55228 12 6V3C12 2.44772 12.4477 2 13 2Z" fill="#1F2937"/>
<path fill-rule="evenodd" clip-rule="evenodd" d="M9 17C9.55228 17 10 17.4477 10 18V21C10 21.5523 9.55228 22 9 22C8.44772 22 8 21.5523 8 21V18C8 17.4477 8.44772 17 9 17Z" fill="#1F2937"/>
<path fill-rule="evenodd" clip-rule="evenodd" d="M13 17C13.5523 17 14 17.4477 14 18V21C14 21.5523 13.5523 22 13 22C12.4477 22 12 21.5523 12 21V18C12 17.4477 12.4477 17 13 17Z" fill="#1F2937"/>
</svg>
