<svg width="24" height="24" viewBox="0 0 24 24" fill="none" xmlns="http://www.w3.org/2000/svg">
<path fill-rule="evenodd" clip-rule="evenodd" d="M7 14.9925C5.89543 14.9925 5 15.8879 5 16.9925C5 18.0971 5.89543 18.9925 7 18.9925C8.10457 18.9925 9 18.0971 9 16.9925C9 15.8879 8.10457 14.9925 7 14.9925ZM3 16.9925C3 14.7834 4.79086 12.9925 7 12.9925C9.20914 12.9925 11 14.7834 11 16.9925C11 19.2016 9.20914 20.9925 7 20.9925C4.79086 20.9925 3 19.2016 3 16.9925Z" fill="#1F2937"/>
<path fill-rule="evenodd" clip-rule="evenodd" d="M17 14.9925C15.8954 14.9925 15 15.8879 15 16.9925C15 18.0971 15.8954 18.9925 17 18.9925C18.1046 18.9925 19 18.0971 19 16.9925C19 15.8879 18.1046 14.9925 17 14.9925ZM13 16.9925C13 14.7834 14.7909 12.9925 17 12.9925C19.2091 12.9925 21 14.7834 21 16.9925C21 19.2016 19.2091 20.9925 17 20.9925C14.7909 20.9925 13 19.2016 13 16.9925Z" fill="#1F2937"/>
<path fill-rule="evenodd" clip-rule="evenodd" d="M18.632 3.23257C19.06 3.58165 19.1239 4.21158 18.7748 4.63955L9.92484 15.4895C9.57576 15.9175 8.94583 15.9815 8.51786 15.6324C8.08989 15.2833 8.02594 14.6534 8.37502 14.2254L17.225 3.37541C17.5741 2.94744 18.204 2.88348 18.632 3.23257Z" fill="#1F2937"/>
<path fill-rule="evenodd" clip-rule="evenodd" d="M5.36796 3.23257C5.79593 2.88348 6.42586 2.94744 6.77494 3.37541L15.6249 14.2254C15.974 14.6534 15.9101 15.2833 15.4821 15.6324C15.0541 15.9815 14.4242 15.9175 14.0751 15.4895L5.22512 4.63955C4.87604 4.21158 4.93999 3.58165 5.36796 3.23257Z" fill="#1F2937"/>
</svg>
