<svg width="17" height="16" viewBox="0 0 17 16" fill="none" xmlns="http://www.w3.org/2000/svg">
<path d="M7.7998 4.66699C7.7998 4.28039 8.1134 3.96679 8.5 3.96679C8.8866 3.96679 9.2002 4.28039 9.2002 4.66699V7.70996L10.3281 8.83886C10.6015 9.11223 10.6015 9.55573 10.3281 9.8291C10.0547 10.1021 9.61115 10.1024 9.33789 9.8291L8.00488 8.49511C7.87371 8.36386 7.7998 8.18557 7.7998 8V4.66699Z" fill="currentColor"/>
<path d="M11.4893 10.0576C11.7087 9.9335 11.9782 9.93671 12.1944 10.0664L15.5274 12.0664C15.7382 12.1929 15.8672 12.4211 15.8672 12.667C15.8672 12.9129 15.7382 13.1411 15.5274 13.2676L12.1944 15.2676C11.9782 15.3973 11.7087 15.4005 11.4893 15.2764C11.2698 15.1521 11.1338 14.9192 11.1338 14.667V10.667C11.1338 10.4148 11.2698 10.1819 11.4893 10.0576ZM12.5342 13.4297L13.8057 12.667L12.5342 11.9033V13.4297Z" fill="currentColor"/>
<path d="M7.6748 1.35059C9.07411 1.17693 10.4929 1.44953 11.7285 2.12891C12.964 2.80828 13.9538 3.86022 14.5566 5.13476C15.1596 6.40947 15.3454 7.84235 15.0869 9.22852C15.016 9.60856 14.6496 9.85896 14.2695 9.78809C13.8898 9.71699 13.6391 9.35156 13.71 8.97168C13.9016 7.94358 13.7854 6.88321 13.377 5.92383L13.291 5.7334C12.8141 4.72518 12.0311 3.89288 11.0537 3.35547C10.0762 2.81803 8.95366 2.6028 7.84668 2.74023C6.73993 2.87771 5.70493 3.36115 4.88867 4.12109C4.0723 4.88128 3.51571 5.88019 3.2998 6.97461C3.08403 8.06887 3.21909 9.20362 3.68555 10.2168C4.15205 11.23 4.92669 12.0697 5.89844 12.6172L6.08203 12.7168C7.00994 13.1925 8.05948 13.3837 9.09863 13.2656C9.4827 13.2221 9.8294 13.4987 9.87305 13.8828C9.91655 14.2668 9.64078 14.6135 9.25684 14.6572C7.85571 14.8165 6.43954 14.5291 5.21094 13.8369C3.98252 13.1448 3.00374 12.0825 2.41406 10.8018C1.82441 9.52085 1.65384 8.08654 1.92676 6.70312C2.19971 5.31967 2.90259 4.05764 3.93457 3.09668C4.96656 2.13581 6.27548 1.52433 7.6748 1.35059Z" fill="currentColor"/>
</svg>
