<svg width="16" height="16" viewBox="0 0 16 16" fill="none" xmlns="http://www.w3.org/2000/svg">
<path d="M6.87597 1.3955C8.24653 1.16225 9.65569 1.36043 10.9082 1.96386C12.1608 2.56737 13.1945 3.54629 13.8662 4.76367C14.5377 5.98082 14.8144 7.3766 14.6572 8.75781C14.6135 9.14192 14.2659 9.41777 13.8818 9.37402C13.498 9.33003 13.2219 8.98355 13.2656 8.59961C13.39 7.50687 13.1719 6.40242 12.6406 5.43945C12.1094 4.47657 11.2915 3.70299 10.3008 3.22558C9.30989 2.74817 8.19461 2.59081 7.11035 2.77539C6.02619 2.96001 5.02603 3.47756 4.24902 4.25586C3.47213 5.03417 2.9562 6.03473 2.77344 7.11914C2.59064 8.2037 2.75047 9.31857 3.22949 10.3086C3.70853 11.2985 4.48352 12.1149 5.44726 12.6445C6.41111 13.1743 7.51582 13.391 8.6084 13.2646C8.9924 13.2203 9.33935 13.4959 9.38379 13.8799C9.42817 14.2638 9.15337 14.6107 8.76953 14.6553C7.3883 14.815 5.99095 14.5409 4.77246 13.8711C3.55421 13.2014 2.57424 12.1695 1.96875 10.918C1.36325 9.66649 1.16252 8.25767 1.39355 6.88671C1.62462 5.51566 2.27645 4.25056 3.25879 3.2666C4.24113 2.28263 5.50532 1.62884 6.87597 1.3955Z" fill="currentColor"/>
<path d="M7.2998 4.66699C7.2998 4.28039 7.6134 3.96679 8 3.96679C8.3866 3.96679 8.7002 4.28039 8.7002 4.66699V7.70996L9.82812 8.83886C10.1015 9.11223 10.1015 9.55573 9.82812 9.8291C9.55473 10.1021 9.11115 10.1024 8.83789 9.8291L7.50488 8.49511C7.37371 8.36386 7.2998 8.18557 7.2998 8V4.66699Z" fill="currentColor"/>
<path d="M10.6328 14.666V11.333C10.6328 10.9464 10.9464 10.6328 11.333 10.6328C11.7196 10.6328 12.0332 10.9464 12.0332 11.333V14.666C12.0332 15.0526 11.7196 15.3662 11.333 15.3662C10.9464 15.3662 10.6328 15.0526 10.6328 14.666Z" fill="currentColor"/>
<path d="M13.2998 14.666V11.333C13.2998 10.9464 13.6134 10.6328 14 10.6328C14.3866 10.6328 14.7002 10.9464 14.7002 11.333V14.666C14.7002 15.0526 14.3866 15.3662 14 15.3662C13.6134 15.3662 13.2998 15.0526 13.2998 14.666Z" fill="currentColor"/>
</svg>