<svg width="24" height="24" viewBox="0 0 24 24" fill="none" xmlns="http://www.w3.org/2000/svg">
<path fill-rule="evenodd" clip-rule="evenodd" d="M12 11.9925C11.4477 11.9925 11 12.4402 11 12.9925C11 13.5448 11.4477 13.9925 12 13.9925C12.5523 13.9925 13 13.5448 13 12.9925C13 12.4402 12.5523 11.9925 12 11.9925ZM9 12.9925C9 11.3356 10.3431 9.99249 12 9.99249C13.6569 9.99249 15 11.3356 15 12.9925C15 14.6493 13.6569 15.9925 12 15.9925C10.3431 15.9925 9 14.6493 9 12.9925Z" fill="#1F2937"/>
<path fill-rule="evenodd" clip-rule="evenodd" d="M16.2073 8.78539C16.5978 9.17591 16.5978 9.80908 16.2073 10.1996L14.1573 12.2496C13.7668 12.6401 13.1336 12.6401 12.7431 12.2496C12.3526 11.8591 12.3526 11.2259 12.7431 10.8354L14.7931 8.78539C15.1836 8.39486 15.8168 8.39486 16.2073 8.78539Z" fill="#1F2937"/>
<path fill-rule="evenodd" clip-rule="evenodd" d="M12 4.961C10.3401 4.961 8.72133 5.47731 7.36799 6.43839C6.01464 7.39946 4.99375 8.7577 4.4468 10.3249C3.89984 11.8921 3.85391 13.5906 4.31536 15.185C4.74525 16.6704 5.59567 17.997 6.76061 19.0066H17.2394C18.4043 17.997 19.2547 16.6704 19.6846 15.185C20.1461 13.5906 20.1002 11.8921 19.5532 10.3249C19.0062 8.7577 17.9854 7.39946 16.632 6.43839C15.2787 5.47731 13.6599 4.961 12 4.961ZM6.20998 4.80773C7.90167 3.60639 9.92515 2.961 12 2.961C14.0749 2.961 16.0983 3.60639 17.79 4.80773C19.4817 6.00908 20.7578 7.70688 21.4415 9.66586C22.1252 11.6248 22.1826 13.748 21.6058 15.741C21.029 17.7341 19.8465 19.4984 18.2222 20.7894C18.0453 20.93 17.826 21.0066 17.6 21.0066H6.4C6.17401 21.0066 5.95469 20.93 5.77778 20.7894C4.1535 19.4984 2.97101 17.7341 2.3942 15.741C1.81738 13.748 1.8748 11.6248 2.55849 9.66586C3.24219 7.70688 4.5183 6.00908 6.20998 4.80773Z" fill="#1F2937"/>
</svg>
