<svg width="24" height="24" viewBox="0 0 24 24" fill="none" xmlns="http://www.w3.org/2000/svg">
<path fill-rule="evenodd" clip-rule="evenodd" d="M5.29209 5.58052C5.01022 5.83042 5 5.97447 5 6C5 6.02553 5.01022 6.16958 5.29209 6.41948C5.57279 6.66834 6.03602 6.93815 6.69427 7.18499C8.0034 7.67591 9.87903 8 12 8C14.121 8 15.9966 7.67591 17.3057 7.18499C17.964 6.93815 18.4272 6.66834 18.7079 6.41948C18.9898 6.16958 19 6.02553 19 6C19 5.97447 18.9898 5.83042 18.7079 5.58052C18.4272 5.33166 17.964 5.06185 17.3057 4.81501C15.9966 4.32409 14.121 4 12 4C9.87903 4 8.0034 4.32409 6.69427 4.81501C6.03602 5.06185 5.57279 5.33166 5.29209 5.58052ZM5.99202 2.94235C7.57833 2.34749 9.70269 2 12 2C14.2973 2 16.4217 2.34749 18.008 2.94235C18.7974 3.2384 19.5058 3.61504 20.0347 4.08401C20.5625 4.55194 21 5.19711 21 6C21 6.80289 20.5625 7.44806 20.0347 7.91599C19.5058 8.38496 18.7974 8.7616 18.008 9.05765C16.4217 9.65251 14.2973 10 12 10C9.70269 10 7.57833 9.65251 5.99202 9.05765C5.20256 8.7616 4.49422 8.38496 3.96527 7.91599C3.43749 7.44806 3 6.80289 3 6C3 5.19711 3.43749 4.55194 3.96527 4.08401C4.49422 3.61504 5.20256 3.2384 5.99202 2.94235Z" fill="#1F2937"/>
<path fill-rule="evenodd" clip-rule="evenodd" d="M4 5C4.55228 5 5 5.44772 5 6V12C5 12.0187 5.00689 12.1594 5.28011 12.4067C5.55297 12.6538 6.01363 12.9298 6.69427 13.185C8.05244 13.6943 9.96153 14 12 14C14.0385 14 15.9476 13.6943 17.3057 13.185C17.9864 12.9298 18.447 12.6538 18.7199 12.4067C18.9931 12.1594 19 12.0187 19 12V6C19 5.44772 19.4477 5 20 5C20.5523 5 21 5.44772 21 6V12C21 12.777 20.5855 13.4156 20.0622 13.8894C19.5385 14.3634 18.8276 14.7503 18.008 15.0576C16.3656 15.6736 14.205 16 12 16C9.79501 16 7.63443 15.6736 5.99202 15.0576C5.17237 14.7503 4.46146 14.3634 3.93782 13.8894C3.41454 13.4156 3 12.777 3 12V6C3 5.44772 3.44772 5 4 5Z" fill="#1F2937"/>
<path fill-rule="evenodd" clip-rule="evenodd" d="M4 11C4.55228 11 5 11.4477 5 12V18C5 18.0187 5.00689 18.1594 5.28011 18.4067C5.55297 18.6538 6.01363 18.9298 6.69427 19.185C8.05244 19.6943 9.96153 20 12 20C14.0385 20 15.9476 19.6943 17.3057 19.185C17.9864 18.9298 18.447 18.6538 18.7199 18.4067C18.9931 18.1594 19 18.0187 19 18V12C19 11.4477 19.4477 11 20 11C20.5523 11 21 11.4477 21 12V18C21 18.777 20.5855 19.4156 20.0622 19.8894C19.5385 20.3634 18.8276 20.7503 18.008 21.0576C16.3656 21.6736 14.205 22 12 22C9.79501 22 7.63443 21.6736 5.99202 21.0576C5.17237 20.7503 4.46146 20.3634 3.93782 19.8894C3.41454 19.4156 3 18.777 3 18V12C3 11.4477 3.44772 11 4 11Z" fill="#1F2937"/>
</svg>
