<svg width="24" height="24" viewBox="0 0 24 24" fill="none" xmlns="http://www.w3.org/2000/svg">
<g clip-path="url(#clip0_4575_1221)">
<path d="M9.25 13.4499V5.37491C9.25 4.99697 9.40013 4.63452 9.66737 4.36728C9.93461 4.10005 10.2971 3.94991 10.675 3.94991C11.0529 3.94991 11.4154 4.10005 11.6826 4.36728C11.9499 4.63452 12.1 4.99697 12.1 5.37491V12.4999" stroke="#1F2937" stroke-width="1.5" stroke-linecap="round" stroke-linejoin="round"/>
<path d="M12.1001 12.0249V10.1249C12.1001 9.74694 12.2502 9.38449 12.5175 9.11725C12.7847 8.85002 13.1472 8.69988 13.5251 8.69988C13.903 8.69988 14.2655 8.85002 14.5327 9.11725C14.8 9.38449 14.9501 9.74694 14.9501 10.1249V12.4999" stroke="#1F2937" stroke-width="1.5" stroke-linecap="round" stroke-linejoin="round"/>
<path d="M14.95 11.0749C14.95 10.6969 15.1001 10.3345 15.3673 10.0672C15.6346 9.80001 15.997 9.64988 16.3749 9.64988C16.7529 9.64988 17.1153 9.80001 17.3826 10.0672C17.6498 10.3345 17.7999 10.6969 17.7999 11.0749V12.4999" stroke="#1F2937" stroke-width="1.5" stroke-linecap="round" stroke-linejoin="round"/>
<path d="M17.8008 12.0249C17.8008 11.6469 17.9509 11.2845 18.2182 11.0173C18.4854 10.75 18.8479 10.5999 19.2258 10.5999C19.6037 10.5999 19.9662 10.75 20.2334 11.0173C20.5006 11.2845 20.6508 11.6469 20.6508 12.0249V16.2999C20.6508 17.8116 20.0502 19.2614 18.9813 20.3303C17.9123 21.3993 16.4625 21.9998 14.9508 21.9998H13.0508H13.2484C12.3044 22 11.3752 21.7657 10.5441 21.318C9.71309 20.8703 9.00623 20.2232 8.48704 19.4348L8.30084 19.1498C8.00444 18.6948 6.9642 16.8813 5.17916 13.7083C4.99719 13.3848 4.94858 13.0031 5.04367 12.6444C5.13876 12.2857 5.37006 11.9782 5.68835 11.7874C6.02739 11.584 6.42467 11.4996 6.8171 11.5478C7.20953 11.596 7.57461 11.774 7.85434 12.0534L9.25084 13.4499" stroke="#1F2937" stroke-width="1.5" stroke-linecap="round" stroke-linejoin="round"/>
<path d="M6.40092 3.9499L5.45093 2.99991" stroke="#1F2937" stroke-width="1.5" stroke-linecap="round" stroke-linejoin="round"/>
<path d="M5.45048 7.7499H4.50049" stroke="#1F2937" stroke-width="1.5" stroke-linecap="round" stroke-linejoin="round"/>
<path d="M14.95 3.9499L15.8999 2.99991" stroke="#1F2937" stroke-width="1.5" stroke-linecap="round" stroke-linejoin="round"/>
<path d="M15.9004 6.7999H16.8504" stroke="#1F2937" stroke-width="1.5" stroke-linecap="round" stroke-linejoin="round"/>
</g>
<defs>
<clipPath id="clip0_4575_1221">
<rect width="24" height="24" fill="white"/>
</clipPath>
</defs>
</svg>
