<svg width="24" height="24" viewBox="0 0 24 24" fill="none" xmlns="http://www.w3.org/2000/svg">
<path fill-rule="evenodd" clip-rule="evenodd" d="M4 4C4 2.89543 4.89543 2 6 2H18C19.1046 2 20 2.89543 20 4V20C20 21.1046 19.1046 22 18 22H6C4.89543 22 4 21.1046 4 20V4ZM18 4H6V20H18V4Z" fill="#1F2937"/>
<path fill-rule="evenodd" clip-rule="evenodd" d="M10 17.0075C10 15.9029 10.8954 15.0075 12 15.0075C13.1046 15.0075 14 15.9029 14 17.0075C14 18.1121 13.1046 19.0075 12 19.0075C10.8954 19.0075 10 18.1121 10 17.0075Z" fill="#1F2937"/>
</svg>
