<svg width="24" height="24" viewBox="0 0 24 24" fill="none" xmlns="http://www.w3.org/2000/svg">
<path fill-rule="evenodd" clip-rule="evenodd" d="M2 19.0075C2 18.4552 2.44772 18.0075 3 18.0075H21C21.5523 18.0075 22 18.4552 22 19.0075C22 19.5598 21.5523 20.0075 21 20.0075H3C2.44772 20.0075 2 19.5598 2 19.0075Z" fill="#1F2937"/>
<path fill-rule="evenodd" clip-rule="evenodd" d="M4 7C4 5.89543 4.89543 5 6 5H18C19.1046 5 20 5.89543 20 7V15C20 16.1046 19.1046 17 18 17H6C4.89543 17 4 16.1046 4 15V7ZM18 7H6V15H18V7Z" fill="#1F2937"/>
</svg>
