<svg width="24" height="24" viewBox="0 0 24 24" fill="none" xmlns="http://www.w3.org/2000/svg">
<path fill-rule="evenodd" clip-rule="evenodd" d="M12 8.99249C12 7.88792 12.8954 6.99249 14 6.99249H20C21.1046 6.99249 22 7.88792 22 8.99249V18.9925C22 20.0971 21.1046 20.9925 20 20.9925H14C12.8954 20.9925 12 20.0971 12 18.9925V8.99249ZM20 8.99249H14V18.9925H20V8.99249Z" fill="#1F2937"/>
<path fill-rule="evenodd" clip-rule="evenodd" d="M2.58579 3.59329C2.96086 3.21822 3.46957 3.00751 4 3.00751H17C17.5304 3.00751 18.0391 3.21822 18.4142 3.59329C18.7893 3.96837 19 4.47708 19 5.00751V8.00751C19 8.55979 18.5523 9.00751 18 9.00751C17.4477 9.00751 17 8.55979 17 8.00751L17 5.00751H4V17.0075H13C13.5523 17.0075 14 17.4552 14 18.0075C14 18.5598 13.5523 19.0075 13 19.0075H4C3.46957 19.0075 2.96086 18.7968 2.58579 18.4217C2.21071 18.0466 2 17.5379 2 17.0075V5.00751C2 4.47707 2.21071 3.96837 2.58579 3.59329Z" fill="#1F2937"/>
<path fill-rule="evenodd" clip-rule="evenodd" d="M15 9C15 8.44772 15.4477 8 16 8H18C18.5523 8 19 8.44772 19 9C19 9.55228 18.5523 10 18 10H16C15.4477 10 15 9.55228 15 9Z" fill="#1F2937"/>
</svg>
