<svg width="24" height="24" viewBox="0 0 24 24" fill="none" xmlns="http://www.w3.org/2000/svg">
<path fill-rule="evenodd" clip-rule="evenodd" d="M12.1074 4.00578L5.26569 16.0991L11.8939 20.0391L18.7356 7.94576L12.1074 4.00578ZM18.7407 7.9358C18.7408 7.9356 18.7408 7.9356 18.7407 7.93583L18.7407 7.9358ZM11.888 20.0486L11.888 20.0486L11.888 20.0486ZM5.26056 16.1091C5.26054 16.1093 5.26051 16.1093 5.26056 16.1091L5.26056 16.1091ZM10.3915 2.9781C10.923 2.03865 12.1133 1.68313 13.0674 2.25027L19.7453 6.2198C20.6993 6.78693 20.9895 8.02251 20.458 8.96196L13.6098 21.0668C13.0783 22.0062 11.888 22.3618 10.9339 21.7946L4.25602 17.8251C3.30195 17.258 3.01176 16.0224 3.54325 15.0829L10.3915 2.9781Z" fill="#1F2937"/>
<path fill-rule="evenodd" clip-rule="evenodd" d="M13.3966 4.86617C13.6473 4.37408 14.2495 4.17842 14.7416 4.42915L16.5236 5.33713C17.0157 5.58786 17.2114 6.19004 16.9606 6.68213C16.7099 7.17422 16.1077 7.36988 15.6156 7.11915L13.8336 6.21116C13.3415 5.96043 13.1459 5.35826 13.3966 4.86617Z" fill="#1F2937"/>
<path fill-rule="evenodd" clip-rule="evenodd" d="M10.1848 15.5625C10.6768 15.8134 10.872 16.4156 10.6209 16.9074L10.6163 16.9163C10.3652 17.4082 9.76272 17.6035 9.27072 17.3526C8.77872 17.1017 8.58348 16.4996 8.83464 16.0077L8.83918 15.9988C9.09034 15.507 9.69279 15.3116 10.1848 15.5625Z" fill="#1F2937"/>
<path fill-rule="evenodd" clip-rule="evenodd" d="M6.89443 3.56027C7.14142 4.05425 6.94119 4.65492 6.44721 4.90191L5 5.62552V7.50748C5 7.88625 4.786 8.23252 4.44721 8.40191L3 9.12552V11.0075C3 11.5598 2.55228 12.0075 2 12.0075C1.44772 12.0075 1 11.5598 1 11.0075V8.50748C1 8.12871 1.214 7.78245 1.55279 7.61306L3 6.88945V5.00748C3 4.62871 3.214 4.28245 3.55279 4.11306L5.55279 3.11306C6.04676 2.86607 6.64744 3.06629 6.89443 3.56027Z" fill="#1F2937"/>
<path fill-rule="evenodd" clip-rule="evenodd" d="M22.0002 12.0075C22.5525 12.0075 23.0002 12.4552 23.0002 13.0075V15.5075C23.0002 15.8863 22.7862 16.2325 22.4474 16.4019L21.0002 17.1255V19.0075C21.0002 19.3863 20.7862 19.7325 20.4474 19.9019L18.4474 20.9019C17.9535 21.1489 17.3528 20.9487 17.1058 20.4547C16.8588 19.9607 17.059 19.3601 17.553 19.1131L19.0002 18.3895V16.5075C19.0002 16.1287 19.2142 15.7825 19.553 15.6131L21.0002 14.8895V13.0075C21.0002 12.4552 21.4479 12.0075 22.0002 12.0075Z" fill="#1F2937"/>
</svg>
