<svg width="24" height="24" viewBox="0 0 24 24" fill="none" xmlns="http://www.w3.org/2000/svg">
<path fill-rule="evenodd" clip-rule="evenodd" d="M2 5.00751C2 3.90294 2.89543 3.00751 4 3.00751H20C21.1046 3.00751 22 3.90294 22 5.00751V15.0075C22 16.1121 21.1046 17.0075 20 17.0075H4C2.89543 17.0075 2 16.1121 2 15.0075V5.00751ZM20 5.00751H4V15.0075H20V5.00751Z" fill="#1F2937"/>
<path fill-rule="evenodd" clip-rule="evenodd" d="M6 19.9925C6 19.4402 6.44772 18.9925 7 18.9925H17C17.5523 18.9925 18 19.4402 18 19.9925C18 20.5448 17.5523 20.9925 17 20.9925H7C6.44772 20.9925 6 20.5448 6 19.9925Z" fill="#1F2937"/>
<path fill-rule="evenodd" clip-rule="evenodd" d="M9 15.0075C9.55228 15.0075 10 15.4552 10 16.0075V20.0075C10 20.5598 9.55228 21.0075 9 21.0075C8.44772 21.0075 8 20.5598 8 20.0075V16.0075C8 15.4552 8.44772 15.0075 9 15.0075Z" fill="#1F2937"/>
<path fill-rule="evenodd" clip-rule="evenodd" d="M15 15.0075C15.5523 15.0075 16 15.4552 16 16.0075V20.0075C16 20.5598 15.5523 21.0075 15 21.0075C14.4477 21.0075 14 20.5598 14 20.0075V16.0075C14 15.4552 14.4477 15.0075 15 15.0075Z" fill="#1F2937"/>
</svg>
