<svg width="24" height="24" viewBox="0 0 24 24" fill="none" xmlns="http://www.w3.org/2000/svg">
<path fill-rule="evenodd" clip-rule="evenodd" d="M4 7C3.44772 7 3 7.44772 3 8V16C3 16.5523 3.44772 17 4 17H20C20.5523 17 21 16.5523 21 16V8C21 7.44772 20.5523 7 20 7H4ZM1 8C1 6.34315 2.34315 5 4 5H20C21.6569 5 23 6.34315 23 8V16C23 17.6569 21.6569 19 20 19H4C2.34315 19 1 17.6569 1 16V8Z" fill="#1F2937"/>
<path fill-rule="evenodd" clip-rule="evenodd" d="M8 9.00751C8.55228 9.00751 9 9.45522 9 10.0075V11.0075H10C10.5523 11.0075 11 11.4552 11 12.0075C11 12.5598 10.5523 13.0075 10 13.0075H9V14.0075C9 14.5598 8.55228 15.0075 8 15.0075C7.44772 15.0075 7 14.5598 7 14.0075V13.0075H6C5.44772 13.0075 5 12.5598 5 12.0075C5 11.4552 5.44772 11.0075 6 11.0075H7V10.0075C7 9.45522 7.44772 9.00751 8 9.00751Z" fill="#1F2937"/>
<path fill-rule="evenodd" clip-rule="evenodd" d="M15 9.99249C15.5523 9.99249 16 10.4402 16 10.9925V11.0025C16 11.5548 15.5523 12.0025 15 12.0025C14.4477 12.0025 14 11.5548 14 11.0025V10.9925C14 10.4402 14.4477 9.99249 15 9.99249Z" fill="#1F2937"/>
<path fill-rule="evenodd" clip-rule="evenodd" d="M18 12.0075C18.5523 12.0075 19 12.4552 19 13.0075V13.0175C19 13.5698 18.5523 14.0175 18 14.0175C17.4477 14.0175 17 13.5698 17 13.0175V13.0075C17 12.4552 17.4477 12.0075 18 12.0075Z" fill="#1F2937"/>
</svg>
