<svg width="24" height="24" viewBox="0 0 24 24" fill="none" xmlns="http://www.w3.org/2000/svg">
<path fill-rule="evenodd" clip-rule="evenodd" d="M6 5.00751C6 3.90294 6.89543 3.00751 8 3.00751H16C17.1046 3.00751 18 3.90294 18 5.00751V19.0075C18 20.1121 17.1046 21.0075 16 21.0075H8C6.89543 21.0075 6 20.1121 6 19.0075V5.00751ZM16 5.00751H8V19.0075H16V5.00751Z" fill="#1F2937"/>
<path fill-rule="evenodd" clip-rule="evenodd" d="M10 4.99249C10 4.44021 10.4477 3.99249 11 3.99249H13C13.5523 3.99249 14 4.44021 14 4.99249C14 5.54478 13.5523 5.99249 13 5.99249H11C10.4477 5.99249 10 5.54478 10 4.99249Z" fill="#1F2937"/>
<path fill-rule="evenodd" clip-rule="evenodd" d="M12 15.9925C12.5523 15.9925 13 16.4402 13 16.9925V17.0025C13 17.5548 12.5523 18.0025 12 18.0025C11.4477 18.0025 11 17.5548 11 17.0025V16.9925C11 16.4402 11.4477 15.9925 12 15.9925Z" fill="#1F2937"/>
</svg>
