<svg width="24" height="24" viewBox="0 0 24 24" fill="none" xmlns="http://www.w3.org/2000/svg">
<path fill-rule="evenodd" clip-rule="evenodd" d="M7 4C6.44772 4 6 4.44772 6 5V19C6 19.5523 6.44772 20 7 20H17C17.5523 20 18 19.5523 18 19V5C18 4.44772 17.5523 4 17 4H7ZM4 5C4 3.34315 5.34315 2 7 2H17C18.6569 2 20 3.34315 20 5V19C20 20.6569 18.6569 22 17 22H7C5.34315 22 4 20.6569 4 19V5Z" fill="#1F2937"/>
<path fill-rule="evenodd" clip-rule="evenodd" d="M12 11.9925C10.8954 11.9925 10 12.8879 10 13.9925C10 15.0971 10.8954 15.9925 12 15.9925C13.1046 15.9925 14 15.0971 14 13.9925C14 12.8879 13.1046 11.9925 12 11.9925ZM8 13.9925C8 11.7834 9.79086 9.99249 12 9.99249C14.2091 9.99249 16 11.7834 16 13.9925C16 16.2016 14.2091 17.9925 12 17.9925C9.79086 17.9925 8 16.2016 8 13.9925Z" fill="#1F2937"/>
<path fill-rule="evenodd" clip-rule="evenodd" d="M12 6.00751C12.5523 6.00751 13 6.45522 13 7.00751V7.01751C13 7.56979 12.5523 8.01751 12 8.01751C11.4477 8.01751 11 7.56979 11 7.01751V7.00751C11 6.45522 11.4477 6.00751 12 6.00751Z" fill="#1F2937"/>
</svg>
