<svg width="24" height="24" viewBox="0 0 24 24" fill="none" xmlns="http://www.w3.org/2000/svg">
<path fill-rule="evenodd" clip-rule="evenodd" d="M6 5.00751C5.73478 5.00751 5.48043 5.11286 5.29289 5.3004C5.10536 5.48794 5 5.74229 5 6.00751V18.0075C5 18.2727 5.10536 18.5271 5.29289 18.7146C5.48043 18.9022 5.73478 19.0075 6 19.0075H18C18.2652 19.0075 18.5196 18.9022 18.7071 18.7146C18.8946 18.5271 19 18.2727 19 18.0075V8.42172L15.5858 5.00751H6ZM3.87868 3.88619C4.44129 3.32358 5.20435 3.00751 6 3.00751H16C16.2652 3.00751 16.5196 3.11286 16.7071 3.3004L20.7071 7.3004C20.8946 7.48794 21 7.74229 21 8.00751V18.0075C21 18.8032 20.6839 19.5662 20.1213 20.1288C19.5587 20.6914 18.7957 21.0075 18 21.0075H6C5.20435 21.0075 4.44129 20.6914 3.87868 20.1288C3.31607 19.5662 3 18.8032 3 18.0075V6.00751C3 5.21186 3.31607 4.4488 3.87868 3.88619Z" fill="#1F2937"/>
<path fill-rule="evenodd" clip-rule="evenodd" d="M12 13C11.4477 13 11 13.4477 11 14C11 14.5523 11.4477 15 12 15C12.5523 15 13 14.5523 13 14C13 13.4477 12.5523 13 12 13ZM9 14C9 12.3431 10.3431 11 12 11C13.6569 11 15 12.3431 15 14C15 15.6569 13.6569 17 12 17C10.3431 17 9 15.6569 9 14Z" fill="#1F2937"/>
<path fill-rule="evenodd" clip-rule="evenodd" d="M8 3.00751C8.55228 3.00751 9 3.45522 9 4.00751V7.00751H13V4.00751C13 3.45522 13.4477 3.00751 14 3.00751C14.5523 3.00751 15 3.45522 15 4.00751V8.00751C15 8.55979 14.5523 9.00751 14 9.00751H8C7.44772 9.00751 7 8.55979 7 8.00751V4.00751C7 3.45522 7.44772 3.00751 8 3.00751Z" fill="#1F2937"/>
</svg>
