<svg width="24" height="24" viewBox="0 0 24 24" fill="none" xmlns="http://www.w3.org/2000/svg">
<path fill-rule="evenodd" clip-rule="evenodd" d="M5.14252 4.47803C5.32324 4.17682 5.64875 3.99252 6.00001 3.99252H18C18.3513 3.99252 18.6768 4.17682 18.8575 4.47803L21.8575 9.47803C22.083 9.85384 22.0375 10.3327 21.7453 10.6593L13.2453 20.1593C13.2352 20.1706 13.2249 20.1816 13.2143 20.1924C13.056 20.3539 12.8671 20.4823 12.6586 20.5699C12.4501 20.6575 12.2262 20.7026 12 20.7026C11.7738 20.7026 11.55 20.6575 11.3414 20.5699C11.1329 20.4823 10.944 20.3539 10.7857 20.1924C10.7752 20.1816 10.7648 20.1706 10.7548 20.1593L2.25477 10.6593C1.96253 10.3327 1.91703 9.85384 2.14252 9.47803L5.14252 4.47803ZM6.5662 5.99252L4.23671 9.87501L12 18.5516L19.7633 9.87501L17.4338 5.99252H6.5662Z" fill="#1F2937"/>
<path fill-rule="evenodd" clip-rule="evenodd" d="M9.11451 7.95467C9.58809 8.23882 9.74165 8.85308 9.45751 9.32666L9.23986 9.68939L10.74 11.3395C11.1115 11.7481 11.0813 12.3806 10.6727 12.7521C10.264 13.1236 9.63158 13.0935 9.26007 12.6848L7.26007 10.4848C6.96329 10.1584 6.91552 9.67599 7.14252 9.29767L7.74252 8.29767C8.02667 7.82409 8.64093 7.67052 9.11451 7.95467Z" fill="#1F2937"/>
</svg>
