<svg width="24" height="24" viewBox="0 0 24 24" fill="none" xmlns="http://www.w3.org/2000/svg">
<path fill-rule="evenodd" clip-rule="evenodd" d="M6 5.00748C5.44772 5.00748 5 5.45519 5 6.00748V18.0075C5 18.5598 5.44772 19.0075 6 19.0075H18C18.5523 19.0075 19 18.5598 19 18.0075V6.00748C19 5.45519 18.5523 5.00748 18 5.00748H6ZM3 6.00748C3 4.35062 4.34315 3.00748 6 3.00748H18C19.6569 3.00748 21 4.35062 21 6.00748V18.0075C21 19.6643 19.6569 21.0075 18 21.0075H6C4.34315 21.0075 3 19.6643 3 18.0075V6.00748Z" fill="#1F2937"/>
<path d="M8.5 8.99252C8.77614 8.99252 9 8.76867 9 8.49252C9 8.21638 8.77614 7.99252 8.5 7.99252C8.22386 7.99252 8 8.21638 8 8.49252C8 8.76867 8.22386 8.99252 8.5 8.99252Z" fill="#1F2937"/>
<path fill-rule="evenodd" clip-rule="evenodd" d="M8.5 8.99252C8.77614 8.99252 9 8.76867 9 8.49252C9 8.21638 8.77614 7.99252 8.5 7.99252C8.22386 7.99252 8 8.21638 8 8.49252C8 8.76867 8.22386 8.99252 8.5 8.99252ZM7 8.49252C7 7.6641 7.67157 6.99252 8.5 6.99252C9.32843 6.99252 10 7.6641 10 8.49252C10 9.32095 9.32843 9.99252 8.5 9.99252C7.67157 9.99252 7 9.32095 7 8.49252Z" fill="#1F2937"/>
<path d="M15.5 8.99252C15.7761 8.99252 16 8.76867 16 8.49252C16 8.21638 15.7761 7.99252 15.5 7.99252C15.2239 7.99252 15 8.21638 15 8.49252C15 8.76867 15.2239 8.99252 15.5 8.99252Z" fill="#1F2937"/>
<path fill-rule="evenodd" clip-rule="evenodd" d="M15.5 8.99252C15.7761 8.99252 16 8.76867 16 8.49252C16 8.21638 15.7761 7.99252 15.5 7.99252C15.2239 7.99252 15 8.21638 15 8.49252C15 8.76867 15.2239 8.99252 15.5 8.99252ZM14 8.49252C14 7.6641 14.6716 6.99252 15.5 6.99252C16.3284 6.99252 17 7.6641 17 8.49252C17 9.32095 16.3284 9.99252 15.5 9.99252C14.6716 9.99252 14 9.32095 14 8.49252Z" fill="#1F2937"/>
<path d="M15.5 16C15.7761 16 16 15.7761 16 15.5C16 15.2239 15.7761 15 15.5 15C15.2239 15 15 15.2239 15 15.5C15 15.7761 15.2239 16 15.5 16Z" fill="#1F2937"/>
<path fill-rule="evenodd" clip-rule="evenodd" d="M15.5 16C15.7761 16 16 15.7761 16 15.5C16 15.2239 15.7761 15 15.5 15C15.2239 15 15 15.2239 15 15.5C15 15.7761 15.2239 16 15.5 16ZM14 15.5C14 14.6716 14.6716 14 15.5 14C16.3284 14 17 14.6716 17 15.5C17 16.3284 16.3284 17 15.5 17C14.6716 17 14 16.3284 14 15.5Z" fill="#1F2937"/>
<path d="M8.5 16C8.77614 16 9 15.7761 9 15.5C9 15.2239 8.77614 15 8.5 15C8.22386 15 8 15.2239 8 15.5C8 15.7761 8.22386 16 8.5 16Z" fill="#1F2937"/>
<path fill-rule="evenodd" clip-rule="evenodd" d="M8.5 16C8.77614 16 9 15.7761 9 15.5C9 15.2239 8.77614 15 8.5 15C8.22386 15 8 15.2239 8 15.5C8 15.7761 8.22386 16 8.5 16ZM7 15.5C7 14.6716 7.67157 14 8.5 14C9.32843 14 10 14.6716 10 15.5C10 16.3284 9.32843 17 8.5 17C7.67157 17 7 16.3284 7 15.5Z" fill="#1F2937"/>
</svg>
