<svg width="24" height="24" viewBox="0 0 24 24" fill="none" xmlns="http://www.w3.org/2000/svg">
<path fill-rule="evenodd" clip-rule="evenodd" d="M7.58579 4.57831C7.96086 4.20324 8.46957 3.99252 9 3.99252H19C19.2652 3.99252 19.5196 4.09788 19.7071 4.28542L21.7071 6.28542C21.8946 6.47295 22 6.72731 22 6.99252C22 7.25774 21.8946 7.51209 21.7071 7.69963L19.7071 9.69963C19.5196 9.88717 19.2652 9.99252 19 9.99252H9C8.46957 9.99252 7.96086 9.78181 7.58579 9.40674C7.21071 9.03166 7 8.52296 7 7.99252V5.99252C7 5.46209 7.21071 4.95338 7.58579 4.57831ZM18.5858 5.99252L9 5.99252V7.99252H18.5858L19.5858 6.99252L18.5858 5.99252Z" fill="#1F2937"/>
<path fill-rule="evenodd" clip-rule="evenodd" d="M5.29289 12.3004C5.48043 12.1128 5.73478 12.0075 6 12.0075H13C13.5304 12.0075 14.0391 12.2182 14.4142 12.5933C14.7893 12.9683 15 13.477 15 14.0075V16.0075C15 16.5379 14.7893 17.0466 14.4142 17.4217C14.0391 17.7968 13.5304 18.0075 13 18.0075H6C5.73478 18.0075 5.48043 17.9021 5.29289 17.7146L3.29289 15.7146C3.10536 15.527 3 15.2727 3 15.0075C3 14.7423 3.10536 14.4879 3.29289 14.3004L5.29289 12.3004ZM6.41421 14.0075L5.41421 15.0075L6.41421 16.0075L13 16.0075V14.0075H6.41421Z" fill="#1F2937"/>
<path fill-rule="evenodd" clip-rule="evenodd" d="M12 15.9925C12.5523 15.9925 13 16.4402 13 16.9925V21.9925C13 22.5448 12.5523 22.9925 12 22.9925C11.4477 22.9925 11 22.5448 11 21.9925V16.9925C11 16.4402 11.4477 15.9925 12 15.9925Z" fill="#1F2937"/>
<path fill-rule="evenodd" clip-rule="evenodd" d="M12 8C12.5523 8 13 8.44772 13 9V13C13 13.5523 12.5523 14 12 14C11.4477 14 11 13.5523 11 13V9C11 8.44772 11.4477 8 12 8Z" fill="#1F2937"/>
<path fill-rule="evenodd" clip-rule="evenodd" d="M12 2C12.5523 2 13 2.44772 13 3V5C13 5.55228 12.5523 6 12 6C11.4477 6 11 5.55228 11 5V3C11 2.44772 11.4477 2 12 2Z" fill="#1F2937"/>
</svg>
