<svg width="24" height="24" viewBox="0 0 24 24" fill="none" xmlns="http://www.w3.org/2000/svg">
<path fill-rule="evenodd" clip-rule="evenodd" d="M12 6.00748C12.2652 6.00748 12.5196 6.11283 12.7071 6.30037L15.7071 9.30037C16.0976 9.69089 16.0976 10.3241 15.7071 10.7146C15.3166 11.1051 14.6834 11.1051 14.2929 10.7146L12 8.42169L9.70711 10.7146C9.31658 11.1051 8.68342 11.1051 8.29289 10.7146C7.90237 10.3241 7.90237 9.69089 8.29289 9.30037L11.2929 6.30037C11.4804 6.11283 11.7348 6.00748 12 6.00748Z" fill="#1F2937"/>
<path fill-rule="evenodd" clip-rule="evenodd" d="M8.29289 13.2854C8.68342 12.8949 9.31658 12.8949 9.70711 13.2854L12 15.5783L14.2929 13.2854C14.6834 12.8949 15.3166 12.8949 15.7071 13.2854C16.0976 13.6759 16.0976 14.3091 15.7071 14.6996L12.7071 17.6996C12.5196 17.8872 12.2652 17.9925 12 17.9925C11.7348 17.9925 11.4804 17.8872 11.2929 17.6996L8.29289 14.6996C7.90237 14.3091 7.90237 13.6759 8.29289 13.2854Z" fill="#1F2937"/>
</svg>
