<svg width="24" height="24" viewBox="0 0 24 24" fill="none" xmlns="http://www.w3.org/2000/svg">
<path fill-rule="evenodd" clip-rule="evenodd" d="M11 4C10.4477 4 10 4.44772 10 5C10 5.55228 10.4477 6 11 6C11.5523 6 12 5.55228 12 5C12 4.44772 11.5523 4 11 4ZM8 5C8 3.34315 9.34315 2 11 2C12.6569 2 14 3.34315 14 5C14 6.65685 12.6569 8 11 8C9.34315 8 8 6.65685 8 5Z" fill="#1F2937"/>
<path fill-rule="evenodd" clip-rule="evenodd" d="M11 6.00748C11.5523 6.00748 12 6.45519 12 7.00748V14.0075H15C15.3038 14.0075 15.5911 14.1456 15.7809 14.3828L19.7809 19.3828C20.1259 19.814 20.056 20.4433 19.6247 20.7883C19.1934 21.1334 18.5641 21.0634 18.2191 20.6322L14.5194 16.0075H11C10.4477 16.0075 10 15.5598 10 15.0075V7.00748C10 6.45519 10.4477 6.00748 11 6.00748Z" fill="#1F2937"/>
<path fill-rule="evenodd" clip-rule="evenodd" d="M10 10.9925C10 10.4402 10.4477 9.99252 11 9.99252H16C16.5523 9.99252 17 10.4402 17 10.9925C17 11.5448 16.5523 11.9925 16 11.9925H11C10.4477 11.9925 10 11.5448 10 10.9925Z" fill="#1F2937"/>
<path fill-rule="evenodd" clip-rule="evenodd" d="M7.9152 11.105C8.1375 11.6105 7.90787 12.2006 7.4023 12.4229C6.84526 12.6678 6.35199 13.0375 5.96057 13.5035C5.56916 13.9694 5.29008 14.519 5.14491 15.11C4.99974 15.7009 4.99235 16.3173 5.12331 16.9115C5.25428 17.5058 5.52009 18.062 5.90022 18.5372C6.28036 19.0123 6.76463 19.3937 7.31563 19.652C7.86664 19.9102 8.46962 20.0383 9.07801 20.0264C9.6864 20.0144 10.2839 19.8628 10.8244 19.5832C11.3649 19.3036 11.8338 18.9035 12.1951 18.4139C12.5229 17.9694 13.149 17.8749 13.5934 18.2028C14.0379 18.5306 14.1324 19.1567 13.8045 19.6011C13.2613 20.3375 12.5561 20.9392 11.7433 21.3596C10.9306 21.7801 10.0321 22.008 9.11718 22.026C8.2023 22.0439 7.29554 21.8513 6.46695 21.463C5.63836 21.0747 4.91012 20.5011 4.33849 19.7865C3.76685 19.072 3.36713 18.2356 3.17018 17.342C2.97324 16.4484 2.98435 15.5214 3.20266 14.6328C3.42097 13.7442 3.84064 12.9176 4.42923 12.217C5.01783 11.5163 5.75961 10.9604 6.59727 10.5921C7.10284 10.3698 7.6929 10.5994 7.9152 11.105Z" fill="#1F2937"/>
</svg>
