<svg width="24" height="24" viewBox="0 0 24 24" fill="none" xmlns="http://www.w3.org/2000/svg">
<path fill-rule="evenodd" clip-rule="evenodd" d="M15.7071 8.29289C16.0976 8.68342 16.0976 9.31658 15.7071 9.70711L9.70711 15.7071C9.31658 16.0976 8.68342 16.0976 8.29289 15.7071C7.90237 15.3166 7.90237 14.6834 8.29289 14.2929L14.2929 8.29289C14.6834 7.90237 15.3166 7.90237 15.7071 8.29289Z" fill="#1F2937"/>
<path d="M9.5 10C9.77614 10 10 9.77614 10 9.5C10 9.22386 9.77614 9 9.5 9C9.22386 9 9 9.22386 9 9.5C9 9.77614 9.22386 10 9.5 10Z" fill="#1F2937"/>
<path fill-rule="evenodd" clip-rule="evenodd" d="M9.5 10C9.77614 10 10 9.77614 10 9.5C10 9.22386 9.77614 9 9.5 9C9.22386 9 9 9.22386 9 9.5C9 9.77614 9.22386 10 9.5 10ZM8 9.5C8 8.67157 8.67157 8 9.5 8C10.3284 8 11 8.67157 11 9.5C11 10.3284 10.3284 11 9.5 11C8.67157 11 8 10.3284 8 9.5Z" fill="#1F2937"/>
<path d="M14.5 14.9925C14.7761 14.9925 15 14.7686 15 14.4925C15 14.2164 14.7761 13.9925 14.5 13.9925C14.2239 13.9925 14 14.2164 14 14.4925C14 14.7686 14.2239 14.9925 14.5 14.9925Z" fill="#1F2937"/>
<path fill-rule="evenodd" clip-rule="evenodd" d="M14.5 14.9925C14.7761 14.9925 15 14.7686 15 14.4925C15 14.2164 14.7761 13.9925 14.5 13.9925C14.2239 13.9925 14 14.2164 14 14.4925C14 14.7686 14.2239 14.9925 14.5 14.9925ZM13 14.4925C13 13.6641 13.6716 12.9925 14.5 12.9925C15.3284 12.9925 16 13.6641 16 14.4925C16 15.3209 15.3284 15.9925 14.5 15.9925C13.6716 15.9925 13 15.3209 13 14.4925Z" fill="#1F2937"/>
<path fill-rule="evenodd" clip-rule="evenodd" d="M12.0105 4C11.8523 4 11.6957 4.03126 11.5497 4.09199C11.4037 4.15272 11.2711 4.24171 11.1596 4.35386L11.1576 4.35585L10.4576 5.05585L10.4556 5.05783C9.85644 5.65362 9.04598 5.98826 8.20103 5.98874L7.20046 5.98874C6.8822 5.98874 6.57698 6.11517 6.35193 6.34021C6.12689 6.56526 6.00046 6.87048 6.00046 7.18874V8.18874C5.99998 9.03369 5.66534 9.84472 5.06955 10.4439L5.06757 10.4459L4.36757 11.1458L4.36558 11.1478C4.25343 11.2593 4.16444 11.3919 4.10371 11.538C4.04298 11.684 4.01172 11.8406 4.01172 11.9987C4.01172 12.1569 4.04298 12.3135 4.10371 12.4595C4.16444 12.6055 4.25343 12.7381 4.36558 12.8497L4.36757 12.8516L5.06955 13.5536C5.66534 14.1528 5.99998 14.9632 6.00046 15.8082L6.00046 16.8087C6.00046 17.127 6.12689 17.4322 6.35193 17.6573C6.57698 17.8823 6.8822 18.0087 7.20046 18.0087H8.20046C9.0454 18.0092 9.85644 18.3439 10.4556 18.9397L10.4576 18.9416L11.1596 19.6436C11.2711 19.7558 11.4037 19.8448 11.5497 19.9055C11.6957 19.9662 11.8523 19.9975 12.0105 19.9975C12.1686 19.9975 12.3252 19.9662 12.4712 19.9055C12.6173 19.8448 12.7499 19.7558 12.8614 19.6436L12.8634 19.6416L13.5634 18.9416L13.5653 18.9397C14.1645 18.3439 14.9749 18.0092 15.8199 18.0087H16.8205C17.1387 18.0087 17.4439 17.8823 17.669 17.6573C17.894 17.4322 18.0205 17.127 18.0205 16.8087V15.8087C18.0209 14.9638 18.3556 14.1528 18.9514 13.5536L18.9534 13.5516L19.6534 12.8516L19.6553 12.8497C19.7675 12.7381 19.8565 12.6056 19.9172 12.4595C19.9779 12.3135 20.0092 12.1569 20.0092 11.9987C20.0092 11.8406 19.9779 11.684 19.9172 11.538C19.8565 11.3919 19.7675 11.2593 19.6553 11.1478L19.6534 11.1458L18.9534 10.4458L18.9514 10.4439C18.3556 9.84472 18.0209 9.03426 18.0205 8.18931V7.18874C18.0205 6.87048 17.894 6.56526 17.669 6.34021C17.4439 6.11517 17.1387 5.98874 16.8205 5.98874H15.8205C14.9755 5.98826 14.1645 5.65362 13.5653 5.05783L13.5634 5.05585L12.8634 4.35585L12.8614 4.35386C12.7499 4.24171 12.6173 4.15272 12.4712 4.09199C12.3252 4.03126 12.1686 4 12.0105 4ZM4.00046 8.18843C4.00021 8.50479 3.87505 8.80823 3.65223 9.03276C3.65194 9.03305 3.65166 9.03334 3.65137 9.03363L2.95534 9.72965C2.95496 9.73004 2.95457 9.73042 2.95418 9.73081C2.65567 10.0279 2.41876 10.3811 2.25703 10.77C2.09509 11.1594 2.01172 11.577 2.01172 11.9987C2.01172 12.4205 2.09509 12.8381 2.25703 13.2275C2.41878 13.6164 2.65573 13.9696 2.95428 14.2668C2.95463 14.2671 2.95499 14.2675 2.95534 14.2678L3.65137 14.9639C3.65166 14.9641 3.65194 14.9644 3.65223 14.9647C3.87505 15.1893 4.00021 15.4927 4.00046 15.8091V16.8087C4.00046 17.6574 4.3376 18.4714 4.93772 19.0715C5.53784 19.6716 6.35177 20.0087 7.20046 20.0087H8.19989C8.51643 20.0089 8.82006 20.1342 9.04467 20.3572C9.04445 20.3569 9.0449 20.3574 9.04467 20.3572L9.74137 21.0539C9.74174 21.0542 9.74211 21.0546 9.74248 21.055C10.0396 21.3535 10.3928 21.5904 10.7817 21.7522C11.1711 21.9141 11.5887 21.9975 12.0105 21.9975C12.4322 21.9975 12.8498 21.9141 13.2392 21.7522C13.628 21.5905 13.9811 21.3536 14.2782 21.0552C14.2787 21.0547 14.2791 21.0543 14.2796 21.0539L14.9756 20.3578C14.9759 20.3575 14.9762 20.3573 14.9764 20.357C15.201 20.1341 15.5046 20.0089 15.821 20.0087H16.8205C17.6692 20.0087 18.4831 19.6716 19.0832 19.0715C19.6833 18.4714 20.0205 17.6574 20.0205 16.8087V15.8093C20.0206 15.4929 20.1458 15.1893 20.3687 14.9647C20.369 14.9644 20.3693 14.9641 20.3696 14.9639L21.0656 14.2678C21.066 14.2674 21.0665 14.267 21.0669 14.2665C21.3653 13.9694 21.6022 13.6163 21.7639 13.2275C21.9258 12.8381 22.0092 12.4205 22.0092 11.9987C22.0092 11.577 21.9258 11.1594 21.7639 10.77C21.6022 10.3811 21.3652 10.0279 21.0667 9.73076C21.0663 9.73039 21.066 9.73002 21.0656 9.72965L20.3696 9.03363C20.3698 9.03385 20.3693 9.0334 20.3696 9.03363C20.1466 8.80901 20.0206 8.50471 20.0205 8.18817V7.18874C20.0205 6.34005 19.6833 5.52612 19.0832 4.926C18.4831 4.32588 17.6692 3.98874 16.8205 3.98874H15.8208C15.5044 3.98849 15.201 3.86333 14.9764 3.64051C14.9762 3.64022 14.9759 3.63994 14.9756 3.63965L14.2796 2.94363C14.2792 2.94327 14.2788 2.94292 14.2785 2.94256C13.9813 2.64401 13.6281 2.40706 13.2392 2.24531C12.8498 2.08337 12.4322 2 12.0105 2C11.5887 2 11.1711 2.08337 10.7817 2.24531C10.3928 2.40704 10.0397 2.64395 9.74253 2.94246C9.74214 2.94285 9.74176 2.94324 9.74137 2.94363L9.04534 3.63965C9.04506 3.63994 9.04477 3.64022 9.04448 3.64051C8.81995 3.86333 8.5165 3.98849 8.20015 3.98874H7.20046C6.35177 3.98874 5.53784 4.32588 4.93772 4.926C4.3376 5.52612 4.00046 6.34005 4.00046 7.18874V8.18843Z" fill="#1F2937"/>
</svg>
