<svg width="24" height="24" viewBox="0 0 24 24" fill="none" xmlns="http://www.w3.org/2000/svg">
<path fill-rule="evenodd" clip-rule="evenodd" d="M12 4C7.58172 4 4 7.58172 4 12C4 16.4183 7.58172 20 12 20C16.4183 20 20 16.4183 20 12C20 7.58172 16.4183 4 12 4ZM2 12C2 6.47715 6.47715 2 12 2C17.5228 2 22 6.47715 22 12C22 17.5228 17.5228 22 12 22C6.47715 22 2 17.5228 2 12Z" fill="#1F2937"/>
<path fill-rule="evenodd" clip-rule="evenodd" d="M10 11.9925C10 10.8879 10.8954 9.99249 12 9.99249C13.1046 9.99249 14 10.8879 14 11.9925C14 13.0971 13.1046 13.9925 12 13.9925C10.8954 13.9925 10 13.0971 10 11.9925Z" fill="#1F2937"/>
<path fill-rule="evenodd" clip-rule="evenodd" d="M12 8.00751C10.9391 8.00751 9.92172 8.42893 9.17157 9.17908C8.42143 9.92923 8 10.9466 8 12.0075C8 12.5598 7.55228 13.0075 7 13.0075C6.44772 13.0075 6 12.5598 6 12.0075C6 10.4162 6.63214 8.89009 7.75736 7.76487C8.88258 6.63965 10.4087 6.00751 12 6.00751C12.5523 6.00751 13 6.45522 13 7.00751C13 7.55979 12.5523 8.00751 12 8.00751Z" fill="#1F2937"/>
<path fill-rule="evenodd" clip-rule="evenodd" d="M17 11C17.5523 11 18 11.4477 18 12C18 13.5913 17.3679 15.1174 16.2426 16.2426C15.1174 17.3679 13.5913 18 12 18C11.4477 18 11 17.5523 11 17C11 16.4477 11.4477 16 12 16C13.0609 16 14.0783 15.5786 14.8284 14.8284C15.5786 14.0783 16 13.0609 16 12C16 11.4477 16.4477 11 17 11Z" fill="#1F2937"/>
</svg>
