<svg width="20" height="20" viewBox="0 0 20 20" fill="none" xmlns="http://www.w3.org/2000/svg">
<rect x="1.25" y="1.25" width="17.5" height="17.5" rx="4" fill="#5865F2"/>
<path d="M14.7919 6.11679C13.9504 5.72555 13.0506 5.4412 12.1099 5.2793C11.9944 5.48686 11.8594 5.76603 11.7663 5.98811C10.7663 5.83867 9.77556 5.83867 8.79396 5.98811C8.70092 5.76603 8.56288 5.48686 8.44632 5.2793C7.5046 5.4412 6.60378 5.72659 5.76227 6.11887C4.06493 8.66764 3.60481 11.1531 3.83487 13.6033C4.96063 14.4387 6.05163 14.9462 7.12422 15.2783C7.38905 14.9161 7.62524 14.5311 7.82872 14.1253C7.4412 13.979 7.07003 13.7984 6.71933 13.5888C6.81237 13.5203 6.90338 13.4487 6.9913 13.375C9.13035 14.3692 11.4545 14.3692 13.568 13.375C13.6569 13.4487 13.7479 13.5203 13.84 13.5888C13.4882 13.7994 13.116 13.98 12.7285 14.1263C12.932 14.5311 13.1672 14.9171 13.433 15.2793C14.5066 14.9472 15.5986 14.4397 16.7244 13.6033C16.9944 10.7629 16.2633 8.30027 14.7919 6.11679ZM8.12013 12.0965C7.47801 12.0965 6.95142 11.5008 6.95142 10.7754C6.95142 10.05 7.46677 9.45324 8.12013 9.45324C8.77352 9.45324 9.30009 10.0489 9.28885 10.7754C9.28986 11.5008 8.77352 12.0965 8.12013 12.0965ZM12.4391 12.0965C11.797 12.0965 11.2704 11.5008 11.2704 10.7754C11.2704 10.05 11.7858 9.45324 12.4391 9.45324C13.0925 9.45324 13.6191 10.0489 13.6079 10.7754C13.6079 11.5008 13.0925 12.0965 12.4391 12.0965Z" fill="white"/>
</svg>
