<svg width="24" height="24" viewBox="0 0 24 24" fill="none" xmlns="http://www.w3.org/2000/svg">
<path fill-rule="evenodd" clip-rule="evenodd" d="M16.9633 3.01212C17.7232 2.96297 18.4118 3.28609 18.9298 3.80405C19.45 4.32429 19.7973 5.03166 19.9736 5.78388C19.9761 5.79455 19.9784 5.80526 19.9806 5.81601L20.9806 10.816C20.9935 10.8806 21 10.9463 21 11.0121C21 11.8078 20.6839 12.5708 20.1213 13.1334C19.5587 13.6961 18.7957 14.0121 18 14.0121H16V18.0121C16 18.8078 15.6839 19.5708 15.1213 20.1334C14.5587 20.6961 13.7957 21.0121 13 21.0121C12.2043 21.0121 11.4413 20.6961 10.8787 20.1334C10.3161 19.5708 10 18.8078 10 18.0121V17.0121C10 16.2165 9.68393 15.4534 9.12132 14.8908C8.55871 14.3282 7.79565 14.0121 7 14.0121H4C3.46957 14.0121 2.96086 13.8014 2.58579 13.4263C2.21071 13.0513 2 12.5426 2 12.0121V5.01212C2 4.48169 2.21071 3.97298 2.58579 3.59791C2.96086 3.22284 3.46957 3.01212 4 3.01212H6C6.53043 3.01212 7.03914 3.22284 7.41421 3.59791C7.48152 3.66522 7.54354 3.73683 7.6 3.8121C8.28831 3.29585 9.12953 3.01212 10 3.01212H16.9633ZM6 5.01212H4V12.0121H6V5.01212ZM8 12.1131V7.01212C8 6.48169 8.21071 5.97298 8.58579 5.59791C8.96086 5.22284 9.46957 5.01212 10 5.01212H17C17.0283 5.01212 17.0566 5.01092 17.0848 5.00852C17.1715 5.00114 17.323 5.02569 17.5155 5.21826C17.7146 5.41736 17.911 5.7584 18.0229 6.22549L18.9966 11.0943C18.9773 11.3294 18.8752 11.5512 18.7071 11.7192C18.5196 11.9068 18.2652 12.0121 18 12.0121H15C14.4477 12.0121 14 12.4598 14 13.0121V18.0121C14 18.2773 13.8946 18.5317 13.7071 18.7192C13.5196 18.9068 13.2652 19.0121 13 19.0121C12.7348 19.0121 12.4804 18.9068 12.2929 18.7192C12.1054 18.5317 12 18.2773 12 18.0121V17.0121C12 15.686 11.4732 14.4143 10.5355 13.4766C9.83715 12.7782 8.95344 12.3078 8 12.1131Z" fill="#1F2937"/>
</svg>
