<svg width="16" height="16" viewBox="0 0 16 16" fill="none" xmlns="http://www.w3.org/2000/svg">
<path d="M13.3335 7.66667V3.33333H2.66683V10H6.66683C7.03502 10 7.3335 10.2985 7.3335 10.6667C7.3335 11.0349 7.03502 11.3333 6.66683 11.3333H2.66683C2.31321 11.3333 1.97417 11.1928 1.72412 10.9427C1.47407 10.6927 1.3335 10.3536 1.3335 10V3.33333C1.3335 2.97971 1.47407 2.64067 1.72412 2.39062C1.97417 2.14058 2.31321 2 2.66683 2H13.3335C13.6871 2 14.0262 2.14058 14.2762 2.39062C14.5263 2.64067 14.6668 2.97971 14.6668 3.33333V7.66667C14.6668 8.03486 14.3684 8.33333 14.0002 8.33333C13.632 8.33333 13.3335 8.03486 13.3335 7.66667Z" fill="#1F2937"/>
<path d="M7 12.668C7.36819 12.668 7.66667 12.9664 7.66667 13.3346C7.66667 13.7028 7.36819 14.0013 7 14.0013H4.66667C4.29848 14.0013 4 13.7028 4 13.3346C4 12.9664 4.29848 12.668 4.66667 12.668H7Z" fill="#1F2937"/>
<path d="M5.3335 13.3333V10.6667C5.3335 10.2985 5.63197 10 6.00016 10C6.36835 10 6.66683 10.2985 6.66683 10.6667V13.3333C6.66683 13.7015 6.36835 14 6.00016 14C5.63197 14 5.3335 13.7015 5.3335 13.3333Z" fill="#1F2937"/>
<path d="M11.8662 8.66797C12.0389 8.66797 12.2084 8.71634 12.3551 8.80729C12.4653 8.87553 12.5598 8.96547 12.6325 9.07161L12.6976 9.18294L12.6982 9.18359L13.2666 10.332L14.5387 10.5163H14.5381C14.6665 10.5347 14.789 10.5801 14.8981 10.6484L15.0023 10.7246L15.0954 10.8138C15.1528 10.8777 15.2009 10.9495 15.2386 11.0267L15.2868 11.1465L15.3187 11.2715C15.3412 11.3982 15.3372 11.529 15.3063 11.6549C15.2651 11.8228 15.1773 11.9756 15.0537 12.0964L15.0524 12.0977L14.1325 12.9909L14.3493 14.2507C14.3788 14.4214 14.3599 14.5973 14.2946 14.7578C14.2293 14.9183 14.1204 15.0572 13.9801 15.1589C13.8398 15.2606 13.6738 15.3206 13.501 15.3327C13.3281 15.3448 13.1554 15.3084 13.0023 15.2272V15.2266L11.8662 14.6322L10.7282 15.2285L10.7262 15.2298C10.5738 15.3091 10.4022 15.3444 10.2308 15.332C10.0593 15.3195 9.89435 15.2595 9.75489 15.1589C9.61541 15.0582 9.50631 14.9206 9.44044 14.7617C9.37462 14.6029 9.35454 14.4289 9.38184 14.2591L9.38249 14.252H9.38314L9.59929 12.9902L8.68067 12.0977L8.68132 12.097C8.55712 11.9765 8.46848 11.8242 8.42676 11.6562C8.38494 11.4878 8.39114 11.3109 8.44499 11.1458L8.49382 11.026C8.55069 10.9099 8.63151 10.8062 8.73145 10.7227C8.86409 10.6118 9.0251 10.5397 9.1963 10.5156L10.4658 10.332L11.0348 9.18359L11.0355 9.18294C11.1124 9.02831 11.2311 8.89824 11.3779 8.80729L11.4919 8.74674C11.6094 8.69491 11.7369 8.66801 11.8662 8.66797ZM11.5062 11.2376C11.4089 11.434 11.2211 11.5701 11.0042 11.6016L10.2028 11.7174L10.7809 12.2793C10.9386 12.4325 11.0108 12.6538 10.9736 12.8704L10.8363 13.666L11.557 13.2891C11.7507 13.1875 11.9823 13.1875 12.1761 13.2891L12.8955 13.666L12.7594 12.8704C12.7222 12.6538 12.7945 12.4325 12.9522 12.2793L13.5296 11.7174L12.7288 11.6016C12.512 11.5701 12.3242 11.434 12.2269 11.2376L11.8662 10.5098L11.5062 11.2376Z" fill="#1F2937"/>
</svg>
