<svg xmlns="http://www.w3.org/2000/svg" width="16" height="16" viewBox="0 0 32 32" fill="#1f2937">
  <path d="M6 4C6 2.89543 6.89543 2 8 2H19L26 9V28C26 29.1046 25.1046 30 24 30H15.874C15.4299 29.4866 14.9182 29.0299 14.3506 28.6426L14.1963 28H24V10H18V4H8V28H10.126C9.68195 28.5134 9.31019 29.0876 9.024 29.7092C8.68533 29.8936 8.35254 30 8 30C6.89543 30 6 29.1046 6 28V4Z"/>
  <path d="M18 4.5V10H23.5L18 4.5Z"/>
  <path fill-rule="evenodd" clip-rule="evenodd" d="M10.5 20.5C10.5 17.4624 12.9624 15 16 15C19.0376 15 21.5 17.4624 21.5 20.5C21.5 21.6236 21.1545 22.6672 20.5654 23.5276L23.7071 26.6693C24.0976 27.0598 24.0976 27.6929 23.7071 28.0835C23.3166 28.474 22.6834 28.474 22.2929 28.0835L19.0276 24.8182C18.2298 25.2518 17.3437 25.5 16.4 25.5H16C12.9624 25.5 10.5 23.0376 10.5 20.5ZM16 17C14.067 17 12.5 18.567 12.5 20.5C12.5 22.433 14.067 24 16 24C17.933 24 19.5 22.433 19.5 20.5C19.5 18.567 17.933 17 16 17Z"/>
</svg>