<svg width="24" height="24" viewBox="0 0 24 24" fill="none" xmlns="http://www.w3.org/2000/svg">
<path fill-rule="evenodd" clip-rule="evenodd" d="M5 17.0075C5 15.9029 5.89543 15.0075 7 15.0075C8.10457 15.0075 9 15.9029 9 17.0075C9 18.1121 8.10457 19.0075 7 19.0075C5.89543 19.0075 5 18.1121 5 17.0075Z" fill="#1F2937"/>
<path fill-rule="evenodd" clip-rule="evenodd" d="M10 11.9925C10 10.8879 10.8954 9.99249 12 9.99249C13.1046 9.99249 14 10.8879 14 11.9925C14 13.0971 13.1046 13.9925 12 13.9925C10.8954 13.9925 10 13.0971 10 11.9925Z" fill="#1F2937"/>
<path fill-rule="evenodd" clip-rule="evenodd" d="M15 7C15 5.89543 15.8954 5 17 5C18.1046 5 19 5.89543 19 7C19 8.10457 18.1046 9 17 9C15.8954 9 15 8.10457 15 7Z" fill="#1F2937"/>
</svg>
