<svg width="24" height="24" viewBox="0 0 24 24" fill="none" xmlns="http://www.w3.org/2000/svg">
<path fill-rule="evenodd" clip-rule="evenodd" d="M3 11.9925C3 10.8879 3.89543 9.99249 5 9.99249C6.10457 9.99249 7 10.8879 7 11.9925C7 13.0971 6.10457 13.9925 5 13.9925C3.89543 13.9925 3 13.0971 3 11.9925Z" fill="#1F2937"/>
<path fill-rule="evenodd" clip-rule="evenodd" d="M10 11.9925C10 10.8879 10.8954 9.99249 12 9.99249C13.1046 9.99249 14 10.8879 14 11.9925C14 13.0971 13.1046 13.9925 12 13.9925C10.8954 13.9925 10 13.0971 10 11.9925Z" fill="#1F2937"/>
<path fill-rule="evenodd" clip-rule="evenodd" d="M17 11.9925C17 10.8879 17.8954 9.99249 19 9.99249C20.1046 9.99249 21 10.8879 21 11.9925C21 13.0971 20.1046 13.9925 19 13.9925C17.8954 13.9925 17 13.0971 17 11.9925Z" fill="#1F2937"/>
</svg>
