<svg width="24" height="24" viewBox="0 0 24 24" fill="none" xmlns="http://www.w3.org/2000/svg">
<path fill-rule="evenodd" clip-rule="evenodd" d="M10 11.9925C10 10.8879 10.8954 9.99249 12 9.99249C13.1046 9.99249 14 10.8879 14 11.9925C14 13.0971 13.1046 13.9925 12 13.9925C10.8954 13.9925 10 13.0971 10 11.9925Z" fill="#1F2937"/>
<path fill-rule="evenodd" clip-rule="evenodd" d="M10 19C10 17.8954 10.8954 17 12 17C13.1046 17 14 17.8954 14 19C14 20.1046 13.1046 21 12 21C10.8954 21 10 20.1046 10 19Z" fill="#1F2937"/>
<path fill-rule="evenodd" clip-rule="evenodd" d="M10 5.00751C10 3.90294 10.8954 3.00751 12 3.00751C13.1046 3.00751 14 3.90294 14 5.00751C14 6.11208 13.1046 7.00751 12 7.00751C10.8954 7.00751 10 6.11208 10 5.00751Z" fill="#1F2937"/>
</svg>
