<svg width="24" height="24" viewBox="0 0 24 24" fill="none" xmlns="http://www.w3.org/2000/svg">
<path fill-rule="evenodd" clip-rule="evenodd" d="M4 15.9925C4.55228 15.9925 5 16.4402 5 16.9925V18.9925C5 19.2577 5.10536 19.5121 5.29289 19.6996C5.48043 19.8871 5.73478 19.9925 6 19.9925H18C18.2652 19.9925 18.5196 19.8871 18.7071 19.6996C18.8946 19.5121 19 19.2577 19 18.9925V16.9925C19 16.4402 19.4477 15.9925 20 15.9925C20.5523 15.9925 21 16.4402 21 16.9925V18.9925C21 19.7881 20.6839 20.5512 20.1213 21.1138C19.5587 21.6764 18.7957 21.9925 18 21.9925H6C5.20435 21.9925 4.44129 21.6764 3.87868 21.1138C3.31607 20.5512 3 19.7881 3 18.9925V16.9925C3 16.4402 3.44772 15.9925 4 15.9925Z" fill="#1F2937"/>
<path fill-rule="evenodd" clip-rule="evenodd" d="M6.29289 10.2854C6.68342 9.89486 7.31658 9.89486 7.70711 10.2854L12 14.5783L16.2929 10.2854C16.6834 9.89486 17.3166 9.89486 17.7071 10.2854C18.0976 10.6759 18.0976 11.3091 17.7071 11.6996L12.7071 16.6996C12.5196 16.8871 12.2652 16.9925 12 16.9925C11.7348 16.9925 11.4804 16.8871 11.2929 16.6996L6.29289 11.6996C5.90237 11.3091 5.90237 10.6759 6.29289 10.2854Z" fill="#1F2937"/>
<path fill-rule="evenodd" clip-rule="evenodd" d="M12 3.00751C12.5523 3.00751 13 3.45522 13 4.00751V16.0075C13 16.5598 12.5523 17.0075 12 17.0075C11.4477 17.0075 11 16.5598 11 16.0075V4.00751C11 3.45522 11.4477 3.00751 12 3.00751Z" fill="#1F2937"/>
</svg>
