<svg width="24" height="24" viewBox="0 0 24 24" fill="none" xmlns="http://www.w3.org/2000/svg">
<path fill-rule="evenodd" clip-rule="evenodd" d="M2 3C2 2.44772 2.44772 2 3 2H3.0005C3.55278 2 4.0005 2.44772 4.0005 3C4.0005 3.2759 3.88876 3.52571 3.70807 3.70664C3.52703 3.88817 3.27663 4.0005 3 4.0005C2.44772 4.0005 2 3.55279 2 3.0005V3ZM5.9995 3C5.9995 2.44772 6.44722 2 6.9995 2H7.0005C7.55278 2 8.0005 2.44772 8.0005 3C8.0005 3.55228 7.55278 4 7.0005 4H6.9995C6.44722 4 5.9995 3.55228 5.9995 3ZM9.9995 3C9.9995 2.44772 10.4472 2 10.9995 2H11.0005C11.5528 2 12.0005 2.44772 12.0005 3C12.0005 3.55228 11.5528 4 11.0005 4H10.9995C10.4472 4 9.9995 3.55228 9.9995 3ZM13.9995 3C13.9995 2.44772 14.4472 2 14.9995 2H15C15.5523 2 16 2.44772 16 3V3.0005C16 3.55278 15.5523 4.0005 15 4.0005C14.7237 4.0005 14.4735 3.88843 14.2926 3.70727C14.1115 3.52629 13.9995 3.27622 13.9995 3ZM15 5.9995C15.5523 5.9995 16 6.44722 16 6.9995V7C16 7.55228 15.5523 8 15 8C14.4477 8 14 7.55228 14 7V6.9995C14 6.44722 14.4477 5.9995 15 5.9995ZM3 6.00283C3.55228 6.00283 4 6.45055 4 7.00283V7.00383C4 7.55612 3.55228 8.00383 3 8.00383C2.44772 8.00383 2 7.55612 2 7.00383V7.00283C2 6.45055 2.44772 6.00283 3 6.00283ZM3 10.0062C3.55228 10.0062 4 10.4539 4 11.0062V11.0072C4 11.5595 3.55228 12.0072 3 12.0072C2.44772 12.0072 2 11.5595 2 11.0072V11.0062C2 10.4539 2.44772 10.0062 3 10.0062ZM3.70947 14.3048C3.52833 14.1224 3.27735 14.0095 3 14.0095C2.44772 14.0095 2 14.4572 2 15.0095V15.01C2 15.5623 2.44772 16.01 3 16.01H3.0005C3.55278 16.01 4.0005 15.5623 4.0005 15.01C4.0005 14.7348 3.88934 14.4856 3.70947 14.3048ZM5.9995 15.01C5.9995 14.4577 6.44722 14.01 6.9995 14.01H7C7.55228 14.01 8 14.4577 8 15.01C8 15.5623 7.55228 16.01 7 16.01H6.9995C6.44722 16.01 5.9995 15.5623 5.9995 15.01Z" fill="#1F2937"/>
<path fill-rule="evenodd" clip-rule="evenodd" d="M6.87868 6.88616C7.44129 6.32355 8.20435 6.00748 9 6.00748H17C17.7956 6.00748 18.5587 6.32355 19.1213 6.88616C19.6839 7.44877 20 8.21183 20 9.00748V11.0075C20 11.5598 19.5523 12.0075 19 12.0075C18.4477 12.0075 18 11.5598 18 11.0075V9.00748C18 8.74226 17.8946 8.48791 17.7071 8.30037C17.5196 8.11283 17.2652 8.00748 17 8.00748H9C8.73478 8.00748 8.48043 8.11283 8.29289 8.30037C8.10536 8.48791 8 8.74226 8 9.00748V17.0075C8 17.2727 8.10536 17.527 8.29289 17.7146C8.48043 17.9021 8.73478 18.0075 9 18.0075H11C11.5523 18.0075 12 18.4552 12 19.0075C12 19.5598 11.5523 20.0075 11 20.0075H9C8.20435 20.0075 7.44129 19.6914 6.87868 19.1288C6.31607 18.5662 6 17.8031 6 17.0075V9.00748C6 8.21183 6.31607 7.44877 6.87868 6.88616Z" fill="#1F2937"/>
<path fill-rule="evenodd" clip-rule="evenodd" d="M12.2929 12.3004C12.5608 12.0325 12.9569 11.939 13.3163 12.0588L22.3163 15.0588C22.7 15.1867 22.9688 15.5331 22.9975 15.9366C23.0262 16.34 22.809 16.721 22.4472 16.9019L18.7454 18.7528L16.8945 22.4547C16.7136 22.8164 16.3326 23.0336 15.9291 23.005C15.5257 22.9763 15.1792 22.7074 15.0513 22.3237L12.0513 13.3237C11.9316 12.9644 12.0251 12.5682 12.2929 12.3004ZM14.5812 14.5886L16.1853 19.4009L17.1056 17.5603C17.2024 17.3667 17.3593 17.2098 17.5528 17.113L19.3935 16.1927L14.5812 14.5886Z" fill="#1F2937"/>
</svg>
