<svg width="24" height="24" viewBox="0 0 24 24" fill="none" xmlns="http://www.w3.org/2000/svg">
<path fill-rule="evenodd" clip-rule="evenodd" d="M3 4.00748C3 3.45519 3.44772 3.00748 4 3.00748H4.0005C4.55278 3.00748 5.0005 3.45519 5.0005 4.00748C5.0005 4.28314 4.88896 4.53276 4.70854 4.71365C4.52746 4.89546 4.27687 5.00798 4 5.00798C3.44772 5.00798 3 4.56026 3 4.00798V4.00748ZM6.9995 4.00748C6.9995 3.45519 7.44722 3.00748 7.9995 3.00748H8.0005C8.55278 3.00748 9.0005 3.45519 9.0005 4.00748C9.0005 4.55976 8.55278 5.00748 8.0005 5.00748H7.9995C7.44722 5.00748 6.9995 4.55976 6.9995 4.00748ZM10.9995 4.00748C10.9995 3.45519 11.4472 3.00748 11.9995 3.00748H12.0005C12.5528 3.00748 13.0005 3.45519 13.0005 4.00748C13.0005 4.55976 12.5528 5.00748 12.0005 5.00748H11.9995C11.4472 5.00748 10.9995 4.55976 10.9995 4.00748ZM14.9995 4.00748C14.9995 3.45519 15.4472 3.00748 15.9995 3.00748H16C16.5523 3.00748 17 3.45519 17 4.00748V4.00798C17 4.56026 16.5523 5.00798 16 5.00798C15.7237 5.00798 15.4735 4.89591 15.2926 4.71475C15.1115 4.53377 14.9995 4.2837 14.9995 4.00748ZM16 7.00698C16.5523 7.00698 17 7.45469 17 8.00698V8.00748C17 8.55976 16.5523 9.00748 16 9.00748C15.4477 9.00748 15 8.55976 15 8.00748V8.00698C15 7.45469 15.4477 7.00698 16 7.00698ZM4 7.01031C4.55228 7.01031 5 7.45803 5 8.01031V8.01131C5 8.5636 4.55228 9.01131 4 9.01131C3.44772 9.01131 3 8.5636 3 8.01131V8.01031C3 7.45803 3.44772 7.01031 4 7.01031ZM4 11.0136C4.55228 11.0136 5 11.4614 5 12.0136V12.0146C5 12.5669 4.55228 13.0146 4 13.0146C3.44772 13.0146 3 12.5669 3 12.0146V12.0136C3 11.4614 3.44772 11.0136 4 11.0136ZM4.70947 15.3122C4.52833 15.1299 4.27735 15.017 4 15.017C3.44772 15.017 3 15.4647 3 16.017V16.0175C3 16.5698 3.44772 17.0175 4 17.0175H4.0005C4.55278 17.0175 5.0005 16.5698 5.0005 16.0175C5.0005 15.7423 4.88934 15.4931 4.70947 15.3122ZM6.9995 16.0175C6.9995 15.4652 7.44722 15.0175 7.9995 15.0175H8C8.55228 15.0175 9 15.4652 9 16.0175C9 16.5698 8.55228 17.0175 8 17.0175H7.9995C7.44722 17.0175 6.9995 16.5698 6.9995 16.0175Z" fill="#1F2937"/>
<path fill-rule="evenodd" clip-rule="evenodd" d="M10 8.99252C9.44772 8.99252 9 9.44024 9 9.99252V17.9925C9 18.5448 9.44772 18.9925 10 18.9925H18C18.5523 18.9925 19 18.5448 19 17.9925V9.99252C19 9.44024 18.5523 8.99252 18 8.99252H10ZM7 9.99252C7 8.33567 8.34315 6.99252 10 6.99252H18C19.6569 6.99252 21 8.33567 21 9.99252V17.9925C21 19.6494 19.6569 20.9925 18 20.9925H10C8.34315 20.9925 7 19.6494 7 17.9925V9.99252Z" fill="#1F2937"/>
</svg>
