<svg width="24" height="24" viewBox="0 0 24 24" fill="none" xmlns="http://www.w3.org/2000/svg">
<path fill-rule="evenodd" clip-rule="evenodd" d="M12 4C7.58172 4 4 7.58172 4 12C4 16.4183 7.58172 20 12 20C16.4183 20 20 16.4183 20 12C20 7.58172 16.4183 4 12 4ZM2 12C2 6.47715 6.47715 2 12 2C17.5228 2 22 6.47715 22 12C22 17.5228 17.5228 22 12 22C6.47715 22 2 17.5228 2 12Z" fill="#1F2937"/>
<path fill-rule="evenodd" clip-rule="evenodd" d="M8.35984 2.82946C8.78412 2.4759 9.41468 2.53322 9.76825 2.9575C14.8616 9.06957 16.9739 13.756 17.4962 19.7103C17.5445 20.2605 17.1376 20.7456 16.5874 20.7939C16.0372 20.8421 15.5521 20.4352 15.5039 19.8851C15.0262 14.4393 13.1384 10.1258 8.2318 4.23787C7.87824 3.81359 7.93556 3.18302 8.35984 2.82946Z" fill="#1F2937"/>
<path fill-rule="evenodd" clip-rule="evenodd" d="M7.64976 19.1625C7.47258 19.3409 7.29218 19.5225 7.1075 19.7071C6.71697 20.0977 6.08381 20.0977 5.69328 19.7071C5.30276 19.3166 5.30276 18.6835 5.69328 18.2929C5.87563 18.1106 6.05688 17.9278 6.23795 17.7451C7.75355 16.2164 9.25706 14.6998 11.2915 13.5749C13.6056 12.2953 16.5375 11.5486 20.9122 11.6001C21.4644 11.6066 21.9068 12.0595 21.9003 12.6118C21.8938 13.164 21.4409 13.6065 20.8886 13.6C16.7633 13.5514 14.1952 14.2547 12.2593 15.3252C10.4901 16.3034 9.19128 17.6108 7.64976 19.1625Z" fill="#1F2937"/>
<path fill-rule="evenodd" clip-rule="evenodd" d="M19.1793 5.11055C19.5345 5.53344 19.4797 6.16423 19.0568 6.51945C13.2926 11.3614 8.19485 11.7537 3.09961 11.7537C2.54732 11.7537 2.09961 11.306 2.09961 10.7537C2.09961 10.2015 2.54732 9.75375 3.09961 9.75375C8.00437 9.75375 12.5346 9.38609 17.7704 4.98804C18.1933 4.63282 18.8241 4.68767 19.1793 5.11055Z" fill="#1F2937"/>
</svg>
