<svg width="24" height="24" viewBox="0 0 24 24" fill="none" xmlns="http://www.w3.org/2000/svg">
<path fill-rule="evenodd" clip-rule="evenodd" d="M11.2929 2.29289C11.6834 1.90237 12.3166 1.90237 12.7071 2.29289L17.7143 7.30011C18.8168 8.42532 19.5625 9.85102 19.858 11.3984C20.1535 12.9457 19.9856 14.5458 19.3753 15.9981C18.7651 17.4504 17.7396 18.6902 16.4276 19.5621C15.1155 20.4339 13.5753 20.899 12 20.899C10.4247 20.899 8.88447 20.4339 7.57243 19.5621C6.26039 18.6902 5.23494 17.4504 4.62468 15.9981C4.01443 14.5458 3.84651 12.9457 4.14201 11.3984C4.4375 9.85102 5.18324 8.42536 6.28572 7.30015L6.29286 7.29286L11.2929 2.29289ZM7.71087 8.70335C6.88589 9.54672 6.32782 10.6146 6.10651 11.7735C5.88489 12.934 6.01082 14.1341 6.46851 15.2233C6.92621 16.3126 7.69529 17.2424 8.67932 17.8963C9.66335 18.5502 10.8185 18.899 12 18.899C13.1815 18.899 14.3367 18.5502 15.3207 17.8963C16.3047 17.2424 17.0738 16.3126 17.5315 15.2233C17.9892 14.1341 18.1151 12.934 17.8935 11.7735C17.6722 10.6146 17.1141 9.54673 16.2892 8.70337L12 4.41421L7.71087 8.70335Z" fill="#1F2937"/>
</svg>
