<svg width="24" height="24" viewBox="0 0 24 24" fill="none" xmlns="http://www.w3.org/2000/svg">
<path d="M17.9804 9.24196C19.3413 10.3544 20.6928 11.4607 22.055 12.5744C22.0052 12.6113 21.9655 12.6427 21.9211 12.6712C20.0405 13.9234 18.1611 15.1775 16.2817 16.4327C16.1969 16.4896 16.143 16.5047 16.0535 16.4291C14.7494 15.3112 13.4418 14.1976 12.1341 13.084C12.1033 13.0579 12.0725 13.0319 12.0281 12.9956C10.6452 14.1746 9.27533 15.3427 7.90013 16.5132C5.93599 15.2035 3.97895 13.8986 2 12.5792C3.36927 11.4583 4.7184 10.3544 6.07937 9.24196C4.7184 8.12834 3.36809 7.02319 2.00593 5.90956C2.05984 5.86962 2.10013 5.83754 2.14279 5.80909C4.01747 4.55869 5.89333 3.30768 7.768 2.05727C7.84443 2.00643 7.90013 1.96407 7.99671 2.04638C9.31265 3.17513 10.6327 4.29844 11.9522 5.42235C11.9724 5.43809 11.9943 5.45322 12.0376 5.48409C10.0426 6.74297 8.07077 7.98671 6.08115 9.24196C8.06899 10.496 10.0397 11.7385 12.0287 12.9926C14.0183 11.7385 15.9896 10.496 17.9774 9.24196C15.986 7.9855 14.0159 6.74297 12.0352 5.49256C12.0856 5.44535 12.1229 5.40964 12.162 5.37575C13.4489 4.27907 14.737 3.18361 16.0221 2.0833C16.1187 2.00038 16.1833 1.98283 16.3006 2.0609C18.1729 3.31494 20.0488 4.56535 21.9235 5.81515C21.9614 5.84117 22.0011 5.86962 22.0556 5.90835C20.6976 7.01956 19.3473 8.1235 17.9804 9.24196ZM12.0429 13.7509C10.6594 14.9233 9.28244 16.0889 7.90309 17.2601C7.31592 16.8691 6.73646 16.4835 6.1327 16.0805C6.1327 16.5259 6.12914 16.935 6.13685 17.3442C6.13744 17.3853 6.19432 17.4398 6.23698 17.4658C8.13832 18.6339 10.0408 19.7984 11.9422 20.9659C12.0127 21.0076 12.0654 21.0137 12.1395 20.9695C14.0456 19.7984 15.9534 18.6315 17.8559 17.458C17.9045 17.4283 17.946 17.3454 17.9484 17.2861C17.9608 17.0724 17.9537 16.8588 17.9537 16.6457C17.9537 16.4672 17.9537 16.2899 17.9537 16.0786C17.3482 16.4829 16.7711 16.8679 16.1851 17.2582C14.801 16.0865 13.4258 14.9227 12.0429 13.7509Z" fill="#017EE6"/>
</svg>
