<svg width="24" height="24" viewBox="0 0 24 24" fill="none" xmlns="http://www.w3.org/2000/svg">
<path fill-rule="evenodd" clip-rule="evenodd" d="M3.87868 6.88613C4.44129 6.32352 5.20435 6.00745 6 6.00745H9C9.55228 6.00745 10 6.45516 10 7.00745C10 7.55973 9.55228 8.00745 9 8.00745H6C5.73478 8.00745 5.48043 8.1128 5.29289 8.30034C5.10536 8.48788 5 8.74223 5 9.00745V18.0074C5 18.2727 5.10536 18.527 5.29289 18.7146C5.48043 18.9021 5.73478 19.0074 6 19.0074H15C15.2652 19.0074 15.5196 18.9021 15.7071 18.7146C15.8946 18.527 16 18.2727 16 18.0074V15.0074C16 14.4552 16.4477 14.0074 17 14.0074C17.5523 14.0074 18 14.4552 18 15.0074V18.0074C18 18.8031 17.6839 19.5662 17.1213 20.1288C16.5587 20.6914 15.7957 21.0074 15 21.0074H6C5.20435 21.0074 4.44129 20.6914 3.87868 20.1288C3.31607 19.5662 3 18.8031 3 18.0074V9.00745C3 8.2118 3.31607 7.44874 3.87868 6.88613Z" fill="#1F2937"/>
<path fill-rule="evenodd" clip-rule="evenodd" d="M16.7929 2.79666C17.3783 2.2113 18.1722 1.88245 19 1.88245C19.8278 1.88245 20.6217 2.2113 21.2071 2.79666C21.7925 3.38202 22.1213 4.17594 22.1213 5.00377C22.1213 5.83159 21.7925 6.62551 21.2071 7.21087L12.7071 15.7109C12.5196 15.8984 12.2652 16.0038 12 16.0038H9C8.44772 16.0038 8 15.5561 8 15.0038V12.0038C8 11.7386 8.10536 11.4842 8.29289 11.2967L16.7929 2.79666L17.5 3.50377L16.7929 2.79666ZM19 3.88245C18.7026 3.88245 18.4174 4.00059 18.2071 4.21087L10 12.418V14.0038H11.5858L19.7929 5.79666C20.0032 5.58637 20.1213 5.30116 20.1213 5.00377C20.1213 4.70637 20.0032 4.42116 19.7929 4.21087C19.5826 4.00059 19.2974 3.88245 19 3.88245Z" fill="#1F2937"/>
<path fill-rule="evenodd" clip-rule="evenodd" d="M15.2929 4.28545C15.6834 3.89492 16.3166 3.89492 16.7071 4.28545L19.7071 7.28545C20.0976 7.67597 20.0976 8.30914 19.7071 8.69966C19.3166 9.09019 18.6834 9.09019 18.2929 8.69966L15.2929 5.69966C14.9024 5.30914 14.9024 4.67597 15.2929 4.28545Z" fill="#1F2937"/>
</svg>
