<svg width="24" height="24" viewBox="0 0 24 24" fill="none" xmlns="http://www.w3.org/2000/svg">
<path fill-rule="evenodd" clip-rule="evenodd" d="M9.85971 3.47647C10.5222 3.13763 11.2557 2.96094 11.9999 2.96094C12.744 2.96094 13.4775 3.13763 14.14 3.47647C14.7872 3.8075 15.3486 4.28403 15.7803 4.86837C17.9936 7.38855 19.1474 10.6671 18.9998 14.0186C18.9937 15.8667 18.2569 17.6378 16.9496 18.945C15.6369 20.2578 13.8564 20.9953 11.9999 20.9953C10.1433 20.9953 8.36287 20.2578 7.05011 18.945C5.74285 17.6378 5.00604 15.8667 4.9999 14.0186C4.85233 10.6671 6.00613 7.38856 8.21944 4.86837C8.65109 4.28402 9.21249 3.8075 9.85971 3.47647ZM6.99961 13.9724C6.99938 13.9626 6.99902 13.9527 6.99851 13.9429C6.86967 11.0893 7.85594 8.29742 9.74882 6.15792C9.7707 6.13318 9.79134 6.10738 9.81067 6.08061C10.0609 5.734 10.3898 5.45175 10.7704 5.2571C11.151 5.06244 11.5724 4.96094 11.9999 4.96094C12.4273 4.96094 12.8487 5.06244 13.2293 5.2571C13.6099 5.45175 13.9388 5.734 14.1891 6.08061C14.2084 6.10738 14.229 6.13318 14.2509 6.15792C16.1453 8.2991 17.1316 11.0937 17.0009 13.9496C17.0002 13.9648 16.9999 13.9801 16.9999 13.9953C16.9999 15.3214 16.4731 16.5931 15.5354 17.5308C14.5977 18.4685 13.3259 18.9953 11.9999 18.9953C10.6738 18.9953 9.40201 18.4685 8.46433 17.5308C7.52814 16.5946 7.00155 15.3254 6.99987 14.0016C6.99986 13.9995 6.99986 13.9974 6.99986 13.9953C6.99986 13.9877 6.99978 13.98 6.99961 13.9724Z" fill="#1F2937"/>
</svg>
