<svg width="24" height="24" viewBox="0 0 24 24" fill="none" xmlns="http://www.w3.org/2000/svg">
<path d="M11.4099 2.19238C11.7854 1.91779 12.3071 1.93739 12.6619 2.25098L13.071 2.5957C15.1527 4.26439 17.7766 5.12339 20.4539 5.00098L20.6238 5.00781C21.0132 5.05641 21.345 5.33119 21.4587 5.71777L21.5876 6.18848C22.1869 8.55162 22.1099 11.0393 21.3611 13.3662C21.1918 13.8917 20.6289 14.1808 20.1033 14.0117C19.5779 13.8425 19.2889 13.2794 19.4578 12.7539C20.0567 10.8927 20.1454 8.9101 19.7253 7.00977C16.9247 6.96117 14.214 6.00905 11.9988 4.2959C9.78385 6.00841 7.0742 6.96017 4.27417 7.00879C3.70786 9.56888 4.07137 12.2568 5.31812 14.582C6.5981 16.9692 8.7109 18.7941 11.2439 19.7178L11.7556 19.8906L11.8513 19.9258C12.3179 20.1238 12.5678 20.647 12.4148 21.1416C12.2614 21.636 11.7592 21.9267 11.2625 21.8262L11.1638 21.8008L10.8591 21.7031C7.73224 20.6489 5.11854 18.4425 3.55542 15.5273C1.9419 12.518 1.57695 8.9938 2.53979 5.71777L2.60132 5.55957C2.77397 5.20707 3.14304 4.9827 3.54565 5.00098C6.40122 5.13154 9.19565 4.145 11.3367 2.25098L11.4099 2.19238Z" fill="#4B5563"/>
<path d="M20.293 16.2929C20.6835 15.9024 21.3165 15.9024 21.707 16.2929C22.0976 16.6834 22.0976 17.3164 21.707 17.707L17.707 21.707C17.3165 22.0975 16.6835 22.0975 16.293 21.707L14.293 19.707L14.2246 19.6308C13.9043 19.238 13.9269 18.659 14.293 18.2929C14.6591 17.9268 15.2381 17.9042 15.6309 18.2245L15.707 18.2929L17 19.5859L20.293 16.2929Z" fill="#4B5563"/>
</svg>
