<svg width="24" height="24" viewBox="0 0 24 24" fill="none" xmlns="http://www.w3.org/2000/svg">
<path fill-rule="evenodd" clip-rule="evenodd" d="M5 6C4.73478 6 4.48043 6.10536 4.29289 6.29289C4.10536 6.48043 4 6.73478 4 7V17C4 17.2652 4.10536 17.5196 4.29289 17.7071C4.48043 17.8946 4.73478 18 5 18H13.5C14.0523 18 14.5 18.4477 14.5 19C14.5 19.5523 14.0523 20 13.5 20H5C4.20435 20 3.44129 19.6839 2.87868 19.1213C2.31607 18.5587 2 17.7956 2 17V7C2 6.20435 2.31607 5.44129 2.87868 4.87868C3.44129 4.31607 4.20435 4 5 4H19C19.7957 4 20.5587 4.31607 21.1213 4.87868C21.6839 5.44129 22 6.20435 22 7V13C22 13.5523 21.5523 14 21 14C20.4477 14 20 13.5523 20 13V7C20 6.73478 19.8946 6.48043 19.7071 6.29289C19.5196 6.10536 19.2652 6 19 6H5Z" fill="#6B7280"/>
<path fill-rule="evenodd" clip-rule="evenodd" d="M2.16806 6.4453C2.47441 5.98577 3.09528 5.8616 3.55481 6.16795L12.0001 11.7981L20.4454 6.16795C20.9049 5.8616 21.5258 5.98577 21.8322 6.4453C22.1385 6.90483 22.0143 7.5257 21.5548 7.83205L12.5548 13.832C12.2189 14.056 11.7813 14.056 11.4454 13.832L2.44541 7.83205C1.98588 7.5257 1.8617 6.90483 2.16806 6.4453Z" fill="#1F2937"/>
<path fill-rule="evenodd" clip-rule="evenodd" d="M16.2929 16.2929C16.6834 15.9024 17.3166 15.9024 17.7071 16.2929L22.7071 21.2929C23.0976 21.6834 23.0976 22.3166 22.7071 22.7071C22.3166 23.0976 21.6834 23.0976 21.2929 22.7071L16.2929 17.7071C15.9024 17.3166 15.9024 16.6834 16.2929 16.2929Z" fill="#1F2937"/>
<path fill-rule="evenodd" clip-rule="evenodd" d="M22.7071 16.2929C23.0976 16.6834 23.0976 17.3166 22.7071 17.7071L17.7071 22.7071C17.3166 23.0976 16.6834 23.0976 16.2929 22.7071C15.9024 22.3166 15.9024 21.6834 16.2929 21.2929L21.2929 16.2929C21.6834 15.9024 22.3166 15.9024 22.7071 16.2929Z" fill="#1F2937"/>
</svg>
