<svg width="24" height="24" viewBox="0 0 24 24" fill="none" xmlns="http://www.w3.org/2000/svg">
<path fill-rule="evenodd" clip-rule="evenodd" d="M13.2948 2.88639C13.6695 2.51389 14.1764 2.30481 14.7048 2.30481C15.2331 2.30481 15.7401 2.51389 16.1148 2.88639L16.1169 2.88849L21.119 7.8906C21.4915 8.26533 21.7006 8.77223 21.7006 9.3006C21.7006 9.82897 21.4915 10.3359 21.119 10.7106L21.1169 10.7127L13.824 18.0056H18.9998C19.5521 18.0056 19.9998 18.4533 19.9998 19.0056C19.9998 19.5579 19.5521 20.0056 18.9998 20.0056H11.4108C11.4101 20.0056 11.4095 20.0056 11.4088 20.0056H7.99978C7.73456 20.0056 7.48021 19.9002 7.29267 19.7127L3.29267 15.7127L3.29057 15.7106C2.91807 15.3359 2.70898 14.829 2.70898 14.3006C2.70898 13.7722 2.91807 13.2653 3.29057 12.8906L3.29267 12.8885L13.2927 2.8885L13.2948 2.88639ZM10.9956 18.0056L19.7006 9.3006L14.7048 4.30481L4.70898 14.3006L8.41399 18.0056H10.9956Z" fill="#1F2937"/>
<path fill-rule="evenodd" clip-rule="evenodd" d="M10.9931 5.29289C11.3836 4.90237 12.0168 4.90237 12.4073 5.29289L18.7073 11.5929C19.0978 11.9834 19.0978 12.6166 18.7073 13.0071C18.3168 13.3977 17.6836 13.3977 17.2931 13.0071L10.9931 6.70711C10.6026 6.31658 10.6026 5.68342 10.9931 5.29289Z" fill="#1F2937"/>
</svg>
