<svg width="24" height="24" viewBox="0 0 24 24" fill="none" xmlns="http://www.w3.org/2000/svg">
<path fill-rule="evenodd" clip-rule="evenodd" d="M6 5.00751C5.44772 5.00751 5 5.45522 5 6.00751V18.0075C5 18.5598 5.44772 19.0075 6 19.0075H18C18.5523 19.0075 19 18.5598 19 18.0075V6.00751C19 5.45522 18.5523 5.00751 18 5.00751H6ZM3 6.00751C3 4.35065 4.34315 3.00751 6 3.00751H18C19.6569 3.00751 21 4.35065 21 6.00751V18.0075C21 19.6644 19.6569 21.0075 18 21.0075H6C4.34315 21.0075 3 19.6644 3 18.0075V6.00751Z" fill="#1F2937"/>
<path fill-rule="evenodd" clip-rule="evenodd" d="M20.1072 3.90971C20.4977 4.30024 20.4977 4.9334 20.1072 5.32393L5.3072 20.1239C4.91668 20.5145 4.28352 20.5145 3.89299 20.1239C3.50247 19.7334 3.50247 19.1002 3.89299 18.7097L18.693 3.90971C19.0835 3.51919 19.7167 3.51919 20.1072 3.90971Z" fill="#1F2937"/>
<path fill-rule="evenodd" clip-rule="evenodd" d="M9 6.00751C9.55228 6.00751 10 6.45522 10 7.00751V8.00751H11C11.5523 8.00751 12 8.45522 12 9.00751C12 9.55979 11.5523 10.0075 11 10.0075H10V11.0075C10 11.5598 9.55228 12.0075 9 12.0075C8.44772 12.0075 8 11.5598 8 11.0075V10.0075H7C6.44772 10.0075 6 9.55979 6 9.00751C6 8.45522 6.44772 8.00751 7 8.00751H8V7.00751C8 6.45522 8.44772 6.00751 9 6.00751Z" fill="#1F2937"/>
<path fill-rule="evenodd" clip-rule="evenodd" d="M12 16.0075C12 15.4552 12.4477 15.0075 13 15.0075H17C17.5523 15.0075 18 15.4552 18 16.0075C18 16.5598 17.5523 17.0075 17 17.0075H13C12.4477 17.0075 12 16.5598 12 16.0075Z" fill="#1F2937"/>
</svg>
