<svg width="24" height="24" viewBox="0 0 24 24" fill="none" xmlns="http://www.w3.org/2000/svg">
<path fill-rule="evenodd" clip-rule="evenodd" d="M8.38379 13.5077C8.38379 12.9554 7.93607 12.5077 7.38379 12.5077H1.38379C0.831504 12.5077 0.383789 12.9554 0.383789 13.5077C0.383789 14.0599 0.831504 14.5077 1.38379 14.5077H7.38379C7.93607 14.5077 8.38379 14.0599 8.38379 13.5077Z" fill="#1F2937"/>
<path fill-rule="evenodd" clip-rule="evenodd" d="M9.6416 16.5077C9.6416 15.9554 9.19389 15.5077 8.6416 15.5077H3.6416C3.08932 15.5077 2.6416 15.9554 2.6416 16.5077C2.6416 17.0599 3.08932 17.5077 3.6416 17.5077H8.6416C9.19389 17.5077 9.6416 17.0599 9.6416 16.5077Z" fill="#1F2937"/>
<path fill-rule="evenodd" clip-rule="evenodd" d="M11.1416 19.5077C11.1416 18.9554 10.6939 18.5077 10.1416 18.5077H7.1416C6.58932 18.5077 6.1416 18.9554 6.1416 19.5077C6.1416 20.0599 6.58932 20.5077 7.1416 20.5077H10.1416C10.6939 20.5077 11.1416 20.0599 11.1416 19.5077Z" fill="#1F2937"/>
<path fill-rule="evenodd" clip-rule="evenodd" d="M19.9999 5.00745C20.2651 5.00745 20.5195 5.1128 20.707 5.30034C20.8945 5.48788 20.9999 5.74223 20.9999 6.00745V16.0074C20.9999 16.2727 20.8945 16.527 20.707 16.7146C20.5195 16.9021 20.2651 17.0074 19.9999 17.0074H12.9999C12.4476 17.0074 11.9999 17.4552 11.9999 18.0074C11.9999 18.5597 12.4476 19.0074 12.9999 19.0074H19.9999C20.7955 19.0074 21.5586 18.6914 22.1212 18.1288C22.6838 17.5662 22.9999 16.8031 22.9999 16.0074V6.00745C22.9999 5.2118 22.6838 4.44874 22.1212 3.88613C21.5586 3.32352 20.7955 3.00745 19.9999 3.00745H5.99989C5.20424 3.00745 4.44118 3.32352 3.87857 3.88613C3.31596 4.44873 2.99989 5.2118 2.99989 6.00745V10.5074C2.99989 11.0597 3.44761 11.5074 3.99989 11.5074C4.55218 11.5074 4.99989 11.0597 4.99989 10.5074V6.00745C4.99989 5.74223 5.10525 5.48788 5.29279 5.30034C5.48032 5.1128 5.73468 5.00745 5.99989 5.00745H19.9999Z" fill="#1F2937"/>
<path fill-rule="evenodd" clip-rule="evenodd" d="M22.8319 5.45275C22.5256 4.99322 21.9047 4.86904 21.4452 5.1754L12.9999 10.8056L4.55459 5.1754C4.09506 4.86904 3.4742 4.99322 3.16784 5.45275C2.86149 5.91227 2.98566 6.53314 3.44519 6.8395L12.4452 12.8395C12.7811 13.0634 13.2187 13.0634 13.5546 12.8395L22.5546 6.8395C23.0141 6.53314 23.1383 5.91227 22.8319 5.45275Z" fill="#1F2937"/>
</svg>
