<svg width="24" height="24" viewBox="0 0 24 24" fill="none" xmlns="http://www.w3.org/2000/svg">
<path fill-rule="evenodd" clip-rule="evenodd" d="M3.87868 6.88619C4.44129 6.32358 5.20435 6.00751 6 6.00751H11C11.5523 6.00751 12 6.45522 12 7.00751C12 7.55979 11.5523 8.00751 11 8.00751H6C5.73478 8.00751 5.48043 8.11286 5.29289 8.3004C5.10536 8.48794 5 8.74229 5 9.00751V18.0075C5 18.2727 5.10536 18.5271 5.29289 18.7146C5.48043 18.9022 5.73478 19.0075 6 19.0075H15C15.2652 19.0075 15.5196 18.9022 15.7071 18.7146C15.8946 18.5271 16 18.2727 16 18.0075V13.0075C16 12.4552 16.4477 12.0075 17 12.0075C17.5523 12.0075 18 12.4552 18 13.0075V18.0075C18 18.8032 17.6839 19.5662 17.1213 20.1288C16.5587 20.6914 15.7957 21.0075 15 21.0075H6C5.20435 21.0075 4.44129 20.6914 3.87868 20.1288C3.31607 19.5662 3 18.8032 3 18.0075V9.00751C3 8.21186 3.31607 7.4488 3.87868 6.88619Z" fill="#1F2937"/>
<path fill-rule="evenodd" clip-rule="evenodd" d="M20.7071 3.3004C21.0976 3.69092 21.0976 4.32409 20.7071 4.71461L10.7071 14.7146C10.3166 15.1051 9.68342 15.1051 9.29289 14.7146C8.90237 14.3241 8.90237 13.6909 9.29289 13.3004L19.2929 3.3004C19.6834 2.90988 20.3166 2.90988 20.7071 3.3004Z" fill="#1F2937"/>
<path fill-rule="evenodd" clip-rule="evenodd" d="M14 4.00751C14 3.45522 14.4477 3.00751 15 3.00751H20C20.5523 3.00751 21 3.45522 21 4.00751V9.00751C21 9.55979 20.5523 10.0075 20 10.0075C19.4477 10.0075 19 9.55979 19 9.00751V5.00751H15C14.4477 5.00751 14 4.55979 14 4.00751Z" fill="#1F2937"/>
</svg>
