<svg width="24" height="24" viewBox="0 0 24 24" fill="none" xmlns="http://www.w3.org/2000/svg">
<path fill-rule="evenodd" clip-rule="evenodd" d="M12 11.0075C11.4477 11.0075 11 11.4552 11 12.0075C11 12.5598 11.4477 13.0075 12 13.0075C12.5523 13.0075 13 12.5598 13 12.0075C13 11.4552 12.5523 11.0075 12 11.0075ZM9 12.0075C9 10.3507 10.3431 9.00751 12 9.00751C13.6569 9.00751 15 10.3507 15 12.0075C15 13.6644 13.6569 15.0075 12 15.0075C10.3431 15.0075 9 13.6644 9 12.0075Z" fill="#1F2937"/>
<path fill-rule="evenodd" clip-rule="evenodd" d="M1.40006 11.2C1.84189 10.8686 2.46869 10.9582 2.80006 11.4L4.28649 13.3819C5.22233 14.5162 6.39689 15.4302 7.72652 16.0587C9.06266 16.6903 10.5222 17.0179 12.0001 17.0179C13.4779 17.0179 14.9375 16.6903 16.2736 16.0587C17.6032 15.4302 18.7778 14.5162 19.7136 13.3819L21.2001 11.4C21.5314 10.9582 22.1582 10.8686 22.6001 11.2C23.0419 11.5314 23.1314 12.1582 22.8001 12.6L21.3001 14.6C21.2912 14.6118 21.2821 14.6234 21.2728 14.6347C20.1471 16.0051 18.7317 17.109 17.1283 17.8669C15.5249 18.6248 13.7735 19.0179 12.0001 19.0179C10.2266 19.0179 8.47518 18.6248 6.87182 17.8669C5.26846 17.109 3.85302 16.0051 2.72733 14.6347C2.71799 14.6234 2.70889 14.6118 2.70006 14.6L1.20006 12.6C0.868688 12.1582 0.958231 11.5314 1.40006 11.2Z" fill="#1F2937"/>
<path fill-rule="evenodd" clip-rule="evenodd" d="M12.0001 6.9765C10.5222 6.9765 9.06266 7.30408 7.72653 7.93566C6.39689 8.56416 5.22234 9.47818 4.28649 10.6125L2.80006 12.5944C2.46869 13.0362 1.84189 13.1258 1.40006 12.7944C0.958232 12.463 0.868688 11.8362 1.20006 11.3944L2.70006 9.39439C2.70889 9.38261 2.71799 9.37103 2.72733 9.35965C3.85302 7.98925 5.26846 6.88538 6.87182 6.12749C8.47518 5.36959 10.2266 4.9765 12.0001 4.9765C13.7735 4.9765 15.5249 5.36959 17.1283 6.12749C18.7317 6.88538 20.1471 7.98925 21.2728 9.35965C21.2821 9.37103 21.2912 9.38261 21.3001 9.39439L22.8001 11.3944C23.1314 11.8362 23.0419 12.463 22.6001 12.7944C22.1582 13.1258 21.5314 13.0362 21.2001 12.5944L19.7136 10.6125C18.7778 9.47818 17.6032 8.56416 16.2736 7.93566C14.9375 7.30408 13.4779 6.9765 12.0001 6.9765Z" fill="#1F2937"/>
</svg>
