<svg width="24" height="24" viewBox="0 0 24 24" fill="none" xmlns="http://www.w3.org/2000/svg">
<path fill-rule="evenodd" clip-rule="evenodd" d="M6 5.00751C5.73478 5.00751 5.48043 5.11286 5.29289 5.3004C5.10536 5.48794 5 5.74229 5 6.00751V8.00751C5 8.55979 4.55228 9.00751 4 9.00751C3.44772 9.00751 3 8.55979 3 8.00751V6.00751C3 5.21186 3.31607 4.4488 3.87868 3.88619C4.44129 3.32358 5.20435 3.00751 6 3.00751H8C8.55228 3.00751 9 3.45522 9 4.00751C9 4.55979 8.55228 5.00751 8 5.00751H6Z" fill="#1F2937"/>
<path fill-rule="evenodd" clip-rule="evenodd" d="M4 15.0075C4.55228 15.0075 5 15.4552 5 16.0075V18.0075C5 18.2727 5.10536 18.5271 5.29289 18.7146C5.48043 18.9022 5.73478 19.0075 6 19.0075H8C8.55228 19.0075 9 19.4552 9 20.0075C9 20.5598 8.55228 21.0075 8 21.0075H6C5.20435 21.0075 4.44129 20.6914 3.87868 20.1288C3.31607 19.5662 3 18.8032 3 18.0075V16.0075C3 15.4552 3.44772 15.0075 4 15.0075Z" fill="#1F2937"/>
<path fill-rule="evenodd" clip-rule="evenodd" d="M15 4.00751C15 3.45522 15.4477 3.00751 16 3.00751H18C18.7956 3.00751 19.5587 3.32358 20.1213 3.88619C20.6839 4.4488 21 5.21186 21 6.00751V8.00751C21 8.55979 20.5523 9.00751 20 9.00751C19.4477 9.00751 19 8.55979 19 8.00751V6.00751C19 5.74229 18.8946 5.48794 18.7071 5.3004C18.5196 5.11286 18.2652 5.00751 18 5.00751H16C15.4477 5.00751 15 4.55979 15 4.00751Z" fill="#1F2937"/>
<path fill-rule="evenodd" clip-rule="evenodd" d="M20 15.0075C20.5523 15.0075 21 15.4552 21 16.0075V18.0075C21 18.8032 20.6839 19.5662 20.1213 20.1288C19.5587 20.6914 18.7957 21.0075 18 21.0075H16C15.4477 21.0075 15 20.5598 15 20.0075C15 19.4552 15.4477 19.0075 16 19.0075H18C18.2652 19.0075 18.5196 18.9022 18.7071 18.7146C18.8946 18.5271 19 18.2727 19 18.0075V16.0075C19 15.4552 19.4477 15.0075 20 15.0075Z" fill="#1F2937"/>
<path fill-rule="evenodd" clip-rule="evenodd" d="M8 10.0075C8 9.45522 8.44772 9.00751 9 9.00751H9.01C9.56228 9.00751 10.01 9.45522 10.01 10.0075C10.01 10.5598 9.56228 11.0075 9.01 11.0075H9C8.44772 11.0075 8 10.5598 8 10.0075Z" fill="#1F2937"/>
<path fill-rule="evenodd" clip-rule="evenodd" d="M14 10.0075C14 9.45522 14.4477 9.00751 15 9.00751H15.01C15.5623 9.00751 16.01 9.45522 16.01 10.0075C16.01 10.5598 15.5623 11.0075 15.01 11.0075H15C14.4477 11.0075 14 10.5598 14 10.0075Z" fill="#1F2937"/>
<path fill-rule="evenodd" clip-rule="evenodd" d="M8.80015 14.2857C9.19464 13.8992 9.82777 13.9057 10.2143 14.3001C10.4471 14.5377 10.7249 14.7265 11.0315 14.8553C11.3381 14.9841 11.6674 15.0505 12 15.0505C12.3326 15.0505 12.6619 14.9841 12.9685 14.8553C13.2751 14.7265 13.5529 14.5377 13.7857 14.3001C14.1722 13.9057 14.8054 13.8992 15.1999 14.2857C15.5943 14.6722 15.6008 15.3054 15.2143 15.6999C14.7953 16.1275 14.2952 16.4672 13.7433 16.6991C13.1913 16.9311 12.5987 17.0505 12 17.0505C11.4013 17.0505 10.8087 16.9311 10.2567 16.6991C9.70481 16.4672 9.2047 16.1275 8.78571 15.6999C8.3992 15.3054 8.40566 14.6722 8.80015 14.2857Z" fill="#1F2937"/>
</svg>
