<svg width="17" height="17" viewBox="0 0 17 17" fill="none" xmlns="http://www.w3.org/2000/svg">
<g clip-path="url(#clip0_123_867972)">
<path d="M15.7462 0H0.919889C0.412194 0 0 0.41137 0 0.919889V15.7462C0 16.2547 0.412194 16.6667 0.919889 16.6667H8.90195V10.2124H6.73012V7.69666H8.90195V5.84151C8.90195 3.68916 10.2162 2.51652 12.1367 2.51652C13.0574 2.51652 13.8469 2.5854 14.0772 2.61532V4.86509L12.7451 4.86564C11.7009 4.86564 11.4994 5.36208 11.4994 6.09015V7.69583H13.9907L13.665 10.2113H11.4992V16.6658H15.746C16.2542 16.6658 16.6667 16.2534 16.6667 15.7462V0.91934C16.6664 0.41137 16.2545 0 15.7462 0Z" fill="#1877F2"/>
</g>
<defs>
<clipPath id="clip0_123_867972">
<rect width="16.6667" height="16.6667" rx="4" fill="white"/>
</clipPath>
</defs>
</svg>
