<svg width="24" height="24" viewBox="0 0 24 24" fill="none" xmlns="http://www.w3.org/2000/svg">
<path fill-rule="evenodd" clip-rule="evenodd" d="M10.7574 3.75736C11.8826 2.63214 13.4087 2 15 2H18C18.5523 2 19 2.44772 19 3V7C19 7.55228 18.5523 8 18 8H15V9H18C18.3079 9 18.5987 9.14187 18.7882 9.38459C18.9777 9.6273 19.0448 9.94379 18.9701 10.2425L17.9701 14.2425C17.8589 14.6877 17.4589 15 17 15H15V21C15 21.5523 14.5523 22 14 22H10C9.44772 22 9 21.5523 9 21V15H7C6.44772 15 6 14.5523 6 14V10C6 9.44772 6.44772 9 7 9H9V8C9 6.4087 9.63214 4.88258 10.7574 3.75736ZM15 4C13.9391 4 12.9217 4.42143 12.1716 5.17157C11.4214 5.92172 11 6.93913 11 8V10C11 10.5523 10.5523 11 10 11H8V13H10C10.5523 13 11 13.4477 11 14V20H13V14C13 13.4477 13.4477 13 14 13H16.2192L16.7192 11H14C13.4477 11 13 10.5523 13 10V8C13 7.46957 13.2107 6.96086 13.5858 6.58579C13.9609 6.21071 14.4696 6 15 6H17V4H15Z" fill="#1F2937"/>
</svg>
