<svg width="24" height="24" viewBox="0 0 24 24" fill="none" xmlns="http://www.w3.org/2000/svg">
<path d="M20.8955 2H3.10387C2.49463 2 2 2.49364 2 3.10387V20.8955C2 21.5057 2.49463 22 3.10387 22H12.6823V14.2548H10.0761V11.236H12.6823V9.00981C12.6823 6.42699 14.2594 5.01982 16.564 5.01982C17.6688 5.01982 18.6163 5.10248 18.8926 5.13838V7.83811L17.2941 7.83877C16.041 7.83877 15.7993 8.4345 15.7993 9.30818V11.235H18.7888L18.3979 14.2535H15.799V21.999H20.8951C21.505 21.999 22 21.5041 22 20.8955V3.10321C21.9997 2.49364 21.5054 2 20.8955 2Z" fill="#475993"/>
</svg>
