<svg width="20" height="20" viewBox="0 0 20 20" fill="none" xmlns="http://www.w3.org/2000/svg">
<g clip-path="url(#clip0_123_867971)">
<path d="M17.4142 1.6665H2.58786C2.08016 1.6665 1.66797 2.07787 1.66797 2.58639V17.4127C1.66797 17.9213 2.08016 18.3332 2.58786 18.3332H10.5699V11.8789H8.39809V9.36316H10.5699V7.50802C10.5699 5.35566 11.8842 4.18302 13.8046 4.18302C14.7253 4.18302 15.5149 4.25191 15.7451 4.28182V6.5316L14.413 6.53214C13.3688 6.53214 13.1674 7.02859 13.1674 7.75665V9.36234H15.6587L15.3329 11.8778H13.1671V18.3323H17.4139C17.9222 18.3323 18.3346 17.9199 18.3346 17.4127V2.58584C18.3344 2.07787 17.9224 1.6665 17.4142 1.6665Z" fill="#1877F2"/>
</g>
<defs>
<clipPath id="clip0_123_867971">
<rect x="1.66797" y="1.6665" width="16.6667" height="16.6667" rx="4" fill="white"/>
</clipPath>
</defs>
</svg>
