<svg width="20" height="20" viewBox="0 0 20 20" fill="none" xmlns="http://www.w3.org/2000/svg">
<path d="M2.5 6.66671C2.5 4.82576 3.99238 3.33337 5.83333 3.33337H10C10.4602 3.33337 10.8333 3.70647 10.8333 4.16671C10.8333 4.62694 10.4602 5.00004 10 5.00004H5.83333C4.91286 5.00004 4.16667 5.74623 4.16667 6.66671V15.5595L6.04207 13.6139C6.21485 13.4346 6.45311 13.3334 6.70207 13.3334H14.1667C15.0871 13.3334 15.8333 12.5872 15.8333 11.6667V10C15.8333 9.5398 16.2064 9.16671 16.6667 9.16671C17.1269 9.16671 17.5 9.5398 17.5 10V11.6667C17.5 13.5077 16.0076 15 14.1667 15H7.02092L4.07666 18.0546C3.50425 18.6485 2.5 18.2433 2.5 17.4185V6.66671Z" fill="currentColor"/>
<path d="M16.0974 1.0374C16.3926 0.765361 16.843 0.765368 17.1382 1.0374L17.1672 1.06548L18.9391 2.87294C19.2425 3.18245 19.2425 3.68429 18.9391 3.99381L14.2749 8.75162C14.1452 8.8839 13.9738 8.96513 13.7911 8.98094L11.676 9.16381C11.1935 9.20551 10.7916 8.79184 10.8368 8.30011L11.0032 6.49019L11.007 6.45585C11.0301 6.28499 11.1073 6.12611 11.2273 6.0037L16.0684 1.06548L16.0974 1.0374ZM12.3882 6.85734L12.3143 7.66242L13.4403 7.56504L17.4907 3.43337L16.6178 2.54294L12.3882 6.85734Z" fill="currentColor"/>
<path d="M13.3333 10L13.4188 10.0041C13.8389 10.0468 14.1666 10.4019 14.1666 10.8333C14.1666 11.2647 13.8389 11.6198 13.4188 11.6626L13.3333 11.6667H6.66665C6.20641 11.6667 5.83331 11.2936 5.83331 10.8333C5.83331 10.3731 6.20641 10 6.66665 10H13.3333Z" fill="currentColor"/>
<path d="M8.33331 6.66663L8.41876 6.67069C8.83887 6.71347 9.16665 7.06856 9.16665 7.49996C9.16665 7.93136 8.83887 8.28645 8.41876 8.32922L8.33331 8.33329H6.66665C6.20641 8.33329 5.83331 7.9602 5.83331 7.49996C5.83331 7.03972 6.20641 6.66663 6.66665 6.66663H8.33331Z" fill="currentColor"/>
</svg>
