<svg width="24" height="24" viewBox="0 0 24 24" fill="none" xmlns="http://www.w3.org/2000/svg">
<path fill-rule="evenodd" clip-rule="evenodd" d="M14 2C14.5523 2 15 2.44772 15 3V7H19C19.5523 7 20 7.44772 20 8C20 8.55228 19.5523 9 19 9H15C14.4696 9 13.9609 8.78929 13.5858 8.41421C13.2107 8.03914 13 7.53043 13 7V3C13 2.44772 13.4477 2 14 2Z" fill="#1F2937"/>
<path fill-rule="evenodd" clip-rule="evenodd" d="M7 4C6.73478 4 6.48043 4.10536 6.29289 4.29289C6.10536 4.48043 6 4.73478 6 5V19C6 19.2652 6.10536 19.5196 6.29289 19.7071C6.48043 19.8946 6.73478 20 7 20H17C17.2652 20 17.5196 19.8946 17.7071 19.7071C17.8946 19.5196 18 19.2652 18 19V8.41421L13.5858 4H7ZM4.87868 2.87868C5.44129 2.31607 6.20435 2 7 2H14C14.2652 2 14.5196 2.10536 14.7071 2.29289L19.7071 7.29289C19.8946 7.48043 20 7.73478 20 8V19C20 19.7957 19.6839 20.5587 19.1213 21.1213C18.5587 21.6839 17.7957 22 17 22H7C6.20435 22 5.44129 21.6839 4.87868 21.1213C4.31607 20.5587 4 19.7957 4 19V5C4 4.20435 4.31607 3.44129 4.87868 2.87868Z" fill="#1F2937"/>
<path fill-rule="evenodd" clip-rule="evenodd" d="M12 9.99251C12.5523 9.99251 13 10.4402 13 10.9925V16.9925C13 17.5448 12.5523 17.9925 12 17.9925C11.4477 17.9925 11 17.5448 11 16.9925V10.9925C11 10.4402 11.4477 9.99251 12 9.99251Z" fill="#1F2937"/>
<path fill-rule="evenodd" clip-rule="evenodd" d="M8.29289 13.2854C8.68342 12.8949 9.31658 12.8949 9.70711 13.2854L12 15.5783L14.2929 13.2854C14.6834 12.8949 15.3166 12.8949 15.7071 13.2854C16.0976 13.6759 16.0976 14.3091 15.7071 14.6996L12.7071 17.6996C12.5196 17.8872 12.2652 17.9925 12 17.9925C11.7348 17.9925 11.4804 17.8872 11.2929 17.6996L8.29289 14.6996C7.90237 14.3091 7.90237 13.6759 8.29289 13.2854Z" fill="#1F2937"/>
</svg>
