<svg width="24" height="24" viewBox="0 0 24 24" fill="none" xmlns="http://www.w3.org/2000/svg">
<path fill-rule="evenodd" clip-rule="evenodd" d="M16 3.99251C16.5523 3.99251 17 4.44022 17 4.99251V8.99251H21C21.5523 8.99251 22 9.44022 22 9.99251C22 10.5448 21.5523 10.9925 21 10.9925H17C16.4696 10.9925 15.9609 10.7818 15.5858 10.4067C15.2107 10.0316 15 9.52294 15 8.99251V4.99251C15 4.44022 15.4477 3.99251 16 3.99251Z" fill="#1F2937"/>
<path fill-rule="evenodd" clip-rule="evenodd" d="M2.87868 4.87119C3.44129 4.30858 4.20435 3.99251 5 3.99251H16C16.2652 3.99251 16.5196 4.09786 16.7071 4.2854L21.7071 9.2854C21.8946 9.47294 22 9.72729 22 9.99251V16.9925C22 17.7882 21.6839 18.5512 21.1213 19.1138C20.5587 19.6764 19.7957 19.9925 19 19.9925H5C4.20435 19.9925 3.44129 19.6764 2.87868 19.1138C2.31607 18.5512 2 17.7882 2 16.9925V6.99251C2 6.19686 2.31607 5.4338 2.87868 4.87119ZM5 5.99251C4.73478 5.99251 4.48043 6.09786 4.29289 6.2854C4.10536 6.47294 4 6.72729 4 6.99251V16.9925C4 17.2577 4.10536 17.5121 4.29289 17.6996C4.48043 17.8872 4.73478 17.9925 5 17.9925H19C19.2652 17.9925 19.5196 17.8872 19.7071 17.6996C19.8946 17.5121 20 17.2577 20 16.9925V10.4067L15.5858 5.99251H5Z" fill="#1F2937"/>
</svg>
