<svg width="24" height="24" viewBox="0 0 24 24" fill="none" xmlns="http://www.w3.org/2000/svg">
<path fill-rule="evenodd" clip-rule="evenodd" d="M14 2C14.5523 2 15 2.44772 15 3V7H19C19.5523 7 20 7.44772 20 8C20 8.55228 19.5523 9 19 9H15C14.4696 9 13.9609 8.78929 13.5858 8.41421C13.2107 8.03914 13 7.53043 13 7V3C13 2.44772 13.4477 2 14 2Z" fill="#1F2937"/>
<path fill-rule="evenodd" clip-rule="evenodd" d="M7 4C6.73478 4 6.48043 4.10536 6.29289 4.29289C6.10536 4.48043 6 4.73478 6 5V19C6 19.2652 6.10536 19.5196 6.29289 19.7071C6.48043 19.8946 6.73478 20 7 20H17C17.2652 20 17.5196 19.8946 17.7071 19.7071C17.8946 19.5196 18 19.2652 18 19V8.41421L13.5858 4H7ZM4.87868 2.87868C5.44129 2.31607 6.20435 2 7 2H14C14.2652 2 14.5196 2.10536 14.7071 2.29289L19.7071 7.29289C19.8946 7.48043 20 7.73478 20 8V19C20 19.7957 19.6839 20.5587 19.1213 21.1213C18.5587 21.6839 17.7957 22 17 22H7C6.20435 22 5.44129 21.6839 4.87868 21.1213C4.31607 20.5587 4 19.7957 4 19V5C4 4.20435 4.31607 3.44129 4.87868 2.87868Z" fill="#1F2937"/>
<path fill-rule="evenodd" clip-rule="evenodd" d="M9 16C9 14.8954 9.89543 14 11 14C12.1046 14 13 14.8954 13 16C13 17.1046 12.1046 18 11 18C9.89543 18 9 17.1046 9 16Z" fill="#1F2937"/>
<path fill-rule="evenodd" clip-rule="evenodd" d="M11.4743 10.1419C11.7691 9.95965 12.1372 9.94309 12.4472 10.0981L14.4472 11.0981C14.9412 11.3451 15.1414 11.9457 14.8944 12.4397C14.6474 12.9337 14.0468 13.1339 13.5528 12.8869L13 12.6105V15.9925C13 16.5448 12.5523 16.9925 12 16.9925C11.4477 16.9925 11 16.5448 11 15.9925V10.9925C11 10.6459 11.1795 10.3241 11.4743 10.1419Z" fill="#1F2937"/>
</svg>
