<svg width="24" height="24" viewBox="0 0 24 24" fill="none" xmlns="http://www.w3.org/2000/svg">
<path fill-rule="evenodd" clip-rule="evenodd" d="M14 2C14.5523 2 15 2.44772 15 3V7H19C19.5523 7 20 7.44772 20 8C20 8.55228 19.5523 9 19 9H15C14.4696 9 13.9609 8.78929 13.5858 8.41421C13.2107 8.03914 13 7.53043 13 7V3C13 2.44772 13.4477 2 14 2Z" fill="#1F2937"/>
<path fill-rule="evenodd" clip-rule="evenodd" d="M7 4C6.73478 4 6.48043 4.10536 6.29289 4.29289C6.10536 4.48043 6 4.73478 6 5V19C6 19.2652 6.10536 19.5196 6.29289 19.7071C6.48043 19.8946 6.73478 20 7 20H17C17.2652 20 17.5196 19.8946 17.7071 19.7071C17.8946 19.5196 18 19.2652 18 19V8.41421L13.5858 4H7ZM4.87868 2.87868C5.44129 2.31607 6.20435 2 7 2H14C14.2652 2 14.5196 2.10536 14.7071 2.29289L19.7071 7.29289C19.8946 7.48043 20 7.73478 20 8V19C20 19.7957 19.6839 20.5587 19.1213 21.1213C18.5587 21.6839 17.7957 22 17 22H7C6.20435 22 5.44129 21.6839 4.87868 21.1213C4.31607 20.5587 4 19.7957 4 19V5C4 4.20435 4.31607 3.44129 4.87868 2.87868Z" fill="#1F2937"/>
<path fill-rule="evenodd" clip-rule="evenodd" d="M10.4472 12.1131C10.9412 12.36 11.1414 12.9607 10.8944 13.4547L10.118 15.0075L10.8944 16.5603C11.1414 17.0542 10.9412 17.6549 10.4472 17.9019C9.95324 18.1489 9.35256 17.9487 9.10557 17.4547L8.10557 15.4547C7.96481 15.1732 7.96481 14.8418 8.10557 14.5603L9.10557 12.5603C9.35256 12.0663 9.95324 11.8661 10.4472 12.1131Z" fill="#1F2937"/>
<path fill-rule="evenodd" clip-rule="evenodd" d="M13.553 12.1131C14.047 11.8661 14.6477 12.0663 14.8946 12.5603L15.8946 14.5603C16.0354 14.8418 16.0354 15.1732 15.8946 15.4547L14.8946 17.4547C14.6477 17.9487 14.047 18.1489 13.553 17.9019C13.059 17.6549 12.8588 17.0542 13.1058 16.5603L13.8822 15.0075L13.1058 13.4547C12.8588 12.9607 13.059 12.36 13.553 12.1131Z" fill="#1F2937"/>
</svg>
