<svg width="24" height="24" viewBox="0 0 24 24" fill="none" xmlns="http://www.w3.org/2000/svg">
<path fill-rule="evenodd" clip-rule="evenodd" d="M5.16916 4.0489C5.27551 4.01161 5.3874 3.99255 5.50011 3.99255H18.5001C18.6128 3.99255 18.7247 4.01161 18.8311 4.0489C19.1191 4.14992 19.3802 4.31553 19.5943 4.53303C19.8085 4.75054 19.97 5.01418 20.0665 5.30375C20.163 5.59331 20.192 5.90114 20.1512 6.20364C20.1104 6.50613 20.0009 6.79527 19.8311 7.0489C19.8036 7.08987 19.7732 7.12875 19.74 7.16523L15.0001 12.3792V18.9926C15.0001 19.3713 14.7861 19.7176 14.4473 19.887C14.1085 20.0564 13.7031 20.0198 13.4001 19.7926L9.40011 16.7926C9.1483 16.6037 9.00011 16.3073 9.00011 15.9926V12.3792L4.26017 7.16523C4.22701 7.12875 4.19659 7.08987 4.16916 7.0489C3.99934 6.79527 3.88983 6.50613 3.84902 6.20364C3.8082 5.90114 3.83716 5.59332 3.93369 5.30375C4.03021 5.01418 4.19174 4.75054 4.40588 4.53303C4.62003 4.31553 4.88112 4.14992 5.16916 4.0489ZM5.89702 5.99255L10.74 11.3199C10.9074 11.504 11.0001 11.7438 11.0001 11.9926V15.4926L13.0001 16.9926V11.9926C13.0001 11.7438 13.0928 11.504 13.2602 11.3199L18.1032 5.99255H5.89702Z" fill="#1F2937"/>
</svg>
