<svg width="16" height="16" viewBox="0 0 16 16" fill="none" xmlns="http://www.w3.org/2000/svg">
<path d="M12.6667 4.11458V3.33333H3.33333V4.15104L3.33594 4.21289C3.34926 4.35629 3.40892 4.49221 3.50651 4.59961L6.49349 7.88477C6.60503 8.00748 6.66667 8.1675 6.66667 8.33333V13.0749L7.36263 12.8431C7.71184 12.7267 8.08922 12.9152 8.20573 13.2643C8.32219 13.6136 8.13369 13.9915 7.78451 14.1081L6.21094 14.6322C6.00763 14.7 5.78389 14.6663 5.61003 14.541C5.43619 14.4157 5.33333 14.2143 5.33333 14V8.59115L2.52018 5.49674V5.49609C2.18574 5.1281 2.00012 4.64895 2 4.15169V2.66667C2 2.29848 2.29848 2 2.66667 2H13.3333C13.7015 2 14 2.29848 14 2.66667V4.11458L13.9902 4.3125C13.9512 4.70489 13.7968 5.07718 13.5469 5.38216L13.4141 5.52865L10.4714 8.47135C10.211 8.7317 9.789 8.7317 9.52865 8.47135C9.2683 8.211 9.2683 7.789 9.52865 7.52865L12.4714 4.58594C12.5808 4.47655 12.6482 4.33297 12.6634 4.18034L12.6667 4.11458Z" fill="#1F2937"/>
<path d="M13.3269 11.8672C13.2966 11.5619 13.1616 11.2748 12.9427 11.056C12.6927 10.8059 12.3537 10.6654 12 10.6654C11.6464 10.6654 11.3074 10.8059 11.0573 11.056C10.8073 11.306 10.6667 11.6451 10.6667 11.9987C10.6667 12.3523 10.8073 12.6914 11.0573 12.9414C11.3074 13.1915 11.6464 13.332 12 13.332L12.1316 13.3255C12.4369 13.2953 12.7239 13.1603 12.9427 12.9414C13.1928 12.6914 13.3334 12.3523 13.3334 11.9987L13.3269 11.8672ZM14.6635 12.1309C14.6308 12.79 14.3543 13.4153 13.8855 13.8841C13.4166 14.353 12.7913 14.6294 12.1322 14.6621L12 14.6654C11.2928 14.6654 10.6147 14.3842 10.1146 13.8841C9.61453 13.384 9.33337 12.7059 9.33337 11.9987C9.33337 11.2915 9.61453 10.6134 10.1146 10.1133C10.6147 9.61318 11.2928 9.33203 12 9.33203C12.7073 9.33203 13.3854 9.61318 13.8855 10.1133C14.3856 10.6134 14.6667 11.2915 14.6667 11.9987L14.6635 12.1309Z" fill="#1F2937"/>
<path d="M12.9953 12.996C13.2557 12.7357 13.6777 12.7357 13.938 12.996L15.1379 14.1959C15.3982 14.4563 15.3982 14.8783 15.1379 15.1386C14.8775 15.399 14.4555 15.399 14.1952 15.1386L12.9953 13.9388C12.735 13.6784 12.735 13.2564 12.9953 12.996Z" fill="#1F2937"/>
</svg>
