<svg width="24" height="24" viewBox="0 0 24 24" fill="none" xmlns="http://www.w3.org/2000/svg">
<path fill-rule="evenodd" clip-rule="evenodd" d="M18.384 6.15092C18.857 5.86591 19.4716 6.01835 19.7566 6.49141C20.7644 8.16418 21.2006 10.1189 21.0001 12.0605L21.0001 13.0086C20.9991 13.886 21.229 14.7482 21.6667 15.5086C21.9422 15.9872 21.7776 16.5986 21.2989 16.8741C20.8203 17.1497 20.2089 16.985 19.9334 16.5064C19.3207 15.442 18.9988 14.2351 19.0001 13.0069C19.0001 13.0067 19.0001 13.0071 19.0001 13.0069V12.0075C19.0001 11.9711 19.002 11.9347 19.006 11.8985C19.1731 10.3741 18.8349 8.83707 18.0435 7.52354C17.7585 7.05048 17.9109 6.43594 18.384 6.15092Z" fill="#1F2937"/>
<path fill-rule="evenodd" clip-rule="evenodd" d="M12 8.00748C11.2044 8.00748 10.4413 8.32355 9.87868 8.88616C9.31607 9.44877 9 10.2118 9 11.0075C9 11.5598 8.55228 12.0075 8 12.0075C7.44772 12.0075 7 11.5598 7 11.0075C7 9.68139 7.52678 8.40962 8.46447 7.47194C9.40215 6.53426 10.6739 6.00748 12 6.00748C13.3261 6.00748 14.5979 6.53426 15.5355 7.47194C16.4732 8.40962 17 9.68139 17 11.0075V12.0075C17 13.9548 17.6316 15.8496 18.8 17.4075C19.1314 17.8493 19.0418 18.4761 18.6 18.8075C18.1582 19.1388 17.5314 19.0493 17.2 18.6075C15.772 16.7034 15 14.3875 15 12.0075V11.0075C15 10.2118 14.6839 9.44877 14.1213 8.88616C13.5587 8.32355 12.7956 8.00748 12 8.00748Z" fill="#1F2937"/>
<path fill-rule="evenodd" clip-rule="evenodd" d="M12 9.99252C12.5523 9.99252 13 10.4402 13 10.9925L13 12.9936C12.997 15.6488 13.8072 18.2412 15.3214 20.4222C15.6364 20.8759 15.524 21.499 15.0703 21.814C14.6167 22.1289 13.9936 22.0165 13.6786 21.5628C11.9315 19.0464 10.9967 16.0554 11 12.992C11 12.9918 11 12.9922 11 12.992V10.9925C11 10.4402 11.4477 9.99252 12 9.99252Z" fill="#1F2937"/>
<path fill-rule="evenodd" clip-rule="evenodd" d="M7.8838 14.0068C8.43234 13.9426 8.92908 14.3352 8.99331 14.8837C9.22442 16.8574 9.7998 18.7754 10.6933 20.5504C10.9416 21.0437 10.743 21.6449 10.2497 21.8932C9.75642 22.1415 9.15521 21.9429 8.90688 21.4496C7.90825 19.4658 7.26518 17.3222 7.00688 15.1163C6.94265 14.5678 7.33526 14.071 7.8838 14.0068Z" fill="#1F2937"/>
<path fill-rule="evenodd" clip-rule="evenodd" d="M15.4999 4.91416C14.4344 4.29896 13.2255 3.97549 11.9952 3.97632C10.7648 3.97715 9.55636 4.30227 8.49166 4.91891C7.42696 5.53555 6.5436 6.42192 5.93059 7.48872C5.31758 8.55551 4.99658 9.76503 4.99993 10.9954L4.99994 10.9981L4.99994 11.9981C4.99994 12.0092 4.99975 12.0203 4.99938 12.0314C4.9243 14.2903 5.21439 16.5466 5.85848 18.7132C6.01586 19.2426 5.71428 19.7993 5.1849 19.9567C4.65551 20.1141 4.09878 19.8125 3.9414 19.2831C3.23757 16.9156 2.91969 14.4502 2.99994 11.9817V10.9994C2.99587 9.41802 3.40858 7.86344 4.1965 6.49226C4.98465 5.12067 6.1204 3.98104 7.4893 3.18822C8.8582 2.3954 10.4119 1.97739 11.9938 1.97632C13.5757 1.97525 15.13 2.39115 16.4999 3.18211C16.9782 3.45825 17.1421 4.06984 16.866 4.54814C16.5898 5.02643 15.9782 5.1903 15.4999 4.91416Z" fill="#1F2937"/>
</svg>
