<svg width="24" height="24" viewBox="0 0 24 24" fill="none" xmlns="http://www.w3.org/2000/svg">
<path fill-rule="evenodd" clip-rule="evenodd" d="M5 16C4.44772 16 4 16.4477 4 17C4 17.5523 4.44772 18 5 18C5.55228 18 6 17.5523 6 17C6 16.4477 5.55228 16 5 16ZM2 17C2 15.3431 3.34315 14 5 14C6.65685 14 8 15.3431 8 17C8 18.6569 6.65685 20 5 20C3.34315 20 2 18.6569 2 17Z" fill="#1F2937"/>
<path fill-rule="evenodd" clip-rule="evenodd" d="M17 16C16.4477 16 16 16.4477 16 17C16 17.5523 16.4477 18 17 18C17.5523 18 18 17.5523 18 17C18 16.4477 17.5523 16 17 16ZM14 17C14 15.3431 15.3431 14 17 14C18.6569 14 20 15.3431 20 17C20 18.6569 18.6569 20 17 20C15.3431 20 14 18.6569 14 17Z" fill="#1F2937"/>
<path fill-rule="evenodd" clip-rule="evenodd" d="M14.1977 6.41058C14.3864 6.15697 14.6839 6.00751 15 6.00751H16C17.5913 6.00751 19.1174 6.63965 20.2426 7.76487C21.3679 8.89008 22 10.4162 22 12.0075V18.0075C22 18.5598 21.5523 19.0075 21 19.0075H19C18.4477 19.0075 18 18.5598 18 18.0075C18 17.4552 18.4477 17.0075 19 17.0075H20V13.0075H16.5C16.0584 13.0075 15.6691 12.7178 15.5422 12.2949L14.0422 7.29486C13.9513 6.99208 14.009 6.66419 14.1977 6.41058ZM19.873 11.0075C19.6958 10.3215 19.338 9.68862 18.8284 9.17908C18.1609 8.51154 17.2817 8.10431 16.3486 8.02272L17.244 11.0075H19.873ZM6 18.0075C6 17.4552 6.44772 17.0075 7 17.0075H15C15.5523 17.0075 16 17.4552 16 18.0075C16 18.5598 15.5523 19.0075 15 19.0075H7C6.44772 19.0075 6 18.5598 6 18.0075Z" fill="#1F2937"/>
<path fill-rule="evenodd" clip-rule="evenodd" d="M11 7.00751C11 6.45522 11.4477 6.00751 12 6.00751H15C15.5523 6.00751 16 6.45522 16 7.00751C16 7.55979 15.5523 8.00751 15 8.00751H13V18.0075C13 18.5598 12.5523 19.0075 12 19.0075C11.4477 19.0075 11 18.5598 11 18.0075V7.00751Z" fill="#1F2937"/>
<path fill-rule="evenodd" clip-rule="evenodd" d="M2 12C2 11.4477 2.44772 11 3 11H12C12.5523 11 13 11.4477 13 12C13 12.5523 12.5523 13 12 13H4V17C4 17.5523 3.55228 18 3 18C2.44772 18 2 17.5523 2 17V12Z" fill="#1F2937"/>
<path fill-rule="evenodd" clip-rule="evenodd" d="M21.9485 2.6838C22.1231 3.20774 21.84 3.77406 21.316 3.94871L3.31601 9.94871C2.79207 10.1234 2.22575 9.8402 2.0511 9.31626C1.87645 8.79231 2.15961 8.22599 2.68356 8.05134L20.6836 2.05134C21.2075 1.8767 21.7738 2.15986 21.9485 2.6838Z" fill="#1F2937"/>
<path fill-rule="evenodd" clip-rule="evenodd" d="M6 6.99249C6.55228 6.99249 7 7.44021 7 7.99249V11.9925C7 12.5448 6.55228 12.9925 6 12.9925C5.44772 12.9925 5 12.5448 5 11.9925V7.99249C5 7.44021 5.44772 6.99249 6 6.99249Z" fill="#1F2937"/>
</svg>
