<svg width="24" height="24" viewBox="0 0 24 24" fill="none" xmlns="http://www.w3.org/2000/svg">
<path fill-rule="evenodd" clip-rule="evenodd" d="M5 3.99249C5.55228 3.99249 6 4.44021 6 4.99249V20.9925C6 21.5448 5.55228 21.9925 5 21.9925C4.44772 21.9925 4 21.5448 4 20.9925V4.99249C4 4.44021 4.44772 3.99249 5 3.99249Z" fill="#1F2937"/>
<path fill-rule="evenodd" clip-rule="evenodd" d="M19 3.99249C19.5523 3.99249 20 4.44021 20 4.99249V13.9925C20 14.5448 19.5523 14.9925 19 14.9925C18.4477 14.9925 18 14.5448 18 13.9925V4.99249C18 4.44021 18.4477 3.99249 19 3.99249Z" fill="#1F2937"/>
<path fill-rule="evenodd" clip-rule="evenodd" d="M8.5 4.58569C7.45299 4.58569 6.44772 4.99621 5.7 5.72912C5.30559 6.11572 4.67246 6.10939 4.28586 5.71498C3.89926 5.32057 3.90559 4.68743 4.3 4.30083C5.42157 3.20147 6.92948 2.58569 8.5 2.58569C10.0705 2.58569 11.5784 3.20147 12.7 4.30083C13.4477 5.03374 14.453 5.44426 15.5 5.44426C16.547 5.44426 17.5523 5.03374 18.3 4.30083C18.6944 3.91423 19.3275 3.92057 19.7141 4.31498C20.1007 4.70939 20.0944 5.34252 19.7 5.72912C18.5784 6.82848 17.0705 7.44426 15.5 7.44426C13.9295 7.44426 12.4216 6.82848 11.3 5.72912C10.5523 4.99621 9.54701 4.58569 8.5 4.58569Z" fill="#1F2937"/>
<path fill-rule="evenodd" clip-rule="evenodd" d="M8.5 13.5857C7.45299 13.5857 6.44772 13.9962 5.7 14.7291C5.30559 15.1157 4.67246 15.1094 4.28586 14.715C3.89926 14.3206 3.90559 13.6874 4.3 13.3008C5.42157 12.2015 6.92948 11.5857 8.5 11.5857C10.0705 11.5857 11.5784 12.2015 12.7 13.3008C13.4477 14.0337 14.453 14.4443 15.5 14.4443C16.547 14.4443 17.5523 14.0337 18.3 13.3008C18.6944 12.9142 19.3275 12.9206 19.7141 13.315C20.1007 13.7094 20.0944 14.3425 19.7 14.7291C18.5784 15.8285 17.0705 16.4443 15.5 16.4443C13.9295 16.4443 12.4216 15.8285 11.3 14.7291C10.5523 13.9962 9.54701 13.5857 8.5 13.5857Z" fill="#1F2937"/>
</svg>
