<svg width="24" height="24" viewBox="0 0 24 24" fill="none" xmlns="http://www.w3.org/2000/svg">
<path fill-rule="evenodd" clip-rule="evenodd" d="M8 3C8 2.44772 8.44772 2 9 2H15C15.5523 2 16 2.44772 16 3C16 3.55228 15.5523 4 15 4H9C8.44772 4 8 3.55228 8 3Z" fill="#1F2937"/>
<path fill-rule="evenodd" clip-rule="evenodd" d="M9 9C9 8.44772 9.44772 8 10 8H14C14.5523 8 15 8.44772 15 9C15 9.55228 14.5523 10 14 10H10C9.44772 10 9 9.55228 9 9Z" fill="#1F2937"/>
<path fill-rule="evenodd" clip-rule="evenodd" d="M9.99993 2C10.5522 2 10.9999 2.44772 10.9999 3V9C10.9999 9.11655 10.9796 9.23221 10.9397 9.34174L7.06399 20H16.9359L13.0601 9.34174C13.0203 9.23221 12.9999 9.11655 12.9999 9V3C12.9999 2.44772 13.4476 2 13.9999 2C14.5522 2 14.9999 2.44772 14.9999 3V8.82382L18.9247 19.6169C19.0227 19.8358 19.0734 20.0732 19.0731 20.3136C19.0728 20.5768 19.0114 20.8364 18.8936 21.0718C18.7759 21.3073 18.6051 21.5122 18.3947 21.6704C18.1843 21.8286 17.94 21.9358 17.6811 21.9834C17.6213 21.9945 17.5607 22 17.4999 22H6.49993C6.43916 22 6.37851 21.9945 6.31874 21.9834C6.05985 21.9358 5.81558 21.8286 5.60517 21.6704C5.39476 21.5122 5.22396 21.3073 5.10623 21.0718C4.9885 20.8364 4.92707 20.5768 4.92676 20.3136C4.92648 20.0732 4.97717 19.8358 5.07517 19.6169L8.99993 8.82383V3C8.99993 2.44772 9.44764 2 9.99993 2Z" fill="#1F2937"/>
</svg>
