<svg width="24" height="24" viewBox="0 0 24 24" fill="none" xmlns="http://www.w3.org/2000/svg">
<path fill-rule="evenodd" clip-rule="evenodd" d="M2 12C2 11.4477 2.44772 11 3 11H21C21.5523 11 22 11.4477 22 12C22 12.5523 21.5523 13 21 13H3C2.44772 13 2 12.5523 2 12Z" fill="#1F2937"/>
<path fill-rule="evenodd" clip-rule="evenodd" d="M6 16.0074C6 15.4552 6.44772 15.0074 7 15.0074H17C17.4638 15.0074 17.8667 15.3263 17.9732 15.7777C18.0798 16.2291 17.862 16.6945 17.4472 16.9019L7.44721 21.9019C7.13723 22.0569 6.76909 22.0403 6.47427 21.8581C6.17945 21.6759 6 21.354 6 21.0074V16.0074ZM8 17.0074V19.3894L12.7639 17.0074H8Z" fill="#1F2937"/>
<path fill-rule="evenodd" clip-rule="evenodd" d="M6.47427 2.14935C6.76909 1.96714 7.13723 1.95058 7.44721 2.10557L17.4472 7.10557C17.862 7.31298 18.0798 7.77838 17.9732 8.22975C17.8667 8.68112 17.4638 9 17 9H7C6.44772 9 6 8.55229 6 8V3C6 2.65342 6.17945 2.33156 6.47427 2.14935ZM8 4.61804V7H12.7639L8 4.61804Z" fill="#1F2937"/>
</svg>
