<svg width="24" height="24" viewBox="0 0 24 24" fill="none" xmlns="http://www.w3.org/2000/svg">
<path fill-rule="evenodd" clip-rule="evenodd" d="M12 2C12.5523 2 13 2.44772 13 3V21C13 21.5523 12.5523 22 12 22C11.4477 22 11 21.5523 11 21V3C11 2.44772 11.4477 2 12 2Z" fill="#1F2937"/>
<path fill-rule="evenodd" clip-rule="evenodd" d="M15.7702 6.0343C16.2216 5.92774 16.687 6.14552 16.8944 6.56033L21.8944 16.5603C22.0494 16.8703 22.0329 17.2385 21.8507 17.5333C21.6684 17.8281 21.3466 18.0075 21 18.0075H16C15.4477 18.0075 15 17.5598 15 17.0075V7.00754C15 6.54377 15.3189 6.14085 15.7702 6.0343ZM17 11.2436V16.0075H19.382L17 11.2436Z" fill="#1F2937"/>
<path fill-rule="evenodd" clip-rule="evenodd" d="M8.22975 6.0343C8.68112 6.14085 9 6.54377 9 7.00754V17.0075C9 17.5598 8.55229 18.0075 8 18.0075H3C2.65342 18.0075 2.33156 17.8281 2.14935 17.5333C1.96714 17.2385 1.95058 16.8703 2.10557 16.5603L7.10557 6.56033C7.31298 6.14552 7.77838 5.92774 8.22975 6.0343ZM4.61803 16.0075H7V11.2436L4.61803 16.0075Z" fill="#1F2937"/>
</svg>
