<svg width="24" height="24" viewBox="0 0 24 24" fill="none" xmlns="http://www.w3.org/2000/svg">
<path fill-rule="evenodd" clip-rule="evenodd" d="M3 5.99255C3 4.88798 3.89543 3.99255 5 3.99255H9C10.1046 3.99255 11 4.88798 11 5.99255V9.99255C11 11.0971 10.1046 11.9926 9 11.9926H5C3.89543 11.9926 3 11.0971 3 9.99255V5.99255ZM9 5.99255H5V9.99255H9V5.99255Z" fill="#1F2937"/>
<path fill-rule="evenodd" clip-rule="evenodd" d="M13 7.00745C13 6.45516 13.4477 6.00745 14 6.00745H20C20.5523 6.00745 21 6.45516 21 7.00745C21 7.55973 20.5523 8.00745 20 8.00745H14C13.4477 8.00745 13 7.55973 13 7.00745Z" fill="#1F2937"/>
<path fill-rule="evenodd" clip-rule="evenodd" d="M13 10.9926C13 10.4403 13.4477 9.99255 14 9.99255H20C20.5523 9.99255 21 10.4403 21 10.9926C21 11.5448 20.5523 11.9926 20 11.9926H14C13.4477 11.9926 13 11.5448 13 10.9926Z" fill="#1F2937"/>
<path fill-rule="evenodd" clip-rule="evenodd" d="M3 15C3 14.4477 3.44772 14 4 14H20C20.5523 14 21 14.4477 21 15C21 15.5523 20.5523 16 20 16H4C3.44772 16 3 15.5523 3 15Z" fill="#1F2937"/>
<path fill-rule="evenodd" clip-rule="evenodd" d="M3 19.0074C3 18.4552 3.44772 18.0074 4 18.0074H20C20.5523 18.0074 21 18.4552 21 19.0074C21 19.5597 20.5523 20.0074 20 20.0074H4C3.44772 20.0074 3 19.5597 3 19.0074Z" fill="#1F2937"/>
</svg>
