<svg width="24" height="24" viewBox="0 0 24 24" fill="none" xmlns="http://www.w3.org/2000/svg">
<path fill-rule="evenodd" clip-rule="evenodd" d="M8 5.99255C8 4.88798 8.89543 3.99255 10 3.99255H14C15.1046 3.99255 16 4.88798 16 5.99255V9.99255C16 11.0971 15.1046 11.9926 14 11.9926H10C8.89543 11.9926 8 11.0971 8 9.99255V5.99255ZM14 5.99255H10V9.99255H14V5.99255Z" fill="#1F2937"/>
<path fill-rule="evenodd" clip-rule="evenodd" d="M3 7.00745C3 6.45516 3.44772 6.00745 4 6.00745H5C5.55228 6.00745 6 6.45516 6 7.00745C6 7.55973 5.55228 8.00745 5 8.00745H4C3.44772 8.00745 3 7.55973 3 7.00745Z" fill="#1F2937"/>
<path fill-rule="evenodd" clip-rule="evenodd" d="M3 10.9926C3 10.4403 3.44772 9.99255 4 9.99255H5C5.55228 9.99255 6 10.4403 6 10.9926C6 11.5448 5.55228 11.9926 5 11.9926H4C3.44772 11.9926 3 11.5448 3 10.9926Z" fill="#1F2937"/>
<path fill-rule="evenodd" clip-rule="evenodd" d="M18 7.00745C18 6.45516 18.4477 6.00745 19 6.00745H20C20.5523 6.00745 21 6.45516 21 7.00745C21 7.55973 20.5523 8.00745 20 8.00745H19C18.4477 8.00745 18 7.55973 18 7.00745Z" fill="#1F2937"/>
<path fill-rule="evenodd" clip-rule="evenodd" d="M18 10.9926C18 10.4403 18.4477 9.99255 19 9.99255H20C20.5523 9.99255 21 10.4403 21 10.9926C21 11.5448 20.5523 11.9926 20 11.9926H19C18.4477 11.9926 18 11.5448 18 10.9926Z" fill="#1F2937"/>
<path fill-rule="evenodd" clip-rule="evenodd" d="M3 15C3 14.4477 3.44772 14 4 14H20C20.5523 14 21 14.4477 21 15C21 15.5523 20.5523 16 20 16H4C3.44772 16 3 15.5523 3 15Z" fill="#1F2937"/>
<path fill-rule="evenodd" clip-rule="evenodd" d="M3 19.0074C3 18.4552 3.44772 18.0074 4 18.0074H20C20.5523 18.0074 21 18.4552 21 19.0074C21 19.5597 20.5523 20.0074 20 20.0074H4C3.44772 20.0074 3 19.5597 3 19.0074Z" fill="#1F2937"/>
</svg>
