<svg width="24" height="24" viewBox="0 0 24 24" fill="none" xmlns="http://www.w3.org/2000/svg">
<path fill-rule="evenodd" clip-rule="evenodd" d="M13 5.99255C13 4.88798 13.8954 3.99255 15 3.99255H19C20.1046 3.99255 21 4.88798 21 5.99255V9.99255C21 11.0971 20.1046 11.9926 19 11.9926H15C13.8954 11.9926 13 11.0971 13 9.99255V5.99255ZM19 5.99255H15V9.99255H19V5.99255Z" fill="#1F2937"/>
<path fill-rule="evenodd" clip-rule="evenodd" d="M3 7.00745C3 6.45516 3.44772 6.00745 4 6.00745H10C10.5523 6.00745 11 6.45516 11 7.00745C11 7.55973 10.5523 8.00745 10 8.00745H4C3.44772 8.00745 3 7.55973 3 7.00745Z" fill="#1F2937"/>
<path fill-rule="evenodd" clip-rule="evenodd" d="M3 10.9926C3 10.4403 3.44772 9.99255 4 9.99255H10C10.5523 9.99255 11 10.4403 11 10.9926C11 11.5448 10.5523 11.9926 10 11.9926H4C3.44772 11.9926 3 11.5448 3 10.9926Z" fill="#1F2937"/>
<path fill-rule="evenodd" clip-rule="evenodd" d="M3 15C3 14.4477 3.44772 14 4 14H20C20.5523 14 21 14.4477 21 15C21 15.5523 20.5523 16 20 16H4C3.44772 16 3 15.5523 3 15Z" fill="#1F2937"/>
<path fill-rule="evenodd" clip-rule="evenodd" d="M3 19.0074C3 18.4552 3.44772 18.0074 4 18.0074H20C20.5523 18.0074 21 18.4552 21 19.0074C21 19.5597 20.5523 20.0074 20 20.0074H4C3.44772 20.0074 3 19.5597 3 19.0074Z" fill="#1F2937"/>
</svg>
