<svg width="24" height="24" viewBox="0 0 24 24" fill="none" xmlns="http://www.w3.org/2000/svg">
<path fill-rule="evenodd" clip-rule="evenodd" d="M6 5.00751C5.73478 5.00751 5.48043 5.11286 5.29289 5.3004C5.10536 5.48794 5 5.74229 5 6.00751V18.0075C5 18.2727 5.10536 18.5271 5.29289 18.7146C5.48043 18.9022 5.73478 19.0075 6 19.0075H18C18.2652 19.0075 18.5196 18.9022 18.7071 18.7146C18.8946 18.5271 19 18.2727 19 18.0075V9.42172L14.5858 5.00751H6ZM3.87868 3.88619C4.44129 3.32358 5.20435 3.00751 6 3.00751H15C15.2652 3.00751 15.5196 3.11286 15.7071 3.3004L20.7071 8.3004C20.8946 8.48794 21 8.74229 21 9.00751V18.0075C21 18.8032 20.6839 19.5662 20.1213 20.1288C19.5587 20.6914 18.7957 21.0075 18 21.0075H6C5.20435 21.0075 4.44129 20.6914 3.87868 20.1288C3.31607 19.5662 3 18.8032 3 18.0075V6.00751C3 5.21186 3.31607 4.4488 3.87868 3.88619Z" fill="#1F2937"/>
<path fill-rule="evenodd" clip-rule="evenodd" d="M12 11.9925C11.4477 11.9925 11 12.4402 11 12.9925C11 13.5448 11.4477 13.9925 12 13.9925C12.5523 13.9925 13 13.5448 13 12.9925C13 12.4402 12.5523 11.9925 12 11.9925ZM9 12.9925C9 11.3356 10.3431 9.99249 12 9.99249C13.6569 9.99249 15 11.3356 15 12.9925C15 14.6493 13.6569 15.9925 12 15.9925C10.3431 15.9925 9 14.6493 9 12.9925Z" fill="#1F2937"/>
<path fill-rule="evenodd" clip-rule="evenodd" d="M10 3.00751C10.5523 3.00751 11 3.45522 11 4.00751V8.00751C11 8.55979 10.5523 9.00751 10 9.00751H4C3.44772 9.00751 3 8.55979 3 8.00751C3 7.45522 3.44772 7.00751 4 7.00751H9V4.00751C9 3.45522 9.44772 3.00751 10 3.00751Z" fill="#1F2937"/>
</svg>
