<svg width="24" height="24" viewBox="0 0 24 24" fill="none" xmlns="http://www.w3.org/2000/svg">
<path d="M12 12.5075C12.2761 12.5075 12.5 12.2836 12.5 12.0075C12.5 11.7314 12.2761 11.5075 12 11.5075C11.7239 11.5075 11.5 11.7314 11.5 12.0075C11.5 12.2836 11.7239 12.5075 12 12.5075Z" fill="#1F2937"/>
<path fill-rule="evenodd" clip-rule="evenodd" d="M12 12.5075C12.2761 12.5075 12.5 12.2837 12.5 12.0075C12.5 11.7314 12.2761 11.5075 12 11.5075C11.7239 11.5075 11.5 11.7314 11.5 12.0075C11.5 12.2837 11.7239 12.5075 12 12.5075ZM10.5 12.0075C10.5 11.1791 11.1716 10.5075 12 10.5075C12.8284 10.5075 13.5 11.1791 13.5 12.0075C13.5 12.8359 12.8284 13.5075 12 13.5075C11.1716 13.5075 10.5 12.8359 10.5 12.0075Z" fill="#1F2937"/>
<path fill-rule="evenodd" clip-rule="evenodd" d="M12 5.99249C8.68629 5.99249 6 8.67878 6 11.9925C6 15.3062 8.68629 17.9925 12 17.9925C15.3137 17.9925 18 15.3062 18 11.9925C18 8.67878 15.3137 5.99249 12 5.99249ZM4 11.9925C4 7.57421 7.58172 3.99249 12 3.99249C16.4183 3.99249 20 7.57421 20 11.9925C20 16.4108 16.4183 19.9925 12 19.9925C7.58172 19.9925 4 16.4108 4 11.9925Z" fill="#1F2937"/>
<path fill-rule="evenodd" clip-rule="evenodd" d="M12 2C12.5523 2 13 2.44772 13 3V5C13 5.55228 12.5523 6 12 6C11.4477 6 11 5.55228 11 5V3C11 2.44772 11.4477 2 12 2Z" fill="#1F2937"/>
<path fill-rule="evenodd" clip-rule="evenodd" d="M2 12C2 11.4477 2.44772 11 3 11H5C5.55228 11 6 11.4477 6 12C6 12.5523 5.55228 13 5 13H3C2.44772 13 2 12.5523 2 12Z" fill="#1F2937"/>
<path fill-rule="evenodd" clip-rule="evenodd" d="M12 18.0075C12.5523 18.0075 13 18.4552 13 19.0075V21.0075C13 21.5598 12.5523 22.0075 12 22.0075C11.4477 22.0075 11 21.5598 11 21.0075V19.0075C11 18.4552 11.4477 18.0075 12 18.0075Z" fill="#1F2937"/>
<path fill-rule="evenodd" clip-rule="evenodd" d="M18 12C18 11.4477 18.4477 11 19 11H21C21.5523 11 22 11.4477 22 12C22 12.5523 21.5523 13 21 13H19C18.4477 13 18 12.5523 18 12Z" fill="#1F2937"/>
</svg>
