<svg width="24" height="24" viewBox="0 0 24 24" fill="none" xmlns="http://www.w3.org/2000/svg">
<path fill-rule="evenodd" clip-rule="evenodd" d="M9 5.00749C8.73478 5.00749 8.48043 5.11285 8.29289 5.30039C8.10536 5.48792 8 5.74228 8 6.00749V15.0075C8 15.2727 8.10536 15.5271 8.29289 15.7146C8.48043 15.9021 8.73478 16.0075 9 16.0075H19C19.2652 16.0075 19.5196 15.9021 19.7071 15.7146C19.8946 15.5271 20 15.2727 20 15.0075V8.00749C20 7.74228 19.8946 7.48792 19.7071 7.30039C19.5196 7.11285 19.2652 7.00749 19 7.00749H14C13.7348 7.00749 13.4804 6.90214 13.2929 6.7146L11.5858 5.00749H9ZM6.87868 3.88617C7.44129 3.32356 8.20435 3.00749 9 3.00749H12C12.2652 3.00749 12.5196 3.11285 12.7071 3.30039L14.4142 5.00749H19C19.7956 5.00749 20.5587 5.32356 21.1213 5.88617C21.6839 6.44878 22 7.21184 22 8.00749V15.0075C22 15.8031 21.6839 16.5662 21.1213 17.1288C20.5587 17.6914 19.7957 18.0075 19 18.0075H9C8.20435 18.0075 7.44129 17.6914 6.87868 17.1288C6.31607 16.5662 6 15.8031 6 15.0075V6.00749C6 5.21184 6.31607 4.44878 6.87868 3.88617Z" fill="#1F2937"/>
<path fill-rule="evenodd" clip-rule="evenodd" d="M5 8.99251C4.73478 8.99251 4.48043 9.09786 4.29289 9.2854C4.10536 9.47294 4 9.72729 4 9.99251V18.9925C4 19.2577 4.10536 19.5121 4.29289 19.6996C4.48043 19.8872 4.73478 19.9925 5 19.9925H15C15.2652 19.9925 15.5196 19.8872 15.7071 19.6996C15.8946 19.5121 16 19.2577 16 18.9925V16.9925C16 16.4402 16.4477 15.9925 17 15.9925C17.5523 15.9925 18 16.4402 18 16.9925V18.9925C18 19.7882 17.6839 20.5512 17.1213 21.1138C16.5587 21.6764 15.7957 21.9925 15 21.9925H5C4.20435 21.9925 3.44129 21.6764 2.87868 21.1138C2.31607 20.5512 2 19.7882 2 18.9925V9.99251C2 9.19686 2.31607 8.4338 2.87868 7.87119C3.44129 7.30858 4.20435 6.99251 5 6.99251H7C7.55228 6.99251 8 7.44022 8 7.99251C8 8.54479 7.55228 8.99251 7 8.99251H5Z" fill="#1F2937"/>
</svg>
