<svg width="24" height="24" viewBox="0 0 24 24" fill="none" xmlns="http://www.w3.org/2000/svg">
<path fill-rule="evenodd" clip-rule="evenodd" d="M5 16C4.44772 16 4 16.4477 4 17C4 17.5523 4.44772 18 5 18C5.55228 18 6 17.5523 6 17C6 16.4477 5.55228 16 5 16ZM2 17C2 15.3431 3.34315 14 5 14C6.65685 14 8 15.3431 8 17C8 18.6569 6.65685 20 5 20C3.34315 20 2 18.6569 2 17Z" fill="#1F2937"/>
<path fill-rule="evenodd" clip-rule="evenodd" d="M14 16C13.4477 16 13 16.4477 13 17C13 17.5523 13.4477 18 14 18C14.5523 18 15 17.5523 15 17C15 16.4477 14.5523 16 14 16ZM11 17C11 15.3431 12.3431 14 14 14C15.6569 14 17 15.3431 17 17C17 18.6569 15.6569 20 14 20C12.3431 20 11 18.6569 11 17Z" fill="#1F2937"/>
<path fill-rule="evenodd" clip-rule="evenodd" d="M6 16.9925C6 16.4402 6.44772 15.9925 7 15.9925H12C12.5523 15.9925 13 16.4402 13 16.9925C13 17.5448 12.5523 17.9925 12 17.9925H7C6.44772 17.9925 6 17.5448 6 16.9925Z" fill="#1F2937"/>
<path fill-rule="evenodd" clip-rule="evenodd" d="M2 10.9925C2 10.4402 2.44772 9.99249 3 9.99249H16C16.5523 9.99249 17 10.4402 17 10.9925V16.9925C17 17.5448 16.5523 17.9925 16 17.9925C15.4477 17.9925 15 17.5448 15 16.9925V11.9925H4V16.9925C4 17.5448 3.55228 17.9925 3 17.9925C2.44772 17.9925 2 17.5448 2 16.9925V10.9925Z" fill="#1F2937"/>
<path fill-rule="evenodd" clip-rule="evenodd" d="M4 7.00751C4 6.45522 4.44772 6.00751 5 6.00751H9C9.55228 6.00751 10 6.45522 10 7.00751C10 7.55979 9.55228 8.00751 9 8.00751H6V11.0075C6 11.5598 5.55228 12.0075 5 12.0075C4.44772 12.0075 4 11.5598 4 11.0075V7.00751Z" fill="#1F2937"/>
<path fill-rule="evenodd" clip-rule="evenodd" d="M8 4.99249C8 4.44021 8.44772 3.99249 9 3.99249H13C13.3788 3.99249 13.725 4.2065 13.8944 4.54528L16.8944 10.5453C17.1414 11.0393 16.9412 11.6399 16.4472 11.8869C15.9532 12.1339 15.3526 11.9337 15.1056 11.4397L12.382 5.99249H10V10.9925C10 11.5448 9.55228 11.9925 9 11.9925C8.44772 11.9925 8 11.5448 8 10.9925V4.99249Z" fill="#1F2937"/>
<path fill-rule="evenodd" clip-rule="evenodd" d="M19 3.99249C19.5523 3.99249 20 4.44021 20 4.99249V13.9925H22C22.5523 13.9925 23 14.4402 23 14.9925C23 15.5448 22.5523 15.9925 22 15.9925H19C18.4477 15.9925 18 15.5448 18 14.9925V4.99249C18 4.44021 18.4477 3.99249 19 3.99249Z" fill="#1F2937"/>
<path fill-rule="evenodd" clip-rule="evenodd" d="M15 13.0075C15 12.4552 15.4477 12.0075 16 12.0075H19C19.5523 12.0075 20 12.4552 20 13.0075C20 13.5598 19.5523 14.0075 19 14.0075H16C15.4477 14.0075 15 13.5598 15 13.0075Z" fill="#1F2937"/>
</svg>
