<svg xmlns="http://www.w3.org/2000/svg" width="24" height="24" viewBox="0 0 24 24" fill="none">
  <path fill-rule="evenodd" clip-rule="evenodd" d="M15.7071 11.2929C16.0976 11.6834 16.0976 12.3166 15.7071 12.7071L7.70711 18.7071C7.42111 18.9931 6.99099 19.0787 6.61732 18.9239C6.24364 18.7691 6 18.4045 6 18V6C6 5.59554 6.24364 5.2309 6.61732 5.07612C6.99099 4.92134 7.42111 5.00689 7.70711 5.29289L15.7071 11.2929ZM8 8.41421V15.5858L13.4 12L8 8.41421Z" fill="#1F2937"/>
  <path fill-rule="evenodd" clip-rule="evenodd" d="M17 5C17.5523 5 18 5.34822 18 5.77778V18.2222C18 18.6518 17.5523 19 17 19C16.4477 19 16 18.6518 16 18.2222V5.77778C16 5.34822 16.4477 5 17 5Z" fill="#1F2937"/>
</svg>