<svg width="24" height="24" viewBox="0 0 24 24" fill="none" xmlns="http://www.w3.org/2000/svg">
<path fill-rule="evenodd" clip-rule="evenodd" d="M3 7.00745C3 6.45516 3.44772 6.00745 4 6.00745H20C20.5523 6.00745 21 6.45516 21 7.00745C21 7.55973 20.5523 8.00745 20 8.00745H4C3.44772 8.00745 3 7.55973 3 7.00745Z" fill="#1F2937"/>
<path fill-rule="evenodd" clip-rule="evenodd" d="M3 16.9926C3 16.4403 3.44772 15.9926 4 15.9926H20C20.5523 15.9926 21 16.4403 21 16.9926C21 17.5448 20.5523 17.9926 20 17.9926H4C3.44772 17.9926 3 17.5448 3 16.9926Z" fill="#1F2937"/>
<path fill-rule="evenodd" clip-rule="evenodd" d="M7 3.00745C7.55228 3.00745 8 3.45516 8 4.00745V20.0074C8 20.5597 7.55228 21.0074 7 21.0074C6.44772 21.0074 6 20.5597 6 20.0074V4.00745C6 3.45516 6.44772 3.00745 7 3.00745Z" fill="#1F2937"/>
<path fill-rule="evenodd" clip-rule="evenodd" d="M17 3.00745C17.5523 3.00745 18 3.45516 18 4.00745V20.0074C18 20.5597 17.5523 21.0074 17 21.0074C16.4477 21.0074 16 20.5597 16 20.0074V4.00745C16 3.45516 16.4477 3.00745 17 3.00745Z" fill="#1F2937"/>
</svg>
