<svg width="24" height="24" viewBox="0 0 24 24" fill="none" xmlns="http://www.w3.org/2000/svg">
<path fill-rule="evenodd" clip-rule="evenodd" d="M5.07615 2.61732C5.23093 2.24364 5.59557 2 6.00003 2H18C18.5523 2 19 2.44772 19 3V9C19 9.55228 18.5523 10 18 10H14.4142L18.7071 14.2929C18.9931 14.5789 19.0787 15.009 18.9239 15.3827C18.7691 15.7564 18.4045 16 18 16H13V21C13 21.4045 12.7564 21.7691 12.3827 21.9239C12.009 22.0787 11.5789 21.9931 11.2929 21.7071L5.29292 15.7071C5.10539 15.5196 5.00003 15.2652 5.00003 15V9C5.00003 8.44772 5.44774 8 6.00003 8H9.58582L5.29292 3.70711C5.00692 3.42111 4.92137 2.99099 5.07615 2.61732ZM12.4142 8H17V4H8.41424L12.4142 8ZM11.5858 10H7.00003V14H15.5858L11.5858 10ZM11 16H8.41424L11 18.5858V16Z" fill="#1F2937"/>
</svg>
