<svg width="24" height="24" viewBox="0 0 24 24" fill="none" xmlns="http://www.w3.org/2000/svg">
<path fill-rule="evenodd" clip-rule="evenodd" d="M7 4C6.44772 4 6 4.44772 6 5C6 5.55228 6.44772 6 7 6C7.55228 6 8 5.55228 8 5C8 4.44772 7.55228 4 7 4ZM4 5C4 3.34315 5.34315 2 7 2C8.65685 2 10 3.34315 10 5C10 6.65685 8.65685 8 7 8C5.34315 8 4 6.65685 4 5Z" fill="#1F2937"/>
<path fill-rule="evenodd" clip-rule="evenodd" d="M3.58579 10.5783C3.96086 10.2032 4.46957 9.99252 5 9.99252H9C9.53043 9.99252 10.0391 10.2032 10.4142 10.5783C10.7893 10.9534 11 11.4621 11 11.9925V15.9925C11 16.2577 10.8946 16.5121 10.7071 16.6996L10 17.4067V21.9925C10 22.5448 9.55228 22.9925 9 22.9925C8.44772 22.9925 8 22.5448 8 21.9925V16.9925C8 16.7273 8.10536 16.473 8.29289 16.2854L9 15.5783V11.9925L5 11.9925L5 15.5783L5.70711 16.2854C5.89464 16.473 6 16.7273 6 16.9925V21.9925C6 22.5448 5.55228 22.9925 5 22.9925C4.44772 22.9925 4 22.5448 4 21.9925V17.4067L3.29289 16.6996C3.10536 16.5121 3 16.2577 3 15.9925V11.9925C3 11.4621 3.21071 10.9534 3.58579 10.5783Z" fill="#1F2937"/>
<path fill-rule="evenodd" clip-rule="evenodd" d="M17 4C16.4477 4 16 4.44772 16 5C16 5.55228 16.4477 6 17 6C17.5523 6 18 5.55228 18 5C18 4.44772 17.5523 4 17 4ZM14 5C14 3.34315 15.3431 2 17 2C18.6569 2 20 3.34315 20 5C20 6.65685 18.6569 8 17 8C15.3431 8 14 6.65685 14 5Z" fill="#1F2937"/>
<path fill-rule="evenodd" clip-rule="evenodd" d="M14.5858 10.5783C14.9609 10.2032 15.4696 9.99252 16 9.99252H18C18.5304 9.99252 19.0391 10.2032 19.4142 10.5783C19.7444 10.9085 19.9473 11.3423 19.991 11.8034L21.9487 17.6763C22.0503 17.9812 21.9992 18.3165 21.8112 18.5772C21.6233 18.838 21.3215 18.9925 21 18.9925H20V21.9925C20 22.5448 19.5523 22.9925 19 22.9925C18.4477 22.9925 18 22.5448 18 21.9925V17.9925C18 17.4402 18.4477 16.9925 19 16.9925H19.6126L18.0513 12.3088C18.0173 12.2068 18 12.1 18 11.9925L16 11.9925C16 12.1 15.9827 12.2068 15.9487 12.3088L14.3874 16.9925H15C15.5523 16.9925 16 17.4402 16 17.9925V21.9925C16 22.5448 15.5523 22.9925 15 22.9925C14.4477 22.9925 14 22.5448 14 21.9925V18.9925H13C12.6786 18.9925 12.3767 18.838 12.1888 18.5772C12.0008 18.3165 11.9497 17.9812 12.0513 17.6763L14.009 11.8034C14.0527 11.3423 14.2556 10.9085 14.5858 10.5783Z" fill="#1F2937"/>
</svg>
