<svg width="24" height="24" viewBox="0 0 24 24" fill="none" xmlns="http://www.w3.org/2000/svg">
<path fill-rule="evenodd" clip-rule="evenodd" d="M12 4C7.58172 4 4 7.58172 4 12C4 16.4183 7.58172 20 12 20C16.4183 20 20 16.4183 20 12C20 7.58172 16.4183 4 12 4ZM2 12C2 6.47715 6.47715 2 12 2C17.5228 2 22 6.47715 22 12C22 17.5228 17.5228 22 12 22C6.47715 22 2 17.5228 2 12Z" fill="#1F2937"/>
<path fill-rule="evenodd" clip-rule="evenodd" d="M10 11.9925C10 10.888 10.8954 9.99252 12 9.99252C13.1046 9.99252 14 10.888 14 11.9925C14 13.0971 13.1046 13.9925 12 13.9925C10.8954 13.9925 10 13.0971 10 11.9925Z" fill="#1F2937"/>
<path fill-rule="evenodd" clip-rule="evenodd" d="M16.7073 7.28542C17.0978 7.67594 17.0978 8.30911 16.7073 8.69963L14.1173 11.2896C13.7267 11.6802 13.0936 11.6802 12.703 11.2896C12.3125 10.8991 12.3125 10.2659 12.703 9.87542L15.293 7.28542C15.6836 6.89489 16.3167 6.89489 16.7073 7.28542Z" fill="#1F2937"/>
<path fill-rule="evenodd" clip-rule="evenodd" d="M12 8.00748C10.9391 8.00748 9.92172 8.4289 9.17157 9.17905C8.42143 9.9292 8 10.9466 8 12.0075C8 12.5598 7.55228 13.0075 7 13.0075C6.44772 13.0075 6 12.5598 6 12.0075C6 10.4162 6.63214 8.89006 7.75736 7.76484C8.88258 6.63962 10.4087 6.00748 12 6.00748C12.5523 6.00748 13 6.45519 13 7.00748C13 7.55976 12.5523 8.00748 12 8.00748Z" fill="#1F2937"/>
</svg>
