<svg width="24" height="24" viewBox="0 0 24 24" fill="none" xmlns="http://www.w3.org/2000/svg">
<path fill-rule="evenodd" clip-rule="evenodd" d="M12.0001 5.00748C10.4088 5.00748 8.88272 5.63962 7.7575 6.76484C6.63228 7.89005 6.00014 9.41618 6.00014 11.0075V18.0075C6.00014 18.049 5.99755 18.0906 5.99238 18.1318C5.97166 18.2972 6.00446 18.4648 6.08596 18.6102C6.16747 18.7556 6.2934 18.871 6.44529 18.9396C6.59719 19.0082 6.76706 19.0264 6.93002 18.9914C7.08622 18.9579 7.22819 18.8772 7.33689 18.7606C7.58097 18.4578 7.88883 18.2123 8.23871 18.0417C8.60048 17.8653 8.99766 17.7736 9.40014 17.7736C9.80262 17.7736 10.1998 17.8653 10.5616 18.0417C10.9233 18.2181 11.2402 18.4745 11.488 18.7916C11.5488 18.8694 11.6265 18.9323 11.7153 18.9756C11.804 19.0189 11.9014 19.0414 12.0001 19.0414C12.0989 19.0414 12.1963 19.0189 12.285 18.9756C12.3738 18.9323 12.4515 18.8694 12.5123 18.7916C12.7601 18.4745 13.077 18.2181 13.4387 18.0417C13.8005 17.8653 14.1977 17.7736 14.6001 17.7736C15.0026 17.7736 15.3998 17.8653 15.7616 18.0417C16.1115 18.2123 16.4193 18.4578 16.6634 18.7606C16.7721 18.8772 16.9141 18.9579 17.0703 18.9914C17.2332 19.0264 17.4031 19.0082 17.555 18.9396C17.7069 18.871 17.8328 18.7556 17.9143 18.6102C17.9958 18.4648 18.0286 18.2972 18.0079 18.1318C18.0027 18.0906 18.0001 18.049 18.0001 18.0075V11.0075C18.0001 9.41618 17.368 7.89005 16.2428 6.76484C15.1176 5.63962 13.5914 5.00748 12.0001 5.00748ZM4.00014 11.0075C4.00014 8.88574 4.843 6.85091 6.34329 5.35062C7.84358 3.85033 9.87841 3.00748 12.0001 3.00748C14.1219 3.00748 16.1567 3.85033 17.657 5.35062C19.1573 6.85091 20.0001 8.88574 20.0001 11.0075V17.952C20.0569 18.519 19.938 19.0903 19.6588 19.5883C19.3684 20.1064 18.9195 20.5179 18.3782 20.7624C17.8368 21.0069 17.2313 21.0715 16.6505 20.9469C16.0698 20.8222 15.5442 20.5148 15.1508 20.0697C15.1375 20.0546 15.1246 20.0391 15.1123 20.0233C15.0515 19.9455 14.9738 19.8826 14.885 19.8393C14.7963 19.7961 14.6989 19.7736 14.6001 19.7736C14.5014 19.7736 14.404 19.7961 14.3153 19.8393C14.2265 19.8826 14.1488 19.9455 14.088 20.0233C13.8402 20.3404 13.5233 20.5969 13.1616 20.7733C12.7998 20.9497 12.4026 21.0414 12.0001 21.0414C11.5977 21.0414 11.2005 20.9497 10.8387 20.7733C10.4769 20.5969 10.1601 20.3404 9.91226 20.0233C9.85147 19.9455 9.77376 19.8826 9.68502 19.8393C9.59629 19.7961 9.49886 19.7736 9.40014 19.7736C9.30142 19.7736 9.204 19.7961 9.11526 19.8393C9.02653 19.8826 8.94881 19.9455 8.88802 20.0233C8.87564 20.0391 8.86278 20.0546 8.84947 20.0697C8.45611 20.5148 7.93052 20.8222 7.34973 20.9469C6.76894 21.0715 6.16349 21.0069 5.62212 20.7624C5.08075 20.5179 4.63193 20.1064 4.34143 19.5883C4.06225 19.0903 3.94341 18.519 4.00014 17.952V11.0075Z" fill="#1F2937"/>
<path fill-rule="evenodd" clip-rule="evenodd" d="M9 10.0075C9 9.45519 9.44772 9.00748 10 9.00748H10.01C10.5623 9.00748 11.01 9.45519 11.01 10.0075C11.01 10.5598 10.5623 11.0075 10.01 11.0075H10C9.44772 11.0075 9 10.5598 9 10.0075Z" fill="#1F2937"/>
<path fill-rule="evenodd" clip-rule="evenodd" d="M13 10.0075C13 9.45519 13.4477 9.00748 14 9.00748H14.01C14.5623 9.00748 15.01 9.45519 15.01 10.0075C15.01 10.5598 14.5623 11.0075 14.01 11.0075H14C13.4477 11.0075 13 10.5598 13 10.0075Z" fill="#1F2937"/>
<path fill-rule="evenodd" clip-rule="evenodd" d="M9.17943 13.4211C9.49501 12.9679 10.1183 12.8563 10.5715 13.1719C10.9907 13.4637 11.4893 13.6202 12.0001 13.6202C12.5109 13.6202 13.0095 13.4637 13.4287 13.1719C13.8819 12.8563 14.5052 12.9679 14.8207 13.4211C15.1363 13.8743 15.0247 14.4976 14.5715 14.8132C13.8169 15.3386 12.9195 15.6202 12.0001 15.6202C11.0806 15.6202 10.1832 15.3386 9.42867 14.8132C8.97543 14.4976 8.86384 13.8743 9.17943 13.4211Z" fill="#1F2937"/>
</svg>
