<svg width="24" height="24" viewBox="0 0 24 24" fill="none" xmlns="http://www.w3.org/2000/svg">
<path fill-rule="evenodd" clip-rule="evenodd" d="M2 8.99249C2 7.88792 2.89543 6.99249 4 6.99249H20C21.1046 6.99249 22 7.88792 22 8.99249V10.9925C22 12.0971 21.1046 12.9925 20 12.9925H4C2.89543 12.9925 2 12.0971 2 10.9925V8.99249ZM20 8.99249L4 8.99249V10.9925H20V8.99249Z" fill="#1F2937"/>
<path fill-rule="evenodd" clip-rule="evenodd" d="M12 6.99249C12.5523 6.99249 13 7.44021 13 7.99249V20.9925C13 21.5448 12.5523 21.9925 12 21.9925C11.4477 21.9925 11 21.5448 11 20.9925V7.99249C11 7.44021 11.4477 6.99249 12 6.99249Z" fill="#1F2937"/>
<path fill-rule="evenodd" clip-rule="evenodd" d="M5 11C5.55228 11 6 11.4477 6 12V19C6 19.2652 6.10536 19.5196 6.29289 19.7071C6.48043 19.8946 6.73478 20 7 20H17C17.2652 20 17.5196 19.8946 17.7071 19.7071C17.8946 19.5196 18 19.2652 18 19V12C18 11.4477 18.4477 11 19 11C19.5523 11 20 11.4477 20 12V19C20 19.7957 19.6839 20.5587 19.1213 21.1213C18.5587 21.6839 17.7957 22 17 22H7C6.20435 22 5.44129 21.6839 4.87868 21.1213C4.31607 20.5587 4 19.7956 4 19V12C4 11.4477 4.44772 11 5 11Z" fill="#1F2937"/>
<path fill-rule="evenodd" clip-rule="evenodd" d="M9.46944 5.01214C8.80934 4.27869 8.12408 3.9893 7.51742 3.99987L7.5 4.00002C7.10218 4.00002 6.72065 4.15805 6.43934 4.43936C6.15804 4.72066 6 5.1022 6 5.50002C6 5.89785 6.15804 6.27938 6.43934 6.56069C6.72065 6.84199 7.10218 7.00003 7.5 7.00003C8.05228 7.00003 8.5 7.44774 8.5 8.00003C8.5 8.55231 8.05228 9.00003 7.5 9.00003C6.57174 9.00003 5.6815 8.63128 5.02513 7.9749C4.36875 7.31852 4 6.42828 4 5.50002C4 4.57176 4.36875 3.68152 5.02513 3.02515C5.67943 2.37084 6.56612 2.00235 7.4912 2.00003C8.81053 1.97993 10.0128 2.62614 10.956 3.67422C11.3497 4.11161 11.6987 4.61784 12 5.17659C12.3013 4.61784 12.6503 4.11161 13.044 3.67422C13.9872 2.62614 15.1895 1.97994 16.5088 2.00003C17.4339 2.00235 18.3206 2.37084 18.9749 3.02515C19.6313 3.68152 20 4.57176 20 5.50002C20 6.42828 19.6313 7.31852 18.9749 7.9749C18.3185 8.63128 17.4283 9.00003 16.5 9.00003C15.9477 9.00003 15.5 8.55231 15.5 8.00003C15.5 7.44774 15.9477 7.00003 16.5 7.00003C16.8978 7.00003 17.2794 6.84199 17.5607 6.56069C17.842 6.27938 18 5.89785 18 5.50002C18 5.1022 17.842 4.72066 17.5607 4.43936C17.2794 4.15805 16.8978 4.00002 16.5 4.00002L16.4826 3.99987C15.8759 3.9893 15.1907 4.27869 14.5306 5.01214C13.8654 5.75125 13.305 6.86262 12.9718 8.23585C12.863 8.68428 12.4614 9.00003 12 9.00003C11.5386 9.00003 11.137 8.68428 11.0282 8.23585C10.695 6.86262 10.1346 5.75125 9.46944 5.01214Z" fill="#1F2937"/>
</svg>
