<svg width="24" height="24" viewBox="0 0 24 24" fill="none" xmlns="http://www.w3.org/2000/svg">
<path fill-rule="evenodd" clip-rule="evenodd" d="M6 5.00751C5.44772 5.00751 5 5.45522 5 6.00751C5 6.55979 5.44772 7.00751 6 7.00751C6.55228 7.00751 7 6.55979 7 6.00751C7 5.45522 6.55228 5.00751 6 5.00751ZM3 6.00751C3 4.35065 4.34315 3.00751 6 3.00751C7.65685 3.00751 9 4.35065 9 6.00751C9 7.66436 7.65685 9.00751 6 9.00751C4.34315 9.00751 3 7.66436 3 6.00751Z" fill="#1F2937"/>
<path fill-rule="evenodd" clip-rule="evenodd" d="M18 17.0075C17.4477 17.0075 17 17.4552 17 18.0075C17 18.5598 17.4477 19.0075 18 19.0075C18.5523 19.0075 19 18.5598 19 18.0075C19 17.4552 18.5523 17.0075 18 17.0075ZM15 18.0075C15 16.3507 16.3431 15.0075 18 15.0075C19.6569 15.0075 21 16.3507 21 18.0075C21 19.6644 19.6569 21.0075 18 21.0075C16.3431 21.0075 15 19.6644 15 18.0075Z" fill="#1F2937"/>
<path fill-rule="evenodd" clip-rule="evenodd" d="M10 6C10 5.44772 10.4477 5 11 5H16C16.7956 5 17.5587 5.31607 18.1213 5.87868C18.6839 6.44129 19 7.20435 19 8V16C19 16.5523 18.5523 17 18 17C17.4477 17 17 16.5523 17 16V8C17 7.73478 16.8946 7.48043 16.7071 7.29289C16.5196 7.10536 16.2652 7 16 7H11C10.4477 7 10 6.55228 10 6Z" fill="#1F2937"/>
<path fill-rule="evenodd" clip-rule="evenodd" d="M14.7071 2.29289C15.0976 2.68342 15.0976 3.31658 14.7071 3.70711L12.4142 6L14.7071 8.29289C15.0976 8.68342 15.0976 9.31658 14.7071 9.70711C14.3166 10.0976 13.6834 10.0976 13.2929 9.70711L10.2929 6.70711C9.90237 6.31658 9.90237 5.68342 10.2929 5.29289L13.2929 2.29289C13.6834 1.90237 14.3166 1.90237 14.7071 2.29289Z" fill="#1F2937"/>
<path fill-rule="evenodd" clip-rule="evenodd" d="M6 6.99249C6.55228 6.99249 7 7.44021 7 7.99249V15.9925C7 16.2577 7.10536 16.5121 7.29289 16.6996C7.48043 16.8871 7.73478 16.9925 8 16.9925H13C13.5523 16.9925 14 17.4402 14 17.9925C14 18.5448 13.5523 18.9925 13 18.9925H8C7.20435 18.9925 6.44129 18.6764 5.87868 18.1138C5.31607 17.5512 5 16.7881 5 15.9925V7.99249C5 7.44021 5.44772 6.99249 6 6.99249Z" fill="#1F2937"/>
<path fill-rule="evenodd" clip-rule="evenodd" d="M9.29289 14.2929C9.68342 13.9024 10.3166 13.9024 10.7071 14.2929L13.7071 17.2929C14.0976 17.6834 14.0976 18.3166 13.7071 18.7071L10.7071 21.7071C10.3166 22.0976 9.68342 22.0976 9.29289 21.7071C8.90237 21.3166 8.90237 20.6834 9.29289 20.2929L11.5858 18L9.29289 15.7071C8.90237 15.3166 8.90237 14.6834 9.29289 14.2929Z" fill="#1F2937"/>
</svg>
