<svg width="24" height="24" viewBox="0 0 24 24" fill="none" xmlns="http://www.w3.org/2000/svg">
<path fill-rule="evenodd" clip-rule="evenodd" d="M12 17.0075C11.4477 17.0075 11 17.4552 11 18.0075C11 18.5598 11.4477 19.0075 12 19.0075C12.5523 19.0075 13 18.5598 13 18.0075C13 17.4552 12.5523 17.0075 12 17.0075ZM9 18.0075C9 16.3507 10.3431 15.0075 12 15.0075C13.6569 15.0075 15 16.3507 15 18.0075C15 19.6644 13.6569 21.0075 12 21.0075C10.3431 21.0075 9 19.6644 9 18.0075Z" fill="#1F2937"/>
<path fill-rule="evenodd" clip-rule="evenodd" d="M7 5.00751C6.44772 5.00751 6 5.45522 6 6.00751C6 6.55979 6.44772 7.00751 7 7.00751C7.55228 7.00751 8 6.55979 8 6.00751C8 5.45522 7.55228 5.00751 7 5.00751ZM4 6.00751C4 4.35065 5.34315 3.00751 7 3.00751C8.65685 3.00751 10 4.35065 10 6.00751C10 7.66436 8.65685 9.00751 7 9.00751C5.34315 9.00751 4 7.66436 4 6.00751Z" fill="#1F2937"/>
<path fill-rule="evenodd" clip-rule="evenodd" d="M17 5.00751C16.4477 5.00751 16 5.45522 16 6.00751C16 6.55979 16.4477 7.00751 17 7.00751C17.5523 7.00751 18 6.55979 18 6.00751C18 5.45522 17.5523 5.00751 17 5.00751ZM14 6.00751C14 4.35065 15.3431 3.00751 17 3.00751C18.6569 3.00751 20 4.35065 20 6.00751C20 7.66436 18.6569 9.00751 17 9.00751C15.3431 9.00751 14 7.66436 14 6.00751Z" fill="#1F2937"/>
<path fill-rule="evenodd" clip-rule="evenodd" d="M7 6.99249C7.55228 6.99249 8 7.44021 8 7.99249V9.99249C8 10.2577 8.10536 10.5121 8.29289 10.6996C8.48043 10.8871 8.73478 10.9925 9 10.9925H15C15.2652 10.9925 15.5196 10.8871 15.7071 10.6996C15.8946 10.5121 16 10.2577 16 9.99249V7.99249C16 7.44021 16.4477 6.99249 17 6.99249C17.5523 6.99249 18 7.44021 18 7.99249V9.99249C18 10.7881 17.6839 11.5512 17.1213 12.1138C16.5587 12.6764 15.7957 12.9925 15 12.9925H9C8.20435 12.9925 7.44129 12.6764 6.87868 12.1138C6.31607 11.5512 6 10.7881 6 9.99249V7.99249C6 7.44021 6.44772 6.99249 7 6.99249Z" fill="#1F2937"/>
<path fill-rule="evenodd" clip-rule="evenodd" d="M12 11C12.5523 11 13 11.4477 13 12V16C13 16.5523 12.5523 17 12 17C11.4477 17 11 16.5523 11 16V12C11 11.4477 11.4477 11 12 11Z" fill="#1F2937"/>
</svg>
