<svg width="24" height="24" viewBox="0 0 24 24" fill="none" xmlns="http://www.w3.org/2000/svg">
<path fill-rule="evenodd" clip-rule="evenodd" d="M7 17.0075C6.44772 17.0075 6 17.4552 6 18.0075C6 18.5598 6.44772 19.0075 7 19.0075C7.55228 19.0075 8 18.5598 8 18.0075C8 17.4552 7.55228 17.0075 7 17.0075ZM4 18.0075C4 16.3507 5.34315 15.0075 7 15.0075C8.65685 15.0075 10 16.3507 10 18.0075C10 19.6644 8.65685 21.0075 7 21.0075C5.34315 21.0075 4 19.6644 4 18.0075Z" fill="#1F2937"/>
<path fill-rule="evenodd" clip-rule="evenodd" d="M7 5.00751C6.44772 5.00751 6 5.45522 6 6.00751C6 6.55979 6.44772 7.00751 7 7.00751C7.55228 7.00751 8 6.55979 8 6.00751C8 5.45522 7.55228 5.00751 7 5.00751ZM4 6.00751C4 4.35065 5.34315 3.00751 7 3.00751C8.65685 3.00751 10 4.35065 10 6.00751C10 7.66436 8.65685 9.00751 7 9.00751C5.34315 9.00751 4 7.66436 4 6.00751Z" fill="#1F2937"/>
<path fill-rule="evenodd" clip-rule="evenodd" d="M17 5.00751C16.4477 5.00751 16 5.45522 16 6.00751C16 6.55979 16.4477 7.00751 17 7.00751C17.5523 7.00751 18 6.55979 18 6.00751C18 5.45522 17.5523 5.00751 17 5.00751ZM14 6.00751C14 4.35065 15.3431 3.00751 17 3.00751C18.6569 3.00751 20 4.35065 20 6.00751C20 7.66436 18.6569 9.00751 17 9.00751C15.3431 9.00751 14 7.66436 14 6.00751Z" fill="#1F2937"/>
<path fill-rule="evenodd" clip-rule="evenodd" d="M7 6.99249C7.55228 6.99249 8 7.44021 8 7.99249V15.9925C8 16.5448 7.55228 16.9925 7 16.9925C6.44772 16.9925 6 16.5448 6 15.9925V7.99249C6 7.44021 6.44772 6.99249 7 6.99249Z" fill="#1F2937"/>
<path fill-rule="evenodd" clip-rule="evenodd" d="M17 9.99249C17.5523 9.99249 18 10.4402 18 10.9925V15.9925C18 16.7881 17.6839 17.5512 17.1213 18.1138C16.5587 18.6764 15.7957 18.9925 15 18.9925H9C8.44772 18.9925 8 18.5448 8 17.9925C8 17.4402 8.44772 16.9925 9 16.9925H15C15.2652 16.9925 15.5196 16.8871 15.7071 16.6996C15.8946 16.5121 16 16.2577 16 15.9925V10.9925C16 10.4402 16.4477 9.99249 17 9.99249Z" fill="#1F2937"/>
<path fill-rule="evenodd" clip-rule="evenodd" d="M16.2929 10.2854C16.6834 9.89486 17.3166 9.89486 17.7071 10.2854L20.7071 13.2854C21.0976 13.6759 21.0976 14.3091 20.7071 14.6996C20.3166 15.0901 19.6834 15.0901 19.2929 14.6996L17 12.4067L14.7071 14.6996C14.3166 15.0901 13.6834 15.0901 13.2929 14.6996C12.9024 14.3091 12.9024 13.6759 13.2929 13.2854L16.2929 10.2854Z" fill="#1F2937"/>
</svg>
