<svg width="24" height="24" viewBox="0 0 24 24" fill="none" xmlns="http://www.w3.org/2000/svg">
<path fill-rule="evenodd" clip-rule="evenodd" d="M7 17.0075C6.44772 17.0075 6 17.4552 6 18.0075C6 18.5598 6.44772 19.0075 7 19.0075C7.55228 19.0075 8 18.5598 8 18.0075C8 17.4552 7.55228 17.0075 7 17.0075ZM4 18.0075C4 16.3507 5.34315 15.0075 7 15.0075C8.65685 15.0075 10 16.3507 10 18.0075C10 19.6644 8.65685 21.0075 7 21.0075C5.34315 21.0075 4 19.6644 4 18.0075Z" fill="#1F2937"/>
<path fill-rule="evenodd" clip-rule="evenodd" d="M7 5.00751C6.44772 5.00751 6 5.45522 6 6.00751C6 6.55979 6.44772 7.00751 7 7.00751C7.55228 7.00751 8 6.55979 8 6.00751C8 5.45522 7.55228 5.00751 7 5.00751ZM4 6.00751C4 4.35065 5.34315 3.00751 7 3.00751C8.65685 3.00751 10 4.35065 10 6.00751C10 7.66436 8.65685 9.00751 7 9.00751C5.34315 9.00751 4 7.66436 4 6.00751Z" fill="#1F2937"/>
<path fill-rule="evenodd" clip-rule="evenodd" d="M17 11.0075C16.4477 11.0075 16 11.4552 16 12.0075C16 12.5598 16.4477 13.0075 17 13.0075C17.5523 13.0075 18 12.5598 18 12.0075C18 11.4552 17.5523 11.0075 17 11.0075ZM14 12.0075C14 10.3507 15.3431 9.00751 17 9.00751C18.6569 9.00751 20 10.3507 20 12.0075C20 13.6644 18.6569 15.0075 17 15.0075C15.3431 15.0075 14 13.6644 14 12.0075Z" fill="#1F2937"/>
<path fill-rule="evenodd" clip-rule="evenodd" d="M7 6.99249C7.55228 6.99249 8 7.44021 8 7.99249V15.9925C8 16.5448 7.55228 16.9925 7 16.9925C6.44772 16.9925 6 16.5448 6 15.9925V7.99249C6 7.44021 6.44772 6.99249 7 6.99249Z" fill="#1F2937"/>
<path fill-rule="evenodd" clip-rule="evenodd" d="M7 6.99249C7.55228 6.99249 8 7.44021 8 7.99249C8 8.78814 8.31607 9.5512 8.87868 10.1138C9.44129 10.6764 10.2044 10.9925 11 10.9925H15C15.5523 10.9925 16 11.4402 16 11.9925C16 12.5448 15.5523 12.9925 15 12.9925H11C9.67392 12.9925 8.40215 12.4657 7.46447 11.528C6.52678 10.5903 6 9.31857 6 7.99249C6 7.44021 6.44772 6.99249 7 6.99249Z" fill="#1F2937"/>
</svg>
