<svg width="20" height="20" viewBox="0 0 20 20" fill="none" xmlns="http://www.w3.org/2000/svg">
<rect x="1.25" y="1.25" width="17.5" height="17.5" rx="4" fill="black"/>
<path d="M7.76237 18.8039C7.69061 18.8215 7.60312 18.8235 7.49749 18.804L7.76237 18.8039C7.97319 18.7523 8.04818 18.567 8.04818 18.4033V16.8519C5.73013 17.356 5.24749 15.8685 5.24749 15.8685C4.86832 14.9053 4.32179 14.6491 4.32179 14.6491C3.56554 14.1317 4.37943 14.1428 4.37943 14.1428C5.21624 14.2012 5.65651 15.0019 5.65651 15.0019C6.39957 16.2755 7.60582 15.9074 8.08151 15.6942C8.15582 15.156 8.37179 14.788 8.61068 14.5803C6.75999 14.3685 4.81415 13.654 4.81415 10.4616C4.81415 9.55117 5.13985 8.80812 5.67249 8.22479C5.58638 8.01437 5.30096 7.16645 5.75374 6.01923C5.75374 6.01923 6.45374 5.79562 8.0461 6.8734C8.71068 6.68868 9.42318 6.59631 10.1315 6.59284C10.8398 6.59631 11.553 6.68868 12.219 6.8734C13.81 5.79562 14.5086 6.01923 14.5086 6.01923C14.9621 7.16715 14.6767 8.01506 14.5905 8.22479C15.1253 8.80812 15.4482 9.55187 15.4482 10.4616C15.4482 13.6623 13.4989 14.3671 11.6433 14.5734C11.9419 14.8317 12.2148 15.3387 12.2148 16.1165V18.4033C12.2148 18.566 12.2868 18.7497 12.4927 18.8033L12.7711 18.8033C12.6589 18.825 12.567 18.8226 12.4927 18.8033L7.76237 18.8039Z" fill="white"/>
</svg>
