<svg width="24" height="24" viewBox="0 0 24 24" fill="none" xmlns="http://www.w3.org/2000/svg">
<path fill-rule="evenodd" clip-rule="evenodd" d="M7 21C7 20.4477 7.44772 20 8 20H16C16.5523 20 17 20.4477 17 21C17 21.5523 16.5523 22 16 22H8C7.44772 22 7 21.5523 7 21Z" fill="#1F2937"/>
<path fill-rule="evenodd" clip-rule="evenodd" d="M12 14C12.5523 14 13 14.4477 13 15V21C13 21.5523 12.5523 22 12 22C11.4477 22 11 21.5523 11 21V15C11 14.4477 11.4477 14 12 14Z" fill="#1F2937"/>
<path fill-rule="evenodd" clip-rule="evenodd" d="M7.01361 3.84311C7.09397 3.36092 7.51116 3.00751 8 3.00751H16C16.4888 3.00751 16.906 3.36092 16.9864 3.84311L17.9864 9.84311C17.9954 9.89744 18 9.95243 18 10.0075C18 11.5988 17.3679 13.1249 16.2426 14.2501C15.1174 15.3754 13.5913 16.0075 12 16.0075C10.4087 16.0075 8.88258 15.3754 7.75736 14.2501C6.63214 13.1249 6 11.5988 6 10.0075C6 9.95243 6.00455 9.89744 6.01361 9.84311L7.01361 3.84311ZM8.84713 5.00751L8.00076 10.0857C8.02093 11.1183 8.43987 12.1042 9.17157 12.8359C9.92172 13.5861 10.9391 14.0075 12 14.0075C13.0609 14.0075 14.0783 13.5861 14.8284 12.8359C15.5601 12.1042 15.9791 11.1183 15.9992 10.0857L15.1529 5.00751H8.84713Z" fill="#1F2937"/>
<path fill-rule="evenodd" clip-rule="evenodd" d="M9.50004 10.1403C8.81842 10.1403 8.15712 10.3724 7.62504 10.7984C7.19391 11.1436 6.56459 11.0739 6.21941 10.6428C5.87423 10.2116 5.94391 9.58231 6.37504 9.23713C7.26185 8.52712 8.36401 8.14026 9.50004 8.14026C10.6361 8.14026 11.7382 8.52712 12.625 9.23713C13.1571 9.66314 13.8184 9.89526 14.5 9.89526C15.1817 9.89526 15.8429 9.66314 16.375 9.23713C16.8062 8.89196 17.4355 8.96163 17.7807 9.39276C18.1258 9.82389 18.0562 10.4532 17.625 10.7984C16.7382 11.5084 15.6361 11.8953 14.5 11.8953C13.364 11.8953 12.2618 11.5084 11.375 10.7984C10.843 10.3724 10.1817 10.1403 9.50004 10.1403Z" fill="#1F2937"/>
</svg>
