<svg width="24" height="24" viewBox="0 0 24 24" fill="none" xmlns="http://www.w3.org/2000/svg">
<path fill-rule="evenodd" clip-rule="evenodd" d="M7 21C7 20.4477 7.44772 20 8 20H16C16.5523 20 17 20.4477 17 21C17 21.5523 16.5523 22 16 22H8C7.44772 22 7 21.5523 7 21Z" fill="#1F2937"/>
<path fill-rule="evenodd" clip-rule="evenodd" d="M12 14C12.5523 14 13 14.4477 13 15V21C13 21.5523 12.5523 22 12 22C11.4477 22 11 21.5523 11 21V15C11 14.4477 11.4477 14 12 14Z" fill="#1F2937"/>
<path fill-rule="evenodd" clip-rule="evenodd" d="M7.01361 3.84311C7.09397 3.36092 7.51116 3.00751 8 3.00751H16C16.4888 3.00751 16.906 3.36092 16.9864 3.84311L17.9864 9.84311C17.9954 9.89744 18 9.95243 18 10.0075C18 11.5988 17.3679 13.1249 16.2426 14.2501C15.1174 15.3754 13.5913 16.0075 12 16.0075C10.4087 16.0075 8.88258 15.3754 7.75736 14.2501C6.63214 13.1249 6 11.5988 6 10.0075C6 9.95243 6.00455 9.89744 6.01361 9.84311L7.01361 3.84311ZM8.84713 5.00751L8.00076 10.0857C8.02093 11.1183 8.43987 12.1042 9.17157 12.8359C9.92172 13.5861 10.9391 14.0075 12 14.0075C13.0609 14.0075 14.0783 13.5861 14.8284 12.8359C15.5601 12.1042 15.9791 11.1183 15.9992 10.0857L15.1529 5.00751H8.84713Z" fill="#1F2937"/>
</svg>
