<svg width="24" height="24" viewBox="0 0 24 24" fill="none" xmlns="http://www.w3.org/2000/svg">
<path d="M12.9688 14.063H17.8532C16.9958 16.4866 14.6738 18.2242 11.9553 18.2041C8.65671 18.1798 5.92926 15.5415 5.8012 12.246C5.66394 8.71337 8.49857 5.79571 12.0019 5.79571C13.6037 5.79571 15.0655 6.40593 16.1675 7.40584C16.4285 7.64273 16.8258 7.64423 17.0826 7.40263L18.8766 5.71448C19.1571 5.45043 19.1581 5.00453 18.8784 4.7396C17.1307 3.08419 14.7863 2.05236 12.2009 2.00188C6.68668 1.89425 2.03866 6.41453 2.00025 11.9287C1.9615 17.4843 6.45424 22 12.0019 22C17.3369 22 21.6952 17.8235 21.9871 12.5625C21.9949 12.4965 22 10.2673 22 10.2673H12.9688C12.5986 10.2673 12.2986 10.5673 12.2986 10.9374V13.3929C12.2986 13.763 12.5987 14.063 12.9688 14.063Z" fill="#F34A38"/>
</svg>
