<svg width="20" height="20" viewBox="0 0 20 20" fill="none" xmlns="http://www.w3.org/2000/svg">
<path d="M4.57483 10.7384V8.79758L9.81812 10.5457L9.81828 10.5457C9.93617 10.5847 10.0635 10.5847 10.1814 10.5457L10.1816 10.5457L15.4248 8.79758V9.53347C14.8401 9.76321 14.4248 10.3335 14.4248 10.9995C14.4248 11.6189 14.7839 12.1547 15.3041 12.4121L14.4421 15.8603L14.4421 15.8604C14.4209 15.9451 14.4194 16.0336 14.4375 16.119C14.4557 16.2044 14.493 16.2846 14.5468 16.3534C14.6006 16.4223 14.6693 16.478 14.7478 16.5163C14.8263 16.5546 14.9125 16.5745 14.9998 16.5745H14.9998H16.9998C17.0872 16.5745 17.1734 16.5546 17.2519 16.5163C17.3304 16.478 17.3991 16.4223 17.4529 16.3534C17.5066 16.2846 17.544 16.2044 17.5621 16.119C17.5803 16.0336 17.5787 15.9451 17.5576 15.8604L17.5576 15.8603L16.6956 12.4121C17.2158 12.1547 17.5748 11.6189 17.5748 10.9995C17.5748 10.3335 17.1596 9.76321 16.5748 9.53347V8.41357L19.1816 7.54466L19.1817 7.54461C19.2959 7.50627 19.3952 7.43303 19.4655 7.33522C19.5359 7.23741 19.5737 7.11998 19.5737 6.99951C19.5737 6.87904 19.5359 6.76161 19.4655 6.66381C19.3952 6.566 19.2959 6.49276 19.1817 6.45441L19.1701 6.45051H19.169L10.1806 3.45436L10.1804 3.45432C10.0625 3.41523 9.93514 3.41523 9.81723 3.45432L9.81712 3.45436L0.817117 6.45436L0.816964 6.45441C0.702758 6.49276 0.603479 6.566 0.533143 6.66381C0.462808 6.76161 0.424969 6.87904 0.424969 6.99951C0.424969 7.11998 0.462808 7.23741 0.533143 7.33522C0.603479 7.43303 0.702757 7.50627 0.816964 7.54461L0.817117 7.54466L3.42383 8.41357V10.9995C3.42383 11.1525 3.4848 11.2984 3.59152 11.4063L3.5918 11.4065C3.6882 11.5029 5.81215 13.5745 9.99884 13.5745C11.5209 13.5745 12.9419 13.3009 14.223 12.7596L14.223 12.7596L14.2245 12.759C14.3618 12.6976 14.4695 12.5848 14.5247 12.4448C14.5798 12.3049 14.5779 12.1489 14.5194 12.0104C14.4609 11.8718 14.3504 11.7617 14.2116 11.7036C14.0728 11.6456 13.9169 11.6442 13.7771 11.6998L13.7771 11.6998L13.7756 11.7004C12.6388 12.1811 11.3689 12.4245 9.99984 12.4245C8.06816 12.4245 6.64843 11.924 5.79894 11.5062L5.79842 11.506C5.36339 11.2961 4.95302 11.0387 4.57483 10.7384ZM15.9515 7.40825L10.0952 6.43171C10.0201 6.41703 9.94275 6.4175 9.86777 6.43311C9.79241 6.4488 9.72098 6.47946 9.65769 6.52327C9.59441 6.56708 9.54056 6.62315 9.49935 6.68815C9.45814 6.75316 9.43039 6.82577 9.41777 6.9017C9.40514 6.97762 9.40788 7.05531 9.42583 7.13016C9.44379 7.205 9.47658 7.27548 9.52228 7.33742C9.56797 7.39935 9.62564 7.45148 9.69186 7.49072C9.75774 7.52976 9.83075 7.55524 9.9066 7.56567L13.6217 8.18486L9.99983 9.39246L2.81801 6.99851L9.99984 4.60457L17.1816 6.99849L15.9515 7.40825ZM15.9988 10.5745C16.1116 10.5745 16.2197 10.6193 16.2994 10.699C16.3791 10.7787 16.4238 10.8868 16.4238 10.9995C16.4238 11.1122 16.3791 11.2203 16.2994 11.3C16.2197 11.3797 16.1116 11.4245 15.9988 11.4245C15.8861 11.4245 15.778 11.3797 15.6983 11.3C15.6186 11.2203 15.5738 11.1122 15.5738 10.9995C15.5738 10.8868 15.6186 10.7787 15.6983 10.699C15.778 10.6193 15.8861 10.5745 15.9988 10.5745ZM16.2627 15.4245H15.7349L15.9988 14.3703L16.2627 15.4245Z" fill="#1F2937" stroke="#1F2937" stroke-width="0.15"/>
</svg>
