<svg width="24" height="24" viewBox="0 0 24 24" fill="none" xmlns="http://www.w3.org/2000/svg">
<path fill-rule="evenodd" clip-rule="evenodd" d="M3 5.00748C3 3.90291 3.89543 3.00748 5 3.00748C6.10457 3.00748 7 3.90291 7 5.00748C7 6.11205 6.10457 7.00748 5 7.00748C3.89543 7.00748 3 6.11205 3 5.00748Z" fill="#1F2937"/>
<path fill-rule="evenodd" clip-rule="evenodd" d="M10 5.00748C10 3.90291 10.8954 3.00748 12 3.00748C13.1046 3.00748 14 3.90291 14 5.00748C14 6.11205 13.1046 7.00748 12 7.00748C10.8954 7.00748 10 6.11205 10 5.00748Z" fill="#1F2937"/>
<path fill-rule="evenodd" clip-rule="evenodd" d="M17 5.00748C17 3.90291 17.8954 3.00748 19 3.00748C20.1046 3.00748 21 3.90291 21 5.00748C21 6.11205 20.1046 7.00748 19 7.00748C17.8954 7.00748 17 6.11205 17 5.00748Z" fill="#1F2937"/>
<path fill-rule="evenodd" clip-rule="evenodd" d="M3 11.9925C3 10.888 3.89543 9.99252 5 9.99252C6.10457 9.99252 7 10.888 7 11.9925C7 13.0971 6.10457 13.9925 5 13.9925C3.89543 13.9925 3 13.0971 3 11.9925Z" fill="#1F2937"/>
<path fill-rule="evenodd" clip-rule="evenodd" d="M10 11.9925C10 10.888 10.8954 9.99252 12 9.99252C13.1046 9.99252 14 10.888 14 11.9925C14 13.0971 13.1046 13.9925 12 13.9925C10.8954 13.9925 10 13.0971 10 11.9925Z" fill="#1F2937"/>
<path fill-rule="evenodd" clip-rule="evenodd" d="M17 11.9925C17 10.888 17.8954 9.99252 19 9.99252C20.1046 9.99252 21 10.888 21 11.9925C21 13.0971 20.1046 13.9925 19 13.9925C17.8954 13.9925 17 13.0971 17 11.9925Z" fill="#1F2937"/>
<path fill-rule="evenodd" clip-rule="evenodd" d="M3 19C3 17.8954 3.89543 17 5 17C6.10457 17 7 17.8954 7 19C7 20.1046 6.10457 21 5 21C3.89543 21 3 20.1046 3 19Z" fill="#1F2937"/>
<path fill-rule="evenodd" clip-rule="evenodd" d="M10 19C10 17.8954 10.8954 17 12 17C13.1046 17 14 17.8954 14 19C14 20.1046 13.1046 21 12 21C10.8954 21 10 20.1046 10 19Z" fill="#1F2937"/>
<path fill-rule="evenodd" clip-rule="evenodd" d="M17 19C17 17.8954 17.8954 17 19 17C20.1046 17 21 17.8954 21 19C21 20.1046 20.1046 21 19 21C17.8954 21 17 20.1046 17 19Z" fill="#1F2937"/>
</svg>
