<svg width="24" height="24" viewBox="0 0 24 24" fill="none" xmlns="http://www.w3.org/2000/svg">
<path fill-rule="evenodd" clip-rule="evenodd" d="M3 5.00748C3 3.90291 3.89543 3.00748 5 3.00748H9C10.1046 3.00748 11 3.90291 11 5.00748V9.00748C11 10.112 10.1046 11.0075 9 11.0075H5C3.89543 11.0075 3 10.112 3 9.00748V5.00748ZM9 5.00748H5V9.00748H9V5.00748Z" fill="#1F2937"/>
<path fill-rule="evenodd" clip-rule="evenodd" d="M13 5.00748C13 3.90291 13.8954 3.00748 15 3.00748H19C20.1046 3.00748 21 3.90291 21 5.00748V9.00748C21 10.112 20.1046 11.0075 19 11.0075H15C13.8954 11.0075 13 10.112 13 9.00748V5.00748ZM19 5.00748H15V9.00748H19V5.00748Z" fill="#1F2937"/>
<path fill-rule="evenodd" clip-rule="evenodd" d="M3 14.9925C3 13.888 3.89543 12.9925 5 12.9925H9C10.1046 12.9925 11 13.888 11 14.9925V18.9925C11 20.0971 10.1046 20.9925 9 20.9925H5C3.89543 20.9925 3 20.0971 3 18.9925V14.9925ZM9 14.9925H5V18.9925H9V14.9925Z" fill="#1F2937"/>
<path fill-rule="evenodd" clip-rule="evenodd" d="M13 14.9925C13 13.888 13.8954 12.9925 15 12.9925H19C20.1046 12.9925 21 13.888 21 14.9925V18.9925C21 20.0971 20.1046 20.9925 19 20.9925H15C13.8954 20.9925 13 20.0971 13 18.9925V14.9925ZM19 14.9925H15V18.9925H19V14.9925Z" fill="#1F2937"/>
</svg>
