<svg width="24" height="24" viewBox="0 0 24 24" fill="none" xmlns="http://www.w3.org/2000/svg">
<path fill-rule="evenodd" clip-rule="evenodd" d="M3 8.99249C3 7.88792 3.89543 6.99249 5 6.99249C6.10457 6.99249 7 7.88792 7 8.99249C7 10.0971 6.10457 10.9925 5 10.9925C3.89543 10.9925 3 10.0971 3 8.99249Z" fill="#1F2937"/>
<path fill-rule="evenodd" clip-rule="evenodd" d="M3 14.9925C3 13.8879 3.89543 12.9925 5 12.9925C6.10457 12.9925 7 13.8879 7 14.9925C7 16.0971 6.10457 16.9925 5 16.9925C3.89543 16.9925 3 16.0971 3 14.9925Z" fill="#1F2937"/>
<path fill-rule="evenodd" clip-rule="evenodd" d="M10 8.99249C10 7.88792 10.8954 6.99249 12 6.99249C13.1046 6.99249 14 7.88792 14 8.99249C14 10.0971 13.1046 10.9925 12 10.9925C10.8954 10.9925 10 10.0971 10 8.99249Z" fill="#1F2937"/>
<path fill-rule="evenodd" clip-rule="evenodd" d="M10 14.9925C10 13.8879 10.8954 12.9925 12 12.9925C13.1046 12.9925 14 13.8879 14 14.9925C14 16.0971 13.1046 16.9925 12 16.9925C10.8954 16.9925 10 16.0971 10 14.9925Z" fill="#1F2937"/>
<path fill-rule="evenodd" clip-rule="evenodd" d="M17 8.99249C17 7.88792 17.8954 6.99249 19 6.99249C20.1046 6.99249 21 7.88792 21 8.99249C21 10.0971 20.1046 10.9925 19 10.9925C17.8954 10.9925 17 10.0971 17 8.99249Z" fill="#1F2937"/>
<path fill-rule="evenodd" clip-rule="evenodd" d="M17 14.9925C17 13.8879 17.8954 12.9925 19 12.9925C20.1046 12.9925 21 13.8879 21 14.9925C21 16.0971 20.1046 16.9925 19 16.9925C17.8954 16.9925 17 16.0971 17 14.9925Z" fill="#1F2937"/>
</svg>
