<svg width="24" height="24" viewBox="0 0 24 24" fill="none" xmlns="http://www.w3.org/2000/svg">
<path fill-rule="evenodd" clip-rule="evenodd" d="M7 5.00751C7 3.90294 7.89543 3.00751 9 3.00751C10.1046 3.00751 11 3.90294 11 5.00751C11 6.11208 10.1046 7.00751 9 7.00751C7.89543 7.00751 7 6.11208 7 5.00751Z" fill="#1F2937"/>
<path fill-rule="evenodd" clip-rule="evenodd" d="M7 11.9925C7 10.8879 7.89543 9.99249 9 9.99249C10.1046 9.99249 11 10.8879 11 11.9925C11 13.0971 10.1046 13.9925 9 13.9925C7.89543 13.9925 7 13.0971 7 11.9925Z" fill="#1F2937"/>
<path fill-rule="evenodd" clip-rule="evenodd" d="M7 19C7 17.8954 7.89543 17 9 17C10.1046 17 11 17.8954 11 19C11 20.1046 10.1046 21 9 21C7.89543 21 7 20.1046 7 19Z" fill="#1F2937"/>
<path fill-rule="evenodd" clip-rule="evenodd" d="M13 5.00751C13 3.90294 13.8954 3.00751 15 3.00751C16.1046 3.00751 17 3.90294 17 5.00751C17 6.11208 16.1046 7.00751 15 7.00751C13.8954 7.00751 13 6.11208 13 5.00751Z" fill="#1F2937"/>
<path fill-rule="evenodd" clip-rule="evenodd" d="M13 11.9925C13 10.8879 13.8954 9.99249 15 9.99249C16.1046 9.99249 17 10.8879 17 11.9925C17 13.0971 16.1046 13.9925 15 13.9925C13.8954 13.9925 13 13.0971 13 11.9925Z" fill="#1F2937"/>
<path fill-rule="evenodd" clip-rule="evenodd" d="M13 19C13 17.8954 13.8954 17 15 17C16.1046 17 17 17.8954 17 19C17 20.1046 16.1046 21 15 21C13.8954 21 13 20.1046 13 19Z" fill="#1F2937"/>
</svg>
