<svg width="24" height="24" viewBox="0 0 24 24" fill="none" xmlns="http://www.w3.org/2000/svg">
<path fill-rule="evenodd" clip-rule="evenodd" d="M12.4998 2.99249C12.3672 2.99249 12.24 3.04517 12.1463 3.13894C12.0525 3.23271 11.9998 3.35988 11.9998 3.49249V11.9925C11.9998 12.5448 11.5521 12.9925 10.9998 12.9925C10.4475 12.9925 9.9998 12.5448 9.9998 11.9925V5.49249C9.9998 5.35988 9.94713 5.23271 9.85336 5.13894C9.75959 5.04517 9.63241 4.99249 9.4998 4.99249C9.3672 4.99249 9.24002 5.04517 9.14625 5.13894C9.05248 5.23271 8.9998 5.35988 8.9998 5.49249V13.4925C8.9998 14.0448 8.55209 14.4925 7.9998 14.4925C7.99298 14.4925 7.98616 14.4924 7.97937 14.4923C7.60645 14.5031 7.24253 14.3038 7.06052 13.9498L6.20351 12.2834C6.09585 12.1594 5.94748 12.0767 5.78401 12.0509C5.60058 12.0219 5.41316 12.067 5.26298 12.1762C5.11279 12.2855 5.01215 12.4499 4.98319 12.6333C4.95423 12.8167 4.99932 13.0041 5.10854 13.1543C5.13871 13.1958 5.16564 13.2395 5.18909 13.2851L7.86463 18.4876C8.28953 19.1261 8.88312 19.6889 9.61276 20.1267C10.3402 20.5631 11.1794 20.8609 12.0708 20.9925H13.9998C15.3259 20.9925 16.5977 20.4657 17.5353 19.528C18.473 18.5903 18.9998 17.3186 18.9998 15.9925V7.49249C18.9998 7.35988 18.9471 7.23271 18.8534 7.13894C18.7596 7.04517 18.6324 6.99249 18.4998 6.99249C18.3672 6.99249 18.24 7.04517 18.1463 7.13894C18.0525 7.23271 17.9998 7.35989 17.9998 7.49249V11.9925C17.9998 12.5448 17.5521 12.9925 16.9998 12.9925C16.4475 12.9925 15.9998 12.5448 15.9998 11.9925V5.49249C15.9998 5.35989 15.9471 5.23271 15.8534 5.13894C15.7596 5.04517 15.6324 4.99249 15.4998 4.99249C15.3672 4.99249 15.24 5.04517 15.1463 5.13894C15.0525 5.23271 14.9998 5.35988 14.9998 5.49249V11.9925C14.9998 12.5448 14.5521 12.9925 13.9998 12.9925C13.4475 12.9925 12.9998 12.5448 12.9998 11.9925V3.49249C12.9998 3.35988 12.9471 3.23271 12.8534 3.13894C12.7596 3.04517 12.6324 2.99249 12.4998 2.99249ZM14.9606 3.05133C14.8711 2.55218 14.6311 2.08824 14.2676 1.72473C13.7987 1.25588 13.1628 0.992493 12.4998 0.992493C11.8368 0.992493 11.2009 1.25588 10.732 1.72473C10.3685 2.08824 10.1285 2.55218 10.039 3.05133C9.8633 3.01251 9.68259 2.99249 9.4998 2.99249C8.83676 2.99249 8.20088 3.25588 7.73204 3.72473C7.2632 4.19357 6.9998 4.82945 6.9998 5.49249V10.3898C6.72225 10.2334 6.41663 10.126 6.09593 10.0754C5.38856 9.96366 4.6658 10.1375 4.08663 10.5588C3.50747 10.98 3.11935 11.614 3.00766 12.3214C2.90044 13.0004 3.0564 13.6937 3.44168 14.2604L6.11052 19.4498C6.12608 19.4801 6.14318 19.5096 6.16175 19.5381C6.76532 20.4652 7.59696 21.2496 8.58377 21.8417C9.57038 22.4336 10.6918 22.8215 11.8631 22.9831C11.9084 22.9894 11.9541 22.9925 11.9998 22.9925H13.9998C15.8563 22.9925 17.6368 22.255 18.9496 20.9422C20.2623 19.6295 20.9998 17.849 20.9998 15.9925V7.49249C20.9998 6.82945 20.7364 6.19357 20.2676 5.72473C19.7987 5.25589 19.1628 4.99249 18.4998 4.99249C18.317 4.99249 18.1363 5.01251 17.9606 5.05133C17.8711 4.55218 17.6311 4.08824 17.2676 3.72473C16.7987 3.25588 16.1628 2.99249 15.4998 2.99249C15.317 2.99249 15.1363 3.01251 14.9606 3.05133Z" fill="#1F2937"/>
</svg>
