<svg width="24" height="24" viewBox="0 0 24 24" fill="none" xmlns="http://www.w3.org/2000/svg">
<path fill-rule="evenodd" clip-rule="evenodd" d="M4 9C4 8.44772 4.44772 8 5 8H19C19.5523 8 20 8.44772 20 9C20 9.55228 19.5523 10 19 10H5C4.44772 10 4 9.55228 4 9Z" fill="#1F2937"/>
<path fill-rule="evenodd" clip-rule="evenodd" d="M4 15C4 14.4477 4.44772 14 5 14H19C19.5523 14 20 14.4477 20 15C20 15.5523 19.5523 16 19 16H5C4.44772 16 4 15.5523 4 15Z" fill="#1F2937"/>
<path fill-rule="evenodd" clip-rule="evenodd" d="M11.2428 3.0373C11.7786 3.17124 12.1043 3.71418 11.9704 4.24997L7.97038 20.25C7.83643 20.7858 7.2935 21.1115 6.7577 20.9776C6.22191 20.8436 5.89615 20.3007 6.03009 19.7649L10.0301 3.7649C10.164 3.22911 10.707 2.90335 11.2428 3.0373Z" fill="#1F2937"/>
<path fill-rule="evenodd" clip-rule="evenodd" d="M17.2428 3.0373C17.7786 3.17124 18.1043 3.71418 17.9704 4.24997L13.9704 20.25C13.8364 20.7858 13.2935 21.1115 12.7577 20.9776C12.2219 20.8436 11.8961 20.3007 12.0301 19.7649L16.0301 3.7649C16.164 3.22911 16.707 2.90335 17.2428 3.0373Z" fill="#1F2937"/>
</svg>
