<svg width="24" height="24" viewBox="0 0 24 24" fill="none" xmlns="http://www.w3.org/2000/svg">
<path fill-rule="evenodd" clip-rule="evenodd" d="M6 14.0075C5.44772 14.0075 5 14.4552 5 15.0075V18.0075C5 18.5598 5.44772 19.0075 6 19.0075H7C7.55229 19.0075 8 18.5598 8 18.0075V15.0075C8 14.4552 7.55229 14.0075 7 14.0075H6ZM3 15.0075C3 13.3506 4.34315 12.0075 6 12.0075H7C8.65685 12.0075 10 13.3506 10 15.0075V18.0075C10 19.6643 8.65685 21.0075 7 21.0075H6C4.34315 21.0075 3 19.6643 3 18.0075V15.0075Z" fill="#1F2937"/>
<path fill-rule="evenodd" clip-rule="evenodd" d="M17 14.0075C16.4477 14.0075 16 14.4552 16 15.0075V18.0075C16 18.5598 16.4477 19.0075 17 19.0075H18C18.5523 19.0075 19 18.5598 19 18.0075V15.0075C19 14.4552 18.5523 14.0075 18 14.0075H17ZM14 15.0075C14 13.3506 15.3431 12.0075 17 12.0075H18C19.6569 12.0075 21 13.3506 21 15.0075V18.0075C21 19.6643 19.6569 21.0075 18 21.0075H17C15.3431 21.0075 14 19.6643 14 18.0075V15.0075Z" fill="#1F2937"/>
<path fill-rule="evenodd" clip-rule="evenodd" d="M12 5.00748C10.1435 5.00748 8.36301 5.74498 7.05025 7.05774C5.7375 8.37049 5 10.151 5 12.0075V15.0075C5 15.5598 4.55228 16.0075 4 16.0075C3.44772 16.0075 3 15.5598 3 15.0075V12.0075C3 9.62054 3.94821 7.33135 5.63604 5.64352C7.32387 3.9557 9.61305 3.00748 12 3.00748C14.3869 3.00748 16.6761 3.9557 18.364 5.64352C20.0518 7.33135 21 9.62054 21 12.0075V15.0075C21 15.5598 20.5523 16.0075 20 16.0075C19.4477 16.0075 19 15.5598 19 15.0075V12.0075C19 10.151 18.2625 8.37049 16.9497 7.05774C15.637 5.74498 13.8565 5.00748 12 5.00748Z" fill="#1F2937"/>
</svg>
