<svg width="24" height="24" viewBox="0 0 24 24" fill="none" xmlns="http://www.w3.org/2000/svg">
<path fill-rule="evenodd" clip-rule="evenodd" d="M6 14.0075C5.44772 14.0075 5 14.4552 5 15.0075V17.0075C5 17.5598 5.44772 18.0075 6 18.0075C6.55228 18.0075 7 17.5598 7 17.0075V15.0075C7 14.4552 6.55228 14.0075 6 14.0075ZM3 15.0075C3 13.3506 4.34315 12.0075 6 12.0075C7.65685 12.0075 9 13.3506 9 15.0075V17.0075C9 18.6643 7.65685 20.0075 6 20.0075C4.34315 20.0075 3 18.6643 3 17.0075V15.0075Z" fill="#1F2937"/>
<path fill-rule="evenodd" clip-rule="evenodd" d="M18 14.0075C17.4477 14.0075 17 14.4552 17 15.0075V17.0075C17 17.5598 17.4477 18.0075 18 18.0075C18.5523 18.0075 19 17.5598 19 17.0075V15.0075C19 14.4552 18.5523 14.0075 18 14.0075ZM15 15.0075C15 13.3506 16.3431 12.0075 18 12.0075C19.6569 12.0075 21 13.3506 21 15.0075V17.0075C21 18.6643 19.6569 20.0075 18 20.0075C16.3431 20.0075 15 18.6643 15 17.0075V15.0075Z" fill="#1F2937"/>
<path fill-rule="evenodd" clip-rule="evenodd" d="M12 5.00748C10.1435 5.00748 8.36301 5.74498 7.05025 7.05774C5.7375 8.37049 5 10.151 5 12.0075V15.0075C5 15.5598 4.55228 16.0075 4 16.0075C3.44772 16.0075 3 15.5598 3 15.0075V12.0075C3 9.62054 3.94821 7.33135 5.63604 5.64352C7.32387 3.9557 9.61305 3.00748 12 3.00748C14.3869 3.00748 16.6761 3.9557 18.364 5.64352C20.0518 7.33135 21 9.62054 21 12.0075V15.0075C21 15.5598 20.5523 16.0075 20 16.0075C19.4477 16.0075 19 15.5598 19 15.0075V12.0075C19 10.151 18.2625 8.37049 16.9497 7.05774C15.637 5.74498 13.8565 5.00748 12 5.00748Z" fill="#1F2937"/>
<path fill-rule="evenodd" clip-rule="evenodd" d="M18 18.0075C18.5523 18.0075 19 18.4552 19 19.0075C19 20.3737 17.939 21.3987 16.6899 22.0232C15.3939 22.6712 13.7065 23.0075 12 23.0075C11.4477 23.0075 11 22.5598 11 22.0075C11 21.4552 11.4477 21.0075 12 21.0075C13.4761 21.0075 14.8409 20.7116 15.7954 20.2344C16.7967 19.7337 17 19.2325 17 19.0075C17 18.4552 17.4477 18.0075 18 18.0075Z" fill="#1F2937"/>
</svg>
