<svg width="24" height="24" viewBox="0 0 24 24" fill="none" xmlns="http://www.w3.org/2000/svg">
<path fill-rule="evenodd" clip-rule="evenodd" d="M8.38691 6.58074C7.47981 6.54446 6.59545 6.87 5.92838 7.48576C5.26131 8.10152 4.86617 8.95706 4.82988 9.86416C4.81192 10.3133 4.88259 10.7616 5.03788 11.1834C5.19101 11.5994 5.42345 11.9816 5.72225 12.3089L12.0001 18.5868L18.278 12.3089C18.8855 11.6435 19.2063 10.765 19.1703 9.86416C19.134 8.95706 18.7389 8.10152 18.0718 7.48576C17.4047 6.87 16.5204 6.54446 15.6133 6.58074C14.7062 6.61703 13.8507 7.01217 13.2349 7.67924C13.1814 7.7372 13.1212 7.78862 13.0557 7.83244C12.7432 8.0412 12.3759 8.15263 12.0001 8.15263C11.6243 8.15263 11.257 8.0412 10.9445 7.83244C10.879 7.78862 10.8188 7.7372 10.7653 7.67924C10.1495 7.01217 9.29401 6.61703 8.38691 6.58074ZM4.57182 6.01616C5.62865 5.04062 7.02974 4.52486 8.46684 4.58234C9.79198 4.63535 11.0477 5.17174 12.0001 6.08356C12.9525 5.17174 14.2082 4.63535 15.5334 4.58234C16.9705 4.52486 18.3715 5.04062 19.4284 6.01616C20.4852 6.9917 21.1112 8.34711 21.1687 9.78422C21.2262 11.2213 20.7104 12.6224 19.7349 13.6792C19.7259 13.689 19.7166 13.6987 19.7072 13.7081L12.7072 20.7081C12.5197 20.8956 12.2653 21.001 12.0001 21.001C11.7349 21.001 11.4805 20.8956 11.293 20.7081L4.29299 13.7081C4.28357 13.6987 4.27434 13.689 4.2653 13.6792C3.78226 13.156 3.40702 12.5426 3.161 11.8743C2.91499 11.206 2.80302 10.4958 2.83148 9.78422C2.88897 8.34711 3.51498 6.9917 4.57182 6.01616Z" fill="#1F2937"/>
</svg>
