<svg width="24" height="24" viewBox="0 0 24 24" fill="none" xmlns="http://www.w3.org/2000/svg">
<path fill-rule="evenodd" clip-rule="evenodd" d="M12 4C7.58172 4 4 7.58172 4 12C4 16.4183 7.58172 20 12 20C16.4183 20 20 16.4183 20 12C20 7.58172 16.4183 4 12 4ZM2 12C2 6.47715 6.47715 2 12 2C17.5228 2 22 6.47715 22 12C22 17.5228 17.5228 22 12 22C6.47715 22 2 17.5228 2 12Z" fill="#1F2937"/>
<path fill-rule="evenodd" clip-rule="evenodd" d="M12 15.9925C12.5523 15.9925 13 16.4402 13 16.9925V17.0025C13 17.5548 12.5523 18.0025 12 18.0025C11.4477 18.0025 11 17.5548 11 17.0025V16.9925C11 16.4402 11.4477 15.9925 12 15.9925Z" fill="#1F2937"/>
<path fill-rule="evenodd" clip-rule="evenodd" d="M10.4748 6.33463C10.9742 6.08752 11.5242 5.95971 12.0814 5.96126C12.6385 5.9628 13.1878 6.09366 13.6858 6.34354C14.1838 6.59342 14.6171 6.95548 14.9514 7.40124C15.2857 7.847 15.512 8.36427 15.6124 8.91234C15.7128 9.46041 15.6847 10.0243 15.5302 10.5596C15.3756 11.095 15.0989 11.5871 14.7219 11.9974C14.3448 12.4076 13.8777 12.7247 13.3572 12.9238C13.3488 12.927 13.3403 12.9301 13.3318 12.9331C13.2295 12.969 13.1417 13.0373 13.0816 13.1274C13.0215 13.2176 12.9923 13.3249 12.9984 13.4331C13.0297 13.9845 12.6081 14.4568 12.0567 14.4881C11.5053 14.5194 11.0329 14.0977 11.0017 13.5463C10.971 13.0053 11.1169 12.4689 11.4175 12.018C11.715 11.5718 12.148 11.2332 12.6524 11.052C12.8799 10.9633 13.0841 10.8238 13.2494 10.644C13.417 10.4616 13.5399 10.2429 13.6086 10.005C13.6773 9.76705 13.6898 9.51642 13.6452 9.27284C13.6005 9.02925 13.5 8.79936 13.3514 8.60124C13.2028 8.40313 13.0102 8.24221 12.7889 8.13115C12.5676 8.0201 12.3234 7.96194 12.0758 7.96125C11.8282 7.96056 11.5837 8.01737 11.3618 8.12719C11.1398 8.23702 10.9464 8.39687 10.7967 8.59416C10.4629 9.03414 9.83561 9.1202 9.39563 8.78639C8.95564 8.45257 8.86958 7.82528 9.2034 7.3853C9.54018 6.9414 9.97541 6.58174 10.4748 6.33463Z" fill="#1F2937"/>
</svg>
