<svg width="24" height="24" viewBox="0 0 24 24" fill="none" xmlns="http://www.w3.org/2000/svg">
<path fill-rule="evenodd" clip-rule="evenodd" d="M11.5145 4.43008C11.5145 4.4301 11.5145 4.43007 11.5145 4.43008L5.51461 7.76303C5.35871 7.8496 5.22869 7.97635 5.13823 8.13002C5.04781 8.28363 5.00008 8.45861 5 8.63685C5 8.63693 5 8.63677 5 8.63685V15.1734C5.00019 15.3516 5.04795 15.5264 5.13836 15.6799C5.22882 15.8335 5.35868 15.9601 5.5145 16.0466L11.5145 19.3796C11.663 19.4621 11.8301 19.5054 12 19.5054C12.1699 19.5054 12.337 19.4621 12.4855 19.3796L18.4854 16.0467C18.6413 15.9601 18.7713 15.8333 18.8618 15.6797C18.9522 15.5261 18.9999 15.3511 19 15.1728C19 15.1728 19 15.1729 19 15.1728V8.63758C18.9999 8.45935 18.9521 8.28438 18.8616 8.13081C18.7712 7.97723 18.6413 7.85062 18.4855 7.76408L12.4854 4.43103C12.4767 4.4262 12.4681 4.42127 12.4596 4.41621C12.3177 4.34276 12.1601 4.30432 12 4.30432C11.8302 4.30432 11.663 4.34764 11.5145 4.43008ZM10.5435 2.68161C10.9891 2.43417 11.4903 2.30432 12 2.30432C12.5097 2.30432 13.0109 2.43417 13.4565 2.68161C13.4688 2.68843 13.4809 2.69549 13.4928 2.70277L19.4565 6.01561C19.4565 6.01563 19.4565 6.01559 19.4565 6.01561C19.9239 6.27521 20.3136 6.65508 20.5849 7.11577C20.8563 7.57651 20.9996 8.1014 21 8.63611V15.1728C20.9999 15.7078 20.8567 16.2333 20.5853 16.6943C20.3139 17.1553 19.9242 17.5354 19.4565 17.7951L13.4566 21.128C13.011 21.3755 12.5097 21.5054 12 21.5054C11.4903 21.5054 10.9891 21.3755 10.5435 21.1281L4.5435 17.7951C4.54346 17.7951 4.54354 17.7951 4.5435 17.7951C4.07608 17.5355 3.68643 17.1556 3.41507 16.6949C3.1437 16.2342 3.00039 15.7093 3 15.1746L3 8.63685C3.00013 8.10188 3.1433 7.57644 3.41469 7.11542C3.68606 6.65444 4.07575 6.2744 4.54339 6.01467C4.54343 6.01465 4.54336 6.01469 4.54339 6.01467L10.5435 2.68161Z" fill="#1F2937"/>
</svg>
