<svg width="24" height="24" viewBox="0 0 24 24" fill="none" xmlns="http://www.w3.org/2000/svg">
<path fill-rule="evenodd" clip-rule="evenodd" d="M12 6.99251C12.5523 6.99251 13 7.44022 13 7.99251V11.5783L14.7071 13.2854C15.0976 13.6759 15.0976 14.3091 14.7071 14.6996C14.3166 15.0901 13.6834 15.0901 13.2929 14.6996L11.2929 12.6996C11.1054 12.5121 11 12.2577 11 11.9925V7.99251C11 7.44022 11.4477 6.99251 12 6.99251Z" fill="#1F2937"/>
<path fill-rule="evenodd" clip-rule="evenodd" d="M17.2989 5.87886C15.8144 4.58644 13.905 3.88449 11.935 3.90694C9.96493 3.92939 8.07211 4.67466 6.61766 6.00057C5.19039 7.3017 4.2833 9.07259 4.06123 10.9862L4.43812 13.9944H8.06373C8.61729 13.9944 9.06605 14.4421 9.06605 14.9944C9.06605 15.5467 8.61729 15.9944 8.06373 15.9944H5.13392C5.87515 17.2383 6.94608 18.2669 8.24121 18.9589C9.97804 19.8868 11.9965 20.1443 13.9115 19.6822C15.8265 19.2202 17.5039 18.0709 18.6238 16.4537C19.7437 14.8365 20.2276 12.8646 19.9832 10.9141C19.7388 8.9637 18.7833 7.17128 17.2989 5.87886ZM4.05445 17.9677C4.91757 19.0976 6.01922 20.0405 7.29487 20.722C9.46591 21.8819 11.989 22.2038 14.3827 21.6262C16.7764 21.0486 18.8732 19.6121 20.2731 17.5906C21.6729 15.569 22.2778 13.1041 21.9724 10.6661C21.6669 8.22801 20.4725 5.98749 18.6169 4.37197C16.7614 2.75644 14.3747 1.87901 11.9121 1.90707C9.44952 1.93513 7.0835 2.86673 5.26543 4.52411C3.44737 6.1815 2.30453 8.44866 2.05496 10.893C2.04731 10.968 2.04817 11.0436 2.05754 11.1184L2.4436 14.1997C2.20421 14.3824 2.0498 14.6704 2.0498 14.9944V19.9944C2.0498 20.5467 2.49856 20.9944 3.05213 20.9944C3.60569 20.9944 4.05445 20.5467 4.05445 19.9944V17.9677Z" fill="#1F2937"/>
</svg>
