<svg width="24" height="24" viewBox="0 0 24 24" fill="none" xmlns="http://www.w3.org/2000/svg">
<path fill-rule="evenodd" clip-rule="evenodd" d="M11.2929 2.29289C11.6834 1.90237 12.3166 1.90237 12.7071 2.29289L21.7071 11.2929C21.9931 11.5789 22.0787 12.009 21.9239 12.3827C21.7691 12.7564 21.4045 13 21 13H19C18.4477 13 18 12.5523 18 12C18 11.5712 18.2699 11.2054 18.6491 11.0633L12 4.41421L5.35094 11.0633C5.73013 11.2054 6.00003 11.5712 6.00003 12C6.00003 12.5523 5.55231 13 5.00003 13H3.00003C2.59557 13 2.23093 12.7564 2.07615 12.3827C1.92137 12.009 2.00692 11.5789 2.29292 11.2929L11.2929 2.29289Z" fill="#1F2937"/>
<path fill-rule="evenodd" clip-rule="evenodd" d="M5 11C5.55228 11 6 11.4477 6 12V19C6 19.2652 6.10536 19.5196 6.29289 19.7071C6.48043 19.8946 6.73478 20 7 20H17C17.2652 20 17.5196 19.8946 17.7071 19.7071C17.8946 19.5196 18 19.2652 18 19V12C18 11.4477 18.4477 11 19 11C19.5523 11 20 11.4477 20 12V19C20 19.7957 19.6839 20.5587 19.1213 21.1213C18.5587 21.6839 17.7957 22 17 22H7C6.20435 22 5.44129 21.6839 4.87868 21.1213C4.31607 20.5587 4 19.7956 4 19V12C4 11.4477 4.44772 11 5 11Z" fill="#1F2937"/>
<path fill-rule="evenodd" clip-rule="evenodd" d="M11 14.0074C10.7348 14.0074 10.4804 14.1128 10.2929 14.3003C10.1054 14.4879 10 14.7422 10 15.0074V21.0074C10 21.5597 9.55228 22.0074 9 22.0074C8.44772 22.0074 8 21.5597 8 21.0074V15.0074C8 14.2118 8.31607 13.4487 8.87868 12.8861C9.44129 12.3235 10.2043 12.0074 11 12.0074H13C13.7957 12.0074 14.5587 12.3235 15.1213 12.8861C15.6839 13.4487 16 14.2118 16 15.0074V21.0074C16 21.5597 15.5523 22.0074 15 22.0074C14.4477 22.0074 14 21.5597 14 21.0074V15.0074C14 14.7422 13.8946 14.4879 13.7071 14.3003C13.5196 14.1128 13.2652 14.0074 13 14.0074H11Z" fill="#1F2937"/>
</svg>
