<svg width="16" height="16" viewBox="0 0 16 16" fill="none" xmlns="http://www.w3.org/2000/svg">
<path d="M8.00013 2C9.31866 2 10.6076 2.39116 11.7039 3.1237C12.8002 3.85622 13.6551 4.89711 14.1596 6.11523C14.6642 7.3334 14.7958 8.67424 14.5385 9.96745C14.2813 11.2606 13.6466 12.4486 12.7143 13.3809C12.454 13.6411 12.032 13.641 11.7716 13.3809C11.5113 13.1205 11.5113 12.6985 11.7716 12.4382C12.5175 11.6923 13.0255 10.7416 13.2312 9.70703C13.437 8.67251 13.3309 7.60014 12.9272 6.62565C12.5235 5.65117 11.84 4.81843 10.963 4.23242C10.086 3.64639 9.05496 3.33333 8.00013 3.33333C6.9453 3.33333 5.9143 3.64639 5.03724 4.23242C4.16022 4.81843 3.47671 5.65117 3.07304 6.62565C2.66939 7.60014 2.56326 8.67251 2.76901 9.70703C2.97479 10.7416 3.48277 11.6923 4.22864 12.4382C4.48897 12.6985 4.48899 13.1205 4.22864 13.3809C3.96828 13.641 3.54622 13.6411 3.28593 13.3809C2.35365 12.4486 1.71897 11.2606 1.46172 9.96745C1.20449 8.67424 1.33603 7.3334 1.84062 6.11523C2.3452 4.89711 3.20007 3.85622 4.29635 3.1237C5.39268 2.39116 6.68159 2 8.00013 2Z" fill="#1F2937"/>
<path d="M7.99994 4.66797C8.79094 4.66797 9.56422 4.90241 10.2219 5.3418C10.8796 5.78122 11.3925 6.40599 11.6953 7.13672C11.998 7.86756 12.0774 8.67203 11.9231 9.44792C11.7689 10.2238 11.388 10.9366 10.8287 11.4961C10.5684 11.7564 10.1464 11.7564 9.88601 11.4961C9.62563 11.2358 9.62569 10.8138 9.88601 10.5534C10.2588 10.1805 10.5123 9.70529 10.6152 9.18815C10.718 8.67089 10.6653 8.13436 10.4635 7.64714C10.2616 7.16004 9.9201 6.74347 9.48171 6.45052C9.0432 6.15753 8.52733 6.0013 7.99994 6.0013C7.47256 6.0013 6.95669 6.15754 6.51817 6.45052C6.07978 6.74347 5.73824 7.16004 5.5364 7.64714C5.33455 8.13436 5.28187 8.67089 5.38471 9.18815C5.48757 9.70529 5.7411 10.1805 6.11387 10.5534C6.37419 10.8138 6.37426 11.2358 6.11387 11.4961C5.85351 11.7564 5.43148 11.7564 5.17117 11.4961C4.61186 10.9366 4.23102 10.2238 4.07676 9.44792C3.92251 8.67203 4.00185 7.86756 4.30463 7.13672C4.60743 6.40599 5.12024 5.78122 5.77794 5.3418C6.43566 4.90241 7.20895 4.66797 7.99994 4.66797Z" fill="#1F2937"/>
<path d="M6.6665 8.66536C6.6665 8.31174 6.80708 7.9727 7.05713 7.72266C7.30718 7.47261 7.64621 7.33203 7.99984 7.33203C8.35346 7.33203 8.6925 7.47261 8.94255 7.72266C9.19259 7.9727 9.33317 8.31174 9.33317 8.66536C9.33317 9.01899 9.19259 9.35802 8.94255 9.60807C8.6925 9.85812 8.35346 9.9987 7.99984 9.9987C7.64621 9.9987 7.30718 9.85812 7.05713 9.60807C6.80708 9.35802 6.6665 9.01899 6.6665 8.66536Z" fill="#1F2937"/>
</svg>
