<svg width="15" height="16" viewBox="0 0 15 16" fill="none" xmlns="http://www.w3.org/2000/svg">
<path d="M10.3777 7.34737C11.7903 6.51404 12.667 4.97604 12.667 3.33337V2.66671H13.3337V1.33337H12.667H3.33366H2.66699V2.66671H3.33366V3.33337C3.33366 4.97604 4.21033 6.51404 5.62299 7.34737C5.85899 7.48604 6.00033 7.71071 6.00033 7.94737V8.05271C6.00033 8.28871 5.85899 8.51271 5.62299 8.65271C4.21033 9.48604 3.33366 11.024 3.33366 12.6667V13.3334H2.66699V14.6667H3.33366H12.667H13.3337V13.3334H12.667V12.6667C12.667 11.024 11.7903 9.48604 10.3783 8.65337C10.1417 8.51337 10.0003 8.28871 10.0003 8.05271V7.94737C10.0003 7.71071 10.1417 7.48604 10.3777 7.34737ZM9.70099 9.80137C10.7083 10.396 11.3337 11.4934 11.3337 12.6667V13.3334H4.66699V12.6667C4.66699 11.4934 5.29233 10.396 6.30033 9.80071C6.94766 9.41871 7.33366 8.76471 7.33366 8.05271V7.94737C7.33366 7.23471 6.94699 6.58004 6.29966 6.19871C5.29233 5.60404 4.66699 4.50671 4.66699 3.33337V2.66671H11.3337V3.33337C11.3337 4.50671 10.7083 5.60404 9.70099 6.19871C9.05366 6.58004 8.66699 7.23471 8.66699 7.94737V8.05271C8.66699 8.76471 9.05299 9.41871 9.70099 9.80137Z" fill="#1F2937"/>
</svg>
