<svg width="24" height="24" viewBox="0 0 24 24" fill="none" xmlns="http://www.w3.org/2000/svg">
<path fill-rule="evenodd" clip-rule="evenodd" d="M8.70711 15.3004C9.09763 15.6909 9.09763 16.3241 8.70711 16.7146L4.70711 20.7146C4.31658 21.1051 3.68342 21.1051 3.29289 20.7146C2.90237 20.3241 2.90237 19.6909 3.29289 19.3004L7.29289 15.3004C7.68342 14.9098 8.31658 14.9098 8.70711 15.3004Z" fill="#1F2937"/>
<path fill-rule="evenodd" clip-rule="evenodd" d="M4.29289 12.3004C4.68342 11.9098 5.31658 11.9098 5.70711 12.3004L11.7071 18.3004C12.0976 18.6909 12.0976 19.3241 11.7071 19.7146C11.3166 20.1051 10.6834 20.1051 10.2929 19.7146L4.29289 13.7146C3.90237 13.3241 3.90237 12.6909 4.29289 12.3004Z" fill="#1F2937"/>
<path fill-rule="evenodd" clip-rule="evenodd" d="M11.2929 5.29289C12.2761 4.3097 13.6096 3.75735 15 3.75735C16.3904 3.75735 17.7239 4.3097 18.7071 5.29289C19.6903 6.27608 20.2426 7.60957 20.2426 9C20.2426 10.3904 19.6903 11.7239 18.7071 12.7071L11.7071 19.7071C11.3166 20.0976 10.6834 20.0976 10.2929 19.7071C9.90237 19.3166 9.90237 18.6834 10.2929 18.2929L17.2929 11.2929C17.901 10.6848 18.2426 9.86001 18.2426 9C18.2426 8.14 17.901 7.31522 17.2929 6.7071C16.6848 6.09899 15.86 5.75735 15 5.75735C14.14 5.75735 13.3152 6.09899 12.7071 6.7071L5.70711 13.7071C5.31658 14.0976 4.68342 14.0976 4.29289 13.7071C3.90237 13.3166 3.90237 12.6834 4.29289 12.2929L11.2929 5.29289Z" fill="#1F2937"/>
</svg>
