<svg width="24" height="24" viewBox="0 0 24 24" fill="none" xmlns="http://www.w3.org/2000/svg">
<path fill-rule="evenodd" clip-rule="evenodd" d="M6 5.00751C4.89543 5.00751 4 5.90294 4 7.00751V17.0075C4 18.1121 4.89543 19.0075 6 19.0075H18C19.1046 19.0075 20 18.1121 20 17.0075V7.00751C20 5.90294 19.1046 5.00751 18 5.00751H6ZM2 7.00751C2 4.79837 3.79086 3.00751 6 3.00751H18C20.2091 3.00751 22 4.79837 22 7.00751V17.0075C22 19.2166 20.2091 21.0075 18 21.0075H6C3.79086 21.0075 2 19.2166 2 17.0075V7.00751Z" fill="#1F2937"/>
<path fill-rule="evenodd" clip-rule="evenodd" d="M9 8.99249C8.44772 8.99249 8 9.44021 8 9.99249C8 10.5448 8.44772 10.9925 9 10.9925C9.55228 10.9925 10 10.5448 10 9.99249C10 9.44021 9.55228 8.99249 9 8.99249ZM6 9.99249C6 8.33564 7.34315 6.99249 9 6.99249C10.6569 6.99249 12 8.33564 12 9.99249C12 11.6493 10.6569 12.9925 9 12.9925C7.34315 12.9925 6 11.6493 6 9.99249Z" fill="#1F2937"/>
<path fill-rule="evenodd" clip-rule="evenodd" d="M14 7.99249C14 7.44021 14.4477 6.99249 15 6.99249H17C17.5523 6.99249 18 7.44021 18 7.99249C18 8.54478 17.5523 8.99249 17 8.99249H15C14.4477 8.99249 14 8.54478 14 7.99249Z" fill="#1F2937"/>
<path fill-rule="evenodd" clip-rule="evenodd" d="M14 12C14 11.4477 14.4477 11 15 11H17C17.5523 11 18 11.4477 18 12C18 12.5523 17.5523 13 17 13H15C14.4477 13 14 12.5523 14 12Z" fill="#1F2937"/>
<path fill-rule="evenodd" clip-rule="evenodd" d="M6 16.0075C6 15.4552 6.44772 15.0075 7 15.0075H17C17.5523 15.0075 18 15.4552 18 16.0075C18 16.5598 17.5523 17.0075 17 17.0075H7C6.44772 17.0075 6 16.5598 6 16.0075Z" fill="#1F2937"/>
</svg>
