<svg width="24" height="24" viewBox="0 0 24 24" fill="none" xmlns="http://www.w3.org/2000/svg">
<path fill-rule="evenodd" clip-rule="evenodd" d="M6 5.00751C5.44772 5.00751 5 5.45522 5 6.00751V18.0075C5 18.5598 5.44772 19.0075 6 19.0075H18C18.5523 19.0075 19 18.5598 19 18.0075V6.00751C19 5.45522 18.5523 5.00751 18 5.00751H6ZM3 6.00751C3 4.35065 4.34315 3.00751 6 3.00751H18C19.6569 3.00751 21 4.35065 21 6.00751V18.0075C21 19.6644 19.6569 21.0075 18 21.0075H6C4.34315 21.0075 3 19.6644 3 18.0075V6.00751Z" fill="#1F2937"/>
<path fill-rule="evenodd" clip-rule="evenodd" d="M3 13.0075C3 12.4552 3.44772 12.0075 4 12.0075H7C7.26522 12.0075 7.51957 12.1129 7.70711 12.3004L10.4142 15.0075H13.5858L16.2929 12.3004C16.4804 12.1129 16.7348 12.0075 17 12.0075H20C20.5523 12.0075 21 12.4552 21 13.0075C21 13.5598 20.5523 14.0075 20 14.0075H17.4142L14.7071 16.7146C14.5196 16.9021 14.2652 17.0075 14 17.0075H10C9.73478 17.0075 9.48043 16.9021 9.29289 16.7146L6.58579 14.0075H4C3.44772 14.0075 3 13.5598 3 13.0075Z" fill="#1F2937"/>
</svg>
