<svg width="24" height="24" viewBox="0 0 24 24" fill="none" xmlns="http://www.w3.org/2000/svg">
<path fill-rule="evenodd" clip-rule="evenodd" d="M12 6C12 5.44772 12.4477 5 13 5H20C20.5523 5 21 5.44772 21 6C21 6.55228 20.5523 7 20 7H13C12.4477 7 12 6.55228 12 6Z" fill="#1F2937"/>
<path fill-rule="evenodd" clip-rule="evenodd" d="M10 12C10 11.4477 10.4477 11 11 11H20C20.5523 11 21 11.4477 21 12C21 12.5523 20.5523 13 20 13H11C10.4477 13 10 12.5523 10 12Z" fill="#1F2937"/>
<path fill-rule="evenodd" clip-rule="evenodd" d="M12 18C12 17.4477 12.4477 17 13 17H20C20.5523 17 21 17.4477 21 18C21 18.5523 20.5523 19 20 19H13C12.4477 19 12 18.5523 12 18Z" fill="#1F2937"/>
<path fill-rule="evenodd" clip-rule="evenodd" d="M8.70711 7.28545C9.09763 7.67597 9.09763 8.30914 8.70711 8.69966L5.41421 11.9926L8.70711 15.2854C9.09763 15.676 9.09763 16.3091 8.70711 16.6997C8.31658 17.0902 7.68342 17.0902 7.29289 16.6997L3.29289 12.6997C2.90237 12.3091 2.90237 11.676 3.29289 11.2854L7.29289 7.28545C7.68342 6.89492 8.31658 6.89492 8.70711 7.28545Z" fill="#1F2937"/>
</svg>
