<svg width="24" height="24" viewBox="0 0 24 24" fill="none" xmlns="http://www.w3.org/2000/svg">
<path fill-rule="evenodd" clip-rule="evenodd" d="M8 6C8 5.44772 8.44772 5 9 5H20C20.5523 5 21 5.44772 21 6C21 6.55228 20.5523 7 20 7H9C8.44772 7 8 6.55228 8 6Z" fill="#1F2937"/>
<path fill-rule="evenodd" clip-rule="evenodd" d="M12 12C12 11.4477 12.4477 11 13 11H20C20.5523 11 21 11.4477 21 12C21 12.5523 20.5523 13 20 13H13C12.4477 13 12 12.5523 12 12Z" fill="#1F2937"/>
<path fill-rule="evenodd" clip-rule="evenodd" d="M8 18C8 17.4477 8.44772 17 9 17H20C20.5523 17 21 17.4477 21 18C21 18.5523 20.5523 19 20 19H9C8.44772 19 8 18.5523 8 18Z" fill="#1F2937"/>
<path fill-rule="evenodd" clip-rule="evenodd" d="M3.29289 7.28545C3.68342 6.89492 4.31658 6.89492 4.70711 7.28545L8.70711 11.2854C9.09763 11.676 9.09763 12.3091 8.70711 12.6997L4.70711 16.6997C4.31658 17.0902 3.68342 17.0902 3.29289 16.6997C2.90237 16.3091 2.90237 15.676 3.29289 15.2854L6.58579 11.9926L3.29289 8.69966C2.90237 8.30914 2.90237 7.67597 3.29289 7.28545Z" fill="#1F2937"/>
</svg>
