<svg width="24" height="24" viewBox="0 0 24 24" fill="none" xmlns="http://www.w3.org/2000/svg">
<path fill-rule="evenodd" clip-rule="evenodd" d="M5.08595 7.37295C5.99967 6.99456 7.00508 6.89563 7.97503 7.08868C8.93672 7.28008 9.82071 7.74999 10.5172 8.43968C11.067 8.94046 11.5635 9.49472 11.9999 10.0934C12.4362 9.49472 12.9328 8.94045 13.4826 8.43967C14.179 7.74999 15.063 7.28008 16.0247 7.08868C16.9947 6.89563 18.0001 6.99456 18.9138 7.37295C19.8275 7.75135 20.6085 8.39221 21.158 9.21449C21.7074 10.0368 22.0007 11.0035 22.0007 11.9925C22.0007 12.9815 21.7074 13.9482 21.158 14.7705C20.6085 15.5928 19.8275 16.2336 18.9138 16.612C18.0001 16.9904 16.9947 17.0894 16.0247 16.8963C15.063 16.7049 14.179 16.235 13.4826 15.5453C12.9328 15.0445 12.4362 14.4903 11.9999 13.8915C11.5635 14.4903 11.067 15.0445 10.5172 15.5453C9.82071 16.235 8.93672 16.7049 7.97503 16.8963C7.00508 17.0894 5.99967 16.9904 5.08595 16.612C4.17224 16.2336 3.39125 15.5928 2.84178 14.7705C2.29231 13.9482 1.99902 12.9815 1.99902 11.9925C1.99902 11.0035 2.29231 10.0368 2.84178 9.21449C3.39125 8.39221 4.17224 7.75135 5.08595 7.37295ZM10.8579 11.9925C10.4002 11.2182 9.82855 10.516 9.16132 9.90999C9.15352 9.903 9.1458 9.89587 9.13818 9.8886C9.1307 9.88149 9.12336 9.87429 9.11616 9.867C8.69732 9.44981 8.16451 9.16562 7.58463 9.05021C7.00266 8.93438 6.39941 8.99373 5.85118 9.22077C5.30295 9.44781 4.83436 9.83232 4.50468 10.3257C4.17499 10.8191 3.99902 11.3991 3.99902 11.9925C3.99902 12.5859 4.17499 13.1659 4.50468 13.6593C4.83436 14.1527 5.30295 14.5372 5.85118 14.7642C6.39941 14.9913 7.00266 15.0506 7.58463 14.9348C8.1666 14.819 8.70114 14.5331 9.12066 14.1135C9.1322 14.102 9.14402 14.0907 9.1561 14.0797C9.82557 13.4726 10.399 12.7688 10.8579 11.9925ZM13.1419 11.9925C13.6007 12.7688 14.1742 13.4726 14.8437 14.0797C14.8557 14.0907 14.8676 14.102 14.8791 14.1135C15.2986 14.5331 15.8332 14.819 16.4151 14.9348C16.9971 15.0506 17.6003 14.9913 18.1486 14.7642C18.6968 14.5372 19.1654 14.1527 19.4951 13.6593C19.8248 13.1659 20.0007 12.5859 20.0007 11.9925C20.0007 11.3991 19.8248 10.8191 19.4951 10.3257C19.1654 9.83232 18.6968 9.44781 18.1486 9.22077C17.6003 8.99373 16.9971 8.93438 16.4151 9.05021C15.8332 9.16603 15.2986 9.45185 14.8791 9.8715C14.8676 9.88303 14.8557 9.89429 14.8437 9.90525C14.1742 10.5124 13.6007 11.2162 13.1419 11.9925Z" fill="#1F2937"/>
</svg>
