<svg width="24" height="24" viewBox="0 0 24 24" fill="none" xmlns="http://www.w3.org/2000/svg">
<path fill-rule="evenodd" clip-rule="evenodd" d="M11 7.99255C11 7.44027 11.4477 6.99255 12 6.99255H12.01C12.5623 6.99255 13.01 7.44027 13.01 7.99255C13.01 8.54484 12.5623 8.99255 12.01 8.99255H12C11.4477 8.99255 11 8.54484 11 7.99255Z" fill="#1F2937"/>
<path fill-rule="evenodd" clip-rule="evenodd" d="M6 5.00745C5.44772 5.00745 5 5.45516 5 6.00745V18.0074C5 18.5597 5.44772 19.0074 6 19.0074H18C18.5523 19.0074 19 18.5597 19 18.0074V6.00745C19 5.45516 18.5523 5.00745 18 5.00745H6ZM3 6.00745C3 4.35059 4.34315 3.00745 6 3.00745H18C19.6569 3.00745 21 4.35059 21 6.00745V18.0074C21 19.6643 19.6569 21.0074 18 21.0074H6C4.34315 21.0074 3 19.6643 3 18.0074V6.00745Z" fill="#1F2937"/>
<path fill-rule="evenodd" clip-rule="evenodd" d="M10 12C10 11.4477 10.4477 11 11 11H12C12.5523 11 13 11.4477 13 12V15C13.5523 15 14 15.4477 14 16C14 16.5523 13.5523 17 13 17H12C11.4477 17 11 16.5523 11 16V13C10.4477 13 10 12.5523 10 12Z" fill="#1F2937"/>
</svg>
