<svg width="20" height="20" viewBox="0 0 20 20" fill="none" xmlns="http://www.w3.org/2000/svg">
<rect x="1.25" y="1.25" width="17.5" height="17.5" rx="4" fill="url(#paint0_radial_1517_1011432)"/>
<rect x="1.25" y="1.25" width="17.5" height="17.5" rx="4" fill="url(#paint1_radial_1517_1011432)"/>
<rect x="1.25" y="1.25" width="17.5" height="17.5" rx="4" fill="url(#paint2_radial_1517_1011432)"/>
<path d="M14 7C14 7.55227 13.5523 8 13 8C12.4477 8 12 7.55227 12 7C12 6.44771 12.4477 6 13 6C13.5523 6 14 6.44771 14 7Z" fill="white"/>
<path fill-rule="evenodd" clip-rule="evenodd" d="M10 13C11.6568 13 13 11.6568 13 10C13 8.34316 11.6568 7 10 7C8.34316 7 7 8.34316 7 10C7 11.6568 8.34316 13 10 13ZM10 11.8C10.9941 11.8 11.8 10.9941 11.8 10C11.8 9.00586 10.9941 8.2 10 8.2C9.00586 8.2 8.2 9.00586 8.2 10C8.2 10.9941 9.00586 11.8 10 11.8Z" fill="white"/>
<path fill-rule="evenodd" clip-rule="evenodd" d="M4 9.76C4 7.74382 4 6.7357 4.39238 5.96564C4.73752 5.28825 5.28825 4.73752 5.96564 4.39238C6.7357 4 7.74382 4 9.76 4H10.24C12.2562 4 13.2643 4 14.0343 4.39238C14.7117 4.73752 15.2625 5.28825 15.6076 5.96564C16 6.7357 16 7.74382 16 9.76V10.24C16 12.2562 16 13.2643 15.6076 14.0343C15.2625 14.7117 14.7117 15.2625 14.0343 15.6076C13.2643 16 12.2562 16 10.24 16H9.76C7.74382 16 6.7357 16 5.96564 15.6076C5.28825 15.2625 4.73752 14.7117 4.39238 14.0343C4 13.2643 4 12.2562 4 10.24V9.76ZM9.76 5.2H10.24C11.2679 5.2 11.9666 5.20094 12.5067 5.24506C13.0329 5.28804 13.3019 5.36595 13.4896 5.46158C13.9412 5.69168 14.3083 6.05883 14.5384 6.5104C14.634 6.69808 14.712 6.96712 14.7549 7.49326C14.799 8.03338 14.8 8.73208 14.8 9.76V10.24C14.8 11.2679 14.799 11.9666 14.7549 12.5067C14.712 13.0329 14.634 13.3019 14.5384 13.4896C14.3083 13.9412 13.9412 14.3083 13.4896 14.5384C13.3019 14.634 13.0329 14.712 12.5067 14.7549C11.9666 14.799 11.2679 14.8 10.24 14.8H9.76C8.73208 14.8 8.03338 14.799 7.49326 14.7549C6.96712 14.712 6.69808 14.634 6.5104 14.5384C6.05883 14.3083 5.69168 13.9412 5.46158 13.4896C5.36595 13.3019 5.28804 13.0329 5.24506 12.5067C5.20094 11.9666 5.2 11.2679 5.2 10.24V9.76C5.2 8.73208 5.20094 8.03338 5.24506 7.49326C5.28804 6.96712 5.36595 6.69808 5.46158 6.5104C5.69168 6.05883 6.05883 5.69168 6.5104 5.46158C6.69808 5.36595 6.96712 5.28804 7.49326 5.24506C8.03338 5.20094 8.73208 5.2 9.76 5.2Z" fill="white"/>
<defs>
<radialGradient id="paint0_radial_1517_1011432" cx="0" cy="0" r="1" gradientUnits="userSpaceOnUse" gradientTransform="translate(7.5 14.375) rotate(-55.3758) scale(15.9498)">
<stop stop-color="#B13589"/>
<stop offset="0.79309" stop-color="#C62F94"/>
<stop offset="1" stop-color="#8A3AC8"/>
</radialGradient>
<radialGradient id="paint1_radial_1517_1011432" cx="0" cy="0" r="1" gradientUnits="userSpaceOnUse" gradientTransform="translate(6.875 19.375) rotate(-65.1363) scale(14.1214)">
<stop stop-color="#E0E8B7"/>
<stop offset="0.444662" stop-color="#FB8A2E"/>
<stop offset="0.71474" stop-color="#E2425C"/>
<stop offset="1" stop-color="#E2425C" stop-opacity="0"/>
</radialGradient>
<radialGradient id="paint2_radial_1517_1011432" cx="0" cy="0" r="1" gradientUnits="userSpaceOnUse" gradientTransform="translate(0.3125 1.875) rotate(-8.1301) scale(24.3068 5.19897)">
<stop offset="0.156701" stop-color="#406ADC"/>
<stop offset="0.467799" stop-color="#6A45BE"/>
<stop offset="1" stop-color="#6A45BE" stop-opacity="0"/>
</radialGradient>
</defs>
</svg>
