<svg width="24" height="24" viewBox="0 0 24 24" fill="none" xmlns="http://www.w3.org/2000/svg">
<path fill-rule="evenodd" clip-rule="evenodd" d="M10 4.99255C10 4.44027 10.4477 3.99255 11 3.99255H17C17.5523 3.99255 18 4.44027 18 4.99255C18 5.54484 17.5523 5.99255 17 5.99255H11C10.4477 5.99255 10 5.54484 10 4.99255Z" fill="#1F2937"/>
<path fill-rule="evenodd" clip-rule="evenodd" d="M6 19.0074C6 18.4552 6.44772 18.0074 7 18.0074H13C13.5523 18.0074 14 18.4552 14 19.0074C14 19.5597 13.5523 20.0074 13 20.0074H7C6.44772 20.0074 6 19.5597 6 19.0074Z" fill="#1F2937"/>
<path fill-rule="evenodd" clip-rule="evenodd" d="M14.2745 4.03104C14.8055 4.18277 15.113 4.73625 14.9613 5.26729L10.9613 19.2673C10.8096 19.7983 10.2561 20.1058 9.72505 19.9541C9.19401 19.8024 8.88652 19.2489 9.03825 18.7178L13.0382 4.71785C13.19 4.18681 13.7435 3.87932 14.2745 4.03104Z" fill="#1F2937"/>
</svg>
