<svg width="24" height="24" viewBox="0 0 24 24" fill="none" xmlns="http://www.w3.org/2000/svg">
<g clip-path="url(#clip0_4238_837713)">
<path d="M8 7C8.79565 7 9.55849 7.3163 10.1211 7.87891C10.6837 8.44151 11 9.20435 11 10V18C11 18.7957 10.6837 19.5585 10.1211 20.1211C9.55849 20.6837 8.79565 21 8 21H6C5.20435 21 4.44151 20.6837 3.87891 20.1211C3.3163 19.5585 3 18.7956 3 18V10C3 9.20435 3.3163 8.44152 3.87891 7.87891C4.44151 7.3163 5.20435 7 6 7H8ZM6 9C5.73478 9 5.48051 9.10543 5.29297 9.29297C5.10543 9.4805 5 9.73478 5 10V18C5 18.2652 5.10543 18.5195 5.29297 18.707C5.48051 18.8946 5.73478 19 6 19H8C8.26522 19 8.51949 18.8946 8.70703 18.707C8.89457 18.5195 9 18.2652 9 18V10C9 9.73478 8.89457 9.48051 8.70703 9.29297C8.51949 9.10543 8.26522 9 8 9H6ZM18 7C18.7957 7 19.5585 7.3163 20.1211 7.87891C20.6837 8.44151 21 9.20435 21 10V12C21 12.7957 20.6837 13.5585 20.1211 14.1211C19.5585 14.6837 18.7957 15 18 15H16C15.2043 15 14.4415 14.6837 13.8789 14.1211C13.3163 13.5585 13 12.7957 13 12V10C13 9.20435 13.3163 8.44151 13.8789 7.87891C14.4415 7.3163 15.2043 7 16 7H18ZM16 9C15.7348 9 15.4805 9.10543 15.293 9.29297C15.1054 9.48051 15 9.73478 15 10V12C15 12.2652 15.1054 12.5195 15.293 12.707C15.4805 12.8946 15.7348 13 16 13H18C18.2652 13 18.5195 12.8946 18.707 12.707C18.8946 12.5195 19 12.2652 19 12V10C19 9.73478 18.8946 9.48051 18.707 9.29297C18.5195 9.10543 18.2652 9 18 9H16ZM10 3C10.5523 3 11 3.44772 11 4C11 4.55228 10.5523 5 10 5H4C3.44772 5 3 4.55228 3 4C3 3.44772 3.44772 3 4 3H10ZM20 3C20.5523 3 21 3.44772 21 4C21 4.55228 20.5523 5 20 5H14C13.4477 5 13 4.55228 13 4C13 3.44772 13.4477 3 14 3H20Z" fill="#1F2937"/>
</g>
<defs>
<clipPath id="clip0_4238_837713">
<rect width="24" height="24" fill="white"/>
</clipPath>
</defs>
</svg>
