<svg width="24" height="24" viewBox="0 0 24 24" fill="none" xmlns="http://www.w3.org/2000/svg">
<path fill-rule="evenodd" clip-rule="evenodd" d="M8 11.9925C6.34315 11.9925 5 13.3356 5 14.9925C5 16.6493 6.34315 17.9925 8 17.9925C9.65685 17.9925 11 16.6493 11 14.9925C11 13.3356 9.65685 11.9925 8 11.9925ZM3 14.9925C3 12.2311 5.23858 9.99249 8 9.99249C10.7614 9.99249 13 12.2311 13 14.9925C13 17.7539 10.7614 19.9925 8 19.9925C5.23858 19.9925 3 17.7539 3 14.9925Z" fill="#1F2937"/>
<path fill-rule="evenodd" clip-rule="evenodd" d="M19.7072 3.3004C20.0977 3.69092 20.0977 4.32409 19.7072 4.71461L11.5572 12.8646C11.1667 13.2551 10.5335 13.2551 10.143 12.8646C9.75247 12.4741 9.75247 11.8409 10.143 11.4504L18.293 3.3004C18.6835 2.90988 19.3167 2.90988 19.7072 3.3004Z" fill="#1F2937"/>
<path fill-rule="evenodd" clip-rule="evenodd" d="M17.2929 4.28539C17.6834 3.89486 18.3166 3.89486 18.7071 4.28539L20.7071 6.28539C21.0976 6.67591 21.0976 7.30907 20.7071 7.6996C20.3166 8.09012 19.6834 8.09012 19.2929 7.6996L17.2929 5.6996C16.9024 5.30908 16.9024 4.67591 17.2929 4.28539Z" fill="#1F2937"/>
<path fill-rule="evenodd" clip-rule="evenodd" d="M14.2929 7.28539C14.6834 6.89486 15.3166 6.89486 15.7071 7.28539L17.7071 9.28539C18.0976 9.67591 18.0976 10.3091 17.7071 10.6996C17.3166 11.0901 16.6834 11.0901 16.2929 10.6996L14.2929 8.6996C13.9024 8.30908 13.9024 7.67591 14.2929 7.28539Z" fill="#1F2937"/>
</svg>
