<svg width="24" height="24" viewBox="0 0 24 24" fill="none" xmlns="http://www.w3.org/2000/svg">
<path fill-rule="evenodd" clip-rule="evenodd" d="M5 5.00751C4.44772 5.00751 4 5.45522 4 6.00751V18.0075C4 18.5598 4.44772 19.0075 5 19.0075H19C19.5523 19.0075 20 18.5598 20 18.0075V6.00751C20 5.45522 19.5523 5.00751 19 5.00751H5ZM2 6.00751C2 4.35065 3.34315 3.00751 5 3.00751H19C20.6569 3.00751 22 4.35065 22 6.00751V18.0075C22 19.6644 20.6569 21.0075 19 21.0075H5C3.34315 21.0075 2 19.6644 2 18.0075V6.00751Z" fill="#1F2937"/>
<path fill-rule="evenodd" clip-rule="evenodd" d="M7 6.99249C7.55228 6.99249 8 7.44021 8 7.99249V8.00249C8 8.55478 7.55228 9.00249 7 9.00249C6.44772 9.00249 6 8.55478 6 8.00249V7.99249C6 7.44021 6.44772 6.99249 7 6.99249Z" fill="#1F2937"/>
<path fill-rule="evenodd" clip-rule="evenodd" d="M12 6.99249C12.5523 6.99249 13 7.44021 13 7.99249V8.00249C13 8.55478 12.5523 9.00249 12 9.00249C11.4477 9.00249 11 8.55478 11 8.00249V7.99249C11 7.44021 11.4477 6.99249 12 6.99249Z" fill="#1F2937"/>
<path fill-rule="evenodd" clip-rule="evenodd" d="M17 6.99249C17.5523 6.99249 18 7.44021 18 7.99249V8.00249C18 8.55478 17.5523 9.00249 17 9.00249C16.4477 9.00249 16 8.55478 16 8.00249V7.99249C16 7.44021 16.4477 6.99249 17 6.99249Z" fill="#1F2937"/>
<path fill-rule="evenodd" clip-rule="evenodd" d="M7 11C7.55228 11 8 11.4477 8 12V12.01C8 12.5623 7.55228 13.01 7 13.01C6.44772 13.01 6 12.5623 6 12.01V12C6 11.4477 6.44772 11 7 11Z" fill="#1F2937"/>
<path fill-rule="evenodd" clip-rule="evenodd" d="M12 11C12.5523 11 13 11.4477 13 12V12.01C13 12.5623 12.5523 13.01 12 13.01C11.4477 13.01 11 12.5623 11 12.01V12C11 11.4477 11.4477 11 12 11Z" fill="#1F2937"/>
<path fill-rule="evenodd" clip-rule="evenodd" d="M17 11C17.5523 11 18 11.4477 18 12V12.01C18 12.5623 17.5523 13.01 17 13.01C16.4477 13.01 16 12.5623 16 12.01V12C16 11.4477 16.4477 11 17 11Z" fill="#1F2937"/>
<path fill-rule="evenodd" clip-rule="evenodd" d="M6 16.0075C6 15.4552 6.44772 15.0075 7 15.0075H17C17.5523 15.0075 18 15.4552 18 16.0075C18 16.5598 17.5523 17.0075 17 17.0075H7C6.44772 17.0075 6 16.5598 6 16.0075Z" fill="#1F2937"/>
</svg>
