<svg width="24" height="24" viewBox="0 0 24 24" fill="none" xmlns="http://www.w3.org/2000/svg">
<path fill-rule="evenodd" clip-rule="evenodd" d="M10 3.99252C10.5523 3.99252 11 4.44024 11 4.99252V5.99252H12C12.5523 5.99252 13 6.44024 13 6.99252C13 7.54481 12.5523 7.99252 12 7.99252H10.9636C10.8238 9.90884 10.2832 11.7399 9.38353 13.1794C9.35415 13.2264 9.32437 13.273 9.29422 13.3191C10.2611 13.7163 11.4505 13.9616 12.7245 13.9928C13.2766 14.0064 13.7132 14.4649 13.6997 15.017C13.6862 15.5691 13.2276 16.0058 12.6755 15.9922C10.9512 15.95 9.26926 15.5709 7.91296 14.8857C7.06557 15.5814 6.07537 15.9925 5 15.9925C4.44772 15.9925 4 15.5448 4 14.9925C4 14.4402 4.44772 13.9925 5 13.9925C5.37973 13.9925 5.7834 13.8865 6.18627 13.6573C5.45694 12.9166 4.99836 12.0108 5 10.9909C5.00089 10.4386 5.44932 9.99164 6.00161 9.99252C6.55389 9.99341 7.00089 10.4418 7 10.9941C6.99941 11.359 7.16706 11.8021 7.60404 12.2495C7.63206 12.207 7.65989 12.1636 7.68754 12.1194C8.36717 11.032 8.8217 9.58024 8.95749 7.99252H5C4.44772 7.99252 4 7.54481 4 6.99252C4 6.44024 4.44772 5.99252 5 5.99252H9V4.99252C9 4.44024 9.44772 3.99252 10 3.99252Z" fill="#1F2937"/>
<path fill-rule="evenodd" clip-rule="evenodd" d="M14.9998 9.00748C15.3949 9.00748 15.7531 9.24021 15.9136 9.60134L19.9136 18.6013C20.1379 19.106 19.9106 19.697 19.4059 19.9213C18.9012 20.1456 18.3103 19.9183 18.0859 19.4136L17.461 18.0075H12.5385L11.9136 19.4136C11.6893 19.9183 11.0983 20.1456 10.5936 19.9213C10.0889 19.697 9.86165 19.106 10.0859 18.6013L14.0859 9.60134C14.2465 9.24021 14.6046 9.00748 14.9998 9.00748ZM13.4274 16.0075H16.5721L14.9998 12.4697L13.4274 16.0075Z" fill="#1F2937"/>
</svg>
