<svg width="24" height="24" viewBox="0 0 24 24" fill="none" xmlns="http://www.w3.org/2000/svg">
<path fill-rule="evenodd" clip-rule="evenodd" d="M10 5.00745C9.44772 5.00745 9 5.45516 9 6.00745V14.0074C9 14.5597 9.44772 15.0074 10 15.0074H18C18.5523 15.0074 19 14.5597 19 14.0074V6.00745C19 5.45516 18.5523 5.00745 18 5.00745H10ZM7 6.00745C7 4.35059 8.34315 3.00745 10 3.00745H18C19.6569 3.00745 21 4.35059 21 6.00745V14.0074C21 15.6643 19.6569 17.0074 18 17.0074H10C8.34315 17.0074 7 15.6643 7 14.0074V6.00745Z" fill="#1F2937"/>
<path fill-rule="evenodd" clip-rule="evenodd" d="M6 8.99255C5.73478 8.99255 5.48043 9.09791 5.29289 9.28545C5.10536 9.47298 5 9.72734 5 9.99255V17.9926C5 18.2578 5.10536 18.5121 5.29289 18.6997C5.48043 18.8872 5.73478 18.9926 6 18.9926H14C14.2652 18.9926 14.5196 18.8872 14.7071 18.6997C14.8946 18.5121 15 18.2578 15 17.9926V15.9926C15 15.4403 15.4477 14.9926 16 14.9926C16.5523 14.9926 17 15.4403 17 15.9926V17.9926C17 18.7882 16.6839 19.5513 16.1213 20.1139C15.5587 20.6765 14.7957 20.9926 14 20.9926H6C5.20435 20.9926 4.44129 20.6765 3.87868 20.1139C3.31607 19.5513 3 18.7882 3 17.9926V9.99255C3 9.1969 3.31607 8.43384 3.87868 7.87123C4.44129 7.30862 5.20435 6.99255 6 6.99255H8C8.55228 6.99255 9 7.44027 9 7.99255C9 8.54484 8.55228 8.99255 8 8.99255H6Z" fill="#1F2937"/>
</svg>
