<svg width="24" height="24" viewBox="0 0 24 24" fill="none" xmlns="http://www.w3.org/2000/svg">
<path fill-rule="evenodd" clip-rule="evenodd" d="M10 5.00745C9.73478 5.00745 9.48043 5.1128 9.29289 5.30034C9.10536 5.48788 9 5.74223 9 6.00745V8.00745C9 8.55973 8.55228 9.00745 8 9.00745H6C5.73478 9.00745 5.48043 9.1128 5.29289 9.30034C5.10536 9.48788 5 9.74223 5 10.0074V18.0074C5 18.2727 5.10536 18.527 5.29289 18.7146C5.48043 18.9021 5.73478 19.0074 6 19.0074H14C14.2652 19.0074 14.5196 18.9021 14.7071 18.7146C14.8946 18.527 15 18.2727 15 18.0074V16.0074C15 15.4552 15.4477 15.0074 16 15.0074H18C18.2652 15.0074 18.5196 14.9021 18.7071 14.7146C18.8946 14.527 19 14.2727 19 14.0074V6.00745C19 5.74223 18.8946 5.48788 18.7071 5.30034C18.5196 5.1128 18.2652 5.00745 18 5.00745H10ZM7.87868 3.88613C8.44129 3.32352 9.20435 3.00745 10 3.00745H18C18.7956 3.00745 19.5587 3.32352 20.1213 3.88613C20.6839 4.44873 21 5.2118 21 6.00745V14.0074C21 14.8031 20.6839 15.5662 20.1213 16.1288C19.5587 16.6914 18.7957 17.0074 18 17.0074H17V18.0074C17 18.8031 16.6839 19.5662 16.1213 20.1288C15.5587 20.6914 14.7957 21.0074 14 21.0074H6C5.20435 21.0074 4.44129 20.6914 3.87868 20.1288C3.31607 19.5662 3 18.8031 3 18.0074V10.0074C3 9.2118 3.31607 8.44874 3.87868 7.88613C4.44129 7.32352 5.20435 7.00745 6 7.00745H7V6.00745C7 5.2118 7.31607 4.44873 7.87868 3.88613Z" fill="#1F2937"/>
</svg>
