<svg width="24" height="24" viewBox="0 0 24 24" fill="none" xmlns="http://www.w3.org/2000/svg">
<path fill-rule="evenodd" clip-rule="evenodd" d="M10 5.00745C9.73478 5.00745 9.48043 5.1128 9.29289 5.30034C9.10536 5.48788 9 5.74223 9 6.00745V8.00745C9 8.55973 8.55228 9.00745 8 9.00745H6C5.73478 9.00745 5.48043 9.1128 5.29289 9.30034C5.10536 9.48788 5 9.74223 5 10.0074V18.0074C5 18.2727 5.10536 18.527 5.29289 18.7146C5.48043 18.9021 5.73478 19.0074 6 19.0074H14C14.2652 19.0074 14.5196 18.9021 14.7071 18.7146C14.8946 18.527 15 18.2727 15 18.0074V16.0074C15 15.4552 15.4477 15.0074 16 15.0074H18C18.2652 15.0074 18.5196 14.9021 18.7071 14.7146C18.8946 14.527 19 14.2727 19 14.0074V6.00745C19 5.74223 18.8946 5.48788 18.7071 5.30034C18.5196 5.1128 18.2652 5.00745 18 5.00745H10ZM7.87868 3.88613C8.44129 3.32352 9.20435 3.00745 10 3.00745H18C18.7956 3.00745 19.5587 3.32352 20.1213 3.88613C20.6839 4.44873 21 5.2118 21 6.00745V14.0074C21 14.8031 20.6839 15.5662 20.1213 16.1288C19.5587 16.6914 18.7957 17.0074 18 17.0074H17V18.0074C17 18.8031 16.6839 19.5662 16.1213 20.1288C15.5587 20.6914 14.7957 21.0074 14 21.0074H6C5.20435 21.0074 4.44129 20.6914 3.87868 20.1288C3.31607 19.5662 3 18.8031 3 18.0074V10.0074C3 9.2118 3.31607 8.44874 3.87868 7.88613C4.44129 7.32352 5.20435 7.00745 6 7.00745H7V6.00745C7 5.2118 7.31607 4.44873 7.87868 3.88613Z" fill="#1F2937"/>
<path fill-rule="evenodd" clip-rule="evenodd" d="M7 7.99255C7 7.44027 7.44772 6.99255 8 6.99255H10C10.5523 6.99255 11 7.44027 11 7.99255C11 8.54484 10.5523 8.99255 10 8.99255H9V9.99255C9 10.5448 8.55228 10.9926 8 10.9926C7.44772 10.9926 7 10.5448 7 9.99255V7.99255ZM13 7.99255C13 7.44027 13.4477 6.99255 14 6.99255H16C16.5523 6.99255 17 7.44027 17 7.99255V9.99255C17 10.5448 16.5523 10.9926 16 10.9926C15.4477 10.9926 15 10.5448 15 9.99255V8.99255H14C13.4477 8.99255 13 8.54484 13 7.99255ZM8 12.9926C8.55228 12.9926 9 13.4403 9 13.9926V14.9926H10C10.5523 14.9926 11 15.4403 11 15.9926C11 16.5448 10.5523 16.9926 10 16.9926H8C7.44772 16.9926 7 16.5448 7 15.9926V13.9926C7 13.4403 7.44772 12.9926 8 12.9926ZM16 12.9926C16.5523 12.9926 17 13.4403 17 13.9926V15.9926C17 16.5448 16.5523 16.9926 16 16.9926H14C13.4477 16.9926 13 16.5448 13 15.9926C13 15.4403 13.4477 14.9926 14 14.9926H15V13.9926C15 13.4403 15.4477 12.9926 16 12.9926Z" fill="#1F2937"/>
</svg>
