<svg width="24" height="24" viewBox="0 0 24 24" fill="none" xmlns="http://www.w3.org/2000/svg">
<path fill-rule="evenodd" clip-rule="evenodd" d="M10 5.00745C9.44772 5.00745 9 5.45516 9 6.00745V14.0074C9 14.5597 9.44772 15.0074 10 15.0074H18C18.5523 15.0074 19 14.5597 19 14.0074V6.00745C19 5.45516 18.5523 5.00745 18 5.00745H10ZM7 6.00745C7 4.35059 8.34315 3.00745 10 3.00745H18C19.6569 3.00745 21 4.35059 21 6.00745V14.0074C21 15.6643 19.6569 17.0074 18 17.0074H10C8.34315 17.0074 7 15.6643 7 14.0074V6.00745Z" fill="#1F2937"/>
<path fill-rule="evenodd" clip-rule="evenodd" d="M6 8.99255C5.44772 8.99255 5 9.44027 5 9.99255V17.9926C5 18.5448 5.44772 18.9926 6 18.9926H14C14.5523 18.9926 15 18.5448 15 17.9926V9.99255C15 9.44027 14.5523 8.99255 14 8.99255H6ZM3 9.99255C3 8.3357 4.34315 6.99255 6 6.99255H14C15.6569 6.99255 17 8.3357 17 9.99255V17.9926C17 19.6494 15.6569 20.9926 14 20.9926H6C4.34315 20.9926 3 19.6494 3 17.9926V9.99255Z" fill="#1F2937"/>
</svg>
