<svg width="24" height="24" viewBox="0 0 24 24" fill="none" xmlns="http://www.w3.org/2000/svg">
<path fill-rule="evenodd" clip-rule="evenodd" d="M4 3.00748C4.55228 3.00748 5 3.45519 5 4.00748V20.0075C5 20.5598 4.55228 21.0075 4 21.0075C3.44772 21.0075 3 20.5598 3 20.0075V4.00748C3 3.45519 3.44772 3.00748 4 3.00748Z" fill="#1F2937"/>
<path fill-rule="evenodd" clip-rule="evenodd" d="M20 3.00748C20.5523 3.00748 21 3.45519 21 4.00748V20.0075C21 20.5598 20.5523 21.0075 20 21.0075C19.4477 21.0075 19 20.5598 19 20.0075V4.00748C19 3.45519 19.4477 3.00748 20 3.00748Z" fill="#1F2937"/>
<path fill-rule="evenodd" clip-rule="evenodd" d="M11 7C10.4477 7 10 7.44772 10 8V16C10 16.5523 10.4477 17 11 17H13C13.5523 17 14 16.5523 14 16V8C14 7.44772 13.5523 7 13 7H11ZM8 8C8 6.34315 9.34315 5 11 5H13C14.6569 5 16 6.34315 16 8V16C16 17.6569 14.6569 19 13 19H11C9.34315 19 8 17.6569 8 16V8Z" fill="#1F2937"/>
</svg>
