<svg width="24" height="24" viewBox="0 0 24 24" fill="none" xmlns="http://www.w3.org/2000/svg">
<path fill-rule="evenodd" clip-rule="evenodd" d="M3 4.00748C3 3.45519 3.44772 3.00748 4 3.00748H20C20.5523 3.00748 21 3.45519 21 4.00748C21 4.55976 20.5523 5.00748 20 5.00748H4C3.44772 5.00748 3 4.55976 3 4.00748Z" fill="#1F2937"/>
<path fill-rule="evenodd" clip-rule="evenodd" d="M3 19.9925C3 19.4402 3.44772 18.9925 4 18.9925H20C20.5523 18.9925 21 19.4402 21 19.9925C21 20.5448 20.5523 20.9925 20 20.9925H4C3.44772 20.9925 3 20.5448 3 19.9925Z" fill="#1F2937"/>
<path fill-rule="evenodd" clip-rule="evenodd" d="M8 10C7.44772 10 7 10.4477 7 11V13C7 13.5523 7.44772 14 8 14H16C16.5523 14 17 13.5523 17 13V11C17 10.4477 16.5523 10 16 10H8ZM5 11C5 9.34315 6.34315 8 8 8H16C17.6569 8 19 9.34315 19 11V13C19 14.6569 17.6569 16 16 16H8C6.34315 16 5 14.6569 5 13V11Z" fill="#1F2937"/>
</svg>
