<svg width="24" height="24" viewBox="0 0 24 24" fill="none" xmlns="http://www.w3.org/2000/svg">
<path fill-rule="evenodd" clip-rule="evenodd" d="M6 5.00748C5.44772 5.00748 5 5.45519 5 6.00748V8.00748C5 8.55976 5.44772 9.00748 6 9.00748H18C18.5523 9.00748 19 8.55976 19 8.00748V6.00748C19 5.45519 18.5523 5.00748 18 5.00748H6ZM3 6.00748C3 4.35062 4.34315 3.00748 6 3.00748H18C19.6569 3.00748 21 4.35062 21 6.00748V8.00748C21 9.66433 19.6569 11.0075 18 11.0075H6C4.34315 11.0075 3 9.66433 3 8.00748V6.00748Z" fill="#1F2937"/>
<path fill-rule="evenodd" clip-rule="evenodd" d="M6 14.9925C5.44772 14.9925 5 15.4402 5 15.9925V17.9925C5 18.5448 5.44772 18.9925 6 18.9925H18C18.5523 18.9925 19 18.5448 19 17.9925V15.9925C19 15.4402 18.5523 14.9925 18 14.9925H6ZM3 15.9925C3 14.3357 4.34315 12.9925 6 12.9925H18C19.6569 12.9925 21 14.3357 21 15.9925V17.9925C21 19.6494 19.6569 20.9925 18 20.9925H6C4.34315 20.9925 3 19.6494 3 17.9925V15.9925Z" fill="#1F2937"/>
</svg>
