<svg width="24" height="24" viewBox="0 0 24 24" fill="none" xmlns="http://www.w3.org/2000/svg">
<path fill-rule="evenodd" clip-rule="evenodd" d="M3 12C3 11.4477 3.44772 11 4 11H9C9.55228 11 10 11.4477 10 12C10 12.5523 9.55228 13 9 13H4C3.44772 13 3 12.5523 3 12Z" fill="#1F2937"/>
<path fill-rule="evenodd" clip-rule="evenodd" d="M14 12C14 11.4477 14.4477 11 15 11H20C20.5523 11 21 11.4477 21 12C21 12.5523 20.5523 13 20 13H15C14.4477 13 14 12.5523 14 12Z" fill="#1F2937"/>
<path fill-rule="evenodd" clip-rule="evenodd" d="M11 7C10.4477 7 10 7.44772 10 8V16C10 16.5523 10.4477 17 11 17H13C13.5523 17 14 16.5523 14 16V8C14 7.44772 13.5523 7 13 7H11ZM8 8C8 6.34315 9.34315 5 11 5H13C14.6569 5 16 6.34315 16 8V16C16 17.6569 14.6569 19 13 19H11C9.34315 19 8 17.6569 8 16V8Z" fill="#1F2937"/>
</svg>
