<svg width="24" height="24" viewBox="0 0 24 24" fill="none" xmlns="http://www.w3.org/2000/svg">
<path fill-rule="evenodd" clip-rule="evenodd" d="M3 19.9925C3 19.4402 3.44772 18.9925 4 18.9925H20C20.5523 18.9925 21 19.4402 21 19.9925C21 20.5448 20.5523 20.9925 20 20.9925H4C3.44772 20.9925 3 20.5448 3 19.9925Z" fill="#1F2937"/>
<path fill-rule="evenodd" clip-rule="evenodd" d="M11 5.00748C10.4477 5.00748 10 5.45519 10 6.00748V14.0075C10 14.5598 10.4477 15.0075 11 15.0075H13C13.5523 15.0075 14 14.5598 14 14.0075V6.00748C14 5.45519 13.5523 5.00748 13 5.00748H11ZM8 6.00748C8 4.35062 9.34315 3.00748 11 3.00748H13C14.6569 3.00748 16 4.35062 16 6.00748V14.0075C16 15.6643 14.6569 17.0075 13 17.0075H11C9.34315 17.0075 8 15.6643 8 14.0075V6.00748Z" fill="#1F2937"/>
</svg>
