<svg width="24" height="24" viewBox="0 0 24 24" fill="none" xmlns="http://www.w3.org/2000/svg">
<path fill-rule="evenodd" clip-rule="evenodd" d="M6 5.00748C5.44772 5.00748 5 5.45519 5 6.00748V18.0075C5 18.5598 5.44772 19.0075 6 19.0075H18C18.5523 19.0075 19 18.5598 19 18.0075V6.00748C19 5.45519 18.5523 5.00748 18 5.00748H6ZM3 6.00748C3 4.35062 4.34315 3.00748 6 3.00748H18C19.6569 3.00748 21 4.35062 21 6.00748V18.0075C21 19.6643 19.6569 21.0075 18 21.0075H6C4.34315 21.0075 3 19.6643 3 18.0075V6.00748Z" fill="#1F2937"/>
<path fill-rule="evenodd" clip-rule="evenodd" d="M9 3.00748C9.55228 3.00748 10 3.45519 10 4.00748V20.0075C10 20.5598 9.55228 21.0075 9 21.0075C8.44772 21.0075 8 20.5598 8 20.0075V4.00748C8 3.45519 8.44772 3.00748 9 3.00748Z" fill="#1F2937"/>
</svg>
