<svg width="24" height="24" viewBox="0 0 24 24" fill="none" xmlns="http://www.w3.org/2000/svg">
<path fill-rule="evenodd" clip-rule="evenodd" d="M12 3.00748C12.5523 3.00748 13 3.45519 13 4.00748V9.00748C13 9.55976 12.5523 10.0075 12 10.0075C11.4477 10.0075 11 9.55976 11 9.00748V4.00748C11 3.45519 11.4477 3.00748 12 3.00748Z" fill="#1F2937"/>
<path fill-rule="evenodd" clip-rule="evenodd" d="M12 14C12.5523 14 13 14.4477 13 15V20C13 20.5523 12.5523 21 12 21C11.4477 21 11 20.5523 11 20V15C11 14.4477 11.4477 14 12 14Z" fill="#1F2937"/>
<path fill-rule="evenodd" clip-rule="evenodd" d="M8 10C7.44772 10 7 10.4477 7 11V13C7 13.5523 7.44772 14 8 14H16C16.5523 14 17 13.5523 17 13V11C17 10.4477 16.5523 10 16 10H8ZM5 11C5 9.34315 6.34315 8 8 8H16C17.6569 8 19 9.34315 19 11V13C19 14.6569 17.6569 16 16 16H8C6.34315 16 5 14.6569 5 13V11Z" fill="#1F2937"/>
</svg>
