<svg width="24" height="24" viewBox="0 0 24 24" fill="none" xmlns="http://www.w3.org/2000/svg">
<path fill-rule="evenodd" clip-rule="evenodd" d="M6 5.00748C5.44772 5.00748 5 5.45519 5 6.00748V7.00748C5 7.55976 5.44772 8.00748 6 8.00748H8C8.55228 8.00748 9 7.55976 9 7.00748V6.00748C9 5.45519 8.55228 5.00748 8 5.00748H6ZM3 6.00748C3 4.35062 4.34315 3.00748 6 3.00748H8C9.65685 3.00748 11 4.35062 11 6.00748V7.00748C11 8.66433 9.65685 10.0075 8 10.0075H6C4.34315 10.0075 3 8.66433 3 7.00748V6.00748Z" fill="#1F2937"/>
<path fill-rule="evenodd" clip-rule="evenodd" d="M6 14.0075C5.44772 14.0075 5 14.4552 5 15.0075V18.0075C5 18.5598 5.44772 19.0075 6 19.0075H8C8.55228 19.0075 9 18.5598 9 18.0075V15.0075C9 14.4552 8.55228 14.0075 8 14.0075H6ZM3 15.0075C3 13.3506 4.34315 12.0075 6 12.0075H8C9.65685 12.0075 11 13.3506 11 15.0075V18.0075C11 19.6643 9.65685 21.0075 8 21.0075H6C4.34315 21.0075 3 19.6643 3 18.0075V15.0075Z" fill="#1F2937"/>
<path fill-rule="evenodd" clip-rule="evenodd" d="M16 5.00748C15.4477 5.00748 15 5.45519 15 6.00748V9.00748C15 9.55976 15.4477 10.0075 16 10.0075H18C18.5523 10.0075 19 9.55976 19 9.00748V6.00748C19 5.45519 18.5523 5.00748 18 5.00748H16ZM13 6.00748C13 4.35062 14.3431 3.00748 16 3.00748H18C19.6569 3.00748 21 4.35062 21 6.00748V9.00748C21 10.6643 19.6569 12.0075 18 12.0075H16C14.3431 12.0075 13 10.6643 13 9.00748V6.00748Z" fill="#1F2937"/>
<path fill-rule="evenodd" clip-rule="evenodd" d="M16 16C15.4477 16 15 16.4477 15 17V18C15 18.5523 15.4477 19 16 19H18C18.5523 19 19 18.5523 19 18V17C19 16.4477 18.5523 16 18 16H16ZM13 17C13 15.3431 14.3431 14 16 14H18C19.6569 14 21 15.3431 21 17V18C21 19.6569 19.6569 21 18 21H16C14.3431 21 13 19.6569 13 18V17Z" fill="#1F2937"/>
</svg>
