<svg width="24" height="24" viewBox="0 0 24 24" fill="none" xmlns="http://www.w3.org/2000/svg">
<path fill-rule="evenodd" clip-rule="evenodd" d="M4 3.00748C4.55228 3.00748 5 3.45519 5 4.00748V20.0075C5 20.5598 4.55228 21.0075 4 21.0075C3.44772 21.0075 3 20.5598 3 20.0075V4.00748C3 3.45519 3.44772 3.00748 4 3.00748Z" fill="#1F2937"/>
<path fill-rule="evenodd" clip-rule="evenodd" d="M10 10C9.44772 10 9 10.4477 9 11V13C9 13.5523 9.44772 14 10 14H18C18.5523 14 19 13.5523 19 13V11C19 10.4477 18.5523 10 18 10H10ZM7 11C7 9.34315 8.34315 8 10 8H18C19.6569 8 21 9.34315 21 11V13C21 14.6569 19.6569 16 18 16H10C8.34315 16 7 14.6569 7 13V11Z" fill="#1F2937"/>
</svg>
