<svg width="24" height="24" viewBox="0 0 24 24" fill="none" xmlns="http://www.w3.org/2000/svg">
<path fill-rule="evenodd" clip-rule="evenodd" d="M3 4.00748C3 3.45519 3.44772 3.00748 4 3.00748H20C20.5523 3.00748 21 3.45519 21 4.00748C21 4.55976 20.5523 5.00748 20 5.00748H4C3.44772 5.00748 3 4.55976 3 4.00748Z" fill="#1F2937"/>
<path fill-rule="evenodd" clip-rule="evenodd" d="M11 8.99252C10.4477 8.99252 10 9.44024 10 9.99252V17.9925C10 18.5448 10.4477 18.9925 11 18.9925H13C13.5523 18.9925 14 18.5448 14 17.9925V9.99252C14 9.44024 13.5523 8.99252 13 8.99252H11ZM8 9.99252C8 8.33567 9.34315 6.99252 11 6.99252H13C14.6569 6.99252 16 8.33567 16 9.99252V17.9925C16 19.6494 14.6569 20.9925 13 20.9925H11C9.34315 20.9925 8 19.6494 8 17.9925V9.99252Z" fill="#1F2937"/>
</svg>
