<svg width="24" height="24" viewBox="0 0 24 24" fill="none" xmlns="http://www.w3.org/2000/svg">
<path fill-rule="evenodd" clip-rule="evenodd" d="M6 5.00748C5.44772 5.00748 5 5.45519 5 6.00748V18.0075C5 18.5598 5.44772 19.0075 6 19.0075H8C8.55228 19.0075 9 18.5598 9 18.0075V6.00748C9 5.45519 8.55228 5.00748 8 5.00748H6ZM3 6.00748C3 4.35062 4.34315 3.00748 6 3.00748H8C9.65685 3.00748 11 4.35062 11 6.00748V18.0075C11 19.6643 9.65685 21.0075 8 21.0075H6C4.34315 21.0075 3 19.6643 3 18.0075V6.00748Z" fill="#1F2937"/>
<path fill-rule="evenodd" clip-rule="evenodd" d="M16 5.00748C15.4477 5.00748 15 5.45519 15 6.00748V12.0075C15 12.5598 15.4477 13.0075 16 13.0075H18C18.5523 13.0075 19 12.5598 19 12.0075V6.00748C19 5.45519 18.5523 5.00748 18 5.00748H16ZM13 6.00748C13 4.35062 14.3431 3.00748 16 3.00748H18C19.6569 3.00748 21 4.35062 21 6.00748V12.0075C21 13.6643 19.6569 15.0075 18 15.0075H16C14.3431 15.0075 13 13.6643 13 12.0075V6.00748Z" fill="#1F2937"/>
</svg>
