<svg width="24" height="24" viewBox="0 0 24 24" fill="none" xmlns="http://www.w3.org/2000/svg">
<path fill-rule="evenodd" clip-rule="evenodd" d="M8.5 10.9925C8.5 10.4402 8.94772 9.99252 9.5 9.99252H9.51C10.0623 9.99252 10.51 10.4402 10.51 10.9925C10.51 11.5448 10.0623 11.9925 9.51 11.9925H9.5C8.94772 11.9925 8.5 11.5448 8.5 10.9925Z" fill="#1F2937"/>
<path fill-rule="evenodd" clip-rule="evenodd" d="M13.5 10.9925C13.5 10.4402 13.9477 9.99252 14.5 9.99252H14.51C15.0623 9.99252 15.51 10.4402 15.51 10.9925C15.51 11.5448 15.0623 11.9925 14.51 11.9925H14.5C13.9477 11.9925 13.5 11.5448 13.5 10.9925Z" fill="#1F2937"/>
<path fill-rule="evenodd" clip-rule="evenodd" d="M8.80015 14.2857C9.19464 13.8992 9.82777 13.9057 10.2143 14.3001C10.4471 14.5377 10.7249 14.7265 11.0315 14.8553C11.3381 14.9841 11.6674 15.0505 12 15.0505C12.3326 15.0505 12.6619 14.9841 12.9685 14.8553C13.2751 14.7265 13.5529 14.5377 13.7857 14.3001C14.1722 13.9057 14.8054 13.8992 15.1999 14.2857C15.5943 14.6722 15.6008 15.3054 15.2143 15.6999C14.7953 16.1275 14.2952 16.4672 13.7433 16.6991C13.1913 16.9311 12.5987 17.0505 12 17.0505C11.4013 17.0505 10.8087 16.9311 10.2567 16.6991C9.70481 16.4672 9.2047 16.1275 8.78571 15.6999C8.3992 15.3054 8.40566 14.6722 8.80015 14.2857Z" fill="#1F2937"/>
<path fill-rule="evenodd" clip-rule="evenodd" d="M7 3C7 2.44772 7.44772 2 8 2H16C16.5523 2 17 2.44772 17 3V4C18.0609 4 19.0783 4.42143 19.8284 5.17157C20.5786 5.92172 21 6.93913 21 8V17C21 18.0609 20.5786 19.0783 19.8284 19.8284C19.3189 20.338 18.686 20.6958 18 20.873V21C18 21.5523 17.5523 22 17 22H7C6.44772 22 6 21.5523 6 21V20.873C5.31397 20.6958 4.68111 20.338 4.17157 19.8284C3.42143 19.0783 3 18.0609 3 17V8C3 6.93913 3.42143 5.92172 4.17157 5.17157C4.92172 4.42143 5.93913 4 7 4V3ZM9 4V5C9 5.55228 8.55228 6 8 6H7C6.46957 6 5.96086 6.21071 5.58579 6.58579C5.21071 6.96086 5 7.46957 5 8V17C5 17.5304 5.21071 18.0391 5.58579 18.4142C5.96086 18.7893 6.46957 19 7 19C7.55228 19 8 19.4477 8 20H16C16 19.4477 16.4477 19 17 19C17.5304 19 18.0391 18.7893 18.4142 18.4142C18.7893 18.0391 19 17.5304 19 17V8C19 7.46957 18.7893 6.96086 18.4142 6.58579C18.0391 6.21071 17.5304 6 17 6H16C15.4477 6 15 5.55228 15 5V4H9Z" fill="#1F2937"/>
</svg>
