<svg width="24" height="24" viewBox="0 0 24 24" fill="none" xmlns="http://www.w3.org/2000/svg">
<path fill-rule="evenodd" clip-rule="evenodd" d="M18 14.0074C16.8954 14.0074 16 14.9029 16 16.0074C16 17.112 16.8954 18.0074 18 18.0074C19.1046 18.0074 20 17.112 20 16.0074C20 14.9029 19.1046 14.0074 18 14.0074ZM14 16.0074C14 13.7983 15.7909 12.0074 18 12.0074C20.2091 12.0074 22 13.7983 22 16.0074C22 18.2166 20.2091 20.0074 18 20.0074C15.7909 20.0074 14 18.2166 14 16.0074Z" fill="#1F2937"/>
<path fill-rule="evenodd" clip-rule="evenodd" d="M21 12.0074C21.5523 12.0074 22 12.4552 22 13.0074V19.0074C22 19.5597 21.5523 20.0074 21 20.0074C20.4477 20.0074 20 19.5597 20 19.0074V13.0074C20 12.4552 20.4477 12.0074 21 12.0074Z" fill="#1F2937"/>
<path fill-rule="evenodd" clip-rule="evenodd" d="M7.99978 5C8.41355 5 8.78459 5.25483 8.93313 5.64102L13.9331 18.641C14.1314 19.1565 13.8742 19.7351 13.3588 19.9333C12.8433 20.1316 12.2647 19.8745 12.0664 19.359L7.99978 8.78568L3.93313 19.359C3.73487 19.8745 3.15627 20.1316 2.6408 19.9333C2.12533 19.7351 1.86818 19.1565 2.06644 18.641L7.06644 5.64102C7.21497 5.25483 7.58601 5 7.99978 5Z" fill="#1F2937"/>
<path fill-rule="evenodd" clip-rule="evenodd" d="M4 13.9926C4 13.4403 4.44772 12.9926 5 12.9926H11C11.5523 12.9926 12 13.4403 12 13.9926C12 14.5448 11.5523 14.9926 11 14.9926H5C4.44772 14.9926 4 14.5448 4 13.9926Z" fill="#1F2937"/>
</svg>
