<svg width="24" height="24" viewBox="0 0 24 24" fill="none" xmlns="http://www.w3.org/2000/svg">
<path fill-rule="evenodd" clip-rule="evenodd" d="M12 8.99249C10.3431 8.99249 9 10.3356 9 11.9925C9 13.6493 10.3431 14.9925 12 14.9925C13.6569 14.9925 15 13.6493 15 11.9925C15 10.3356 13.6569 8.99249 12 8.99249ZM7 11.9925C7 9.23107 9.23858 6.99249 12 6.99249C14.7614 6.99249 17 9.23107 17 11.9925C17 14.7539 14.7614 16.9925 12 16.9925C9.23858 16.9925 7 14.7539 7 11.9925Z" fill="#1F2937"/>
<path fill-rule="evenodd" clip-rule="evenodd" d="M12 4C7.58172 4 4 7.58172 4 12C4 16.4183 7.58172 20 12 20C16.4183 20 20 16.4183 20 12C20 7.58172 16.4183 4 12 4ZM2 12C2 6.47715 6.47715 2 12 2C17.5228 2 22 6.47715 22 12C22 17.5228 17.5228 22 12 22C6.47715 22 2 17.5228 2 12Z" fill="#1F2937"/>
<path fill-rule="evenodd" clip-rule="evenodd" d="M14.2929 14.2929C14.6834 13.9024 15.3166 13.9024 15.7071 14.2929L19.0571 17.6429C19.4476 18.0334 19.4476 18.6666 19.0571 19.0571C18.6666 19.4476 18.0334 19.4476 17.6429 19.0571L14.2929 15.7071C13.9024 15.3166 13.9024 14.6834 14.2929 14.2929Z" fill="#1F2937"/>
<path fill-rule="evenodd" clip-rule="evenodd" d="M9.70701 14.2929C10.0975 14.6834 10.0975 15.3166 9.70701 15.7071L6.35701 19.0571C5.96648 19.4476 5.33332 19.4476 4.9428 19.0571C4.55227 18.6666 4.55227 18.0334 4.9428 17.6429L8.2928 14.2929C8.68332 13.9024 9.31648 13.9024 9.70701 14.2929Z" fill="#1F2937"/>
<path fill-rule="evenodd" clip-rule="evenodd" d="M4.94279 4.94103C5.33332 4.5505 5.96648 4.5505 6.35701 4.94102L9.70701 8.29101C10.0975 8.68154 10.0975 9.3147 9.70701 9.70523C9.31649 10.0958 8.68332 10.0958 8.2928 9.70523L4.9428 6.35524C4.55227 5.96472 4.55227 5.33155 4.94279 4.94103Z" fill="#1F2937"/>
<path fill-rule="evenodd" clip-rule="evenodd" d="M19.0571 4.94103C19.4476 5.33155 19.4476 5.96472 19.0571 6.35524L15.7071 9.70523C15.3166 10.0958 14.6834 10.0958 14.2929 9.70523C13.9024 9.3147 13.9024 8.68154 14.2929 8.29101L17.6429 4.94102C18.0334 4.5505 18.6666 4.5505 19.0571 4.94103Z" fill="#1F2937"/>
</svg>
