<svg width="16" height="16" viewBox="0 0 16 16" fill="none" xmlns="http://www.w3.org/2000/svg">
<path d="M8 2C9.31854 2 10.6075 2.39116 11.7038 3.1237C12.8001 3.85622 13.6549 4.89711 14.1595 6.11523C14.6641 7.3334 14.7956 8.67424 14.5384 9.96745C14.2812 11.2606 13.6465 12.4486 12.7142 13.3809C12.4539 13.6411 12.0318 13.641 11.7715 13.3809C11.5111 13.1205 11.5112 12.6985 11.7715 12.4382C12.5174 11.6923 13.0253 10.7416 13.2311 9.70703C13.4369 8.67251 13.3307 7.60014 12.9271 6.62565C12.5234 5.65117 11.8399 4.81843 10.9629 4.23242C10.0858 3.64639 9.05483 3.33333 8 3.33333C6.94517 3.33333 5.91417 3.64639 5.03711 4.23242C4.1601 4.81843 3.47659 5.65117 3.07292 6.62565C2.66927 7.60014 2.56314 8.67251 2.76888 9.70703C2.97467 10.7416 3.48265 11.6923 4.22852 12.4382C4.48885 12.6985 4.48886 13.1205 4.22852 13.3809C3.96816 13.641 3.5461 13.6411 3.28581 13.3809C2.35353 12.4486 1.71885 11.2606 1.46159 9.96745C1.20436 8.67424 1.33591 7.3334 1.8405 6.11523C2.34508 4.89711 3.19995 3.85622 4.29623 3.1237C5.39255 2.39116 6.68147 2 8 2Z" fill="currentColor"/>
<path d="M10.1953 5.52925C10.4557 5.2689 10.8777 5.2689 11.138 5.52925C11.3984 5.7896 11.3984 6.21161 11.138 6.47195L8.47134 9.13862C8.21099 9.39897 7.78899 9.39897 7.52864 9.13862C7.26829 8.87827 7.26829 8.45626 7.52864 8.19591L10.1953 5.52925Z" fill="currentColor"/>
</svg>
