<svg width="24" height="24" viewBox="0 0 24 24" fill="none" xmlns="http://www.w3.org/2000/svg">
<path d="M6.82377 4.41662C6.82377 5.75169 5.74371 6.83398 4.41139 6.83398C3.07908 6.83398 1.99902 5.75169 1.99902 4.41662C1.99902 3.08155 3.07908 1.99927 4.41139 1.99927C5.74371 1.99927 6.82377 3.08155 6.82377 4.41662Z" fill="#1F2937"/>
<path d="M2.32892 8.61084H6.45263V21.9993H2.32892V8.61084Z" fill="#1F2937"/>
<path d="M13.0918 8.61084H8.9681V21.9993H13.0918C13.0918 21.9993 13.0918 17.7844 13.0918 15.1491C13.0918 13.5673 13.5959 11.9786 15.6073 11.9786C17.8804 11.9786 17.8667 14.0486 17.8561 15.6523C17.8422 17.7485 17.8753 19.8876 17.8753 21.9993H21.999V14.9332C21.9641 10.4212 20.8668 8.34224 17.2568 8.34224C15.1129 8.34224 13.784 9.38507 13.0918 10.3285V8.61084Z" fill="#1F2937"/>
</svg>
