<svg width="18" height="18" viewBox="0 0 18 18" fill="none" xmlns="http://www.w3.org/2000/svg">
<g id="icons/mail">
<g id="linked_in">
<path d="M5.11856 3.31302C5.11856 4.31432 4.30852 5.12603 3.30928 5.12603C2.31004 5.12603 1.5 4.31432 1.5 3.31302C1.5 2.31172 2.31004 1.5 3.30928 1.5C4.30852 1.5 5.11856 2.31172 5.11856 3.31302Z" fill="white"/>
<path d="M1.74742 6.45868H4.84021V16.5H1.74742V6.45868Z" fill="white"/>
<path d="M9.81959 6.45868H6.7268V16.5H9.81959C9.81959 16.5 9.81959 13.3388 9.81959 11.3623C9.81959 10.176 10.1977 8.9845 11.7062 8.9845C13.411 8.9845 13.4008 10.537 13.3928 11.7397C13.3824 13.3119 13.4072 14.9163 13.4072 16.5H16.5V11.2004C16.4738 7.81647 15.6508 6.25723 12.9433 6.25723C11.3354 6.25723 10.3387 7.03935 9.81959 7.74696V6.45868Z" fill="white"/>
</g>
</g>
</svg>
