<svg width="24" height="24" viewBox="0 0 24 24" fill="none" xmlns="http://www.w3.org/2000/svg">
<path fill-rule="evenodd" clip-rule="evenodd" d="M13.2929 4.28912C14.1435 3.43854 15.2971 2.96069 16.5 2.96069C17.7029 2.96069 18.8565 3.43854 19.7071 4.28912C20.5577 5.1397 21.0355 6.29333 21.0355 7.49623C21.0355 8.69913 20.5577 9.85276 19.7071 10.7033L15.7105 14.6999C15.2923 15.1258 14.7935 15.4641 14.2433 15.6954C13.6913 15.9273 13.0987 16.0467 12.5 16.0467C11.9013 16.0467 11.3087 15.9273 10.7567 15.6954C10.2048 15.4634 9.7047 15.1237 9.28571 14.6961C8.8992 14.3016 8.90566 13.6685 9.30015 13.2819C9.69464 12.8954 10.3278 12.9019 10.7143 13.2964C10.9471 13.5339 11.2249 13.7227 11.5315 13.8515C11.8381 13.9804 12.1674 14.0467 12.5 14.0467C12.8326 14.0467 13.1619 13.9804 13.4685 13.8515C13.7751 13.7227 14.0529 13.5339 14.2857 13.2964L14.2929 13.2891L14.2929 13.2891L18.2929 9.28912C18.7684 8.81362 19.0355 8.16869 19.0355 7.49623C19.0355 6.82376 18.7684 6.17884 18.2929 5.70333C17.8174 5.22783 17.1725 4.96069 16.5 4.96069C15.8275 4.96069 15.1826 5.22783 14.7071 5.70333L14.2071 6.20333C13.8166 6.59386 13.1834 6.59386 12.7929 6.20333C12.4024 5.81281 12.4024 5.17964 12.7929 4.78912L13.2929 4.28912Z" fill="#1F2937"/>
<path fill-rule="evenodd" clip-rule="evenodd" d="M9.75662 8.30463C10.3086 8.07271 10.9012 7.95325 11.4999 7.95325C12.0986 7.95325 12.6912 8.07271 13.2432 8.30463C13.7951 8.53655 14.2952 8.87628 14.7142 9.3039C15.1007 9.69839 15.0942 10.3315 14.6997 10.718C14.3053 11.1046 13.6721 11.0981 13.2856 10.7036C13.0528 10.466 12.775 10.2773 12.4684 10.1485C12.1617 10.0196 11.8325 9.95325 11.4999 9.95325C11.1673 9.95325 10.838 10.0196 10.5314 10.1485C10.2248 10.2773 9.94695 10.466 9.71418 10.7036L9.70703 10.7109L9.707 10.7109L5.707 14.7109C5.23149 15.1864 4.96436 15.8313 4.96436 16.5038C4.96436 17.1762 5.23149 17.8211 5.707 18.2967C6.1825 18.7722 6.82742 19.0393 7.49989 19.0393C8.17235 19.0393 8.81728 18.7722 9.29278 18.2967L9.79278 17.7967C10.1833 17.4061 10.8165 17.4061 11.207 17.7967C11.5975 18.1872 11.5975 18.8203 11.207 19.2109L10.707 19.7109C9.85642 20.5614 8.70279 21.0393 7.49989 21.0393C6.29699 21.0393 5.14336 20.5614 4.29278 19.7109C3.4422 18.8603 2.96436 17.7067 2.96436 16.5038C2.96436 15.3009 3.4422 14.1472 4.29278 13.2967L8.28938 9.30005C8.7076 8.87424 9.20635 8.53586 9.75662 8.30463Z" fill="#1F2937"/>
</svg>
