<svg width="24" height="24" viewBox="0 0 24 24" fill="none" xmlns="http://www.w3.org/2000/svg">
<path fill-rule="evenodd" clip-rule="evenodd" d="M12 1.5C6.20101 1.5 1.5 6.20101 1.5 12C1.5 17.799 6.20101 22.5 12 22.5C17.799 22.5 22.5 17.799 22.5 12C22.5 6.20101 17.799 1.5 12 1.5ZM9.46392 7.26911C9.46392 7.97002 8.85639 8.53822 8.10696 8.53822C7.35753 8.53822 6.75 7.97002 6.75 7.26911C6.75 6.5682 7.35753 6 8.10696 6C8.85639 6 9.46392 6.5682 9.46392 7.26911ZM6.93557 9.47107H9.25515V16.5H6.93557V9.47107ZM10.6701 9.47107H12.9897V10.3729C13.379 9.87754 14.1265 9.33006 15.3325 9.33006C17.3631 9.33006 17.9804 10.4215 18 12.7903V16.5H15.6804C15.6804 16.0416 15.6772 15.5806 15.6741 15.1199V15.1199V15.1198C15.6695 14.4664 15.665 13.8132 15.6696 13.1678C15.6756 12.3259 15.6833 11.2392 14.4046 11.2392C13.2732 11.2392 12.9897 12.0732 12.9897 12.9036V16.5H10.6701V9.47107Z" fill="#1F2937"/>
</svg>
