<svg width="24" height="24" viewBox="0 0 24 24" fill="none" xmlns="http://www.w3.org/2000/svg">
<path fill-rule="evenodd" clip-rule="evenodd" d="M10 11.9925C10 10.8879 10.8954 9.99249 12 9.99249C13.1046 9.99249 14 10.8879 14 11.9925C14 13.0971 13.1046 13.9925 12 13.9925C10.8954 13.9925 10 13.0971 10 11.9925Z" fill="#1F2937"/>
<path fill-rule="evenodd" clip-rule="evenodd" d="M12 8.00751C9.79086 8.00751 8 9.79837 8 12.0075C8 14.2166 9.79086 16.0075 12 16.0075C14.2091 16.0075 16 14.2166 16 12.0075C16 9.79837 14.2091 8.00751 12 8.00751ZM6 12.0075C6 8.6938 8.68629 6.00751 12 6.00751C15.3137 6.00751 18 8.6938 18 12.0075C18 15.3212 15.3137 18.0075 12 18.0075C8.68629 18.0075 6 15.3212 6 12.0075Z" fill="#1F2937"/>
<path fill-rule="evenodd" clip-rule="evenodd" d="M10.9996 3.00005C10.9995 2.44776 11.4472 2.00003 11.9995 2C12.5518 2.00003 13.0005 2.44776 13.0004 3.00005C13.0004 3.55233 12.5527 4.00003 12.0004 4C11.4481 4.00003 10.9996 3.55233 10.9996 3.00005ZM14.5209 3.29975C14.7325 2.78958 15.3175 2.54748 15.8277 2.75901C16.3378 2.97059 16.5808 3.55604 16.3692 4.06619C16.1576 4.57634 15.5725 4.81838 15.0624 4.6068C14.5522 4.39527 14.3094 3.80992 14.5209 3.29975ZM9.47906 3.29975C9.69059 3.80992 9.44849 4.39497 8.93832 4.6065C8.42817 4.81808 7.84238 4.57634 7.6308 4.06619C7.41922 3.55604 7.66126 2.97097 8.17141 2.75939C8.68158 2.54786 9.26753 2.78958 9.47906 3.29975ZM17.6565 4.92866C18.047 4.53811 18.6802 4.53808 19.0707 4.92859C19.4612 5.31913 19.4619 5.95298 19.0713 6.34349C18.6808 6.734 18.0476 6.73396 17.6571 6.34342C17.2666 5.95292 17.266 5.3192 17.6565 4.92866ZM6.34349 4.92866C6.734 5.3192 6.73396 5.95236 6.34342 6.34287C5.95292 6.73341 5.3192 6.734 4.92866 6.34349C4.53811 5.95299 4.53808 5.31982 4.92859 4.92928C5.31913 4.53877 5.95298 4.53811 6.34349 4.92866ZM19.9338 7.6308C20.444 7.41922 21.029 7.66126 21.2406 8.17141C21.4521 8.68158 21.2104 9.26753 20.7003 9.47906C20.1901 9.69059 19.605 9.44849 19.3935 8.93832C19.1819 8.42817 19.4237 7.84238 19.9338 7.6308ZM4.06619 7.6308C4.57634 7.84238 4.81838 8.42746 4.6068 8.9376C4.39527 9.44777 3.80992 9.69059 3.29975 9.47906C2.78958 9.26753 2.54748 8.68248 2.75901 8.17231C2.97059 7.66216 3.55604 7.41922 4.06619 7.6308ZM21 10.9996C21.5522 10.9995 22 11.4472 22 11.9995C22 12.5518 21.5522 13.0005 21 13.0004C20.4477 13.0004 20 12.5527 20 12.0004C20 11.4481 20.4477 10.9996 21 10.9996ZM3.00005 10.9996C3.55233 10.9996 4.00003 11.4473 4 11.9996C4.00003 12.5519 3.55233 13.0004 3.00005 13.0004C2.44776 13.0005 2.00003 12.5528 2 12.0005C2.00003 11.4482 2.44776 10.9995 3.00005 10.9996ZM20.7003 14.5209C21.2104 14.7325 21.4525 15.3175 21.241 15.8277C21.0294 16.3378 20.444 16.5808 19.9338 16.3692C19.4237 16.1576 19.1816 15.5725 19.3932 15.0624C19.6047 14.5522 20.1901 14.3094 20.7003 14.5209ZM3.29975 14.5209C3.80992 14.3094 4.39497 14.5515 4.6065 15.0617C4.81808 15.5718 4.57634 16.1576 4.06619 16.3692C3.55604 16.5808 2.97097 16.3387 2.75939 15.8286C2.54786 15.3184 2.78958 14.7325 3.29975 14.5209ZM19.0713 17.6565C19.4619 18.047 19.4619 18.6802 19.0714 19.0707C18.6809 19.4612 18.047 19.4619 17.6565 19.0713C17.266 18.6808 17.266 18.0476 17.6566 17.6571C18.0471 17.2666 18.6808 17.266 19.0713 17.6565ZM4.92866 17.6565C5.3192 17.266 5.95236 17.266 6.34287 17.6566C6.73341 18.0471 6.734 18.6808 6.34349 19.0713C5.95299 19.4619 5.31982 19.4619 4.92928 19.0714C4.53877 18.6809 4.53811 18.047 4.92866 17.6565ZM16.3692 19.9338C16.5808 20.444 16.3387 21.029 15.8286 21.2406C15.3184 21.4521 14.7325 21.2104 14.5209 20.7003C14.3094 20.1901 14.5515 19.605 15.0617 19.3935C15.5718 19.1819 16.1576 19.4237 16.3692 19.9338ZM7.6308 19.9338C7.84238 19.4237 8.42746 19.1816 8.9376 19.3932C9.44777 19.6047 9.69059 20.1901 9.47906 20.7003C9.26753 21.2104 8.68248 21.4525 8.17231 21.241C7.66216 21.0294 7.41922 20.444 7.6308 19.9338ZM10.9996 21C10.9996 20.4477 11.4473 20 11.9996 20C12.5519 20 13.0004 20.4477 13.0004 21C13.0005 21.5522 12.5528 22 12.0005 22C11.4482 22 10.9995 21.5522 10.9996 21Z" fill="#1F2937"/>
</svg>
