<svg width="24" height="24" viewBox="0 0 24 24" fill="none" xmlns="http://www.w3.org/2000/svg">
<path fill-rule="evenodd" clip-rule="evenodd" d="M21.7067 2.29289C21.9808 2.56705 22.0718 2.97497 21.9401 3.33964L15.4401 21.3396C15.4307 21.3657 15.4202 21.3914 15.4087 21.4166C15.285 21.6864 15.0865 21.9151 14.8367 22.0754C14.5869 22.2357 14.2964 22.3209 13.9996 22.3209C13.7028 22.3209 13.4122 22.2357 13.1624 22.0754C12.9186 21.9189 12.7237 21.6973 12.5995 21.4359L9.25423 14.7454L2.56371 11.4001C2.30227 11.2759 2.08069 11.081 1.92422 10.8371C1.76392 10.5874 1.67871 10.2968 1.67871 10C1.67871 9.7032 1.76392 9.41264 1.92422 9.16285C2.08452 8.91307 2.31317 8.71455 2.58298 8.59091C2.60819 8.57936 2.63386 8.56886 2.65994 8.55944L20.6599 2.05944C21.0246 1.92776 21.4325 2.01873 21.7067 2.29289ZM4.37134 10.0678L10.4468 13.1056C10.6403 13.2023 10.7972 13.3593 10.894 13.5528L13.9317 19.6282L19.3354 4.66414L4.37134 10.0678Z" fill="#1F2937"/>
</svg>
