<svg width="24" height="24" viewBox="0 0 24 24" fill="none" xmlns="http://www.w3.org/2000/svg">
<path fill-rule="evenodd" clip-rule="evenodd" d="M7 11.9925C6.44772 11.9925 6 12.4402 6 12.9925V18.9925C6 19.5448 6.44772 19.9925 7 19.9925H17C17.5523 19.9925 18 19.5448 18 18.9925V12.9925C18 12.4402 17.5523 11.9925 17 11.9925H7ZM4 12.9925C4 11.3356 5.34315 9.99249 7 9.99249H17C18.6569 9.99249 20 11.3356 20 12.9925V18.9925C20 20.6493 18.6569 21.9925 17 21.9925H7C5.34315 21.9925 4 20.6493 4 18.9925V12.9925Z" fill="#1F2937"/>
<path fill-rule="evenodd" clip-rule="evenodd" d="M10 16C10 14.8954 10.8954 14 12 14C13.1046 14 14 14.8954 14 16C14 17.1046 13.1046 18 12 18C10.8954 18 10 17.1046 10 16Z" fill="#1F2937"/>
<path fill-rule="evenodd" clip-rule="evenodd" d="M12 4C11.2044 4 10.4413 4.31607 9.87868 4.87868C9.31607 5.44129 9 6.20435 9 7V11C9 11.5523 8.55228 12 8 12C7.44772 12 7 11.5523 7 11V7C7 5.67392 7.52678 4.40215 8.46447 3.46447C9.40215 2.52678 10.6739 2 12 2C13.3261 2 14.5979 2.52678 15.5355 3.46447C16.4732 4.40215 17 5.67392 17 7V11C17 11.5523 16.5523 12 16 12C15.4477 12 15 11.5523 15 11V7C15 6.20435 14.6839 5.44129 14.1213 4.87868C13.5587 4.31607 12.7956 4 12 4Z" fill="#1F2937"/>
</svg>
