<svg width="24" height="24" viewBox="0 0 24 24" fill="none" xmlns="http://www.w3.org/2000/svg">
<path fill-rule="evenodd" clip-rule="evenodd" d="M7 11.9925C6.44772 11.9925 6 12.4402 6 12.9925V18.9925C6 19.5448 6.44772 19.9925 7 19.9925H17C17.5523 19.9925 18 19.5448 18 18.9925V12.9925C18 12.4402 17.5523 11.9925 17 11.9925H7ZM4 12.9925C4 11.3356 5.34315 9.99249 7 9.99249H17C18.6569 9.99249 20 11.3356 20 12.9925V18.9925C20 20.6493 18.6569 21.9925 17 21.9925H7C5.34315 21.9925 4 20.6493 4 18.9925V12.9925Z" fill="#1F2937"/>
<path fill-rule="evenodd" clip-rule="evenodd" d="M10 16C10 14.8954 10.8954 14 12 14C13.1046 14 14 14.8954 14 16C14 17.1046 13.1046 18 12 18C10.8954 18 10 17.1046 10 16Z" fill="#1F2937"/>
<path fill-rule="evenodd" clip-rule="evenodd" d="M12 2.99249C11.2044 2.99249 10.4413 3.30856 9.87868 3.87117C9.31607 4.43378 9 5.19684 9 5.99249V10.9925C9 11.5448 8.55228 11.9925 8 11.9925C7.44772 11.9925 7 11.5448 7 10.9925V5.99249C7 4.66641 7.52678 3.39464 8.46447 2.45696C9.40215 1.51928 10.6739 0.992493 12 0.992493C13.3261 0.992493 14.5979 1.51928 15.5355 2.45696C16.4732 3.39464 17 4.66641 17 5.99249C17 6.54478 16.5523 6.99249 16 6.99249C15.4477 6.99249 15 6.54478 15 5.99249C15 5.19684 14.6839 4.43378 14.1213 3.87117C13.5587 3.30856 12.7956 2.99249 12 2.99249Z" fill="#1F2937"/>
</svg>
