<svg width="24" height="24" viewBox="0 0 24 24" fill="none" xmlns="http://www.w3.org/2000/svg">
<path fill-rule="evenodd" clip-rule="evenodd" d="M2.87868 3.88619C3.44129 3.32358 4.20435 3.00751 5 3.00751H12C12.7956 3.00751 13.5587 3.32358 14.1213 3.88619C14.6839 4.4488 15 5.21186 15 6.00751V8.00751C15 8.55979 14.5523 9.00751 14 9.00751C13.4477 9.00751 13 8.55979 13 8.00751V6.00751C13 5.74229 12.8946 5.48794 12.7071 5.3004C12.5196 5.11286 12.2652 5.00751 12 5.00751H5C4.73478 5.00751 4.48043 5.11286 4.29289 5.3004C4.10536 5.48794 4 5.74229 4 6.00751V18.0075C4 18.2727 4.10536 18.5271 4.29289 18.7146C4.48043 18.9022 4.73478 19.0075 5 19.0075H12C12.2652 19.0075 12.5196 18.9022 12.7071 18.7146C12.8946 18.5271 13 18.2727 13 18.0075V16.0075C13 15.4552 13.4477 15.0075 14 15.0075C14.5523 15.0075 15 15.4552 15 16.0075V18.0075C15 18.8032 14.6839 19.5662 14.1213 20.1288C13.5587 20.6914 12.7957 21.0075 12 21.0075H5C4.20435 21.0075 3.44129 20.6914 2.87868 20.1288C2.31607 19.5662 2 18.8032 2 18.0075V6.00751C2 5.21186 2.31607 4.4488 2.87868 3.88619Z" fill="#1F2937"/>
<path fill-rule="evenodd" clip-rule="evenodd" d="M10.7071 8.29289C11.0976 8.68342 11.0976 9.31658 10.7071 9.70711L9.41421 11H20C20.5523 11 21 11.4477 21 12C21 12.5523 20.5523 13 20 13H9.41421L10.7071 14.2929C11.0976 14.6834 11.0976 15.3166 10.7071 15.7071C10.3166 16.0976 9.68342 16.0976 9.29289 15.7071L6.29289 12.7071C5.90237 12.3166 5.90237 11.6834 6.29289 11.2929L9.29289 8.29289C9.68342 7.90237 10.3166 7.90237 10.7071 8.29289Z" fill="#1F2937"/>
</svg>
