<svg width="24" height="24" viewBox="0 0 24 24" fill="none" xmlns="http://www.w3.org/2000/svg">
<path fill-rule="evenodd" clip-rule="evenodd" d="M2.87868 3.88619C3.44129 3.32358 4.20435 3.00751 5 3.00751H12C12.7956 3.00751 13.5587 3.32358 14.1213 3.88619C14.6839 4.4488 15 5.21186 15 6.00751V8.00751C15 8.55979 14.5523 9.00751 14 9.00751C13.4477 9.00751 13 8.55979 13 8.00751V6.00751C13 5.74229 12.8946 5.48794 12.7071 5.3004C12.5196 5.11286 12.2652 5.00751 12 5.00751H5C4.73478 5.00751 4.48043 5.11286 4.29289 5.3004C4.10536 5.48794 4 5.74229 4 6.00751V18.0075C4 18.2727 4.10536 18.5271 4.29289 18.7146C4.48043 18.9022 4.73478 19.0075 5 19.0075H12C12.2652 19.0075 12.5196 18.9022 12.7071 18.7146C12.8946 18.5271 13 18.2727 13 18.0075V16.0075C13 15.4552 13.4477 15.0075 14 15.0075C14.5523 15.0075 15 15.4552 15 16.0075V18.0075C15 18.8032 14.6839 19.5662 14.1213 20.1288C13.5587 20.6914 12.7957 21.0075 12 21.0075H5C4.20435 21.0075 3.44129 20.6914 2.87868 20.1288C2.31607 19.5662 2 18.8032 2 18.0075V6.00751C2 5.21186 2.31607 4.4488 2.87868 3.88619Z" fill="#1F2937"/>
<path fill-rule="evenodd" clip-rule="evenodd" d="M17.2929 8.29289C17.6834 7.90237 18.3166 7.90237 18.7071 8.29289L21.7071 11.2929C22.0976 11.6834 22.0976 12.3166 21.7071 12.7071L18.7071 15.7071C18.3166 16.0976 17.6834 16.0976 17.2929 15.7071C16.9024 15.3166 16.9024 14.6834 17.2929 14.2929L18.5858 13H7C6.44772 13 6 12.5523 6 12C6 11.4477 6.44772 11 7 11H18.5858L17.2929 9.70711C16.9024 9.31658 16.9024 8.68342 17.2929 8.29289Z" fill="#1F2937"/>
</svg>
