<svg width="24" height="24" viewBox="0 0 24 24" fill="none" xmlns="http://www.w3.org/2000/svg">
<path fill-rule="evenodd" clip-rule="evenodd" d="M6 4C5.73478 4 5.48043 4.10536 5.29289 4.29289C5.10536 4.48043 5 4.73478 5 5V13C5 14.8565 5.7375 16.637 7.05025 17.9497C8.36301 19.2625 10.1435 20 12 20C13.8565 20 15.637 19.2625 16.9497 17.9497C18.2625 16.637 19 14.8565 19 13V5C19 4.73478 18.8946 4.48043 18.7071 4.29289C18.5196 4.10536 18.2652 4 18 4H17C16.7348 4 16.4804 4.10536 16.2929 4.29289C16.1054 4.48043 16 4.73478 16 5V13C16 14.0609 15.5786 15.0783 14.8284 15.8284C14.0783 16.5786 13.0609 17 12 17C10.9391 17 9.92172 16.5786 9.17157 15.8284C8.42143 15.0783 8 14.0609 8 13V5C8 4.73478 7.89464 4.48043 7.70711 4.29289C7.51957 4.10536 7.26522 4 7 4H6ZM3 13V5C3 4.20435 3.31607 3.44129 3.87868 2.87868C4.44129 2.31607 5.20435 2 6 2H7C7.79565 2 8.55871 2.31607 9.12132 2.87868C9.68393 3.44129 10 4.20435 10 5V13C10 13.5304 10.2107 14.0391 10.5858 14.4142C10.9609 14.7893 11.4696 15 12 15C12.5304 15 13.0391 14.7893 13.4142 14.4142C13.7893 14.0391 14 13.5304 14 13V5C14 4.20435 14.3161 3.44129 14.8787 2.87868C15.4413 2.31607 16.2044 2 17 2H18C18.7956 2 19.5587 2.31607 20.1213 2.87868C20.6839 3.44129 21 4.20435 21 5V13C21 15.3869 20.0518 17.6761 18.364 19.364C16.6761 21.0518 14.3869 22 12 22C9.61305 22 7.32387 21.0518 5.63604 19.364C3.94821 17.6761 3 15.3869 3 13Z" fill="#1F2937"/>
<path fill-rule="evenodd" clip-rule="evenodd" d="M3 7.99249C3 7.44021 3.44772 6.99249 4 6.99249H9C9.55228 6.99249 10 7.44021 10 7.99249C10 8.54478 9.55228 8.99249 9 8.99249H4C3.44772 8.99249 3 8.54478 3 7.99249Z" fill="#1F2937"/>
<path fill-rule="evenodd" clip-rule="evenodd" d="M14 7.99249C14 7.44021 14.4477 6.99249 15 6.99249H19C19.5523 6.99249 20 7.44021 20 7.99249C20 8.54478 19.5523 8.99249 19 8.99249H15C14.4477 8.99249 14 8.54478 14 7.99249Z" fill="#1F2937"/>
</svg>
