<svg width="24" height="24" viewBox="0 0 24 24" fill="none" xmlns="http://www.w3.org/2000/svg">
<path fill-rule="evenodd" clip-rule="evenodd" d="M11.4453 2.16795C11.7812 1.94402 12.2188 1.94402 12.5547 2.16795L21.5547 8.16795C21.8329 8.35342 22 8.66565 22 9C22 9.33435 21.8329 9.64658 21.5547 9.83205L12.5547 15.8321C12.2188 16.056 11.7812 16.056 11.4453 15.8321L2.4453 9.83205C2.1671 9.64658 2 9.33435 2 9C2 8.66565 2.1671 8.35342 2.4453 8.16795L11.4453 2.16795ZM4.80278 9L12 13.7982L19.1972 9L12 4.20185L4.80278 9Z" fill="#1F2937"/>
<path fill-rule="evenodd" clip-rule="evenodd" d="M3 8C3.55228 8 4 8.44772 4 9V19C4 19.2652 4.10536 19.5196 4.29289 19.7071C4.48043 19.8946 4.73478 20 5 20H19C19.2652 20 19.5196 19.8946 19.7071 19.7071C19.8946 19.5196 20 19.2652 20 19V9C20 8.44772 20.4477 8 21 8C21.5523 8 22 8.44772 22 9V19C22 19.7957 21.6839 20.5587 21.1213 21.1213C20.5587 21.6839 19.7957 22 19 22H5C4.20435 22 3.44129 21.6839 2.87868 21.1213C2.31607 20.5587 2 19.7956 2 19V9C2 8.44772 2.44772 8 3 8Z" fill="#1F2937"/>
<path fill-rule="evenodd" clip-rule="evenodd" d="M9.70711 12.3004C10.0976 12.6909 10.0976 13.3241 9.70711 13.7146L3.70711 19.7146C3.31658 20.1051 2.68342 20.1051 2.29289 19.7146C1.90237 19.3241 1.90237 18.6909 2.29289 18.3004L8.29289 12.3004C8.68342 11.9099 9.31658 11.9099 9.70711 12.3004Z" fill="#1F2937"/>
<path fill-rule="evenodd" clip-rule="evenodd" d="M14.2929 12.3004C14.6834 11.9099 15.3166 11.9099 15.7071 12.3004L21.7071 18.3004C22.0976 18.6909 22.0976 19.3241 21.7071 19.7146C21.3166 20.1051 20.6834 20.1051 20.2929 19.7146L14.2929 13.7146C13.9024 13.3241 13.9024 12.6909 14.2929 12.3004Z" fill="#1F2937"/>
</svg>
