<svg width="24" height="24" viewBox="0 0 24 24" fill="none" xmlns="http://www.w3.org/2000/svg">
<path fill-rule="evenodd" clip-rule="evenodd" d="M5 5.99252C4.44772 5.99252 4 6.44023 4 6.99252V16.9925C4 17.5448 4.44772 17.9925 5 17.9925H19C19.5523 17.9925 20 17.5448 20 16.9925V6.99252C20 6.44023 19.5523 5.99252 19 5.99252H5ZM2 6.99252C2 5.33566 3.34315 3.99252 5 3.99252H19C20.6569 3.99252 22 5.33566 22 6.99252V16.9925C22 18.6494 20.6569 19.9925 19 19.9925H5C3.34315 19.9925 2 18.6494 2 16.9925V6.99252Z" fill="#1F2937"/>
<path fill-rule="evenodd" clip-rule="evenodd" d="M2.16806 6.45278C2.47441 5.99325 3.09528 5.86908 3.55481 6.17543L12.0001 11.8056L20.4454 6.17543C20.9049 5.86908 21.5258 5.99325 21.8322 6.45278C22.1385 6.91231 22.0143 7.53318 21.5548 7.83953L12.5548 13.8395C12.2189 14.0635 11.7813 14.0635 11.4454 13.8395L2.44541 7.83953C1.98588 7.53318 1.8617 6.91231 2.16806 6.45278Z" fill="#1F2937"/>
</svg>
