<svg width="24" height="24" viewBox="0 0 24 24" fill="none" xmlns="http://www.w3.org/2000/svg">
<path fill-rule="evenodd" clip-rule="evenodd" d="M12.6273 5.34082C12.5371 5.34082 12.4505 5.37666 12.3867 5.44046C12.3279 5.49929 12.2929 5.57744 12.2878 5.66C12.4405 8.01533 13.4451 10.2352 15.1147 11.9048C16.7843 13.5744 19.0042 14.579 21.3595 14.7318C21.4421 14.7267 21.5202 14.6916 21.5791 14.6328C21.6429 14.569 21.6787 14.4825 21.6787 14.3922V12.3889L19.7476 11.6164L19.1806 12.5614C18.9128 13.0077 18.3475 13.174 17.8808 12.9438C16.2282 12.1288 14.8908 10.7913 14.0758 9.13875C13.8456 8.67199 14.0119 8.1067 14.4581 7.83894L15.4031 7.27196L14.6306 5.34082H12.6273ZM10.9725 4.02625C11.4114 3.58738 12.0066 3.34082 12.6273 3.34082H15.3077C15.7166 3.34082 16.0843 3.58977 16.2362 3.96943L17.5763 7.3199C17.7586 7.77562 17.5832 8.29626 17.1624 8.54878L16.3337 9.04596C16.7754 9.68825 17.3313 10.2441 17.9736 10.6858L18.4707 9.85717C18.7233 9.4363 19.2439 9.26091 19.6996 9.44319L23.0501 10.7834C23.4298 10.9352 23.6787 11.303 23.6787 11.7119V14.3922C23.6787 15.0129 23.4322 15.6081 22.9933 16.047C22.5544 16.4859 21.9592 16.7324 21.3385 16.7324C21.3183 16.7324 21.2981 16.7318 21.2779 16.7306C18.4202 16.5569 15.7249 15.3434 13.7005 13.319C11.6761 11.2946 10.4626 8.59932 10.289 5.74167C10.2877 5.72147 10.2871 5.70124 10.2871 5.68101C10.2871 5.06035 10.5337 4.46512 10.9725 4.02625Z" fill="#1F2937"/>
<path d="M8.88332 7.01135H2.98537C2.27884 7.01135 1.60125 7.29202 1.10166 7.79161C0.606769 8.2865 0.326702 8.95605 0.32147 9.65537C0.321257 9.66658 0.321232 9.67779 0.321395 9.68899V17.9952C0.321395 18.7017 0.602063 19.3793 1.10166 19.8789C1.60125 20.3785 2.27884 20.6592 2.98537 20.6592H14.6332C15.3397 20.6592 16.0173 20.3785 16.5169 19.8789C17.0165 19.3793 17.2972 18.7017 17.2972 17.9952V17.4326C16.601 17.2006 15.9323 16.9086 15.2972 16.5627V17.9952C15.2972 18.1713 15.2272 18.3402 15.1027 18.4647C14.9782 18.5892 14.8093 18.6592 14.6332 18.6592H2.98537C2.80927 18.6592 2.64039 18.5892 2.51587 18.4647C2.39135 18.3402 2.3214 18.1713 2.3214 17.9952V11.5438L8.25458 15.4993C8.59048 15.7232 9.02808 15.7232 9.36398 15.4993L11.8783 13.8231C11.4391 13.3211 11.0396 12.7834 10.6849 12.215L8.80928 13.4654L2.47934 9.24544C2.49094 9.2318 2.50312 9.21858 2.51587 9.20583C2.64039 9.08131 2.80927 9.01135 2.98537 9.01135H9.26985C9.08838 8.3645 8.958 7.6963 8.88332 7.01135Z" fill="#1F2937"/>
</svg>
