<svg width="16" height="16" viewBox="0 0 16 16" fill="none" xmlns="http://www.w3.org/2000/svg">
<path d="M14.6673 5.02344V11.3334C14.6673 11.8436 14.4724 12.3344 14.1225 12.7056C13.7725 13.0768 13.2939 13.3002 12.7847 13.3301L12.6673 13.3334H3.33398C2.82384 13.3335 2.33297 13.1386 1.96181 12.7886C1.59065 12.4386 1.36725 11.96 1.33732 11.4508L1.33398 11.3334V5.02344L7.63065 9.22144L7.70798 9.26544C7.79912 9.30997 7.89922 9.33311 8.00065 9.33311C8.10208 9.33311 8.20218 9.30997 8.29332 9.26544L8.37065 9.22144L14.6673 5.02344Z" fill="currentColor"/>
<path d="M12.6675 2.66797C13.3875 2.66797 14.0189 3.04797 14.3709 3.6193L8.00086 7.86597L1.63086 3.6193C1.79801 3.34781 2.02767 3.12024 2.30066 2.95556C2.57366 2.79088 2.88208 2.69387 3.20019 2.67264L3.33419 2.66797H12.6675Z" fill="currentColor"/>
</svg>
