<svg width="24" height="24" viewBox="0 0 24 24" fill="none" xmlns="http://www.w3.org/2000/svg">
<g clip-path="url(#clip0_52958_5236)">
<path d="M11.5752 2.93942C11.8887 2.79223 12.2606 2.81663 12.5547 3.01266L21.5547 9.01266C21.8329 9.19813 22 9.51034 22 9.84469C22 10.179 21.8329 10.4913 21.5547 10.6767L12.5547 16.6767C12.2606 16.8728 11.8887 16.8972 11.5752 16.75L11.4453 16.6767L2.44531 10.6767C2.16711 10.4913 2 10.179 2 9.84469C2 9.51034 2.16711 9.19813 2.44531 9.01266L11.4453 3.01266L11.5752 2.93942ZM4.80273 9.84469L12 14.6425L19.1973 9.84469L12 5.04587L4.80273 9.84469Z" fill="#1F2937"/>
<path d="M2 19.8447V9.84473C2 9.29244 2.44772 8.84473 3 8.84473C3.55228 8.84473 4 9.29244 4 9.84473V19.8447C4 20.1099 4.10543 20.3642 4.29297 20.5518C4.48051 20.7393 4.73478 20.8447 5 20.8447H10.3799L10.4814 20.8496C10.9859 20.9007 11.3799 21.3268 11.3799 21.8447C11.3799 22.3626 10.9859 22.7888 10.4814 22.8398L10.3799 22.8447H5C4.20435 22.8447 3.44151 22.5284 2.87891 21.9658C2.3163 21.4032 2 20.6404 2 19.8447ZM20 15.4375V9.84473C20 9.29244 20.4477 8.84473 21 8.84473C21.5523 8.84473 22 9.29244 22 9.84473V15.4375C21.9999 15.9897 21.5522 16.4375 21 16.4375C20.4478 16.4375 20.0001 15.9897 20 15.4375Z" fill="#1F2937"/>
<path d="M14 21.8447V17.8447C14 17.2924 14.4477 16.8447 15 16.8447C15.5523 16.8447 16 17.2924 16 17.8447V21.8447C16 22.397 15.5523 22.8447 15 22.8447C14.4477 22.8447 14 22.397 14 21.8447Z" fill="#1F2937"/>
<path d="M20 21.8447V19.8447C20 19.2924 20.4477 18.8447 21 18.8447C21.5523 18.8447 22 19.2924 22 19.8447V21.8447C22 22.397 21.5523 22.8447 21 22.8447C20.4477 22.8447 20 22.397 20 21.8447Z" fill="#1F2937"/>
<path d="M17 21.8447V20.8447C17 20.2924 17.4477 19.8447 18 19.8447C18.5523 19.8447 19 20.2924 19 20.8447V21.8447C19 22.397 18.5523 22.8447 18 22.8447C17.4477 22.8447 17 22.397 17 21.8447Z" fill="#1F2937"/>
</g>
<defs>
<clipPath id="clip0_52958_5236">
<rect width="24" height="24" fill="#1F2937" transform="translate(0 0.844727)"/>
</clipPath>
</defs>
</svg>
