<svg width="24" height="24" viewBox="0 0 24 24" fill="none" xmlns="http://www.w3.org/2000/svg">
<g clip-path="url(#clip0_31438_1323)">
<path fill-rule="evenodd" clip-rule="evenodd" d="M5 6C4.73478 6 4.48043 6.10536 4.29289 6.29289C4.10536 6.48043 4 6.73478 4 7V17C4 17.2652 4.10536 17.5196 4.29289 17.7071C4.48043 17.8946 4.73478 18 5 18V19V20C4.20435 20 3.44129 19.6839 2.87868 19.1213C2.31607 18.5587 2 17.7956 2 17V7C2 6.20435 2.31607 5.44129 2.87868 4.87868C3.44129 4.31607 4.20435 4 5 4H19C19.7957 4 20.5587 4.31607 21.1213 4.87868C21.6839 5.44129 22 6.20435 22 7V11C22 11.5523 21.5523 12 21 12C20.4477 12 20 11.5523 20 11V7C20 6.73478 19.8946 6.48043 19.7071 6.29289C19.5196 6.10536 19.2652 6 19 6H5ZM5 19V20H10C10.5523 20 11 19.5523 11 19C11 18.4477 10.5523 18 10 18H5V19Z" fill="currentColor"/>
<path fill-rule="evenodd" clip-rule="evenodd" d="M2.12804 6.51023C2.3985 6.0287 3.0081 5.85759 3.48964 6.12804L11.9999 10.9079L20.5102 6.12804C20.9918 5.85759 21.6014 6.0287 21.8718 6.51023C22.1423 6.99176 21.9712 7.60137 21.4896 7.87182L12.4896 12.9267C12.1855 13.0975 11.8144 13.0975 11.5102 12.9267L2.51023 7.87182C2.0287 7.60137 1.85759 6.99176 2.12804 6.51023Z" fill="currentColor"/>
<path fill-rule="evenodd" clip-rule="evenodd" d="M15.6092 15.4745C16.279 14.8047 17.1874 14.4285 18.1346 14.4285C19.0818 14.4285 19.9902 14.8047 20.6599 15.4745C21.3297 16.1443 21.7059 17.0527 21.7059 17.9999C21.7059 18.9471 21.3297 19.8555 20.6599 20.5253C19.9902 21.195 19.0818 21.5713 18.1346 21.5713C17.1874 21.5713 16.279 21.195 15.6092 20.5253C14.9395 19.8555 14.5632 18.9471 14.5632 17.9999C14.5632 17.0527 14.9395 16.1443 15.6092 15.4745ZM18.1346 16.4285C17.7178 16.4285 17.3182 16.594 17.0235 16.8887C16.7288 17.1834 16.5632 17.5831 16.5632 17.9999C16.5632 18.4167 16.7288 18.8164 17.0235 19.1111C17.3182 19.4058 17.7178 19.5713 18.1346 19.5713C18.5513 19.5713 18.951 19.4058 19.2457 19.1111C19.5404 18.8164 19.7059 18.4167 19.7059 17.9999C19.7059 17.5831 19.5404 17.1834 19.2457 16.8887C18.951 16.594 18.5513 16.4285 18.1346 16.4285Z" fill="currentColor"/>
<path fill-rule="evenodd" clip-rule="evenodd" d="M18.134 12.5C18.6863 12.5 19.134 12.9477 19.134 13.5V15.4286C19.134 15.9809 18.6863 16.4286 18.134 16.4286C17.5817 16.4286 17.134 15.9809 17.134 15.4286V13.5C17.134 12.9477 17.5817 12.5 18.134 12.5Z" fill="currentColor"/>
<path fill-rule="evenodd" clip-rule="evenodd" d="M18.134 19.5715C18.6863 19.5715 19.134 20.0192 19.134 20.5715V22.5001C19.134 23.0524 18.6863 23.5001 18.134 23.5001C17.5817 23.5001 17.134 23.0524 17.134 22.5001V20.5715C17.134 20.0192 17.5817 19.5715 18.134 19.5715Z" fill="currentColor"/>
<path fill-rule="evenodd" clip-rule="evenodd" d="M22.8983 15.2499C23.1745 15.7282 23.0106 16.3398 22.5323 16.6159L20.8623 17.5802C20.384 17.8564 19.7724 17.6925 19.4962 17.2142C19.2201 16.7359 19.3839 16.1243 19.8622 15.8482L21.5323 14.8839C22.0106 14.6078 22.6222 14.7716 22.8983 15.2499Z" fill="currentColor"/>
<path fill-rule="evenodd" clip-rule="evenodd" d="M16.7748 18.7861C17.0508 19.2645 16.8867 19.876 16.4083 20.152L14.737 21.1163C14.2586 21.3923 13.647 21.2282 13.371 20.7498C13.0951 20.2715 13.2591 19.6599 13.7375 19.3839L15.4089 18.4196C15.8872 18.1436 16.4988 18.3077 16.7748 18.7861Z" fill="currentColor"/>
<path fill-rule="evenodd" clip-rule="evenodd" d="M13.371 15.2502C13.647 14.7718 14.2586 14.6077 14.737 14.8837L16.4083 15.848C16.8867 16.124 17.0508 16.7356 16.7748 17.2139C16.4988 17.6923 15.8872 17.8564 15.4089 17.5804L13.7375 16.6161C13.2591 16.3401 13.0951 15.7286 13.371 15.2502Z" fill="currentColor"/>
<path fill-rule="evenodd" clip-rule="evenodd" d="M19.4958 18.7861C19.7718 18.3077 20.3833 18.1436 20.8617 18.4196L22.5331 19.3839C23.0115 19.6599 23.1755 20.2715 22.8995 20.7498C22.6235 21.2282 22.012 21.3923 21.5336 21.1163L19.8622 20.152C19.3839 19.876 19.2198 19.2645 19.4958 18.7861Z" fill="currentColor"/>
</g>
</svg>
