<svg
    width="24"
    height="24"
    viewBox="0 0 24 24"
    fill="none"
    xmlns="http://www.w3.org/2000/svg"
  >
    <path
      fill-rule="evenodd"
      clip-rule="evenodd"
      d="M2 7C2 5.34315 3.34315 4 5 4H19C20.6569 4 22 5.34315 22 7V11C22 11.5523 21.5523 12 21 12C20.4477 12 20 11.5523 20 11V8.86852L12.5547 13.8321C12.2188 14.056 11.7812 14.056 11.4453 13.8321L4 8.86852V17C4 17.5523 4.44772 18 5 18H8C8.55228 18 9 18.4477 9 19C9 19.5523 8.55228 20 8 20H5C3.34315 20 2 18.6569 2 17V7ZM4.11209 6.53954L12 11.7981L19.8879 6.53954C19.7213 6.21897 19.3862 6 19 6H5C4.61376 6 4.27867 6.21897 4.11209 6.53954ZM17.703 14.2426C18.1213 14.6033 18.168 15.2347 17.8074 15.653L14.2724 19.753C13.9411 20.1372 13.3748 20.2125 12.9546 19.9282L11.4396 18.9032C10.9822 18.5938 10.8623 17.9721 11.1718 17.5146C11.4812 17.0572 12.1029 16.9373 12.5604 17.2468L13.3385 17.7732L16.2926 14.347C16.6533 13.9287 17.2847 13.882 17.703 14.2426ZM22.753 14.2426C23.1713 14.6033 23.218 15.2347 22.8574 15.653L19.3224 19.753C19.022 20.1014 18.5227 20.1999 18.1125 19.9918L17.1025 19.4793C16.61 19.2294 16.4133 18.6275 16.6632 18.135C16.9131 17.6425 17.515 17.4458 18.0075 17.6957L18.3191 17.8538L21.3426 14.347C21.7033 13.9287 22.3347 13.882 22.753 14.2426Z"
      fill="currentColor"
    />
  </svg>