<svg width="24" height="24" viewBox="0 0 24 24" fill="none" xmlns="http://www.w3.org/2000/svg">
<path fill-rule="evenodd" clip-rule="evenodd" d="M12 4C11.4477 4 11 4.44772 11 5C11 5.55228 11.4477 6 12 6C12.5523 6 13 5.55228 13 5C13 4.44772 12.5523 4 12 4ZM9 5C9 3.34315 10.3431 2 12 2C13.6569 2 15 3.34315 15 5C15 6.65685 13.6569 8 12 8C10.3431 8 9 6.65685 9 5Z" fill="#1F2937"/>
<path fill-rule="evenodd" clip-rule="evenodd" d="M8.58579 10.5783C8.96086 10.2032 9.46957 9.99252 10 9.99252H14C14.5304 9.99252 15.0391 10.2032 15.4142 10.5783C15.7893 10.9534 16 11.4621 16 11.9925V15.9925C16 16.2577 15.8946 16.5121 15.7071 16.6996L15 17.4067V21.9925C15 22.5448 14.5523 22.9925 14 22.9925C13.4477 22.9925 13 22.5448 13 21.9925V16.9925C13 16.7273 13.1054 16.473 13.2929 16.2854L14 15.5783V11.9925L10 11.9925L10 15.5783L10.7071 16.2854C10.8946 16.473 11 16.7273 11 16.9925V21.9925C11 22.5448 10.5523 22.9925 10 22.9925C9.44772 22.9925 9 22.5448 9 21.9925V17.4067L8.29289 16.6996C8.10536 16.5121 8 16.2577 8 15.9925V11.9925C8 11.4621 8.21071 10.9534 8.58579 10.5783Z" fill="#1F2937"/>
</svg>
