<svg width="24" height="24" viewBox="0 0 24 24" fill="none" xmlns="http://www.w3.org/2000/svg">
<path fill-rule="evenodd" clip-rule="evenodd" d="M12 8.99252C10.8954 8.99252 10 9.88795 10 10.9925C10 12.0971 10.8954 12.9925 12 12.9925C13.1046 12.9925 14 12.0971 14 10.9925C14 9.88795 13.1046 8.99252 12 8.99252ZM8 10.9925C8 8.78338 9.79086 6.99252 12 6.99252C14.2091 6.99252 16 8.78338 16 10.9925C16 13.2017 14.2091 14.9925 12 14.9925C9.79086 14.9925 8 13.2017 8 10.9925Z" fill="#1F2937"/>
<path fill-rule="evenodd" clip-rule="evenodd" d="M12 4.00031C10.6156 4.00031 9.26219 4.41084 8.11105 5.17999C6.95991 5.94915 6.06271 7.04238 5.53288 8.32144C5.00306 9.6005 4.86441 11.0079 5.13448 12.3658C5.40454 13.7236 6.07115 14.9709 7.05003 15.9498C7.05006 15.9499 7.04999 15.9498 7.05003 15.9498L11.294 20.1928C11.3867 20.2856 11.4972 20.3596 11.6184 20.4099C11.7395 20.4601 11.8694 20.4859 12.0005 20.4859C12.1316 20.4859 12.2615 20.4601 12.3827 20.4099C12.5038 20.3596 12.6139 20.286 12.7065 20.1933L16.9499 15.9499C16.9499 15.9499 16.9499 15.9499 16.9499 15.9499C17.9288 14.9709 18.5955 13.7237 18.8655 12.3658C19.1356 11.0079 18.997 9.6005 18.4671 8.32144C17.9373 7.04238 17.0401 5.94915 15.889 5.17999C14.7378 4.41084 13.3845 4.00031 12 4.00031ZM18.3641 17.3641C19.6228 16.1054 20.4799 14.5018 20.8271 12.7559C21.1743 11.0101 20.9961 9.20056 20.3149 7.55605C19.6337 5.91154 18.4801 4.50596 17.0001 3.51705C15.5201 2.52813 13.78 2.00031 12 2.00031C10.22 2.00031 8.47995 2.52813 6.99992 3.51705C5.51989 4.50596 4.36633 5.91154 3.68513 7.55605C3.00393 9.20056 2.82567 11.0101 3.1729 12.7559C3.52013 14.5018 4.37725 16.1054 5.63588 17.3641L9.87955 21.6068C10.158 21.8855 10.4886 22.1066 10.8525 22.2574C11.2165 22.4083 11.6066 22.4859 12.0005 22.4859C12.3945 22.4859 12.7845 22.4083 13.1485 22.2574C13.5123 22.1066 13.8428 21.8857 14.1211 21.6071C14.121 21.6072 14.1212 21.607 14.1211 21.6071L18.3641 17.3641Z" fill="#1F2937"/>
</svg>
