<svg width="24" height="24" viewBox="0 0 24 24" fill="none" xmlns="http://www.w3.org/2000/svg">
<path fill-rule="evenodd" clip-rule="evenodd" d="M18 5C18.5523 5 19 5.44772 19 6V6.01C19 6.56228 18.5523 7.01 18 7.01C17.4477 7.01 17 6.56228 17 6.01V6C17 5.44772 17.4477 5 18 5Z" fill="#1F2937"/>
<path fill-rule="evenodd" clip-rule="evenodd" d="M18 3.06256C17.478 3.06256 16.9651 3.19875 16.5119 3.45767C16.0586 3.71659 15.6808 4.08929 15.4157 4.53893C15.1506 4.98857 15.0074 5.4996 15.0003 6.02152C14.9934 6.52711 15.1144 7.02598 15.3516 7.47189L18 11.2552L20.6484 7.47189C20.8856 7.02598 21.0066 6.52711 20.9997 6.02152C20.9926 5.4996 20.8494 4.98857 20.5843 4.53893C20.3192 4.08929 19.9414 3.71659 19.4881 3.45767C19.0349 3.19875 18.522 3.06256 18 3.06256ZM15.5198 1.72108C16.2751 1.28954 17.13 1.06256 18 1.06256C18.87 1.06256 19.7249 1.28954 20.4802 1.72108C21.2356 2.15262 21.8653 2.77377 22.3071 3.52317C22.749 4.27258 22.9876 5.12429 22.9995 5.99416C23.0114 6.86403 22.7962 7.72196 22.375 8.48316C22.358 8.5139 22.3394 8.54372 22.3192 8.5725L18.8192 13.5725C18.6321 13.8398 18.3263 13.999 18 13.999C17.6737 13.999 17.3679 13.8398 17.1808 13.5725L13.6808 8.5725C13.6606 8.54372 13.642 8.5139 13.625 8.48316C13.2038 7.72196 12.9886 6.86403 13.0005 5.99416C13.0124 5.12429 13.251 4.27258 13.6929 3.52317C14.1347 2.77377 14.7644 2.15261 15.5198 1.72108Z" fill="#1F2937"/>
<path fill-rule="evenodd" clip-rule="evenodd" d="M8.55279 3.11305C8.83431 2.97229 9.16569 2.97229 9.44721 3.11305L10.9472 3.86305C11.4412 4.11004 11.6414 4.71071 11.3944 5.20469C11.1474 5.69867 10.5468 5.89889 10.0528 5.6519L9 5.12551L4 7.62551V18.3894L8.55279 16.113C8.83431 15.9723 9.16569 15.9723 9.44721 16.113L15 18.8894L20 16.3894V15.0075C20 14.4552 20.4477 14.0075 21 14.0075C21.5523 14.0075 22 14.4552 22 15.0075V17.0075C22 17.3862 21.786 17.7325 21.4472 17.9019L15.4472 20.9019C15.1657 21.0427 14.8343 21.0427 14.5528 20.9019L9 18.1255L3.44721 20.9019C3.13723 21.0569 2.76909 21.0403 2.47427 20.8581C2.17945 20.6759 2 20.3541 2 20.0075V7.00748C2 6.6287 2.214 6.28244 2.55279 6.11305L8.55279 3.11305Z" fill="#1F2937"/>
<path fill-rule="evenodd" clip-rule="evenodd" d="M9 3.00748C9.55228 3.00748 10 3.45519 10 4.00748V17.0075C10 17.5598 9.55228 18.0075 9 18.0075C8.44772 18.0075 8 17.5598 8 17.0075V4.00748C8 3.45519 8.44772 3.00748 9 3.00748Z" fill="#1F2937"/>
<path fill-rule="evenodd" clip-rule="evenodd" d="M15 14C15.5523 14 16 14.4477 16 15V20C16 20.5523 15.5523 21 15 21C14.4477 21 14 20.5523 14 20V15C14 14.4477 14.4477 14 15 14Z" fill="#1F2937"/>
</svg>
