<svg width="24" height="24" viewBox="0 0 24 24" fill="none" xmlns="http://www.w3.org/2000/svg">
<path fill-rule="evenodd" clip-rule="evenodd" d="M21.5257 3.15683C21.8205 3.33903 22 3.6609 22 4.00748V17.0075C22 17.3862 21.786 17.7325 21.4472 17.9019L15.4472 20.9019C15.1657 21.0427 14.8343 21.0427 14.5528 20.9019L9 18.1255L3.44721 20.9019C3.13723 21.0569 2.76909 21.0403 2.47427 20.8581C2.17945 20.6759 2 20.3541 2 20.0075V7.00748C2 6.62871 2.214 6.28244 2.55279 6.11305L8.55279 3.11305C8.83431 2.97229 9.16569 2.97229 9.44721 3.11305L15 5.88944L20.5528 3.11305C20.8628 2.95806 21.2309 2.97462 21.5257 3.15683ZM4 7.62551V18.3894L8.55279 16.1131C8.83431 15.9723 9.16569 15.9723 9.44721 16.1131L15 18.8894L20 16.3894V5.62551L15.4472 7.90191C15.1657 8.04267 14.8343 8.04267 14.5528 7.90191L9 5.12551L4 7.62551Z" fill="#1F2937"/>
<path fill-rule="evenodd" clip-rule="evenodd" d="M9 3.00748C9.55228 3.00748 10 3.45519 10 4.00748V17.0075C10 17.5598 9.55228 18.0075 9 18.0075C8.44772 18.0075 8 17.5598 8 17.0075V4.00748C8 3.45519 8.44772 3.00748 9 3.00748Z" fill="#1F2937"/>
<path fill-rule="evenodd" clip-rule="evenodd" d="M15 6.00748C15.5523 6.00748 16 6.45519 16 7.00748V20.0075C16 20.5598 15.5523 21.0075 15 21.0075C14.4477 21.0075 14 20.5598 14 20.0075V7.00748C14 6.45519 14.4477 6.00748 15 6.00748Z" fill="#1F2937"/>
</svg>
