<svg width="16" height="16" viewBox="0 0 16 16" fill="none" xmlns="http://www.w3.org/2000/svg">
<g clip-path="url(#clip0_3496_985262)">
<path d="M13.334 8.33366V4.66699C13.334 4.49018 13.2637 4.32066 13.1387 4.19564C13.0292 4.08621 12.8857 4.01871 12.7331 4.00358L12.6673 4.00033H3.33398C3.15717 4.00033 2.98765 4.07061 2.86263 4.19564C2.73761 4.32066 2.66732 4.49018 2.66732 4.66699V11.3337C2.66732 11.5105 2.73761 11.68 2.86263 11.805C2.98765 11.93 3.15717 12.0003 3.33398 12.0003H10.0007C10.3688 12.0003 10.6673 12.2988 10.6673 12.667C10.6673 13.0352 10.3688 13.3337 10.0007 13.3337H3.33398C2.80355 13.3337 2.29499 13.1228 1.91992 12.7477C1.54485 12.3726 1.33398 11.8641 1.33398 11.3337V4.66699C1.33398 4.13656 1.54485 3.628 1.91992 3.25293C2.29499 2.87786 2.80355 2.66699 3.33398 2.66699H12.6673C13.1978 2.66699 13.7063 2.87786 14.0814 3.25293C14.4565 3.628 14.6673 4.13656 14.6673 4.66699V8.33366C14.6673 8.70185 14.3688 9.00033 14.0007 9.00033C13.6325 9.00033 13.334 8.70185 13.334 8.33366Z" fill="#B91C1C"/>
<path d="M13.6309 4.11204C13.9373 3.9078 14.3512 3.99058 14.5554 4.29693C14.7596 4.60329 14.6769 5.01718 14.3705 5.22141L8.3705 9.22141C8.14657 9.3707 7.85485 9.3707 7.63092 9.22141L1.63092 5.22141C1.32457 5.01718 1.24179 4.60329 1.44602 4.29693C1.65026 3.99058 2.06415 3.9078 2.3705 4.11204L8.00071 7.86529L13.6309 4.11204Z" fill="#B91C1C"/>
<path d="M12 12.6667V10.6667C12 10.2985 12.2985 10 12.6667 10C13.0349 10 13.3333 10.2985 13.3333 10.6667V12.6667C13.3333 13.0349 13.0349 13.3333 12.6667 13.3333C12.2985 13.3333 12 13.0349 12 12.6667Z" fill="#B91C1C"/>
<path d="M12 14.6732V14.6667C12 14.2985 12.2985 14 12.6667 14C13.0349 14 13.3333 14.2985 13.3333 14.6667V14.6732C13.3333 15.0414 13.0349 15.3398 12.6667 15.3398C12.2985 15.3398 12 15.0414 12 14.6732Z" fill="#B91C1C"/>
</g>
<defs>
<clipPath id="clip0_3496_985262">
<rect width="16" height="16" fill="white"/>
</clipPath>
</defs>
</svg>
