<svg width="24" height="24" viewBox="0 0 24 24" fill="none" xmlns="http://www.w3.org/2000/svg">
<path fill-rule="evenodd" clip-rule="evenodd" d="M15.2929 12.3003C15.6834 11.9098 16.3166 11.9098 16.7071 12.3003L18 13.5932L19.2929 12.3003C19.6834 11.9098 20.3166 11.9098 20.7071 12.3003C21.0976 12.6909 21.0976 13.324 20.7071 13.7146L19.4142 15.0074L20.7071 16.3003C21.0976 16.6909 21.0976 17.324 20.7071 17.7146C20.3166 18.1051 19.6834 18.1051 19.2929 17.7146L18 16.4217L16.7071 17.7146C16.3166 18.1051 15.6834 18.1051 15.2929 17.7146C14.9024 17.324 14.9024 16.6909 15.2929 16.3003L16.5858 15.0074L15.2929 13.7146C14.9024 13.324 14.9024 12.6909 15.2929 12.3003Z" fill="#1F2937"/>
<path fill-rule="evenodd" clip-rule="evenodd" d="M12.0385 4.71783C12.1611 4.28853 12.5535 3.99255 13 3.99255H20C20.5523 3.99255 21 4.44027 21 4.99255C21 5.54484 20.5523 5.99255 20 5.99255H13.7543L9.96152 19.2673C9.84823 19.6638 9.50316 19.9501 9.09254 19.9883C8.68193 20.0264 8.29 19.8086 8.10557 19.4398L5.38197 13.9926H4C3.44772 13.9926 3 13.5448 3 12.9926C3 12.4403 3.44772 11.9926 4 11.9926H6C6.37877 11.9926 6.72504 12.2066 6.89443 12.5453L8.74473 16.2459L12.0385 4.71783Z" fill="#1F2937"/>
</svg>
