<svg width="24" height="24" viewBox="0 0 24 24" fill="none" xmlns="http://www.w3.org/2000/svg">
<path fill-rule="evenodd" clip-rule="evenodd" d="M6 5.00745C5.73478 5.00745 5.48043 5.1128 5.29289 5.30034C5.10536 5.48788 5 5.74223 5 6.00745V8.00745C5 8.55973 4.55228 9.00745 4 9.00745C3.44772 9.00745 3 8.55973 3 8.00745V6.00745C3 5.2118 3.31607 4.44874 3.87868 3.88613C4.44129 3.32352 5.20435 3.00745 6 3.00745H8C8.55228 3.00745 9 3.45516 9 4.00745C9 4.55973 8.55228 5.00745 8 5.00745H6Z" fill="#1F2937"/>
<path fill-rule="evenodd" clip-rule="evenodd" d="M4 15.0074C4.55228 15.0074 5 15.4552 5 16.0074V18.0074C5 18.2727 5.10536 18.527 5.29289 18.7146C5.48043 18.9021 5.73478 19.0074 6 19.0074H8C8.55228 19.0074 9 19.4552 9 20.0074C9 20.5597 8.55228 21.0074 8 21.0074H6C5.20435 21.0074 4.44129 20.6914 3.87868 20.1288C3.31607 19.5662 3 18.8031 3 18.0074V16.0074C3 15.4552 3.44772 15.0074 4 15.0074Z" fill="#1F2937"/>
<path fill-rule="evenodd" clip-rule="evenodd" d="M15 4.00745C15 3.45516 15.4477 3.00745 16 3.00745H18C18.7956 3.00745 19.5587 3.32352 20.1213 3.88613C20.6839 4.44873 21 5.2118 21 6.00745V8.00745C21 8.55973 20.5523 9.00745 20 9.00745C19.4477 9.00745 19 8.55973 19 8.00745V6.00745C19 5.74223 18.8946 5.48788 18.7071 5.30034C18.5196 5.1128 18.2652 5.00745 18 5.00745H16C15.4477 5.00745 15 4.55973 15 4.00745Z" fill="#1F2937"/>
<path fill-rule="evenodd" clip-rule="evenodd" d="M20 15.0074C20.5523 15.0074 21 15.4552 21 16.0074V18.0074C21 18.8031 20.6839 19.5662 20.1213 20.1288C19.5587 20.6914 18.7957 21.0074 18 21.0074H16C15.4477 21.0074 15 20.5597 15 20.0074C15 19.4552 15.4477 19.0074 16 19.0074H18C18.2652 19.0074 18.5196 18.9021 18.7071 18.7146C18.8946 18.527 19 18.2727 19 18.0074V16.0074C19 15.4552 19.4477 15.0074 20 15.0074Z" fill="#1F2937"/>
</svg>
