<svg width="24" height="24" viewBox="0 0 24 24" fill="none" xmlns="http://www.w3.org/2000/svg">
<path fill-rule="evenodd" clip-rule="evenodd" d="M3 6.99938C3 6.44744 3.44772 6 4 6H20C20.5523 6 21 6.44744 21 6.99938C21 7.55132 20.5523 7.99875 20 7.99875H4C3.44772 7.99875 3 7.55132 3 6.99938Z" fill="#1F2937"/>
<path fill-rule="evenodd" clip-rule="evenodd" d="M3 11.9963C3 11.4443 3.44772 10.9969 4 10.9969H20C20.5523 10.9969 21 11.4443 21 11.9963C21 12.5482 20.5523 12.9956 20 12.9956H4C3.44772 12.9956 3 12.5482 3 11.9963Z" fill="#1F2937"/>
<path fill-rule="evenodd" clip-rule="evenodd" d="M3 17.0006C3 16.4487 3.44772 16.0012 4 16.0012H20C20.5523 16.0012 21 16.4487 21 17.0006C21 17.5525 20.5523 18 20 18H4C3.44772 18 3 17.5525 3 17.0006Z" fill="#1F2937"/>
</svg>
