<svg width="24" height="24" viewBox="0 0 24 24" fill="none" xmlns="http://www.w3.org/2000/svg">
<path fill-rule="evenodd" clip-rule="evenodd" d="M7 5.99252C6.46957 5.99252 5.96086 6.20323 5.58579 6.5783C5.21071 6.95337 5 7.46208 5 7.99252V13.9925C5 14.5229 5.21071 15.0317 5.58579 15.4067C5.96086 15.7818 6.46957 15.9925 7 15.9925H9C9.26522 15.9925 9.51957 16.0979 9.70711 16.2854L12 18.5783L14.2929 16.2854C14.4804 16.0979 14.7348 15.9925 15 15.9925H17C17.5304 15.9925 18.0391 15.7818 18.4142 15.4067C18.7893 15.0317 19 14.5229 19 13.9925V7.99252C19 7.46208 18.7893 6.95337 18.4142 6.5783C18.0391 6.20323 17.5304 5.99252 17 5.99252H7ZM4.17157 5.16409C4.92172 4.41394 5.93913 3.99252 7 3.99252H17C18.0609 3.99252 19.0783 4.41394 19.8284 5.16409C20.5786 5.91423 21 6.93165 21 7.99252V13.9925C21 15.0534 20.5786 16.0708 19.8284 16.8209C19.0783 17.5711 18.0609 17.9925 17 17.9925H15.4142L12.7071 20.6996C12.3166 21.0901 11.6834 21.0901 11.2929 20.6996L8.58579 17.9925H7C5.93913 17.9925 4.92172 17.5711 4.17157 16.8209C3.42143 16.0708 3 15.0534 3 13.9925V7.99252C3 6.93165 3.42143 5.91423 4.17157 5.16409Z" fill="#1F2937"/>
<path fill-rule="evenodd" clip-rule="evenodd" d="M7 9C7 8.44772 7.44772 8 8 8H16C16.5523 8 17 8.44772 17 9C17 9.55228 16.5523 10 16 10H8C7.44772 10 7 9.55228 7 9Z" fill="#1F2937"/>
<path fill-rule="evenodd" clip-rule="evenodd" d="M7 13.0075C7 12.4552 7.44772 12.0075 8 12.0075H14C14.5523 12.0075 15 12.4552 15 13.0075C15 13.5598 14.5523 14.0075 14 14.0075H8C7.44772 14.0075 7 13.5598 7 13.0075Z" fill="#1F2937"/>
</svg>
