<svg width="24" height="24" viewBox="0 0 24 24" fill="none" xmlns="http://www.w3.org/2000/svg">
<path fill-rule="evenodd" clip-rule="evenodd" d="M9.58579 2.58579C9.96086 2.21071 10.4696 2 11 2H20C20.5304 2 21.0391 2.21071 21.4142 2.58579C21.7893 2.96086 22 3.46957 22 4V14C22 14.4045 21.7564 14.7691 21.3827 14.9239C21.009 15.0787 20.5789 14.9931 20.2929 14.7071L17.5858 12H11C10.4696 12 9.96086 11.7893 9.58579 11.4142C9.21071 11.0391 9 10.5304 9 10V4C9 3.46957 9.21071 2.96086 9.58579 2.58579ZM20 4H11L11 10H18C18.2652 10 18.5196 10.1054 18.7071 10.2929L20 11.5858V4Z" fill="#1F2937"/>
<path fill-rule="evenodd" clip-rule="evenodd" d="M2.58579 9.59327C2.96086 9.2182 3.46957 9.00748 4 9.00748H6C6.55228 9.00748 7 9.4552 7 10.0075C7 10.5598 6.55228 11.0075 6 11.0075L4 11.0075V18.5933L5.29289 17.3004C5.48043 17.1128 5.73478 17.0075 6 17.0075H13V15.0075C13 14.4552 13.4477 14.0075 14 14.0075C14.5523 14.0075 15 14.4552 15 15.0075V17.0075C15 17.5379 14.7893 18.0466 14.4142 18.4217C14.0391 18.7968 13.5304 19.0075 13 19.0075H6.41421L3.70711 21.7146C3.42111 22.0006 2.99099 22.0861 2.61732 21.9314C2.24364 21.7766 2 21.4119 2 21.0075V11.0075C2 10.4771 2.21071 9.96834 2.58579 9.59327Z" fill="#1F2937"/>
</svg>
