<svg width="24" height="24" viewBox="0 0 24 24" fill="none" xmlns="http://www.w3.org/2000/svg">
<path fill-rule="evenodd" clip-rule="evenodd" d="M7 5.99252C6.46957 5.99252 5.96086 6.20323 5.58579 6.5783C5.21071 6.95337 5 7.46208 5 7.99252V18.5783L7.29289 16.2854C7.48043 16.0979 7.73478 15.9925 8 15.9925H17C17.5304 15.9925 18.0391 15.7818 18.4142 15.4067C18.7893 15.0317 19 14.5229 19 13.9925V7.99252C19 7.46208 18.7893 6.95337 18.4142 6.5783C18.0391 6.20323 17.5304 5.99252 17 5.99252H7ZM4.17157 5.16409C4.92172 4.41394 5.93913 3.99252 7 3.99252H17C18.0609 3.99252 19.0783 4.41394 19.8284 5.16409C20.5786 5.91423 21 6.93165 21 7.99252V13.9925C21 15.0534 20.5786 16.0708 19.8284 16.8209C19.0783 17.5711 18.0609 17.9925 17 17.9925H8.41421L4.70711 21.6996C4.42111 21.9856 3.99099 22.0712 3.61732 21.9164C3.24364 21.7616 3 21.397 3 20.9925V7.99252C3 6.93165 3.42143 5.91423 4.17157 5.16409Z" fill="#1F2937"/>
<path fill-rule="evenodd" clip-rule="evenodd" d="M12 9.99252C12.5523 9.99252 13 10.4402 13 10.9925V11.0025C13 11.5548 12.5523 12.0025 12 12.0025C11.4477 12.0025 11 11.5548 11 11.0025V10.9925C11 10.4402 11.4477 9.99252 12 9.99252Z" fill="#1F2937"/>
<path fill-rule="evenodd" clip-rule="evenodd" d="M8 9.99252C8.55228 9.99252 9 10.4402 9 10.9925V11.0025C9 11.5548 8.55228 12.0025 8 12.0025C7.44772 12.0025 7 11.5548 7 11.0025V10.9925C7 10.4402 7.44772 9.99252 8 9.99252Z" fill="#1F2937"/>
<path fill-rule="evenodd" clip-rule="evenodd" d="M16 9.99252C16.5523 9.99252 17 10.4402 17 10.9925V11.0025C17 11.5548 16.5523 12.0025 16 12.0025C15.4477 12.0025 15 11.5548 15 11.0025V10.9925C15 10.4402 15.4477 9.99252 16 9.99252Z" fill="#1F2937"/>
</svg>
