<svg width="24" height="24" viewBox="0 0 24 24" fill="none" xmlns="http://www.w3.org/2000/svg">
<path fill-rule="evenodd" clip-rule="evenodd" d="M12.3838 4.99203C10.4157 4.91223 8.49475 5.4719 6.97866 6.54748C5.46468 7.62157 4.46845 9.12691 4.13661 10.7663C3.8054 12.4026 4.15028 14.0984 5.12868 15.5455C5.30282 15.803 5.34727 16.1269 5.24895 16.4218L4.50164 18.6638L7.49216 18.0275C7.70986 17.9812 7.93678 18.0088 8.137 18.106C9.85115 18.9382 11.8579 19.1924 13.7777 18.812C15.6974 18.4317 17.3711 17.4493 18.5025 16.0767C19.6309 14.7077 20.1471 13.0422 19.9851 11.3881C19.8229 9.73235 18.9877 8.15955 17.5966 6.97301C16.2029 5.78426 14.3519 5.07183 12.3838 4.99203ZM2.94423 21.0043C3.03962 21.0097 3.13406 21.0012 3.22495 20.9802L7.58187 20.0532C9.62162 20.9601 11.945 21.214 14.1664 20.7739C16.5045 20.3107 18.599 19.104 20.0458 17.3488C21.4956 15.5899 22.1919 13.4019 21.9756 11.1931C21.7594 8.98596 20.6509 6.94944 18.8945 5.45134C17.1407 3.95543 14.8545 3.09056 12.4649 2.99367C10.0753 2.89679 7.71474 3.57308 5.82142 4.91629C3.92598 6.261 2.61698 8.1927 2.17637 10.3695C1.76804 12.3868 2.13839 14.4555 3.20139 16.24L2.05694 19.6733C2.02586 19.7613 2.00689 19.8542 2.00159 19.9496C1.99463 20.0723 2.01064 20.1934 2.04685 20.3075C2.0905 20.4459 2.16234 20.5691 2.25453 20.6721C2.34653 20.7752 2.46095 20.8604 2.59362 20.9193C2.7029 20.968 2.8215 20.9975 2.94423 21.0043Z" fill="#1F2937"/>
<path fill-rule="evenodd" clip-rule="evenodd" d="M12 11C12.5523 11 13 11.4477 13 12V12.01C13 12.5623 12.5523 13.01 12 13.01C11.4477 13.01 11 12.5623 11 12.01V12C11 11.4477 11.4477 11 12 11Z" fill="#1F2937"/>
<path fill-rule="evenodd" clip-rule="evenodd" d="M8 11C8.55228 11 9 11.4477 9 12V12.01C9 12.5623 8.55228 13.01 8 13.01C7.44772 13.01 7 12.5623 7 12.01V12C7 11.4477 7.44772 11 8 11Z" fill="#1F2937"/>
<path fill-rule="evenodd" clip-rule="evenodd" d="M16 11C16.5523 11 17 11.4477 17 12V12.01C17 12.5623 16.5523 13.01 16 13.01C15.4477 13.01 15 12.5623 15 12.01V12C15 11.4477 15.4477 11 16 11Z" fill="#1F2937"/>
</svg>
