<svg width="16" height="16" viewBox="0 0 16 16" fill="none" xmlns="http://www.w3.org/2000/svg">
<g clip-path="url(#clip0_3652_82434)">
<path d="M3.99984 4.0013V12.0013H11.9998V4.0013H3.99984ZM13.3332 12.0013C13.3332 12.3549 13.1926 12.694 12.9425 12.944C12.6925 13.1941 12.3535 13.3346 11.9998 13.3346H3.99984C3.64622 13.3346 3.30718 13.1941 3.05713 12.944C2.80708 12.694 2.6665 12.3549 2.6665 12.0013V4.0013C2.6665 3.64768 2.80708 3.30864 3.05713 3.05859C3.30718 2.80855 3.64621 2.66797 3.99984 2.66797H11.9998C12.3535 2.66797 12.6925 2.80855 12.9425 3.05859C13.1926 3.30864 13.3332 3.64768 13.3332 4.0013V12.0013Z" fill="#1F2937"/>
<path d="M10.0002 5.33203C10.3684 5.33203 10.6668 5.63051 10.6668 5.9987V9.9987C10.6668 10.3669 10.3684 10.6654 10.0002 10.6654H6.00016C5.63197 10.6654 5.3335 10.3669 5.3335 9.9987V5.9987C5.3335 5.63051 5.63197 5.33203 6.00016 5.33203H10.0002ZM6.66683 9.33203H9.3335V6.66536H6.66683V9.33203Z" fill="#1F2937"/>
<path d="M3.3335 6C3.70169 6 4.00016 6.29848 4.00016 6.66667C4.00016 7.03486 3.70169 7.33333 3.3335 7.33333H2.00016C1.63197 7.33333 1.3335 7.03486 1.3335 6.66667C1.3335 6.29848 1.63197 6 2.00016 6H3.3335Z" fill="#1F2937"/>
<path d="M3.3335 8.66797C3.70169 8.66797 4.00016 8.96645 4.00016 9.33464C4.00016 9.70283 3.70169 10.0013 3.3335 10.0013H2.00016C1.63197 10.0013 1.3335 9.70283 1.3335 9.33464C1.3335 8.96645 1.63197 8.66797 2.00016 8.66797H3.3335Z" fill="#1F2937"/>
<path d="M6 3.33203V1.9987C6 1.63051 6.29848 1.33203 6.66667 1.33203C7.03486 1.33203 7.33333 1.63051 7.33333 1.9987V3.33203C7.33333 3.70022 7.03486 3.9987 6.66667 3.9987C6.29848 3.9987 6 3.70022 6 3.33203Z" fill="#1F2937"/>
<path d="M8.6665 3.33203V1.9987C8.6665 1.63051 8.96498 1.33203 9.33317 1.33203C9.70136 1.33203 9.99984 1.63051 9.99984 1.9987V3.33203C9.99984 3.70022 9.70136 3.9987 9.33317 3.9987C8.96498 3.9987 8.6665 3.70022 8.6665 3.33203Z" fill="#1F2937"/>
<path d="M14 6C14.3682 6 14.6667 6.29848 14.6667 6.66667C14.6667 7.03486 14.3682 7.33333 14 7.33333H12.6667C12.2985 7.33333 12 7.03486 12 6.66667C12 6.29848 12.2985 6 12.6667 6H14Z" fill="#1F2937"/>
<path d="M14 8.66797C14.3682 8.66797 14.6667 8.96645 14.6667 9.33464C14.6667 9.70283 14.3682 10.0013 14 10.0013H12.6667C12.2985 10.0013 12 9.70283 12 9.33464C12 8.96645 12.2985 8.66797 12.6667 8.66797H14Z" fill="#1F2937"/>
<path d="M8.6665 14V12.6667C8.6665 12.2985 8.96498 12 9.33317 12C9.70136 12 9.99984 12.2985 9.99984 12.6667V14C9.99984 14.3682 9.70136 14.6667 9.33317 14.6667C8.96498 14.6667 8.6665 14.3682 8.6665 14Z" fill="#1F2937"/>
<path d="M6 14V12.6667C6 12.2985 6.29848 12 6.66667 12C7.03486 12 7.33333 12.2985 7.33333 12.6667V14C7.33333 14.3682 7.03486 14.6667 6.66667 14.6667C6.29848 14.6667 6 14.3682 6 14Z" fill="#1F2937"/>
</g>
<defs>
<clipPath id="clip0_3652_82434">
<rect width="16" height="16" fill="white"/>
</clipPath>
</defs>
</svg>
