<svg width="24" height="24" viewBox="0 0 24 24" fill="none" xmlns="http://www.w3.org/2000/svg">
<path fill-rule="evenodd" clip-rule="evenodd" d="M12 2.99252C10.8954 2.99252 10 3.88795 10 4.99252V9.99252C10 11.0971 10.8954 11.9925 12 11.9925C13.1046 11.9925 14 11.0971 14 9.99252V4.99252C14 3.88795 13.1046 2.99252 12 2.99252ZM8 4.99252C8 2.78338 9.79086 0.992516 12 0.992516C14.2091 0.992516 16 2.78338 16 4.99252V9.99252C16 12.2017 14.2091 13.9925 12 13.9925C9.79086 13.9925 8 12.2017 8 9.99252V4.99252Z" fill="#1F2937"/>
<path fill-rule="evenodd" clip-rule="evenodd" d="M5 9.00748C5.55228 9.00748 6 9.4552 6 10.0075C6 11.5988 6.63214 13.1249 7.75736 14.2501C8.88258 15.3753 10.4087 16.0075 12 16.0075C13.5913 16.0075 15.1174 15.3753 16.2426 14.2501C17.3679 13.1249 18 11.5988 18 10.0075C18 9.4552 18.4477 9.00748 19 9.00748C19.5523 9.00748 20 9.4552 20 10.0075C20 12.1292 19.1571 14.164 17.6569 15.6643C16.1566 17.1646 14.1217 18.0075 12 18.0075C9.87827 18.0075 7.84344 17.1646 6.34315 15.6643C4.84285 14.164 4 12.1292 4 10.0075C4 9.4552 4.44772 9.00748 5 9.00748Z" fill="#1F2937"/>
<path fill-rule="evenodd" clip-rule="evenodd" d="M7 21C7 20.4477 7.44772 20 8 20H16C16.5523 20 17 20.4477 17 21C17 21.5523 16.5523 22 16 22H8C7.44772 22 7 21.5523 7 21Z" fill="#1F2937"/>
<path fill-rule="evenodd" clip-rule="evenodd" d="M12 15.9925C12.5523 15.9925 13 16.4402 13 16.9925V20.9925C13 21.5448 12.5523 21.9925 12 21.9925C11.4477 21.9925 11 21.5448 11 20.9925V16.9925C11 16.4402 11.4477 15.9925 12 15.9925Z" fill="#1F2937"/>
</svg>
