<svg width="24" height="24" viewBox="0 0 24 24" fill="none" xmlns="http://www.w3.org/2000/svg">
<path fill-rule="evenodd" clip-rule="evenodd" d="M17 16C16.7348 16 16.4804 16.1054 16.2929 16.2929C16.1054 16.4804 16 16.7348 16 17V19C16 19.5523 15.5523 20 15 20C14.4477 20 14 19.5523 14 19V17C14 16.2043 14.3161 15.4413 14.8787 14.8787C15.4413 14.3161 16.2043 14 17 14H19C19.5523 14 20 14.4477 20 15C20 15.5523 19.5523 16 19 16H17Z" fill="#1F2937"/>
<path fill-rule="evenodd" clip-rule="evenodd" d="M15 3.99255C15.5523 3.99255 16 4.44027 16 4.99255V6.99255C16 7.25777 16.1054 7.51212 16.2929 7.69966C16.4804 7.8872 16.7348 7.99255 17 7.99255H19C19.5523 7.99255 20 8.44027 20 8.99255C20 9.54484 19.5523 9.99255 19 9.99255H17C16.2043 9.99255 15.4413 9.67648 14.8787 9.11387C14.3161 8.55126 14 7.7882 14 6.99255V4.99255C14 4.44027 14.4477 3.99255 15 3.99255Z" fill="#1F2937"/>
<path fill-rule="evenodd" clip-rule="evenodd" d="M4 15C4 14.4477 4.44772 14 5 14H7C7.79565 14 8.55871 14.3161 9.12132 14.8787C9.68393 15.4413 10 16.2043 10 17V19C10 19.5523 9.55228 20 9 20C8.44772 20 8 19.5523 8 19V17C8 16.7348 7.89464 16.4804 7.70711 16.2929C7.51957 16.1054 7.26522 16 7 16H5C4.44772 16 4 15.5523 4 15Z" fill="#1F2937"/>
<path fill-rule="evenodd" clip-rule="evenodd" d="M9 3.99255C9.55228 3.99255 10 4.44027 10 4.99255V6.99255C10 7.7882 9.68393 8.55126 9.12132 9.11387C8.55871 9.67648 7.79565 9.99255 7 9.99255H5C4.44772 9.99255 4 9.54484 4 8.99255C4 8.44027 4.44772 7.99255 5 7.99255H7C7.26522 7.99255 7.51957 7.8872 7.70711 7.69966C7.89464 7.51212 8 7.25777 8 6.99255V4.99255C8 4.44027 8.44772 3.99255 9 3.99255Z" fill="#1F2937"/>
</svg>
