<svg width="24" height="24" viewBox="0 0 24 24" fill="none" xmlns="http://www.w3.org/2000/svg">
<path fill-rule="evenodd" clip-rule="evenodd" d="M4 4.99255C4 4.44027 4.44772 3.99255 5 3.99255H8C8.55228 3.99255 9 4.44027 9 4.99255C9 5.54484 8.55228 5.99255 8 5.99255H5C4.44772 5.99255 4 5.54484 4 4.99255ZM11 4.99255C11 4.44027 11.4477 3.99255 12 3.99255H21C21.5523 3.99255 22 4.44027 22 4.99255C22 5.54484 21.5523 5.99255 21 5.99255H12C11.4477 5.99255 11 5.54484 11 4.99255Z" fill="#1F2937"/>
<path fill-rule="evenodd" clip-rule="evenodd" d="M2 10.0074C2 9.45516 2.44772 9.00745 3 9.00745H14C14.5523 9.00745 15 9.45516 15 10.0074C15 10.5597 14.5523 11.0074 14 11.0074H3C2.44772 11.0074 2 10.5597 2 10.0074ZM17 10.0074C17 9.45516 17.4477 9.00745 18 9.00745H19C19.5523 9.00745 20 9.45516 20 10.0074C20 10.5597 19.5523 11.0074 19 11.0074H18C17.4477 11.0074 17 10.5597 17 10.0074Z" fill="#1F2937"/>
<path fill-rule="evenodd" clip-rule="evenodd" d="M4 15C4 14.4477 4.44772 14 5 14H10C10.5523 14 11 14.4477 11 15C11 15.5523 10.5523 16 10 16H5C4.44772 16 4 15.5523 4 15ZM13 15C13 14.4477 13.4477 14 14 14H21C21.5523 14 22 14.4477 22 15C22 15.5523 21.5523 16 21 16H14C13.4477 16 13 15.5523 13 15Z" fill="#1F2937"/>
<path fill-rule="evenodd" clip-rule="evenodd" d="M2 19.9926C2 19.4403 2.44772 18.9926 3 18.9926H12C12.5523 18.9926 13 19.4403 13 19.9926C13 20.5448 12.5523 20.9926 12 20.9926H3C2.44772 20.9926 2 20.5448 2 19.9926ZM15 19.9926C15 19.4403 15.4477 18.9926 16 18.9926H19C19.5523 18.9926 20 19.4403 20 19.9926C20 20.5448 19.5523 20.9926 19 20.9926H16C15.4477 20.9926 15 20.5448 15 19.9926Z" fill="#1F2937"/>
</svg>
