<svg width="24" height="24" viewBox="0 0 24 24" fill="none" xmlns="http://www.w3.org/2000/svg">
<path fill-rule="evenodd" clip-rule="evenodd" d="M12 4C7.58172 4 4 7.58172 4 12C4 16.4183 7.58172 20 12 20C16.4183 20 20 16.4183 20 12C20 7.58172 16.4183 4 12 4ZM2 12C2 6.47715 6.47715 2 12 2C17.5228 2 22 6.47715 22 12C22 17.5228 17.5228 22 12 22C6.47715 22 2 17.5228 2 12Z" fill="#1F2937"/>
<path fill-rule="evenodd" clip-rule="evenodd" d="M8 10.0075C8 9.45519 8.44772 9.00748 9 9.00748H9.01C9.56228 9.00748 10.01 9.45519 10.01 10.0075C10.01 10.5598 9.56228 11.0075 9.01 11.0075H9C8.44772 11.0075 8 10.5598 8 10.0075Z" fill="#1F2937"/>
<path fill-rule="evenodd" clip-rule="evenodd" d="M14 10.0075C14 9.45519 14.4477 9.00748 15 9.00748H15.01C15.5623 9.00748 16.01 9.45519 16.01 10.0075C16.01 10.5598 15.5623 11.0075 15.01 11.0075H15C14.4477 11.0075 14 10.5598 14 10.0075Z" fill="#1F2937"/>
<path fill-rule="evenodd" clip-rule="evenodd" d="M12 15.2032C11.6674 15.2032 11.3381 15.2696 11.0315 15.3985C10.7249 15.5273 10.4471 15.716 10.2143 15.9536C9.82777 16.3481 9.19464 16.3546 8.80015 15.968C8.40566 15.5815 8.3992 14.9484 8.78571 14.5539C9.2047 14.1263 9.70481 13.7866 10.2567 13.5546C10.8087 13.3227 11.4013 13.2032 12 13.2032C12.5987 13.2032 13.1913 13.3227 13.7433 13.5546C14.2952 13.7866 14.7953 14.1263 15.2143 14.5539C15.6008 14.9484 15.5943 15.5815 15.1999 15.968C14.8054 16.3546 14.1722 16.3481 13.7857 15.9536C13.5529 15.716 13.2751 15.5273 12.9685 15.3985C12.6619 15.2696 12.3326 15.2032 12 15.2032Z" fill="#1F2937"/>
</svg>
