<svg width="24" height="24" viewBox="0 0 24 24" fill="none" xmlns="http://www.w3.org/2000/svg">
<path fill-rule="evenodd" clip-rule="evenodd" d="M12 4C7.58172 4 4 7.58172 4 12C4 16.4183 7.58172 20 12 20C16.4183 20 20 16.4183 20 12C20 7.58172 16.4183 4 12 4ZM2 12C2 6.47715 6.47715 2 12 2C17.5228 2 22 6.47715 22 12C22 17.5228 17.5228 22 12 22C6.47715 22 2 17.5228 2 12Z" fill="#1F2937"/>
<path fill-rule="evenodd" clip-rule="evenodd" d="M8 10.0075C8 9.45519 8.44772 9.00748 9 9.00748H9.01C9.56228 9.00748 10.01 9.45519 10.01 10.0075C10.01 10.5598 9.56228 11.0075 9.01 11.0075H9C8.44772 11.0075 8 10.5598 8 10.0075Z" fill="#1F2937"/>
<path fill-rule="evenodd" clip-rule="evenodd" d="M14 10.0075C14 9.45519 14.4477 9.00748 15 9.00748H15.01C15.5623 9.00748 16.01 9.45519 16.01 10.0075C16.01 10.5598 15.5623 11.0075 15.01 11.0075H15C14.4477 11.0075 14 10.5598 14 10.0075Z" fill="#1F2937"/>
<path fill-rule="evenodd" clip-rule="evenodd" d="M8 15C8 14.4477 8.44772 14 9 14H15C15.5523 14 16 14.4477 16 15C16 15.5523 15.5523 16 15 16H9C8.44772 16 8 15.5523 8 15Z" fill="#1F2937"/>
</svg>
