<svg width="24" height="24" viewBox="0 0 24 24" fill="none" xmlns="http://www.w3.org/2000/svg">
<path fill-rule="evenodd" clip-rule="evenodd" d="M12 4C7.58172 4 4 7.58172 4 12C4 16.4183 7.58172 20 12 20C16.4183 20 20 16.4183 20 12C20 7.58172 16.4183 4 12 4ZM2 12C2 6.47715 6.47715 2 12 2C17.5228 2 22 6.47715 22 12C22 17.5228 17.5228 22 12 22C6.47715 22 2 17.5228 2 12Z" fill="#1F2937"/>
<path fill-rule="evenodd" clip-rule="evenodd" d="M8 10.0075C8 9.45519 8.44772 9.00748 9 9.00748H9.01C9.56228 9.00748 10.01 9.45519 10.01 10.0075C10.01 10.5598 9.56228 11.0075 9.01 11.0075H9C8.44772 11.0075 8 10.5598 8 10.0075Z" fill="#1F2937"/>
<path fill-rule="evenodd" clip-rule="evenodd" d="M14 10.0075C14 9.45519 14.4477 9.00748 15 9.00748H15.01C15.5623 9.00748 16.01 9.45519 16.01 10.0075C16.01 10.5598 15.5623 11.0075 15.01 11.0075H15C14.4477 11.0075 14 10.5598 14 10.0075Z" fill="#1F2937"/>
<path fill-rule="evenodd" clip-rule="evenodd" d="M7.5 13.9925C7.5 13.4402 7.94772 12.9925 8.5 12.9925H15.5C16.0523 12.9925 16.5 13.4402 16.5 13.9925C16.5 14.5448 16.0523 14.9925 15.5 14.9925H15V15.9925C15 16.7882 14.6839 17.5512 14.1213 18.1138C13.5587 18.6765 12.7957 18.9925 12 18.9925C11.2043 18.9925 10.4413 18.6765 9.87868 18.1138C9.31607 17.5512 9 16.7882 9 15.9925V14.9925H8.5C7.94772 14.9925 7.5 14.5448 7.5 13.9925ZM11 14.9925V15.9925C11 16.2577 11.1054 16.5121 11.2929 16.6996C11.4804 16.8872 11.7348 16.9925 12 16.9925C12.2652 16.9925 12.5196 16.8872 12.7071 16.6996C12.8946 16.5121 13 16.2577 13 15.9925V14.9925H11Z" fill="#1F2937"/>
</svg>
