<svg width="24" height="24" viewBox="0 0 24 24" fill="none" xmlns="http://www.w3.org/2000/svg">
<path fill-rule="evenodd" clip-rule="evenodd" d="M12 4C7.58172 4 4 7.58172 4 12C4 16.4183 7.58172 20 12 20C16.4183 20 20 16.4183 20 12C20 7.58172 16.4183 4 12 4ZM2 12C2 6.47715 6.47715 2 12 2C17.5228 2 22 6.47715 22 12C22 17.5228 17.5228 22 12 22C6.47715 22 2 17.5228 2 12Z" fill="#1F2937"/>
<path fill-rule="evenodd" clip-rule="evenodd" d="M8 9C8 8.44772 8.44772 8 9 8H9.01C9.56228 8 10.01 8.44772 10.01 9C10.01 9.55228 9.56228 10 9.01 10H9C8.44772 10 8 9.55228 8 9Z" fill="#1F2937"/>
<path fill-rule="evenodd" clip-rule="evenodd" d="M14 9C14 8.44772 14.4477 8 15 8H15.01C15.5623 8 16.01 8.44772 16.01 9C16.01 9.55228 15.5623 10 15.01 10H15C14.4477 10 14 9.55228 14 9Z" fill="#1F2937"/>
<path fill-rule="evenodd" clip-rule="evenodd" d="M12 14.0075C11.4477 14.0075 11 14.4552 11 15.0075C11 15.5598 11.4477 16.0075 12 16.0075C12.5523 16.0075 13 15.5598 13 15.0075C13 14.4552 12.5523 14.0075 12 14.0075ZM9 15.0075C9 13.3506 10.3431 12.0075 12 12.0075C13.6569 12.0075 15 13.3506 15 15.0075C15 16.6643 13.6569 18.0075 12 18.0075C10.3431 18.0075 9 16.6643 9 15.0075Z" fill="#1F2937"/>
</svg>
