<svg width="24" height="24" viewBox="0 0 24 24" fill="none" xmlns="http://www.w3.org/2000/svg">
<path fill-rule="evenodd" clip-rule="evenodd" d="M12 4C7.58172 4 4 7.58172 4 12C4 16.4183 7.58172 20 12 20C16.4183 20 20 16.4183 20 12C20 7.58172 16.4183 4 12 4ZM2 12C2 6.47715 6.47715 2 12 2C17.5228 2 22 6.47715 22 12C22 17.5228 17.5228 22 12 22C6.47715 22 2 17.5228 2 12Z" fill="#1F2937"/>
<path fill-rule="evenodd" clip-rule="evenodd" d="M8 9C8 8.44772 8.44772 8 9 8H9.01C9.56228 8 10.01 8.44772 10.01 9C10.01 9.55228 9.56228 10 9.01 10H9C8.44772 10 8 9.55228 8 9Z" fill="#1F2937"/>
<path fill-rule="evenodd" clip-rule="evenodd" d="M14 9C14 8.44772 14.4477 8 15 8H15.01C15.5623 8 16.01 8.44772 16.01 9C16.01 9.55228 15.5623 10 15.01 10H15C14.4477 10 14 9.55228 14 9Z" fill="#1F2937"/>
<path fill-rule="evenodd" clip-rule="evenodd" d="M7 13.0075C7 12.4552 7.44772 12.0075 8 12.0075H16C16.5523 12.0075 17 12.4552 17 13.0075C17 14.3336 16.4732 15.6053 15.5355 16.543C14.5979 17.4807 13.3261 18.0075 12 18.0075C10.6739 18.0075 9.40215 17.4807 8.46447 16.543C7.52678 15.6053 7 14.3336 7 13.0075ZM9.17157 14.0075C9.31933 14.4254 9.55927 14.8094 9.87868 15.1288C10.4413 15.6914 11.2044 16.0075 12 16.0075C12.7956 16.0075 13.5587 15.6914 14.1213 15.1288C14.4407 14.8094 14.6807 14.4254 14.8284 14.0075H9.17157Z" fill="#1F2937"/>
</svg>
