<svg width="24" height="24" viewBox="0 0 24 24" fill="none" xmlns="http://www.w3.org/2000/svg">
<path fill-rule="evenodd" clip-rule="evenodd" d="M12 4C7.58172 4 4 7.58172 4 12C4 16.4183 7.58172 20 12 20C16.4183 20 20 16.4183 20 12C20 7.58172 16.4183 4 12 4ZM2 12C2 6.47715 6.47715 2 12 2C17.5228 2 22 6.47715 22 12C22 17.5228 17.5228 22 12 22C6.47715 22 2 17.5228 2 12Z" fill="#1F2937"/>
<path fill-rule="evenodd" clip-rule="evenodd" d="M8 10.0075C8 9.45519 8.44772 9.00748 9 9.00748H9.01C9.56228 9.00748 10.01 9.45519 10.01 10.0075C10.01 10.5598 9.56228 11.0075 9.01 11.0075H9C8.44772 11.0075 8 10.5598 8 10.0075Z" fill="#1F2937"/>
<path fill-rule="evenodd" clip-rule="evenodd" d="M14 10.0075C14 9.45519 14.4477 9.00748 15 9.00748H15.01C15.5623 9.00748 16.01 9.45519 16.01 10.0075C16.01 10.5598 15.5623 11.0075 15.01 11.0075H15C14.4477 11.0075 14 10.5598 14 10.0075Z" fill="#1F2937"/>
<path fill-rule="evenodd" clip-rule="evenodd" d="M15.4308 15.506C13.5334 15.3741 11.6429 15.8467 10.0308 16.856C9.56267 17.1491 8.94561 17.0072 8.65254 16.5391C8.35947 16.071 8.50137 15.4539 8.96948 15.1608C10.9399 13.9273 13.2504 13.3496 15.5695 13.5108C16.1204 13.5491 16.536 14.0268 16.4977 14.5778C16.4594 15.1287 15.9817 15.5443 15.4308 15.506Z" fill="#1F2937"/>
</svg>
