<svg width="24" height="24" viewBox="0 0 24 24" fill="none" xmlns="http://www.w3.org/2000/svg">
<path fill-rule="evenodd" clip-rule="evenodd" d="M12 4C7.58172 4 4 7.58172 4 12C4 16.4183 7.58172 20 12 20C16.4183 20 20 16.4183 20 12C20 7.58172 16.4183 4 12 4ZM2 12C2 6.47715 6.47715 2 12 2C17.5228 2 22 6.47715 22 12C22 17.5228 17.5228 22 12 22C6.47715 22 2 17.5228 2 12Z" fill="#1F2937"/>
<path fill-rule="evenodd" clip-rule="evenodd" d="M8 10.0075C8 9.45519 8.44772 9.00748 9 9.00748H9.01C9.56228 9.00748 10.01 9.45519 10.01 10.0075C10.01 10.5598 9.56228 11.0075 9.01 11.0075H9C8.44772 11.0075 8 10.5598 8 10.0075Z" fill="#1F2937"/>
<path fill-rule="evenodd" clip-rule="evenodd" d="M14 10.0075C14 9.45519 14.4477 9.00748 15 9.00748H15.01C15.5623 9.00748 16.01 9.45519 16.01 10.0075C16.01 10.5598 15.5623 11.0075 15.01 11.0075H15C14.4477 11.0075 14 10.5598 14 10.0075Z" fill="#1F2937"/>
<path fill-rule="evenodd" clip-rule="evenodd" d="M8.80015 14.2857C9.19464 13.8992 9.82777 13.9057 10.2143 14.3001C10.4471 14.5377 10.7249 14.7265 11.0315 14.8553C11.3381 14.9841 11.6674 15.0505 12 15.0505C12.3326 15.0505 12.6619 14.9841 12.9685 14.8553C13.2751 14.7265 13.5529 14.5377 13.7857 14.3001C14.1722 13.9057 14.8054 13.8992 15.1999 14.2857C15.5943 14.6722 15.6008 15.3054 15.2143 15.6999C14.7953 16.1275 14.2952 16.4672 13.7433 16.6991C13.1913 16.9311 12.5987 17.0505 12 17.0505C11.4013 17.0505 10.8087 16.9311 10.2567 16.6991C9.70481 16.4672 9.2047 16.1275 8.78571 15.6999C8.3992 15.3054 8.40566 14.6722 8.80015 14.2857Z" fill="#1F2937"/>
<path fill-rule="evenodd" clip-rule="evenodd" d="M9.87868 2.87868C10.4413 2.31607 11.2044 2 12 2C12.5523 2 13 2.44772 13 3C13 3.55228 12.5523 4 12 4C11.7348 4 11.4804 4.10536 11.2929 4.29289C11.1054 4.48043 11 4.73478 11 5C11 5.26522 11.1054 5.51957 11.2929 5.70711C11.4804 5.89464 11.7348 6 12 6C12.5523 6 13 6.44772 13 7C13 7.55228 12.5523 8 12 8C11.2044 8 10.4413 7.68393 9.87868 7.12132C9.31607 6.55871 9 5.79565 9 5C9 4.20435 9.31607 3.44129 9.87868 2.87868Z" fill="#1F2937"/>
</svg>
