<svg width="24" height="24" viewBox="0 0 24 24" fill="none" xmlns="http://www.w3.org/2000/svg">
<path fill-rule="evenodd" clip-rule="evenodd" d="M16.7399 3.16771C16.7102 3.14861 16.6795 3.13106 16.6478 3.11515C14.886 2.19531 12.8906 1.81952 10.9147 2.0357C8.93263 2.25257 7.06018 3.05525 5.53645 4.34127C4.01272 5.62729 2.90686 7.33826 2.36008 9.25572C1.81331 11.1732 1.85043 13.2101 2.46671 15.1063C3.083 17.0026 4.25047 18.6721 5.82005 19.9018C7.38963 21.1314 9.29009 21.8653 11.2787 22.0098C13.2674 22.1543 15.254 21.7028 16.9848 20.713C18.7157 19.7232 20.1122 18.2399 20.9961 16.4527C21.1943 16.0521 21.1025 15.5686 20.7714 15.2685C20.4403 14.9683 19.9502 14.9243 19.5709 15.1607C18.8623 15.6023 18.0624 15.8767 17.232 15.9633C16.4016 16.0498 15.5623 15.9461 14.7779 15.6601C13.9935 15.3741 13.2845 14.9133 12.7046 14.3125C12.1248 13.7118 11.6893 12.9869 11.4312 12.1929C11.1732 11.3988 11.0993 10.5564 11.2151 9.72958C11.331 8.90272 11.6336 8.1131 12.1 7.42057C12.5664 6.72805 13.1844 6.1508 13.907 5.73259C14.6251 5.31704 15.4277 5.06935 16.2549 5.00797C16.2895 5.00603 16.3238 5.00231 16.3578 4.99683C16.5006 4.97415 16.6325 4.92164 16.7474 4.84626C16.8625 4.77111 16.9634 4.67132 17.0413 4.54965C17.1065 4.44834 17.1537 4.33482 17.1789 4.21382C17.2042 4.09292 17.2064 3.97004 17.1872 3.85119C17.1646 3.70847 17.112 3.57662 17.0367 3.46167C16.9615 3.34656 16.8617 3.24565 16.7399 3.16771ZM12.8689 4.02274C12.2946 3.96063 11.7123 3.96037 11.1322 4.02384C9.54539 4.19746 8.04631 4.84009 6.82641 5.86967C5.60651 6.89925 4.72116 8.26906 4.28341 9.80417C3.84567 11.3393 3.87539 12.97 4.36878 14.4882C4.86218 16.0063 5.79686 17.3429 7.05346 18.3274C8.31006 19.3118 9.83156 19.8994 11.4237 20.0151C13.0158 20.1308 14.6062 19.7693 15.9919 18.9768C16.4985 18.6871 16.9694 18.3446 17.3974 17.9567C16.2787 18.067 15.1493 17.9243 14.0928 17.5391C13.0231 17.1491 12.0563 16.5207 11.2656 15.7015C10.4749 14.8823 9.88108 13.8938 9.52917 12.811C9.17726 11.7282 9.07649 10.5795 9.2345 9.452C9.39252 8.32447 9.80517 7.24772 10.4412 6.30337C11.0693 5.37065 11.8991 4.59127 12.8689 4.02274Z" fill="#1F2937"/>
</svg>
