<svg width="24" height="24" viewBox="0 0 24 24" fill="none" xmlns="http://www.w3.org/2000/svg">
<path fill-rule="evenodd" clip-rule="evenodd" d="M11 5.00751C9.34315 5.00751 8 6.35065 8 8.00751V16.0075C8 17.6644 9.34315 19.0075 11 19.0075H13C14.6569 19.0075 16 17.6644 16 16.0075V8.00751C16 6.35065 14.6569 5.00751 13 5.00751H11ZM6 8.00751C6 5.24608 8.23858 3.00751 11 3.00751H13C15.7614 3.00751 18 5.24608 18 8.00751V16.0075C18 18.7689 15.7614 21.0075 13 21.0075H11C8.23858 21.0075 6 18.7689 6 16.0075V8.00751Z" fill="#1F2937"/>
<path fill-rule="evenodd" clip-rule="evenodd" d="M12 6.99249C12.5523 6.99249 13 7.44021 13 7.99249V10.9925C13 11.5448 12.5523 11.9925 12 11.9925C11.4477 11.9925 11 11.5448 11 10.9925V7.99249C11 7.44021 11.4477 6.99249 12 6.99249Z" fill="#1F2937"/>
</svg>
