<svg width="24" height="24" viewBox="0 0 24 24" fill="none" xmlns="http://www.w3.org/2000/svg">
<path fill-rule="evenodd" clip-rule="evenodd" d="M6 5.00749C5.44772 5.00749 5 5.45521 5 6.00749V18.0075C5 18.5598 5.44772 19.0075 6 19.0075H18C18.5523 19.0075 19 18.5598 19 18.0075V6.00749C19 5.45521 18.5523 5.00749 18 5.00749H6ZM3 6.00749C3 4.35064 4.34315 3.00749 6 3.00749H18C19.6569 3.00749 21 4.35064 21 6.00749V18.0075C21 19.6643 19.6569 21.0075 18 21.0075H6C4.34315 21.0075 3 19.6643 3 18.0075V6.00749Z" fill="#1F2937"/>
<path fill-rule="evenodd" clip-rule="evenodd" d="M8 3.00749C8.55228 3.00749 9 3.45521 9 4.00749V20.0075C9 20.5598 8.55228 21.0075 8 21.0075C7.44772 21.0075 7 20.5598 7 20.0075V4.00749C7 3.45521 7.44772 3.00749 8 3.00749Z" fill="#1F2937"/>
<path fill-rule="evenodd" clip-rule="evenodd" d="M16 3.00749C16.5523 3.00749 17 3.45521 17 4.00749V20.0075C17 20.5598 16.5523 21.0075 16 21.0075C15.4477 21.0075 15 20.5598 15 20.0075V4.00749C15 3.45521 15.4477 3.00749 16 3.00749Z" fill="#1F2937"/>
<path fill-rule="evenodd" clip-rule="evenodd" d="M3 7.99251C3 7.44022 3.44772 6.99251 4 6.99251H8C8.55228 6.99251 9 7.44022 9 7.99251C9 8.54479 8.55228 8.99251 8 8.99251H4C3.44772 8.99251 3 8.54479 3 7.99251Z" fill="#1F2937"/>
<path fill-rule="evenodd" clip-rule="evenodd" d="M3 16.0075C3 15.4552 3.44772 15.0075 4 15.0075H8C8.55228 15.0075 9 15.4552 9 16.0075C9 16.5598 8.55228 17.0075 8 17.0075H4C3.44772 17.0075 3 16.5598 3 16.0075Z" fill="#1F2937"/>
<path fill-rule="evenodd" clip-rule="evenodd" d="M3 12C3 11.4477 3.44772 11 4 11H20C20.5523 11 21 11.4477 21 12C21 12.5523 20.5523 13 20 13H4C3.44772 13 3 12.5523 3 12Z" fill="#1F2937"/>
<path fill-rule="evenodd" clip-rule="evenodd" d="M15 7.99251C15 7.44022 15.4477 6.99251 16 6.99251H20C20.5523 6.99251 21 7.44022 21 7.99251C21 8.54479 20.5523 8.99251 20 8.99251H16C15.4477 8.99251 15 8.54479 15 7.99251Z" fill="#1F2937"/>
<path fill-rule="evenodd" clip-rule="evenodd" d="M15 16.0075C15 15.4552 15.4477 15.0075 16 15.0075H20C20.5523 15.0075 21 15.4552 21 16.0075C21 16.5598 20.5523 17.0075 20 17.0075H16C15.4477 17.0075 15 16.5598 15 16.0075Z" fill="#1F2937"/>
</svg>
