<svg width="24" height="24" viewBox="0 0 24 24" fill="none" xmlns="http://www.w3.org/2000/svg">
<path fill-rule="evenodd" clip-rule="evenodd" d="M3.58579 5.58579C3.96086 5.21071 4.46957 5 5 5H15C15.5304 5 16.0391 5.21071 16.4142 5.58579C16.7893 5.96086 17 6.46957 17 7V15C17 16.3261 16.4732 17.5979 15.5355 18.5355C14.5979 19.4732 13.3261 20 12 20H8C6.67392 20 5.40215 19.4732 4.46447 18.5355C3.52678 17.5979 3 16.3261 3 15V7C3 6.46957 3.21071 5.96086 3.58579 5.58579ZM15 7L5 7L5 15C5 15.7956 5.31607 16.5587 5.87868 17.1213C6.44129 17.6839 7.20435 18 8 18H12C12.7956 18 13.5587 17.6839 14.1213 17.1213C14.6839 16.5587 15 15.7956 15 15V7Z" fill="#1F2937"/>
<path fill-rule="evenodd" clip-rule="evenodd" d="M15 9C15 8.44772 15.4477 8 16 8H18C18.7957 8 19.5587 8.31607 20.1213 8.87868C20.6839 9.44129 21 10.2043 21 11V13C21 13.7957 20.6839 14.5587 20.1213 15.1213C19.5587 15.6839 18.7957 16 18 16H16C15.4477 16 15 15.5523 15 15C15 14.4477 15.4477 14 16 14H18C18.2652 14 18.5196 13.8946 18.7071 13.7071C18.8946 13.5196 19 13.2652 19 13V11C19 10.7348 18.8946 10.4804 18.7071 10.2929C18.5196 10.1054 18.2652 10 18 10H16C15.4477 10 15 9.55228 15 9Z" fill="#1F2937"/>
</svg>
