<svg width="24" height="24" viewBox="0 0 24 24" fill="none" xmlns="http://www.w3.org/2000/svg">
<path fill-rule="evenodd" clip-rule="evenodd" d="M6 14.9925C4.89543 14.9925 4 15.8879 4 16.9925C4 18.0971 4.89543 18.9925 6 18.9925C7.10457 18.9925 8 18.0971 8 16.9925C8 15.8879 7.10457 14.9925 6 14.9925ZM2 16.9925C2 14.7834 3.79086 12.9925 6 12.9925C8.20914 12.9925 10 14.7834 10 16.9925C10 19.2016 8.20914 20.9925 6 20.9925C3.79086 20.9925 2 19.2016 2 16.9925Z" fill="#1F2937"/>
<path fill-rule="evenodd" clip-rule="evenodd" d="M16 14.9925C14.8954 14.9925 14 15.8879 14 16.9925C14 18.0971 14.8954 18.9925 16 18.9925C17.1046 18.9925 18 18.0971 18 16.9925C18 15.8879 17.1046 14.9925 16 14.9925ZM12 16.9925C12 14.7834 13.7909 12.9925 16 12.9925C18.2091 12.9925 20 14.7834 20 16.9925C20 19.2016 18.2091 20.9925 16 20.9925C13.7909 20.9925 12 19.2016 12 16.9925Z" fill="#1F2937"/>
<path fill-rule="evenodd" clip-rule="evenodd" d="M8 4.00749C8 3.45521 8.44772 3.00749 9 3.00749H19C19.5523 3.00749 20 3.45521 20 4.00749V17.0075C20 17.5598 19.5523 18.0075 19 18.0075C18.4477 18.0075 18 17.5598 18 17.0075V5.00749H10V17.0075C10 17.5598 9.55228 18.0075 9 18.0075C8.44772 18.0075 8 17.5598 8 17.0075V4.00749Z" fill="#1F2937"/>
<path fill-rule="evenodd" clip-rule="evenodd" d="M8 7.99251C8 7.44022 8.44772 6.99251 9 6.99251H19C19.5523 6.99251 20 7.44022 20 7.99251C20 8.54479 19.5523 8.99251 19 8.99251H9C8.44772 8.99251 8 8.54479 8 7.99251Z" fill="#1F2937"/>
</svg>
