<svg width="24" height="24" viewBox="0 0 24 24" fill="none" xmlns="http://www.w3.org/2000/svg">
<path fill-rule="evenodd" clip-rule="evenodd" d="M8 12C8 11.4477 8.44772 11 9 11H15C15.5523 11 16 11.4477 16 12C16 12.5523 15.5523 13 15 13H9C8.44772 13 8 12.5523 8 12Z" fill="#1F2937"/>
<path fill-rule="evenodd" clip-rule="evenodd" d="M12 8C12.5523 8 13 8.44772 13 9V15C13 15.5523 12.5523 16 12 16C11.4477 16 11 15.5523 11 15V9C11 8.44772 11.4477 8 12 8Z" fill="#1F2937"/>
<path fill-rule="evenodd" clip-rule="evenodd" d="M3.58579 3.59323C3.96086 3.21816 4.46957 3.00745 5 3.00745H6C6.40446 3.00745 6.7691 3.25109 6.92388 3.62476C7.07866 3.99844 6.9931 4.42856 6.70711 4.71455L4.70711 6.71455C4.42111 7.00055 3.99099 7.08611 3.61732 6.93133C3.24364 6.77654 3 6.41191 3 6.00745V5.00745C3 4.47701 3.21071 3.96831 3.58579 3.59323ZM10 4.00745C10 3.45516 10.4477 3.00745 11 3.00745H13C13.5523 3.00745 14 3.45516 14 4.00745C14 4.55973 13.5523 5.00745 13 5.00745H11C10.4477 5.00745 10 4.55973 10 4.00745ZM17.0761 3.62476C17.2309 3.25109 17.5955 3.00745 18 3.00745H19C19.5304 3.00745 20.0391 3.21816 20.4142 3.59323C20.7893 3.96831 21 4.47702 21 5.00745V6.00745C21 6.41191 20.7564 6.77654 20.3827 6.93133C20.009 7.08611 19.5789 7.00055 19.2929 6.71455L17.2929 4.71455C17.0069 4.42856 16.9213 3.99844 17.0761 3.62476ZM4 10.0074C4.55228 10.0074 5 10.4552 5 11.0074V13.0074C5 13.5597 4.55228 14.0074 4 14.0074C3.44772 14.0074 3 13.5597 3 13.0074V11.0074C3 10.4552 3.44772 10.0074 4 10.0074ZM19 11.0074C19 10.4552 19.4477 10.0074 20 10.0074C20.5523 10.0074 21 10.4552 21 11.0074V13.0074C21 13.5597 20.5523 14.0074 20 14.0074C19.4477 14.0074 19 13.5597 19 13.0074V11.0074ZM3.61732 17.0836C3.99099 16.9288 4.42111 17.0143 4.70711 17.3003L6.70711 19.3003C6.9931 19.5863 7.07866 20.0165 6.92388 20.3901C6.7691 20.7638 6.40446 21.0074 6 21.0074H5C4.46957 21.0074 3.96086 20.7967 3.58579 20.4217C3.21071 20.0466 3 19.5379 3 19.0074V18.0074C3 17.603 3.24364 17.2383 3.61732 17.0836ZM20.3827 17.0836C20.7564 17.2383 21 17.603 21 18.0074V19.0074C21 19.5379 20.7893 20.0466 20.4142 20.4217C20.0391 20.7967 19.5304 21.0074 19 21.0074H18C17.5955 21.0074 17.2309 20.7638 17.0761 20.3901C16.9213 20.0165 17.0069 19.5863 17.2929 19.3003L19.2929 17.3003C19.5789 17.0143 20.009 16.9288 20.3827 17.0836ZM10 20.0074C10 19.4552 10.4477 19.0074 11 19.0074H13C13.5523 19.0074 14 19.4552 14 20.0074C14 20.5597 13.5523 21.0074 13 21.0074H11C10.4477 21.0074 10 20.5597 10 20.0074Z" fill="#1F2937"/>
</svg>
