<svg width="24" height="24" viewBox="0 0 24 24" fill="none" xmlns="http://www.w3.org/2000/svg">
<path fill-rule="evenodd" clip-rule="evenodd" d="M3.58579 3.59328C3.96086 3.21821 4.46957 3.00749 5 3.00749H15C15.5304 3.00749 16.0391 3.21821 16.4142 3.59328C16.7893 3.96835 17 4.47706 17 5.00749H19C19.5304 5.00749 20.0391 5.21821 20.4142 5.59328C20.7893 5.96835 21 6.47706 21 7.00749V18.0075C21 18.8031 20.6839 19.5662 20.1213 20.1288C19.5587 20.6914 18.7957 21.0075 18 21.0075H7C5.93913 21.0075 4.92172 20.5861 4.17157 19.8359C3.42143 19.0858 3 18.0684 3 17.0075V5.00749C3 4.47706 3.21071 3.96835 3.58579 3.59328ZM15.1716 19.0075H7C6.46957 19.0075 5.96086 18.7968 5.58579 18.4217C5.21071 18.0466 5 17.5379 5 17.0075L5 5.00749L15 5.00749V18.0075C15 18.3514 15.0591 18.6893 15.1716 19.0075ZM17 7.00749V18.0075C17 18.2727 17.1054 18.5271 17.2929 18.7146C17.4804 18.9021 17.7348 19.0075 18 19.0075C18.2652 19.0075 18.5196 18.9021 18.7071 18.7146C18.8946 18.5271 19 18.2727 19 18.0075V7.00749H17Z" fill="#1F2937"/>
<path fill-rule="evenodd" clip-rule="evenodd" d="M7 7.99251C7 7.44022 7.44772 6.99251 8 6.99251H12C12.5523 6.99251 13 7.44022 13 7.99251C13 8.54479 12.5523 8.99251 12 8.99251H8C7.44772 8.99251 7 8.54479 7 7.99251Z" fill="#1F2937"/>
<path fill-rule="evenodd" clip-rule="evenodd" d="M7 12C7 11.4477 7.44772 11 8 11H12C12.5523 11 13 11.4477 13 12C13 12.5523 12.5523 13 12 13H8C7.44772 13 7 12.5523 7 12Z" fill="#1F2937"/>
<path fill-rule="evenodd" clip-rule="evenodd" d="M7 16.0075C7 15.4552 7.44772 15.0075 8 15.0075H12C12.5523 15.0075 13 15.4552 13 16.0075C13 16.5598 12.5523 17.0075 12 17.0075H8C7.44772 17.0075 7 16.5598 7 16.0075Z" fill="#1F2937"/>
</svg>
