<svg width="24" height="24" viewBox="0 0 24 24" fill="none" xmlns="http://www.w3.org/2000/svg">
<path fill-rule="evenodd" clip-rule="evenodd" d="M7 4C6.44772 4 6 4.44772 6 5V19C6 19.5523 6.44772 20 7 20H17C17.5523 20 18 19.5523 18 19V5C18 4.44772 17.5523 4 17 4H7ZM4 5C4 3.34315 5.34315 2 7 2H17C18.6569 2 20 3.34315 20 5V19C20 20.6569 18.6569 22 17 22H7C5.34315 22 4 20.6569 4 19V5Z" fill="#1F2937"/>
<path fill-rule="evenodd" clip-rule="evenodd" d="M8 7.00749C8 6.45521 8.44772 6.00749 9 6.00749H15C15.5523 6.00749 16 6.45521 16 7.00749C16 7.55978 15.5523 8.00749 15 8.00749H9C8.44772 8.00749 8 7.55978 8 7.00749Z" fill="#1F2937"/>
<path fill-rule="evenodd" clip-rule="evenodd" d="M8 10.9925C8 10.4402 8.44772 9.99251 9 9.99251H15C15.5523 9.99251 16 10.4402 16 10.9925C16 11.5448 15.5523 11.9925 15 11.9925H9C8.44772 11.9925 8 11.5448 8 10.9925Z" fill="#1F2937"/>
<path fill-rule="evenodd" clip-rule="evenodd" d="M8 15C8 14.4477 8.44772 14 9 14H13C13.5523 14 14 14.4477 14 15C14 15.5523 13.5523 16 13 16H9C8.44772 16 8 15.5523 8 15Z" fill="#1F2937"/>
</svg>
