<svg width="24" height="24" viewBox="0 0 24 24" fill="none" xmlns="http://www.w3.org/2000/svg">
<path fill-rule="evenodd" clip-rule="evenodd" d="M4.58579 3.59328C4.96086 3.21821 5.46957 3.00749 6 3.00749H17C17.7956 3.00749 18.5587 3.32356 19.1213 3.88617C19.6839 4.44878 20 5.21184 20 6.00749V18.0075C20 18.8031 19.6839 19.5662 19.1213 20.1288C18.5587 20.6914 17.7957 21.0075 17 21.0075H10V22.0075C10 22.5598 9.55228 23.0075 9 23.0075C8.44772 23.0075 8 22.5598 8 22.0075V21.0075H6C5.46957 21.0075 4.96086 20.7968 4.58579 20.4217C4.21071 20.0466 4 19.5379 4 19.0075V5.00749C4 4.47706 4.21071 3.96835 4.58579 3.59328ZM10 19.0075H17C17.2652 19.0075 17.5196 18.9021 17.7071 18.7146C17.8946 18.5271 18 18.2727 18 18.0075V6.00749C18 5.74228 17.8946 5.48792 17.7071 5.30039C17.5196 5.11285 17.2652 5.00749 17 5.00749H10V19.0075ZM8 5.00749V19.0075H6L6 5.00749L8 5.00749Z" fill="#1F2937"/>
<path fill-rule="evenodd" clip-rule="evenodd" d="M12 7.99251C12 7.44022 12.4477 6.99251 13 6.99251H15C15.5523 6.99251 16 7.44022 16 7.99251C16 8.54479 15.5523 8.99251 15 8.99251H13C12.4477 8.99251 12 8.54479 12 7.99251Z" fill="#1F2937"/>
<path fill-rule="evenodd" clip-rule="evenodd" d="M12 12C12 11.4477 12.4477 11 13 11H15C15.5523 11 16 11.4477 16 12C16 12.5523 15.5523 13 15 13H13C12.4477 13 12 12.5523 12 12Z" fill="#1F2937"/>
</svg>
