<svg width="24" height="24" viewBox="0 0 24 24" fill="none" xmlns="http://www.w3.org/2000/svg">
<path fill-rule="evenodd" clip-rule="evenodd" d="M20.7071 12.3004C21.0976 12.6909 21.0976 13.3241 20.7071 13.7146L13.7071 20.7146C13.3166 21.1051 12.6834 21.1051 12.2929 20.7146C11.9024 20.3241 11.9024 19.6909 12.2929 19.3004L19.2929 12.3004C19.6834 11.9099 20.3166 11.9099 20.7071 12.3004Z" fill="#1F2937"/>
<path fill-rule="evenodd" clip-rule="evenodd" d="M3.87868 3.88617C4.44129 3.32356 5.20435 3.00749 6 3.00749H18C18.7956 3.00749 19.5587 3.32356 20.1213 3.88617C20.6839 4.44878 21 5.21184 21 6.00749V13.0075C21 13.5598 20.5523 14.0075 20 14.0075H14V20.0075C14 20.5598 13.5523 21.0075 13 21.0075H6C5.20435 21.0075 4.44129 20.6914 3.87868 20.1288C3.31607 19.5662 3 18.8031 3 18.0075V6.00749C3 5.21184 3.31607 4.44878 3.87868 3.88617ZM6 5.00749C5.73478 5.00749 5.48043 5.11285 5.29289 5.30039C5.10536 5.48792 5 5.74228 5 6.00749V18.0075C5 18.2727 5.10536 18.5271 5.29289 18.7146C5.48043 18.9021 5.73478 19.0075 6 19.0075H12V14.0075C12 13.4771 12.2107 12.9684 12.5858 12.5933C12.9609 12.2182 13.4696 12.0075 14 12.0075H19V6.00749C19 5.74228 18.8946 5.48792 18.7071 5.30039C18.5196 5.11285 18.2652 5.00749 18 5.00749H6Z" fill="#1F2937"/>
</svg>
