<svg width="24" height="24" viewBox="0 0 24 24" fill="none" xmlns="http://www.w3.org/2000/svg">
<path fill-rule="evenodd" clip-rule="evenodd" d="M3.87868 6.88619C4.44129 6.32358 5.20435 6.00751 6 6.00751H9C9.55228 6.00751 10 6.45522 10 7.00751C10 7.55979 9.55228 8.00751 9 8.00751H6C5.73478 8.00751 5.48043 8.11286 5.29289 8.3004C5.10536 8.48794 5 8.74229 5 9.00751V18.0075C5 18.2727 5.10536 18.5271 5.29289 18.7146C5.48043 18.9022 5.73478 19.0075 6 19.0075H15C15.2652 19.0075 15.5196 18.9022 15.7071 18.7146C15.8946 18.5271 16 18.2727 16 18.0075V15.0075C16 14.4552 16.4477 14.0075 17 14.0075C17.5523 14.0075 18 14.4552 18 15.0075V18.0075C18 18.8032 17.6839 19.5662 17.1213 20.1288C16.5587 20.6914 15.7957 21.0075 15 21.0075H6C5.20435 21.0075 4.44129 20.6914 3.87868 20.1288C3.31607 19.5662 3 18.8032 3 18.0075V9.00751C3 8.21186 3.31607 7.4488 3.87868 6.88619Z" fill="#1F2937"/>
<path fill-rule="evenodd" clip-rule="evenodd" d="M16 5.99249C14.8954 5.99249 14 6.88792 14 7.99249C14 9.09706 14.8954 9.99249 16 9.99249C17.1046 9.99249 18 9.09706 18 7.99249C18 6.88792 17.1046 5.99249 16 5.99249ZM12 7.99249C12 5.78335 13.7909 3.99249 16 3.99249C18.2091 3.99249 20 5.78335 20 7.99249C20 10.2016 18.2091 11.9925 16 11.9925C13.7909 11.9925 12 10.2016 12 7.99249Z" fill="#1F2937"/>
</svg>
