<svg width="24" height="24" viewBox="0 0 24 24" fill="none" xmlns="http://www.w3.org/2000/svg">
<path fill-rule="evenodd" clip-rule="evenodd" d="M12 4.93732C10.546 4.93732 9.13606 5.4363 8.00574 6.35088C6.87542 7.26546 6.09321 8.54025 5.7898 9.96223C5.48638 11.3842 5.68016 12.8672 6.33873 14.1635C6.99731 15.4598 8.0808 16.4908 9.40816 17.0843C9.7682 17.2453 10 17.6028 10 17.9972V18.9972C10 19.5495 9.55228 19.9972 9 19.9972H4C3.44772 19.9972 3 19.5495 3 18.9972C3 18.4449 3.44772 17.9972 4 17.9972H7.03007C5.99592 17.2312 5.14598 16.2313 4.55566 15.0694C3.68965 13.3649 3.43485 11.4147 3.83383 9.54488C4.2328 7.67503 5.26138 5.99874 6.74771 4.7961C8.23403 3.59346 10.0881 2.93732 12 2.93732C13.9119 2.93732 15.766 3.59346 17.2523 4.7961C18.7386 5.99874 19.7672 7.67503 20.1662 9.54488C20.5651 11.4147 20.3103 13.3649 19.4443 15.0694C18.854 16.2313 18.0041 17.2312 16.9699 17.9972H20C20.5523 17.9972 21 18.4449 21 18.9972C21 19.5495 20.5523 19.9972 20 19.9972H15C14.4477 19.9972 14 19.5495 14 18.9972V17.9972C14 17.6028 14.2318 17.2453 14.5918 17.0843C15.9192 16.4908 17.0027 15.4598 17.6613 14.1635C18.3198 12.8672 18.5136 11.3842 18.2102 9.96223C17.9068 8.54025 17.1246 7.26546 15.9943 6.35088C14.8639 5.4363 13.454 4.93732 12 4.93732Z" fill="#1F2937"/>
</svg>
