<svg width="24" height="25" viewBox="0 0 24 25" fill="none" xmlns="http://www.w3.org/2000/svg">
<path fill-rule="evenodd" clip-rule="evenodd" d="M1.63881 14.1797C1.95364 13.9801 2.3707 14.0735 2.57033 14.3883L5.43581 18.9072H19.2181C19.5909 18.9072 19.8931 19.2094 19.8931 19.5822C19.8931 19.955 19.5909 20.2572 19.2181 20.2572H4.69332L1.43023 15.1113C1.23059 14.7964 1.32397 14.3794 1.63881 14.1797Z" fill="#1F2937"/>
<path fill-rule="evenodd" clip-rule="evenodd" d="M4.51754 20.5772L1.1602 15.2826C0.865917 14.8186 1.00357 14.2038 1.46766 13.9095C1.93174 13.6152 2.54652 13.7529 2.8408 14.217L5.61202 18.5872H19.2183C19.7679 18.5872 20.2133 19.0327 20.2133 19.5822C20.2133 20.1317 19.7679 20.5772 19.2183 20.5772H4.51754ZM5.43603 18.9072L2.57055 14.3883C2.37091 14.0735 1.95385 13.9801 1.63902 14.1797C1.32419 14.3794 1.23081 14.7964 1.43045 15.1113L4.69354 20.2572H19.2183C19.5911 20.2572 19.8933 19.955 19.8933 19.5822C19.8933 19.2094 19.5911 18.9072 19.2183 18.9072H5.43603Z" fill="#1F2937"/>
<path fill-rule="evenodd" clip-rule="evenodd" d="M5.64208 18.9257C6.00448 19.0131 6.22744 19.3777 6.14005 19.7401L5.39971 22.8105C5.31233 23.1729 4.9477 23.3959 4.58529 23.3085C4.22289 23.2211 3.99994 22.8565 4.08732 22.4941L4.82766 19.4236C4.91505 19.0612 5.27967 18.8383 5.64208 18.9257Z" fill="#1F2937"/>
<path fill-rule="evenodd" clip-rule="evenodd" d="M5.71685 18.6146C6.25106 18.7434 6.57971 19.2809 6.4509 19.8151L5.71056 22.8856C5.58175 23.4198 5.04426 23.7484 4.51005 23.6196C3.97583 23.4908 3.64719 22.9533 3.776 22.4191L4.51634 19.3486C4.64515 18.8144 5.18263 18.4858 5.71685 18.6146ZM6.13981 19.7401C6.2272 19.3777 6.00425 19.0131 5.64184 18.9257C5.27943 18.8383 4.91481 19.0612 4.82742 19.4236L4.08708 22.4941C3.9997 22.8565 4.22265 23.2211 4.58506 23.3085C4.94746 23.3959 5.31209 23.173 5.39947 22.8105L6.13981 19.7401Z" fill="#1F2937"/>
<path fill-rule="evenodd" clip-rule="evenodd" d="M18.3224 18.9801C17.96 19.0675 17.737 19.4321 17.8244 19.7945L18.5646 22.865C18.652 23.2274 19.0166 23.4504 19.379 23.363C19.7415 23.2756 19.9644 22.911 19.877 22.5486L19.1368 19.4781C19.0494 19.1157 18.6848 18.8928 18.3224 18.9801Z" fill="#1F2937"/>
<path fill-rule="evenodd" clip-rule="evenodd" d="M18.2471 18.6691C17.7129 18.7979 17.3843 19.3353 17.513 19.8695L18.2533 22.94C18.3821 23.4742 18.9196 23.8029 19.4538 23.6741C19.988 23.5453 20.3167 23.0078 20.1879 22.4736L19.4476 19.4031C19.3188 18.8689 18.7813 18.5403 18.2471 18.6691ZM17.8241 19.7945C17.7368 19.4321 17.9597 19.0675 18.3221 18.9801C18.6845 18.8928 19.0492 19.1157 19.1365 19.4781L19.8768 22.5486C19.9642 22.911 19.7412 23.2756 19.3788 23.363C19.0164 23.4504 18.6518 23.2274 18.5644 22.865L17.8241 19.7945Z" fill="#1F2937"/>
<path fill-rule="evenodd" clip-rule="evenodd" d="M18.5079 5.12402C16.9241 3.79808 15.0182 3.30355 13.7417 3.39166C13.7262 3.39273 13.7107 3.39326 13.6952 3.39326C10.9933 3.39326 9.17955 4.74609 7.97857 6.48997C7.14546 7.6997 6.61941 9.08534 6.32643 10.295C7.10542 9.93559 7.86851 9.86396 8.56653 9.98324C9.3458 10.1164 10.0018 10.4798 10.4785 10.8697C11.9875 9.80156 13.436 9.5516 14.676 9.74752C15.6999 9.90929 16.5439 10.3688 17.1339 10.8557C17.8957 10.3723 18.8365 10.3121 19.6404 10.3937C20.2166 10.4521 20.7844 10.5885 21.2813 10.7491C21.0478 8.09718 19.8964 6.28643 18.5079 5.12402ZM19.3745 4.08887C21.24 5.65057 22.6746 8.15003 22.6746 11.7552C22.6746 11.9869 22.5558 12.2024 22.3599 12.326C22.1639 12.4497 21.9183 12.4642 21.7092 12.3645C21.1932 12.1186 20.3426 11.8218 19.5041 11.7368C18.6408 11.6492 17.9764 11.8006 17.5984 12.2119C17.4694 12.3523 17.287 12.4316 17.0964 12.4302C16.9058 12.4288 16.7246 12.3468 16.5977 12.2046C16.2174 11.7783 15.4557 11.2375 14.4653 11.081C13.5054 10.9293 12.2631 11.1274 10.8573 12.2776C10.5756 12.5081 10.1619 12.4737 9.92205 12.1999C9.62134 11.8566 9.04431 11.4344 8.33914 11.3139C7.6753 11.2005 6.8155 11.3387 5.85417 12.2461C5.64959 12.4392 5.3467 12.4852 5.09404 12.3615C4.84137 12.2378 4.69192 11.9703 4.71896 11.6903C4.87266 10.0989 5.49044 7.72272 6.86673 5.72427C8.25562 3.70752 10.4415 2.05108 13.6723 2.04329C15.3105 1.93758 17.5441 2.55656 19.3745 4.08887Z" fill="#1F2937"/>
<path fill-rule="evenodd" clip-rule="evenodd" d="M5.09422 12.3614C4.84156 12.2378 4.6921 11.9703 4.71914 11.6903C4.87284 10.0989 5.49063 7.72271 6.86691 5.72426C8.2558 3.70751 10.4417 2.05107 13.6725 2.04328C15.3106 1.93757 17.5443 2.55655 19.3747 4.08886C21.2401 5.65056 22.6748 8.15002 22.6748 11.7552C22.6748 11.9869 22.556 12.2024 22.3601 12.326C22.1641 12.4497 21.9185 12.4642 21.7094 12.3645C21.1934 12.1186 20.3428 11.8218 19.5043 11.7367C18.641 11.6492 17.9766 11.8006 17.5986 12.2119C17.4696 12.3523 17.2872 12.4316 17.0966 12.4302C16.9059 12.4288 16.7248 12.3468 16.5979 12.2046C16.2176 11.7783 15.4559 11.2374 14.4655 11.081C13.5056 10.9293 12.2633 11.1274 10.8574 12.2776C10.5757 12.5081 10.162 12.4737 9.92223 12.1999C9.62152 11.8566 9.0445 11.4344 8.33932 11.3139C7.67548 11.2005 6.81569 11.3386 5.85435 12.2461C5.64977 12.4392 5.34689 12.4851 5.09422 12.3614ZM13.6619 1.72331C10.3083 1.73477 8.03591 3.46261 6.60336 5.54276C5.18928 7.59609 4.55822 10.0278 4.40063 11.6595C4.36076 12.0723 4.58107 12.4665 4.95352 12.6489C5.32596 12.8312 5.77244 12.7634 6.074 12.4788C6.96787 11.635 7.72811 11.5341 8.28542 11.6294C8.90364 11.735 9.41853 12.1105 9.68151 12.4108C10.035 12.8144 10.6448 12.865 11.0601 12.5253C12.4011 11.4282 13.5528 11.2607 14.4156 11.397C15.3233 11.5405 16.021 12.0386 16.3591 12.4176C16.5462 12.6273 16.8132 12.7481 17.0942 12.7502C17.3752 12.7522 17.644 12.6354 17.8342 12.4284C18.1089 12.1295 18.643 11.971 19.472 12.0551C20.2655 12.1356 21.0802 12.4191 21.5717 12.6534C21.88 12.8003 22.242 12.7789 22.5308 12.5966C22.8196 12.4144 22.9948 12.0967 22.9948 11.7552C22.9948 8.05579 21.5186 5.4663 19.5801 3.84349C17.6931 2.26374 15.3845 1.61522 13.6619 1.72331ZM18.3027 5.36937C16.7794 4.09412 14.9543 3.62873 13.7639 3.71089C13.7411 3.71247 13.7183 3.71325 13.6954 3.71325C11.1217 3.71325 9.39782 4.99358 8.24231 6.67146C7.56888 7.64931 7.10008 8.75101 6.79715 9.7766C7.42774 9.59109 8.04407 9.56928 8.62061 9.6678C9.36413 9.79485 10.0002 10.1142 10.49 10.4738C11.9948 9.47265 13.4549 9.23058 14.7261 9.43143C15.7167 9.58793 16.5474 10.0059 17.1614 10.4697C17.969 10.0385 18.9027 9.99713 19.6729 10.0753C20.0995 10.1186 20.5195 10.2023 20.9103 10.3063C20.5975 7.99799 19.545 6.40943 18.3027 5.36937ZM21.2452 10.4022C20.9457 7.93828 19.8352 6.23501 18.5081 5.12401C16.9242 3.79807 15.0184 3.30354 13.7419 3.39165C13.7264 3.39272 13.7109 3.39325 13.6954 3.39325C10.9935 3.39325 9.17973 4.74608 7.97876 6.48996C7.23421 7.57108 6.73491 8.7927 6.42805 9.90364C6.39155 10.0358 6.35776 10.1664 6.32662 10.295C6.44961 10.2382 6.57221 10.1887 6.69422 10.1459C7.34495 9.91772 7.9789 9.88278 8.56671 9.98323C9.34598 10.1164 10.002 10.4797 10.4787 10.8697C11.9877 9.80155 13.4362 9.55159 14.6762 9.74751C15.7001 9.90928 16.544 10.3688 17.1341 10.8557C17.8958 10.3723 18.8367 10.3121 19.6406 10.3936C20.0925 10.4395 20.5392 10.5333 20.9507 10.6491C21.0638 10.6809 21.1743 10.7145 21.2815 10.7491C21.2712 10.6318 21.2591 10.5162 21.2452 10.4022Z" fill="#1F2937"/>
<path fill-rule="evenodd" clip-rule="evenodd" d="M14.4686 2.70515C14.5822 3.06023 14.3864 3.44013 14.0313 3.55368C13.6453 3.67711 13.2683 3.98209 12.9113 4.48602C12.5557 4.98788 12.2531 5.64121 12.0043 6.37165C11.5067 7.83275 11.2619 9.48991 11.1919 10.5631C11.1676 10.9351 10.8463 11.217 10.4743 11.1927C10.1023 11.1684 9.82044 10.8472 9.84472 10.4752C9.92023 9.31823 10.1808 7.53839 10.7264 5.93643C10.9992 5.13533 11.3527 4.35062 11.8098 3.70552C12.2654 3.06248 12.8578 2.51158 13.6201 2.26782C13.9752 2.15427 14.3551 2.35008 14.4686 2.70515Z" fill="#1F2937"/>
<path fill-rule="evenodd" clip-rule="evenodd" d="M14.7731 2.60768C14.9405 3.13109 14.6519 3.69108 14.1285 3.85846C13.8315 3.95342 13.5057 4.20023 13.1721 4.67101C12.8405 5.13892 12.55 5.7611 12.3069 6.4748C11.8207 7.90251 11.5796 9.53059 11.5109 10.5839C11.4751 11.1323 11.0015 11.5478 10.4532 11.512C9.90482 11.4762 9.48931 11.0027 9.5251 10.4543C9.60191 9.27752 9.86624 7.4686 10.4232 5.83326C10.7017 5.0154 11.0672 4.19954 11.5484 3.5205C12.0273 2.84459 12.6708 2.23532 13.5224 1.96301C14.0458 1.79564 14.6058 2.08426 14.7731 2.60768ZM14.031 3.55366C14.3861 3.44012 14.5819 3.06022 14.4683 2.70514C14.3548 2.35006 13.9749 2.15426 13.6198 2.26781C12.8575 2.51156 12.2651 3.06246 11.8095 3.70551C11.3524 4.3506 10.9989 5.13532 10.7261 5.93642C10.1805 7.53838 9.91993 9.31822 9.84442 10.4752C9.82014 10.8472 10.102 11.1684 10.474 11.1927C10.846 11.217 11.1673 10.9351 11.1916 10.5631C11.2616 9.48989 11.5064 7.83274 12.004 6.37163C12.2528 5.6412 12.5554 4.98787 12.911 4.486C13.268 3.98208 13.645 3.6771 14.031 3.55366Z" fill="#1F2937"/>
<path fill-rule="evenodd" clip-rule="evenodd" d="M13.0553 2.70515C12.9417 3.06023 13.1375 3.44013 13.4926 3.55368C13.8786 3.67711 14.2556 3.98209 14.6126 4.48602C14.9683 4.98788 15.2708 5.64121 15.5196 6.37165C16.0172 7.83275 16.262 9.48991 16.3321 10.5631C16.3564 10.9351 16.6776 11.217 17.0496 11.1927C17.4216 11.1684 17.7035 10.8472 17.6792 10.4752C17.6037 9.31823 17.3431 7.53839 16.7975 5.93643C16.5247 5.13533 16.1713 4.35062 15.7142 3.70552C15.2585 3.06248 14.6661 2.51158 13.9038 2.26782C13.5487 2.15427 13.1688 2.35008 13.0553 2.70515Z" fill="#1F2937"/>
<path fill-rule="evenodd" clip-rule="evenodd" d="M12.7503 2.60768C12.5829 3.13109 12.8715 3.69108 13.395 3.85846C13.6919 3.95342 14.0178 4.20023 14.3514 4.67101C14.6829 5.13892 14.9734 5.7611 15.2165 6.4748C15.7027 7.90251 15.9438 9.53059 16.0126 10.5839C16.0484 11.1323 16.5219 11.5478 17.0703 11.512C17.6186 11.4762 18.0341 11.0027 17.9983 10.4543C17.9215 9.27752 17.6572 7.4686 17.1003 5.83326C16.8217 5.0154 16.4562 4.19954 15.9751 3.5205C15.4961 2.84459 14.8526 2.23532 14.0011 1.96301C13.4777 1.79564 12.9177 2.08426 12.7503 2.60768ZM13.4924 3.55366C13.1373 3.44012 12.9415 3.06022 13.0551 2.70514C13.1686 2.35006 13.5485 2.15426 13.9036 2.26781C14.6659 2.51156 15.2583 3.06246 15.714 3.70551C16.1711 4.3506 16.5245 5.13532 16.7973 5.93642C17.3429 7.53838 17.6035 9.31822 17.679 10.4752C17.7033 10.8472 17.4214 11.1684 17.0494 11.1927C16.6774 11.217 16.3562 10.9351 16.3319 10.5631C16.2618 9.48989 16.017 7.83274 15.5194 6.37163C15.2707 5.6412 14.9681 4.98787 14.6125 4.486C14.2554 3.98208 13.8784 3.6771 13.4924 3.55366Z" fill="#1F2937"/>
<path fill-rule="evenodd" clip-rule="evenodd" d="M13.8352 9.84402C14.2079 9.84402 14.5102 10.1462 14.5102 10.519L14.5102 19.4725C14.5102 19.8453 14.2079 20.1475 13.8352 20.1475C13.4624 20.1475 13.1602 19.8453 13.1602 19.4725L13.1602 10.519C13.1602 10.1462 13.4624 9.84402 13.8352 9.84402Z" fill="#1F2937"/>
<path fill-rule="evenodd" clip-rule="evenodd" d="M13.8353 9.52402C14.3849 9.52402 14.8303 9.96949 14.8303 10.519L14.8303 19.4725C14.8303 20.022 14.3849 20.4675 13.8353 20.4675C13.2858 20.4675 12.8403 20.022 12.8403 19.4725L12.8403 10.519C12.8403 9.96949 13.2858 9.52402 13.8353 9.52402ZM14.5103 10.519C14.5103 10.1462 14.2081 9.84402 13.8353 9.84402C13.4625 9.84402 13.1603 10.1462 13.1603 10.519L13.1603 19.4725C13.1603 19.8453 13.4625 20.1475 13.8353 20.1475C14.2081 20.1475 14.5103 19.8453 14.5103 19.4725L14.5103 10.519Z" fill="#1F2937"/>
<path fill-rule="evenodd" clip-rule="evenodd" d="M2.93896 16.2932C2.93896 15.9204 3.24117 15.6182 3.61396 15.6182H9.25913C9.69733 15.6182 10.1315 15.7511 10.4455 16.1005C10.7483 16.4374 10.8465 16.8734 10.8465 17.2889V19.217C10.8465 19.5898 10.5443 19.892 10.1715 19.892C9.7987 19.892 9.49649 19.5898 9.49649 19.217V17.2889C9.49649 17.0662 9.44274 17.0043 9.44145 17.0029C9.44143 17.0029 9.44149 17.003 9.44145 17.0029C9.44071 17.002 9.43638 16.9968 9.4179 16.9897C9.39527 16.9811 9.34632 16.9682 9.25913 16.9682H3.61396C3.24117 16.9682 2.93896 16.666 2.93896 16.2932Z" fill="#1F2937"/>
<path fill-rule="evenodd" clip-rule="evenodd" d="M9.17667 17.2882C9.17667 17.2879 9.17667 17.2884 9.17667 17.2882L9.17667 19.217C9.17667 19.7665 9.62214 20.212 10.1717 20.212C10.7212 20.212 11.1667 19.7665 11.1667 19.217V17.2889C11.1667 16.8282 11.0582 16.3033 10.6837 15.8866C10.2925 15.4513 9.76025 15.2982 9.2593 15.2982H3.61414C3.06462 15.2982 2.61914 15.7436 2.61914 16.2932C2.61914 16.8427 3.06462 17.2882 3.61414 17.2882H9.17667ZM9.49667 19.217C9.49667 19.5898 9.79888 19.892 10.1717 19.892C10.5445 19.892 10.8467 19.5898 10.8467 19.217V17.2889C10.8467 16.8734 10.7485 16.4374 10.4457 16.1005C10.1317 15.7511 9.69751 15.6182 9.2593 15.6182H3.61414C3.24135 15.6182 2.93914 15.9204 2.93914 16.2932C2.93914 16.6659 3.24135 16.9682 3.61414 16.9682H9.12412H9.2593C9.34649 16.9682 9.39544 16.9811 9.41807 16.9897C9.43656 16.9967 9.44088 17.002 9.44163 17.0029C9.44291 17.0043 9.49667 17.0662 9.49667 17.2889V19.217ZM9.12413 17.0392C9.12436 17.0429 9.12464 17.0461 9.12495 17.0488C9.12533 17.0511 9.12581 17.0537 9.12635 17.0565C9.12561 17.0514 9.12484 17.0453 9.12413 17.0392ZM9.14358 17.1192C9.14402 17.1204 9.14442 17.1215 9.14476 17.1223C9.14548 17.1241 9.14646 17.1264 9.14748 17.1288L9.14358 17.1192ZM9.16917 17.1707L9.17509 17.18C9.17386 17.1781 9.1715 17.1745 9.16917 17.1707Z" fill="#1F2937"/>
</svg>
