<svg width="24" height="25" viewBox="0 0 24 25" fill="none" xmlns="http://www.w3.org/2000/svg">
<g id="Out of Office">
<path id="Vector 8 (Stroke)" fill-rule="evenodd" clip-rule="evenodd" d="M1.63881 14.1797C1.95364 13.9801 2.3707 14.0735 2.57033 14.3883L5.43581 18.9072H19.2181C19.5909 18.9072 19.8931 19.2094 19.8931 19.5822C19.8931 19.955 19.5909 20.2572 19.2181 20.2572H4.69332L1.43023 15.1113C1.23059 14.7964 1.32397 14.3794 1.63881 14.1797Z" fill="#1F2937"/>
<path id="Vector 9 (Stroke)" fill-rule="evenodd" clip-rule="evenodd" d="M5.64208 18.9257C6.00448 19.0131 6.22744 19.3777 6.14005 19.7401L5.39971 22.8105C5.31233 23.1729 4.9477 23.3959 4.58529 23.3085C4.22289 23.2211 3.99994 22.8565 4.08732 22.4941L4.82766 19.4236C4.91505 19.0612 5.27967 18.8383 5.64208 18.9257Z" fill="#1F2937"/>
<path id="Vector 10 (Stroke)" fill-rule="evenodd" clip-rule="evenodd" d="M18.3224 18.9801C17.96 19.0675 17.737 19.4321 17.8244 19.7945L18.5646 22.865C18.652 23.2274 19.0166 23.4504 19.379 23.363C19.7415 23.2756 19.9644 22.911 19.877 22.5486L19.1368 19.4781C19.0494 19.1157 18.6848 18.8928 18.3224 18.9801Z" fill="#1F2937"/>
<path id="Vector 11 (Stroke)" fill-rule="evenodd" clip-rule="evenodd" d="M18.5079 5.12402C16.9241 3.79808 15.0182 3.30355 13.7417 3.39166C13.7262 3.39273 13.7107 3.39326 13.6952 3.39326C10.9933 3.39326 9.17955 4.74609 7.97857 6.48997C7.14546 7.6997 6.61941 9.08534 6.32643 10.295C7.10542 9.93559 7.86851 9.86396 8.56653 9.98324C9.3458 10.1164 10.0018 10.4798 10.4785 10.8697C11.9875 9.80156 13.436 9.5516 14.676 9.74752C15.6999 9.90929 16.5439 10.3688 17.1339 10.8557C17.8957 10.3723 18.8365 10.3121 19.6404 10.3937C20.2166 10.4521 20.7844 10.5885 21.2813 10.7491C21.0478 8.09718 19.8964 6.28643 18.5079 5.12402ZM19.3745 4.08887C21.24 5.65057 22.6746 8.15003 22.6746 11.7552C22.6746 11.9869 22.5558 12.2024 22.3599 12.326C22.1639 12.4497 21.9183 12.4642 21.7092 12.3645C21.1932 12.1186 20.3426 11.8218 19.5041 11.7368C18.6408 11.6492 17.9764 11.8006 17.5984 12.2119C17.4694 12.3523 17.287 12.4316 17.0964 12.4302C16.9058 12.4288 16.7246 12.3468 16.5977 12.2046C16.2174 11.7783 15.4557 11.2375 14.4653 11.081C13.5054 10.9293 12.2631 11.1274 10.8573 12.2776C10.5756 12.5081 10.1619 12.4737 9.92205 12.1999C9.62134 11.8566 9.04431 11.4344 8.33914 11.3139C7.6753 11.2005 6.8155 11.3387 5.85417 12.2461C5.64959 12.4392 5.3467 12.4852 5.09404 12.3615C4.84137 12.2378 4.69192 11.9703 4.71896 11.6903C4.87266 10.0989 5.49044 7.72272 6.86673 5.72427C8.25562 3.70752 10.4415 2.05108 13.6723 2.04329C15.3105 1.93758 17.5441 2.55656 19.3745 4.08887Z" fill="#1F2937"/>
<path id="Vector 12 (Stroke)" fill-rule="evenodd" clip-rule="evenodd" d="M14.4686 2.70515C14.5822 3.06023 14.3864 3.44013 14.0313 3.55368C13.6453 3.67711 13.2683 3.98209 12.9113 4.48602C12.5557 4.98788 12.2531 5.64121 12.0043 6.37165C11.5067 7.83275 11.2619 9.48991 11.1919 10.5631C11.1676 10.9351 10.8463 11.217 10.4743 11.1927C10.1023 11.1684 9.82044 10.8472 9.84472 10.4752C9.92023 9.31823 10.1808 7.53839 10.7264 5.93643C10.9992 5.13533 11.3527 4.35062 11.8098 3.70552C12.2654 3.06248 12.8578 2.51158 13.6201 2.26782C13.9752 2.15427 14.3551 2.35008 14.4686 2.70515Z" fill="#1F2937"/>
<path id="Vector 13 (Stroke)" fill-rule="evenodd" clip-rule="evenodd" d="M13.0553 2.70515C12.9417 3.06023 13.1375 3.44013 13.4926 3.55368C13.8786 3.67711 14.2556 3.98209 14.6126 4.48602C14.9683 4.98788 15.2708 5.64121 15.5196 6.37165C16.0172 7.83275 16.262 9.48991 16.3321 10.5631C16.3564 10.9351 16.6776 11.217 17.0496 11.1927C17.4216 11.1684 17.7035 10.8472 17.6792 10.4752C17.6037 9.31823 17.3431 7.53839 16.7975 5.93643C16.5247 5.13533 16.1713 4.35062 15.7142 3.70552C15.2585 3.06248 14.6661 2.51158 13.9038 2.26782C13.5487 2.15427 13.1688 2.35008 13.0553 2.70515Z" fill="#1F2937"/>
<path id="Vector 14 (Stroke)" fill-rule="evenodd" clip-rule="evenodd" d="M13.8352 9.84402C14.2079 9.84402 14.5102 10.1462 14.5102 10.519L14.5102 19.4725C14.5102 19.8453 14.2079 20.1475 13.8352 20.1475C13.4624 20.1475 13.1602 19.8453 13.1602 19.4725L13.1602 10.519C13.1602 10.1462 13.4624 9.84402 13.8352 9.84402Z" fill="#1F2937"/>
<path id="Vector 15 (Stroke)" fill-rule="evenodd" clip-rule="evenodd" d="M2.93896 16.2932C2.93896 15.9204 3.24117 15.6182 3.61396 15.6182H9.25913C9.69733 15.6182 10.1315 15.7511 10.4455 16.1005C10.7483 16.4374 10.8465 16.8734 10.8465 17.2889V19.217C10.8465 19.5898 10.5443 19.892 10.1715 19.892C9.7987 19.892 9.49649 19.5898 9.49649 19.217V17.2889C9.49649 17.0662 9.44274 17.0043 9.44145 17.0029C9.44143 17.0029 9.44149 17.003 9.44145 17.0029C9.44071 17.002 9.43638 16.9968 9.4179 16.9897C9.39527 16.9811 9.34632 16.9682 9.25913 16.9682H3.61396C3.24117 16.9682 2.93896 16.666 2.93896 16.2932Z" fill="#1F2937"/>
</g>
</svg>
