<svg width="24" height="24" viewBox="0 0 24 24" fill="none" xmlns="http://www.w3.org/2000/svg">
<path fill-rule="evenodd" clip-rule="evenodd" d="M6 5.00748C5.44772 5.00748 5 5.45519 5 6.00748V18.0075C5 18.5598 5.44772 19.0075 6 19.0075H18C18.5523 19.0075 19 18.5598 19 18.0075V6.00748C19 5.45519 18.5523 5.00748 18 5.00748H6ZM3 6.00748C3 4.35062 4.34315 3.00748 6 3.00748H18C19.6569 3.00748 21 4.35062 21 6.00748V18.0075C21 19.6643 19.6569 21.0075 18 21.0075H6C4.34315 21.0075 3 19.6643 3 18.0075V6.00748Z" fill="#1F2937"/>
<path d="M9 12.5075C9.27614 12.5075 9.5 12.2836 9.5 12.0075C9.5 11.7313 9.27614 11.5075 9 11.5075C8.72386 11.5075 8.5 11.7313 8.5 12.0075C8.5 12.2836 8.72386 12.5075 9 12.5075Z" fill="#1F2937"/>
<path fill-rule="evenodd" clip-rule="evenodd" d="M9 12.5075C9.27614 12.5075 9.5 12.2836 9.5 12.0075C9.5 11.7313 9.27614 11.5075 9 11.5075C8.72386 11.5075 8.5 11.7313 8.5 12.0075C8.5 12.2836 8.72386 12.5075 9 12.5075ZM7.5 12.0075C7.5 11.179 8.17157 10.5075 9 10.5075C9.82843 10.5075 10.5 11.179 10.5 12.0075C10.5 12.8359 9.82843 13.5075 9 13.5075C8.17157 13.5075 7.5 12.8359 7.5 12.0075Z" fill="#1F2937"/>
<path d="M15 12.5075C15.2761 12.5075 15.5 12.2836 15.5 12.0075C15.5 11.7313 15.2761 11.5075 15 11.5075C14.7239 11.5075 14.5 11.7313 14.5 12.0075C14.5 12.2836 14.7239 12.5075 15 12.5075Z" fill="#1F2937"/>
<path fill-rule="evenodd" clip-rule="evenodd" d="M15 12.5075C15.2761 12.5075 15.5 12.2836 15.5 12.0075C15.5 11.7313 15.2761 11.5075 15 11.5075C14.7239 11.5075 14.5 11.7313 14.5 12.0075C14.5 12.2836 14.7239 12.5075 15 12.5075ZM13.5 12.0075C13.5 11.179 14.1716 10.5075 15 10.5075C15.8284 10.5075 16.5 11.179 16.5 12.0075C16.5 12.8359 15.8284 13.5075 15 13.5075C14.1716 13.5075 13.5 12.8359 13.5 12.0075Z" fill="#1F2937"/>
</svg>
