<svg width="24" height="24" viewBox="0 0 24 24" fill="none" xmlns="http://www.w3.org/2000/svg">
<path fill-rule="evenodd" clip-rule="evenodd" d="M7 4C6.44772 4 6 4.44772 6 5V7C6 7.55228 6.44772 8 7 8H17C17.5523 8 18 7.55228 18 7V5C18 4.44772 17.5523 4 17 4H7ZM4 5C4 3.34315 5.34315 2 7 2H17C18.6569 2 20 3.34315 20 5V7C20 8.65685 18.6569 10 17 10H7C5.34315 10 4 8.65685 4 7V5Z" fill="#1F2937"/>
<path fill-rule="evenodd" clip-rule="evenodd" d="M18 6C18 5.44772 18.4477 5 19 5H20C20.7956 5 21.5587 5.31607 22.1213 5.87868C22.6839 6.44129 23 7.20435 23 8C23 9.5913 22.3679 11.1174 21.2426 12.2426C20.1174 13.3679 18.5913 14 17 14H13V15C13 15.5523 12.5523 16 12 16C11.4477 16 11 15.5523 11 15V13C11 12.4477 11.4477 12 12 12H17C18.0609 12 19.0783 11.5786 19.8284 10.8284C20.5786 10.0783 21 9.06087 21 8C21 7.73478 20.8946 7.48043 20.7071 7.29289C20.5196 7.10536 20.2652 7 20 7H19C18.4477 7 18 6.55228 18 6Z" fill="#1F2937"/>
<path fill-rule="evenodd" clip-rule="evenodd" d="M9 16C9 14.8954 9.89543 14 11 14H13C14.1046 14 15 14.8954 15 16V20C15 21.1046 14.1046 22 13 22H11C9.89543 22 9 21.1046 9 20V16ZM13 16H11V20H13V16Z" fill="#1F2937"/>
</svg>
