<svg width="24" height="24" viewBox="0 0 24 24" fill="none" xmlns="http://www.w3.org/2000/svg">
<g clip-path="url(#clip0_6407_5311)">
<path fill-rule="evenodd" clip-rule="evenodd" d="M12 4C10.9494 4 9.90914 4.20693 8.93853 4.60896C7.96793 5.011 7.08601 5.60028 6.34315 6.34315C5.60028 7.08601 5.011 7.96793 4.60896 8.93853C4.20693 9.90914 4 10.9494 4 12C4 13.0506 4.20693 14.0909 4.60896 15.0615C5.011 16.0321 5.60028 16.914 6.34315 17.6569C7.08602 18.3997 7.96793 18.989 8.93853 19.391C9.90914 19.7931 10.9494 20 12 20C12.0304 20 12.0608 20.0014 12.0911 20.0042C12.1535 20.0099 12.2162 19.9959 12.2702 19.9641C12.3243 19.9324 12.3671 19.8845 12.3926 19.8272C12.418 19.77 12.4249 19.7061 12.4122 19.6447C12.4042 19.6058 12.3885 19.5691 12.3664 19.5366C11.8519 19.2118 11.447 18.7374 11.2076 18.175C10.9454 17.5592 10.8966 16.8735 11.0691 16.2268C11.2415 15.5801 11.6253 15.0096 12.1593 14.6061C12.6909 14.2044 13.3411 13.9912 14.0073 14H16.5C17.4638 14 18.3678 13.6586 19.0176 13.081C19.6636 12.5068 20 11.7551 20 11C20 9.18404 19.1895 7.41488 17.6996 6.09056C16.2059 4.76282 14.1573 4 12 4ZM8.17317 2.7612C9.38642 2.25866 10.6868 2 12 2C14.6166 2 17.1464 2.92289 19.0283 4.59574C20.9141 6.27199 22 8.57249 22 11C22 12.3666 21.3882 13.6497 20.3463 14.5758C19.3083 15.4985 17.9232 16 16.5 16H14L13.9839 15.9999C13.7608 15.9963 13.543 16.0674 13.3649 16.2019C13.1869 16.3364 13.059 16.5265 13.0015 16.7421C12.9441 16.9576 12.9603 17.1862 13.0477 17.3915C13.1351 17.5968 13.2886 17.7669 13.4839 17.8749C13.554 17.9137 13.6192 17.9607 13.6781 18.0151C14.0314 18.341 14.2737 18.7695 14.3709 19.2402C14.4681 19.7109 14.4154 20.2003 14.2202 20.6395C14.025 21.0788 13.697 21.4458 13.2825 21.6891C12.8826 21.9237 12.4214 22.0319 11.9596 21.9999C10.6602 21.9947 9.37399 21.7362 8.17317 21.2388C6.95991 20.7362 5.85752 19.9997 4.92893 19.0711C4.00035 18.1425 3.26375 17.0401 2.7612 15.8268C2.25866 14.6136 2 13.3132 2 12C2 10.6868 2.25866 9.38642 2.7612 8.17317C3.26375 6.95991 4.00035 5.85752 4.92893 4.92893C5.85752 4.00035 6.95991 3.26375 8.17317 2.7612Z" fill="#1F2937"/>
<path d="M7.5 12C8.32843 12 9 11.3284 9 10.5C9 9.67157 8.32843 9 7.5 9C6.67157 9 6 9.67157 6 10.5C6 11.3284 6.67157 12 7.5 12Z" fill="#1F2937"/>
<path d="M12 9C12.8284 9 13.5 8.32843 13.5 7.5C13.5 6.67157 12.8284 6 12 6C11.1716 6 10.5 6.67157 10.5 7.5C10.5 8.32843 11.1716 9 12 9Z" fill="#1F2937"/>
<path d="M16.5 12C17.3284 12 18 11.3284 18 10.5C18 9.67157 17.3284 9 16.5 9C15.6716 9 15 9.67157 15 10.5C15 11.3284 15.6716 12 16.5 12Z" fill="#1F2937"/>
</g>
<defs>
<clipPath id="clip0_6407_5311">
<rect width="24" height="24" fill="white"/>
</clipPath>
</defs>
</svg>
