<svg width="24" height="24" viewBox="0 0 24 24" fill="none" xmlns="http://www.w3.org/2000/svg">
<path fill-rule="evenodd" clip-rule="evenodd" d="M11.2926 3.2779C12.2758 2.29472 13.6093 1.74237 14.9997 1.74237C16.3901 1.74237 17.7236 2.29472 18.7068 3.2779C19.69 4.26109 20.2423 5.59458 20.2423 6.98501C20.2423 8.37545 19.69 9.70893 18.7068 10.6921L12.2068 17.1921C11.6214 17.7775 10.8275 18.1063 9.9997 18.1063C9.17188 18.1063 8.37796 17.7775 7.7926 17.1921C7.20724 16.6068 6.87838 15.8128 6.87838 14.985C6.87838 14.1572 7.20724 13.3633 7.7926 12.7779L14.2926 6.2779C14.6831 5.88738 15.3163 5.88738 15.7068 6.2779C16.0973 6.66843 16.0973 7.30159 15.7068 7.69212L9.20681 14.1921C8.99652 14.4024 8.87838 14.6876 8.87838 14.985C8.87838 15.2824 8.99652 15.5676 9.20681 15.7779C9.4171 15.9882 9.70231 16.1063 9.9997 16.1063C10.2971 16.1063 10.5823 15.9882 10.7926 15.7779L17.2926 9.2779C17.9007 8.66979 18.2423 7.84501 18.2423 6.98501C18.2423 6.12501 17.9007 5.30023 17.2926 4.69212C16.6845 4.084 15.8597 3.74237 14.9997 3.74237C14.1397 3.74237 13.3149 4.084 12.7068 4.69212L6.20681 11.1921C5.20087 12.1981 4.63574 13.5624 4.63574 14.985C4.63574 16.4076 5.20087 17.772 6.20681 18.7779C7.21275 19.7838 8.57709 20.349 9.9997 20.349C11.4223 20.349 12.7867 19.7838 13.7926 18.7779L20.2926 12.2779C20.6831 11.8874 21.3163 11.8874 21.7068 12.2779C22.0973 12.6684 22.0973 13.3016 21.7068 13.6921L15.2068 20.1921C13.8258 21.5731 11.9527 22.349 9.9997 22.349C8.04666 22.349 6.17361 21.5731 4.7926 20.1921C3.41159 18.8111 2.63574 16.9381 2.63574 14.985C2.63574 13.032 3.41159 11.1589 4.7926 9.7779L11.2926 3.2779Z" fill="#1F2937"/>
</svg>
