<svg width="24" height="24" viewBox="0 0 24 24" fill="none" xmlns="http://www.w3.org/2000/svg">
<path fill-rule="evenodd" clip-rule="evenodd" d="M7.65293 3.25016C8.07118 3.61083 8.11785 4.24228 7.75717 4.66052C5.99581 6.70304 5.02686 9.31038 5.02686 12.0075C5.02686 14.7046 5.99581 17.3119 7.75717 19.3544C8.11785 19.7727 8.07118 20.4041 7.65293 20.7648C7.23468 21.1254 6.60324 21.0788 6.24256 20.6605C4.16807 18.2549 3.02686 15.184 3.02686 12.0075C3.02686 8.83089 4.16807 5.76004 6.24256 3.3544C6.60324 2.93615 7.23468 2.88948 7.65293 3.25016Z" fill="#1F2937"/>
<path fill-rule="evenodd" clip-rule="evenodd" d="M16.347 3.25016C16.7652 2.88948 17.3966 2.93615 17.7573 3.3544C19.8318 5.76004 20.973 8.83089 20.973 12.0075C20.973 15.184 19.8318 18.2549 17.7573 20.6605C17.3966 21.0788 16.7652 21.1254 16.347 20.7648C15.9287 20.4041 15.882 19.7727 16.2427 19.3544C18.0041 17.3119 18.973 14.7046 18.973 12.0075C18.973 9.31038 18.0041 6.70304 16.2427 4.66052C15.882 4.24228 15.9287 3.61083 16.347 3.25016Z" fill="#1F2937"/>
</svg>
