<svg width="24" height="24" viewBox="0 0 24 24" fill="none" xmlns="http://www.w3.org/2000/svg">
<path fill-rule="evenodd" clip-rule="evenodd" d="M6 5.00748C5.44772 5.00748 5 5.45519 5 6.00748V18.0075C5 18.5598 5.44772 19.0075 6 19.0075H18C18.5523 19.0075 19 18.5598 19 18.0075V6.00748C19 5.45519 18.5523 5.00748 18 5.00748H6ZM3 6.00748C3 4.35062 4.34315 3.00748 6 3.00748H18C19.6569 3.00748 21 4.35062 21 6.00748V18.0075C21 19.6643 19.6569 21.0075 18 21.0075H6C4.34315 21.0075 3 19.6643 3 18.0075V6.00748Z" fill="#1F2937"/>
<path fill-rule="evenodd" clip-rule="evenodd" d="M8 7.99252C8 7.44024 8.44772 6.99252 9 6.99252H13C13.7957 6.99252 14.5587 7.30859 15.1213 7.8712C15.6839 8.43381 16 9.19687 16 9.99252C16 10.7882 15.6839 11.5512 15.1213 12.1138C14.5587 12.6765 13.7957 12.9925 13 12.9925H10V15.9925C10 16.5448 9.55228 16.9925 9 16.9925C8.44772 16.9925 8 16.5448 8 15.9925V7.99252ZM10 10.9925H13C13.2652 10.9925 13.5196 10.8872 13.7071 10.6996C13.8946 10.5121 14 10.2577 14 9.99252C14 9.72731 13.8946 9.47295 13.7071 9.28542C13.5196 9.09788 13.2652 8.99252 13 8.99252H10V10.9925Z" fill="#1F2937"/>
</svg>
