<svg width="24" height="24" viewBox="0 0 24 24" fill="none" xmlns="http://www.w3.org/2000/svg">
<path d="M12 2.5C6.486 2.5 2 6.986 2 12.5C2 18.014 6.486 22.5 12 22.5C17.514 22.5 22 18.014 22 12.5C22 6.986 17.514 2.5 12 2.5ZM12 20.5C7.589 20.5 4 16.911 4 12.5C4 8.089 7.589 4.5 12 4.5C16.411 4.5 20 8.089 20 12.5C20 16.911 16.411 20.5 12 20.5Z" fill="currentColor"/>
<path d="M13 10.5C13 9.94772 13.4477 9.5 14 9.5C14.5523 9.5 15 9.94772 15 10.5V14.5C15 15.0523 14.5523 15.5 14 15.5C13.4477 15.5 13 15.0523 13 14.5V10.5ZM9 10.5C9 9.94772 9.44772 9.5 10 9.5C10.5523 9.5 11 9.94772 11 10.5V14.5C11 15.0523 10.5523 15.5 10 15.5C9.44772 15.5 9 15.0523 9 14.5V10.5Z" fill="currentColor"/>
</svg>
