<svg width="24" height="24" viewBox="0 0 24 24" fill="none" xmlns="http://www.w3.org/2000/svg">
<path fill-rule="evenodd" clip-rule="evenodd" d="M13.7929 4.78538C14.5109 4.06741 15.4846 3.66406 16.5 3.66406C17.5154 3.66406 18.4891 4.06741 19.2071 4.78538C19.9251 5.50335 20.3284 6.47713 20.3284 7.49249C20.3284 8.50785 19.9251 9.48162 19.2071 10.1996L8.70711 20.6996C8.51957 20.8871 8.26522 20.9925 8 20.9925H4C3.44772 20.9925 3 20.5448 3 19.9925V15.9925C3 15.7273 3.10536 15.4729 3.29289 15.2854L13.7929 4.78538ZM16.5 5.66406C16.0151 5.66406 15.55 5.8567 15.2071 6.1996L5 16.4067V18.9925H7.58579L17.7929 8.78538C18.1358 8.44248 18.3284 7.97741 18.3284 7.49249C18.3284 7.00756 18.1358 6.54249 17.7929 6.1996C17.45 5.8567 16.9849 5.66406 16.5 5.66406Z" fill="#1F2937"/>
<path fill-rule="evenodd" clip-rule="evenodd" d="M12.7929 5.78545C13.1834 5.39492 13.8166 5.39492 14.2071 5.78545L18.2071 9.78545C18.5976 10.176 18.5976 10.8091 18.2071 11.1997C17.8166 11.5902 17.1834 11.5902 16.7929 11.1997L12.7929 7.19966C12.4024 6.80914 12.4024 6.17597 12.7929 5.78545Z" fill="#1F2937"/>
</svg>
