<svg xmlns="http://www.w3.org/2000/svg" width="16" height="16" viewBox="0 0 32 32"><path fill-rule="evenodd" clip-rule="evenodd" d="M23.0005 16.5C26.0379 16.5002 28.5005 18.9626 28.5005 22C28.5005 23.4133 27.9654 24.7006 27.0894 25.6748L29.191 27.7764C29.5812 28.1668 29.5812 28.8 29.191 29.1904C28.8005 29.5808 28.1674 29.5807 27.7769 29.1904L25.4898 26.9033C24.7422 27.2837 23.8968 27.4999 23.0005 27.5C19.963 27.4999 17.5005 25.0375 17.5005 22C17.5005 18.9625 19.963 16.5001 23.0005 16.5ZM16.0005 2.99609C17.9713 2.99617 19.8881 3.64343 21.4556 4.83789C23.0231 6.03246 24.1545 7.70916 24.6773 9.60938C25.0873 11.0996 25.1033 12.6623 24.7369 14.1494C24.1884 14.0316 23.6193 13.9688 23.0357 13.9688C22.9282 13.9688 22.8209 13.9714 22.7144 13.9756C23.0327 12.8939 23.0871 11.7478 22.8658 10.6348C22.5957 9.27691 21.9287 8.02876 20.9498 7.0498C19.9708 6.07106 18.7234 5.40482 17.3658 5.13477C16.008 4.86474 14.6008 5.00349 13.3218 5.5332C12.0428 6.06303 10.9494 6.96024 10.1802 8.11133C9.41113 9.26243 9.00053 10.6156 9.00053 12C9.00252 13.8557 9.74023 15.635 11.0523 16.9473C12.2623 18.1573 13.8699 18.8776 15.5679 18.9844C15.3036 19.631 15.1213 20.3193 15.0328 21.0371C10.8072 21.3515 7.05596 23.7166 4.86675 27.5C4.80307 27.6172 4.71608 27.7204 4.61186 27.8037C4.50764 27.8869 4.38769 27.9491 4.25932 27.9854C4.13095 28.0215 3.99616 28.0312 3.86382 28.0146C3.73148 27.9981 3.60335 27.9553 3.48784 27.8887C3.37227 27.8219 3.27052 27.7324 3.18999 27.626C3.10954 27.5196 3.05092 27.3979 3.01811 27.2686C2.98533 27.1392 2.97853 27.004 2.99858 26.8721C3.01867 26.7402 3.06558 26.6137 3.1353 26.5C5.03892 23.2077 7.9726 20.8481 11.396 19.7305C9.70264 18.7223 8.38684 17.1857 7.65092 15.3574C6.91503 13.5291 6.80005 11.5096 7.3228 9.60938C7.8456 7.70912 8.97789 6.03247 10.5455 4.83789C12.113 3.64347 14.0298 2.99614 16.0005 2.99609ZM23.0005 18.5C21.0676 18.5001 19.5005 20.067 19.5005 22C19.5005 23.933 21.0676 25.4999 23.0005 25.5C24.9333 25.4998 26.5005 23.9329 26.5005 22C26.5005 20.0671 24.9333 18.5002 23.0005 18.5Z" fill="#1f2937"/></svg>
