<svg width="24" height="24" viewBox="0 0 24 24" fill="none" xmlns="http://www.w3.org/2000/svg">
<path fill-rule="evenodd" clip-rule="evenodd" d="M5 5.00748C4.73478 5.00748 4.48043 5.11284 4.29289 5.30038C4.11141 5.48186 4.00688 5.72593 4.00033 5.98185C4.23032 9.62578 5.78159 13.0612 8.36394 15.6435C10.9463 18.2259 14.3817 19.7772 18.0256 20.0072C18.2816 20.0006 18.5256 19.8961 18.7071 19.7146C18.8946 19.5271 19 19.2727 19 19.0075V15.6845L15.4193 14.2522L14.3575 16.022C14.0897 16.4682 13.5244 16.6345 13.0577 16.4043C10.6887 15.236 8.77146 13.3187 7.60314 10.9498C7.37294 10.483 7.53924 9.91775 7.9855 9.64999L9.75523 8.58815L8.32297 5.00748H5ZM2.87868 3.88616C3.44129 3.32355 4.20435 3.00748 5 3.00748H9C9.4089 3.00748 9.77661 3.25644 9.92848 3.63609L11.9285 8.63609C12.1108 9.09181 11.9354 9.61245 11.5145 9.86498L9.8405 10.8694C10.6644 12.213 11.7945 13.3431 13.1381 14.167L14.1425 12.493C14.395 12.0721 14.9157 11.8967 15.3714 12.079L20.3714 14.079C20.751 14.2309 21 14.5986 21 15.0075V19.0075C21 19.8031 20.6839 20.5662 20.1213 21.1288C19.5587 21.6914 18.7957 22.0075 18 22.0075C17.9798 22.0075 17.9595 22.0069 17.9393 22.0056C13.7948 21.7538 9.88576 19.9938 6.94972 17.0578C4.01369 14.1217 2.25371 10.2127 2.00184 6.06814C2.00061 6.04795 2 6.02772 2 6.00748C2 5.21184 2.31607 4.44877 2.87868 3.88616Z" fill="#1F2937"/>
<path fill-rule="evenodd" clip-rule="evenodd" d="M20.7071 3.30038C21.0976 3.6909 21.0976 4.32407 20.7071 4.71459L15.7071 9.71459C15.3166 10.1051 14.6834 10.1051 14.2929 9.71459C13.9024 9.32407 13.9024 8.6909 14.2929 8.30038L19.2929 3.30038C19.6834 2.90985 20.3166 2.90985 20.7071 3.30038Z" fill="#1F2937"/>
<path fill-rule="evenodd" clip-rule="evenodd" d="M15 3.99252C15.5523 3.99252 16 4.44023 16 4.99252V7.99252H19C19.5523 7.99252 20 8.44023 20 8.99252C20 9.5448 19.5523 9.99252 19 9.99252H15C14.4477 9.99252 14 9.5448 14 8.99252V4.99252C14 4.44023 14.4477 3.99252 15 3.99252Z" fill="#1F2937"/>
</svg>
