<svg width="24" height="24" viewBox="0 0 24 24" fill="none" xmlns="http://www.w3.org/2000/svg">
<path fill-rule="evenodd" clip-rule="evenodd" d="M16 4.06989C14.9525 4.06989 13.9479 4.48602 13.2071 5.22674L5.20715 13.2267C4.46643 13.9675 4.05029 14.9721 4.05029 16.0196C4.05029 17.0672 4.46643 18.0718 5.20715 18.8125C5.94787 19.5532 6.9525 19.9694 8.00004 19.9694C9.04758 19.9694 10.0522 19.5532 10.7929 18.8125L18.7929 10.8125C19.5337 10.0718 19.9498 9.06717 19.9498 8.01963C19.9498 6.97209 19.5337 5.96746 18.7929 5.22674C18.0522 4.48602 17.0476 4.06989 16 4.06989ZM3.79293 11.8125C2.67714 12.9283 2.05029 14.4417 2.05029 16.0196C2.05029 17.5976 2.67714 19.1109 3.79293 20.2267C4.90873 21.3425 6.42207 21.9694 8.00004 21.9694C9.57801 21.9694 11.0914 21.3425 12.2071 20.2267L20.2071 12.2267C21.3229 11.1109 21.9498 9.5976 21.9498 8.01963C21.9498 6.44166 21.3229 4.92832 20.2071 3.81253C19.0914 2.69673 17.578 2.06989 16 2.06989C14.4221 2.06989 12.9087 2.69673 11.7929 3.81253L3.79293 11.8125Z" fill="#1F2937"/>
<path fill-rule="evenodd" clip-rule="evenodd" d="M7.79289 7.8004C8.18342 7.40988 8.81658 7.40988 9.20711 7.8004L16.2071 14.8004C16.5976 15.1909 16.5976 15.8241 16.2071 16.2146C15.8166 16.6051 15.1834 16.6051 14.7929 16.2146L7.79289 9.21461C7.40237 8.82409 7.40237 8.19092 7.79289 7.8004Z" fill="#1F2937"/>
</svg>
