<svg width="20" height="20" viewBox="0 0 20 20" fill="none" xmlns="http://www.w3.org/2000/svg">
<path d="M7.69069 4.14496C7.99356 3.898 8.37357 3.76522 8.76447 3.77L12.2448 3.77276L12.2455 3.77207C12.4816 3.77209 12.7154 3.82394 12.9298 3.9233C13.1441 4.02269 13.3343 4.16772 13.487 4.34798C13.6398 4.52837 13.7516 4.74022 13.8143 4.96808C13.877 5.19587 13.8899 5.43463 13.8509 5.66759L13.8503 5.66966C13.7767 6.0587 13.5663 6.40917 13.2578 6.65713C12.9519 6.90277 12.5692 7.03172 12.1771 7.02242C12.1698 7.03057 12.1654 7.04107 12.1654 7.05211L12.166 7.0528V8.17561C12.1661 8.23987 12.1829 8.30323 12.2144 8.35929C12.2301 8.38723 12.2496 8.41305 12.2717 8.43594L12.347 8.49602L12.3504 8.49809L12.7896 8.78811L12.9567 8.89169C13.3413 9.14231 13.6844 9.45222 13.9732 9.8101C14.2144 10.0973 14.3668 10.4482 14.413 10.8204C14.4593 11.1933 14.3974 11.5717 14.2328 11.9093H14.2314C14.1269 12.1274 13.9866 12.3265 13.815 12.497L13.813 12.499C13.2913 12.9913 12.5954 13.2566 11.8781 13.2365L11.8774 13.2358L11.1068 13.222L11.1095 17.7782C11.1096 17.9439 11.0444 18.1029 10.9272 18.2201C10.8398 18.3075 10.7281 18.3673 10.6068 18.3914C10.4858 18.4153 10.3604 18.4026 10.2464 18.3555C10.1323 18.3082 10.034 18.2281 9.96531 18.1255C9.89666 18.0228 9.85982 17.9017 9.85966 17.7782L9.85828 13.2027L8.71613 13.182L8.71544 13.1813C8.31148 13.1805 7.91606 13.0652 7.57537 12.8478C7.23395 12.6298 6.96184 12.3186 6.79092 11.9514C6.61936 11.5994 6.55116 11.2059 6.5955 10.8169C6.63994 10.4272 6.79515 10.0585 7.04228 9.75417C7.37861 9.3389 7.78747 8.9877 8.24864 8.71768L8.61048 8.50361C8.66641 8.47047 8.71294 8.42267 8.74514 8.3662C8.77726 8.30977 8.79413 8.24543 8.79416 8.18044L8.79278 7.05073C8.79275 7.04316 8.79051 7.03477 8.78519 7.02932C8.77972 7.02385 8.77215 7.02107 8.76447 7.02104L8.7113 7.02035C8.475 7.02028 8.24139 6.9686 8.02698 6.86912C7.81263 6.76964 7.62241 6.62482 7.46972 6.44444C7.317 6.26402 7.20509 6.05222 7.14241 5.82434C7.07979 5.59656 7.0682 5.35775 7.10719 5.12483V5.12207C7.18094 4.73791 7.38762 4.39213 7.69069 4.14496Z" fill="#1D4ED8" stroke="#1D4ED8" stroke-width="0.25"/>
</svg>
