<svg width="20" height="20" viewBox="0 0 20 20" fill="none" xmlns="http://www.w3.org/2000/svg">
<rect x="1.25" y="1.25" width="17.5" height="17.5" rx="4" fill="#E60023"/>
<path d="M10.1851 4.75586C6.58832 4.75586 4.67871 7.17028 4.67871 9.79881C4.67871 11.0212 5.32935 12.5427 6.37038 13.0273C6.52805 13.1007 6.61269 13.069 6.6489 12.9161C6.67677 12.8001 6.81715 12.2341 6.8803 11.9709C6.90049 11.887 6.89057 11.8148 6.82262 11.7321C6.47805 11.3142 6.20243 10.5462 6.20243 9.83022C6.20243 7.99207 7.59408 6.21356 9.96491 6.21356C12.012 6.21356 13.4454 7.60874 13.4454 9.60393C13.4454 11.8581 12.3069 13.42 10.8258 13.42C10.0079 13.42 9.39538 12.7434 9.59184 11.9136C9.82743 10.9232 10.2822 9.85458 10.2822 9.1392C10.2822 8.49945 9.93928 7.96547 9.22807 7.96547C8.39184 7.96547 7.72037 8.83021 7.72037 9.98919C7.72037 10.7267 7.96973 11.226 7.96973 11.226C7.96973 11.226 7.14377 14.7183 6.99248 15.3683C6.82499 16.086 6.89027 17.094 6.96275 17.7531C7.15071 17.8268 7.33875 17.9005 7.53307 17.9606C7.87344 17.4074 8.38098 16.4999 8.56909 15.7764C8.67069 15.3863 9.08863 13.7953 9.08863 13.7953C9.36011 14.3136 10.1537 14.7523 10.9983 14.7523C13.5114 14.7523 15.3226 12.4411 15.3226 9.56899C15.3226 6.81547 13.0761 4.75586 10.1851 4.75586Z" fill="white"/>
</svg>
