<svg width="24" height="24" viewBox="0 0 24 24" fill="none" xmlns="http://www.w3.org/2000/svg">
<path fill-rule="evenodd" clip-rule="evenodd" d="M8.20165 2.3978C8.39062 2.14729 8.68621 2 9 2H12C12.3589 2 12.6902 2.19229 12.8682 2.50386L16.5803 9H20C20.7957 9 21.5587 9.31607 22.1213 9.87868C22.6839 10.4413 23 11.2043 23 12C23 12.7957 22.6839 13.5587 22.1213 14.1213C21.5587 14.6839 20.7957 15 20 15H16.5803L12.8682 21.4961C12.6902 21.8077 12.3589 22 12 22H9C8.68621 22 8.39062 21.8527 8.20165 21.6022C8.01269 21.3517 7.95227 21.027 8.03848 20.7253L9.67427 15H7.41421L5.70711 16.7071C5.51957 16.8946 5.26522 17 5 17H2C1.65342 17 1.33156 16.8205 1.14935 16.5257C0.967144 16.2309 0.95058 15.8628 1.10557 15.5528L2.88197 12L1.10557 8.44721C0.95058 8.13723 0.967144 7.76909 1.14935 7.47427C1.33156 7.17945 1.65342 7 2 7H5C5.26522 7 5.51957 7.10536 5.70711 7.29289L7.41421 9H9.67427L8.03848 3.27472C7.95227 2.973 8.01269 2.64832 8.20165 2.3978ZM10.3257 4L11.9615 9.72528C12.0477 10.027 11.9873 10.3517 11.7983 10.6022C11.6094 10.8527 11.3138 11 11 11H7C6.73478 11 6.48043 10.8946 6.29289 10.7071L4.58579 9H3.61804L4.89443 11.5528C5.03519 11.8343 5.03519 12.1657 4.89443 12.4472L3.61803 15H4.58579L6.29289 13.2929C6.48043 13.1054 6.73478 13 7 13H11C11.3138 13 11.6094 13.1473 11.7983 13.3978C11.9873 13.6483 12.0477 13.973 11.9615 14.2747L10.3257 20H11.4197L15.1318 13.5039C15.3098 13.1923 15.6411 13 16 13H20C20.2652 13 20.5196 12.8946 20.7071 12.7071C20.8946 12.5196 21 12.2652 21 12C21 11.7348 20.8946 11.4804 20.7071 11.2929C20.5196 11.1054 20.2652 11 20 11H16C15.6411 11 15.3098 10.8077 15.1318 10.4961L11.4197 4H10.3257Z" fill="#1F2937"/>
</svg>
