<svg width="24" height="24" viewBox="0 0 24 24" fill="none" xmlns="http://www.w3.org/2000/svg">
<path fill-rule="evenodd" clip-rule="evenodd" d="M4.11171 7.49382C4.24196 7.48922 4.41101 7.49514 4.62349 7.51934C5.36431 7.60373 6.40604 7.88233 7.66415 8.35952C8.18054 8.55539 8.75793 8.29555 8.95379 7.77917C9.14966 7.26278 8.88982 6.68538 8.37344 6.48952C7.04255 5.98472 5.82527 5.64331 4.84985 5.5322C4.36593 5.47707 3.88297 5.47137 3.45298 5.56526C3.02657 5.65837 2.51913 5.88257 2.21919 6.39635L2.21918 6.39637C1.97944 6.80704 1.96626 7.24735 2.03864 7.61526C2.10922 7.97398 2.26908 8.31668 2.45654 8.62637C2.83182 9.24638 3.43003 9.9158 4.15677 10.5919C5.62243 11.9555 7.78359 13.5045 10.2919 14.9369L10.292 14.937C12.8008 16.3694 15.237 17.4459 17.1625 18.0192C18.1176 18.3036 19.0009 18.4807 19.7284 18.4921C20.0918 18.4978 20.4682 18.4634 20.8133 18.346C21.1658 18.2261 21.541 17.9981 21.7801 17.5893L21.7806 17.5883C22.0857 17.0652 22.0238 16.5048 21.886 16.0834C21.7475 15.6599 21.4927 15.2415 21.1944 14.8484C20.5926 14.0555 19.6614 13.1689 18.5272 12.2669C18.095 11.9231 17.4659 11.9948 17.1221 12.4271C16.7784 12.8593 16.8501 13.4884 17.2823 13.8322C18.3562 14.6862 19.1429 15.4536 19.6012 16.0574C19.7328 16.2309 19.8254 16.3754 19.8885 16.4912C19.8498 16.4926 19.8069 16.4931 19.7597 16.4923C19.2948 16.485 18.6111 16.3637 17.7333 16.1024C15.9931 15.5842 13.6998 14.5797 11.2836 13.2001C8.86795 11.8206 6.84214 10.3585 5.51907 9.12763C4.85143 8.5065 4.40483 7.9828 4.16752 7.59073C4.14649 7.55599 4.12798 7.5237 4.11171 7.49382ZM3.8173 7.53713C3.81723 7.53709 3.81847 7.53648 3.82121 7.53541C3.81874 7.53664 3.81736 7.53717 3.8173 7.53713ZM20.0008 16.7657C20.0007 16.7657 20.0005 16.7644 20.0003 16.762C20.0007 16.7645 20.0008 16.7658 20.0008 16.7657Z" fill="#1F2937"/>
<path fill-rule="evenodd" clip-rule="evenodd" d="M12 7C9.23858 7 7 9.23858 7 12C7 14.7614 9.23858 17 12 17C14.7614 17 17 14.7614 17 12C17 9.23858 14.7614 7 12 7ZM5 12C5 8.13401 8.13401 5 12 5C15.866 5 19 8.13401 19 12C19 15.866 15.866 19 12 19C8.13401 19 5 15.866 5 12Z" fill="#1F2937"/>
</svg>
