<svg width="24" height="24" viewBox="0 0 24 24" fill="none" xmlns="http://www.w3.org/2000/svg">
<g clip-path="url(#clip0_6760_0)">
<path fill-rule="evenodd" clip-rule="evenodd" d="M5.1387 4.93936C5.25639 4.64847 5.50379 4.4297 5.80689 4.34848L8.70467 3.57202C9.0513 3.47914 9.42112 3.57912 9.67374 3.834L14.9407 9.14804L19.2097 8.00414C19.9783 7.79821 20.7971 7.90601 21.4862 8.30384C22.1752 8.70166 22.678 9.35692 22.884 10.1255C23.0899 10.894 22.9821 11.7129 22.5843 12.4019C22.1864 13.091 21.5312 13.5938 20.7626 13.7997L6.27376 17.682C5.90789 17.78 5.51804 17.6629 5.26674 17.3795L0.816047 12.3604C0.586104 12.1011 0.506822 11.7412 0.606516 11.4093C0.70621 11.0774 0.970664 10.8207 1.30543 10.731L4.20321 9.95457C4.45939 9.88593 4.73234 9.92187 4.96203 10.0545L7.0528 11.2616L8.26992 10.9355L5.20805 5.82863C5.04669 5.5595 5.02102 5.23024 5.1387 4.93936ZM7.60508 5.93721L10.667 11.044C10.8283 11.3132 10.854 11.6424 10.7363 11.9333C10.6186 12.2242 10.3712 12.443 10.0681 12.5242L7.17034 13.3006C6.91416 13.3693 6.6412 13.3333 6.41152 13.2007L4.32075 11.9936L3.38597 12.2441L6.3531 15.5902L20.245 11.8678C20.5012 11.7992 20.7196 11.6316 20.8522 11.4019C20.9848 11.1722 21.0208 10.8993 20.9521 10.6431C20.8835 10.3869 20.7159 10.1685 20.4862 10.0359C20.2565 9.90328 19.9835 9.86735 19.7274 9.93599L14.8977 11.2301C14.5511 11.323 14.1813 11.223 13.9287 10.9681L8.66176 5.65407L7.60508 5.93721Z" fill="#1F2937"/>
<path fill-rule="evenodd" clip-rule="evenodd" d="M2 21C2 20.4477 2.44772 20 3 20H21C21.5523 20 22 20.4477 22 21C22 21.5523 21.5523 22 21 22H3C2.44772 22 2 21.5523 2 21Z" fill="#1F2937"/>
</g>
<defs>
<clipPath id="clip0_6760_0">
<rect width="24" height="24" fill="white"/>
</clipPath>
</defs>
</svg>
