<svg width="24" height="24" viewBox="0 0 24 24" fill="none" xmlns="http://www.w3.org/2000/svg">
<g clip-path="url(#clip0_6760_2)">
<path fill-rule="evenodd" clip-rule="evenodd" d="M9.59148 2.45182C9.83884 2.25875 10.1625 2.19299 10.4656 2.2742L13.3634 3.05066C13.71 3.14354 13.9803 3.41503 14.0716 3.76207L15.9759 10.9976L20.245 12.1415C21.0135 12.3475 21.6688 12.8503 22.0666 13.5393C22.4644 14.2284 22.5722 15.0472 22.3663 15.8158C22.1604 16.5843 21.6576 17.2396 20.9685 17.6374C20.2795 18.0352 19.4606 18.143 18.692 17.9371L4.20316 14.0548C3.83729 13.9568 3.55822 13.6604 3.48228 13.2894L2.13742 6.71733C2.06794 6.37779 2.17922 6.02648 2.43152 5.78887C2.68382 5.55125 3.04117 5.46122 3.37593 5.55092L6.27371 6.32738C6.52989 6.39603 6.74831 6.56362 6.88092 6.79331L8.08802 8.88408L9.30515 9.21021L9.2069 3.25663C9.20172 2.94288 9.34412 2.64489 9.59148 2.45182ZM11.2285 4.54918L11.3267 10.5028C11.3319 10.8165 11.1895 11.1145 10.9422 11.3076C10.6948 11.5006 10.3712 11.5664 10.0681 11.4852L7.17029 10.7087C6.91411 10.6401 6.69569 10.4725 6.56308 10.2428L5.35597 8.15203L4.4212 7.90155L5.31777 12.2829L19.2097 16.0052C19.4659 16.0739 19.7388 16.038 19.9685 15.9053C20.1982 15.7727 20.3658 15.5543 20.4344 15.2981C20.5031 15.042 20.4671 14.769 20.3345 14.5393C20.2019 14.3096 19.9835 14.142 19.7273 14.0734L14.8977 12.7793C14.5511 12.6864 14.2808 12.4149 14.1894 12.0679L12.2852 4.83231L11.2285 4.54918Z" fill="#1F2937"/>
<path fill-rule="evenodd" clip-rule="evenodd" d="M2 21C2 20.4477 2.44772 20 3 20H21C21.5523 20 22 20.4477 22 21C22 21.5523 21.5523 22 21 22H3C2.44772 22 2 21.5523 2 21Z" fill="#1F2937"/>
</g>
<defs>
<clipPath id="clip0_6760_2">
<rect width="24" height="24" fill="white"/>
</clipPath>
</defs>
</svg>
