<svg width="24" height="24" viewBox="0 0 24 24" fill="none" xmlns="http://www.w3.org/2000/svg">
<path d="M12 2C6.486 2 2 6.486 2 12C2 17.514 6.486 22 12 22C17.514 22 22 17.514 22 12C22 6.486 17.514 2 12 2ZM12 20C7.589 20 4 16.411 4 12C4 7.589 7.589 4 12 4C16.411 4 20 7.589 20 12C20 16.411 16.411 20 12 20Z" fill="currentColor"/>
<path d="M10 8.87511V14.8751C9.99998 14.9418 10.0178 15.0073 10.0515 15.0649C10.0853 15.1225 10.1338 15.17 10.192 15.2025C10.2502 15.2351 10.3161 15.2515 10.3828 15.2501C10.4495 15.2487 10.5147 15.2296 10.5715 15.1946L15.4465 12.1946C15.5011 12.1611 15.5462 12.1141 15.5775 12.0581C15.6087 12.0022 15.6252 11.9392 15.6252 11.8751C15.6252 11.811 15.6087 11.748 15.5775 11.6921C15.5462 11.6361 15.5011 11.5892 15.4465 11.5556L10.5715 8.55561C10.5147 8.52064 10.4495 8.50148 10.3828 8.50008C10.3161 8.49869 10.2502 8.51512 10.192 8.54768C10.1338 8.58024 10.0853 8.62775 10.0515 8.6853C10.0178 8.74286 9.99998 8.80838 10 8.87511Z" fill="currentColor"/>
</svg>