<svg width="24" height="24" viewBox="0 0 24 24" fill="none" xmlns="http://www.w3.org/2000/svg">
<path fill-rule="evenodd" clip-rule="evenodd" d="M6 7.00751C6 6.45522 6.44772 6.00751 7 6.00751H17C17.5523 6.00751 18 6.45522 18 7.00751V13.0075C18 14.0684 17.5786 15.0858 16.8284 15.8359C16.0783 16.5861 15.0609 17.0075 14 17.0075H10C8.93913 17.0075 7.92172 16.5861 7.17157 15.8359C6.42143 15.0858 6 14.0684 6 13.0075V7.00751ZM8 8.00751V13.0075C8 13.5379 8.21071 14.0466 8.58579 14.4217C8.96086 14.7968 9.46957 15.0075 10 15.0075H14C14.5304 15.0075 15.0391 14.7968 15.4142 14.4217C15.7893 14.0466 16 13.5379 16 13.0075V8.00751H8Z" fill="#1F2937"/>
<path fill-rule="evenodd" clip-rule="evenodd" d="M9 2C9.55228 2 10 2.44772 10 3V7C10 7.55228 9.55228 8 9 8C8.44772 8 8 7.55228 8 7V3C8 2.44772 8.44772 2 9 2Z" fill="#1F2937"/>
<path fill-rule="evenodd" clip-rule="evenodd" d="M15 2C15.5523 2 16 2.44772 16 3V7C16 7.55228 15.5523 8 15 8C14.4477 8 14 7.55228 14 7V3C14 2.44772 14.4477 2 15 2Z" fill="#1F2937"/>
<path fill-rule="evenodd" clip-rule="evenodd" d="M12 15.0075C12.5523 15.0075 13 15.4552 13 16.0075V18.0075C13 18.2727 13.1054 18.5271 13.2929 18.7146C13.4804 18.9022 13.7348 19.0075 14 19.0075H17C17.5523 19.0075 18 19.4552 18 20.0075C18 20.5598 17.5523 21.0075 17 21.0075H14C13.2043 21.0075 12.4413 20.6914 11.8787 20.1288C11.3161 19.5662 11 18.8032 11 18.0075V16.0075C11 15.4552 11.4477 15.0075 12 15.0075Z" fill="#1F2937"/>
</svg>
