<svg width="24" height="24" viewBox="0 0 24 24" fill="none" xmlns="http://www.w3.org/2000/svg">
<path fill-rule="evenodd" clip-rule="evenodd" d="M7.76405 5.35486C8.12036 5.77683 8.06713 6.40776 7.64516 6.76407C6.58815 7.65661 5.83091 8.85239 5.47595 10.1895C5.121 11.5267 5.18548 12.9406 5.66067 14.2399C6.13585 15.5391 6.99878 16.661 8.13265 17.4537C9.26652 18.2463 10.6166 18.6714 12 18.6714C13.3834 18.6714 14.7335 18.2463 15.8674 17.4537C17.0012 16.661 17.8642 15.5391 18.3393 14.2399C18.8145 12.9406 18.879 11.5267 18.524 10.1895C18.1691 8.85239 17.4119 7.65661 16.3548 6.76407C15.9329 6.40776 15.8796 5.77683 16.236 5.35486C16.5923 4.93289 17.2232 4.87966 17.6452 5.23598C19.0154 6.39298 19.997 7.94306 20.4571 9.67639C20.9172 11.4097 20.8336 13.2426 20.2177 14.9268C19.6017 16.6111 18.4831 18.0654 17.0132 19.0929C15.5434 20.1203 13.7934 20.6714 12 20.6714C10.2066 20.6714 8.4566 20.1203 6.98677 19.0929C5.51694 18.0654 4.39832 16.6111 3.78234 14.9268C3.16637 13.2426 3.08278 11.4097 3.5429 9.67639C4.00303 7.94306 4.98463 6.39298 6.35484 5.23598C6.77681 4.87966 7.40773 4.93289 7.76405 5.35486Z" fill="#1F2937"/>
<path fill-rule="evenodd" clip-rule="evenodd" d="M12 3.00751C12.5523 3.00751 13 3.45522 13 4.00751V12.0075C13 12.5598 12.5523 13.0075 12 13.0075C11.4477 13.0075 11 12.5598 11 12.0075V4.00751C11 3.45522 11.4477 3.00751 12 3.00751Z" fill="#1F2937"/>
</svg>
