<svg width="24" height="24" viewBox="0 0 24 24" fill="none" xmlns="http://www.w3.org/2000/svg">
<path fill-rule="evenodd" clip-rule="evenodd" d="M2 4.00751C2 3.45522 2.44772 3.00751 3 3.00751H21C21.5523 3.00751 22 3.45522 22 4.00751C22 4.55979 21.5523 5.00751 21 5.00751H3C2.44772 5.00751 2 4.55979 2 4.00751Z" fill="#1F2937"/>
<path fill-rule="evenodd" clip-rule="evenodd" d="M4 3.00751C4.55228 3.00751 5 3.45522 5 4.00751V14.0075C5 14.2727 5.10536 14.5271 5.29289 14.7146C5.48043 14.9022 5.73478 15.0075 6 15.0075H18C18.2652 15.0075 18.5196 14.9022 18.7071 14.7146C18.8946 14.5271 19 14.2727 19 14.0075V4.00751C19 3.45522 19.4477 3.00751 20 3.00751C20.5523 3.00751 21 3.45522 21 4.00751V14.0075C21 14.8032 20.6839 15.5662 20.1213 16.1288C19.5587 16.6914 18.7957 17.0075 18 17.0075H6C5.20435 17.0075 4.44129 16.6914 3.87868 16.1288C3.31607 15.5662 3 14.8032 3 14.0075V4.00751C3 3.45522 3.44772 3.00751 4 3.00751Z" fill="#1F2937"/>
<path fill-rule="evenodd" clip-rule="evenodd" d="M12 15.0075C12.5523 15.0075 13 15.4552 13 16.0075V20.0075C13 20.5598 12.5523 21.0075 12 21.0075C11.4477 21.0075 11 20.5598 11 20.0075V16.0075C11 15.4552 11.4477 15.0075 12 15.0075Z" fill="#1F2937"/>
<path fill-rule="evenodd" clip-rule="evenodd" d="M8 19.9925C8 19.4402 8.44772 18.9925 9 18.9925H15C15.5523 18.9925 16 19.4402 16 19.9925C16 20.5448 15.5523 20.9925 15 20.9925H9C8.44772 20.9925 8 20.5448 8 19.9925Z" fill="#1F2937"/>
<path fill-rule="evenodd" clip-rule="evenodd" d="M16.7071 7.28539C17.0976 7.67591 17.0976 8.30908 16.7071 8.6996L13.7071 11.6996C13.3166 12.0901 12.6834 12.0901 12.2929 11.6996L11 10.4067L8.70711 12.6996C8.31658 13.0901 7.68342 13.0901 7.29289 12.6996C6.90237 12.3091 6.90237 11.6759 7.29289 11.2854L10.2929 8.28539C10.6834 7.89486 11.3166 7.89486 11.7071 8.28539L13 9.57828L15.2929 7.28539C15.6834 6.89486 16.3166 6.89486 16.7071 7.28539Z" fill="#1F2937"/>
</svg>
