<svg width="24" height="24" viewBox="0 0 24 24" fill="none" xmlns="http://www.w3.org/2000/svg">
<path fill-rule="evenodd" clip-rule="evenodd" d="M4.29289 6.30034C4.68342 5.90982 5.31658 5.90982 5.70711 6.30034L10.7071 11.3003C11.0976 11.6909 11.0976 12.324 10.7071 12.7146L5.70711 17.7146C5.31658 18.1051 4.68342 18.1051 4.29289 17.7146C3.90237 17.324 3.90237 16.6909 4.29289 16.3003L8.58579 12.0074L4.29289 7.71455C3.90237 7.32403 3.90237 6.69086 4.29289 6.30034Z" fill="#1F2937"/>
<path fill-rule="evenodd" clip-rule="evenodd" d="M12 16.9926C12 16.4403 12.4477 15.9926 13 15.9926H19C19.5523 15.9926 20 16.4403 20 16.9926C20 17.5448 19.5523 17.9926 19 17.9926H13C12.4477 17.9926 12 17.5448 12 16.9926Z" fill="#1F2937"/>
</svg>
