<svg width="24" height="24" viewBox="0 0 24 24" fill="none" xmlns="http://www.w3.org/2000/svg">
<path fill-rule="evenodd" clip-rule="evenodd" d="M10 4C9.73478 4 9.48043 4.10536 9.29289 4.29289C9.10536 4.48043 9 4.73478 9 5V6C9 6.53043 8.78929 7.03914 8.41421 7.41421C8.03914 7.78929 7.53043 8 7 8H4V11H5C5.79565 11 6.55871 11.3161 7.12132 11.8787C7.68393 12.4413 8 13.2044 8 14C8 14.7956 7.68393 15.5587 7.12132 16.1213C6.55871 16.6839 5.79565 17 5 17L4 17V20H7V19C7 18.2043 7.31607 17.4413 7.87868 16.8787C8.44129 16.3161 9.20435 16 10 16C10.7957 16 11.5587 16.3161 12.1213 16.8787C12.6839 17.4413 13 18.2043 13 19V20H16V17C16 16.4696 16.2107 15.9609 16.5858 15.5858C16.9609 15.2107 17.4696 15 18 15H19C19.2652 15 19.5196 14.8946 19.7071 14.7071C19.8946 14.5196 20 14.2652 20 14C20 13.7348 19.8946 13.4804 19.7071 13.2929C19.5196 13.1054 19.2652 13 19 13H18C17.4696 13 16.9609 12.7893 16.5858 12.4142C16.2107 12.0391 16 11.5304 16 11V8H13C12.4696 8 11.9609 7.78929 11.5858 7.41421C11.2107 7.03914 11 6.53043 11 6V5C11 4.73478 10.8946 4.48043 10.7071 4.29289C10.5196 4.10536 10.2652 4 10 4ZM4 6C3.46957 6 2.96086 6.21071 2.58579 6.58579C2.21071 6.96086 2 7.46957 2 8V11C2 11.5304 2.21071 12.0391 2.58579 12.4142C2.96086 12.7893 3.46957 13 4 13H5C5.26522 13 5.51957 13.1054 5.70711 13.2929C5.89464 13.4804 6 13.7348 6 14C6 14.2652 5.89464 14.5196 5.70711 14.7071C5.51957 14.8946 5.26522 15 5 15H4C3.46957 15 2.96086 15.2107 2.58579 15.5858C2.21071 15.9609 2 16.4696 2 17V20C2 20.5304 2.21071 21.0391 2.58579 21.4142C2.96086 21.7893 3.46957 22 4 22H7C7.53043 22 8.03914 21.7893 8.41421 21.4142C8.78929 21.0391 9 20.5304 9 20V19C9 18.7348 9.10536 18.4804 9.29289 18.2929C9.48043 18.1054 9.73478 18 10 18C10.2652 18 10.5196 18.1054 10.7071 18.2929C10.8946 18.4804 11 18.7348 11 19V20C11 20.5304 11.2107 21.0391 11.5858 21.4142C11.9609 21.7893 12.4696 22 13 22H16C16.5304 22 17.0391 21.7893 17.4142 21.4142C17.7893 21.0391 18 20.5304 18 20L18 17L19 17C19.7957 17 20.5587 16.6839 21.1213 16.1213C21.6839 15.5587 22 14.7957 22 14C22 13.2043 21.6839 12.4413 21.1213 11.8787C20.5587 11.3161 19.7957 11 19 11H18V8C18 7.46957 17.7893 6.96086 17.4142 6.58579C17.0391 6.21071 16.5304 6 16 6H13V5C13 4.20435 12.6839 3.44129 12.1213 2.87868C11.5587 2.31607 10.7956 2 10 2C9.20435 2 8.44129 2.31607 7.87868 2.87868C7.31607 3.44129 7 4.20435 7 5V6H4Z" fill="#1F2937"/>
</svg>
