<svg width="24" height="24" viewBox="0 0 24 24" fill="none" xmlns="http://www.w3.org/2000/svg">
<path fill-rule="evenodd" clip-rule="evenodd" d="M3 5.00751C3 3.90294 3.89543 3.00751 5 3.00751H9C10.1046 3.00751 11 3.90294 11 5.00751V9.00751C11 10.1121 10.1046 11.0075 9 11.0075H5C3.89543 11.0075 3 10.1121 3 9.00751V5.00751ZM9 5.00751H5V9.00751H9V5.00751Z" fill="#1F2937"/>
<path fill-rule="evenodd" clip-rule="evenodd" d="M7 15.9925C7.55228 15.9925 8 16.4402 8 16.9925V17.0025C8 17.5548 7.55228 18.0025 7 18.0025C6.44772 18.0025 6 17.5548 6 17.0025V16.9925C6 16.4402 6.44772 15.9925 7 15.9925Z" fill="#1F2937"/>
<path fill-rule="evenodd" clip-rule="evenodd" d="M13 5.00751C13 3.90294 13.8954 3.00751 15 3.00751H19C20.1046 3.00751 21 3.90294 21 5.00751V9.00751C21 10.1121 20.1046 11.0075 19 11.0075H15C13.8954 11.0075 13 10.1121 13 9.00751V5.00751ZM19 5.00751H15V9.00751H19V5.00751Z" fill="#1F2937"/>
<path fill-rule="evenodd" clip-rule="evenodd" d="M7 6.00751C7.55228 6.00751 8 6.45522 8 7.00751V7.01751C8 7.56979 7.55228 8.01751 7 8.01751C6.44772 8.01751 6 7.56979 6 7.01751V7.00751C6 6.45522 6.44772 6.00751 7 6.00751Z" fill="#1F2937"/>
<path fill-rule="evenodd" clip-rule="evenodd" d="M3 14.9925C3 13.8879 3.89543 12.9925 5 12.9925H9C10.1046 12.9925 11 13.8879 11 14.9925V18.9925C11 20.0971 10.1046 20.9925 9 20.9925H5C3.89543 20.9925 3 20.0971 3 18.9925V14.9925ZM9 14.9925H5V18.9925H9V14.9925Z" fill="#1F2937"/>
<path fill-rule="evenodd" clip-rule="evenodd" d="M17 6.00751C17.5523 6.00751 18 6.45522 18 7.00751V7.01751C18 7.56979 17.5523 8.01751 17 8.01751C16.4477 8.01751 16 7.56979 16 7.01751V7.00751C16 6.45522 16.4477 6.00751 17 6.00751Z" fill="#1F2937"/>
<path fill-rule="evenodd" clip-rule="evenodd" d="M13 13.9925C13 13.4402 13.4477 12.9925 14 12.9925H17C17.5523 12.9925 18 13.4402 18 13.9925C18 14.5448 17.5523 14.9925 17 14.9925H14C13.4477 14.9925 13 14.5448 13 13.9925Z" fill="#1F2937"/>
<path fill-rule="evenodd" clip-rule="evenodd" d="M20 12.9925C20.5523 12.9925 21 13.4402 21 13.9925V14.0025C21 14.5548 20.5523 15.0025 20 15.0025C19.4477 15.0025 19 14.5548 19 14.0025V13.9925C19 13.4402 19.4477 12.9925 20 12.9925Z" fill="#1F2937"/>
<path fill-rule="evenodd" clip-rule="evenodd" d="M14 12.9925C14.5523 12.9925 15 13.4402 15 13.9925V16.9925C15 17.5448 14.5523 17.9925 14 17.9925C13.4477 17.9925 13 17.5448 13 16.9925V13.9925C13 13.4402 13.4477 12.9925 14 12.9925Z" fill="#1F2937"/>
<path fill-rule="evenodd" clip-rule="evenodd" d="M13 19.9925C13 19.4402 13.4477 18.9925 14 18.9925H17C17.5523 18.9925 18 19.4402 18 19.9925C18 20.5448 17.5523 20.9925 17 20.9925H14C13.4477 20.9925 13 20.5448 13 19.9925Z" fill="#1F2937"/>
<path fill-rule="evenodd" clip-rule="evenodd" d="M16 16.9925C16 16.4402 16.4477 15.9925 17 15.9925H20C20.5523 15.9925 21 16.4402 21 16.9925C21 17.5448 20.5523 17.9925 20 17.9925H17C16.4477 17.9925 16 17.5448 16 16.9925Z" fill="#1F2937"/>
<path fill-rule="evenodd" clip-rule="evenodd" d="M20 15.9925C20.5523 15.9925 21 16.4402 21 16.9925V19.9925C21 20.5448 20.5523 20.9925 20 20.9925C19.4477 20.9925 19 20.5448 19 19.9925V16.9925C19 16.4402 19.4477 15.9925 20 15.9925Z" fill="#1F2937"/>
</svg>
