<svg width="24" height="24" viewBox="0 0 24 24" fill="none" xmlns="http://www.w3.org/2000/svg">
<g clip-path="url(#clip0_6407_5143)">
<path fill-rule="evenodd" clip-rule="evenodd" d="M10.7586 2.28963C11.1929 2.08877 11.669 1.99473 12.1471 2.01536C12.6252 2.036 13.0914 2.1707 13.5069 2.40824C13.9223 2.64577 14.2749 2.97924 14.5352 3.3808C14.5445 3.3952 14.5535 3.40985 14.562 3.42472L17.5621 8.62087L18.4281 8.12087C18.7784 7.91864 19.216 7.94732 19.5368 8.19355C19.8577 8.43977 19.9987 8.85504 19.894 9.24572L19.162 11.9778C19.019 12.5112 18.4707 12.8278 17.9372 12.6849L15.2052 11.9528C14.8145 11.8481 14.5253 11.5184 14.4725 11.1174C14.4197 10.7164 14.6137 10.3231 14.964 10.1209L15.83 9.62087L12.8451 4.45087C12.7596 4.32494 12.6464 4.2201 12.5141 4.14446C12.3756 4.06528 12.2202 4.02038 12.0609 4.0135C11.9015 4.00663 11.7428 4.03797 11.598 4.10493C11.468 4.16508 11.3525 4.25239 11.2594 4.36079L10.7039 5.27836C10.4179 5.75082 9.80302 5.90196 9.33056 5.61595C8.8581 5.32994 8.70696 4.71508 8.99297 4.24262L9.58399 3.26631C9.6042 3.23293 9.62634 3.20077 9.6503 3.16998C9.94422 2.79234 10.3242 2.49049 10.7586 2.28963ZM8.30372 7.40754C8.53341 7.54014 8.701 7.75856 8.76965 8.01474L9.5017 10.7468C9.60638 11.1375 9.46541 11.5528 9.14453 11.799C8.82365 12.0452 8.38605 12.0739 8.03577 11.8716L7.16975 11.3716L4.18484 16.5417C4.11853 16.6787 4.08433 16.8291 4.08497 16.9815C4.08564 17.141 4.12446 17.298 4.19818 17.4395C4.27191 17.581 4.37841 17.7027 4.50878 17.7946C4.62591 17.8772 4.75925 17.9335 4.8997 17.96L5.97207 17.9823C6.52424 17.9937 6.96256 18.4506 6.9511 19.0028C6.93964 19.555 6.48273 19.9933 5.93056 19.9818L4.78954 19.9581C4.75053 19.9573 4.7116 19.9542 4.67296 19.9489C4.19895 19.8832 3.74754 19.705 3.35642 19.4293C2.96529 19.1535 2.6458 18.7882 2.42462 18.3639C2.20345 17.9395 2.08699 17.4684 2.08499 16.9899C2.08298 16.5113 2.19549 16.0393 2.4131 15.6131C2.42091 15.5978 2.42911 15.5827 2.4377 15.5678L5.4377 10.3716L4.57167 9.87164C4.2214 9.66941 4.02743 9.27609 4.08023 8.87509C4.13302 8.47409 4.42217 8.14437 4.81285 8.03969L7.5449 7.30764C7.80108 7.23899 8.07404 7.27493 8.30372 7.40754ZM19.718 14.3813C20.2019 14.1151 20.8099 14.2916 21.0761 14.7756L21.6261 15.7756C21.6449 15.8098 21.6617 15.845 21.6764 15.8812C21.8564 16.3245 21.9279 16.8045 21.8846 17.2811C21.8414 17.7577 21.6848 18.217 21.4279 18.6208C21.171 19.0245 20.8212 19.3609 20.4078 19.6019C19.9943 19.8429 19.5293 19.9815 19.0514 20.0062C19.0342 20.007 19.017 20.0075 18.9999 20.0075H12.9999V21.0075C12.9999 21.412 12.7562 21.7766 12.3826 21.9314C12.0089 22.0861 11.5788 22.0006 11.2928 21.7146L9.29277 19.7146C8.90224 19.3241 8.90224 18.6909 9.29277 18.3004L11.2928 16.3004C11.5788 16.0144 12.0089 15.9288 12.3826 16.0836C12.7562 16.2384 12.9999 16.603 12.9999 17.0075V18.0075H18.9697C19.1215 17.9964 19.2689 17.9508 19.4005 17.8741C19.5383 17.7937 19.6549 17.6816 19.7406 17.547C19.8262 17.4124 19.8784 17.2593 19.8928 17.1005C19.9058 16.9578 19.8879 16.8141 19.8406 16.6792L19.3237 15.7394C19.0575 15.2555 19.234 14.6474 19.718 14.3813Z" fill="#1F2937"/>
</g>
<defs>
<clipPath id="clip0_6407_5143">
<rect width="24" height="24" fill="white"/>
</clipPath>
</defs>
</svg>
