<svg width="20" height="20" viewBox="0 0 20 20" fill="none" xmlns="http://www.w3.org/2000/svg">
<rect x="1.25" y="1.25" width="17.5" height="17.5" rx="4" fill="#FF5700"/>
<path fill-rule="evenodd" clip-rule="evenodd" d="M11.7852 11.5815C11.3367 11.5815 10.9599 11.221 10.9599 10.7766C10.9599 10.3322 11.3367 9.95987 11.7852 9.95987C12.2337 9.95987 12.5975 10.3322 12.5975 10.7766C12.5975 11.221 12.2337 11.5815 11.7852 11.5815ZM11.9757 13.1436C11.558 13.5572 10.9137 13.7582 10.0062 13.7582C10.0044 13.7582 10.0021 13.7578 9.99986 13.7578C9.99799 13.7578 9.99575 13.7582 9.9935 13.7582C9.086 13.7582 8.44213 13.5572 8.02475 13.1436C7.8965 13.0165 7.8965 12.811 8.02475 12.6843C8.15263 12.5576 8.36 12.5576 8.48825 12.6843C8.77625 12.9697 9.26863 13.1087 9.9935 13.1087C9.99575 13.1087 9.99799 13.109 9.99986 13.109C10.0021 13.109 10.0044 13.1087 10.0062 13.1087C10.7311 13.1087 11.2239 12.9697 11.5122 12.6843C11.6405 12.5572 11.8479 12.5576 11.9757 12.6843C12.1036 12.8114 12.1036 13.0169 11.9757 13.1436ZM7.403 10.7766C7.403 10.3326 7.77912 9.95987 8.22725 9.95987C8.67575 9.95987 9.03949 10.3326 9.03949 10.7766C9.03949 11.221 8.67575 11.5815 8.22725 11.5815C7.77912 11.5815 7.403 11.221 7.403 10.7766ZM13.9992 5.64952C14.303 5.64952 14.5501 5.8944 14.5501 6.19501C14.5501 6.49599 14.303 6.74086 13.9992 6.74086C13.6955 6.74086 13.4484 6.49599 13.4484 6.19501C13.4484 5.8944 13.6955 5.64952 13.9992 5.64952ZM16.0002 9.89261C16.0002 9.10448 15.3534 8.46352 14.558 8.46352C14.2137 8.46352 13.8976 8.5839 13.6494 8.78418C12.77 8.23647 11.654 7.90651 10.4577 7.83665L11.0817 5.88176L12.7966 6.28195C12.8416 6.90063 13.3636 7.39038 13.9992 7.39038C14.6641 7.39038 15.2052 6.85419 15.2052 6.19501C15.2052 5.53619 14.6641 5 13.9992 5C13.5342 5 13.13 5.26233 12.9286 5.64543L10.9359 5.18059C10.769 5.14157 10.6002 5.2367 10.5485 5.39871L9.77374 7.82513C8.48487 7.85635 7.27325 8.18742 6.32938 8.76709C6.0845 8.57721 5.77661 8.46352 5.44249 8.46352C4.64711 8.46352 4.00024 9.10448 4.00024 9.89261C4.00024 10.3798 4.24774 10.8104 4.62462 11.0683C4.60887 11.1816 4.60062 11.2957 4.60062 11.4113C4.60062 12.3963 5.17849 13.3126 6.22774 13.9911C7.23349 14.6418 8.56475 15 9.97588 15C11.387 15 12.7183 14.6418 13.724 13.9911C14.7733 13.3126 15.3511 12.3963 15.3511 11.4113C15.3511 11.3061 15.344 11.2017 15.3309 11.098C15.7329 10.8442 16.0002 10.3987 16.0002 9.89261Z" fill="white"/>
</svg>
