<svg width="24" height="24" viewBox="0 0 24 24" fill="none" xmlns="http://www.w3.org/2000/svg">
<path fill-rule="evenodd" clip-rule="evenodd" d="M4 3.00751C4.55228 3.00751 5 3.45522 5 4.00751V6.28037C5.67856 5.46999 6.4976 4.77861 7.42497 4.24286C9.15332 3.24438 11.162 2.84185 13.1416 3.09728C15.1213 3.35272 16.962 4.25195 18.3803 5.65645C19.7986 7.06096 20.7157 8.89282 20.9905 10.8699C21.0665 11.4169 20.6847 11.922 20.1376 11.998C19.5906 12.074 19.0855 11.6922 19.0095 11.1452C18.7952 9.60263 18.0796 8.17338 16.973 7.07755C15.8664 5.98173 14.4302 5.28013 12.8857 5.08084C11.3412 4.88154 9.77393 5.1956 8.42544 5.97464C7.53816 6.48723 6.77797 7.18242 6.19115 8.00751H9C9.55228 8.00751 10 8.45522 10 9.00751C10 9.55979 9.55228 10.0075 9 10.0075H4.52237C4.50722 10.0079 4.49203 10.0079 4.47682 10.0075H4C3.44772 10.0075 3 9.55979 3 9.00751V4.00751C3 3.45522 3.44772 3.00751 4 3.00751Z" fill="#1F2937"/>
<path fill-rule="evenodd" clip-rule="evenodd" d="M3.86247 12.017C4.4095 11.941 4.91458 12.3228 4.9906 12.8699C5.20497 14.4124 5.92056 15.8416 7.02713 16.9375C8.13371 18.0333 9.56988 18.7349 11.1144 18.9342C12.659 19.1335 14.2262 18.8194 15.5747 18.0404C16.462 17.5278 17.2222 16.8326 17.809 16.0075H15.0001C14.4478 16.0075 14.0001 15.5598 14.0001 15.0075C14.0001 14.4552 14.4478 14.0075 15.0001 14.0075H19.4778C19.4929 14.0072 19.5081 14.0072 19.5233 14.0075H20.0001C20.5524 14.0075 21.0001 14.4552 21.0001 15.0075V20.0075C21.0001 20.5598 20.5524 21.0075 20.0001 21.0075C19.4478 21.0075 19.0001 20.5598 19.0001 20.0075V17.7346C18.3216 18.545 17.5025 19.2364 16.5752 19.7722C14.8468 20.7706 12.8381 21.1732 10.8585 20.9177C8.87885 20.6623 7.03812 19.7631 5.61984 18.3586C4.20155 16.9541 3.28439 15.1222 3.00964 13.1452C2.93362 12.5981 3.31545 12.093 3.86247 12.017Z" fill="#1F2937"/>
</svg>
