<svg width="24" height="24" viewBox="0 0 24 24" fill="none" xmlns="http://www.w3.org/2000/svg">
<path fill-rule="evenodd" clip-rule="evenodd" d="M12 4C7.58172 4 4 7.58172 4 12C4 16.4183 7.58172 20 12 20C16.4183 20 20 16.4183 20 12C20 7.58172 16.4183 4 12 4ZM2 12C2 6.47715 6.47715 2 12 2C17.5228 2 22 6.47715 22 12C22 17.5228 17.5228 22 12 22C6.47715 22 2 17.5228 2 12Z" fill="#1F2937"/>
<path fill-rule="evenodd" clip-rule="evenodd" d="M8 7.99249C8 7.44021 8.44772 6.99249 9 6.99249H13C13.7957 6.99249 14.5587 7.30856 15.1213 7.87117C15.6839 8.43378 16 9.19684 16 9.99249C16 10.7881 15.6839 11.5512 15.1213 12.1138C14.7759 12.4593 14.3548 12.7118 13.8971 12.8552L15.8 15.3925C16.1314 15.8343 16.0418 16.4611 15.6 16.7925C15.1582 17.1239 14.5314 17.0343 14.2 16.5925L11.5 12.9925H10V15.9925C10 16.5448 9.55228 16.9925 9 16.9925C8.44772 16.9925 8 16.5448 8 15.9925V7.99249ZM10 10.9925V8.99249H13C13.2652 8.99249 13.5196 9.09785 13.7071 9.28539C13.8946 9.47292 14 9.72728 14 9.99249C14 10.2577 13.8946 10.5121 13.7071 10.6996C13.5196 10.8871 13.2652 10.9925 13 10.9925H12.0101C12.0029 10.9924 11.9956 10.9924 11.9884 10.9925H10Z" fill="#1F2937"/>
</svg>
