<svg width="16" height="16" viewBox="0 0 16 16" fill="none" xmlns="http://www.w3.org/2000/svg">
<g clip-path="url(#clip0_3654_64850)">
<path d="M3.66663 5.0013C3.66663 4.64768 3.8072 4.30864 4.05725 4.05859C4.3073 3.80855 4.64634 3.66797 4.99996 3.66797C5.35358 3.66797 5.69262 3.80855 5.94267 4.05859C6.19272 4.30864 6.33329 4.64768 6.33329 5.0013C6.33329 5.35492 6.19272 5.69396 5.94267 5.94401C5.69262 6.19406 5.35358 6.33464 4.99996 6.33464C4.64634 6.33464 4.3073 6.19406 4.05725 5.94401C3.8072 5.69396 3.66663 5.35492 3.66663 5.0013Z" fill="#1F2937"/>
<path d="M1.33337 7.44661V3.9987C1.33337 2.52584 2.52718 1.33203 4.00004 1.33203H7.44796C7.97828 1.33203 8.48714 1.54311 8.86202 1.91797L14.002 7.05794C14.8897 7.94563 14.8897 9.3851 14.002 10.2728L13.0704 11.2051C12.81 11.4654 12.3873 11.4654 12.127 11.2051C11.8667 10.9447 11.8667 10.5221 12.127 10.2617L13.0593 9.33008C13.4263 8.96309 13.4263 8.36764 13.0593 8.00065L7.91931 2.86068C7.7942 2.73559 7.62426 2.66536 7.44796 2.66536H4.00004C3.26356 2.66536 2.66671 3.26222 2.66671 3.9987V7.44661C2.66671 7.62292 2.73693 7.79286 2.86202 7.91797L8.00134 13.0573C8.18599 13.2415 8.42567 13.3333 8.66671 13.3333C9.03489 13.3333 9.33336 13.6318 9.33337 14C9.33337 14.3682 9.0349 14.6667 8.66671 14.6667C8.08512 14.6667 7.50328 14.4437 7.05994 14.0013L1.91931 8.86068C1.54445 8.4858 1.33337 7.97694 1.33337 7.44661Z" fill="#1F2937"/>
<path d="M14.6667 12C15.0349 12 15.3333 12.2985 15.3333 12.6667C15.3333 13.0349 15.0349 13.3333 14.6667 13.3333H10.6667C10.2985 13.3333 10 13.0349 10 12.6667C10 12.2985 10.2985 12 10.6667 12H14.6667Z" fill="#1F2937"/>
</g>
<defs>
<clipPath id="clip0_3654_64850">
<rect width="16" height="16" fill="white"/>
</clipPath>
</defs>
</svg>
