<svg width="16" height="16" viewBox="0 0 16 16" fill="none" xmlns="http://www.w3.org/2000/svg">
<g clip-path="url(#clip0_1974_1004566)">
<path d="M12.6665 4.66797C13.0347 4.66797 13.3332 4.96645 13.3332 5.33464C13.3332 5.70283 13.0347 6.0013 12.6665 6.0013H3.33317C2.96498 6.0013 2.6665 5.70283 2.6665 5.33464C2.6665 4.96645 2.96498 4.66797 3.33317 4.66797H12.6665Z" fill="#1F2937"/>
<path d="M7.99984 7.33203C8.36803 7.33203 8.6665 7.63051 8.6665 7.9987C8.6665 8.36689 8.36803 8.66536 7.99984 8.66536H3.33317C2.96498 8.66536 2.6665 8.36689 2.6665 7.9987C2.6665 7.63051 2.96498 7.33203 3.33317 7.33203H7.99984Z" fill="#61F2937"/>
<path d="M7.99984 10C8.36803 10 8.6665 10.2985 8.6665 10.6667C8.6665 11.0349 8.36803 11.3333 7.99984 11.3333H3.33317C2.96498 11.3333 2.6665 11.0349 2.6665 10.6667C2.6665 10.2985 2.96498 10 3.33317 10H7.99984Z" fill="#1F2937"/>
<path d="M10.1953 8.86323C10.4556 8.60288 10.8776 8.60288 11.138 8.86323L13.8046 11.5299C14.065 11.7902 14.065 12.2123 13.8046 12.4726C13.5443 12.733 13.1223 12.733 12.8619 12.4726L10.1953 9.80594C9.93491 9.54559 9.93491 9.12358 10.1953 8.86323Z" fill="#1F2937"/>
<path d="M12.8619 8.86323C13.1223 8.60288 13.5443 8.60288 13.8046 8.86323C14.065 9.12358 14.065 9.54559 13.8046 9.80594L11.138 12.4726C10.8776 12.733 10.4556 12.733 10.1953 12.4726C9.93491 12.2123 9.93491 11.7902 10.1953 11.5299L12.8619 8.86323Z" fill="#1F2937"/>
</g>
<defs>
<clipPath id="clip0_1974_1004566">
<rect width="16" height="16" fill="white"/>
</clipPath>
</defs>
</svg>
