<svg width="24" height="24" viewBox="0 0 24 24" fill="none" xmlns="http://www.w3.org/2000/svg">
<path fill-rule="evenodd" clip-rule="evenodd" d="M16.2929 2.29289C16.6834 1.90237 17.3166 1.90237 17.7071 2.29289L20.7071 5.29289C21.0976 5.68342 21.0976 6.31658 20.7071 6.70711L17.7071 9.70711C17.3166 10.0976 16.6834 10.0976 16.2929 9.70711C15.9024 9.31658 15.9024 8.68342 16.2929 8.29289L17.5858 7H7C6.46957 7 5.96086 7.21071 5.58579 7.58579C5.21071 7.96086 5 8.46957 5 9V12C5 12.5523 4.55228 13 4 13C3.44772 13 3 12.5523 3 12V9C3 7.93913 3.42143 6.92172 4.17157 6.17157C4.92172 5.42143 5.93913 5 7 5H17.5858L16.2929 3.70711C15.9024 3.31658 15.9024 2.68342 16.2929 2.29289Z" fill="#1F2937"/>
<path fill-rule="evenodd" clip-rule="evenodd" d="M20 11C20.5523 11 21 11.4477 21 12V15C21 16.0609 20.5786 17.0783 19.8284 17.8284C19.0783 18.5786 18.0609 19 17 19H6.41421L7.70711 20.2929C8.09763 20.6834 8.09763 21.3166 7.70711 21.7071C7.31658 22.0976 6.68342 22.0976 6.29289 21.7071L3.29289 18.7071C2.90237 18.3166 2.90237 17.6834 3.29289 17.2929L6.29289 14.2929C6.68342 13.9024 7.31658 13.9024 7.70711 14.2929C8.09763 14.6834 8.09763 15.3166 7.70711 15.7071L6.41421 17H17C17.5304 17 18.0391 16.7893 18.4142 16.4142C18.7893 16.0391 19 15.5304 19 15V12C19 11.4477 19.4477 11 20 11Z" fill="#1F2937"/>
</svg>
