<svg width="12" height="12" viewBox="0 0 12 12" fill="none" xmlns="http://www.w3.org/2000/svg">
<g clip-path="url(#clip0_6646_89627)">
<path fill-rule="evenodd" clip-rule="evenodd" d="M5.85625 2.64503C6.05125 2.84003 6.05125 3.15503 5.85625 3.35003L4.71125 4.49503H9.00625C9.67125 4.49503 10.3062 4.76003 10.7762 5.22503C11.2462 5.69503 11.5063 6.33003 11.5063 6.99503C11.5063 7.66003 11.2412 8.29503 10.7762 8.76503C10.3062 9.23503 9.67125 9.49503 9.00625 9.49503H8.50625C8.23125 9.49503 8.00625 9.27003 8.00625 8.99503C8.00625 8.72003 8.23125 8.49503 8.50625 8.49503H9.00625C9.40625 8.49503 9.78625 8.33503 10.0662 8.05503C10.3462 7.77503 10.5062 7.39003 10.5062 6.99503C10.5062 6.60003 10.3462 6.21503 10.0662 5.93503C9.78625 5.65503 9.40125 5.49503 9.00625 5.49503H4.71125L5.85625 6.64003C6.05125 6.83503 6.05125 7.15003 5.85625 7.34503C5.66125 7.54003 5.34625 7.54003 5.15125 7.34503L3.15125 5.34503C2.95625 5.15003 2.95625 4.83503 3.15125 4.64003L5.14625 2.64503C5.34125 2.45003 5.65625 2.45003 5.85125 2.64503H5.85625Z" fill="#6B7280"/>
<path d="M3.35625 3.35503C3.55125 3.16003 3.55125 2.84503 3.35625 2.65003C3.16125 2.45503 2.84625 2.45503 2.65125 2.65003L0.64625 4.64503C0.45125 4.84003 0.45125 5.15503 0.64625 5.35003L2.64625 7.35003C2.84125 7.54503 3.15625 7.54503 3.35125 7.35003C3.54625 7.15503 3.54625 6.84003 3.35125 6.64503L2.20625 5.50003H2.21625C1.97125 5.25003 1.81125 4.86003 2.23125 4.48003L3.35625 3.35503Z" fill="#6B7280"/>
</g>
<defs>
<clipPath id="clip0_6646_89627">
<rect width="12" height="12" fill="white"/>
</clipPath>
</defs>
</svg>
