<svg width="16" height="16" viewBox="0 0 16 16" fill="none" xmlns="http://www.w3.org/2000/svg">
<path d="M11.3334 2C12.0406 2 12.7187 2.28115 13.2188 2.78125C13.7189 3.28135 14 3.95942 14 4.66667C14 4.67877 13.9994 4.69104 13.9987 4.70312C13.9269 6.01952 13.4668 7.28513 12.6758 8.33984C11.9722 9.27794 11.0346 10.0107 9.96096 10.4694C9.87842 11.1042 9.66824 11.7172 9.33726 12.2689C8.92898 12.9494 8.35353 13.5145 7.66604 13.9108C7.47195 14.0226 7.23477 14.0294 7.03453 13.929C6.83431 13.8286 6.69771 13.6345 6.67125 13.4121C6.54764 12.372 6.07793 11.4034 5.33726 10.6628C4.5966 9.9221 3.62805 9.45239 2.58791 9.32878C2.36549 9.30231 2.17142 9.16571 2.07099 8.96549C1.97059 8.76525 1.9774 8.52807 2.08922 8.33398C2.48556 7.64649 3.05067 7.07104 3.73114 6.66276C4.28265 6.33188 4.89538 6.121 5.52997 6.03841C5.98867 4.9649 6.72218 4.02772 7.66018 3.32422C8.71489 2.53325 9.9805 2.07311 11.2969 2.0013C11.309 2.00064 11.3213 2 11.3334 2ZM11.3444 3.33333C10.3003 3.39522 9.2974 3.76349 8.46031 4.39128C7.61647 5.02416 6.97897 5.89299 6.62893 6.88802C6.53771 7.14719 6.29676 7.32356 6.02216 7.33268C5.45575 7.35139 4.90332 7.51447 4.41734 7.80599C4.21001 7.93039 4.01816 8.07745 3.84377 8.24219C4.75752 8.53075 5.5947 9.03478 6.27997 9.72005C6.96505 10.4051 7.46858 11.2422 7.75719 12.1556C7.92191 11.9812 8.06964 11.79 8.19403 11.5827C8.48556 11.0967 8.64864 10.5443 8.66734 9.97786L8.67841 9.87695C8.72182 9.64554 8.88516 9.45094 9.112 9.37109C10.107 9.02106 10.9759 8.38355 11.6087 7.53971C12.2367 6.70246 12.6043 5.69931 12.666 4.65495C12.663 4.30556 12.5233 3.97124 12.2761 3.72396C12.0286 3.47652 11.694 3.33623 11.3444 3.33333Z" fill="currentColor"/>
<path d="M4.33882 8.75213C4.65944 8.57115 5.06602 8.68477 5.24702 9.00538C5.42791 9.32598 5.31499 9.7326 4.99442 9.91359C4.41623 10.24 3.94891 10.7318 3.65197 11.3257C3.43785 11.754 3.32019 12.2212 3.30301 12.6955C3.77766 12.6784 4.2455 12.5621 4.67411 12.3478C5.26794 12.0509 5.75979 11.5835 6.08622 11.0054C6.26722 10.6848 6.6738 10.5711 6.99442 10.7521C7.31499 10.9331 7.42791 11.3397 7.24702 11.6603C6.79002 12.4698 6.1019 13.1248 5.27046 13.5405C4.43902 13.9563 3.50215 14.1138 2.58036 13.9937C2.28056 13.9545 2.04455 13.7186 2.00549 13.4188C1.88545 12.4971 2.04362 11.5607 2.45926 10.7293C2.87498 9.8979 3.52933 9.20913 4.33882 8.75213Z" fill="currentColor"/>
<path d="M8.66663 5.99935C8.66663 5.64573 8.8072 5.30669 9.05725 5.05664C9.3073 4.80659 9.64634 4.66602 9.99996 4.66602L10.1315 4.67253C10.4368 4.70278 10.7238 4.83778 10.9427 5.05664C11.1927 5.30669 11.3333 5.64573 11.3333 5.99935C11.3333 6.35297 11.1927 6.69201 10.9427 6.94206C10.6926 7.19211 10.3536 7.33268 9.99996 7.33268C9.64634 7.33268 9.3073 7.19211 9.05725 6.94206C8.8072 6.69201 8.66663 6.35297 8.66663 5.99935Z" fill="currentColor"/>
</svg>
