<svg width="24" height="24" viewBox="0 0 24 24" fill="none" xmlns="http://www.w3.org/2000/svg">
<g clip-path="url(#clip0_6407_5207)">
<path fill-rule="evenodd" clip-rule="evenodd" d="M2.0623 7.05211C2.0623 6.49982 2.51002 6.05211 3.0623 6.05211L7.05038 6.05211C7.60267 6.05211 8.05038 6.49982 8.05038 7.05211V11.0402C8.05038 11.5925 7.60267 12.0402 7.05038 12.0402C6.4981 12.0402 6.05038 11.5925 6.05038 11.0402L6.05038 9.46632L4.22196 11.2947C4.03442 11.4823 3.92906 11.7366 3.92906 12.0019C3.92906 12.2671 4.03442 12.5214 4.22196 12.709L11.293 19.78C11.4806 19.9676 11.7349 20.0729 12.0001 20.0729C12.2653 20.0729 12.5197 19.9676 12.7072 19.78L19.7783 12.709C19.9658 12.5214 20.0712 12.2671 20.0712 12.0019C20.0712 11.7366 19.9658 11.4823 19.7783 11.2947L12.7072 4.22368C12.5197 4.03614 12.2653 3.93079 12.0001 3.93079C11.7349 3.93079 11.4806 4.03614 11.293 4.22368L10.798 4.71865C10.4075 5.10918 9.77436 5.10918 9.38384 4.71865C8.99331 4.32813 8.99331 3.69497 9.38384 3.30444L9.87881 2.80947C10.4414 2.24686 11.2045 1.93079 12.0001 1.93079C12.7958 1.93079 13.5588 2.24686 14.1215 2.80947L21.1925 9.88053C21.7551 10.4431 22.0712 11.2062 22.0712 12.0019C22.0712 12.7975 21.7551 13.5606 21.1925 14.1232L14.1215 21.1942C13.5588 21.7569 12.7958 22.0729 12.0001 22.0729C11.2045 22.0729 10.4414 21.7569 9.87881 21.1942L2.80774 14.1232C2.24513 13.5606 1.92906 12.7975 1.92906 12.0019C1.92906 11.2062 2.24513 10.4431 2.80774 9.88053L4.63617 8.05211H3.0623C2.51002 8.05211 2.0623 7.60439 2.0623 7.05211Z" fill="#1F2937"/>
</g>
<defs>
<clipPath id="clip0_6407_5207">
<rect width="24" height="24" fill="white"/>
</clipPath>
</defs>
</svg>
