<svg width="24" height="24" viewBox="0 0 24 24" fill="none" xmlns="http://www.w3.org/2000/svg">
<path fill-rule="evenodd" clip-rule="evenodd" d="M12.003 5.03134C10.3005 5.02625 8.65443 5.64183 7.37303 6.76284C6.09163 7.88385 5.26271 9.43344 5.04144 11.1215C4.96966 11.6691 4.46755 12.0549 3.91995 11.9831C3.37235 11.9113 2.98662 11.4092 3.0584 10.8616C3.34289 8.6912 4.40865 6.69886 6.05616 5.25756C7.70368 3.81626 9.82 3.02481 12.009 3.03135C14.1979 3.0379 16.3095 3.84199 17.9484 5.29312C19.5872 6.74425 20.6411 8.74292 20.9126 10.915C21.1841 13.0871 20.6547 15.2837 19.4234 17.0935C18.1922 18.9034 16.3435 20.2026 14.2235 20.7477C12.1035 21.2929 9.85749 21.0467 7.90588 20.0553C6.79872 19.4929 5.82938 18.7125 5.04992 17.7711V19.9916C5.04992 20.5439 4.6022 20.9916 4.04992 20.9916C3.49763 20.9916 3.04992 20.5439 3.04992 19.9916V14.9916C3.04992 14.4393 3.49763 13.9916 4.04992 13.9916H4.52663C4.54199 13.9912 4.55732 13.9912 4.57261 13.9916H9.04992C9.6022 13.9916 10.0499 14.4393 10.0499 14.9916C10.0499 15.5439 9.6022 15.9916 9.04992 15.9916H6.21002C6.86818 16.9508 7.76 17.7379 8.8117 18.2722C10.3296 19.0433 12.0765 19.2348 13.7254 18.8107C15.3743 18.3867 16.8122 17.3763 17.7698 15.9686C18.7274 14.5609 19.1392 12.8525 18.928 11.1631C18.7168 9.47367 17.8972 7.91915 16.6225 6.7905C15.3478 5.66184 13.7055 5.03643 12.003 5.03134Z" fill="#1F2937"/>
</svg>
