<svg width="24" height="24" viewBox="0 0 24 24" fill="none" xmlns="http://www.w3.org/2000/svg">
<path fill-rule="evenodd" clip-rule="evenodd" d="M11.9109 2.96162C13.0968 2.9499 14.2735 3.17189 15.3736 3.61491C15.8859 3.82121 16.134 4.40376 15.9277 4.91606C15.7214 5.42837 15.1389 5.67644 14.6266 5.47014C13.77 5.12523 12.8539 4.9524 11.9306 4.96152C11.0073 4.97065 10.0948 5.16154 9.24526 5.52331C8.39571 5.88508 7.62574 6.41064 6.9793 7.06998C6.33286 7.72932 5.82262 8.50953 5.47771 9.36606C4.78113 11.0959 4.80026 13.0316 5.53088 14.7474C6.0555 15.9793 6.9161 17.0254 8.00009 17.7753V14.9925C8.00009 14.4402 8.44781 13.9925 9.00009 13.9925C9.55238 13.9925 10.0001 14.4402 10.0001 14.9925V19.4199C10.0004 19.4352 10.0004 19.4505 10.0001 19.4658V19.9925C10.0001 20.5448 9.55238 20.9925 9.00009 20.9925H4.0001C3.44781 20.9925 3.00009 20.5448 3.00009 19.9925C3.00009 19.4402 3.44781 18.9925 4.0001 18.9925H6.29348C5.16824 18.0751 4.27005 16.8913 3.69078 15.5309C2.75233 13.3272 2.72776 10.8409 3.62248 8.61899C4.0655 7.51883 4.72087 6.51669 5.55118 5.66981C6.38149 4.82293 7.37048 4.14788 8.46168 3.68321C9.55287 3.21854 10.7249 2.97334 11.9109 2.96162Z" fill="#1F2937"/>
<path fill-rule="evenodd" clip-rule="evenodd" d="M17.6915 6.35465C18.1297 6.01853 18.7575 6.10129 19.0936 6.53951C19.4297 6.97775 19.3472 7.60593 18.909 7.94203C18.4707 8.27813 17.843 8.19533 17.5069 7.75709C17.1708 7.31887 17.2533 6.69078 17.6915 6.35465ZM19.7533 9.98111C20.3009 9.909 20.8032 10.2944 20.8753 10.842L20.8755 10.8431C20.9475 11.3907 20.562 11.893 20.0145 11.965C19.4669 12.037 18.9646 11.6516 18.8926 11.104C18.8205 10.5564 19.2058 10.0532 19.7533 9.98111ZM19.7265 14.1531C20.2368 14.3644 20.4792 14.9493 20.268 15.4596L20.2675 15.4606C20.0562 15.9709 19.4712 16.2132 18.961 16.0019C18.4507 15.7906 18.2084 15.2056 18.4197 14.6954C18.631 14.1851 19.2162 13.9419 19.7265 14.1531ZM17.6178 17.7531C17.9542 18.1912 17.8718 18.8189 17.4337 19.1553L17.4328 19.156C16.9947 19.4923 16.367 19.4098 16.0307 18.9717C15.6944 18.5336 15.7769 17.9059 16.2149 17.5696C16.653 17.2332 17.2815 17.3151 17.6178 17.7531ZM13.992 19.817C14.0644 20.3646 13.6792 20.8671 13.1316 20.9394C12.5841 21.0118 12.0811 20.6266 12.0087 20.0791C11.9364 19.5316 12.3216 19.0291 12.8691 18.9567C13.4167 18.8844 13.9196 19.2695 13.992 19.817Z" fill="#1F2937"/>
</svg>
