<svg width="24" height="24" viewBox="0 0 24 24" fill="none" xmlns="http://www.w3.org/2000/svg">
<path fill-rule="evenodd" clip-rule="evenodd" d="M11.9907 3.03135C14.1797 3.02481 16.296 3.81626 17.9435 5.25756C19.591 6.69886 20.6568 8.6912 20.9413 10.8616C21.013 11.4092 20.6273 11.9113 20.0797 11.9831C19.5321 12.0549 19.03 11.6691 18.9582 11.1215C18.737 9.43344 17.908 7.88385 16.6266 6.76284C15.3452 5.64183 13.6992 5.02625 11.9967 5.03134C10.2941 5.03643 8.65181 5.66184 7.37714 6.7905C6.10247 7.91915 5.28283 9.47367 5.07165 11.1631C4.86048 12.8525 5.27225 14.5609 6.22988 15.9686C7.18751 17.3763 8.62535 18.3867 10.2742 18.8107C11.9231 19.2348 13.6701 19.0433 15.188 18.2722C16.2397 17.7379 17.1315 16.9508 17.7896 15.9916H14.9497C14.3975 15.9916 13.9497 15.5439 13.9497 14.9916C13.9497 14.4393 14.3975 13.9916 14.9497 13.9916H19.4271C19.4423 13.9912 19.4577 13.9912 19.473 13.9916H19.9497C20.502 13.9916 20.9497 14.4393 20.9497 14.9916V19.9916C20.9497 20.5439 20.502 20.9916 19.9497 20.9916C19.3975 20.9916 18.9497 20.5439 18.9497 19.9916V17.7711C18.1703 18.7125 17.2009 19.4929 16.0938 20.0553C14.1422 21.0467 11.8962 21.2929 9.77614 20.7477C7.65613 20.2026 5.80748 18.9034 4.57624 17.0935C3.345 15.2837 2.81559 13.0871 3.0871 10.915C3.35861 8.74292 4.41243 6.74425 6.0513 5.29312C7.69016 3.84199 9.80172 3.0379 11.9907 3.03135Z" fill="#1F2937"/>
</svg>
