<svg width="24" height="24" viewBox="0 0 24 24" fill="none" xmlns="http://www.w3.org/2000/svg">
<path fill-rule="evenodd" clip-rule="evenodd" d="M14.7551 5.52331C13.0394 4.79269 11.1036 4.77356 9.3738 5.47014C8.86149 5.67644 8.27895 5.42837 8.07265 4.91606C7.86635 4.40376 8.11442 3.82121 8.62673 3.61491C10.8486 2.72019 13.3349 2.74476 15.5387 3.68321C17.7425 4.62165 19.4832 6.39711 20.3779 8.61899C21.2726 10.8409 21.248 13.3272 20.3096 15.5309C19.7303 16.8913 18.8321 18.0751 17.7069 18.9925H20.0003C20.5526 18.9925 21.0003 19.4402 21.0003 19.9925C21.0003 20.5448 20.5526 20.9925 20.0003 20.9925H15.0003C14.448 20.9925 14.0003 20.5448 14.0003 19.9925V19.4658C13.9999 19.4505 13.9999 19.4352 14.0003 19.4199V14.9925C14.0003 14.4402 14.448 13.9925 15.0003 13.9925C15.5525 13.9925 16.0003 14.4402 16.0003 14.9925V17.7753C17.0843 17.0254 17.9449 15.9793 18.4695 14.7474C19.2001 13.0316 19.2192 11.0959 18.5227 9.36606C17.8261 7.63622 16.4708 6.25394 14.7551 5.52331Z" fill="#1F2937"/>
<path fill-rule="evenodd" clip-rule="evenodd" d="M6.30886 6.35467C6.74708 6.6908 6.82984 7.31853 6.49371 7.75675C6.15761 8.19499 5.52961 8.27814 5.09137 7.94204C4.65313 7.60594 4.57033 6.97822 4.90643 6.53998C5.24256 6.10176 5.87064 6.01854 6.30886 6.35467ZM4.24702 9.98112C4.79457 10.0532 5.18 10.5556 5.1079 11.1031C5.03586 11.6507 4.53346 12.0371 3.98589 11.965C3.43832 11.893 3.05283 11.3907 3.12487 10.8431L3.12502 10.842C3.19712 10.2944 3.69946 9.90901 4.24702 9.98112ZM4.27385 14.1531C4.78413 13.9419 5.36906 14.1843 5.58031 14.6946C5.79162 15.2048 5.54962 15.7906 5.03937 16.0019C4.52911 16.2132 3.94415 15.9709 3.73284 15.4606L3.7324 15.4596C3.52115 14.9493 3.76356 14.3644 4.27385 14.1531ZM6.38253 17.7531C6.71889 17.3151 7.34667 17.2327 7.78471 17.569C8.22279 17.9053 8.30599 18.5336 7.96969 18.9717C7.63338 19.4098 7.00561 19.4923 6.56753 19.156L6.56663 19.1553C6.12859 18.8189 6.04616 18.1912 6.38253 17.7531ZM10.0084 19.817C10.0807 19.2695 10.5832 18.8843 11.1308 18.9567C11.6783 19.029 12.064 19.5316 11.9916 20.0791C11.9193 20.6266 11.4168 21.0119 10.8693 20.9395C10.3218 20.8672 9.936 20.3646 10.0084 19.817Z" fill="#1F2937"/>
</svg>
