<svg width="24" height="24" viewBox="0 0 24 24" fill="none" xmlns="http://www.w3.org/2000/svg">
<path fill-rule="evenodd" clip-rule="evenodd" d="M5 14.0075C4.44772 14.0075 4 14.4552 4 15.0075V19.0075C4 19.5598 4.44772 20.0075 5 20.0075H19C19.5523 20.0075 20 19.5598 20 19.0075V15.0075C20 14.4552 19.5523 14.0075 19 14.0075H5ZM2 15.0075C2 13.3507 3.34315 12.0075 5 12.0075H19C20.6569 12.0075 22 13.3507 22 15.0075V19.0075C22 20.6644 20.6569 22.0075 19 22.0075H5C3.34315 22.0075 2 20.6644 2 19.0075V15.0075Z" fill="#1F2937"/>
<path fill-rule="evenodd" clip-rule="evenodd" d="M17 15.9925C17.5523 15.9925 18 16.4402 18 16.9925V17.0025C18 17.5548 17.5523 18.0025 17 18.0025C16.4477 18.0025 16 17.5548 16 17.0025V16.9925C16 16.4402 16.4477 15.9925 17 15.9925Z" fill="#1F2937"/>
<path fill-rule="evenodd" clip-rule="evenodd" d="M13 15.9925C13.5523 15.9925 14 16.4402 14 16.9925V17.0025C14 17.5548 13.5523 18.0025 13 18.0025C12.4477 18.0025 12 17.5548 12 17.0025V16.9925C12 16.4402 12.4477 15.9925 13 15.9925Z" fill="#1F2937"/>
<path fill-rule="evenodd" clip-rule="evenodd" d="M15 9.99249C15.5523 9.99249 16 10.4402 16 10.9925V12.9925C16 13.5448 15.5523 13.9925 15 13.9925C14.4477 13.9925 14 13.5448 14 12.9925V10.9925C14 10.4402 14.4477 9.99249 15 9.99249Z" fill="#1F2937"/>
<path fill-rule="evenodd" clip-rule="evenodd" d="M15.0001 8.07812C14.5236 8.07812 14.054 8.1916 13.6302 8.40917C13.2063 8.62674 12.8403 8.94213 12.5626 9.32925C12.2406 9.77798 11.6158 9.88075 11.1671 9.55879C10.7184 9.23684 10.6156 8.61207 10.9376 8.16333C11.4005 7.51814 12.0104 6.99248 12.7169 6.62987C13.4233 6.26726 14.206 6.07812 15.0001 6.07812C15.7942 6.07812 16.5768 6.26726 17.2833 6.62987C17.9897 6.99248 18.5997 7.51814 19.0626 8.16333C19.3845 8.61207 19.2818 9.23684 18.833 9.55879C18.3843 9.88075 17.7595 9.77798 17.4376 9.32925C17.1598 8.94213 16.7939 8.62674 16.37 8.40917C15.9461 8.1916 15.4765 8.07812 15.0001 8.07812Z" fill="#1F2937"/>
<path fill-rule="evenodd" clip-rule="evenodd" d="M15.0001 4.1637C13.8884 4.1637 12.7926 4.42848 11.8036 4.93613C10.8146 5.44378 9.96066 6.1797 9.31258 7.08297C8.99062 7.5317 8.36585 7.63447 7.91711 7.31251C7.46838 6.99055 7.36562 6.36578 7.68758 5.91705C8.52083 4.7557 9.6187 3.80952 10.8903 3.15683C12.1619 2.50413 13.5707 2.1637 15.0001 2.1637C16.4294 2.1637 17.8382 2.50413 19.1098 3.15683C20.3814 3.80952 21.4793 4.7557 22.3126 5.91705C22.6345 6.36578 22.5318 6.99055 22.083 7.31251C21.6343 7.63447 21.0095 7.5317 20.6876 7.08297C20.0395 6.1797 19.1856 5.44378 18.1966 4.93613C17.2075 4.42848 16.1118 4.1637 15.0001 4.1637Z" fill="#1F2937"/>
</svg>
