<svg width="24" height="24" viewBox="0 0 24 24" fill="none" xmlns="http://www.w3.org/2000/svg">
<path fill-rule="evenodd" clip-rule="evenodd" d="M6 17.9925C5.44772 17.9925 5 18.4402 5 18.9925C5 19.5448 5.44772 19.9925 6 19.9925C6.55228 19.9925 7 19.5448 7 18.9925C7 18.4402 6.55228 17.9925 6 17.9925ZM3 18.9925C3 17.3356 4.34315 15.9925 6 15.9925C7.65685 15.9925 9 17.3356 9 18.9925C9 20.6493 7.65685 21.9925 6 21.9925C4.34315 21.9925 3 20.6493 3 18.9925Z" fill="#1F2937"/>
<path fill-rule="evenodd" clip-rule="evenodd" d="M18 4C17.4477 4 17 4.44772 17 5C17 5.55228 17.4477 6 18 6C18.5523 6 19 5.55228 19 5C19 4.44772 18.5523 4 18 4ZM15 5C15 3.34315 16.3431 2 18 2C19.6569 2 21 3.34315 21 5C21 6.65685 19.6569 8 18 8C16.3431 8 15 6.65685 15 5Z" fill="#1F2937"/>
<path fill-rule="evenodd" clip-rule="evenodd" d="M8.5 5.99249C7.83696 5.99249 7.20107 6.25588 6.73223 6.72473C6.26339 7.19357 6 7.82945 6 8.49249C6 9.15553 6.26339 9.79142 6.73223 10.2603C7.20107 10.7291 7.83696 10.9925 8.5 10.9925H16.5C17.6935 10.9925 18.8381 11.4666 19.682 12.3105C20.5259 13.1544 21 14.299 21 15.4925C21 16.686 20.5259 17.8306 19.682 18.6745C18.8381 19.5184 17.6935 19.9925 16.5 19.9925H12C11.4477 19.9925 11 19.5448 11 18.9925C11 18.4402 11.4477 17.9925 12 17.9925H16.5C17.163 17.9925 17.7989 17.7291 18.2678 17.2603C18.7366 16.7914 19 16.1555 19 15.4925C19 14.8295 18.7366 14.1936 18.2678 13.7247C17.7989 13.2559 17.163 12.9925 16.5 12.9925H8.5C7.30653 12.9925 6.16193 12.5184 5.31802 11.6745C4.47411 10.8306 4 9.68597 4 8.49249C4 7.29902 4.47411 6.15443 5.31802 5.31051C6.16193 4.4666 7.30653 3.99249 8.5 3.99249H12C12.5523 3.99249 13 4.44021 13 4.99249C13 5.54478 12.5523 5.99249 12 5.99249H8.5Z" fill="#1F2937"/>
</svg>
