<svg width="24" height="24" viewBox="0 0 24 24" fill="none" xmlns="http://www.w3.org/2000/svg">
<path fill-rule="evenodd" clip-rule="evenodd" d="M3 19C3 17.8954 3.89543 17 5 17C6.10457 17 7 17.8954 7 19C7 20.1046 6.10457 21 5 21C3.89543 21 3 20.1046 3 19Z" fill="#1F2937"/>
<path fill-rule="evenodd" clip-rule="evenodd" d="M3 4.00751C3 3.45522 3.44772 3.00751 4 3.00751C8.50868 3.00751 12.8327 4.79857 16.0208 7.98669C19.2089 11.1748 21 15.4988 21 20.0075C21 20.5598 20.5523 21.0075 20 21.0075C19.4477 21.0075 19 20.5598 19 20.0075C19 16.0293 17.4196 12.214 14.6066 9.40091C11.7936 6.58786 7.97825 5.00751 4 5.00751C3.44772 5.00751 3 4.55979 3 4.00751Z" fill="#1F2937"/>
<path fill-rule="evenodd" clip-rule="evenodd" d="M3 10.9925C3 10.4402 3.44772 9.99249 4 9.99249C6.65216 9.99249 9.1957 11.0461 11.0711 12.9214C12.9464 14.7968 14 17.3403 14 19.9925C14 20.5448 13.5523 20.9925 13 20.9925C12.4477 20.9925 12 20.5448 12 19.9925C12 17.8708 11.1571 15.8359 9.65685 14.3356C8.15656 12.8353 6.12173 11.9925 4 11.9925C3.44772 11.9925 3 11.5448 3 10.9925Z" fill="#1F2937"/>
</svg>
