<svg width="24" height="24" viewBox="0 0 24 24" fill="none" xmlns="http://www.w3.org/2000/svg">
<path fill-rule="evenodd" clip-rule="evenodd" d="M3.58579 3.59323C3.96086 3.21816 4.46957 3.00745 5 3.00745H19C19.5304 3.00745 20.0391 3.21816 20.4142 3.59323C20.7893 3.96831 21 4.47702 21 5.00745V10.0074C21 10.5379 20.7893 11.0466 20.4142 11.4217C20.0391 11.7967 19.5304 12.0074 19 12.0074H12V19.0074C12 19.5379 11.7893 20.0466 11.4142 20.4217C11.0391 20.7967 10.5304 21.0074 10 21.0074H5C4.46957 21.0074 3.96086 20.7967 3.58579 20.4217C3.21071 20.0466 3 19.5379 3 19.0074V5.00745C3 4.47701 3.21071 3.96831 3.58579 3.59323ZM19 5.00745H5L5 19.0074H10V12.0074C10 11.477 10.2107 10.9683 10.5858 10.5932C10.9609 10.2182 11.4696 10.0074 12 10.0074H19V5.00745Z" fill="#1F2937"/>
<path fill-rule="evenodd" clip-rule="evenodd" d="M3 7.99255C3 7.44027 3.44772 6.99255 4 6.99255H6C6.55228 6.99255 7 7.44027 7 7.99255C7 8.54484 6.55228 8.99255 6 8.99255H4C3.44772 8.99255 3 8.54484 3 7.99255Z" fill="#1F2937"/>
<path fill-rule="evenodd" clip-rule="evenodd" d="M3 12C3 11.4477 3.44772 11 4 11H7C7.55228 11 8 11.4477 8 12C8 12.5523 7.55228 13 7 13H4C3.44772 13 3 12.5523 3 12Z" fill="#1F2937"/>
<path fill-rule="evenodd" clip-rule="evenodd" d="M3 16.0074C3 15.4552 3.44772 15.0074 4 15.0074H6C6.55228 15.0074 7 15.4552 7 16.0074C7 16.5597 6.55228 17.0074 6 17.0074H4C3.44772 17.0074 3 16.5597 3 16.0074Z" fill="#1F2937"/>
<path fill-rule="evenodd" clip-rule="evenodd" d="M8 3.00745C8.55228 3.00745 9 3.45516 9 4.00745V6.00745C9 6.55973 8.55228 7.00745 8 7.00745C7.44772 7.00745 7 6.55973 7 6.00745V4.00745C7 3.45516 7.44772 3.00745 8 3.00745Z" fill="#1F2937"/>
<path fill-rule="evenodd" clip-rule="evenodd" d="M12 3.00745C12.5523 3.00745 13 3.45516 13 4.00745V7.00745C13 7.55973 12.5523 8.00745 12 8.00745C11.4477 8.00745 11 7.55973 11 7.00745V4.00745C11 3.45516 11.4477 3.00745 12 3.00745Z" fill="#1F2937"/>
<path fill-rule="evenodd" clip-rule="evenodd" d="M16 3.00745C16.5523 3.00745 17 3.45516 17 4.00745V6.00745C17 6.55973 16.5523 7.00745 16 7.00745C15.4477 7.00745 15 6.55973 15 6.00745V4.00745C15 3.45516 15.4477 3.00745 16 3.00745Z" fill="#1F2937"/>
</svg>
