<svg width="24" height="24" viewBox="0 0 24 24" fill="none" xmlns="http://www.w3.org/2000/svg">
<path fill-rule="evenodd" clip-rule="evenodd" d="M12 2C12.5523 2 13 2.44772 13 3V21C13 21.5523 12.5523 22 12 22C11.4477 22 11 21.5523 11 21V3C11 2.44772 11.4477 2 12 2Z" fill="#1F2937"/>
<path fill-rule="evenodd" clip-rule="evenodd" d="M8 21C8 20.4477 8.44772 20 9 20H15C15.5523 20 16 20.4477 16 21C16 21.5523 15.5523 22 15 22H9C8.44772 22 8 21.5523 8 21Z" fill="#1F2937"/>
<path fill-rule="evenodd" clip-rule="evenodd" d="M11.6836 4.04381C11.8888 3.97539 12.1107 3.97539 12.316 4.04381L17.9998 5.9384L20.6836 5.04381C21.2075 4.86916 21.7738 5.15232 21.9485 5.67626C22.1231 6.20021 21.84 6.76653 21.316 6.94118L18.316 7.94118C18.1107 8.0096 17.8888 8.0096 17.6836 7.94118L11.9998 6.04659L6.31601 7.94118C6.11074 8.0096 5.88882 8.0096 5.68356 7.94118L2.68356 6.94118C2.15961 6.76653 1.87645 6.20021 2.0511 5.67626C2.22575 5.15232 2.79207 4.86916 3.31601 5.04381L5.99978 5.9384L11.6836 4.04381Z" fill="#1F2937"/>
<path fill-rule="evenodd" clip-rule="evenodd" d="M6.00006 6.00751C6.43049 6.00751 6.81263 6.28294 6.94875 6.69128L9.94875 15.6913C10.0849 16.0996 9.94441 16.5492 9.60006 16.8075C8.56149 17.5864 7.29829 18.0075 6.00006 18.0075C4.70184 18.0075 3.43864 17.5864 2.40006 16.8075C2.05572 16.5492 1.91527 16.0996 2.05138 15.6913L5.05138 6.69128C5.1875 6.28294 5.56963 6.00751 6.00006 6.00751ZM4.19726 15.5782C4.75342 15.859 5.37056 16.0075 6.00006 16.0075C6.62956 16.0075 7.24671 15.859 7.80287 15.5782L6.00006 10.1698L4.19726 15.5782Z" fill="#1F2937"/>
<path fill-rule="evenodd" clip-rule="evenodd" d="M18.0001 6.00751C18.4305 6.00751 18.8126 6.28294 18.9487 6.69128L21.9487 15.6913C22.0849 16.0996 21.9444 16.5492 21.6001 16.8075C20.5615 17.5864 19.2983 18.0075 18.0001 18.0075C16.7018 18.0075 15.4386 17.5864 14.4001 16.8075C14.0557 16.5492 13.9153 16.0996 14.0514 15.6913L17.0514 6.69128C17.1875 6.28294 17.5696 6.00751 18.0001 6.00751ZM16.1973 15.5782C16.7534 15.859 17.3706 16.0075 18.0001 16.0075C18.6296 16.0075 19.2467 15.859 19.8029 15.5782L18.0001 10.1698L16.1973 15.5782Z" fill="#1F2937"/>
</svg>
