<svg width="24" height="24" viewBox="0 0 24 24" fill="none" xmlns="http://www.w3.org/2000/svg">
<path fill-rule="evenodd" clip-rule="evenodd" d="M6 5.00751C5.73478 5.00751 5.48043 5.11286 5.29289 5.3004C5.10536 5.48794 5 5.74229 5 6.00751V7.00751C5 7.55979 4.55228 8.00751 4 8.00751C3.44772 8.00751 3 7.55979 3 7.00751V6.00751C3 5.21186 3.31607 4.4488 3.87868 3.88619C4.44129 3.32358 5.20435 3.00751 6 3.00751H8C8.55228 3.00751 9 3.45522 9 4.00751C9 4.55979 8.55228 5.00751 8 5.00751H6Z" fill="#1F2937"/>
<path fill-rule="evenodd" clip-rule="evenodd" d="M4 15.9925C4.55228 15.9925 5 16.4402 5 16.9925V17.9925C5 18.2577 5.10536 18.5121 5.29289 18.6996C5.48043 18.8871 5.73478 18.9925 6 18.9925H8C8.55228 18.9925 9 19.4402 9 19.9925C9 20.5448 8.55228 20.9925 8 20.9925H6C5.20435 20.9925 4.44129 20.6764 3.87868 20.1138C3.31607 19.5512 3 18.7881 3 17.9925V16.9925C3 16.4402 3.44772 15.9925 4 15.9925Z" fill="#1F2937"/>
<path fill-rule="evenodd" clip-rule="evenodd" d="M15 4.00751C15 3.45522 15.4477 3.00751 16 3.00751H18C18.7956 3.00751 19.5587 3.32358 20.1213 3.88619C20.6839 4.4488 21 5.21186 21 6.00751V7.00751C21 7.55979 20.5523 8.00751 20 8.00751C19.4477 8.00751 19 7.55979 19 7.00751V6.00751C19 5.74229 18.8946 5.48794 18.7071 5.3004C18.5196 5.11286 18.2652 5.00751 18 5.00751H16C15.4477 5.00751 15 4.55979 15 4.00751Z" fill="#1F2937"/>
<path fill-rule="evenodd" clip-rule="evenodd" d="M20 15.9925C20.5523 15.9925 21 16.4402 21 16.9925V17.9925C21 18.7881 20.6839 19.5512 20.1213 20.1138C19.5587 20.6764 18.7957 20.9925 18 20.9925H16C15.4477 20.9925 15 20.5448 15 19.9925C15 19.4402 15.4477 18.9925 16 18.9925H18C18.2652 18.9925 18.5196 18.8871 18.7071 18.6996C18.8946 18.5121 19 18.2577 19 17.9925V16.9925C19 16.4402 19.4477 15.9925 20 15.9925Z" fill="#1F2937"/>
<path fill-rule="evenodd" clip-rule="evenodd" d="M4 12C4 11.4477 4.44772 11 5 11H19C19.5523 11 20 11.4477 20 12C20 12.5523 19.5523 13 19 13H5C4.44772 13 4 12.5523 4 12Z" fill="#1F2937"/>
</svg>
