<svg width="24" height="24" viewBox="0 0 24 24" fill="none" xmlns="http://www.w3.org/2000/svg">
<path fill-rule="evenodd" clip-rule="evenodd" d="M6 5.00751C4.89543 5.00751 4 5.90294 4 7.00751C4 8.11208 4.89543 9.00751 6 9.00751C7.10457 9.00751 8 8.11208 8 7.00751C8 5.90294 7.10457 5.00751 6 5.00751ZM2 7.00751C2 4.79837 3.79086 3.00751 6 3.00751C8.20914 3.00751 10 4.79837 10 7.00751C10 9.21665 8.20914 11.0075 6 11.0075C3.79086 11.0075 2 9.21665 2 7.00751Z" fill="#1F2937"/>
<path fill-rule="evenodd" clip-rule="evenodd" d="M6 14.9925C4.89543 14.9925 4 15.8879 4 16.9925C4 18.0971 4.89543 18.9925 6 18.9925C7.10457 18.9925 8 18.0971 8 16.9925C8 15.8879 7.10457 14.9925 6 14.9925ZM2 16.9925C2 14.7834 3.79086 12.9925 6 12.9925C8.20914 12.9925 10 14.7834 10 16.9925C10 19.2016 8.20914 20.9925 6 20.9925C3.79086 20.9925 2 19.2016 2 16.9925Z" fill="#1F2937"/>
<path fill-rule="evenodd" clip-rule="evenodd" d="M7.8925 7.89476C8.28303 7.50424 8.91619 7.50424 9.30672 7.89476L19.7067 18.2948C20.0972 18.6853 20.0972 19.3184 19.7067 19.709C19.3162 20.0995 18.683 20.0995 18.2925 19.709L7.8925 9.30897C7.50198 8.91845 7.50198 8.28529 7.8925 7.89476Z" fill="#1F2937"/>
<path fill-rule="evenodd" clip-rule="evenodd" d="M19.7067 4.28539C20.0972 4.67591 20.0972 5.30908 19.7067 5.6996L9.30672 16.0996C8.91619 16.4901 8.28303 16.4901 7.8925 16.0996C7.50198 15.7091 7.50198 15.0759 7.8925 14.6854L18.2925 4.28539C18.683 3.89486 19.3162 3.89486 19.7067 4.28539Z" fill="#1F2937"/>
</svg>
