<svg width="24" height="24" viewBox="0 0 24 24" fill="none" xmlns="http://www.w3.org/2000/svg">
<path fill-rule="evenodd" clip-rule="evenodd" d="M11.2929 4.28542C11.6834 3.89489 12.3166 3.89489 12.7071 4.28542L16.7071 8.28542C17.0976 8.67594 17.0976 9.3091 16.7071 9.69963C16.3166 10.0902 15.6834 10.0902 15.2929 9.69963L12 6.40674L8.70711 9.69963C8.31658 10.0902 7.68342 10.0902 7.29289 9.69963C6.90237 9.3091 6.90237 8.67594 7.29289 8.28542L11.2929 4.28542Z" fill="#1F2937"/>
<path fill-rule="evenodd" clip-rule="evenodd" d="M7.29289 14.2929C7.68342 13.9024 8.31658 13.9024 8.70711 14.2929L12 17.5858L15.2929 14.2929C15.6834 13.9024 16.3166 13.9024 16.7071 14.2929C17.0976 14.6834 17.0976 15.3166 16.7071 15.7071L12.7071 19.7071C12.3166 20.0976 11.6834 20.0976 11.2929 19.7071L7.29289 15.7071C6.90237 15.3166 6.90237 14.6834 7.29289 14.2929Z" fill="#1F2937"/>
</svg>
