<svg width="24" height="24" viewBox="0 0 24 24" fill="none" xmlns="http://www.w3.org/2000/svg">
<path fill-rule="evenodd" clip-rule="evenodd" d="M21.7071 2.29289C22.0976 2.68342 22.0976 3.31658 21.7071 3.70711L10.7071 14.7071C10.3166 15.0976 9.68342 15.0976 9.29289 14.7071C8.90237 14.3166 8.90237 13.6834 9.29289 13.2929L20.2929 2.29289C20.6834 1.90237 21.3166 1.90237 21.7071 2.29289Z" fill="#1F2937"/>
<path fill-rule="evenodd" clip-rule="evenodd" d="M21.7072 2.29292C21.9813 2.56708 22.0723 2.975 21.9406 3.33967L15.4406 21.3397C15.4312 21.3657 15.4207 21.3914 15.4092 21.4166C15.2855 21.6864 15.087 21.9151 14.8372 22.0754C14.5874 22.2357 14.2969 22.3209 14.0001 22.3209C13.7033 22.3209 13.4127 22.2357 13.1629 22.0754C12.9191 21.9189 12.7242 21.6974 12.6 21.4359L9.25471 14.7454L2.56419 11.4001C2.30276 11.276 2.08118 11.081 1.92471 10.8372C1.76441 10.5874 1.6792 10.2968 1.6792 10C1.6792 9.70323 1.76441 9.41267 1.92471 9.16288C2.08501 8.9131 2.31366 8.71458 2.58347 8.59094C2.60868 8.57939 2.63435 8.56889 2.66043 8.55947L20.6604 2.05947C21.0251 1.92779 21.433 2.01876 21.7072 2.29292ZM4.37183 10.0679L10.4473 13.1056C10.6408 13.2024 10.7977 13.3593 10.8945 13.5528L13.9322 19.6283L19.3359 4.66417L4.37183 10.0679Z" fill="#1F2937"/>
</svg>
