<svg width="24" height="24" viewBox="0 0 24 24" fill="none" xmlns="http://www.w3.org/2000/svg">
<path fill-rule="evenodd" clip-rule="evenodd" d="M3 11C3.55228 11 4 11.4477 4 12V12.01C4 12.5623 3.55228 13.01 3 13.01C2.44772 13.01 2 12.5623 2 12.01V12C2 11.4477 2.44772 11 3 11Z" fill="#1F2937"/>
<path fill-rule="evenodd" clip-rule="evenodd" d="M6 12C6 11.4477 6.44772 11 7 11H17C17.5523 11 18 11.4477 18 12C18 12.5523 17.5523 13 17 13H7C6.44772 13 6 12.5523 6 12Z" fill="#1F2937"/>
<path fill-rule="evenodd" clip-rule="evenodd" d="M21 11C21.5523 11 22 11.4477 22 12V12.01C22 12.5623 21.5523 13.01 21 13.01C20.4477 13.01 20 12.5623 20 12.01V12C20 11.4477 20.4477 11 21 11Z" fill="#1F2937"/>
</svg>
