<svg width="24" height="24" viewBox="0 0 24 24" fill="none" xmlns="http://www.w3.org/2000/svg">
<path fill-rule="evenodd" clip-rule="evenodd" d="M6 5.00751C4.89543 5.00751 4 5.90294 4 7.00751V9.00751C4 10.1121 4.89543 11.0075 6 11.0075H18C19.1046 11.0075 20 10.1121 20 9.00751V7.00751C20 5.90294 19.1046 5.00751 18 5.00751H6ZM2 7.00751C2 4.79837 3.79086 3.00751 6 3.00751H18C20.2091 3.00751 22 4.79837 22 7.00751V9.00751C22 11.2166 20.2091 13.0075 18 13.0075H6C3.79086 13.0075 2 11.2166 2 9.00751V7.00751Z" fill="#1F2937"/>
<path fill-rule="evenodd" clip-rule="evenodd" d="M6 13C4.89543 13 4 13.8954 4 15V17C4 18.1046 4.89543 19 6 19H18C19.1046 19 20 18.1046 20 17V15C20 13.8954 19.1046 13 18 13H6ZM2 15C2 12.7909 3.79086 11 6 11H18C20.2091 11 22 12.7909 22 15V17C22 19.2091 20.2091 21 18 21H6C3.79086 21 2 19.2091 2 17V15Z" fill="#1F2937"/>
<path fill-rule="evenodd" clip-rule="evenodd" d="M7 6.99249C7.55228 6.99249 8 7.44021 8 7.99249V8.00249C8 8.55478 7.55228 9.00249 7 9.00249C6.44772 9.00249 6 8.55478 6 8.00249V7.99249C6 7.44021 6.44772 6.99249 7 6.99249Z" fill="#1F2937"/>
<path fill-rule="evenodd" clip-rule="evenodd" d="M7 15.0075C7.55228 15.0075 8 15.4552 8 16.0075V16.0175C8 16.5698 7.55228 17.0175 7 17.0175C6.44772 17.0175 6 16.5698 6 16.0175V16.0075C6 15.4552 6.44772 15.0075 7 15.0075Z" fill="#1F2937"/>
</svg>
