<svg width="24" height="24" viewBox="0 0 24 24" fill="none" xmlns="http://www.w3.org/2000/svg">
<path fill-rule="evenodd" clip-rule="evenodd" d="M6 5.00745C5.44772 5.00745 5 5.45516 5 6.00745C5 6.55973 5.44772 7.00745 6 7.00745C6.55228 7.00745 7 6.55973 7 6.00745C7 5.45516 6.55228 5.00745 6 5.00745ZM3 6.00745C3 4.35059 4.34315 3.00745 6 3.00745C7.65685 3.00745 9 4.35059 9 6.00745C9 7.6643 7.65685 9.00745 6 9.00745C4.34315 9.00745 3 7.6643 3 6.00745Z" fill="#1F2937"/>
<path fill-rule="evenodd" clip-rule="evenodd" d="M18 5.00745C17.4477 5.00745 17 5.45516 17 6.00745C17 6.55973 17.4477 7.00745 18 7.00745C18.5523 7.00745 19 6.55973 19 6.00745C19 5.45516 18.5523 5.00745 18 5.00745ZM15 6.00745C15 4.35059 16.3431 3.00745 18 3.00745C19.6569 3.00745 21 4.35059 21 6.00745C21 7.6643 19.6569 9.00745 18 9.00745C16.3431 9.00745 15 7.6643 15 6.00745Z" fill="#1F2937"/>
<path fill-rule="evenodd" clip-rule="evenodd" d="M6 17.0074C5.44772 17.0074 5 17.4552 5 18.0074C5 18.5597 5.44772 19.0074 6 19.0074C6.55228 19.0074 7 18.5597 7 18.0074C7 17.4552 6.55228 17.0074 6 17.0074ZM3 18.0074C3 16.3506 4.34315 15.0074 6 15.0074C7.65685 15.0074 9 16.3506 9 18.0074C9 19.6643 7.65685 21.0074 6 21.0074C4.34315 21.0074 3 19.6643 3 18.0074Z" fill="#1F2937"/>
<path fill-rule="evenodd" clip-rule="evenodd" d="M18 17.0074C17.4477 17.0074 17 17.4552 17 18.0074C17 18.5597 17.4477 19.0074 18 19.0074C18.5523 19.0074 19 18.5597 19 18.0074C19 17.4552 18.5523 17.0074 18 17.0074ZM15 18.0074C15 16.3506 16.3431 15.0074 18 15.0074C19.6569 15.0074 21 16.3506 21 18.0074C21 19.6643 19.6569 21.0074 18 21.0074C16.3431 21.0074 15 19.6643 15 18.0074Z" fill="#1F2937"/>
<path fill-rule="evenodd" clip-rule="evenodd" d="M6 6.99255C6.55228 6.99255 7 7.44027 7 7.99255V15.9926C7 16.5448 6.55228 16.9926 6 16.9926C5.44772 16.9926 5 16.5448 5 15.9926V7.99255C5 7.44027 5.44772 6.99255 6 6.99255Z" fill="#1F2937"/>
<path fill-rule="evenodd" clip-rule="evenodd" d="M7 6C7 5.44772 7.44772 5 8 5H16C16.5523 5 17 5.44772 17 6C17 6.55228 16.5523 7 16 7H8C7.44772 7 7 6.55228 7 6Z" fill="#1F2937"/>
<path fill-rule="evenodd" clip-rule="evenodd" d="M7 18C7 17.4477 7.44772 17 8 17H16C16.5523 17 17 17.4477 17 18C17 18.5523 16.5523 19 16 19H8C7.44772 19 7 18.5523 7 18Z" fill="#1F2937"/>
<path fill-rule="evenodd" clip-rule="evenodd" d="M18 6.99255C18.5523 6.99255 19 7.44027 19 7.99255V15.9926C19 16.5448 18.5523 16.9926 18 16.9926C17.4477 16.9926 17 16.5448 17 15.9926V7.99255C17 7.44027 17.4477 6.99255 18 6.99255Z" fill="#1F2937"/>
</svg>
