<svg width="24" height="24" viewBox="0 0 24 24" fill="none" xmlns="http://www.w3.org/2000/svg">
<path fill-rule="evenodd" clip-rule="evenodd" d="M6 10C4.89543 10 4 10.8954 4 12C4 13.1046 4.89543 14 6 14C7.10457 14 8 13.1046 8 12C8 10.8954 7.10457 10 6 10ZM2 12C2 9.79086 3.79086 8 6 8C8.20914 8 10 9.79086 10 12C10 14.2091 8.20914 16 6 16C3.79086 16 2 14.2091 2 12Z" fill="#1F2937"/>
<path fill-rule="evenodd" clip-rule="evenodd" d="M18 4C16.8954 4 16 4.89543 16 6C16 7.10457 16.8954 8 18 8C19.1046 8 20 7.10457 20 6C20 4.89543 19.1046 4 18 4ZM14 6C14 3.79086 15.7909 2 18 2C20.2091 2 22 3.79086 22 6C22 8.20914 20.2091 10 18 10C15.7909 10 14 8.20914 14 6Z" fill="#1F2937"/>
<path fill-rule="evenodd" clip-rule="evenodd" d="M18 16C16.8954 16 16 16.8954 16 18C16 19.1046 16.8954 20 18 20C19.1046 20 20 19.1046 20 18C20 16.8954 19.1046 16 18 16ZM14 18C14 15.7909 15.7909 14 18 14C20.2091 14 22 15.7909 22 18C22 20.2091 20.2091 22 18 22C15.7909 22 14 20.2091 14 18Z" fill="#1F2937"/>
<path fill-rule="evenodd" clip-rule="evenodd" d="M16.1894 6.8542C16.4423 7.34517 16.2493 7.94821 15.7584 8.20113L9.15836 11.6011C8.66739 11.8541 8.06435 11.6611 7.81143 11.1701C7.55851 10.6791 7.75148 10.0761 8.24245 9.82318L14.8424 6.42319C15.3334 6.17026 15.9365 6.36324 16.1894 6.8542Z" fill="#1F2937"/>
<path fill-rule="evenodd" clip-rule="evenodd" d="M7.81143 12.8542C8.06435 12.3632 8.66739 12.1703 9.15836 12.4232L15.7584 15.8232C16.2493 16.0761 16.4423 16.6791 16.1894 17.1701C15.9365 17.6611 15.3334 17.854 14.8425 17.6011L8.24245 14.2011C7.75148 13.9482 7.55851 13.3452 7.81143 12.8542Z" fill="#1F2937"/>
</svg>
