<svg width="24" height="24" viewBox="0 0 24 24" fill="none" xmlns="http://www.w3.org/2000/svg">
<path fill-rule="evenodd" clip-rule="evenodd" d="M12.6719 2.25938C12.598 2.19219 12.5161 2.13789 12.4294 2.09667C12.2934 2.03194 12.1464 1.99995 11.9998 2C11.8532 1.99995 11.7063 2.03194 11.5703 2.09667C11.4835 2.13789 11.4017 2.19219 11.3278 2.25938C9.18785 4.1483 6.39726 5.13155 3.54555 5.00106C3.08537 4.98 2.67035 5.27602 2.54043 5.71798C2.04904 7.38958 1.89868 9.1429 2.09829 10.8738C2.29791 12.6046 2.84342 14.2777 3.70241 15.7936C4.5614 17.3094 5.71634 18.6371 7.0986 19.6978C8.48087 20.7585 10.0622 21.5305 11.7488 21.968C11.9134 22.0107 12.0862 22.0107 12.2509 21.968C13.9374 21.5305 15.5188 20.7585 16.9011 19.6978C18.2833 18.6371 19.4383 17.3094 20.2973 15.7936C21.1562 14.2777 21.7018 12.6046 21.9014 10.8738C22.101 9.1429 21.9506 7.38958 21.4592 5.71798C21.3293 5.27602 20.9143 4.98 20.4541 5.00106C17.6024 5.13155 14.8118 4.1483 12.6719 2.25938ZM11.9998 4.29725C9.78417 6.01038 7.07291 6.9626 4.27187 7.01065C4.00869 8.2015 3.945 9.42961 4.08513 10.6446C4.25403 12.1092 4.71561 13.5249 5.44245 14.8075C6.16929 16.0902 7.14655 17.2136 8.31616 18.1112C9.41691 18.9558 10.6669 19.5841 11.9998 19.9637C13.3328 19.5841 14.5828 18.9558 15.6835 18.1112C16.8531 17.2136 17.8304 16.0902 18.5572 14.8075C19.2841 13.5249 19.7456 12.1092 19.9145 10.6446C20.0547 9.42961 19.991 8.2015 19.7278 7.01065C16.9268 6.96259 14.2155 6.01038 11.9998 4.29725Z" fill="#1F2937"/>
</svg>
