<svg width="24" height="24" viewBox="0 0 24 24" fill="none" xmlns="http://www.w3.org/2000/svg">
<path fill-rule="evenodd" clip-rule="evenodd" d="M9.58471 3.19624C9.84548 3.38419 10 3.68604 10 4.00748C10 4.53792 10.2107 5.04663 10.5858 5.4217C10.9609 5.79677 11.4696 6.00748 12 6.00748C12.5304 6.00748 13.0391 5.79677 13.4142 5.4217C13.7893 5.04663 14 4.53792 14 4.00748C14 3.68604 14.1545 3.38419 14.4153 3.19624C14.6761 3.00829 15.0113 2.95715 15.3162 3.0588L21.3162 5.0588C21.7246 5.19491 22 5.57705 22 6.00748V11.0075C22 11.5598 21.5523 12.0075 21 12.0075H19V19.0075C19 19.5379 18.7893 20.0466 18.4142 20.4217C18.0391 20.7968 17.5304 21.0075 17 21.0075H7C6.46957 21.0075 5.96086 20.7968 5.58579 20.4217C5.21071 20.0466 5 19.5379 5 19.0075V12.0075H3C2.44772 12.0075 2 11.5598 2 11.0075V6.00748C2 5.57705 2.27543 5.19491 2.68377 5.0588L8.68377 3.0588C8.98872 2.95715 9.32394 3.00829 9.58471 3.19624ZM4 6.72824V10.0075H6C6.55228 10.0075 7 10.4552 7 11.0075V19.0075H17V11.0075C17 10.4552 17.4477 10.0075 18 10.0075H20V6.72824L15.7782 5.32098C15.5818 5.88587 15.2594 6.40499 14.8284 6.83591C14.0783 7.58606 13.0609 8.00748 12 8.00748C10.9391 8.00748 9.92172 7.58606 9.17157 6.83591C8.74065 6.40499 8.4182 5.88587 8.2218 5.32098L4 6.72824Z" fill="#1F2937"/>
</svg>
