<svg width="24" height="24" viewBox="0 0 24 24" fill="none" xmlns="http://www.w3.org/2000/svg">
<path fill-rule="evenodd" clip-rule="evenodd" d="M9 17.9925C8.44772 17.9925 8 18.4402 8 18.9925C8 19.5448 8.44772 19.9925 9 19.9925C9.55228 19.9925 10 19.5448 10 18.9925C10 18.4402 9.55228 17.9925 9 17.9925ZM6 18.9925C6 17.3356 7.34315 15.9925 9 15.9925C10.6569 15.9925 12 17.3356 12 18.9925C12 20.6493 10.6569 21.9925 9 21.9925C7.34315 21.9925 6 20.6493 6 18.9925Z" fill="#1F2937"/>
<path fill-rule="evenodd" clip-rule="evenodd" d="M17 17.9925C16.4477 17.9925 16 18.4402 16 18.9925C16 19.5448 16.4477 19.9925 17 19.9925C17.5523 19.9925 18 19.5448 18 18.9925C18 18.4402 17.5523 17.9925 17 17.9925ZM14 18.9925C14 17.3356 15.3431 15.9925 17 15.9925C18.6569 15.9925 20 17.3356 20 18.9925C20 20.6493 18.6569 21.9925 17 21.9925C15.3431 21.9925 14 20.6493 14 18.9925Z" fill="#1F2937"/>
<path fill-rule="evenodd" clip-rule="evenodd" d="M2 3C2 2.44772 2.44772 2 3 2H5C5.48884 2 5.90603 2.35341 5.98639 2.8356L6.68046 7.00001H21C21.2899 7.00001 21.5655 7.12581 21.7555 7.34481C21.9454 7.56381 22.0309 7.85445 21.99 8.14143L20.99 15.1414C20.9807 15.2062 20.9651 15.27 20.9434 15.3317C20.6557 16.1497 20.1101 16.8521 19.3887 17.333C18.6757 17.8084 17.8291 18.042 16.9737 18H10.0263C9.17092 18.042 8.32434 17.8084 7.61132 17.333C6.88988 16.8521 6.34426 16.1497 6.05663 15.3317C6.03749 15.2773 6.02309 15.2213 6.01361 15.1644L4.88801 8.41081C4.83147 8.28549 4.8 8.14642 4.8 8.00001C4.8 7.96895 4.80142 7.93822 4.80419 7.90789L4.15287 4H3C2.44772 4 2 3.55228 2 3ZM7.01379 9.00001L7.97069 14.7414C8.12029 15.1191 8.38168 15.4429 8.72073 15.6689C9.08144 15.9094 9.51054 16.0262 9.94337 16.0016C9.96223 16.0006 9.98111 16 10 16H17C17.0189 16 17.0378 16.0006 17.0566 16.0016C17.4895 16.0262 17.9186 15.9094 18.2793 15.6689C18.6154 15.4449 18.8752 15.1247 19.0254 14.7512L19.847 9.00001H7.01379Z" fill="#1F2937"/>
</svg>
