<svg width="24" height="24" viewBox="0 0 24 24" fill="none" xmlns="http://www.w3.org/2000/svg">
<path fill-rule="evenodd" clip-rule="evenodd" d="M14 6C14 5.44772 14.4477 5 15 5H15.01C15.5623 5 16.01 5.44772 16.01 6C16.01 6.55228 15.5623 7 15.01 7H15C14.4477 7 14 6.55228 14 6Z" fill="#1F2937"/>
<path fill-rule="evenodd" clip-rule="evenodd" d="M6 4C4.89543 4 4 4.89543 4 6V14C4 15.1046 4.89543 16 6 16H18C19.1046 16 20 15.1046 20 14V6C20 4.89543 19.1046 4 18 4H6ZM2 6C2 3.79086 3.79086 2 6 2H18C20.2091 2 22 3.79086 22 6V14C22 16.2091 20.2091 18 18 18H6C3.79086 18 2 16.2091 2 14V6Z" fill="#1F2937"/>
<path fill-rule="evenodd" clip-rule="evenodd" d="M7.69966 9.70516L3.70711 13.6977C3.31658 14.0882 2.68341 14.0882 2.29289 13.6977C1.90237 13.3072 1.90237 12.674 2.29289 12.2835L6.29289 8.2835L6.30663 8.27003C6.909 7.6904 7.6642 7.32074 8.5 7.32074C9.3358 7.32074 10.091 7.6904 10.6934 8.27003L10.7071 8.2835L14.7071 12.2835C15.0976 12.674 15.0976 13.3072 14.7071 13.6977C14.3166 14.0882 13.6834 14.0882 13.2929 13.6977L9.30034 9.70516C8.9931 9.41189 8.71594 9.32074 8.5 9.32074C8.28406 9.32074 8.0069 9.41189 7.69966 9.70516Z" fill="#1F2937"/>
<path fill-rule="evenodd" clip-rule="evenodd" d="M15.6997 10.7127L13.7071 12.7052C13.3166 13.0957 12.6834 13.0957 12.2929 12.7052C11.9024 12.3147 11.9024 11.6815 12.2929 11.291L14.2929 9.29101L14.3066 9.27754C14.909 8.69791 15.6642 8.32825 16.5 8.32825C17.3358 8.32825 18.091 8.69791 18.6934 9.27754L18.7071 9.29101L21.7071 12.291C22.0976 12.6815 22.0976 13.3147 21.7071 13.7052C21.3166 14.0957 20.6834 14.0957 20.2929 13.7052L17.3003 10.7127C16.9931 10.4194 16.7159 10.3282 16.5 10.3282C16.2841 10.3282 16.0069 10.4194 15.6997 10.7127Z" fill="#1F2937"/>
<path fill-rule="evenodd" clip-rule="evenodd" d="M7 21C7 20.4477 7.44772 20 8 20H8.01C8.56228 20 9.01 20.4477 9.01 21C9.01 21.5523 8.56228 22 8.01 22H8C7.44772 22 7 21.5523 7 21Z" fill="#1F2937"/>
<path fill-rule="evenodd" clip-rule="evenodd" d="M11 21C11 20.4477 11.4477 20 12 20H12.01C12.5623 20 13.01 20.4477 13.01 21C13.01 21.5523 12.5623 22 12.01 22H12C11.4477 22 11 21.5523 11 21Z" fill="#1F2937"/>
<path fill-rule="evenodd" clip-rule="evenodd" d="M15 21C15 20.4477 15.4477 20 16 20H16.01C16.5623 20 17.01 20.4477 17.01 21C17.01 21.5523 16.5623 22 16.01 22H16C15.4477 22 15 21.5523 15 21Z" fill="#1F2937"/>
</svg>
