<svg width="24" height="24" viewBox="0 0 24 24" fill="none" xmlns="http://www.w3.org/2000/svg">
<path fill-rule="evenodd" clip-rule="evenodd" d="M12.0001 0.992523C12.5524 0.992523 13.0001 1.44024 13.0001 1.99252V2.99252H14.0001C14.4639 2.99252 14.8668 3.3114 14.9733 3.76277C15.0799 4.21414 14.8621 4.67954 14.4473 4.88695L13.0001 5.61056V7.91316L15.4975 9.34499C15.9766 9.61969 16.1423 10.2308 15.8676 10.7099C15.5929 11.189 14.9818 11.3548 14.5027 11.0801L11.5027 9.36005C11.1918 9.18182 11.0001 8.85087 11.0001 8.49252V5.61056L9.55288 4.88695C9.13807 4.67954 8.92029 4.21414 9.02685 3.76277C9.1334 3.3114 9.53632 2.99252 10.0001 2.99252H11.0001V1.99252C11.0001 1.44024 11.4478 0.992523 12.0001 0.992523Z" fill="#1F2937"/>
<path fill-rule="evenodd" clip-rule="evenodd" d="M21.5264 6.5056C21.8026 6.9839 21.6387 7.59549 21.1604 7.87163L20.2944 8.37163L20.7944 9.23766C21.0263 9.6393 20.9516 10.1477 20.6139 10.4656C20.2763 10.7836 19.7644 10.8277 19.3773 10.5722L18.0271 9.68065L16.033 10.832L16.0417 13.7107C16.0433 14.263 15.597 14.712 15.0447 14.7137C14.4924 14.7154 14.0433 14.269 14.0417 13.7167L14.0312 10.2586C14.0301 9.90029 14.2209 9.56876 14.5312 9.38958L17.0271 7.9486L16.9301 6.33347C16.9023 5.87052 17.1965 5.44922 17.6407 5.31582C18.0849 5.18241 18.5625 5.37191 18.7944 5.77355L19.2944 6.63958L20.1604 6.13958C20.6387 5.86344 21.2503 6.02731 21.5264 6.5056Z" fill="#1F2937"/>
<path fill-rule="evenodd" clip-rule="evenodd" d="M21.5263 17.5131C21.2502 17.9914 20.6386 18.1553 20.1603 17.8791L19.2943 17.3791L18.7943 18.2452C18.5624 18.6468 18.0848 18.8363 17.6406 18.7029C17.1964 18.5695 16.9023 18.1482 16.93 17.6852L17.027 16.0701L15.0329 14.9188L12.5442 16.3657C12.0667 16.6433 11.4546 16.4813 11.1771 16.0038C10.8995 15.5263 11.0615 14.9143 11.539 14.6367L14.5285 12.8986C14.8383 12.7185 15.2208 12.7179 15.5311 12.8971L18.027 14.3381L19.3773 13.4465C19.7643 13.191 20.2762 13.2351 20.6138 13.5531C20.9515 13.871 21.0262 14.3794 20.7943 14.7811L20.2943 15.6471L21.1603 16.1471C21.6386 16.4232 21.8025 17.0348 21.5263 17.5131Z" fill="#1F2937"/>
<path fill-rule="evenodd" clip-rule="evenodd" d="M11.9999 23.0075C11.4476 23.0075 10.9999 22.5598 10.9999 22.0075V21.0075H9.9999C9.53612 21.0075 9.13321 20.6886 9.02665 20.2372C8.9201 19.7859 9.13787 19.3205 9.55269 19.113L10.9999 18.3894V16.0868L8.50252 14.655C8.02339 14.3803 7.85767 13.7692 8.13237 13.2901C8.40707 12.811 9.01816 12.6452 9.49729 12.9199L12.4973 14.6399C12.8082 14.8182 12.9999 15.1491 12.9999 15.5075V18.3894L14.4471 19.113C14.8619 19.3205 15.0797 19.7859 14.9732 20.2372C14.8666 20.6886 14.4637 21.0075 13.9999 21.0075H12.9999V22.0075C12.9999 22.5598 12.5522 23.0075 11.9999 23.0075Z" fill="#1F2937"/>
<path fill-rule="evenodd" clip-rule="evenodd" d="M2.47358 17.4944C2.19744 17.0161 2.36132 16.4045 2.83961 16.1283L3.70563 15.6283L3.20563 14.7623C2.97375 14.3607 3.04844 13.8523 3.38606 13.5343C3.72368 13.2164 4.23562 13.1723 4.62265 13.4278L5.97292 14.3193L7.96703 13.168L7.95834 10.2893C7.95667 9.73704 8.40304 9.28797 8.95532 9.28631C9.5076 9.28464 9.95667 9.731 9.95833 10.2833L9.96877 13.7414C9.96985 14.0997 9.77911 14.4312 9.46877 14.6104L6.97292 16.0514L7.06986 17.6665C7.09765 18.1294 6.80349 18.5507 6.35931 18.6842C5.91514 18.8176 5.43752 18.6281 5.20563 18.2264L4.70563 17.3604L3.83961 17.8604C3.36132 18.1365 2.74973 17.9727 2.47358 17.4944Z" fill="#1F2937"/>
<path fill-rule="evenodd" clip-rule="evenodd" d="M2.47368 6.48689C2.74982 6.0086 3.36141 5.84473 3.83971 6.12087L4.70573 6.62087L5.20573 5.75484C5.43762 5.3532 5.91524 5.1637 6.35941 5.29711C6.80359 5.43051 7.09775 5.85181 7.06996 6.31476L6.97302 7.92988L8.96713 9.08118L11.4558 7.6343C11.9333 7.35672 12.5454 7.51875 12.8229 7.9962C13.1005 8.47366 12.9385 9.08574 12.461 9.36333L9.47148 11.1014C9.16169 11.2815 8.77921 11.2821 8.46887 11.1029L5.97302 9.66193L4.62275 10.5535C4.23572 10.809 3.72378 10.7649 3.38616 10.4469C3.04854 10.129 2.97384 9.62058 3.20573 9.21894L3.70573 8.35292L2.83971 7.85292C2.36141 7.57678 2.19754 6.96519 2.47368 6.48689Z" fill="#1F2937"/>
</svg>
