<svg width="24" height="24" viewBox="0 0 24 24" fill="none" xmlns="http://www.w3.org/2000/svg">
<path fill-rule="evenodd" clip-rule="evenodd" d="M12 4C11.4477 4 11 4.44772 11 5C11 5.55228 11.4477 6 12 6C12.5523 6 13 5.55228 13 5C13 4.44772 12.5523 4 12 4ZM9 5C9 3.34315 10.3431 2 12 2C13.6569 2 15 3.34315 15 5C15 6.65685 13.6569 8 12 8C10.3431 8 9 6.65685 9 5Z" fill="#1F2937"/>
<path fill-rule="evenodd" clip-rule="evenodd" d="M5 17.9925C4.44772 17.9925 4 18.4402 4 18.9925C4 19.5448 4.44772 19.9925 5 19.9925C5.55228 19.9925 6 19.5448 6 18.9925C6 18.4402 5.55228 17.9925 5 17.9925ZM2 18.9925C2 17.3356 3.34315 15.9925 5 15.9925C6.65685 15.9925 8 17.3356 8 18.9925C8 20.6493 6.65685 21.9925 5 21.9925C3.34315 21.9925 2 20.6493 2 18.9925Z" fill="#1F2937"/>
<path fill-rule="evenodd" clip-rule="evenodd" d="M19 17.9925C18.4477 17.9925 18 18.4402 18 18.9925C18 19.5448 18.4477 19.9925 19 19.9925C19.5523 19.9925 20 19.5448 20 18.9925C20 18.4402 19.5523 17.9925 19 17.9925ZM16 18.9925C16 17.3356 17.3431 15.9925 19 15.9925C20.6569 15.9925 22 17.3356 22 18.9925C22 20.6493 20.6569 21.9925 19 21.9925C17.3431 21.9925 16 20.6493 16 18.9925Z" fill="#1F2937"/>
<path fill-rule="evenodd" clip-rule="evenodd" d="M12 11.9925C10.8954 11.9925 10 12.8879 10 13.9925C10 15.0971 10.8954 15.9925 12 15.9925C13.1046 15.9925 14 15.0971 14 13.9925C14 12.8879 13.1046 11.9925 12 11.9925ZM8 13.9925C8 11.7834 9.79086 9.99249 12 9.99249C14.2091 9.99249 16 11.7834 16 13.9925C16 16.2016 14.2091 17.9925 12 17.9925C9.79086 17.9925 8 16.2016 8 13.9925Z" fill="#1F2937"/>
<path fill-rule="evenodd" clip-rule="evenodd" d="M12 6.00751C12.5523 6.00751 13 6.45522 13 7.00751V11.0075C13 11.5598 12.5523 12.0075 12 12.0075C11.4477 12.0075 11 11.5598 11 11.0075V7.00751C11 6.45522 11.4477 6.00751 12 6.00751Z" fill="#1F2937"/>
<path fill-rule="evenodd" clip-rule="evenodd" d="M10.314 15.216C10.635 15.6654 10.5309 16.2899 10.0815 16.6109L7.28151 18.6109C6.83209 18.9319 6.20754 18.8278 5.88654 18.3784C5.56553 17.929 5.66963 17.3044 6.11904 16.9834L8.91904 14.9835C9.36845 14.6625 9.993 14.7665 10.314 15.216Z" fill="#1F2937"/>
<path fill-rule="evenodd" clip-rule="evenodd" d="M13.6863 15.216C14.0073 14.7665 14.6319 14.6625 15.0813 14.9835L17.8813 16.9834C18.3307 17.3044 18.4348 17.929 18.1138 18.3784C17.7928 18.8278 17.1683 18.9319 16.7188 18.6109L13.9188 16.6109C13.4694 16.2899 13.3653 15.6654 13.6863 15.216Z" fill="#1F2937"/>
</svg>
