<svg width="24" height="24" viewBox="0 0 24 24" fill="none" xmlns="http://www.w3.org/2000/svg">
<path fill-rule="evenodd" clip-rule="evenodd" d="M3 6C3 5.44772 3.44772 5 4 5H11C11.5523 5 12 5.44772 12 6C12 6.55228 11.5523 7 11 7H4C3.44772 7 3 6.55228 3 6Z" fill="#1F2937"/>
<path fill-rule="evenodd" clip-rule="evenodd" d="M3 12C3 11.4477 3.44772 11 4 11H11C11.5523 11 12 11.4477 12 12C12 12.5523 11.5523 13 11 13H4C3.44772 13 3 12.5523 3 12Z" fill="#1F2937"/>
<path fill-rule="evenodd" clip-rule="evenodd" d="M3 18C3 17.4477 3.44772 17 4 17H13C13.5523 17 14 17.4477 14 18C14 18.5523 13.5523 19 13 19H4C3.44772 19 3 18.5523 3 18Z" fill="#1F2937"/>
<path fill-rule="evenodd" clip-rule="evenodd" d="M17.2929 5.29289C17.6834 4.90237 18.3166 4.90237 18.7071 5.29289L21.7071 8.29289C22.0976 8.68342 22.0976 9.31658 21.7071 9.70711C21.3166 10.0976 20.6834 10.0976 20.2929 9.70711L18 7.41421L15.7071 9.70711C15.3166 10.0976 14.6834 10.0976 14.2929 9.70711C13.9024 9.31658 13.9024 8.68342 14.2929 8.29289L17.2929 5.29289Z" fill="#1F2937"/>
<path fill-rule="evenodd" clip-rule="evenodd" d="M18 5C18.5523 5 19 5.44772 19 6V18C19 18.5523 18.5523 19 18 19C17.4477 19 17 18.5523 17 18V6C17 5.44772 17.4477 5 18 5Z" fill="#1F2937"/>
</svg>
