<svg width="24" height="24" viewBox="0 0 24 24" fill="none" xmlns="http://www.w3.org/2000/svg">
<path fill-rule="evenodd" clip-rule="evenodd" d="M3 6C3 5.44772 3.44772 5 4 5H13C13.5523 5 14 5.44772 14 6C14 6.55228 13.5523 7 13 7H4C3.44772 7 3 6.55228 3 6Z" fill="#1F2937"/>
<path fill-rule="evenodd" clip-rule="evenodd" d="M3 12C3 11.4477 3.44772 11 4 11H11C11.5523 11 12 11.4477 12 12C12 12.5523 11.5523 13 11 13H4C3.44772 13 3 12.5523 3 12Z" fill="#1F2937"/>
<path fill-rule="evenodd" clip-rule="evenodd" d="M3 18C3 17.4477 3.44772 17 4 17H11C11.5523 17 12 17.4477 12 18C12 18.5523 11.5523 19 11 19H4C3.44772 19 3 18.5523 3 18Z" fill="#1F2937"/>
<path fill-rule="evenodd" clip-rule="evenodd" d="M14.2929 14.2929C14.6834 13.9024 15.3166 13.9024 15.7071 14.2929L18 16.5858L20.2929 14.2929C20.6834 13.9024 21.3166 13.9024 21.7071 14.2929C22.0976 14.6834 22.0976 15.3166 21.7071 15.7071L18.7071 18.7071C18.3166 19.0976 17.6834 19.0976 17.2929 18.7071L14.2929 15.7071C13.9024 15.3166 13.9024 14.6834 14.2929 14.2929Z" fill="#1F2937"/>
<path fill-rule="evenodd" clip-rule="evenodd" d="M18 5C18.5523 5 19 5.44772 19 6V18C19 18.5523 18.5523 19 18 19C17.4477 19 17 18.5523 17 18V6C17 5.44772 17.4477 5 18 5Z" fill="#1F2937"/>
</svg>
