<svg width="24" height="24" viewBox="0 0 24 24" fill="none" xmlns="http://www.w3.org/2000/svg">
<path fill-rule="evenodd" clip-rule="evenodd" d="M11.5528 3.11308C11.8343 2.97232 12.1657 2.97232 12.4472 3.11308L20.4472 7.11308C20.786 7.28247 21 7.62874 21 8.00751C21 8.38628 20.786 8.73254 20.4472 8.90193L12.4472 12.9019C12.1657 13.0427 11.8343 13.0427 11.5528 12.9019L3.55279 8.90193C3.214 8.73254 3 8.38628 3 8.00751C3 7.62874 3.214 7.28247 3.55279 7.11308L11.5528 3.11308ZM6.23607 8.00751L12 10.8895L17.7639 8.00751L12 5.12554L6.23607 8.00751Z" fill="#1F2937"/>
<path fill-rule="evenodd" clip-rule="evenodd" d="M3.10579 11.5528C3.35278 11.0588 3.95345 10.8586 4.44743 11.1055L12.0002 14.8819L19.553 11.1055C20.047 10.8586 20.6477 11.0588 20.8946 11.5528C21.1416 12.0467 20.9414 12.6474 20.4474 12.8944L12.4474 16.8944C12.1659 17.0352 11.8345 17.0352 11.553 16.8944L3.55301 12.8944C3.05903 12.6474 2.8588 12.0467 3.10579 11.5528Z" fill="#1F2937"/>
<path fill-rule="evenodd" clip-rule="evenodd" d="M3.10579 15.5603C3.35278 15.0663 3.95345 14.8661 4.44743 15.1131L12.0002 18.8894L19.553 15.1131C20.047 14.8661 20.6477 15.0663 20.8946 15.5603C21.1416 16.0542 20.9414 16.6549 20.4474 16.9019L12.4474 20.9019C12.1659 21.0427 11.8345 21.0427 11.553 20.9019L3.55301 16.9019C3.05903 16.6549 2.8588 16.0542 3.10579 15.5603Z" fill="#1F2937"/>
</svg>
