<svg width="24" height="24" viewBox="0 0 24 24" fill="none" xmlns="http://www.w3.org/2000/svg">
<path fill-rule="evenodd" clip-rule="evenodd" d="M11.9997 0.992554C12.3803 0.992554 12.728 1.20865 12.8964 1.54999L15.7497 7.3315L22.1294 8.25793C22.5061 8.31264 22.8191 8.57647 22.9367 8.93849C23.0544 9.30051 22.9563 9.69793 22.6837 9.96364L18.0672 14.4637L19.1573 20.8185C19.2217 21.1937 19.0674 21.5728 18.7595 21.7966C18.4515 22.0203 18.0433 22.0498 17.7063 21.8727L11.9997 18.8723L6.29306 21.8727C5.95614 22.0498 5.54787 22.0203 5.23991 21.7966C4.93196 21.5728 4.77774 21.1937 4.8421 20.8185L5.93221 14.4637L1.31569 9.96364C1.0431 9.69793 0.945012 9.30051 1.06266 8.93849C1.18031 8.57647 1.49328 8.31264 1.86999 8.25793L8.24966 7.3315L11.103 1.54999C11.2714 1.20865 11.6191 0.992554 11.9997 0.992554ZM11.9997 4.25213L9.81044 8.68812C9.66476 8.98329 9.38316 9.18787 9.05741 9.23517L4.16282 9.94595L7.70471 13.3985C7.94041 13.6282 8.04795 13.9592 7.9923 14.2836L7.1559 19.1594L11.5343 16.8574C11.8257 16.7043 12.1737 16.7043 12.4651 16.8574L16.8435 19.1594L16.0071 14.2836C15.9514 13.9592 16.059 13.6282 16.2947 13.3985L19.8366 9.94595L14.942 9.23517C14.6162 9.18787 14.3346 8.98329 14.189 8.68812L11.9997 4.25213Z" fill="#1F2937"/>
</svg>
