<svg width="24" height="24" viewBox="0 0 24 24" fill="none" xmlns="http://www.w3.org/2000/svg">
<path fill-rule="evenodd" clip-rule="evenodd" d="M20.125 1C20.6773 1 21.125 1.44772 21.125 2C21.125 2.39782 21.283 2.77936 21.5643 3.06066C21.8456 3.34196 22.2272 3.5 22.625 3.5C23.1773 3.5 23.625 3.94772 23.625 4.5C23.625 5.05228 23.1773 5.5 22.625 5.5C22.2272 5.5 21.8456 5.65804 21.5643 5.93934C21.283 6.22064 21.125 6.60218 21.125 7C21.125 7.55228 20.6773 8 20.125 8C19.5727 8 19.125 7.55228 19.125 7C19.125 6.60218 18.967 6.22064 18.6857 5.93934C18.4044 5.65804 18.0228 5.5 17.625 5.5C17.0727 5.5 16.625 5.05228 16.625 4.5C16.625 3.94772 17.0727 3.5 17.625 3.5C18.0228 3.5 18.4044 3.34196 18.6857 3.06066C18.967 2.77936 19.125 2.39782 19.125 2C19.125 1.44772 19.5727 1 20.125 1ZM20.125 4.44949C20.1167 4.45799 20.1083 4.46645 20.0999 4.47487C20.0915 4.4833 20.083 4.49167 20.0745 4.5C20.083 4.50833 20.0915 4.5167 20.0999 4.52513C20.1083 4.53355 20.1167 4.54201 20.125 4.55051C20.1333 4.54201 20.1417 4.53355 20.1501 4.52513C20.1585 4.5167 20.167 4.50833 20.1755 4.5C20.167 4.49167 20.1585 4.4833 20.1501 4.47487C20.1417 4.46645 20.1333 4.45799 20.125 4.44949ZM8.875 3.5C9.42729 3.5 9.875 3.94772 9.875 4.5C9.875 6.22391 10.5598 7.87721 11.7788 9.09619C12.9978 10.3152 14.6511 11 16.375 11C16.9273 11 17.375 11.4477 17.375 12C17.375 12.5523 16.9273 13 16.375 13C14.6511 13 12.9978 13.6848 11.7788 14.9038C10.5598 16.1228 9.875 17.7761 9.875 19.5C9.875 20.0523 9.42729 20.5 8.875 20.5C8.32272 20.5 7.875 20.0523 7.875 19.5C7.875 17.7761 7.19018 16.1228 5.97119 14.9038C4.75221 13.6848 3.09891 13 1.375 13C0.822715 13 0.375 12.5523 0.375 12C0.375 11.4477 0.822715 11 1.375 11C3.09891 11 4.75221 10.3152 5.97119 9.09619C7.19018 7.87721 7.875 6.22391 7.875 4.5C7.875 3.94772 8.32272 3.5 8.875 3.5ZM8.875 8.50003C8.48388 9.23343 7.98387 9.91194 7.38541 10.5104C6.78694 11.1089 6.10843 11.6089 5.37503 12C6.10843 12.3911 6.78694 12.8911 7.38541 13.4896C7.98387 14.0881 8.48388 14.7666 8.875 15.5C9.26612 14.7666 9.76613 14.0881 10.3646 13.4896C10.9631 12.8911 11.6416 12.3911 12.375 12C11.6416 11.6089 10.9631 11.1089 10.3646 10.5104C9.76613 9.91194 9.26612 9.23343 8.875 8.50003ZM20.125 16C20.6773 16 21.125 16.4477 21.125 17C21.125 17.3978 21.283 17.7794 21.5643 18.0607C21.8456 18.342 22.2272 18.5 22.625 18.5C23.1773 18.5 23.625 18.9477 23.625 19.5C23.625 20.0523 23.1773 20.5 22.625 20.5C22.2272 20.5 21.8456 20.658 21.5643 20.9393C21.283 21.2206 21.125 21.6022 21.125 22C21.125 22.5523 20.6773 23 20.125 23C19.5727 23 19.125 22.5523 19.125 22C19.125 21.6022 18.967 21.2206 18.6857 20.9393C18.4044 20.658 18.0228 20.5 17.625 20.5C17.0727 20.5 16.625 20.0523 16.625 19.5C16.625 18.9477 17.0727 18.5 17.625 18.5C18.0228 18.5 18.4044 18.342 18.6857 18.0607C18.967 17.7794 19.125 17.3978 19.125 17C19.125 16.4477 19.5727 16 20.125 16ZM20.125 19.4495C20.1167 19.458 20.1083 19.4665 20.0999 19.4749C20.0915 19.4833 20.083 19.4917 20.0745 19.5C20.083 19.5083 20.0915 19.5167 20.0999 19.5251C20.1083 19.5335 20.1167 19.542 20.125 19.5505C20.1333 19.542 20.1417 19.5335 20.1501 19.5251C20.1585 19.5167 20.167 19.5083 20.1755 19.5C20.167 19.4917 20.1585 19.4833 20.1501 19.4749C20.1417 19.4665 20.1333 19.458 20.125 19.4495Z" fill="#1F2937"/>
</svg>
