<svg xmlns="http://www.w3.org/2000/svg" width="24" height="24" viewBox="0 0 24 24" fill="none">
  <path d="M9.17608 2.40002L7.34582 7.34623L2.39961 9.1765L7.34582 11.0068L9.17608 15.953L11.0063 11.0068L15.9526 9.1765L11.0063 7.34623L9.17608 2.40002Z" fill="#1F2937"/>
  <path d="M17.6467 13.6941L16.0478 16.0483L13.6937 17.6471L16.0478 19.2459L17.6467 21.6L19.2455 19.2459L21.5996 17.6471L19.2455 16.0483L17.6467 13.6941Z" fill="#1F2937"/>
  <path d="M9.17608 2.40002L7.34582 7.34623L2.39961 9.1765L7.34582 11.0068L9.17608 15.953L11.0063 11.0068L15.9526 9.1765L11.0063 7.34623L9.17608 2.40002Z" stroke="#1F2937" stroke-width="0.666667" stroke-linejoin="round"/>
  <path d="M17.6467 13.6941L16.0478 16.0483L13.6937 17.6471L16.0478 19.2459L17.6467 21.6L19.2455 19.2459L21.5996 17.6471L19.2455 16.0483L17.6467 13.6941Z" stroke="#1F2937" stroke-width="0.666667" stroke-linejoin="round"/>
</svg>