<svg width="24" height="24" viewBox="0 0 24 24" fill="none" xmlns="http://www.w3.org/2000/svg">
<path fill-rule="evenodd" clip-rule="evenodd" d="M11.7329 3.04379C12.0801 2.94762 12.4522 3.04564 12.707 3.30039L20.707 11.3004C20.9617 11.5552 21.0598 11.9273 20.9636 12.2745C20.8674 12.6217 20.5919 12.8903 20.2424 12.9777L18.2424 13.4777C18.1914 13.4904 18.1394 13.4991 18.087 13.5037C17.0688 13.5928 16.0433 13.4578 15.0828 13.1082C14.1223 12.7586 13.2501 12.2029 12.5273 11.4801C11.8045 10.7573 11.2488 9.88504 10.8992 8.92454C10.5496 7.96404 10.4146 6.93863 10.5037 5.92037C10.5083 5.86796 10.517 5.816 10.5297 5.76497L11.0297 3.76497C11.1171 3.41545 11.3857 3.13995 11.7329 3.04379ZM12.5417 5.9635L12.4901 6.16986C12.4393 6.8724 12.5375 7.57805 12.7786 8.24048C13.0283 8.92655 13.4253 9.54961 13.9415 10.0659C14.4578 10.5821 15.0808 10.9791 15.7669 11.2288C16.4293 11.4699 17.135 11.5681 17.8375 11.5173L18.0439 11.4657L12.5417 5.9635Z" fill="#1F2937"/>
<path fill-rule="evenodd" clip-rule="evenodd" d="M12 5.00748C10.6155 5.00748 9.26216 5.41802 8.11101 6.18719C6.95987 6.95636 6.06266 8.04961 5.53285 9.32869C5.00303 10.6078 4.86441 12.0152 5.13451 13.3731C5.4046 14.731 6.07129 15.9783 7.05026 16.9572C8.02922 17.9362 9.2765 18.6029 10.6344 18.873C11.9922 19.1431 13.3997 19.0044 14.6788 18.4746C15.9579 17.9448 17.0511 17.0476 17.8203 15.8965C18.5895 14.7453 19 13.3919 19 12.0075C19 11.4552 19.4477 11.0075 20 11.0075C20.5523 11.0075 21 11.4552 21 12.0075C21 13.7875 20.4722 15.5276 19.4832 17.0076C18.4943 18.4876 17.0887 19.6412 15.4442 20.3224C13.7996 21.0036 11.99 21.1818 10.2442 20.8345C8.49836 20.4873 6.89472 19.6301 5.63604 18.3714C4.37737 17.1128 3.5202 15.5091 3.17294 13.7633C2.82567 12.0175 3.0039 10.2079 3.68509 8.56333C4.36628 6.91879 5.51983 5.51318 6.99987 4.52425C8.47991 3.53532 10.22 3.00748 12 3.00748C12.5523 3.00748 13 3.45519 13 4.00748C13 4.55976 12.5523 5.00748 12 5.00748Z" fill="#1F2937"/>
</svg>
