<svg width="24" height="24" viewBox="0 0 24 24" fill="none" xmlns="http://www.w3.org/2000/svg">
<path fill-rule="evenodd" clip-rule="evenodd" d="M4 12C4 11.4477 4.44772 11 5 11H19C19.5523 11 20 11.4477 20 12C20 12.5523 19.5523 13 19 13H5C4.44772 13 4 12.5523 4 12Z" fill="#1F2937"/>
<path fill-rule="evenodd" clip-rule="evenodd" d="M11.9923 3.99343C13.0023 3.97837 14.0175 4.13356 14.8776 4.4561C15.7107 4.7685 16.4989 5.27856 16.8889 6.03537C17.1419 6.52631 16.949 7.12937 16.4581 7.38235C15.9671 7.63533 15.3641 7.44243 15.1111 6.95149C15.0476 6.82822 14.7964 6.56165 14.1754 6.32876C13.5837 6.10688 12.8199 5.98059 12.0158 5.99331L12 5.99343H11C10.337 5.99343 9.70107 6.25682 9.23223 6.72566C8.76339 7.1945 8.5 7.83039 8.5 8.49343C8.5 9.15646 8.76339 9.79235 9.23223 10.2612C9.70107 10.73 10.337 10.9934 11 10.9934C11.5523 10.9934 12 11.4411 12 11.9934C12 12.5457 11.5523 12.9934 11 12.9934C9.80653 12.9934 8.66193 12.5193 7.81802 11.6754C6.97411 10.8315 6.5 9.6869 6.5 8.49343C6.5 7.29995 6.97411 6.15536 7.81802 5.31145C8.66193 4.46754 9.80653 3.99343 11 3.99343H11.9923Z" fill="#1F2937"/>
<path fill-rule="evenodd" clip-rule="evenodd" d="M16.643 15.0177C17.1896 15.0966 17.5688 15.6036 17.49 16.1503C17.3343 17.2292 16.7923 18.2149 15.9646 18.9243C15.1384 19.6326 14.0835 20.0173 12.9954 20.0075H11.5079C10.4979 20.0225 9.48271 19.8674 8.62258 19.5448C7.78952 19.2324 7.00126 18.7223 6.61129 17.9655C6.35831 17.4746 6.55122 16.8715 7.04216 16.6185C7.53309 16.3656 8.13616 16.5585 8.38913 17.0494C8.45266 17.1727 8.70379 17.4393 9.32484 17.6722C9.91651 17.894 10.6803 18.0203 11.4844 18.0076L11.5002 18.0075H13.0105C13.616 18.0137 14.2033 17.7999 14.6631 17.4058C15.1229 17.0117 15.424 16.4641 15.5105 15.8647C15.5893 15.318 16.0964 14.9388 16.643 15.0177Z" fill="#1F2937"/>
</svg>
