<svg width="24" height="24" viewBox="0 0 24 24" fill="none" xmlns="http://www.w3.org/2000/svg">
<path fill-rule="evenodd" clip-rule="evenodd" d="M5.0915 4.5747C5.25469 4.2199 5.60948 3.99255 6.00001 3.99255H17C17.5304 3.99255 18.0392 4.20327 18.4142 4.57834C18.7893 4.95341 19 5.46212 19 5.99255V7.99255C19 8.54484 18.5523 8.99255 18 8.99255C17.4477 8.99255 17 8.54484 17 7.99255L17 5.99255L8.17423 5.99255L12.7593 11.3418C13.0803 11.7163 13.0803 12.2689 12.7593 12.6433L8.17423 17.9926H17V15.9926C17 15.4403 17.4477 14.9926 18 14.9926C18.5523 14.9926 19 15.4403 19 15.9926V17.9926C19 18.523 18.7893 19.0317 18.4142 19.4068C18.0392 19.7818 17.5304 19.9926 17 19.9926H6.00001C5.60948 19.9926 5.25469 19.7652 5.0915 19.4104C4.92832 19.0556 4.9866 18.6383 5.24076 18.3418L10.6829 11.9926L5.24076 5.64335C4.9866 5.34683 4.92832 4.9295 5.0915 4.5747Z" fill="#1F2937"/>
</svg>
