<svg width="24" height="24" viewBox="0 0 24 24" fill="none" xmlns="http://www.w3.org/2000/svg">
<path fill-rule="evenodd" clip-rule="evenodd" d="M12 8.99252C10.3431 8.99252 9 10.3357 9 11.9925C9 13.6494 10.3431 14.9925 12 14.9925C13.6569 14.9925 15 13.6494 15 11.9925C15 10.3357 13.6569 8.99252 12 8.99252ZM7 11.9925C7 9.2311 9.23858 6.99252 12 6.99252C14.7614 6.99252 17 9.2311 17 11.9925C17 14.7539 14.7614 16.9925 12 16.9925C9.23858 16.9925 7 14.7539 7 11.9925Z" fill="#1F2937"/>
<path fill-rule="evenodd" clip-rule="evenodd" d="M12 2C12.5523 2 13 2.44772 13 3V4C13 4.55228 12.5523 5 12 5C11.4477 5 11 4.55228 11 4V3C11 2.44772 11.4477 2 12 2ZM4.89289 4.89289C5.28342 4.50237 5.91658 4.50237 6.30711 4.89289L7.00711 5.59289C7.39763 5.98342 7.39763 6.61658 7.00711 7.00711C6.61658 7.39763 5.98342 7.39763 5.59289 7.00711L4.89289 6.30711C4.50237 5.91658 4.50237 5.28342 4.89289 4.89289ZM19.1071 4.89289C19.4976 5.28342 19.4976 5.91658 19.1071 6.30711L18.4071 7.00711C18.0166 7.39763 17.3834 7.39763 16.9929 7.00711C16.6024 6.61658 16.6024 5.98342 16.9929 5.59289L17.6929 4.89289C18.0834 4.50237 18.7166 4.50237 19.1071 4.89289ZM2 12C2 11.4477 2.44772 11 3 11H4C4.55228 11 5 11.4477 5 12C5 12.5523 4.55228 13 4 13H3C2.44772 13 2 12.5523 2 12ZM19 12C19 11.4477 19.4477 11 20 11H21C21.5523 11 22 11.4477 22 12C22 12.5523 21.5523 13 21 13H20C19.4477 13 19 12.5523 19 12ZM7.00711 16.9929C7.39763 17.3834 7.39763 18.0166 7.00711 18.4071L6.30711 19.1071C5.91658 19.4976 5.28342 19.4976 4.89289 19.1071C4.50237 18.7166 4.50237 18.0834 4.89289 17.6929L5.59289 16.9929C5.98342 16.6024 6.61658 16.6024 7.00711 16.9929ZM16.9929 16.9929C17.3834 16.6024 18.0166 16.6024 18.4071 16.9929L19.1071 17.6929C19.4976 18.0834 19.4976 18.7166 19.1071 19.1071C18.7166 19.4976 18.0834 19.4976 17.6929 19.1071L16.9929 18.4071C16.6024 18.0166 16.6024 17.3834 16.9929 16.9929ZM12 19C12.5523 19 13 19.4477 13 20V21C13 21.5523 12.5523 22 12 22C11.4477 22 11 21.5523 11 21V20C11 19.4477 11.4477 19 12 19Z" fill="#1F2937"/>
</svg>
