<svg width="24" height="24" viewBox="0 0 24 24" fill="none" xmlns="http://www.w3.org/2000/svg">
<path fill-rule="evenodd" clip-rule="evenodd" d="M4.89289 9.90971C5.28342 9.51919 5.91658 9.51919 6.30711 9.90971L7.00711 10.6097C7.39763 11.0002 7.39763 11.6334 7.00711 12.0239C6.61658 12.4145 5.98342 12.4145 5.59289 12.0239L4.89289 11.3239C4.50237 10.9334 4.50237 10.3002 4.89289 9.90971ZM19.1071 9.90971C19.4976 10.3002 19.4976 10.9334 19.1071 11.3239L18.4071 12.0239C18.0166 12.4145 17.3834 12.4145 16.9929 12.0239C16.6024 11.6334 16.6024 11.0002 16.9929 10.6097L17.6929 9.90972C18.0834 9.51919 18.7166 9.51919 19.1071 9.90971ZM12 14.0168C11.2044 14.0168 10.4413 14.3329 9.87868 14.8955C9.31607 15.4581 9 16.2212 9 17.0168C9 17.5691 8.55228 18.0168 8 18.0168C7.44772 18.0168 7 17.5691 7 17.0168C7 15.6907 7.52678 14.419 8.46447 13.4813C9.40215 12.5436 10.6739 12.0168 12 12.0168C13.3261 12.0168 14.5979 12.5436 15.5355 13.4813C16.4732 14.419 17 15.6907 17 17.0168C17 17.5691 16.5523 18.0168 16 18.0168C15.4477 18.0168 15 17.5691 15 17.0168C15 16.2212 14.6839 15.4581 14.1213 14.8955C13.5587 14.3329 12.7956 14.0168 12 14.0168ZM2 17.0168C2 16.4645 2.44772 16.0168 3 16.0168H4C4.55228 16.0168 5 16.4645 5 17.0168C5 17.5691 4.55228 18.0168 4 18.0168H3C2.44772 18.0168 2 17.5691 2 17.0168ZM19 17.0168C19 16.4645 19.4477 16.0168 20 16.0168H21C21.5523 16.0168 22 16.4645 22 17.0168C22 17.5691 21.5523 18.0168 21 18.0168H20C19.4477 18.0168 19 17.5691 19 17.0168Z" fill="#1F2937"/>
<path fill-rule="evenodd" clip-rule="evenodd" d="M2 21C2 20.4477 2.44772 20 3 20H21C21.5523 20 22 20.4477 22 21C22 21.5523 21.5523 22 21 22H3C2.44772 22 2 21.5523 2 21Z" fill="#1F2937"/>
<path fill-rule="evenodd" clip-rule="evenodd" d="M12 2C12.5523 2 13 2.44772 13 3V6.58579L14.2929 5.29289C14.6834 4.90237 15.3166 4.90237 15.7071 5.29289C16.0976 5.68342 16.0976 6.31658 15.7071 6.70711L12.7071 9.70711C12.3166 10.0976 11.6834 10.0976 11.2929 9.70711L8.29289 6.70711C7.90237 6.31658 7.90237 5.68342 8.29289 5.29289C8.68342 4.90237 9.31658 4.90237 9.70711 5.29289L11 6.58579V3C11 2.44772 11.4477 2 12 2Z" fill="#1F2937"/>
</svg>
