<svg width="24" height="24" viewBox="0 0 24 24" fill="none" xmlns="http://www.w3.org/2000/svg">
<path fill-rule="evenodd" clip-rule="evenodd" d="M15.2929 2.29289C15.6834 1.90237 16.3166 1.90237 16.7071 2.29289L20.7071 6.29289C21.0976 6.68342 21.0976 7.31658 20.7071 7.70711L16.7071 11.7071C16.3166 12.0976 15.6834 12.0976 15.2929 11.7071C14.9024 11.3166 14.9024 10.6834 15.2929 10.2929L18.5858 7L15.2929 3.70711C14.9024 3.31658 14.9024 2.68342 15.2929 2.29289Z" fill="#1F2937"/>
<path fill-rule="evenodd" clip-rule="evenodd" d="M9 7.00748C9 6.45519 9.44772 6.00748 10 6.00748H20C20.5523 6.00748 21 6.45519 21 7.00748C21 7.55976 20.5523 8.00748 20 8.00748H10C9.44772 8.00748 9 7.55976 9 7.00748Z" fill="#1F2937"/>
<path fill-rule="evenodd" clip-rule="evenodd" d="M8.70711 12.3004C9.09763 12.6909 9.09763 13.3241 8.70711 13.7146L5.41421 17.0075L8.70711 20.3004C9.09763 20.6909 9.09763 21.3241 8.70711 21.7146C8.31658 22.1051 7.68342 22.1051 7.29289 21.7146L3.29289 17.7146C3.10536 17.527 3 17.2727 3 17.0075C3 16.7423 3.10536 16.4879 3.29289 16.3004L7.29289 12.3004C7.68342 11.9098 8.31658 11.9098 8.70711 12.3004Z" fill="#1F2937"/>
<path fill-rule="evenodd" clip-rule="evenodd" d="M3 16.9925C3 16.4402 3.44772 15.9925 4 15.9925H13C13.5523 15.9925 14 16.4402 14 16.9925C14 17.5448 13.5523 17.9925 13 17.9925H4C3.44772 17.9925 3 17.5448 3 16.9925Z" fill="#1F2937"/>
</svg>
