<svg width="24" height="24" viewBox="0 0 24 24" fill="none" xmlns="http://www.w3.org/2000/svg">
<path fill-rule="evenodd" clip-rule="evenodd" d="M14 4.00751C14 3.45522 14.4477 3.00751 15 3.00751H19C19.5523 3.00751 20 3.45522 20 4.00751V8.00751C20 8.55979 19.5523 9.00751 19 9.00751C18.4477 9.00751 18 8.55979 18 8.00751V5.00751H15C14.4477 5.00751 14 4.55979 14 4.00751Z" fill="#1F2937"/>
<path fill-rule="evenodd" clip-rule="evenodd" d="M19.6292 3.23023C20.0585 3.57773 20.1248 4.20742 19.7773 4.63668L15.5273 9.88668C15.1798 10.3159 14.5501 10.3822 14.1208 10.0347C13.6916 9.68723 13.6253 9.05754 13.9728 8.62828L18.2228 3.37828C18.5703 2.94902 19.2 2.88274 19.6292 3.23023Z" fill="#1F2937"/>
<path fill-rule="evenodd" clip-rule="evenodd" d="M9.70711 14.2929C10.0976 14.6834 10.0976 15.3166 9.70711 15.7071L5.70711 19.7071C5.31658 20.0976 4.68342 20.0976 4.29289 19.7071C3.90237 19.3166 3.90237 18.6834 4.29289 18.2929L8.29289 14.2929C8.68342 13.9024 9.31658 13.9024 9.70711 14.2929Z" fill="#1F2937"/>
<path fill-rule="evenodd" clip-rule="evenodd" d="M19 14C19.5523 14 20 14.4477 20 15V19C20 19.5523 19.5523 20 19 20H15C14.4477 20 14 19.5523 14 19C14 18.4477 14.4477 18 15 18H18V15C18 14.4477 18.4477 14 19 14Z" fill="#1F2937"/>
<path fill-rule="evenodd" clip-rule="evenodd" d="M4.29289 4.28539C4.68342 3.89486 5.31658 3.89486 5.70711 4.28539L19.7071 18.2854C20.0976 18.6759 20.0976 19.3091 19.7071 19.6996C19.3166 20.0901 18.6834 20.0901 18.2929 19.6996L4.29289 5.6996C3.90237 5.30908 3.90237 4.67591 4.29289 4.28539Z" fill="#1F2937"/>
</svg>
