<svg width="24" height="24" viewBox="0 0 24 24" fill="none" xmlns="http://www.w3.org/2000/svg">
<path fill-rule="evenodd" clip-rule="evenodd" d="M7 3.00751C7.26522 3.00751 7.51957 3.11286 7.70711 3.3004L11.7071 7.3004C12.0976 7.69093 12.0976 8.32409 11.7071 8.71461C11.3166 9.10514 10.6834 9.10514 10.2929 8.71461L7 5.42172L3.70711 8.71461C3.31658 9.10514 2.68342 9.10514 2.29289 8.71461C1.90237 8.32409 1.90237 7.69093 2.29289 7.3004L6.29289 3.3004C6.48043 3.11286 6.73478 3.00751 7 3.00751Z" fill="#1F2937"/>
<path fill-rule="evenodd" clip-rule="evenodd" d="M7 3.00751C7.55228 3.00751 8 3.45522 8 4.00751V13.0075C8 13.5598 7.55228 14.0075 7 14.0075C6.44772 14.0075 6 13.5598 6 13.0075V4.00751C6 3.45522 6.44772 3.00751 7 3.00751Z" fill="#1F2937"/>
<path fill-rule="evenodd" clip-rule="evenodd" d="M12.2929 15.3004C12.6834 14.9099 13.3166 14.9099 13.7071 15.3004L17 18.5933L20.2929 15.3004C20.6834 14.9099 21.3166 14.9099 21.7071 15.3004C22.0976 15.6909 22.0976 16.3241 21.7071 16.7146L17.7071 20.7146C17.3166 21.1051 16.6834 21.1051 16.2929 20.7146L12.2929 16.7146C11.9024 16.3241 11.9024 15.6909 12.2929 15.3004Z" fill="#1F2937"/>
<path fill-rule="evenodd" clip-rule="evenodd" d="M17 9.00751C17.5523 9.00751 18 9.45522 18 10.0075V20.0075C18 20.5598 17.5523 21.0075 17 21.0075C16.4477 21.0075 16 20.5598 16 20.0075V10.0075C16 9.45522 16.4477 9.00751 17 9.00751Z" fill="#1F2937"/>
</svg>
