<svg width="24" height="24" viewBox="0 0 24 24" fill="none" xmlns="http://www.w3.org/2000/svg">
<path fill-rule="evenodd" clip-rule="evenodd" d="M7 4C6.20435 4 5.44129 4.31607 4.87868 4.87868C4.31607 5.44129 4 6.20435 4 7V10.5858L12.6821 19.2679C12.7715 19.3415 12.8838 19.382 13 19.382C13.1162 19.382 13.2285 19.3415 13.3179 19.2679L19.2679 13.3179C19.3415 13.2285 19.382 13.1162 19.382 13C19.382 12.8838 19.3415 12.7715 19.2679 12.6821L10.5858 4H7ZM3.46447 3.46447C4.40215 2.52678 5.67392 2 7 2H11C11.2652 2 11.5196 2.10536 11.7071 2.29289L20.7071 11.2929C20.7202 11.306 20.733 11.3195 20.7454 11.3333C21.1553 11.7917 21.382 12.3851 21.382 13C21.382 13.6149 21.1553 14.2083 20.7454 14.6667C20.733 14.6805 20.7202 14.694 20.7071 14.7071L14.7071 20.7071C14.694 20.7202 14.6805 20.733 14.6667 20.7454C14.2083 21.1553 13.6149 21.382 13 21.382C12.3851 21.382 11.7917 21.1553 11.3333 20.7454C11.3195 20.733 11.306 20.7202 11.2929 20.7071L2.29289 11.7071C2.10536 11.5196 2 11.2652 2 11V7C2 5.67392 2.52678 4.40215 3.46447 3.46447Z" fill="#1F2937"/>
<path fill-rule="evenodd" clip-rule="evenodd" d="M9 8.00745C8.44772 8.00745 8 8.45516 8 9.00745C8 9.55973 8.44772 10.0074 9 10.0074C9.55228 10.0074 10 9.55973 10 9.00745C10 8.45516 9.55228 8.00745 9 8.00745ZM6 9.00745C6 7.35059 7.34315 6.00745 9 6.00745C10.6569 6.00745 12 7.35059 12 9.00745C12 10.6643 10.6569 12.0074 9 12.0074C7.34315 12.0074 6 10.6643 6 9.00745Z" fill="#1F2937"/>
</svg>
