<svg width="24" height="24" viewBox="0 0 24 24" fill="none" xmlns="http://www.w3.org/2000/svg">
<path fill-rule="evenodd" clip-rule="evenodd" d="M10 11.9925C10 10.8879 10.8954 9.99249 12 9.99249C13.1046 9.99249 14 10.8879 14 11.9925C14 13.0971 13.1046 13.9925 12 13.9925C10.8954 13.9925 10 13.0971 10 11.9925Z" fill="#1F2937"/>
<path fill-rule="evenodd" clip-rule="evenodd" d="M12 8.00751C9.79086 8.00751 8 9.79837 8 12.0075C8 14.2166 9.79086 16.0075 12 16.0075C14.2091 16.0075 16 14.2166 16 12.0075C16 9.79837 14.2091 8.00751 12 8.00751ZM6 12.0075C6 8.6938 8.68629 6.00751 12 6.00751C15.3137 6.00751 18 8.6938 18 12.0075C18 15.3212 15.3137 18.0075 12 18.0075C8.68629 18.0075 6 15.3212 6 12.0075Z" fill="#1F2937"/>
<path fill-rule="evenodd" clip-rule="evenodd" d="M12 4C7.58172 4 4 7.58172 4 12C4 16.4183 7.58172 20 12 20C16.4183 20 20 16.4183 20 12C20 7.58172 16.4183 4 12 4ZM2 12C2 6.47715 6.47715 2 12 2C17.5228 2 22 6.47715 22 12C22 17.5228 17.5228 22 12 22C6.47715 22 2 17.5228 2 12Z" fill="#1F2937"/>
</svg>
