<svg width="16" height="16" viewBox="0 0 16 16" fill="none" xmlns="http://www.w3.org/2000/svg">
<path fill-rule="evenodd" clip-rule="evenodd" d="M10.6329 7.85321C10.9453 8.121 10.9453 8.55517 10.6329 8.82296L4.23287 12.9372C4.00407 13.1333 3.65998 13.192 3.36104 13.0859C3.0621 12.9797 2.86719 12.7297 2.86719 12.4524L2.86719 4.22382C2.86719 3.94647 3.0621 3.69644 3.36104 3.5903C3.65998 3.48417 4.00407 3.54283 4.23287 3.73895L10.6329 7.85321ZM4.46719 5.87927L4.46719 10.7969L8.78719 8.33809L4.46719 5.87927Z" fill="#C2410C"/>
<path fill-rule="evenodd" clip-rule="evenodd" d="M11.6672 3.53809C12.109 3.53809 12.4672 3.77687 12.4672 4.07142V12.6047C12.4672 12.8993 12.109 13.138 11.6672 13.138C11.2254 13.138 10.8672 12.8993 10.8672 12.6047V4.07142C10.8672 3.77687 11.2254 3.53809 11.6672 3.53809Z" fill="#C2410C"/>
</svg>
