<svg width="24" height="24" viewBox="0 0 24 24" fill="none" xmlns="http://www.w3.org/2000/svg">
<path fill-rule="evenodd" clip-rule="evenodd" d="M15.7071 7.28539C16.0976 7.67591 16.0976 8.30908 15.7071 8.6996L9.70711 14.6996C9.31658 15.0901 8.68342 15.0901 8.29289 14.6996C7.90237 14.3091 7.90237 13.6759 8.29289 13.2854L14.2929 7.28539C14.6834 6.89486 15.3166 6.89486 15.7071 7.28539Z" fill="#1F2937"/>
<path d="M9.5 8.99249C9.77614 8.99249 10 8.76863 10 8.49249C10 8.21635 9.77614 7.99249 9.5 7.99249C9.22386 7.99249 9 8.21635 9 8.49249C9 8.76863 9.22386 8.99249 9.5 8.99249Z" fill="#1F2937"/>
<path fill-rule="evenodd" clip-rule="evenodd" d="M9.5 8.99249C9.77614 8.99249 10 8.76864 10 8.49249C10 8.21635 9.77614 7.99249 9.5 7.99249C9.22386 7.99249 9 8.21635 9 8.49249C9 8.76864 9.22386 8.99249 9.5 8.99249ZM8 8.49249C8 7.66407 8.67157 6.99249 9.5 6.99249C10.3284 6.99249 11 7.66406 11 8.49249C11 9.32092 10.3284 9.99249 9.5 9.99249C8.67157 9.99249 8 9.32092 8 8.49249Z" fill="#1F2937"/>
<path d="M14.5 14.0075C14.7761 14.0075 15 13.7836 15 13.5075C15 13.2314 14.7761 13.0075 14.5 13.0075C14.2239 13.0075 14 13.2314 14 13.5075C14 13.7836 14.2239 14.0075 14.5 14.0075Z" fill="#1F2937"/>
<path fill-rule="evenodd" clip-rule="evenodd" d="M14.5 14.0075C14.7761 14.0075 15 13.7837 15 13.5075C15 13.2314 14.7761 13.0075 14.5 13.0075C14.2239 13.0075 14 13.2314 14 13.5075C14 13.7837 14.2239 14.0075 14.5 14.0075ZM13 13.5075C13 12.6791 13.6716 12.0075 14.5 12.0075C15.3284 12.0075 16 12.6791 16 13.5075C16 14.3359 15.3284 15.0075 14.5 15.0075C13.6716 15.0075 13 14.3359 13 13.5075Z" fill="#1F2937"/>
<path fill-rule="evenodd" clip-rule="evenodd" d="M7 4C6.73478 4 6.48043 4.10536 6.29289 4.29289C6.10536 4.48043 6 4.73478 6 5V19.1315L7.4453 18.1679C7.84192 17.9035 8.37004 17.9558 8.70711 18.2929L10 19.5858L11.2929 18.2929C11.6834 17.9024 12.3166 17.9024 12.7071 18.2929L14 19.5858L15.2929 18.2929C15.63 17.9558 16.1581 17.9035 16.5547 18.1679L18 19.1315V5C18 4.73478 17.8946 4.48043 17.7071 4.29289C17.5196 4.10536 17.2652 4 17 4H7ZM4.87868 2.87868C5.44129 2.31607 6.20435 2 7 2H17C17.7956 2 18.5587 2.31607 19.1213 2.87868C19.6839 3.44129 20 4.20435 20 5V21C20 21.3688 19.797 21.7077 19.4719 21.8817C19.1467 22.0557 18.7522 22.0366 18.4453 21.8321L16.1274 20.2868L14.7071 21.7071C14.3166 22.0976 13.6834 22.0976 13.2929 21.7071L12 20.4142L10.7071 21.7071C10.3166 22.0976 9.68342 22.0976 9.29289 21.7071L7.87258 20.2868L5.5547 21.8321C5.24784 22.0366 4.8533 22.0557 4.52814 21.8817C4.20298 21.7077 4 21.3688 4 21V5C4 4.20435 4.31607 3.44129 4.87868 2.87868Z" fill="#1F2937"/>
</svg>
