<svg width="24" height="24" viewBox="0 0 24 24" fill="none" xmlns="http://www.w3.org/2000/svg">
<path fill-rule="evenodd" clip-rule="evenodd" d="M6 7C5.44772 7 5 7.44772 5 8C5 8.55228 5.44772 9 6 9C6.55228 9 7 8.55228 7 8C7 7.44772 6.55228 7 6 7ZM3 8C3 6.34315 4.34315 5 6 5C7.65685 5 9 6.34315 9 8C9 9.65685 7.65685 11 6 11C4.34315 11 3 9.65685 3 8Z" fill="#1F2937"/>
<path fill-rule="evenodd" clip-rule="evenodd" d="M12 12C12 11.4477 12.4477 11 13 11H18C18.5523 11 19 11.4477 19 12C19 12.5523 18.5523 13 18 13H13C12.4477 13 12 12.5523 12 12Z" fill="#1F2937"/>
<path fill-rule="evenodd" clip-rule="evenodd" d="M12.5858 5.58579C12.9609 5.21071 13.4696 5 14 5H20C20.5523 5 21 5.44772 21 6C21 6.55228 20.5523 7 20 7L14 7L14 18C14 18.5523 13.5523 19 13 19C12.4477 19 12 18.5523 12 18V7C12 6.46957 12.2107 5.96086 12.5858 5.58579Z" fill="#1F2937"/>
</svg>
