<svg width="24" height="24" viewBox="0 0 24 24" fill="none" xmlns="http://www.w3.org/2000/svg">
<path fill-rule="evenodd" clip-rule="evenodd" d="M6 7C5.44772 7 5 7.44772 5 8C5 8.55228 5.44772 9 6 9C6.55228 9 7 8.55228 7 8C7 7.44772 6.55228 7 6 7ZM3 8C3 6.34315 4.34315 5 6 5C7.65685 5 9 6.34315 9 8C9 9.65685 7.65685 11 6 11C4.34315 11 3 9.65685 3 8Z" fill="#1F2937"/>
<path fill-rule="evenodd" clip-rule="evenodd" d="M13.1716 6.17157C13.9217 5.42143 14.9391 5 16 5H17C18.0609 5 19.0783 5.42143 19.8284 6.17157C20.5786 6.92172 21 7.93913 21 9C21 9.55228 20.5523 10 20 10C19.4477 10 19 9.55228 19 9C19 8.46957 18.7893 7.96086 18.4142 7.58579C18.0391 7.21071 17.5304 7 17 7H16C15.4696 7 14.9609 7.21071 14.5858 7.58579C14.2107 7.96086 14 8.46957 14 9V15C14 15.5304 14.2107 16.0391 14.5858 16.4142C14.9609 16.7893 15.4696 17 16 17H17C17.5304 17 18.0391 16.7893 18.4142 16.4142C18.7893 16.0391 19 15.5304 19 15C19 14.4477 19.4477 14 20 14C20.5523 14 21 14.4477 21 15C21 16.0609 20.5786 17.0783 19.8284 17.8284C19.0783 18.5786 18.0609 19 17 19H16C14.9391 19 13.9217 18.5786 13.1716 17.8284C12.4214 17.0783 12 16.0609 12 15V9C12 7.93913 12.4214 6.92172 13.1716 6.17157Z" fill="#1F2937"/>
</svg>
