<svg width="24" height="24" viewBox="0 0 24 24" fill="none" xmlns="http://www.w3.org/2000/svg">
<path fill-rule="evenodd" clip-rule="evenodd" d="M3 5.00745C3 3.90288 3.89543 3.00745 5 3.00745H19C20.1046 3.00745 21 3.90288 21 5.00745V7.00745C21 8.11202 20.1046 9.00745 19 9.00745H5C3.89543 9.00745 3 8.11202 3 7.00745V5.00745ZM19 5.00745H5V7.00745H19V5.00745Z" fill="#1F2937"/>
<path fill-rule="evenodd" clip-rule="evenodd" d="M3 13C3 11.8954 3.89543 11 5 11H9C10.1046 11 11 11.8954 11 13V19C11 20.1046 10.1046 21 9 21H5C3.89543 21 3 20.1046 3 19V13ZM9 13H5V19H9V13Z" fill="#1F2937"/>
<path fill-rule="evenodd" clip-rule="evenodd" d="M13 12C13 11.4477 13.4477 11 14 11H20C20.5523 11 21 11.4477 21 12C21 12.5523 20.5523 13 20 13H14C13.4477 13 13 12.5523 13 12Z" fill="#1F2937"/>
<path fill-rule="evenodd" clip-rule="evenodd" d="M13 16.0074C13 15.4552 13.4477 15.0074 14 15.0074H20C20.5523 15.0074 21 15.4552 21 16.0074C21 16.5597 20.5523 17.0074 20 17.0074H14C13.4477 17.0074 13 16.5597 13 16.0074Z" fill="#1F2937"/>
<path fill-rule="evenodd" clip-rule="evenodd" d="M13 19.9926C13 19.4403 13.4477 18.9926 14 18.9926H20C20.5523 18.9926 21 19.4403 21 19.9926C21 20.5448 20.5523 20.9926 20 20.9926H14C13.4477 20.9926 13 20.5448 13 19.9926Z" fill="#1F2937"/>
</svg>
