<svg width="24" height="24" viewBox="0 0 24 24" fill="none" xmlns="http://www.w3.org/2000/svg">
<path fill-rule="evenodd" clip-rule="evenodd" d="M7.87868 2.87868C8.44129 2.31607 9.20435 2 10 2C10.7957 2 11.5587 2.31607 12.1213 2.87868C12.6839 3.44129 13 4.20435 13 5V12.9641C13.7142 13.4997 14.275 14.2192 14.6194 15.0507C15.0406 16.0676 15.1145 17.195 14.8296 18.2582C14.5448 19.3214 13.917 20.2608 13.0438 20.9309C12.1706 21.6009 11.1007 21.9641 10 21.9641C8.89933 21.9641 7.82942 21.6009 6.95619 20.9309C6.08297 20.2608 5.45525 19.3214 5.17037 18.2582C4.8855 17.195 4.9594 16.0676 5.3806 15.0507C5.725 14.2192 6.28585 13.4997 7 12.9641V5C7 4.20435 7.31607 3.44129 7.87868 2.87868ZM10 4C9.73479 4 9.48043 4.10536 9.2929 4.29289C9.10536 4.48043 9 4.73478 9 5V13.5C9 13.8573 8.8094 14.1874 8.5 14.366C7.92808 14.6962 7.48109 15.2059 7.22836 15.8161C6.97564 16.4262 6.9313 17.1027 7.10222 17.7406C7.27315 18.3785 7.64978 18.9421 8.17372 19.3442C8.69765 19.7462 9.3396 19.9641 10 19.9641C10.6604 19.9641 11.3024 19.7462 11.8263 19.3442C12.3502 18.9421 12.7269 18.3785 12.8978 17.7406C13.0687 17.1027 13.0244 16.4262 12.7716 15.8161C12.5189 15.2059 12.0719 14.6962 11.5 14.366C11.1906 14.1874 11 13.8573 11 13.5V5C11 4.73478 10.8946 4.48043 10.7071 4.29289C10.5196 4.10536 10.2652 4 10 4Z" fill="#1F2937"/>
<path fill-rule="evenodd" clip-rule="evenodd" d="M7 9C7 8.44772 7.44772 8 8 8H12C12.5523 8 13 8.44772 13 9C13 9.55228 12.5523 10 12 10H8C7.44772 10 7 9.55228 7 9Z" fill="#1F2937"/>
<path fill-rule="evenodd" clip-rule="evenodd" d="M15 9C15 8.44772 15.4477 8 16 8H22C22.5523 8 23 8.44772 23 9C23 9.55228 22.5523 10 22 10H16C15.4477 10 15 9.55228 15 9Z" fill="#1F2937"/>
<path fill-rule="evenodd" clip-rule="evenodd" d="M19 5C19.5523 5 20 5.44772 20 6V12C20 12.5523 19.5523 13 19 13C18.4477 13 18 12.5523 18 12V6C18 5.44772 18.4477 5 19 5Z" fill="#1F2937"/>
</svg>
