<svg width="24" height="24" viewBox="0 0 24 24" fill="none" xmlns="http://www.w3.org/2000/svg">
<path fill-rule="evenodd" clip-rule="evenodd" d="M9.87868 2.87868C10.4413 2.31607 11.2044 2 12 2C12.7957 2 13.5587 2.31607 14.1213 2.87868C14.6839 3.44129 15 4.20435 15 5V12.9641C15.7141 13.4997 16.275 14.2192 16.6194 15.0507C17.0406 16.0676 17.1145 17.195 16.8296 18.2582C16.5448 19.3214 15.917 20.2608 15.0438 20.9309C14.1706 21.6009 13.1007 21.9641 12 21.9641C10.8993 21.9641 9.82942 21.6009 8.9562 20.9309C8.08298 20.2608 7.45525 19.3214 7.17037 18.2582C6.8855 17.195 6.9594 16.0676 7.3806 15.0507C7.725 14.2192 8.28585 13.4997 9 12.9641V5C9 4.20435 9.31607 3.44129 9.87868 2.87868ZM12 4C11.7348 4 11.4804 4.10536 11.2929 4.29289C11.1054 4.48043 11 4.73478 11 5V13.5C11 13.8573 10.8094 14.1874 10.5 14.366C9.92808 14.6962 9.48109 15.2059 9.22836 15.8161C8.97564 16.4262 8.9313 17.1027 9.10222 17.7406C9.27315 18.3785 9.64979 18.9421 10.1737 19.3442C10.6977 19.7462 11.3396 19.9641 12 19.9641C12.6604 19.9641 13.3024 19.7462 13.8263 19.3442C14.3502 18.9421 14.7269 18.3785 14.8978 17.7406C15.0687 17.1027 15.0244 16.4262 14.7716 15.8161C14.5189 15.2059 14.0719 14.6962 13.5 14.366C13.1906 14.1874 13 13.8573 13 13.5V5C13 4.73478 12.8946 4.48043 12.7071 4.29289C12.5196 4.10536 12.2652 4 12 4Z" fill="#1F2937"/>
<path fill-rule="evenodd" clip-rule="evenodd" d="M9 9C9 8.44772 9.44772 8 10 8H14C14.5523 8 15 8.44772 15 9C15 9.55228 14.5523 10 14 10H10C9.44772 10 9 9.55228 9 9Z" fill="#1F2937"/>
</svg>
