<svg width="24" height="24" viewBox="0 0 24 24" fill="none" xmlns="http://www.w3.org/2000/svg">
<path fill-rule="evenodd" clip-rule="evenodd" d="M12 4C7.58172 4 4 7.58172 4 12C4 16.4183 7.58172 20 12 20C16.4183 20 20 16.4183 20 12C20 7.58172 16.4183 4 12 4ZM2 12C2 6.47715 6.47715 2 12 2C17.5228 2 22 6.47715 22 12C22 17.5228 17.5228 22 12 22C6.47715 22 2 17.5228 2 12Z" fill="#1F2937"/>
<path fill-rule="evenodd" clip-rule="evenodd" d="M5.25557 4.64073C5.62432 4.22959 6.25655 4.19522 6.66769 4.56398C7.71339 5.50185 8.54977 6.64951 9.12235 7.93218C9.69492 9.21485 9.99085 10.6038 9.99085 12.0084C9.99085 13.4131 9.69492 14.802 9.12235 16.0847C8.54977 17.3674 7.71339 18.515 6.66769 19.4529C6.25655 19.8216 5.62432 19.7873 5.25557 19.3761C4.88681 18.965 4.92118 18.3328 5.33232 17.964C6.16888 17.2137 6.83798 16.2956 7.29605 15.2694C7.75411 14.2433 7.99085 13.1322 7.99085 12.0084C7.99085 10.8847 7.75411 9.77357 7.29605 8.74743C6.83798 7.72129 6.16888 6.80316 5.33232 6.05286C4.92118 5.68411 4.88681 5.05188 5.25557 4.64073Z" fill="#1F2937"/>
<path fill-rule="evenodd" clip-rule="evenodd" d="M18.7444 19.3593C18.3757 19.7704 17.7435 19.8048 17.3323 19.436C16.2866 18.4982 15.4502 17.3505 14.8777 16.0678C14.3051 14.7852 14.0092 13.3962 14.0092 11.9916C14.0092 10.5869 14.3051 9.19801 14.8777 7.91533C15.4502 6.63266 16.2866 5.48501 17.3323 4.54714C17.7435 4.17838 18.3757 4.21275 18.7444 4.6239C19.1132 5.03504 19.0788 5.66727 18.6677 6.03602C17.8311 6.78632 17.162 7.70445 16.704 8.73058C16.2459 9.75672 16.0092 10.8678 16.0092 11.9916C16.0092 13.1153 16.2459 14.2264 16.704 15.2526C17.162 16.2787 17.8311 17.1968 18.6677 17.9471C19.0788 18.3159 19.1132 18.9481 18.7444 19.3593Z" fill="#1F2937"/>
</svg>
