<svg width="24" height="24" viewBox="0 0 24 24" fill="none" xmlns="http://www.w3.org/2000/svg">
<path fill-rule="evenodd" clip-rule="evenodd" d="M4.29289 6.30034C4.68342 5.90982 5.31658 5.90982 5.70711 6.30034L10.7071 11.3003C11.0976 11.6909 11.0976 12.324 10.7071 12.7146L5.70711 17.7146C5.31658 18.1051 4.68342 18.1051 4.29289 17.7146C3.90237 17.324 3.90237 16.6909 4.29289 16.3003L8.58579 12.0074L4.29289 7.71455C3.90237 7.32403 3.90237 6.69086 4.29289 6.30034Z" fill="#1F2937"/>
<path fill-rule="evenodd" clip-rule="evenodd" d="M11 19.0074C11 18.4552 11.4477 18.0074 12 18.0074H19C19.5523 18.0074 20 18.4552 20 19.0074C20 19.5597 19.5523 20.0074 19 20.0074H12C11.4477 20.0074 11 19.5597 11 19.0074Z" fill="#1F2937"/>
</svg>
