<svg width="24" height="24" viewBox="0 0 24 24" fill="none" xmlns="http://www.w3.org/2000/svg">
<path fill-rule="evenodd" clip-rule="evenodd" d="M7.29289 8.29289C7.68342 7.90237 8.31658 7.90237 8.70711 8.29289L11.7071 11.2929C12.0976 11.6834 12.0976 12.3166 11.7071 12.7071L8.70711 15.7071C8.31658 16.0976 7.68342 16.0976 7.29289 15.7071C6.90237 15.3166 6.90237 14.6834 7.29289 14.2929L9.58579 12L7.29289 9.70711C6.90237 9.31658 6.90237 8.68342 7.29289 8.29289Z" fill="#1F2937"/>
<path fill-rule="evenodd" clip-rule="evenodd" d="M12 15C12 14.4477 12.4477 14 13 14H16C16.5523 14 17 14.4477 17 15C17 15.5523 16.5523 16 16 16H13C12.4477 16 12 15.5523 12 15Z" fill="#1F2937"/>
<path fill-rule="evenodd" clip-rule="evenodd" d="M5 5.00745C4.44772 5.00745 4 5.45516 4 6.00745V18.0074C4 18.5597 4.44772 19.0074 5 19.0074H19C19.5523 19.0074 20 18.5597 20 18.0074V6.00745C20 5.45516 19.5523 5.00745 19 5.00745H5ZM2 6.00745C2 4.35059 3.34315 3.00745 5 3.00745H19C20.6569 3.00745 22 4.35059 22 6.00745V18.0074C22 19.6643 20.6569 21.0074 19 21.0074H5C3.34315 21.0074 2 19.6643 2 18.0074V6.00745Z" fill="#1F2937"/>
</svg>
