<svg width="24" height="24" viewBox="0 0 24 24" fill="none" xmlns="http://www.w3.org/2000/svg">
<path fill-rule="evenodd" clip-rule="evenodd" d="M3 6C3 5.44772 3.44772 5 4 5H20C20.5523 5 21 5.44772 21 6C21 6.55228 20.5523 7 20 7H4C3.44772 7 3 6.55228 3 6Z" fill="#1F2937"/>
<path fill-rule="evenodd" clip-rule="evenodd" d="M3 18C3 17.4477 3.44772 17 4 17H9C9.55228 17 10 17.4477 10 18C10 18.5523 9.55228 19 9 19H4C3.44772 19 3 18.5523 3 18Z" fill="#1F2937"/>
<path fill-rule="evenodd" clip-rule="evenodd" d="M3 12C3 11.4477 3.44772 11 4 11H17C18.0609 11 19.0783 11.4214 19.8284 12.1716C20.5786 12.9217 21 13.9391 21 15C21 16.0609 20.5786 17.0783 19.8284 17.8284C19.0783 18.5786 18.0609 19 17 19H15.4142L15.7071 19.2929C16.0976 19.6834 16.0976 20.3166 15.7071 20.7071C15.3166 21.0976 14.6834 21.0976 14.2929 20.7071L12.2929 18.7071C11.9024 18.3166 11.9024 17.6834 12.2929 17.2929L14.2929 15.2929C14.6834 14.9024 15.3166 14.9024 15.7071 15.2929C16.0976 15.6834 16.0976 16.3166 15.7071 16.7071L15.4142 17H17C17.5304 17 18.0391 16.7893 18.4142 16.4142C18.7893 16.0391 19 15.5304 19 15C19 14.4696 18.7893 13.9609 18.4142 13.5858C18.0391 13.2107 17.5304 13 17 13H4C3.44772 13 3 12.5523 3 12Z" fill="#1F2937"/>
</svg>
