<svg width="24" height="24" viewBox="0 0 24 24" fill="none" xmlns="http://www.w3.org/2000/svg">
<path fill-rule="evenodd" clip-rule="evenodd" d="M15 3.99255C15.5523 3.99255 16 4.44027 16 4.99255V6.99255C16 7.54484 15.5523 7.99255 15 7.99255C14.4477 7.99255 14 7.54484 14 6.99255V4.99255C14 4.44027 14.4477 3.99255 15 3.99255Z" fill="#1F2937"/>
<path fill-rule="evenodd" clip-rule="evenodd" d="M15 9.99255C15.5523 9.99255 16 10.4403 16 10.9926V12.9926C16 13.5448 15.5523 13.9926 15 13.9926C14.4477 13.9926 14 13.5448 14 12.9926V10.9926C14 10.4403 14.4477 9.99255 15 9.99255Z" fill="#1F2937"/>
<path fill-rule="evenodd" clip-rule="evenodd" d="M15 15.9926C15.5523 15.9926 16 16.4403 16 16.9926V18.9926C16 19.5448 15.5523 19.9926 15 19.9926C14.4477 19.9926 14 19.5448 14 18.9926V16.9926C14 16.4403 14.4477 15.9926 15 15.9926Z" fill="#1F2937"/>
<path fill-rule="evenodd" clip-rule="evenodd" d="M5 5.99255C4.73478 5.99255 4.48043 6.09791 4.29289 6.28545C4.10536 6.47298 4 6.72734 4 6.99255V9.16412C4.4179 9.31188 4.80192 9.55183 5.12132 9.87123C5.68393 10.4338 6 11.1969 6 11.9926C6 12.7882 5.68393 13.5513 5.12132 14.1139C4.80192 14.4333 4.4179 14.6732 4 14.821V16.9926C4 17.2578 4.10536 17.5121 4.29289 17.6997C4.48043 17.8872 4.73478 17.9926 5 17.9926H19C19.2652 17.9926 19.5196 17.8872 19.7071 17.6997C19.8946 17.5121 20 17.2578 20 16.9926V14.821C19.5821 14.6732 19.1981 14.4333 18.8787 14.1139C18.3161 13.5513 18 12.7882 18 11.9926C18 11.1969 18.3161 10.4338 18.8787 9.87123C19.1981 9.55183 19.5821 9.31188 20 9.16412V6.99255C20 6.72734 19.8946 6.47298 19.7071 6.28545C19.5196 6.09791 19.2652 5.99255 19 5.99255H5ZM2.87868 4.87123C3.44129 4.30862 4.20435 3.99255 5 3.99255H19C19.7957 3.99255 20.5587 4.30862 21.1213 4.87123C21.6839 5.43384 22 6.1969 22 6.99255V9.99255C22 10.5448 21.5523 10.9926 21 10.9926C20.7348 10.9926 20.4804 11.0979 20.2929 11.2854C20.1054 11.473 20 11.7273 20 11.9926C20 12.2578 20.1054 12.5121 20.2929 12.6997C20.4804 12.8872 20.7348 12.9926 21 12.9926C21.5523 12.9926 22 13.4403 22 13.9926V16.9926C22 17.7882 21.6839 18.5513 21.1213 19.1139C20.5587 19.6765 19.7957 19.9926 19 19.9926H5C4.20435 19.9926 3.44129 19.6765 2.87868 19.1139C2.31607 18.5513 2 17.7882 2 16.9926V13.9926C2 13.4403 2.44772 12.9926 3 12.9926C3.26522 12.9926 3.51957 12.8872 3.70711 12.6997C3.89464 12.5121 4 12.2578 4 11.9926C4 11.7273 3.89464 11.473 3.70711 11.2854C3.51957 11.0979 3.26522 10.9926 3 10.9926C2.44772 10.9926 2 10.5448 2 9.99255V6.99255C2 6.1969 2.31607 5.43384 2.87868 4.87123Z" fill="#1F2937"/>
</svg>
