<svg width="24" height="24" viewBox="0 0 24 24" fill="none" xmlns="http://www.w3.org/2000/svg">
<path fill-rule="evenodd" clip-rule="evenodd" d="M5 16C4.44772 16 4 16.4477 4 17C4 17.5523 4.44772 18 5 18C5.55228 18 6 17.5523 6 17C6 16.4477 5.55228 16 5 16ZM2 17C2 15.3431 3.34315 14 5 14C6.65685 14 8 15.3431 8 17C8 18.6569 6.65685 20 5 20C3.34315 20 2 18.6569 2 17Z" fill="#1F2937"/>
<path fill-rule="evenodd" clip-rule="evenodd" d="M17 16C16.4477 16 16 16.4477 16 17C16 17.5523 16.4477 18 17 18C17.5523 18 18 17.5523 18 17C18 16.4477 17.5523 16 17 16ZM14 17C14 15.3431 15.3431 14 17 14C18.6569 14 20 15.3431 20 17C20 18.6569 18.6569 20 17 20C15.3431 20 14 18.6569 14 17Z" fill="#1F2937"/>
<path fill-rule="evenodd" clip-rule="evenodd" d="M14.2223 4.36388C14.4122 4.12903 14.698 3.99255 15 3.99255H16C17.7207 3.99255 19.2698 4.95028 20.3493 6.46157C21.4257 7.96862 22 9.96017 22 11.9926V17.9926C22 18.5448 21.5523 18.9926 21 18.9926H19C18.4477 18.9926 18 18.5448 18 17.9926C18 17.4403 18.4477 16.9926 19 16.9926H20V12.9926H16.5C16.0285 12.9926 15.621 12.6632 15.5222 12.2021L14.0222 5.20208C13.9589 4.90679 14.0325 4.59873 14.2223 4.36388ZM19.9429 10.9926C19.7938 9.69752 19.3597 8.51705 18.7218 7.62404C17.9938 6.6048 17.0996 6.08507 16.2394 6.00388L17.3084 10.9926H19.9429ZM6 17.9926C6 17.4403 6.44772 16.9926 7 16.9926H15C15.5523 16.9926 16 17.4403 16 17.9926C16 18.5448 15.5523 18.9926 15 18.9926H7C6.44772 18.9926 6 18.5448 6 17.9926Z" fill="#1F2937"/>
<path fill-rule="evenodd" clip-rule="evenodd" d="M11 4.99255C11 4.44027 11.4477 3.99255 12 3.99255H15C15.5523 3.99255 16 4.44027 16 4.99255C16 5.54484 15.5523 5.99255 15 5.99255H13V17.9926C13 18.5448 12.5523 18.9926 12 18.9926C11.4477 18.9926 11 18.5448 11 17.9926V4.99255Z" fill="#1F2937"/>
<path fill-rule="evenodd" clip-rule="evenodd" d="M2 12C2 11.4477 2.44772 11 3 11H12C12.5523 11 13 11.4477 13 12C13 12.5523 12.5523 13 12 13H4V17C4 17.5523 3.55228 18 3 18C2.44772 18 2 17.5523 2 17V12Z" fill="#1F2937"/>
</svg>
