<svg width="24" height="24" viewBox="0 0 24 24" fill="none" xmlns="http://www.w3.org/2000/svg">
<path fill-rule="evenodd" clip-rule="evenodd" d="M16 11.0074C15.4477 11.0074 15 11.4552 15 12.0074C15 12.5597 15.4477 13.0074 16 13.0074C16.5523 13.0074 17 12.5597 17 12.0074C17 11.4552 16.5523 11.0074 16 11.0074ZM13 12.0074C13 10.3506 14.3431 9.00745 16 9.00745C17.6569 9.00745 19 10.3506 19 12.0074C19 13.6643 17.6569 15.0074 16 15.0074C14.3431 15.0074 13 13.6643 13 12.0074Z" fill="#1F2937"/>
<path fill-rule="evenodd" clip-rule="evenodd" d="M8 7C5.23858 7 3 9.23858 3 12C3 14.7614 5.23858 17 8 17H16C18.7614 17 21 14.7614 21 12C21 9.23858 18.7614 7 16 7H8ZM1 12C1 8.13401 4.13401 5 8 5H16C19.866 5 23 8.13401 23 12C23 15.866 19.866 19 16 19H8C4.13401 19 1 15.866 1 12Z" fill="#1F2937"/>
</svg>
