<svg width="24" height="24" viewBox="0 0 24 24" fill="none" xmlns="http://www.w3.org/2000/svg">
<path fill-rule="evenodd" clip-rule="evenodd" d="M8 11.0074C7.44771 11.0074 7 11.4552 7 12.0074C7 12.5597 7.44771 13.0074 8 13.0074C8.55228 13.0074 9 12.5597 9 12.0074C9 11.4552 8.55228 11.0074 8 11.0074ZM5 12.0074C5 10.3506 6.34315 9.00745 8 9.00745C9.65685 9.00745 11 10.3506 11 12.0074C11 13.6643 9.65685 15.0074 8 15.0074C6.34315 15.0074 5 13.6643 5 12.0074Z" fill="#1F2937"/>
<path fill-rule="evenodd" clip-rule="evenodd" d="M8 7C5.23858 7 3 9.23858 3 12C3 14.7614 5.23858 17 8 17H16C18.7614 17 21 14.7614 21 12C21 9.23858 18.7614 7 16 7H8ZM1 12C1 8.13401 4.13401 5 8 5H16C19.866 5 23 8.13401 23 12C23 15.866 19.866 19 16 19H8C4.13401 19 1 15.866 1 12Z" fill="#1F2937"/>
</svg>
