<svg width="24" height="24" viewBox="0 0 24 24" fill="none" xmlns="http://www.w3.org/2000/svg">
<path fill-rule="evenodd" clip-rule="evenodd" d="M8.37853 3.957L10.707 6.28542C10.8945 6.47296 10.9999 6.72731 10.9999 6.99253V9.99253C10.9999 10.5448 10.5521 10.9925 9.99986 10.9925H6.99986C6.73464 10.9925 6.48028 10.8872 6.29275 10.6996L3.96432 8.37121C3.89111 8.88372 3.89749 9.40751 3.98608 9.92383C4.16092 10.9429 4.64741 11.8827 5.37853 12.6139C6.10966 13.345 7.04948 13.8315 8.06856 14.0063C9.08764 14.1812 10.1359 14.0358 11.0689 13.5902C11.4513 13.4075 11.9073 13.4858 12.207 13.7854L18.207 19.7854C18.4172 19.9957 18.7025 20.1138 18.9999 20.1138C19.2972 20.1138 19.5825 19.9957 19.7927 19.7854C20.003 19.5751 20.1212 19.2899 20.1212 18.9925C20.1212 18.6951 20.003 18.4099 19.7927 18.1996L13.7927 12.1996C13.4931 11.9 13.4149 11.444 13.5975 11.0616C14.0431 10.1285 14.1885 9.08032 14.0136 8.06123C13.8388 7.04215 13.3523 6.10234 12.6212 5.37121C11.89 4.64008 10.9502 4.1536 9.93115 3.97875C9.41483 3.89017 8.89104 3.88378 8.37853 3.957ZM6.06889 2.59016C7.37513 1.96631 8.84264 1.76277 10.2694 2.00755C11.6961 2.25234 13.0118 2.93342 14.0354 3.957C15.059 4.98058 15.74 6.29632 15.9848 7.72303C16.1888 8.91185 16.0815 10.129 15.6791 11.2576L21.207 16.7854C21.7923 17.3708 22.1212 18.1647 22.1212 18.9925C22.1212 19.8204 21.7923 20.6143 21.207 21.1996C20.6216 21.785 19.8277 22.1138 18.9999 22.1138C18.172 22.1138 17.3781 21.785 16.7927 21.1996L11.2649 15.6718C10.1363 16.0742 8.91918 16.1815 7.73035 15.9775C6.30364 15.7327 4.9879 15.0516 3.96432 14.0281C2.94074 13.0045 2.25966 11.6887 2.01488 10.262C1.77009 8.83532 1.97364 7.3678 2.59749 6.06157C2.73739 5.76863 3.01079 5.56183 3.33075 5.50693C3.65071 5.45204 3.97741 5.55587 4.20696 5.78542L7.41407 8.99253H8.99986V7.40674L5.79275 4.19964C5.5632 3.97009 5.45936 3.64339 5.51426 3.32343C5.56915 3.00347 5.77595 2.73007 6.06889 2.59016Z" fill="#1F2937"/>
</svg>
