<svg width="24" height="24" viewBox="0 0 24 24" fill="none" xmlns="http://www.w3.org/2000/svg">
<path fill-rule="evenodd" clip-rule="evenodd" d="M15.2929 3.28538C16.0109 2.56741 16.9846 2.16406 18 2.16406C19.0154 2.16406 19.9891 2.56741 20.7071 3.28538C21.4251 4.00335 21.8284 4.97713 21.8284 5.99249C21.8284 7.00785 21.4251 7.98163 20.7071 8.6996L7.70711 21.6996C7.51957 21.8871 7.26522 21.9925 7 21.9925H3C2.44772 21.9925 2 21.5448 2 20.9925V16.9925C2 16.7273 2.10536 16.4729 2.29289 16.2854L15.2929 3.28538ZM18 4.16406C17.5151 4.16406 17.05 4.3567 16.7071 4.6996L4 17.4067V19.9925H6.58579L19.2929 7.28538C19.6358 6.94249 19.8284 6.47742 19.8284 5.99249C19.8284 5.50756 19.6358 5.04249 19.2929 4.6996C18.95 4.3567 18.4849 4.16406 18 4.16406Z" fill="#1F2937"/>
<path fill-rule="evenodd" clip-rule="evenodd" d="M13.7929 4.8004C14.1834 4.40988 14.8166 4.40988 15.2071 4.8004L19.2071 8.8004C19.5976 9.19093 19.5976 9.82409 19.2071 10.2146C18.8166 10.6051 18.1834 10.6051 17.7929 10.2146L13.7929 6.21461C13.4024 5.82409 13.4024 5.19092 13.7929 4.8004Z" fill="#1F2937"/>
<path fill-rule="evenodd" clip-rule="evenodd" d="M6.29289 2.29289C6.68342 1.90237 7.31658 1.90237 7.70711 2.29289L12.7071 7.29289C13.0976 7.68342 13.0976 8.31658 12.7071 8.70711C12.3166 9.09763 11.6834 9.09763 11.2929 8.70711L7 4.41421L4.41421 7L8.70711 11.2929C9.09763 11.6834 9.09763 12.3166 8.70711 12.7071C8.31658 13.0976 7.68342 13.0976 7.29289 12.7071L2.29289 7.70711C1.90237 7.31658 1.90237 6.68342 2.29289 6.29289L6.29289 2.29289Z" fill="#1F2937"/>
<path fill-rule="evenodd" clip-rule="evenodd" d="M7.70711 7.28539C8.09763 7.67591 8.09763 8.30908 7.70711 8.6996L6.20711 10.1996C5.81658 10.5901 5.18342 10.5901 4.79289 10.1996C4.40237 9.80907 4.40237 9.17591 4.79289 8.78539L6.29289 7.28539C6.68342 6.89486 7.31658 6.89486 7.70711 7.28539Z" fill="#1F2937"/>
<path fill-rule="evenodd" clip-rule="evenodd" d="M15.2929 11.2929C15.6834 10.9024 16.3166 10.9024 16.7071 11.2929L21.7071 16.2929C22.0976 16.6834 22.0976 17.3166 21.7071 17.7071L17.7071 21.7071C17.3166 22.0976 16.6834 22.0976 16.2929 21.7071L11.2929 16.7071C10.9024 16.3166 10.9024 15.6834 11.2929 15.2929C11.6834 14.9024 12.3166 14.9024 12.7071 15.2929L17 19.5858L19.5858 17L15.2929 12.7071C14.9024 12.3166 14.9024 11.6834 15.2929 11.2929Z" fill="#1F2937"/>
<path fill-rule="evenodd" clip-rule="evenodd" d="M16.7071 16.2854C17.0976 16.6759 17.0976 17.3091 16.7071 17.6996L15.2071 19.1996C14.8166 19.5901 14.1834 19.5901 13.7929 19.1996C13.4024 18.8091 13.4024 18.1759 13.7929 17.7854L15.2929 16.2854C15.6834 15.8949 16.3166 15.8949 16.7071 16.2854Z" fill="#1F2937"/>
</svg>
