<svg width="24" height="24" viewBox="0 0 24 24" fill="none" xmlns="http://www.w3.org/2000/svg">
<path fill-rule="evenodd" clip-rule="evenodd" d="M7 11.9925C5.34315 11.9925 4 13.3356 4 14.9925C4 16.6493 5.34315 17.9925 7 17.9925C8.65685 17.9925 10 16.6493 10 14.9925C10 13.3356 8.65685 11.9925 7 11.9925ZM2 14.9925C2 12.2311 4.23858 9.99249 7 9.99249C9.76142 9.99249 12 12.2311 12 14.9925C12 17.7539 9.76142 19.9925 7 19.9925C4.23858 19.9925 2 17.7539 2 14.9925Z" fill="#1F2937"/>
<path fill-rule="evenodd" clip-rule="evenodd" d="M7 14C7.55228 14 8 14.4477 8 15V15.01C8 15.5623 7.55228 16.01 7 16.01C6.44772 16.01 6 15.5623 6 15.01V15C6 14.4477 6.44772 14 7 14Z" fill="#1F2937"/>
<path fill-rule="evenodd" clip-rule="evenodd" d="M19 16C18.4477 16 18 16.4477 18 17C18 17.5523 18.4477 18 19 18C19.5523 18 20 17.5523 20 17C20 16.4477 19.5523 16 19 16ZM16 17C16 15.3431 17.3431 14 19 14C20.6569 14 22 15.3431 22 17C22 18.6569 20.6569 20 19 20C17.3431 20 16 18.6569 16 17Z" fill="#1F2937"/>
<path fill-rule="evenodd" clip-rule="evenodd" d="M9.5 16.9925C9.5 16.4402 9.94772 15.9925 10.5 15.9925H17C17.5523 15.9925 18 16.4402 18 16.9925C18 17.5448 17.5523 17.9925 17 17.9925H10.5C9.94772 17.9925 9.5 17.5448 9.5 16.9925Z" fill="#1F2937"/>
<path fill-rule="evenodd" clip-rule="evenodd" d="M4 4.99249C4 4.44021 4.44772 3.99249 5 3.99249H11C11.4089 3.99249 11.7766 4.24144 11.9285 4.6211L13.677 8.99249H19C19.5304 8.99249 20.0391 9.20321 20.4142 9.57828C20.7893 9.95335 21 10.4621 21 10.9925V15.1925C21 15.7448 20.5523 16.1925 20 16.1925C19.4477 16.1925 19 15.7448 19 15.1925V10.9925H13C12.5911 10.9925 12.2234 10.7435 12.0715 10.3639L10.323 5.99249H6V11.4925C6 12.0448 5.55228 12.4925 5 12.4925C4.44772 12.4925 4 12.0448 4 11.4925V4.99249Z" fill="#1F2937"/>
<path fill-rule="evenodd" clip-rule="evenodd" d="M15.5858 4.57828C15.9609 4.20321 16.4696 3.99249 17 3.99249H18C18.5523 3.99249 19 4.44021 19 4.99249C19 5.54478 18.5523 5.99249 18 5.99249L17 5.99249V9.99249C17 10.5448 16.5523 10.9925 16 10.9925C15.4477 10.9925 15 10.5448 15 9.99249V5.99249C15 5.46206 15.2107 4.95335 15.5858 4.57828Z" fill="#1F2937"/>
</svg>
