<svg width="24" height="24" viewBox="0 0 24 24" fill="none" xmlns="http://www.w3.org/2000/svg">
<path fill-rule="evenodd" clip-rule="evenodd" d="M3.5 9C3.5 8.44772 3.94772 8 4.5 8H9.5C10.0523 8 10.5 8.44772 10.5 9C10.5 9.55228 10.0523 10 9.5 10H8V15C8 15.5523 7.55228 16 7 16C6.44772 16 6 15.5523 6 15V10H4.5C3.94772 10 3.5 9.55228 3.5 9Z" fill="#1F2937"/>
<path fill-rule="evenodd" clip-rule="evenodd" d="M12.6838 8.05132C13.0921 7.91521 13.5417 8.05566 13.8 8.4L16 11.3333L18.2 8.4C18.4583 8.05566 18.9079 7.91521 19.3162 8.05132C19.7246 8.18743 20 8.56957 20 9V15C20 15.5523 19.5523 16 19 16C18.4477 16 18 15.5523 18 15V12L16.8 13.6C16.6111 13.8518 16.3148 14 16 14C15.6852 14 15.3889 13.8518 15.2 13.6L14 12V15C14 15.5523 13.5523 16 13 16C12.4477 16 12 15.5523 12 15V9C12 8.56957 12.2754 8.18743 12.6838 8.05132Z" fill="#1F2937"/>
</svg>
