<svg width="24" height="24" viewBox="0 0 24 24" fill="none" xmlns="http://www.w3.org/2000/svg">
<path fill-rule="evenodd" clip-rule="evenodd" d="M3 19.9925C3 19.4402 3.44772 18.9925 4 18.9925H20C20.5523 18.9925 21 19.4402 21 19.9925C21 20.5448 20.5523 20.9925 20 20.9925H4C3.44772 20.9925 3 20.5448 3 19.9925Z" fill="#1F2937"/>
<path fill-rule="evenodd" clip-rule="evenodd" d="M8.3999 10.0075C8.3999 9.45519 8.84762 9.00748 9.3999 9.00748H14.5999C15.1522 9.00748 15.5999 9.45519 15.5999 10.0075C15.5999 10.5598 15.1522 11.0075 14.5999 11.0075H9.3999C8.84762 11.0075 8.3999 10.5598 8.3999 10.0075Z" fill="#1F2937"/>
<path fill-rule="evenodd" clip-rule="evenodd" d="M6.7998 15C6.7998 14.4477 7.24752 14 7.7998 14H16.1998C16.7521 14 17.1998 14.4477 17.1998 15C17.1998 15.5523 16.7521 16 16.1998 16H7.7998C7.24752 16 6.7998 15.5523 6.7998 15Z" fill="#1F2937"/>
<path fill-rule="evenodd" clip-rule="evenodd" d="M10.0511 4.6763C10.1872 4.26795 10.5694 3.99252 10.9998 3.99252H12.9998C13.4302 3.99252 13.8124 4.26795 13.9485 4.6763L18.9485 19.6763C19.1231 20.2002 18.84 20.7666 18.316 20.9412C17.7921 21.1159 17.2257 20.8327 17.0511 20.3088L12.279 5.99252H11.7205L6.94847 20.3088C6.77382 20.8327 6.2075 21.1159 5.68356 20.9412C5.15961 20.7666 4.87645 20.2002 5.0511 19.6763L10.0511 4.6763Z" fill="#1F2937"/>
</svg>
