<svg width="24" height="24" viewBox="0 0 24 24" fill="none" xmlns="http://www.w3.org/2000/svg">
<path fill-rule="evenodd" clip-rule="evenodd" d="M3 7.00745C3 6.45516 3.44772 6.00745 4 6.00745H20C20.5523 6.00745 21 6.45516 21 7.00745C21 7.55973 20.5523 8.00745 20 8.00745H4C3.44772 8.00745 3 7.55973 3 7.00745Z" fill="#1F2937"/>
<path fill-rule="evenodd" clip-rule="evenodd" d="M10 9.99255C10.5523 9.99255 11 10.4403 11 10.9926V16.9926C11 17.5448 10.5523 17.9926 10 17.9926C9.44772 17.9926 9 17.5448 9 16.9926V10.9926C9 10.4403 9.44772 9.99255 10 9.99255Z" fill="#1F2937"/>
<path fill-rule="evenodd" clip-rule="evenodd" d="M14 9.99255C14.5523 9.99255 15 10.4403 15 10.9926V16.9926C15 17.5448 14.5523 17.9926 14 17.9926C13.4477 17.9926 13 17.5448 13 16.9926V10.9926C13 10.4403 13.4477 9.99255 14 9.99255Z" fill="#1F2937"/>
<path fill-rule="evenodd" clip-rule="evenodd" d="M4.91701 6.01096C5.46739 5.96509 5.95074 6.37408 5.9966 6.92446L6.9966 18.9245C6.9989 18.9521 7.00006 18.9798 7.00006 19.0075C7.00006 19.2727 7.10541 19.5271 7.29295 19.7146C7.48049 19.9021 7.73484 20.0075 8.00006 20.0075H16.0001C16.2653 20.0075 16.5196 19.9021 16.7072 19.7146C16.8947 19.5271 17.0001 19.2727 17.0001 19.0075C17.0001 18.9798 17.0012 18.9521 17.0035 18.9245L18.0035 6.92446C18.0494 6.37408 18.5327 5.96509 19.0831 6.01096C19.6335 6.05682 20.0425 6.54017 19.9966 7.09055L18.9997 19.0533C18.9878 19.8324 18.6732 20.577 18.1214 21.1288C17.5588 21.6914 16.7957 22.0075 16.0001 22.0075H8.00006C7.20441 22.0075 6.44134 21.6914 5.87874 21.1288C5.32693 20.577 5.01228 19.8324 5.0004 19.0533L4.00351 7.09055C3.95765 6.54017 4.36663 6.05682 4.91701 6.01096Z" fill="#1F2937"/>
<path fill-rule="evenodd" clip-rule="evenodd" d="M8.58579 2.58579C8.96086 2.21071 9.46957 2 10 2H14C14.5304 2 15.0391 2.21071 15.4142 2.58579C15.7893 2.96086 16 3.46957 16 4V7C16 7.55228 15.5523 8 15 8C14.4477 8 14 7.55228 14 7V4H10L10 7C10 7.55228 9.55228 8 9 8C8.44772 8 8 7.55228 8 7V4C8 3.46957 8.21071 2.96086 8.58579 2.58579Z" fill="#1F2937"/>
</svg>
