<svg width="24" height="24" viewBox="0 0 24 24" fill="none" xmlns="http://www.w3.org/2000/svg">
<path fill-rule="evenodd" clip-rule="evenodd" d="M8 4C6.34315 4 5 5.34315 5 7V13C5 14.6569 6.34315 16 8 16C9.65685 16 11 14.6569 11 13V7C11 5.34315 9.65685 4 8 4ZM3 7C3 4.23858 5.23858 2 8 2C10.7614 2 13 4.23858 13 7V13C13 15.7614 10.7614 18 8 18C5.23858 18 3 15.7614 3 13V7Z" fill="#1F2937"/>
<path fill-rule="evenodd" clip-rule="evenodd" d="M15 8.00751C13.8954 8.00751 13 8.90294 13 10.0075V14.0075C13 15.1121 13.8954 16.0075 15 16.0075H17C18.1046 16.0075 19 15.1121 19 14.0075V10.0075C19 8.90294 18.1046 8.00751 17 8.00751H15ZM11 10.0075C11 7.79837 12.7909 6.00751 15 6.00751H17C19.2091 6.00751 21 7.79837 21 10.0075V14.0075C21 16.2166 19.2091 18.0075 17 18.0075H15C12.7909 18.0075 11 16.2166 11 14.0075V10.0075Z" fill="#1F2937"/>
<path fill-rule="evenodd" clip-rule="evenodd" d="M8 12.0075C8.55228 12.0075 9 12.4552 9 13.0075V21.0075C9 21.5598 8.55228 22.0075 8 22.0075C7.44772 22.0075 7 21.5598 7 21.0075V13.0075C7 12.4552 7.44772 12.0075 8 12.0075Z" fill="#1F2937"/>
<path fill-rule="evenodd" clip-rule="evenodd" d="M16 12.9925C16.5523 12.9925 17 13.4402 17 13.9925V20.9925C17 21.5448 16.5523 21.9925 16 21.9925C15.4477 21.9925 15 21.5448 15 20.9925V13.9925C15 13.4402 15.4477 12.9925 16 12.9925Z" fill="#1F2937"/>
</svg>
