<svg width="24" height="24" viewBox="0 0 24 24" fill="none" xmlns="http://www.w3.org/2000/svg">
<path fill-rule="evenodd" clip-rule="evenodd" d="M2.29289 6.30037C2.68342 5.90985 3.31658 5.90985 3.70711 6.30037L9 11.5933L12.2929 8.30037C12.6834 7.90985 13.3166 7.90985 13.7071 8.30037L21.7071 16.3004C22.0976 16.6909 22.0976 17.3241 21.7071 17.7146C21.3166 18.1051 20.6834 18.1051 20.2929 17.7146L13 10.4217L9.70711 13.7146C9.31658 14.1051 8.68342 14.1051 8.29289 13.7146L2.29289 7.71458C1.90237 7.32406 1.90237 6.69089 2.29289 6.30037Z" fill="#1F2937"/>
<path fill-rule="evenodd" clip-rule="evenodd" d="M21 9.00748C21.5523 9.00748 22 9.45519 22 10.0075V17.0075C22 17.5598 21.5523 18.0075 21 18.0075H14C13.4477 18.0075 13 17.5598 13 17.0075C13 16.4552 13.4477 16.0075 14 16.0075H20V10.0075C20 9.45519 20.4477 9.00748 21 9.00748Z" fill="#1F2937"/>
</svg>
