<svg width="24" height="24" viewBox="0 0 24 24" fill="none" xmlns="http://www.w3.org/2000/svg">
<path fill-rule="evenodd" clip-rule="evenodd" d="M21.7071 6.30037C22.0976 6.69089 22.0976 7.32406 21.7071 7.71458L13.7071 15.7146C13.3166 16.1051 12.6834 16.1051 12.2929 15.7146L9 12.4217L3.70711 17.7146C3.31658 18.1051 2.68342 18.1051 2.29289 17.7146C1.90237 17.3241 1.90237 16.6909 2.29289 16.3004L8.29289 10.3004C8.68342 9.90985 9.31658 9.90985 9.70711 10.3004L13 13.5933L20.2929 6.30037C20.6834 5.90985 21.3166 5.90985 21.7071 6.30037Z" fill="#1F2937"/>
<path fill-rule="evenodd" clip-rule="evenodd" d="M13 7.00748C13 6.45519 13.4477 6.00748 14 6.00748H21C21.5523 6.00748 22 6.45519 22 7.00748V14.0075C22 14.5598 21.5523 15.0075 21 15.0075C20.4477 15.0075 20 14.5598 20 14.0075V8.00748H14C13.4477 8.00748 13 7.55976 13 7.00748Z" fill="#1F2937"/>
</svg>
