<svg width="24" height="24" viewBox="0 0 24 24" fill="none" xmlns="http://www.w3.org/2000/svg">
<path fill-rule="evenodd" clip-rule="evenodd" d="M10.4759 2.3924C10.9376 2.12023 11.4637 1.97668 11.9996 1.97668C12.5355 1.97668 13.0616 2.12023 13.5232 2.3924C13.9826 2.66328 14.3615 3.05172 14.6209 3.51768L21.6178 15.7623C21.6399 15.8009 21.6593 15.8409 21.6761 15.8821C21.8561 16.3255 21.9276 16.8055 21.8843 17.2821C21.8411 17.7587 21.6845 18.218 21.4276 18.6217C21.1707 19.0254 20.8209 19.3619 20.4075 19.6029C19.994 19.8439 19.529 19.9825 19.0511 20.0071C19.0339 20.008 19.0167 20.0084 18.9996 20.0084H5.06957C5.05809 20.0084 5.04665 20.0082 5.03526 20.0079C5.00647 20.0089 4.97739 20.0086 4.94808 20.0071C4.47017 19.9825 4.00509 19.8439 3.59167 19.6029C3.17824 19.3619 2.82847 19.0254 2.57156 18.6217C2.31464 18.218 2.15803 17.7587 2.1148 17.2821C2.07158 16.8055 2.14299 16.3255 2.32308 15.8821C2.33981 15.8409 2.35927 15.8009 2.38132 15.7623L9.37825 3.51768C9.6376 3.05172 10.0165 2.66328 10.4759 2.3924ZM5.03718 18.009C5.04793 18.0086 5.05873 18.0084 5.06957 18.0084H18.9694C19.1212 17.9974 19.2686 17.9518 19.4002 17.875C19.538 17.7947 19.6546 17.6825 19.7403 17.548C19.8259 17.4134 19.8781 17.2603 19.8925 17.1014C19.9052 16.961 19.8881 16.8196 19.8425 16.6866L12.8745 4.49261C12.788 4.33631 12.6613 4.20598 12.5074 4.11525C12.3536 4.02453 12.1782 3.97668 11.9996 3.97668C11.8209 3.97668 11.6456 4.02453 11.4917 4.11525C11.3378 4.20598 11.211 4.33626 11.1246 4.49256L11.1179 4.50462L4.15665 16.6866C4.11102 16.8196 4.09389 16.961 4.10663 17.1014C4.12104 17.2603 4.17324 17.4134 4.25888 17.548C4.34452 17.6825 4.46111 17.7947 4.59892 17.875C4.73272 17.953 4.88275 17.9988 5.03718 18.009Z" fill="#1F2937"/>
</svg>
