<svg width="24" height="24" viewBox="0 0 24 24" fill="none" xmlns="http://www.w3.org/2000/svg">
<path fill-rule="evenodd" clip-rule="evenodd" d="M7 16C6.44772 16 6 16.4477 6 17C6 17.5523 6.44772 18 7 18C7.55228 18 8 17.5523 8 17C8 16.4477 7.55228 16 7 16ZM4 17C4 15.3431 5.34315 14 7 14C8.65685 14 10 15.3431 10 17C10 18.6569 8.65685 20 7 20C5.34315 20 4 18.6569 4 17Z" fill="#1F2937"/>
<path fill-rule="evenodd" clip-rule="evenodd" d="M17 16C16.4477 16 16 16.4477 16 17C16 17.5523 16.4477 18 17 18C17.5523 18 18 17.5523 18 17C18 16.4477 17.5523 16 17 16ZM14 17C14 15.3431 15.3431 14 17 14C18.6569 14 20 15.3431 20 17C20 18.6569 18.6569 20 17 20C15.3431 20 14 18.6569 14 17Z" fill="#1F2937"/>
<path fill-rule="evenodd" clip-rule="evenodd" d="M2.58579 4.57828C2.96086 4.20321 3.46957 3.99249 4 3.99249H13C13.5523 3.99249 14 4.44021 14 4.99249H18C18.3513 4.99249 18.6768 5.17679 18.8575 5.478L21.8575 10.478C21.9507 10.6334 22 10.8112 22 10.9925V16.9925C22 17.5448 21.5523 17.9925 21 17.9925H19C18.4477 17.9925 18 17.5448 18 16.9925C18 16.4402 18.4477 15.9925 19 15.9925H20V11.9925H14V15.9925H15C15.5523 15.9925 16 16.4402 16 16.9925C16 17.5448 15.5523 17.9925 15 17.9925H3C2.44772 17.9925 2 17.5448 2 16.9925V5.99249C2 5.46206 2.21071 4.95335 2.58579 4.57828ZM12 15.9925V5.99249L4 5.99249V15.9925H12ZM14 6.99249V9.99249H19.2338L17.4338 6.99249H14Z" fill="#1F2937"/>
</svg>
