<svg width="16" height="17" viewBox="0 0 16 17" fill="none" xmlns="http://www.w3.org/2000/svg">
  <path d="M12.0759 3.09512C12.0371 3.01723 11.9761 2.9526 11.9006 2.90951C11.8251 2.86632 11.7385 2.84654 11.6517 2.85265H4.34865C4.26185 2.84654 4.17526 2.86632 4.09976 2.90951C4.02425 2.9526 3.96325 3.01723 3.92441 3.09512L1.36384 9.09522C1.34655 9.14918 1.33629 9.20521 1.3335 9.26187V12.6105C1.33733 12.9253 1.46835 13.2252 1.69651 13.4421C1.92479 13.6588 2.23106 13.7743 2.54561 13.762H13.4547C13.7693 13.7743 14.0755 13.6588 14.3038 13.4421C14.532 13.2252 14.663 12.9253 14.6668 12.6105V9.26187C14.6641 9.20024 14.654 9.13924 14.6365 9.0801L12.0759 3.09512ZM10.0304 8.91332C9.92769 8.9068 9.82578 8.93663 9.7427 8.99753C9.65962 9.05843 9.60059 9.14668 9.57594 9.24673C9.56082 9.2922 9.30323 10.5498 8.00015 10.5498C6.69706 10.5498 6.45472 9.38315 6.42436 9.24673C6.3997 9.14668 6.34067 9.05843 6.2576 8.99753C6.17453 8.93663 6.07261 8.9068 5.96986 8.91332H2.45475L4.63665 3.76171H11.3638L13.5457 8.91332H10.0304Z" fill="#1D4ED8"/>
  <path d="M6.01515 5.73159H9.98472C10.1471 5.73159 10.2972 5.64501 10.3784 5.50435C10.4596 5.3637 10.4596 5.19041 10.3784 5.04986C10.2972 4.9092 10.1471 4.82251 9.98472 4.82251H6.01515C5.85274 4.82251 5.70266 4.9092 5.62145 5.04986C5.54025 5.19041 5.54025 5.36369 5.62145 5.50435C5.70265 5.64501 5.85273 5.73159 6.01515 5.73159Z" fill="#1D4ED8"/>
  <path d="M10.5914 6.79224H5.40957C5.24717 6.79224 5.09709 6.87893 5.01598 7.01958C4.93478 7.16024 4.93478 7.33341 5.01598 7.47408C5.09708 7.61473 5.24716 7.70142 5.40957 7.70142H10.5914C10.7538 7.70142 10.9039 7.61473 10.985 7.47408C11.0662 7.33342 11.0662 7.16024 10.985 7.01958C10.9039 6.87893 10.7538 6.79224 10.5914 6.79224Z" fill="#1D4ED8"/>
</svg>