<svg width="24" height="24" viewBox="0 0 24 24" fill="none" xmlns="http://www.w3.org/2000/svg">
<path fill-rule="evenodd" clip-rule="evenodd" d="M3 19.9926C3 19.4403 3.44772 18.9926 4 18.9926H7C7.55228 18.9926 8 19.4403 8 19.9926C8 20.5448 7.55228 20.9926 7 20.9926H4C3.44772 20.9926 3 20.5448 3 19.9926Z" fill="#1F2937"/>
<path fill-rule="evenodd" clip-rule="evenodd" d="M13 19.9926C13 19.4403 13.4477 18.9926 14 18.9926H21C21.5523 18.9926 22 19.4403 22 19.9926C22 20.5448 21.5523 20.9926 21 20.9926H14C13.4477 20.9926 13 20.5448 13 19.9926Z" fill="#1F2937"/>
<path fill-rule="evenodd" clip-rule="evenodd" d="M5.8999 15C5.8999 14.4477 6.34762 14 6.8999 14H13.7999C14.3522 14 14.7999 14.4477 14.7999 15C14.7999 15.5523 14.3522 16 13.7999 16H6.8999C6.34762 16 5.8999 15.5523 5.8999 15Z" fill="#1F2937"/>
<path fill-rule="evenodd" clip-rule="evenodd" d="M9.81011 5.38383C10.3187 5.16851 10.9055 5.40626 11.1208 5.91484L16.9208 19.6148C17.1362 20.1234 16.8984 20.7102 16.3898 20.9256C15.8812 21.1409 15.2944 20.9031 15.0791 20.3945L9.27909 6.69456C9.06378 6.18598 9.30152 5.59914 9.81011 5.38383Z" fill="#1F2937"/>
<path fill-rule="evenodd" clip-rule="evenodd" d="M10.0635 3.65632C10.2098 3.26602 10.5829 3.00745 10.9998 3.00745H12.9998C13.3971 3.00745 13.7567 3.24264 13.9159 3.60663L20.9159 19.6066C21.1373 20.1126 20.9066 20.7022 20.4006 20.9236C19.8946 21.145 19.305 20.9142 19.0836 20.4083L12.3458 5.00745H11.6928L5.93611 20.3586C5.74219 20.8757 5.16578 21.1377 4.64866 20.9438C4.13154 20.7499 3.86953 20.1734 4.06345 19.6563L10.0635 3.65632Z" fill="#1F2937"/>
</svg>
