<svg width="24" height="24" viewBox="0 0 24 24" fill="none" xmlns="http://www.w3.org/2000/svg">
<path fill-rule="evenodd" clip-rule="evenodd" d="M5 19.9926C5 19.4403 5.44772 18.9926 6 18.9926H18C18.5523 18.9926 19 19.4403 19 19.9926C19 20.5448 18.5523 20.9926 18 20.9926H6C5.44772 20.9926 5 20.5448 5 19.9926Z" fill="#1F2937"/>
<path fill-rule="evenodd" clip-rule="evenodd" d="M8 3.99255C8.55228 3.99255 9 4.44027 9 4.99255V10.9926C9 11.7882 9.31607 12.5513 9.87868 13.1139C10.4413 13.6765 11.2044 13.9926 12 13.9926C12.7956 13.9926 13.5587 13.6765 14.1213 13.1139C14.6839 12.5513 15 11.7882 15 10.9926V4.99255C15 4.44027 15.4477 3.99255 16 3.99255C16.5523 3.99255 17 4.44027 17 4.99255V10.9926C17 12.3186 16.4732 13.5904 15.5355 14.5281C14.5979 15.4658 13.3261 15.9926 12 15.9926C10.6739 15.9926 9.40215 15.4658 8.46447 14.5281C7.52678 13.5904 7 12.3186 7 10.9926V4.99255C7 4.44027 7.44772 3.99255 8 3.99255Z" fill="#1F2937"/>
</svg>
