<svg width="16" height="16" viewBox="0 0 16 16" fill="none" xmlns="http://www.w3.org/2000/svg">
<path d="M10.1641 1.88379C10.5529 1.92332 10.9155 2.09814 11.1885 2.37793L13.6475 4.84082H13.6484C13.8154 5.00785 13.9441 5.20982 14.0254 5.43164C14.1067 5.65346 14.1386 5.89052 14.1191 6.12598C14.0996 6.36155 14.0289 6.59042 13.9121 6.7959C13.7954 7.0013 13.6356 7.17921 13.4434 7.31641L13.4414 7.31738C13.1143 7.54044 12.7177 7.63953 12.3242 7.59668C11.9342 7.55411 11.5724 7.37467 11.3018 7.09082C11.2908 7.09142 11.2803 7.09575 11.2725 7.10352V7.10449L10.4785 7.89844C10.4331 7.94393 10.4002 8.00058 10.3828 8.0625C10.3742 8.09337 10.3697 8.12543 10.3691 8.15723L10.3799 8.25293L10.3809 8.25684L10.4863 8.77246L10.5312 8.96387C10.626 9.41303 10.6494 9.87476 10.6006 10.332C10.5681 10.7057 10.4277 11.0616 10.1973 11.3574C9.9663 11.6538 9.65492 11.8776 9.2998 12L9.29883 11.999C9.07069 12.0794 8.83072 12.1209 8.58887 12.1201H8.58594C7.869 12.0994 7.18931 11.7948 6.69629 11.2734V11.2725L6.16113 10.7178L2.94141 13.9414C2.82426 14.0587 2.66572 14.1249 2.5 14.125C2.37638 14.125 2.2551 14.0883 2.15234 14.0195C2.04983 13.9509 1.97012 13.8532 1.92285 13.7393C1.87563 13.6251 1.86274 13.4991 1.88672 13.3779C1.91079 13.2568 1.97041 13.1451 2.05762 13.0576L5.29199 9.82129L4.49902 8.99902V8.99805C4.21395 8.71183 4.01589 8.35068 3.92871 7.95605C3.8414 7.56052 3.86902 7.14808 4.00781 6.76758C4.13546 6.3973 4.36545 6.07086 4.67188 5.82715C4.97883 5.58304 5.34929 5.43207 5.73926 5.3916C6.27072 5.33578 6.80816 5.37655 7.3252 5.51172L7.73242 5.61621C7.7954 5.63232 7.8621 5.63143 7.9248 5.61426C7.98742 5.59707 8.04484 5.56351 8.09082 5.51758L8.88867 4.71777C8.894 4.7124 8.89835 4.70488 8.89844 4.69727C8.89844 4.68953 8.89505 4.68221 8.88965 4.67676L8.85254 4.63867C8.6855 4.47154 8.55685 4.26981 8.47559 4.04785C8.39436 3.82594 8.36226 3.58904 8.38184 3.35352C8.40143 3.11795 8.47206 2.88905 8.58887 2.68359C8.70566 2.47825 8.86632 2.3012 9.05859 2.16406L9.06055 2.16211C9.38433 1.94262 9.77499 1.84426 10.1641 1.88379ZM10.0537 3.12793C9.95948 3.11471 9.8629 3.13375 9.78125 3.18262C9.73839 3.21355 9.70326 3.25398 9.67676 3.2998C9.64928 3.34735 9.63175 3.40035 9.62695 3.45508C9.62219 3.50967 9.62973 3.56472 9.64844 3.61621C9.66723 3.66782 9.69749 3.71513 9.73633 3.75391L9.77441 3.79199C10.0136 4.03211 10.1474 4.35729 10.1475 4.69629C10.1475 5.03527 10.0135 5.36045 9.77441 5.60059V5.60156L8.97461 6.40234H8.97363C8.77411 6.60107 8.52636 6.7448 8.25488 6.81934C7.98332 6.89385 7.69681 6.89628 7.42383 6.82715L7.0127 6.72266H7.01172C6.74782 6.65331 6.47596 6.6182 6.20312 6.61816C6.14752 6.61817 6.09165 6.61919 6.03613 6.62207L5.86914 6.63477C5.71468 6.65018 5.56746 6.71046 5.44629 6.80762C5.3252 6.90475 5.23528 7.03512 5.18652 7.18262L5.18457 7.18652C5.12596 7.34609 5.11478 7.51952 5.15137 7.68555C5.17881 7.80978 5.23195 7.92634 5.30762 8.02734L5.3916 8.12305L5.39258 8.125L7.59277 10.4023L7.59863 10.4082C7.7541 10.5922 7.95797 10.7291 8.1875 10.8018C8.41643 10.8741 8.6613 10.879 8.89355 10.8184C9.02101 10.7733 9.13308 10.6931 9.21582 10.5859C9.29989 10.477 9.35013 10.3453 9.36035 10.208L9.36133 10.2041C9.40083 9.82207 9.37052 9.43602 9.27344 9.06445L9.27246 9.05762L9.16309 8.53027V8.53125C9.1007 8.26248 9.10795 7.98213 9.18359 7.7168C9.25937 7.4513 9.40171 7.20903 9.59668 7.01367L10.3896 6.21875L10.3906 6.21777C10.6367 5.97698 10.9674 5.84141 11.3115 5.83984C11.476 5.84013 11.6396 5.87418 11.791 5.93848C11.9044 5.9867 12.0097 6.05161 12.1035 6.13086L12.1934 6.21484L12.1963 6.21777C12.2614 6.28989 12.3502 6.33653 12.4463 6.35059C12.5401 6.36424 12.6351 6.34487 12.7168 6.29687C12.761 6.26567 12.799 6.22656 12.8262 6.17969C12.8536 6.13227 12.8702 6.07898 12.875 6.02441C12.8798 5.96969 12.8723 5.91391 12.8535 5.8623C12.8348 5.81093 12.8052 5.76424 12.7666 5.72559L10.3047 3.26074L10.3008 3.25781C10.2356 3.18749 10.1486 3.14132 10.0537 3.12793Z" fill="#6B7280" stroke="#6B7280" stroke-width="0.25"/>
</svg>
