<svg width="24" height="24" viewBox="0 0 24 24" fill="none" xmlns="http://www.w3.org/2000/svg">
<path fill-rule="evenodd" clip-rule="evenodd" d="M4 15.9925C4.55228 15.9925 5 16.4402 5 16.9925V18.9925C5 19.2577 5.10536 19.5121 5.29289 19.6996C5.48043 19.8871 5.73478 19.9925 6 19.9925H18C18.2652 19.9925 18.5196 19.8871 18.7071 19.6996C18.8946 19.5121 19 19.2577 19 18.9925V16.9925C19 16.4402 19.4477 15.9925 20 15.9925C20.5523 15.9925 21 16.4402 21 16.9925V18.9925C21 19.7881 20.6839 20.5512 20.1213 21.1138C19.5587 21.6764 18.7957 21.9925 18 21.9925H6C5.20435 21.9925 4.44129 21.6764 3.87868 21.1138C3.31607 20.5512 3 19.7881 3 18.9925V16.9925C3 16.4402 3.44772 15.9925 4 15.9925Z" fill="#1F2937"/>
<path fill-rule="evenodd" clip-rule="evenodd" d="M12 3.00751C12.2652 3.00751 12.5196 3.11286 12.7071 3.3004L17.7071 8.3004C18.0976 8.69093 18.0976 9.32409 17.7071 9.71461C17.3166 10.1051 16.6834 10.1051 16.2929 9.71461L12 5.42172L7.70711 9.71461C7.31658 10.1051 6.68342 10.1051 6.29289 9.71461C5.90237 9.32409 5.90237 8.69093 6.29289 8.3004L11.2929 3.3004C11.4804 3.11286 11.7348 3.00751 12 3.00751Z" fill="#1F2937"/>
<path fill-rule="evenodd" clip-rule="evenodd" d="M12 3.00751C12.5523 3.00751 13 3.45522 13 4.00751V16.0075C13 16.5598 12.5523 17.0075 12 17.0075C11.4477 17.0075 11 16.5598 11 16.0075V4.00751C11 3.45522 11.4477 3.00751 12 3.00751Z" fill="#1F2937"/>
</svg>
