<svg
      xmlns="http://www.w3.org/2000/svg"
      width="24"
      height="24"
      fill="none"
      viewBox="0 0 24 24"
    >
      <g
        fill="#1F2937"
        fillRule="evenodd"
        clipPath="url(#clip0_12741_3985)"
        clipRule="evenodd"
      >
        <path d="M8.464 3.464a5 5 0 117.071 7.071 5 5 0 01-7.07-7.07zM12 4a3 3 0 100 6 3 3 0 000-6zM10 16a3 3 0 00-3 3v2a1 1 0 11-2 0v-2a5 5 0 015-5h.5a1 1 0 110 2H10zM17.8 15.762l-.54 1.092a1 1 0 01-.753.546l-1.202.174.867.843a1 1 0 01.289.887l-.206 1.194 1.081-.567a1 1 0 01.928 0l1.08.566-.204-1.194a1 1 0 01.288-.886l.868-.843-1.202-.174a1 1 0 01-.753-.546l-.54-1.092zm-.733-2.554a1.392 1.392 0 011.98.564v.001l.853 1.723 1.908.276a1.389 1.389 0 01.773 2.37l-.002.002-1.379 1.34.325 1.89a1.39 1.39 0 01-2.018 1.466l-.003-.002-1.704-.892-1.708.895-.002.001a1.393 1.393 0 01-2.017-1.456l.002-.01.325-1.892-1.377-1.338-.001-.001a1.389 1.389 0 01.772-2.373l1.906-.276.854-1.724c.115-.232.293-.427.513-.564z"></path>
      </g>
      <defs>
        <clipPath id="clip0_12741_3985">
          <path fill="#fff" d="M0 0H24V24H0z"></path>
        </clipPath>
      </defs>
    </svg>