<svg width="16" height="16" viewBox="0 0 16 16" fill="none" xmlns="http://www.w3.org/2000/svg">
<path d="M8.66667 8.66602C8.66667 8.48921 8.59638 8.31969 8.47135 8.19466C8.34633 8.06964 8.17681 7.99935 8 7.99935C7.82319 7.99935 7.65367 8.06964 7.52865 8.19466C7.40362 8.31969 7.33333 8.48921 7.33333 8.66602C7.33333 8.84283 7.40362 9.01235 7.52865 9.13737C7.65367 9.26239 7.82319 9.33268 8 9.33268C8.17681 9.33268 8.34633 9.26239 8.47135 9.13737C8.59638 9.01235 8.66667 8.84283 8.66667 8.66602ZM10 8.66602C10 9.19645 9.78913 9.70501 9.41406 10.0801C9.03899 10.4552 8.53043 10.666 8 10.666C7.46957 10.666 6.96101 10.4552 6.58594 10.0801C6.21087 9.70501 6 9.19645 6 8.66602C6 8.13558 6.21087 7.62703 6.58594 7.25195C6.96101 6.87688 7.46957 6.66602 8 6.66602C8.53043 6.66602 9.03899 6.87688 9.41406 7.25195C9.78913 7.62703 10 8.13558 10 8.66602Z" fill="currentColor"/>
<path d="M9.99996 14.0007V13.334C9.99996 13.1572 9.92967 12.9877 9.80465 12.8626C9.67962 12.7376 9.5101 12.6673 9.33329 12.6673H6.66663C6.48982 12.6673 6.3203 12.7376 6.19527 12.8626C6.07025 12.9877 5.99996 13.1572 5.99996 13.334V14.0007C5.99996 14.3688 5.70148 14.6673 5.33329 14.6673C4.9651 14.6673 4.66663 14.3688 4.66663 14.0007V13.334C4.66663 12.8036 4.87749 12.295 5.25256 11.9199C5.62764 11.5448 6.13619 11.334 6.66663 11.334H9.33329C9.86373 11.334 10.3723 11.5448 10.7474 11.9199C11.1224 12.295 11.3333 12.8036 11.3333 13.334V14.0007C11.3333 14.3688 11.0348 14.6673 10.6666 14.6673C10.2984 14.6673 9.99996 14.3688 9.99996 14.0007Z" fill="currentColor"/>
<path d="M12 3.33398C12 3.15717 11.9298 2.98765 11.8047 2.86263C11.6953 2.7532 11.5518 2.6857 11.3991 2.67057L11.3334 2.66732C11.1566 2.66732 10.987 2.73761 10.862 2.86263C10.737 2.98765 10.6667 3.15717 10.6667 3.33398C10.6667 3.5108 10.737 3.68031 10.862 3.80534C10.987 3.93036 11.1566 4.00065 11.3334 4.00065L11.3991 3.9974C11.5518 3.98227 11.6953 3.91477 11.8047 3.80534C11.9298 3.68031 12 3.5108 12 3.33398ZM13.3334 3.33398C13.3334 3.86442 13.1225 4.37297 12.7474 4.74805C12.4193 5.07618 11.989 5.27871 11.5313 5.32422L11.3334 5.33398C10.8029 5.33398 10.2944 5.12312 9.91931 4.74805C9.54424 4.37297 9.33337 3.86442 9.33337 3.33398C9.33337 2.80355 9.54424 2.29499 9.91931 1.91992C10.2944 1.54485 10.8029 1.33398 11.3334 1.33398L11.5313 1.34375C11.989 1.38926 12.4193 1.59179 12.7474 1.91992C13.1225 2.29499 13.3334 2.80355 13.3334 3.33398Z" fill="currentColor"/>
<path d="M13.3333 8.66667V8C13.3333 7.82319 13.263 7.65367 13.138 7.52865C13.013 7.40362 12.8434 7.33333 12.6666 7.33333H11.3333C10.9651 7.33333 10.6666 7.03486 10.6666 6.66667C10.6666 6.29848 10.9651 6 11.3333 6H12.6666C13.1971 6 13.7056 6.21087 14.0807 6.58594C14.4558 6.96101 14.6666 7.46957 14.6666 8V8.66667C14.6666 9.03486 14.3681 9.33333 14 9.33333C13.6318 9.33333 13.3333 9.03486 13.3333 8.66667Z" fill="currentColor"/>
<path d="M5.33329 3.33398C5.33329 3.15717 5.263 2.98765 5.13798 2.86263C5.02855 2.7532 4.88505 2.6857 4.73238 2.67057L4.66663 2.66732C4.48981 2.66732 4.3203 2.73761 4.19527 2.86263C4.07025 2.98765 3.99996 3.15717 3.99996 3.33398L4.00321 3.39974C4.01834 3.55241 4.08584 3.69591 4.19527 3.80534C4.3203 3.93036 4.48981 4.00065 4.66663 4.00065L4.73238 3.9974C4.88505 3.98227 5.02855 3.91477 5.13798 3.80534C5.263 3.68031 5.33329 3.5108 5.33329 3.33398ZM6.66663 3.33398C6.66663 3.86442 6.45576 4.37297 6.08069 4.74805C5.75256 5.07618 5.3223 5.27871 4.86454 5.32422L4.66663 5.33398C4.13619 5.33398 3.62764 5.12312 3.25256 4.74805C2.92443 4.41991 2.7219 3.98966 2.67639 3.5319L2.66663 3.33398C2.66663 2.80355 2.87749 2.29499 3.25256 1.91992C3.62764 1.54485 4.13619 1.33398 4.66663 1.33398L4.86454 1.34375C5.3223 1.38926 5.75256 1.59179 6.08069 1.91992C6.45576 2.29499 6.66663 2.80355 6.66663 3.33398Z" fill="currentColor"/>
<path d="M1.33337 8.66667V8C1.33337 7.46957 1.54424 6.96101 1.91931 6.58594C2.29438 6.21087 2.80294 6 3.33337 6H4.66671C5.0349 6 5.33337 6.29848 5.33337 6.66667C5.33337 7.03486 5.0349 7.33333 4.66671 7.33333H3.33337C3.15656 7.33333 2.98704 7.40362 2.86202 7.52865C2.737 7.65367 2.66671 7.82319 2.66671 8V8.66667C2.66671 9.03486 2.36823 9.33333 2.00004 9.33333C1.63185 9.33333 1.33337 9.03486 1.33337 8.66667Z" fill="currentColor"/>
</svg>
