<svg width="24" height="24" viewBox="0 0 24 24" fill="none" xmlns="http://www.w3.org/2000/svg">
<path fill-rule="evenodd" clip-rule="evenodd" d="M9 4C7.34315 4 6 5.34315 6 7C6 8.65685 7.34315 10 9 10C10.6569 10 12 8.65685 12 7C12 5.34315 10.6569 4 9 4ZM4 7C4 4.23858 6.23858 2 9 2C11.7614 2 14 4.23858 14 7C14 9.76142 11.7614 12 9 12C6.23858 12 4 9.76142 4 7Z" fill="#1F2937"/>
<path fill-rule="evenodd" clip-rule="evenodd" d="M7 16C6.20435 16 5.44129 16.3161 4.87868 16.8787C4.31607 17.4413 4 18.2044 4 19V21C4 21.5523 3.55228 22 3 22C2.44772 22 2 21.5523 2 21V19C2 17.6739 2.52678 16.4021 3.46447 15.4645C4.40215 14.5268 5.67392 14 7 14H11C12.3261 14 13.5979 14.5268 14.5355 15.4645C15.4732 16.4021 16 17.6739 16 19V21C16 21.5523 15.5523 22 15 22C14.4477 22 14 21.5523 14 21V19C14 18.2044 13.6839 17.4413 13.1213 16.8787C12.5587 16.3161 11.7956 16 11 16H7Z" fill="#1F2937"/>
<path fill-rule="evenodd" clip-rule="evenodd" d="M19 6.00748C19.5523 6.00748 20 6.45519 20 7.00748V10.0075C20 10.5598 19.5523 11.0075 19 11.0075C18.4477 11.0075 18 10.5598 18 10.0075V7.00748C18 6.45519 18.4477 6.00748 19 6.00748Z" fill="#1F2937"/>
<path fill-rule="evenodd" clip-rule="evenodd" d="M19 12.9925C19.5523 12.9925 20 13.4402 20 13.9925V14.0025C20 14.5548 19.5523 15.0025 19 15.0025C18.4477 15.0025 18 14.5548 18 14.0025V13.9925C18 13.4402 18.4477 12.9925 19 12.9925Z" fill="#1F2937"/>
</svg>
