<svg width="16" height="16" viewBox="0 0 16 16" fill="none" xmlns="http://www.w3.org/2000/svg">
<path fill-rule="evenodd" clip-rule="evenodd" d="M8 2.66683C6.89543 2.66683 6 3.56226 6 4.66683C6 5.7714 6.89543 6.66683 8 6.66683C9.10457 6.66683 10 5.7714 10 4.66683C10 3.56226 9.10457 2.66683 8 2.66683ZM4.66666 4.66683C4.66666 2.82588 6.15905 1.3335 8 1.3335C9.84095 1.3335 11.3333 2.82588 11.3333 4.66683C11.3333 6.50778 9.84095 8.00016 8 8.00016C6.15905 8.00016 4.66666 6.50778 4.66666 4.66683Z" fill="currentColor"/>
<path fill-rule="evenodd" clip-rule="evenodd" d="M6 10.6668C5.46956 10.6668 4.96086 10.8775 4.58578 11.2526C4.21071 11.6277 4 12.1364 4 12.6668V14.0002C4 14.3684 3.70152 14.6668 3.33333 14.6668C2.96514 14.6668 2.66666 14.3684 2.66666 14.0002V12.6668C2.66666 11.7828 3.01785 10.9349 3.64297 10.3098C4.2681 9.68469 5.11594 9.3335 6 9.3335H10C10.8841 9.3335 11.7319 9.68469 12.357 10.3098C12.9821 10.9349 13.3333 11.7828 13.3333 12.6668V14.0002C13.3333 14.3684 13.0349 14.6668 12.6667 14.6668C12.2985 14.6668 12 14.3684 12 14.0002V12.6668C12 12.1364 11.7893 11.6277 11.4142 11.2526C11.0391 10.8775 10.5304 10.6668 10 10.6668H6Z" fill="currentColor"/>
<path fill-rule="evenodd" clip-rule="evenodd" d="M6.46258 10.4476C6.56974 9.80471 7.12599 9.3335 7.77778 9.3335H8.22222C8.874 9.3335 9.43026 9.80471 9.53741 10.4476L9.98186 13.1143C10.0375 13.4484 9.96397 13.7912 9.77606 14.0731L9.1094 15.0731C8.86211 15.444 8.4458 15.6668 8 15.6668C7.55419 15.6668 7.13788 15.444 6.8906 15.0731L6.22393 14.0731C6.03603 13.7912 5.96245 13.4484 6.01814 13.1143L6.46258 10.4476ZM7.77778 10.6668H8.22222L8.66666 13.3335L8 14.3335L7.33333 13.3335L7.77778 10.6668Z" fill="currentColor"/>
</svg>
