<svg width="24" height="24" viewBox="0 0 24 24" fill="none" xmlns="http://www.w3.org/2000/svg">
<path fill-rule="evenodd" clip-rule="evenodd" d="M9 4C7.34315 4 6 5.34315 6 7C6 8.65685 7.34315 10 9 10C10.6569 10 12 8.65685 12 7C12 5.34315 10.6569 4 9 4ZM4 7C4 4.23858 6.23858 2 9 2C11.7614 2 14 4.23858 14 7C14 9.76142 11.7614 12 9 12C6.23858 12 4 9.76142 4 7Z" fill="#1F2937"/>
<path fill-rule="evenodd" clip-rule="evenodd" d="M7 16C6.20435 16 5.44129 16.3161 4.87868 16.8787C4.31607 17.4413 4 18.2044 4 19V21C4 21.5523 3.55228 22 3 22C2.44772 22 2 21.5523 2 21V19C2 17.6739 2.52678 16.4021 3.46447 15.4645C4.40215 14.5268 5.67392 14 7 14H11C12.3261 14 13.5979 14.5268 14.5355 15.4645C15.4732 16.4021 16 17.6739 16 19V21C16 21.5523 15.5523 22 15 22C14.4477 22 14 21.5523 14 21V19C14 18.2044 13.6839 17.4413 13.1213 16.8787C12.5587 16.3161 11.7956 16 11 16H7Z" fill="#1F2937"/>
<path fill-rule="evenodd" clip-rule="evenodd" d="M22.7071 8.29289C23.0976 8.68342 23.0976 9.31658 22.7071 9.70711L18.7071 13.7071C18.3166 14.0976 17.6834 14.0976 17.2929 13.7071L15.2929 11.7071C14.9024 11.3166 14.9024 10.6834 15.2929 10.2929C15.6834 9.90237 16.3166 9.90237 16.7071 10.2929L18 11.5858L21.2929 8.29289C21.6834 7.90237 22.3166 7.90237 22.7071 8.29289Z" fill="#1F2937"/>
</svg>
