<svg width="18" height="18" viewBox="0 0 18 18" fill="none" xmlns="http://www.w3.org/2000/svg">
<path fill-rule="evenodd" clip-rule="evenodd" d="M6.375 3C5.13236 3 4.125 4.00736 4.125 5.25C4.125 6.49264 5.13236 7.5 6.375 7.5C7.61764 7.5 8.625 6.49264 8.625 5.25C8.625 4.00736 7.61764 3 6.375 3ZM2.625 5.25C2.625 3.17893 4.30393 1.5 6.375 1.5C8.44607 1.5 10.125 3.17893 10.125 5.25C10.125 7.32107 8.44607 9 6.375 9C4.30393 9 2.625 7.32107 2.625 5.25Z" fill="#1F2937"/>
<path fill-rule="evenodd" clip-rule="evenodd" d="M4.875 12C4.27826 12 3.70597 12.2371 3.28401 12.659C2.86205 13.081 2.625 13.6533 2.625 14.25V15.75C2.625 16.1642 2.28921 16.5 1.875 16.5C1.46079 16.5 1.125 16.1642 1.125 15.75V14.25C1.125 13.2554 1.52009 12.3016 2.22335 11.5984C2.92661 10.8951 3.88044 10.5 4.875 10.5H7.875C8.86956 10.5 9.82339 10.8951 10.5266 11.5984C11.2299 12.3016 11.625 13.2554 11.625 14.25V15.75C11.625 16.1642 11.2892 16.5 10.875 16.5C10.4608 16.5 10.125 16.1642 10.125 15.75V14.25C10.125 13.6533 9.88795 13.081 9.46599 12.659C9.04403 12.2371 8.47174 12 7.875 12H4.875Z" fill="#1F2937"/>
<path d="M16.875 5.25C16.875 4.83579 16.5392 4.5 16.125 4.5H13.125C12.7108 4.5 12.375 4.83579 12.375 5.25C12.375 5.66421 12.7108 6 13.125 6H16.125C16.5392 6 16.875 5.66421 16.875 5.25Z" fill="#1F2937"/>
<path d="M16.875 8.25C16.875 7.83579 16.5392 7.5 16.125 7.5H13.125C12.7108 7.5 12.375 7.83579 12.375 8.25C12.375 8.66421 12.7108 9 13.125 9H16.125C16.5392 9 16.875 8.66421 16.875 8.25Z" fill="#1F2937"/>
<path d="M16.875 11.25C16.875 10.8358 16.5392 10.5 16.125 10.5H13.125C12.7108 10.5 12.375 10.8358 12.375 11.25C12.375 11.6642 12.7108 12 13.125 12H16.125C16.5392 12 16.875 11.6642 16.875 11.25Z" fill="#1F2937"/>
</svg>
