<svg width="24" height="24" viewBox="0 0 24 24" fill="none" xmlns="http://www.w3.org/2000/svg">
<path fill-rule="evenodd" clip-rule="evenodd" d="M9 4.6C7.67452 4.6 6.6 5.67452 6.6 7C6.6 8.32548 7.67452 9.4 9 9.4C10.3255 9.4 11.4 8.32548 11.4 7C11.4 5.67452 10.3255 4.6 9 4.6ZM5 7C5 4.79086 6.79086 3 9 3C11.2091 3 13 4.79086 13 7C13 9.20914 11.2091 11 9 11C6.79086 11 5 9.20914 5 7Z" fill="#1F2937"/>
<path fill-rule="evenodd" clip-rule="evenodd" d="M7.28571 14.75C6.60373 14.75 5.94968 15.0266 5.46744 15.5188C4.9852 16.0111 4.71429 16.6788 4.71429 17.375V19.125C4.71429 19.6082 4.33053 20 3.85714 20C3.38376 20 3 19.6082 3 19.125V17.375C3 16.2147 3.45153 15.1019 4.25526 14.2814C5.05898 13.4609 6.14907 13 7.28571 13H10.7143C11.8509 13 12.941 13.4609 13.7447 14.2814C14.5485 15.1019 15 16.2147 15 17.375V19.125C15 19.6082 14.6162 20 14.1429 20C13.6695 20 13.2857 19.6082 13.2857 19.125V17.375C13.2857 16.6788 13.0148 16.0111 12.5326 15.5188C12.0503 15.0266 11.3963 14.75 10.7143 14.75H7.28571Z" fill="#1F2937"/>
<path d="M22 7C22 6.44772 21.5523 6 21 6H17C16.4477 6 16 6.44772 16 7C16 7.55228 16.4477 8 17 8H21C21.5523 8 22 7.55228 22 7Z" fill="#1F2937"/>
<path d="M22 11C22 10.4477 21.5523 10 21 10H17C16.4477 10 16 10.4477 16 11C16 11.5523 16.4477 12 17 12H21C21.5523 12 22 11.5523 22 11Z" fill="#1F2937"/>
<path d="M22 15C22 14.4477 21.5523 14 21 14H17C16.4477 14 16 14.4477 16 15C16 15.5523 16.4477 16 17 16H21C21.5523 16 22 15.5523 22 15Z" fill="#1F2937"/>
</svg>
