<svg width="18" height="18" viewBox="0 0 18 18" fill="none" xmlns="http://www.w3.org/2000/svg">
<path d="M16.9667 7.94917L15.8334 6.63251C15.6167 6.38251 15.4417 5.91584 15.4417 5.58251V4.16584C15.4417 3.28251 14.7167 2.55751 13.8334 2.55751H12.4167C12.0917 2.55751 11.6167 2.38251 11.3667 2.16584L10.0501 1.03251C9.47507 0.540841 8.5334 0.540841 7.95007 1.03251L6.64173 2.17417C6.39173 2.38251 5.91673 2.55751 5.59173 2.55751H4.15006C3.26673 2.55751 2.54173 3.28251 2.54173 4.16584V5.59084C2.54173 5.91584 2.36673 6.38251 2.1584 6.63251L1.0334 7.95751C0.550065 8.53251 0.550065 9.46584 1.0334 10.0408L2.1584 11.3658C2.36673 11.6158 2.54173 12.0825 2.54173 12.4075V13.8325C2.54173 14.7158 3.26673 15.4408 4.15006 15.4408H5.59173C5.91673 15.4408 6.39173 15.6158 6.64173 15.8325L7.9584 16.9658C8.5334 17.4575 9.47507 17.4575 10.0584 16.9658L11.3751 15.8325C11.6251 15.6158 12.0917 15.4408 12.4251 15.4408H13.8417C14.7251 15.4408 15.4501 14.7158 15.4501 13.8325V12.4158C15.4501 12.0908 15.6251 11.6158 15.8417 11.3658L16.9751 10.0492C17.4584 9.47417 17.4584 8.52417 16.9667 7.94917ZM12.4667 7.42417L8.44173 11.4492C8.32454 11.5662 8.16569 11.632 8.00007 11.632C7.83444 11.632 7.67559 11.5662 7.5584 11.4492L5.54173 9.43251C5.30007 9.19084 5.30007 8.79084 5.54173 8.54917C5.7834 8.30751 6.1834 8.30751 6.42507 8.54917L8.00007 10.1242L11.5834 6.54084C11.8251 6.29917 12.2251 6.29917 12.4667 6.54084C12.7084 6.78251 12.7084 7.18251 12.4667 7.42417Z" fill="#34D399"/>
</svg>
