<svg width="24" height="24" viewBox="0 0 24 24" fill="none" xmlns="http://www.w3.org/2000/svg">
<path fill-rule="evenodd" clip-rule="evenodd" d="M6.29289 8.29289C6.68342 7.90237 7.31658 7.90237 7.70711 8.29289L10.7071 11.2929C11.0976 11.6834 11.0976 12.3166 10.7071 12.7071L7.70711 15.7071C7.31658 16.0976 6.68342 16.0976 6.29289 15.7071C5.90237 15.3166 5.90237 14.6834 6.29289 14.2929L7.58579 13H3C2.44772 13 2 12.5523 2 12C2 11.4477 2.44772 11 3 11H7.58579L6.29289 9.70711C5.90237 9.31658 5.90237 8.68342 6.29289 8.29289Z" fill="#1F2937"/>
<path fill-rule="evenodd" clip-rule="evenodd" d="M17.7071 8.29289C18.0976 8.68342 18.0976 9.31658 17.7071 9.70711L16.4142 11H21C21.5523 11 22 11.4477 22 12C22 12.5523 21.5523 13 21 13H16.4142L17.7071 14.2929C18.0976 14.6834 18.0976 15.3166 17.7071 15.7071C17.3166 16.0976 16.6834 16.0976 16.2929 15.7071L13.2929 12.7071C12.9024 12.3166 12.9024 11.6834 13.2929 11.2929L16.2929 8.29289C16.6834 7.90237 17.3166 7.90237 17.7071 8.29289Z" fill="#1F2937"/>
<path fill-rule="evenodd" clip-rule="evenodd" d="M8 3C8 2.44772 8.44772 2 9 2H15C15.5523 2 16 2.44772 16 3V6C16 6.55228 15.5523 7 15 7C14.4477 7 14 6.55228 14 6V4H10V6C10 6.55228 9.55228 7 9 7C8.44772 7 8 6.55228 8 6V3Z" fill="#1F2937"/>
<path fill-rule="evenodd" clip-rule="evenodd" d="M9 17C9.55228 17 10 17.4477 10 18V20H14V18C14 17.4477 14.4477 17 15 17C15.5523 17 16 17.4477 16 18V21C16 21.5523 15.5523 22 15 22H9C8.44772 22 8 21.5523 8 21V18C8 17.4477 8.44772 17 9 17Z" fill="#1F2937"/>
</svg>
