<svg width="24" height="24" viewBox="0 0 24 24" fill="none" xmlns="http://www.w3.org/2000/svg">
<path fill-rule="evenodd" clip-rule="evenodd" d="M12 4C7.58172 4 4 7.58172 4 12C4 16.4183 7.58172 20 12 20C16.4183 20 20 16.4183 20 12C20 7.58172 16.4183 4 12 4ZM2 12C2 6.47715 6.47715 2 12 2C17.5228 2 22 6.47715 22 12C22 17.5228 17.5228 22 12 22C6.47715 22 2 17.5228 2 12Z" fill="#1F2937"/>
<path fill-rule="evenodd" clip-rule="evenodd" d="M12 2C12.5523 2 13 2.44772 13 3V7C13 7.55228 12.5523 8 12 8C11.4477 8 11 7.55228 11 7V3C11 2.44772 11.4477 2 12 2Z" fill="#1F2937"/>
<path fill-rule="evenodd" clip-rule="evenodd" d="M12 17C12.5523 17 13 17.4477 13 18V21C13 21.5523 12.5523 22 12 22C11.4477 22 11 21.5523 11 21V18C11 17.4477 11.4477 17 12 17Z" fill="#1F2937"/>
<path fill-rule="evenodd" clip-rule="evenodd" d="M2 12C2 11.4477 2.44772 11 3 11H7C7.55228 11 8 11.4477 8 12C8 12.5523 7.55228 13 7 13H3C2.44772 13 2 12.5523 2 12Z" fill="#1F2937"/>
<path fill-rule="evenodd" clip-rule="evenodd" d="M17 12C17 11.4477 17.4477 11 18 11H21C21.5523 11 22 11.4477 22 12C22 12.5523 21.5523 13 21 13H18C17.4477 13 17 12.5523 17 12Z" fill="#1F2937"/>
<path fill-rule="evenodd" clip-rule="evenodd" d="M12 11C12.5523 11 13 11.4477 13 12V12.01C13 12.5623 12.5523 13.01 12 13.01C11.4477 13.01 11 12.5623 11 12.01V12C11 11.4477 11.4477 11 12 11Z" fill="#1F2937"/>
</svg>
