<svg width="24" height="24" viewBox="0 0 24 24" fill="none" xmlns="http://www.w3.org/2000/svg">
<path fill-rule="evenodd" clip-rule="evenodd" d="M6.70711 8.29289C7.09763 8.68342 7.09763 9.31658 6.70711 9.70711L5.41421 11H10C10.5523 11 11 11.4477 11 12C11 12.5523 10.5523 13 10 13H5.41421L6.70711 14.2929C7.09763 14.6834 7.09763 15.3166 6.70711 15.7071C6.31658 16.0976 5.68342 16.0976 5.29289 15.7071L2.29289 12.7071C1.90237 12.3166 1.90237 11.6834 2.29289 11.2929L5.29289 8.29289C5.68342 7.90237 6.31658 7.90237 6.70711 8.29289Z" fill="#1F2937"/>
<path fill-rule="evenodd" clip-rule="evenodd" d="M17.2929 8.29289C17.6834 7.90237 18.3166 7.90237 18.7071 8.29289L21.7071 11.2929C22.0976 11.6834 22.0976 12.3166 21.7071 12.7071L18.7071 15.7071C18.3166 16.0976 17.6834 16.0976 17.2929 15.7071C16.9024 15.3166 16.9024 14.6834 17.2929 14.2929L18.5858 13H14C13.4477 13 13 12.5523 13 12C13 11.4477 13.4477 11 14 11H18.5858L17.2929 9.70711C16.9024 9.31658 16.9024 8.68342 17.2929 8.29289Z" fill="#1F2937"/>
<path fill-rule="evenodd" clip-rule="evenodd" d="M2 3C2 2.44772 2.44772 2 3 2H21C21.5523 2 22 2.44772 22 3V6C22 6.55228 21.5523 7 21 7C20.4477 7 20 6.55228 20 6V4H4V6C4 6.55228 3.55228 7 3 7C2.44772 7 2 6.55228 2 6V3Z" fill="#1F2937"/>
<path fill-rule="evenodd" clip-rule="evenodd" d="M3 17C3.55228 17 4 17.4477 4 18V20H20V18C20 17.4477 20.4477 17 21 17C21.5523 17 22 17.4477 22 18V21C22 21.5523 21.5523 22 21 22H3C2.44772 22 2 21.5523 2 21V18C2 17.4477 2.44772 17 3 17Z" fill="#1F2937"/>
</svg>
