<svg width="24" height="24" viewBox="0 0 24 24" fill="none" xmlns="http://www.w3.org/2000/svg">
<g clip-path="url(#clip0_6407_5454)">
<path fill-rule="evenodd" clip-rule="evenodd" d="M12 8.00751C9.79086 8.00751 8 9.79837 8 12.0075C8 14.2166 9.79086 16.0075 12 16.0075C14.2091 16.0075 16 14.2166 16 12.0075C16 9.79837 14.2091 8.00751 12 8.00751ZM6 12.0075C6 8.6938 8.68629 6.00751 12 6.00751C15.3137 6.00751 18 8.6938 18 12.0075C18 15.3212 15.3137 18.0075 12 18.0075C8.68629 18.0075 6 15.3212 6 12.0075Z" fill="#1F2937"/>
<path fill-rule="evenodd" clip-rule="evenodd" d="M10 3C10 2.44772 10.4477 2 11 2H13C13.5523 2 14 2.44772 14 3C14 3.55228 13.5523 4 13 4V7C13 7.55228 12.5523 8 12 8C11.4477 8 11 7.55228 11 7V4C10.4477 4 10 3.55228 10 3ZM5.63604 4.23025C6.02656 3.83973 6.65973 3.83973 7.05025 4.23025C7.44078 4.62078 7.44078 5.25394 7.05025 5.64447L9.17157 7.76578C9.5621 8.1563 9.5621 8.78947 9.17157 9.17999C8.78105 9.57052 8.14788 9.57052 7.75736 9.17999L5.63604 7.05868C5.24551 7.4492 4.61235 7.4492 4.22182 7.05867C3.8313 6.66815 3.8313 6.03499 4.22183 5.64446L5.63604 4.23025ZM16.9497 4.23773C17.3403 3.84721 17.9734 3.84721 18.364 4.23774L19.7782 5.65195C20.1687 6.04247 20.1687 6.67564 19.7782 7.06616C19.3876 7.45669 18.7545 7.45669 18.364 7.06616L16.2426 9.18749C15.8521 9.57801 15.219 9.57801 14.8284 9.18749C14.4379 8.79696 14.4379 8.1638 14.8284 7.77327L16.9497 5.65195C16.5592 5.26142 16.5592 4.62826 16.9497 4.23773ZM21 9.99251C21.5523 9.99251 22 10.4402 22 10.9925V12.9925C22 13.5448 21.5523 13.9925 21 13.9925C20.4477 13.9925 20 13.5448 20 12.9925H17C16.4477 12.9925 16 12.5448 16 11.9925C16 11.4402 16.4477 10.9925 17 10.9925L20 10.9925C20 10.4402 20.4477 9.99251 21 9.99251ZM3 10.0075C3.55228 10.0075 4 10.4552 4 11.0075H7C7.55228 11.0075 8 11.4552 8 12.0075C8 12.5598 7.55228 13.0075 7 13.0075H4C4 13.5598 3.55228 14.0075 3 14.0075C2.44772 14.0075 2 13.5598 2 13.0075V11.0075C2 10.4552 2.44772 10.0075 3 10.0075ZM9.17157 14.8125C9.5621 15.203 9.5621 15.8362 9.17158 16.2267L7.05025 18.3481C7.44078 18.7386 7.44078 19.3717 7.05025 19.7623C6.65973 20.1528 6.02656 20.1528 5.63604 19.7623L4.22182 18.348C3.8313 17.9575 3.8313 17.3244 4.22183 16.9338C4.61235 16.5433 5.24552 16.5433 5.63604 16.9338L7.75736 14.8125C8.14788 14.422 8.78105 14.422 9.17157 14.8125ZM14.8284 14.82C15.219 14.4295 15.8521 14.4295 16.2426 14.82L18.364 16.9413C18.7545 16.5508 19.3876 16.5508 19.7782 16.9413C20.1687 17.3318 20.1687 17.965 19.7782 18.3555L19.0717 19.0621C19.0715 19.0623 19.0718 19.0619 19.0717 19.0621C19.0715 19.0623 19.0707 19.063 19.0705 19.0632L18.364 19.7698C17.9734 20.1603 17.3403 20.1603 16.9497 19.7698C16.5592 19.3792 16.5592 18.7461 16.9497 18.3555L14.8284 16.2342C14.4379 15.8437 14.4379 15.2105 14.8284 14.82ZM12 16C12.5523 16 13 16.4477 13 17V20C13.5523 20 14 20.4477 14 21C14 21.5523 13.5523 22 13 22H11C10.4477 22 10 21.5523 10 21C10 20.4477 10.4477 20 11 20V17C11 16.4477 11.4477 16 12 16Z" fill="#1F2937"/>
</g>
<defs>
<clipPath id="clip0_6407_5454">
<rect width="24" height="24" fill="white"/>
</clipPath>
</defs>
</svg>
