<svg width="24" height="24" viewBox="0 0 24 24" fill="none" xmlns="http://www.w3.org/2000/svg">
<path fill-rule="evenodd" clip-rule="evenodd" d="M10 5.47473L6.78935 9.60272C6.5999 9.8463 6.30859 9.98878 6 9.98878H4L4 13.9888L6 13.9888C6.30859 13.9888 6.5999 14.1313 6.78935 14.3748L10 18.5028V5.47473ZM9.53226 3.18794C9.93016 3.02587 10.3729 3.01147 10.7805 3.14733C11.1881 3.28319 11.5336 3.56036 11.7547 3.92875C11.9584 4.26822 12.044 4.66451 12 5.05609V18.9215C12.044 19.313 11.9584 19.7093 11.7547 20.0488C11.5336 20.4172 11.1881 20.6944 10.7805 20.8302C10.3729 20.9661 9.93016 20.9517 9.53226 20.7896C9.16889 20.6416 8.8648 20.3794 8.66499 20.044L5.51092 15.9888H4C3.46957 15.9888 2.96086 15.7781 2.58579 15.403C2.21071 15.0279 2 14.5192 2 13.9888V9.98878C2 9.45834 2.21071 8.94964 2.58579 8.57456C2.96086 8.19949 3.46957 7.98878 4 7.98878H5.51092L8.66499 3.93353C8.86481 3.5982 9.16889 3.33595 9.53226 3.18794Z" fill="#1F2937"/>
<path fill-rule="evenodd" clip-rule="evenodd" d="M15.2929 9.30038C15.6834 8.90986 16.3166 8.90986 16.7071 9.30038L18 10.5933L19.2929 9.30038C19.6834 8.90986 20.3166 8.90986 20.7071 9.30038C21.0976 9.69091 21.0976 10.3241 20.7071 10.7146L19.4142 12.0075L20.7071 13.3004C21.0976 13.6909 21.0976 14.3241 20.7071 14.7146C20.3166 15.1051 19.6834 15.1051 19.2929 14.7146L18 13.4217L16.7071 14.7146C16.3166 15.1051 15.6834 15.1051 15.2929 14.7146C14.9024 14.3241 14.9024 13.6909 15.2929 13.3004L16.5858 12.0075L15.2929 10.7146C14.9024 10.3241 14.9024 9.69091 15.2929 9.30038Z" fill="#1F2937"/>
</svg>
