<svg width="24" height="24" viewBox="0 0 24 24" fill="none" xmlns="http://www.w3.org/2000/svg">
<path fill-rule="evenodd" clip-rule="evenodd" d="M14.2001 7.39251C14.5314 6.95069 15.1582 6.86114 15.6001 7.19251C16.3452 7.7514 16.9501 8.4761 17.3666 9.30923C17.7832 10.1424 18.0001 11.061 18.0001 11.9925C18.0001 12.924 17.7832 13.8427 17.3666 14.6758C16.9501 15.5089 16.3452 16.2336 15.6001 16.7925C15.1582 17.1239 14.5314 17.0343 14.2001 16.5925C13.8687 16.1507 13.9582 15.5239 14.4001 15.1925C14.8968 14.8199 15.3001 14.3368 15.5778 13.7814C15.8555 13.2259 16.0001 12.6135 16.0001 11.9925C16.0001 11.3715 15.8555 10.7591 15.5778 10.2037C15.3001 9.64824 14.8968 9.1651 14.4001 8.79251C13.9582 8.46114 13.8687 7.83434 14.2001 7.39251Z" fill="#1F2937"/>
<path fill-rule="evenodd" clip-rule="evenodd" d="M16.9225 4.36398C17.2696 3.93442 17.8992 3.8676 18.3288 4.21474C19.4887 5.15213 20.4243 6.3371 21.0671 7.68287C21.7098 9.02864 22.0434 10.5011 22.0434 11.9925C22.0434 13.4839 21.7098 14.9564 21.0671 16.3022C20.4243 17.6479 19.4887 18.8329 18.3288 19.7703C17.8992 20.1174 17.2696 20.0506 16.9225 19.6211C16.5753 19.1915 16.6421 18.5619 17.0717 18.2147C17.9997 17.4648 18.7481 16.5168 19.2623 15.4402C19.7765 14.3636 20.0434 13.1856 20.0434 11.9925C20.0434 10.7994 19.7765 9.62142 19.2623 8.5448C18.7481 7.46818 17.9997 6.5202 17.0717 5.77029C16.6421 5.42316 16.5753 4.79353 16.9225 4.36398Z" fill="#1F2937"/>
<path fill-rule="evenodd" clip-rule="evenodd" d="M10 5.47473L6.78935 9.60272C6.5999 9.8463 6.30859 9.98878 6 9.98878H4L4 13.9888L6 13.9888C6.30859 13.9888 6.5999 14.1313 6.78935 14.3748L10 18.5028V5.47473ZM9.53226 3.18794C9.93016 3.02587 10.3729 3.01147 10.7805 3.14733C11.1881 3.28319 11.5336 3.56036 11.7547 3.92875C11.9584 4.26822 12.044 4.66451 12 5.05609V18.9215C12.044 19.313 11.9584 19.7093 11.7547 20.0488C11.5336 20.4172 11.1881 20.6944 10.7805 20.8302C10.3729 20.9661 9.93016 20.9517 9.53226 20.7896C9.16889 20.6416 8.8648 20.3794 8.66499 20.044L5.51092 15.9888H4C3.46957 15.9888 2.96086 15.7781 2.58579 15.403C2.21071 15.0279 2 14.5192 2 13.9888V9.98878C2 9.45834 2.21071 8.94964 2.58579 8.57456C2.96086 8.19949 3.46957 7.98878 4 7.98878H5.51092L8.66499 3.93353C8.86481 3.5982 9.16889 3.33595 9.53226 3.18794Z" fill="#1F2937"/>
</svg>
