<svg width="24" height="24" viewBox="0 0 24 24" fill="none" xmlns="http://www.w3.org/2000/svg">
<path fill-rule="evenodd" clip-rule="evenodd" d="M3.87868 3.88619C4.44129 3.32358 5.20435 3.00751 6 3.00751H16C16.5304 3.00751 17.0391 3.21822 17.4142 3.59329C17.7893 3.96837 18 4.47708 18 5.00751V7.00751C18.5304 7.00751 19.0391 7.21822 19.4142 7.59329C19.7893 7.96837 20 8.47708 20 9.00751V12.0075C20 12.5598 19.5523 13.0075 19 13.0075C18.4477 13.0075 18 12.5598 18 12.0075V9.00751H6C5.65606 9.00751 5.3182 8.94844 5 8.83594V18.0075C5 18.2727 5.10536 18.5271 5.29289 18.7146C5.48043 18.9022 5.73478 19.0075 6 19.0075H18V16.0075C18 15.4552 18.4477 15.0075 19 15.0075C19.5523 15.0075 20 15.4552 20 16.0075V19.0075C20 19.5379 19.7893 20.0466 19.4142 20.4217C19.0391 20.7968 18.5304 21.0075 18 21.0075H6C5.20435 21.0075 4.44129 20.6914 3.87868 20.1288C3.31607 19.5662 3 18.8032 3 18.0075V6.00751C3 5.21186 3.31607 4.4488 3.87868 3.88619ZM5 6.00751C5 6.27272 5.10536 6.52708 5.29289 6.71461C5.48043 6.90215 5.73478 7.00751 6 7.00751H16L16 5.00751L6 5.00751C5.73478 5.00751 5.48043 5.11286 5.29289 5.3004C5.10536 5.48794 5 5.74229 5 6.00751Z" fill="#1F2937"/>
<path fill-rule="evenodd" clip-rule="evenodd" d="M16 13C15.7348 13 15.4804 13.1054 15.2929 13.2929C15.1054 13.4804 15 13.7348 15 14C15 14.2652 15.1054 14.5196 15.2929 14.7071C15.4804 14.8946 15.7348 15 16 15H19V13H16ZM13.8787 11.8787C14.4413 11.3161 15.2043 11 16 11H20C20.5523 11 21 11.4477 21 12V16C21 16.5523 20.5523 17 20 17H16C15.2043 17 14.4413 16.6839 13.8787 16.1213C13.3161 15.5587 13 14.7957 13 14C13 13.2043 13.3161 12.4413 13.8787 11.8787Z" fill="#1F2937"/>
</svg>
