<svg width="24" height="24" viewBox="0 0 24 24" fill="none" xmlns="http://www.w3.org/2000/svg">
<path fill-rule="evenodd" clip-rule="evenodd" d="M17.2929 2.29289C17.6834 1.90237 18.3166 1.90237 18.7071 2.29289L21.7071 5.29289C22.0976 5.68342 22.0976 6.31658 21.7071 6.70711L6.70711 21.7071C6.31658 22.0976 5.68342 22.0976 5.29289 21.7071L2.29289 18.7071C1.90237 18.3166 1.90237 17.6834 2.29289 17.2929L17.2929 2.29289ZM4.41421 18L6 19.5858L19.5858 6L18 4.41421L4.41421 18Z" fill="#1F2937"/>
<path fill-rule="evenodd" clip-rule="evenodd" d="M14.2929 5.29289C14.6834 4.90237 15.3166 4.90237 15.7071 5.29289L18.7071 8.29289C19.0976 8.68342 19.0976 9.31658 18.7071 9.70711C18.3166 10.0976 17.6834 10.0976 17.2929 9.70711L14.2929 6.70711C13.9024 6.31658 13.9024 5.68342 14.2929 5.29289Z" fill="#1F2937"/>
<path fill-rule="evenodd" clip-rule="evenodd" d="M9 2C9.55228 2 10 2.44772 10 3C10 3.26522 10.1054 3.51957 10.2929 3.70711C10.4804 3.89464 10.7348 4 11 4C11.5523 4 12 4.44772 12 5C12 5.55228 11.5523 6 11 6C10.7348 6 10.4804 6.10536 10.2929 6.29289C10.1054 6.48043 10 6.73478 10 7C10 7.55228 9.55228 8 9 8C8.44772 8 8 7.55228 8 7C8 6.73478 7.89464 6.48043 7.70711 6.29289C7.51957 6.10536 7.26522 6 7 6C6.44772 6 6 5.55228 6 5C6 4.44772 6.44772 4 7 4C7.26522 4 7.51957 3.89464 7.70711 3.70711C7.89464 3.51957 8 3.26522 8 3C8 2.44772 8.44772 2 9 2Z" fill="#1F2937"/>
<path fill-rule="evenodd" clip-rule="evenodd" d="M19 12.0075C19.5523 12.0075 20 12.4552 20 13.0075C20 13.2727 20.1054 13.5271 20.2929 13.7146C20.4804 13.9022 20.7348 14.0075 21 14.0075C21.5523 14.0075 22 14.4552 22 15.0075C22 15.5598 21.5523 16.0075 21 16.0075C20.7348 16.0075 20.4804 16.1129 20.2929 16.3004C20.1054 16.4879 20 16.7423 20 17.0075C20 17.5598 19.5523 18.0075 19 18.0075C18.4477 18.0075 18 17.5598 18 17.0075C18 16.7423 17.8946 16.4879 17.7071 16.3004C17.5196 16.1129 17.2652 16.0075 17 16.0075C16.4477 16.0075 16 15.5598 16 15.0075C16 14.4552 16.4477 14.0075 17 14.0075C17.2652 14.0075 17.5196 13.9022 17.7071 13.7146C17.8946 13.5271 18 13.2727 18 13.0075C18 12.4552 18.4477 12.0075 19 12.0075Z" fill="#1F2937"/>
</svg>
