<svg width="24" height="24" viewBox="0 0 24 24" fill="none" xmlns="http://www.w3.org/2000/svg">
<path fill-rule="evenodd" clip-rule="evenodd" d="M8.31042 5.46441C7.98089 6.03517 7.76701 6.66525 7.68099 7.31867C7.59496 7.97209 7.63848 8.63605 7.80906 9.27266C7.97963 9.90926 8.27393 10.506 8.67514 11.0289C8.73533 11.1073 8.79774 11.1839 8.86229 11.2584L6.13099 15.9892C5.85485 16.4675 6.01873 17.0791 6.49702 17.3552C6.97531 17.6313 7.5869 17.4675 7.86305 16.9892L10.9819 11.5872L11.4073 10.8504L10.7481 10.3124C10.5676 10.1651 10.4043 9.99708 10.2618 9.81137C10.0205 9.49688 9.84351 9.13793 9.74091 8.75502C9.63831 8.37211 9.61213 7.97274 9.66388 7.57972C9.71562 7.1867 9.84427 6.80771 10.0425 6.46441C10.2407 6.1211 10.5046 5.8202 10.8191 5.57887C11.1336 5.33755 11.4925 5.16054 11.8754 5.05794C12.2583 4.95534 12.6577 4.92916 13.0507 4.9809C13.4437 5.03265 13.8227 5.16129 14.166 5.3595C14.6443 5.63564 15.2559 5.47177 15.5321 4.99348C15.8082 4.51518 15.6443 3.90359 15.166 3.62745C14.5953 3.29792 13.9652 3.08404 13.3118 2.99801C12.6584 2.91199 11.9944 2.95551 11.3578 3.12608C10.7212 3.29666 10.1244 3.59096 9.60154 3.99217C9.07868 4.39338 8.63995 4.89364 8.31042 5.46441ZM20.0606 12.5829C20.5834 12.9841 21.0222 13.4844 21.3517 14.0551C21.6812 14.6259 21.8951 15.256 21.9811 15.9094C22.0671 16.5628 22.0236 17.2268 21.853 17.8634C21.6825 18.5 21.3882 19.0967 20.987 19.6196C20.5858 20.1425 20.0855 20.5812 19.5147 20.9107C19.0364 21.1869 18.4248 21.023 18.1487 20.5447C17.8726 20.0664 18.0364 19.4548 18.5147 19.1787C18.858 18.9805 19.1589 18.7166 19.4003 18.4021C19.6416 18.0876 19.8186 17.7286 19.9212 17.3457C20.0238 16.9628 20.05 16.5635 19.9982 16.1704C19.9465 15.7774 19.8178 15.3984 19.6196 15.0551C19.4214 14.7118 19.1575 14.4109 18.843 14.1696C18.5285 13.9283 18.1696 13.7513 17.7867 13.6487C17.4038 13.5461 17.0044 13.5199 16.6114 13.5716C16.3793 13.6022 16.1521 13.6595 15.9343 13.7422L15.1389 14.0441L14.7135 13.3073L11.5946 7.90529C11.3185 7.427 11.4824 6.81541 11.9606 6.53927C12.4389 6.26313 13.0505 6.427 13.3267 6.90529L16.058 11.636C16.1548 11.6174 16.2523 11.6016 16.3503 11.5887C17.0038 11.5027 17.6677 11.5462 18.3043 11.7168C18.9409 11.8874 19.5377 12.1817 20.0606 12.5829ZM8.91516 20.6627C8.30627 20.9149 7.65366 21.0447 6.99461 21.0447C6.33555 21.0447 5.68294 20.9149 5.07405 20.6627C4.46516 20.4105 3.91191 20.0408 3.44588 19.5748C2.97986 19.1087 2.61018 18.5555 2.35797 17.9466C2.10576 17.3377 1.97595 16.6851 1.97595 16.026C1.97595 15.4738 2.42367 15.026 2.97595 15.026C3.52824 15.026 3.97595 15.4738 3.97595 16.026C3.97595 16.4225 4.05403 16.815 4.20573 17.1812C4.35743 17.5475 4.57979 17.8803 4.86009 18.1606C5.1404 18.4409 5.47318 18.6632 5.83942 18.8149C6.20566 18.9666 6.59819 19.0447 6.99461 19.0447C7.39102 19.0447 7.78356 18.9666 8.1498 18.8149C8.51604 18.6632 8.84881 18.4409 9.12912 18.1606C9.40943 17.8803 9.63178 17.5475 9.78348 17.1812C9.87306 16.965 9.93696 16.7396 9.97428 16.5096L10.1106 15.6698H10.9614H17.199C17.7513 15.6698 18.199 16.1175 18.199 16.6698C18.199 17.222 17.7513 17.6698 17.199 17.6698H11.7365C11.7042 17.7629 11.6691 17.8553 11.6312 17.9466C11.379 18.5555 11.0094 19.1087 10.5433 19.5748C10.0773 20.0408 9.52405 20.4105 8.91516 20.6627Z" fill="#1F2937"/>
</svg>
