<svg width="18" height="18" viewBox="0 0 18 18" fill="none" xmlns="http://www.w3.org/2000/svg">
<g id="Frame" clip-path="url(#clip0_25101_97511)">
<g id="Group">
<path id="Vector" fill-rule="evenodd" clip-rule="evenodd" d="M10.7907 9.87685C10.5068 9.99287 10.3254 10.4373 10.1414 10.6644C10.0471 10.7807 9.93461 10.7988 9.78959 10.7405C8.72407 10.316 7.90727 9.60498 7.31929 8.62441C7.21968 8.47236 7.23755 8.35225 7.35767 8.21104C7.53521 8.00186 7.75845 7.76426 7.80649 7.48242C7.91313 6.85898 7.0981 4.9251 6.02174 5.80137C2.92449 8.32529 11.1885 15.0193 12.68 11.3988C13.1019 10.3726 11.2612 9.68408 10.7907 9.87685ZM9.00004 15.1898C7.90464 15.1898 6.82681 14.8986 5.88316 14.3473C5.7317 14.2585 5.5486 14.2351 5.37926 14.2811L3.32878 14.8438L4.04304 13.2703C4.09081 13.1653 4.10995 13.0494 4.09853 12.9346C4.08711 12.8198 4.04553 12.71 3.978 12.6164C3.21394 11.5573 2.80994 10.3069 2.80994 9C2.80994 5.58662 5.58668 2.80986 9.00004 2.80986C12.4134 2.80986 15.1899 5.58662 15.1899 9C15.1899 12.4131 12.4131 15.1898 9.00004 15.1898ZM9.00004 1.5C4.86452 1.5 1.50008 4.86445 1.50008 9C1.50008 10.4549 1.91317 11.852 2.69802 13.0646L1.55868 15.5739C1.50719 15.6873 1.48905 15.8129 1.50638 15.9362C1.52371 16.0595 1.57579 16.1753 1.65653 16.27C1.7181 16.3421 1.79456 16.4 1.88063 16.4397C1.96671 16.4794 2.06037 16.4999 2.15516 16.5C2.57762 16.5 4.88122 15.7761 5.46744 15.6152C6.55113 16.195 7.76665 16.5 9.00004 16.5C13.1353 16.5 16.5 13.1353 16.5 9C16.5 4.86445 13.1353 1.5 9.00004 1.5Z" fill="white"/>
</g>
</g>
<defs>
<clipPath id="clip0_25101_97511">
<rect width="18" height="18" fill="white"/>
</clipPath>
</defs>
</svg>
