<svg width="24" height="24" viewBox="0 0 24 24" fill="none" xmlns="http://www.w3.org/2000/svg">
<path fill-rule="evenodd" clip-rule="evenodd" d="M14.3875 13.1691C14.009 13.3238 13.7672 13.9164 13.5219 14.2191C13.3961 14.3742 13.2461 14.3984 13.0528 14.3207C11.6321 13.7547 10.543 12.8066 9.75905 11.4992C9.62624 11.2965 9.65007 11.1363 9.81022 10.948C10.0469 10.6691 10.3446 10.3523 10.4087 9.97656C10.5508 9.14531 9.46413 6.5668 8.02898 7.73516C3.89932 11.1004 14.918 20.0258 16.9067 15.1984C17.4692 13.8301 15.0149 12.9121 14.3875 13.1691ZM12.0001 20.2531C10.5395 20.2531 9.10241 19.8648 7.84422 19.1297C7.64227 19.0113 7.39813 18.9801 7.17235 19.0414L4.43838 19.7918L5.39072 17.6938C5.45441 17.5537 5.47994 17.3993 5.46471 17.2461C5.44948 17.093 5.39404 16.9467 5.304 16.8219C4.28525 15.4098 3.74658 13.7426 3.74658 12C3.74658 7.44883 7.44891 3.74648 12.0001 3.74648C16.5512 3.74648 20.2531 7.44883 20.2531 12C20.2531 16.5508 16.5508 20.2531 12.0001 20.2531ZM12.0001 2C6.48602 2 2.00011 6.48594 2.00011 12C2.00011 13.9398 2.55089 15.8027 3.59737 17.4195L2.07823 20.7652C2.00959 20.9164 1.9854 21.0839 2.00851 21.2483C2.03161 21.4126 2.10105 21.567 2.2087 21.6934C2.2908 21.7894 2.39274 21.8666 2.50751 21.9195C2.62228 21.9725 2.74715 21.9999 2.87354 22C3.43682 22 6.50829 21.0348 7.28992 20.8203C8.73484 21.5934 10.3555 22 12.0001 22C17.5137 22 22 17.5137 22 12C22 6.48594 17.5137 2 12.0001 2Z" fill="#1F2937"/>
</svg>
