<svg width="24" height="24" viewBox="0 0 24 24" fill="none" xmlns="http://www.w3.org/2000/svg">
<g clip-path="url(#clip0_6407_5589)">
<path fill-rule="evenodd" clip-rule="evenodd" d="M11.2941 18.708C10.9041 18.317 10.9041 17.683 11.2941 17.292L11.3012 17.2849C11.6913 16.894 12.3237 16.894 12.7137 17.2849C13.1038 17.6759 13.1038 18.3099 12.7137 18.7009L12.7066 18.708C12.3166 19.099 11.6842 19.099 11.2941 18.708Z" fill="#1F2937"/>
<path fill-rule="evenodd" clip-rule="evenodd" d="M8.46394 15.8712C8.07342 15.4807 8.07342 14.8475 8.46394 14.457C9.40162 13.5193 10.6734 12.9925 11.9995 12.9925C13.3256 12.9925 14.5973 13.5193 15.535 14.457C15.9255 14.8475 15.9255 15.4807 15.535 15.8712C15.1445 16.2618 14.5113 16.2618 14.1208 15.8712C13.5582 15.3086 12.7951 14.9925 11.9995 14.9925C11.2038 14.9925 10.4408 15.3086 9.87815 15.8712C9.48763 16.2618 8.85446 16.2618 8.46394 15.8712Z" fill="#1F2937"/>
<path fill-rule="evenodd" clip-rule="evenodd" d="M5.63582 13.0587C5.24529 12.6681 5.24529 12.035 5.63582 11.6445C7.32365 9.95663 9.61283 9.00842 11.9998 9.00842C14.3867 9.00842 16.6759 9.95663 18.3637 11.6445C18.7543 12.035 18.7543 12.6681 18.3637 13.0587C17.9732 13.4492 17.3401 13.4492 16.9495 13.0587C15.6368 11.7459 13.8563 11.0084 11.9998 11.0084C10.1433 11.0084 8.36279 11.7459 7.05003 13.0587C6.65951 13.4492 6.02634 13.4492 5.63582 13.0587Z" fill="#1F2937"/>
<path fill-rule="evenodd" clip-rule="evenodd" d="M2.80769 10.2228C2.41717 9.83227 2.41717 9.1991 2.80769 8.80858C5.24567 6.37061 8.55227 5.00097 12.0001 5.00097C15.4479 5.00097 18.7545 6.37061 21.1925 8.80858C21.583 9.1991 21.583 9.83227 21.1925 10.2228C20.8019 10.6133 20.1688 10.6133 19.7783 10.2228C17.7154 8.15989 14.9175 7.00097 12.0001 7.00097C9.0827 7.00097 6.28481 8.15989 4.22191 10.2228C3.83138 10.6133 3.19822 10.6133 2.80769 10.2228Z" fill="#1F2937"/>
</g>
<defs>
<clipPath id="clip0_6407_5589">
<rect width="24" height="24" fill="white"/>
</clipPath>
</defs>
</svg>
