<svg width="24" height="24" viewBox="0 0 24 24" fill="none" xmlns="http://www.w3.org/2000/svg">
<path fill-rule="evenodd" clip-rule="evenodd" d="M11.2941 18.708C10.9041 18.317 10.9041 17.683 11.2941 17.292L11.3012 17.2849C11.6913 16.894 12.3237 16.894 12.7137 17.2849C13.1038 17.6759 13.1038 18.3099 12.7137 18.7009L12.7066 18.708C12.3166 19.099 11.6842 19.099 11.2941 18.708Z" fill="#1F2937"/>
<path fill-rule="evenodd" clip-rule="evenodd" d="M8.46492 15.8712C8.07439 15.4807 8.07439 14.8475 8.46492 14.457C9.4026 13.5193 10.6744 12.9925 12.0004 12.9925C13.3265 12.9925 14.5983 13.5193 15.536 14.457C15.9265 14.8475 15.9265 15.4807 15.536 15.8712C15.1455 16.2618 14.5123 16.2618 14.1218 15.8712C13.5592 15.3086 12.7961 14.9925 12.0004 14.9925C11.2048 14.9925 10.4417 15.3086 9.87913 15.8712C9.4886 16.2618 8.85544 16.2618 8.46492 15.8712Z" fill="#1F2937"/>
</svg>
