<svg width="24" height="24" viewBox="0 0 24 24" fill="none" xmlns="http://www.w3.org/2000/svg">
<path fill-rule="evenodd" clip-rule="evenodd" d="M11.2932 18.708C10.9031 18.317 10.9031 17.683 11.2932 17.292L11.3002 17.2849C11.6903 16.894 12.3227 16.894 12.7127 17.2849C13.1028 17.6759 13.1028 18.3099 12.7127 18.7009L12.7057 18.708C12.3156 19.099 11.6832 19.099 11.2932 18.708Z" fill="#1F2937"/>
<path fill-rule="evenodd" clip-rule="evenodd" d="M8.46394 15.8946C8.07342 15.5041 8.07342 14.8709 8.46394 14.4804C9.40162 13.5427 10.6734 13.0159 11.9995 13.0159C13.3256 13.0159 14.5973 13.5427 15.535 14.4804C15.9255 14.8709 15.9255 15.5041 15.535 15.8946C15.1445 16.2851 14.5113 16.2851 14.1208 15.8946C13.5582 15.332 12.7951 15.0159 11.9995 15.0159C11.2038 15.0159 10.4408 15.332 9.87815 15.8946C9.48763 16.2851 8.85446 16.2851 8.46394 15.8946Z" fill="#1F2937"/>
<path fill-rule="evenodd" clip-rule="evenodd" d="M5.63582 13.0587C5.24529 12.6681 5.24529 12.035 5.63582 11.6445C7.32364 9.95663 9.61283 9.00842 11.9998 9.00842C14.3867 9.00842 16.6759 9.95663 18.3637 11.6445C18.7543 12.035 18.7543 12.6681 18.3637 13.0587C17.9732 13.4492 17.34 13.4492 16.9495 13.0587C15.6368 11.7459 13.8563 11.0084 11.9998 11.0084C10.1433 11.0084 8.36279 11.7459 7.05003 13.0587C6.65951 13.4492 6.02634 13.4492 5.63582 13.0587Z" fill="#1F2937"/>
</svg>
