<svg width="24" height="24" viewBox="0 0 24 24" fill="none" xmlns="http://www.w3.org/2000/svg">
<path fill-rule="evenodd" clip-rule="evenodd" d="M12.9819 2.04648C13.6237 1.94133 14.2821 2.01707 14.8832 2.26519C15.4843 2.51331 16.0044 2.92401 16.3852 3.45121C16.766 3.97841 16.9923 4.60127 17.0389 5.24993C17.0854 5.89858 16.9503 6.54738 16.6487 7.12354C16.3471 7.69971 15.891 8.18045 15.3314 8.51186C14.7749 8.8415 14.1379 9.01042 13.4912 8.99996H5C4.44772 8.99996 4 8.55224 4 7.99996C4 7.44768 4.44772 6.99996 5 6.99996H13.5L13.5191 7.00014C13.7978 7.00548 14.0724 6.93306 14.3122 6.79103C14.552 6.649 14.7475 6.44297 14.8768 6.19604C15.006 5.94912 15.0639 5.67106 15.044 5.39307C15.024 5.11507 14.927 4.84813 14.7638 4.62219C14.6007 4.39625 14.3778 4.22024 14.1201 4.1139C13.8625 4.00756 13.5803 3.9751 13.3053 4.02016C13.0303 4.06523 12.7732 4.18603 12.563 4.36902C12.3528 4.55201 12.1977 4.78995 12.1151 5.05615C11.9516 5.58366 11.3913 5.87868 10.8638 5.7151C10.3363 5.55152 10.0413 4.99129 10.2049 4.46378C10.3975 3.84264 10.7593 3.28744 11.2499 2.86047C11.7404 2.43349 12.3402 2.15162 12.9819 2.04648Z" fill="#1F2937"/>
<path fill-rule="evenodd" clip-rule="evenodd" d="M19.3122 13.2089C19.0724 13.0669 18.7978 12.9945 18.5191 12.9998L18.5 13H3C2.44772 13 2 12.5523 2 12C2 11.4477 2.44772 11 3 11H18.4912C19.1379 10.9895 19.7749 11.1584 20.3314 11.4881C20.891 11.8195 21.3471 12.3002 21.6487 12.8764C21.9503 13.4526 22.0854 14.1014 22.0389 14.75C21.9923 15.3987 21.766 16.0215 21.3852 16.5488C21.0044 17.076 20.4843 17.4867 19.8832 17.7348C19.2821 17.9829 18.6237 18.0586 17.9819 17.9535C17.3402 17.8483 16.7404 17.5665 16.2499 17.1395C15.7593 16.7125 15.3975 16.1573 15.2049 15.5362C15.0413 15.0087 15.3363 14.4484 15.8638 14.2849C16.3913 14.1213 16.9516 14.4163 17.1151 14.9438C17.1977 15.21 17.3528 15.448 17.563 15.631C17.7732 15.8139 18.0303 15.9347 18.3053 15.9798C18.5803 16.0249 18.8625 15.9924 19.1201 15.8861C19.3778 15.7797 19.6007 15.6037 19.7638 15.3778C19.927 15.1518 20.024 14.8849 20.044 14.6069C20.0639 14.3289 20.006 14.0508 19.8768 13.8039C19.7475 13.557 19.552 13.3509 19.3122 13.2089Z" fill="#1F2937"/>
<path fill-rule="evenodd" clip-rule="evenodd" d="M10.3122 17.1939C10.0724 17.0519 9.79779 16.9795 9.51913 16.9848L9.5 16.985H4C3.44772 16.985 3 16.5373 3 15.985C3 15.4327 3.44772 14.985 4 14.985H9.49123C10.1379 14.9746 10.7749 15.1435 11.3314 15.4731C11.891 15.8045 12.3471 16.2853 12.6487 16.8614C12.9503 17.4376 13.0854 18.0864 13.0389 18.735C12.9923 19.3837 12.766 20.0066 12.3852 20.5338C12.0044 21.061 11.4843 21.4717 10.8832 21.7198C10.2821 21.9679 9.62371 22.0436 8.98194 21.9385C8.34017 21.8333 7.74039 21.5515 7.24987 21.1245C6.75935 20.6975 6.39748 20.1423 6.20487 19.5212C6.04129 18.9937 6.33631 18.4335 6.86382 18.2699C7.39132 18.1063 7.95155 18.4013 8.11513 18.9288C8.19768 19.195 8.35276 19.433 8.56299 19.616C8.77321 19.7989 9.03026 19.9197 9.3053 19.9648C9.58035 20.0099 9.8625 19.9774 10.1201 19.8711C10.3778 19.7647 10.6007 19.5887 10.7638 19.3628C10.927 19.1368 11.024 18.8699 11.044 18.5919C11.0639 18.3139 11.006 18.0359 10.8768 17.7889C10.7475 17.542 10.552 17.336 10.3122 17.1939Z" fill="#1F2937"/>
</svg>
