<svg width="24" height="24" viewBox="0 0 24 24" fill="none" xmlns="http://www.w3.org/2000/svg">
<path fill-rule="evenodd" clip-rule="evenodd" d="M12 4C11.4477 4 11 4.44772 11 5C11 5.55228 11.4477 6 12 6C12.5523 6 13 5.55228 13 5C13 4.44772 12.5523 4 12 4ZM9 5C9 3.34315 10.3431 2 12 2C13.6569 2 15 3.34315 15 5C15 6.65685 13.6569 8 12 8C10.3431 8 9 6.65685 9 5Z" fill="#1F2937"/>
<path fill-rule="evenodd" clip-rule="evenodd" d="M9.58579 10.5783C9.96087 10.2032 10.4696 9.99252 11 9.99252H13C13.5304 9.99252 14.0391 10.2032 14.4142 10.5783C14.7444 10.9085 14.9473 11.3423 14.991 11.8034L16.9487 17.6763C17.0503 17.9812 16.9992 18.3165 16.8112 18.5772C16.6233 18.838 16.3215 18.9925 16 18.9925H15V21.9925C15 22.5448 14.5523 22.9925 14 22.9925C13.4477 22.9925 13 22.5448 13 21.9925V17.9925C13 17.4402 13.4477 16.9925 14 16.9925H14.6126L13.0513 12.3088C13.0173 12.2068 13 12.1 13 11.9925L11 11.9925C11 12.1 10.9827 12.2068 10.9487 12.3088L9.38743 16.9925H10C10.5523 16.9925 11 17.4402 11 17.9925V21.9925C11 22.5448 10.5523 22.9925 10 22.9925C9.44772 22.9925 9.00001 22.5448 9.00001 21.9925V18.9925H8.00001C7.67856 18.9925 7.37672 18.838 7.18877 18.5772C7.00081 18.3165 6.94967 17.9812 7.05132 17.6763L9.00897 11.8034C9.05275 11.3423 9.25557 10.9085 9.58579 10.5783Z" fill="#1F2937"/>
</svg>
