<svg width="24" height="24" viewBox="0 0 24 24" fill="none" xmlns="http://www.w3.org/2000/svg">
<path fill-rule="evenodd" clip-rule="evenodd" d="M12 4C7.58172 4 4 7.58172 4 12C4 16.4183 7.58172 20 12 20C16.4183 20 20 16.4183 20 12C20 7.58172 16.4183 4 12 4ZM2 12C2 6.47715 6.47715 2 12 2C17.5228 2 22 6.47715 22 12C22 17.5228 17.5228 22 12 22C6.47715 22 2 17.5228 2 12Z" fill="#1F2937"/>
<path fill-rule="evenodd" clip-rule="evenodd" d="M2.59961 9C2.59961 8.44772 3.04732 8 3.59961 8H20.3996C20.9519 8 21.3996 8.44772 21.3996 9C21.3996 9.55228 20.9519 10 20.3996 10H3.59961C3.04732 10 2.59961 9.55228 2.59961 9Z" fill="#1F2937"/>
<path fill-rule="evenodd" clip-rule="evenodd" d="M2.59961 15C2.59961 14.4477 3.04732 14 3.59961 14H20.3996C20.9519 14 21.3996 14.4477 21.3996 15C21.3996 15.5523 20.9519 16 20.3996 16H3.59961C3.04732 16 2.59961 15.5523 2.59961 15Z" fill="#1F2937"/>
<path fill-rule="evenodd" clip-rule="evenodd" d="M12.0291 2.15165C12.4976 2.44403 12.6404 3.06089 12.348 3.52942C10.7625 6.07024 9.92188 9.00506 9.92188 12C9.92188 14.995 10.7625 17.9298 12.348 20.4706C12.6404 20.9391 12.4976 21.556 12.0291 21.8484C11.5605 22.1408 10.9437 21.998 10.6513 21.5294C8.86755 18.671 7.92188 15.3693 7.92188 12C7.92188 8.63069 8.86755 5.32901 10.6513 2.4706C10.9437 2.00206 11.5605 1.85926 12.0291 2.15165Z" fill="#1F2937"/>
<path fill-rule="evenodd" clip-rule="evenodd" d="M11.9707 2.15165C12.4393 1.85926 13.0561 2.00206 13.3485 2.4706C15.1323 5.32901 16.0779 8.63069 16.0779 12C16.0779 15.3693 15.1323 18.671 13.3485 21.5294C13.0561 21.998 12.4393 22.1408 11.9707 21.8484C11.5022 21.556 11.3594 20.9391 11.6518 20.4706C13.2373 17.9298 14.0779 14.995 14.0779 12C14.0779 9.00506 13.2373 6.07024 11.6518 3.52942C11.3594 3.06089 11.5022 2.44403 11.9707 2.15165Z" fill="#1F2937"/>
</svg>
