<svg width="20" height="20" viewBox="0 0 20 20" fill="none" xmlns="http://www.w3.org/2000/svg">
<rect x="1.25" y="1.25" width="17.5" height="17.5" rx="4" fill="#FB923C"/>
<path fill-rule="evenodd" clip-rule="evenodd" d="M10.2799 6.05606C7.94711 6.05606 6.05599 7.94718 6.05599 10.28C6.05599 12.6128 7.94711 14.5039 10.2799 14.5039C12.6127 14.5039 14.5039 12.6128 14.5039 10.28C14.5039 7.94718 12.6127 6.05606 10.2799 6.05606ZM5 10.28C5 7.36398 7.3639 5.00007 10.2799 5.00007C13.196 5.00007 15.5599 7.36398 15.5599 10.28C15.5599 13.196 13.196 15.5599 10.2799 15.5599C7.3639 15.5599 5 13.196 5 10.28Z" fill="white"/>
<path fill-rule="evenodd" clip-rule="evenodd" d="M5.3168 8.69602C5.3168 8.40442 5.55319 8.16803 5.84479 8.16803H14.7151C15.0067 8.16803 15.2431 8.40442 15.2431 8.69602C15.2431 8.98762 15.0067 9.22401 14.7151 9.22401H5.84479C5.55319 9.22401 5.3168 8.98762 5.3168 8.69602Z" fill="white"/>
<path fill-rule="evenodd" clip-rule="evenodd" d="M5.3168 11.864C5.3168 11.5724 5.55319 11.336 5.84479 11.336H14.7151C15.0067 11.336 15.2431 11.5724 15.2431 11.864C15.2431 12.1556 15.0067 12.392 14.7151 12.392H5.84479C5.55319 12.392 5.3168 12.1556 5.3168 11.864Z" fill="white"/>
<path fill-rule="evenodd" clip-rule="evenodd" d="M10.2955 5.08013C10.5428 5.23451 10.6182 5.5602 10.4639 5.80759C9.6267 7.14912 9.18287 8.69869 9.18287 10.28C9.18287 11.8613 9.6267 13.4109 10.4639 14.7524C10.6182 14.9998 10.5428 15.3255 10.2955 15.4799C10.0481 15.6342 9.72238 15.5588 9.568 15.3115C8.62619 13.8022 8.12688 12.059 8.12688 10.28C8.12688 8.50102 8.62619 6.75776 9.568 5.24854C9.72238 5.00115 10.0481 4.92576 10.2955 5.08013Z" fill="white"/>
<path fill-rule="evenodd" clip-rule="evenodd" d="M10.2644 5.08013C10.5118 4.92576 10.8375 5.00115 10.9919 5.24854C11.9337 6.75776 12.433 8.50102 12.433 10.28C12.433 12.059 11.9337 13.8022 10.9919 15.3115C10.8375 15.5588 10.5118 15.6342 10.2644 15.4799C10.017 15.3255 9.94162 14.9998 10.096 14.7524C10.9332 13.4109 11.377 11.8613 11.377 10.28C11.377 8.69869 10.9332 7.14912 10.096 5.80759C9.94162 5.5602 10.017 5.23451 10.2644 5.08013Z" fill="white"/>
</svg>
