<svg width="24" height="24" viewBox="0 0 24 24" fill="none" xmlns="http://www.w3.org/2000/svg">
<path fill-rule="evenodd" clip-rule="evenodd" d="M12 4C7.58172 4 4 7.58172 4 12C4 16.4183 7.58172 20 12 20C16.4183 20 20 16.4183 20 12C20 7.58172 16.4183 4 12 4ZM2 12C2 6.47715 6.47715 2 12 2C17.5228 2 22 6.47715 22 12C22 17.5228 17.5228 22 12 22C6.47715 22 2 17.5228 2 12Z" fill="#1F2937"/>
<path fill-rule="evenodd" clip-rule="evenodd" d="M8.11091 3.61091C9.14236 2.57946 10.5413 2 12 2C12.5523 2 13 2.44772 13 3C13 3.55228 12.5523 4 12 4C11.0717 4 10.1815 4.36875 9.52513 5.02513C8.86875 5.6815 8.5 6.57174 8.5 7.5C8.5 8.42826 8.86875 9.3185 9.52513 9.97487C10.1815 10.6313 11.0717 11 12 11C13.4587 11 14.8576 11.5795 15.8891 12.6109C16.9205 13.6424 17.5 15.0413 17.5 16.5C17.5 17.9587 16.9205 19.3576 15.8891 20.3891C14.8576 21.4205 13.4587 22 12 22C11.4477 22 11 21.5523 11 21C11 20.4477 11.4477 20 12 20C12.9283 20 13.8185 19.6312 14.4749 18.9749C15.1313 18.3185 15.5 17.4283 15.5 16.5C15.5 15.5717 15.1313 14.6815 14.4749 14.0251C13.8185 13.3687 12.9283 13 12 13C10.5413 13 9.14236 12.4205 8.11091 11.3891C7.07946 10.3576 6.5 8.95869 6.5 7.5C6.5 6.04131 7.07946 4.64236 8.11091 3.61091Z" fill="#1F2937"/>
<path d="M12 8.00751C12.2761 8.00751 12.5 7.78365 12.5 7.50751C12.5 7.23137 12.2761 7.00751 12 7.00751C11.7239 7.00751 11.5 7.23137 11.5 7.50751C11.5 7.78365 11.7239 8.00751 12 8.00751Z" fill="#1F2937"/>
<path fill-rule="evenodd" clip-rule="evenodd" d="M12 8.00751C12.2761 8.00751 12.5 7.78365 12.5 7.50751C12.5 7.23137 12.2761 7.00751 12 7.00751C11.7239 7.00751 11.5 7.23137 11.5 7.50751C11.5 7.78365 11.7239 8.00751 12 8.00751ZM10.5 7.50751C10.5 6.67908 11.1716 6.00751 12 6.00751C12.8284 6.00751 13.5 6.67908 13.5 7.50751C13.5 8.33593 12.8284 9.00751 12 9.00751C11.1716 9.00751 10.5 8.33593 10.5 7.50751Z" fill="#1F2937"/>
<path d="M12 17.0075C12.2761 17.0075 12.5 16.7836 12.5 16.5075C12.5 16.2314 12.2761 16.0075 12 16.0075C11.7239 16.0075 11.5 16.2314 11.5 16.5075C11.5 16.7836 11.7239 17.0075 12 17.0075Z" fill="#1F2937"/>
<path fill-rule="evenodd" clip-rule="evenodd" d="M12 17.0075C12.2761 17.0075 12.5 16.7836 12.5 16.5075C12.5 16.2314 12.2761 16.0075 12 16.0075C11.7239 16.0075 11.5 16.2314 11.5 16.5075C11.5 16.7836 11.7239 17.0075 12 17.0075ZM10.5 16.5075C10.5 15.6791 11.1716 15.0075 12 15.0075C12.8284 15.0075 13.5 15.6791 13.5 16.5075C13.5 17.3359 12.8284 18.0075 12 18.0075C11.1716 18.0075 10.5 17.3359 10.5 16.5075Z" fill="#1F2937"/>
</svg>
