<svg width="24" height="24" viewBox="0 0 24 24" fill="none" xmlns="http://www.w3.org/2000/svg">
<path fill-rule="evenodd" clip-rule="evenodd" d="M4.45835 4.73508C2.97296 4.80867 1.77978 5.97175 1.68338 7.45583C1.59102 8.87769 1.5 10.6272 1.5 12C1.5 13.3728 1.59102 15.1223 1.68338 16.5442C1.77978 18.0283 2.97296 19.1913 4.45835 19.2649C6.60929 19.3715 9.6836 19.5 12 19.5C14.3164 19.5 17.3907 19.3715 19.5417 19.2649C21.027 19.1913 22.2202 18.0283 22.3166 16.5442C22.409 15.1223 22.5 13.3728 22.5 12C22.5 10.6272 22.409 8.8777 22.3166 7.45583C22.2202 5.97175 21.027 4.80867 19.5417 4.73508C17.3907 4.62852 14.3164 4.5 12 4.5C9.6836 4.5 6.60929 4.62852 4.45835 4.73508ZM15.75 12L9.75 15V9L15.75 12Z" fill="#1F2937"/>
</svg>
